<?xml version="1.0" encoding="UTF-8"?>
<svg version="1.1" xmlns="http://www.w3.org/2000/svg" width="500" height="500">
<path d="M0 0 C2.09713175 1.92748426 4.2332948 3.79355107 6.39453125 5.6484375 C13.26522773 11.66546027 19.27768125 18.11762218 24.98828125 25.24609375 C26.46545758 27.08497593 27.96432665 28.90672573 29.48828125 30.70703125 C59.85875122 66.69176064 78.91015994 114.3217725 83.26953125 161.0859375 C83.43388672 162.65214844 83.43388672 162.65214844 83.6015625 164.25 C89.27596715 227.65201468 70.58611853 294.44435507 29.55126953 343.57958984 C26.8700575 346.73065236 24.11758511 349.81092506 21.31640625 352.85546875 C19.42281938 354.91890024 17.59126961 357.02168331 15.76953125 359.1484375 C9.10138885 366.76480198 1.89034476 373.52893818 -6.06982422 379.78027344 C-7.24707022 380.70587056 -8.42016774 381.63675512 -9.59033203 382.57128906 C-20.14110882 390.98392023 -31.00240152 398.41096039 -42.73046875 405.0859375 C-43.48021973 405.51503418 -44.2299707 405.94413086 -45.00244141 406.38623047 C-74.01451858 422.80382117 -106.63874925 432.5094718 -139.73046875 436.0859375 C-140.68824219 436.19808594 -141.64601563 436.31023437 -142.6328125 436.42578125 C-184.84097198 440.56161433 -228.00367754 433.0662737 -266.73046875 416.0859375 C-267.45105469 415.77575684 -268.17164063 415.46557617 -268.9140625 415.14599609 C-292.84411526 404.76715899 -314.83877684 390.03951457 -333.73046875 372.0859375 C-335.11986885 370.87021241 -336.51528466 369.66131139 -337.91796875 368.4609375 C-345.70771713 361.65282408 -352.29771005 354.17640873 -358.73046875 346.0859375 C-359.60601799 345.01240639 -360.48234292 343.93950753 -361.359375 342.8671875 C-391.50538986 305.69124517 -409.94420046 259.67034898 -414.73046875 212.0859375 C-414.84132813 211.01472656 -414.9521875 209.94351562 -415.06640625 208.83984375 C-419.22380833 161.14208209 -409.44780651 112.24923057 -386.73046875 70.0859375 C-386.3840332 69.43318848 -386.03759766 68.78043945 -385.68066406 68.10791016 C-354.79085757 10.15772881 -301.46610726 -32.544445 -239.1171875 -52.31640625 C-157.19145785 -77.2386517 -63.37609929 -58.35925137 0 0 Z " fill="#1877F2" transform="translate(415.73046875,62.9140625)"/>
<path d="M0 0 C0.72518829 -0.00200409 1.45037659 -0.00400818 2.19754028 -0.006073 C38.22201477 -0.03016174 38.22201477 -0.03016174 51.0625 4.25 C51.0625 24.71 51.0625 45.17 51.0625 66.25 C30.1875 66.5625 30.1875 66.5625 23.66064453 66.63793945 C21.92217946 66.6702738 20.1837334 66.70365369 18.4453125 66.73828125 C17.5680249 66.74452515 16.6907373 66.75076904 15.78686523 66.75720215 C3.79151336 67.03156215 -4.89829284 70.79600154 -13.1875 79.4375 C-19.79535081 87.83643885 -20.53695944 97.46839159 -20.546875 107.79296875 C-20.57031982 109.4571283 -20.57031982 109.4571283 -20.59423828 111.15490723 C-20.64633564 115.24889137 -20.66501734 119.34324612 -20.6875 123.4375 C-20.77 132.615625 -20.8525 141.79375 -20.9375 151.25 C1.8325 151.25 24.6025 151.25 48.0625 151.25 C44.61403918 175.38922575 44.61403918 175.38922575 43.01953125 185.45703125 C42.86528687 186.43845093 42.71104248 187.41987061 42.55212402 188.43103027 C41.99469222 191.97510705 41.43471662 195.51878335 40.875 199.0625 C38.9878125 211.0353125 38.9878125 211.0353125 37.0625 223.25 C17.9225 223.25 -1.2175 223.25 -20.9375 223.25 C-20.9375 281 -20.9375 338.75 -20.9375 398.25 C-46.52850492 402.18707768 -73.37532768 403.36243446 -98.9375 398.25 C-98.9375 340.5 -98.9375 282.75 -98.9375 223.25 C-119.7275 223.25 -140.5175 223.25 -161.9375 223.25 C-161.9375 199.49 -161.9375 175.73 -161.9375 151.25 C-141.1475 151.25 -120.3575 151.25 -98.9375 151.25 C-98.96070313 146.57585937 -98.98390625 141.90171875 -99.0078125 137.0859375 C-99.01805082 134.09634849 -99.02768009 131.1067816 -99.03515625 128.1171875 C-99.04703784 123.3886253 -99.06097875 118.66014171 -99.08837891 113.93164062 C-99.11036661 110.11257704 -99.12212226 106.29359794 -99.12725449 102.47447586 C-99.13090435 101.02908628 -99.13802896 99.58370048 -99.14896011 98.13834763 C-99.35225467 70.10189177 -92.43832433 44.39487838 -72.875 23.6875 C-52.26199333 3.77752903 -27.71831435 0.03762577 0 0 Z " fill="#FDFEFE" transform="translate(309.9375,98.75)"/>
</svg>
