<?xml version="1.0" standalone="no"?>
<!DOCTYPE svg PUBLIC "-//W3C//DTD SVG 20010904//EN"
 "http://www.w3.org/TR/2001/REC-SVG-20010904/DTD/svg10.dtd">
<svg version="1.0" xmlns="http://www.w3.org/2000/svg"
 width="1280.000000pt" height="312.000000pt" viewBox="0 0 1280.000000 312.000000"
 preserveAspectRatio="xMidYMid meet">

<g transform="translate(0.000000,312.000000) scale(0.100000,-0.100000)"
fill="#000000" stroke="none">
<path d="M6821 2150 c-197 -42 -359 -148 -423 -278 l-33 -67 0 -250 c0 -278 3
-293 65 -376 48 -64 125 -122 217 -165 112 -53 189 -68 343 -67 160 0 248 20
368 83 103 53 171 114 213 192 l34 63 0 265 0 265 -28 57 c-54 110 -206 220
-362 263 -70 20 -326 29 -394 15z m294 -214 c77 -20 118 -40 160 -77 67 -59
75 -89 75 -299 0 -102 -5 -202 -11 -223 -60 -218 -542 -252 -683 -48 l-26 37
0 223 c0 175 3 228 15 250 28 56 118 114 210 137 67 17 199 17 260 0z"/>
<path d="M8325 2145 c-181 -41 -341 -150 -406 -275 -23 -43 -24 -55 -27 -301
-3 -243 -2 -258 19 -315 42 -111 184 -225 343 -273 214 -65 464 -44 648 56 82
44 163 126 200 201 l33 67 0 250 0 250 -29 60 c-56 113 -182 210 -344 263 -66
21 -99 25 -227 28 -102 2 -169 -1 -210 -11z m368 -224 c72 -28 134 -75 158
-121 17 -31 19 -60 19 -248 0 -239 -1 -244 -70 -306 -168 -152 -549 -111 -634
68 -22 46 -24 419 -2 469 27 64 109 124 206 152 80 22 247 15 323 -14z"/>
<path d="M110 2131 c-51 -10 -80 -29 -90 -57 -6 -15 -10 -233 -10 -525 0 -560
-1 -549 68 -569 25 -8 159 -10 412 -8 367 3 376 3 433 27 79 31 153 94 190
160 25 43 31 69 35 131 5 95 -13 159 -65 219 l-36 42 26 27 c48 51 70 111 75
200 4 77 2 87 -27 146 -55 113 -168 187 -312 206 -84 11 -645 11 -699 1z m704
-221 c91 -47 98 -179 12 -231 -28 -17 -54 -19 -293 -19 l-263 0 0 128 c0 71 3
132 8 136 4 4 120 6 257 4 197 -2 256 -6 279 -18z m-22 -470 c78 -22 114 -105
80 -182 -33 -75 -48 -79 -344 -76 l-253 3 -3 119 c-1 66 0 126 2 133 4 10 56
13 243 13 132 0 255 -5 275 -10z"/>
<path d="M1934 2131 c-49 -13 -109 -51 -126 -79 -32 -54 -448 -1004 -448
-1022 0 -10 12 -28 26 -39 23 -18 41 -21 123 -21 l96 0 70 158 70 157 269 3
c162 1 273 -1 279 -7 6 -6 35 -67 67 -138 74 -168 81 -173 236 -173 63 0 114
4 114 9 0 13 -466 1058 -484 1085 -35 54 -198 92 -292 67z m262 -628 c-2 -2
-82 -2 -178 -1 l-176 3 65 145 c35 80 75 170 89 200 l25 55 89 -199 c50 -110
88 -201 86 -203z"/>
<path d="M3006 2130 c-24 -4 -49 -18 -63 -34 l-23 -27 0 -515 c0 -334 4 -522
10 -535 19 -35 63 -49 160 -49 l90 0 0 450 0 450 555 0 555 0 0 -416 c0 -266
4 -422 10 -435 19 -35 63 -49 160 -49 l90 0 0 585 0 585 -752 -1 c-414 -1
-771 -5 -792 -9z"/>
<path d="M5000 2131 c-52 -11 -76 -27 -89 -58 -8 -21 -11 -167 -9 -536 l3
-507 28 -27 27 -28 368 -3 c402 -4 439 0 535 51 188 99 239 331 107 496 l-30
38 21 19 c61 56 99 186 80 275 -27 124 -121 219 -261 265 -48 15 -101 18 -400
20 -190 1 -361 -1 -380 -5z m713 -224 c64 -41 84 -123 47 -184 -36 -60 -52
-63 -335 -63 l-255 0 0 136 0 136 258 -4 c228 -3 261 -5 285 -21z m3 -479 c62
-34 81 -130 39 -194 -32 -49 -63 -54 -335 -54 l-250 0 0 136 0 135 258 -3
c219 -3 262 -5 288 -20z"/>
<path d="M11700 1143 c-739 -50 -1429 -229 -2000 -518 -257 -130 -438 -252
-670 -451 l-115 -99 100 -3 c259 -8 802 62 1267 163 833 182 1267 383 1462
679 47 71 126 216 126 231 0 5 -84 4 -170 -2z"/>
<path d="M3115 641 c-83 -22 -130 -68 -128 -128 2 -70 71 -113 183 -113 119 0
172 -38 119 -86 -16 -15 -36 -19 -88 -19 -58 0 -73 4 -109 28 -37 27 -44 28
-77 17 l-35 -12 21 -29 c31 -44 93 -71 174 -77 90 -6 150 11 192 53 27 27 33
41 33 75 0 76 -74 120 -203 120 -81 0 -117 14 -117 46 0 33 39 55 98 56 62 0
90 -8 119 -35 17 -15 30 -18 59 -14 20 3 39 8 41 11 12 11 -40 65 -81 84 -49
23 -154 35 -201 23z"/>
<path d="M234 629 c-23 -12 -189 -373 -179 -390 4 -5 24 -9 45 -9 37 0 40 2
64 55 l25 55 95 0 95 0 28 -52 c27 -51 30 -53 75 -56 l47 -3 -81 183 c-45 105
-90 193 -104 206 -27 24 -73 28 -110 11z m87 -152 l28 -62 -61 -3 c-33 -2 -62
-1 -64 1 -2 2 10 34 26 71 17 38 34 65 37 62 4 -3 19 -34 34 -69z"/>
<path d="M616 624 c-13 -13 -16 -45 -16 -193 0 -194 2 -201 57 -201 l33 0 0
205 0 205 -29 0 c-16 0 -37 -7 -45 -16z"/>
<path d="M833 629 c-18 -18 -18 -370 -1 -387 7 -7 27 -12 45 -12 l33 0 0 70 0
71 67 -3 67 -3 32 -55 c46 -77 49 -80 100 -80 l45 0 -42 77 -42 76 27 20 c56
40 71 108 36 164 -36 60 -59 68 -215 71 -104 3 -143 0 -152 -9z m277 -84 c24
-22 26 -52 3 -77 -13 -15 -32 -18 -110 -18 l-93 0 0 53 c0 30 3 57 8 61 4 5
44 6 89 4 62 -3 88 -9 103 -23z"/>
<path d="M1348 629 c-16 -9 -18 -27 -18 -157 1 -156 5 -175 50 -210 59 -45
168 -54 238 -19 31 15 35 15 75 -3 88 -40 212 -15 261 53 19 26 21 43 21 185
l0 157 -31 3 c-58 6 -64 -12 -64 -174 l0 -145 -37 -15 c-43 -18 -97 -13 -124
12 -17 15 -19 33 -19 171 l0 153 -33 0 c-53 0 -57 -10 -57 -162 0 -123 -2
-140 -19 -157 -41 -41 -137 -35 -161 10 -6 10 -10 83 -10 163 l0 146 -27 0
c-16 0 -36 -5 -45 -11z"/>
<path d="M2221 623 c-23 -20 -171 -343 -171 -374 0 -16 7 -19 41 -19 39 0 41
1 64 55 l25 55 99 0 98 0 17 -44 c22 -57 36 -68 85 -64 l40 3 -85 191 c-90
202 -99 214 -163 214 -16 0 -38 -8 -50 -17z m90 -138 c16 -35 29 -67 29 -70 0
-3 -27 -5 -60 -5 -33 0 -60 4 -60 9 0 13 51 131 57 131 2 0 17 -29 34 -65z"/>
<path d="M2523 633 c-7 -2 -13 -9 -13 -14 0 -5 38 -60 85 -123 l85 -113 0 -64
c0 -74 10 -89 57 -89 l33 0 0 76 0 75 95 124 c52 68 95 126 95 129 0 3 -20 6
-45 6 -52 0 -60 -7 -139 -110 l-49 -63 -28 34 c-16 19 -45 58 -66 86 -32 44
-43 52 -68 52 -16 0 -36 -3 -42 -6z"/>
</g>
</svg>
