<?xml version="1.0" encoding="UTF-8"?>
<svg version="1.1" xmlns="http://www.w3.org/2000/svg" width="800" height="256">
<path d="M0 0 C0.8655249 -0.00335861 1.7310498 -0.00671722 2.62280273 -0.01017761 C5.49358548 -0.01969881 8.36430985 -0.02163209 11.23510742 -0.02270508 C13.23752364 -0.02591962 15.23993962 -0.02928385 17.24235535 -0.03279114 C21.44982445 -0.03878727 25.65727302 -0.04063082 29.86474609 -0.04003906 C35.2228505 -0.03993805 40.58082058 -0.05352503 45.93889332 -0.07081127 C50.08195076 -0.08200942 54.2249767 -0.0839558 58.36804771 -0.08342934 C60.34094386 -0.08460022 62.31384107 -0.08897118 64.28672218 -0.0967617 C92.22323351 -0.1966461 92.22323351 -0.1966461 104.84057617 4.89526367 C105.51080811 5.15766846 106.18104004 5.42007324 106.87158203 5.69042969 C118.37998494 10.36097082 127.87996497 17.93210173 133.52807617 29.14526367 C139.39604613 43.52179006 139.18683601 59.82491266 133.27416992 74.19213867 C127.16924027 86.23565112 118.07963781 92.04500079 106.52807617 98.14526367 C107.27831055 98.41338867 108.02854492 98.68151367 108.80151367 98.95776367 C123.10022363 104.43233272 133.71948689 113.91249002 140.23510742 127.81713867 C146.03593425 142.74857207 145.94803853 158.45622358 139.52807617 173.14526367 C133.06104183 187.13210539 121.66461081 196.66468491 107.52807617 202.14526367 C100.39385907 204.72674516 94.01311452 205.58787065 86.45043945 205.56518555 C85.39226517 205.57365509 84.33409088 205.58212463 83.24385071 205.59085083 C79.77857149 205.61407599 76.31373949 205.61524707 72.84838867 205.61401367 C70.42845484 205.62111948 68.00852268 205.62881909 65.58859253 205.63708496 C60.53354188 205.65049311 55.47864738 205.65211295 50.42358398 205.64624023 C43.94008898 205.64032063 37.45733671 205.67104686 30.97398567 205.71135712 C25.9846288 205.73716402 20.99545309 205.74011839 16.00603867 205.73646545 C13.6145731 205.73816051 11.22309951 205.74783984 8.83169937 205.76560974 C5.49706757 205.78768014 2.16397105 205.77816014 -1.1706543 205.76049805 C-2.15979324 205.77376129 -3.14893219 205.78702454 -4.16804504 205.8006897 C-5.07623489 205.7894809 -5.98442474 205.77827209 -6.9201355 205.76672363 C-8.10082768 205.7677924 -8.10082768 205.7677924 -9.30537224 205.76888275 C-12.69746645 204.79250412 -13.69954409 203.14472346 -15.47192383 200.14526367 C-15.85720965 197.3659874 -16.01344994 194.98670058 -15.9798584 192.21264648 C-15.98921834 191.0232163 -15.98921834 191.0232163 -15.99876738 189.80975723 C-16.01470805 187.15566424 -16.00208926 184.50248829 -15.98950195 181.84838867 C-15.9949226 179.94445256 -16.00204494 178.04052064 -16.01074219 176.13659668 C-16.02898522 170.9671959 -16.0219039 165.79811428 -16.00922585 160.62870789 C-15.9991033 155.22048071 -16.00848945 149.81228098 -16.01477051 144.40405273 C-16.02204907 135.32164602 -16.01245368 126.23936939 -15.9934082 117.15698242 C-15.97163911 106.65443116 -15.97869033 96.15219049 -16.00071383 85.64964676 C-16.01886182 76.63465337 -16.02142907 67.61975352 -16.01095915 58.60474777 C-16.00472093 53.21947895 -16.00389766 47.83435614 -16.0171051 42.44909668 C-16.02865418 37.38632152 -16.02065496 32.32394706 -15.99752808 27.26121521 C-15.99223597 25.40242682 -15.99376333 23.54360474 -16.00257874 21.68482971 C-16.01349813 19.14872383 -15.99981505 16.61390459 -15.9798584 14.07788086 C-15.98878129 13.3410117 -15.99770417 12.60414253 -16.00689745 11.844944 C-15.95231408 8.27276454 -15.54616591 6.26334632 -13.62767792 3.2119751 C-9.63372601 -0.61700803 -5.20967426 -0.00288577 0 0 Z M59.51635742 29.16870117 C58.54452515 29.19037354 57.57269287 29.2120459 56.57141113 29.234375 C52.99416031 29.3174011 49.41738337 29.41992893 45.84057617 29.52026367 C37.81745117 29.72651367 29.79432617 29.93276367 21.52807617 30.14526367 C21.52807617 48.62526367 21.52807617 67.10526367 21.52807617 86.14526367 C30.74745117 86.22776367 39.96682617 86.31026367 49.46557617 86.39526367 C52.35944092 86.43167969 55.25330566 86.4680957 58.23486328 86.50561523 C60.5500413 86.51730686 62.86522759 86.52749756 65.18041992 86.53588867 C66.957453 86.56658447 66.957453 86.56658447 68.77038574 86.59790039 C78.47506957 86.60195796 85.78640984 84.48550892 93.02416992 77.85229492 C99.26966065 70.76325739 99.83513228 62.44962054 99.74291992 53.37182617 C99.28843529 46.54629336 96.73610105 40.74134562 91.52807617 36.14526367 C81.91235022 29.14672119 71.0152422 28.81110093 59.51635742 29.16870117 Z M21.52807617 112.14526367 C21.52807617 133.26526367 21.52807617 154.38526367 21.52807617 176.14526367 C31.40745117 176.20713867 41.28682617 176.26901367 51.46557617 176.33276367 C56.11961548 176.37373169 56.11961548 176.37373169 60.86767578 176.41552734 C63.34691988 176.42429518 65.82616831 176.43193841 68.30541992 176.43823242 C69.57647583 176.45358032 70.84753174 176.46892822 72.15710449 176.48474121 C83.96909863 176.48820209 91.81251349 174.26459068 100.52807617 166.14526367 C106.27522278 159.49067286 107.88817305 151.12312872 107.46557617 142.52026367 C106.47825466 133.65537693 103.30116273 126.12765951 96.52807617 120.14526367 C88.43118941 114.75210765 80.56652576 112.00923038 70.7980957 112.03173828 C69.12420776 112.03191956 69.12420776 112.03191956 67.41650391 112.03210449 C65.68122437 112.03977844 65.68122437 112.03977844 63.91088867 112.04760742 C62.29815063 112.04911804 62.29815063 112.04911804 60.65283203 112.05065918 C56.6529025 112.0558744 52.65298822 112.06983563 48.65307617 112.08276367 C39.70182617 112.10338867 30.75057617 112.12401367 21.52807617 112.14526367 Z " fill="#006A67" transform="translate(15.471923828125,50.854736328125)"/>
<path d="M0 0 C0.82008545 -0.0049649 1.6401709 -0.00992981 2.48510742 -0.01504517 C5.20679566 -0.0296802 7.9284253 -0.03647668 10.65014648 -0.04199219 C12.55329895 -0.04774956 14.45645142 -0.05350722 16.35960388 -0.05926514 C20.36197173 -0.06978373 24.36431949 -0.07561847 28.36669922 -0.07910156 C33.44646519 -0.08453964 38.52595674 -0.10846201 43.60563755 -0.13707352 C47.54640922 -0.15590117 51.48711803 -0.16091641 55.42793083 -0.16243744 C57.29705212 -0.16542751 59.1661733 -0.17332936 61.03524971 -0.18662262 C88.35160996 -0.36677597 112.84729367 4.32146255 132.95874023 24.16113281 C153.83475597 45.37385848 160.20481434 74.95919304 160.1418457 103.79882812 C159.70800139 132.87328346 152.63840096 161.94617776 132.14624023 183.53613281 C117.85343491 197.00004504 100.7581049 205.72472985 80.88769531 205.50170898 C79.3198378 205.5023661 79.3198378 205.5023661 77.7203064 205.5030365 C74.3060968 205.50096623 70.89239404 205.47771873 67.47827148 205.45410156 C65.09502938 205.44849934 62.7117838 205.44423221 60.32853699 205.4412384 C54.08635756 205.42983898 47.84439088 205.40041418 41.60229492 205.36712646 C35.22048825 205.33631957 28.83864687 205.32271044 22.45678711 205.30761719 C9.9573452 205.27553962 -2.54193952 205.22440295 -15.04125977 205.16113281 C-15.1346503 179.30114482 -15.20521312 153.44118205 -15.24850845 127.58105946 C-15.26914445 115.57408325 -15.29728498 103.56721174 -15.34301758 91.56030273 C-15.38285345 81.09657891 -15.40868502 70.63293091 -15.41761374 60.16913337 C-15.42283397 54.6272507 -15.43512514 49.08558497 -15.46417999 43.54377174 C-15.49129763 38.32928638 -15.4997121 33.11510765 -15.49369049 27.90055847 C-15.49479236 25.9853111 -15.50276788 24.07005364 -15.51808167 22.15486717 C-15.53795252 19.54193815 -15.53320978 16.93017026 -15.52227783 14.31721497 C-15.5339292 13.55748046 -15.54558056 12.79774596 -15.557585 12.0149892 C-15.51651597 8.38904431 -15.13818505 6.31616873 -13.19869614 3.21387768 C-9.29089463 -0.50429431 -5.08515466 0.00734003 0 0 Z M21.95874023 29.16113281 C21.95874023 77.67113281 21.95874023 126.18113281 21.95874023 176.16113281 C66.03467649 179.95279244 66.03467649 179.95279244 103.70874023 163.03613281 C118.30529383 147.3448377 121.14652751 127.63353612 121.14404297 107.06152344 C121.14621344 105.06083067 121.1646799 103.06017715 121.18334961 101.05957031 C121.21419028 80.17015412 118.08873345 58.61141045 103.27124023 42.72363281 C81.50260409 22.31553643 49.57958685 29.64570907 21.95874023 29.16113281 Z " fill="#006A67" transform="translate(241.041259765625,50.8388671875)"/>
<path d="M0 0 C4.42908378 -0.07460234 8.8578269 -0.12881371 13.28735352 -0.16479492 C14.79165017 -0.17980722 16.29590361 -0.20022353 17.80004883 -0.22631836 C19.97227696 -0.26303816 22.14392251 -0.27980161 24.31640625 -0.29296875 C25.62037354 -0.3086792 26.92434082 -0.32438965 28.26782227 -0.34057617 C33.05209354 0.09600775 36.99397532 0.82537496 40.37905884 4.4949646 C44.57050327 10.59751815 46.5552009 17.79873791 48.80859375 24.77734375 C49.2555993 26.13438092 49.70360577 27.49108875 50.15254211 28.8474884 C51.10105503 31.71951816 52.04319794 34.59352303 52.98010254 37.46936035 C54.44724057 41.97231825 55.92859357 46.47051117 57.41308594 50.96777344 C57.90995781 52.47341418 58.40681453 53.97905992 58.90365601 55.48471069 C59.14868237 56.22719433 59.39370872 56.96967796 59.64616013 57.7346611 C60.38574432 59.97751371 61.12393249 62.2208213 61.86172485 64.46426392 C65.74092536 76.25511241 69.71333482 88.01209766 73.75 99.75 C74.8380204 102.92160753 75.92494908 106.0935887 77.01171875 109.265625 C77.2646167 110.00345718 77.51751465 110.74128937 77.77807617 111.5014801 C95 161.78354702 95 161.78354702 95 169 C95.66 169 96.32 169 97 169 C97.11754639 167.99018066 97.23509277 166.98036133 97.35620117 165.93994141 C97.9914301 162.05244633 98.99231555 158.67130265 100.30078125 154.9609375 C100.53290817 154.29519211 100.7650351 153.62944672 101.00419617 152.94352722 C101.50584564 151.50557161 102.01014778 150.06853918 102.5168457 148.63235474 C103.89771847 144.71467378 105.25554972 140.7890311 106.61328125 136.86328125 C106.89527374 136.04872971 107.17726624 135.23417816 107.46780396 134.39494324 C110.42554194 125.82067039 113.22238611 117.19647067 116 108.5625 C116.99920191 105.46198182 117.99928205 102.36174794 119 99.26171875 C119.37133308 98.11139664 119.37133308 98.11139664 119.75016785 96.93783569 C123.89773528 84.10967236 128.17450734 71.32441581 132.47363281 58.54638672 C133.52053942 55.43276391 134.56089568 52.31704724 135.59667969 49.19970703 C136.92385774 45.20561916 138.26139396 41.21513526 139.60595703 37.22686768 C140.10950559 35.72785158 140.60963982 34.22768319 141.10595703 32.72625732 C149.52661294 7.28271017 149.52661294 7.28271017 160 2 C165.6051224 0.05548476 170.52868082 -0.26797854 176.43359375 -0.1953125 C177.31153091 -0.1924826 178.18946808 -0.18965271 179.0940094 -0.18673706 C181.87531645 -0.17561598 184.65629164 -0.15052672 187.4375 -0.125 C189.33267761 -0.11495975 191.22786032 -0.10583573 193.12304688 -0.09765625 C197.74882417 -0.07570315 202.37435598 -0.0412296 207 0 C207.609375 2.3515625 207.609375 2.3515625 208 5 C205.17628627 8.83218292 201.85142681 10.66126505 197.75 13 C187.94017158 19.17558326 183.28681967 28.65397476 179.203125 39.109375 C178.68873619 40.41218666 178.68873619 40.41218666 178.16395569 41.74131775 C174.31740972 51.58706689 170.86670126 61.56560612 167.4375 71.5625 C166.74492569 73.56911581 166.05179845 75.57554086 165.3581543 77.58178711 C163.93517972 81.69842662 162.51423151 85.81575663 161.09472656 89.93359375 C158.16560115 98.42416548 155.20788667 106.90473943 152.24743652 115.38442993 C151.31323395 118.06039764 150.37971362 120.73660262 149.44628906 123.4128418 C145.11211255 135.83551373 140.75179468 148.24888615 136.38336182 160.6595459 C131.19006099 175.41726568 126.07564374 190.20140784 121 205 C114.98605117 205.0991017 108.97258085 205.17157916 102.95800781 205.21972656 C100.9133272 205.2398042 98.86870373 205.26707225 96.82421875 205.30175781 C93.88006463 205.35044519 90.93667166 205.37300744 87.9921875 205.390625 C87.0825827 205.41127014 86.17297791 205.43191528 85.23580933 205.45318604 C78.15030357 205.45567395 74.57674369 203.47508157 69.42578125 198.52734375 C65.77265783 193.84292107 64.13221595 188.10272673 62.1875 182.5625 C61.720435 181.25864565 61.25271957 179.95502415 60.78442383 178.65161133 C54.28984392 160.47168795 48.16903203 142.15654636 41.98583984 123.86914062 C39.00458844 115.05381232 36.0051276 106.24471348 33 97.4375 C32.72028351 96.61721313 32.44056702 95.79692627 32.15237427 94.95178223 C27.36786157 80.9267464 22.50431607 66.92979418 17.625 52.9375 C9.11747868 28.53897771 9.11747868 28.53897771 5.125 16.5625 C4.82158691 15.65298584 4.51817383 14.74347168 4.20556641 13.80639648 C2.69376289 9.23105998 1.31165971 4.63777917 0 0 Z " fill="#006A67" transform="translate(390,51)"/>
<path d="M0 0 C4.0384057 -0.0744389 8.07654293 -0.12873729 12.11547852 -0.16479492 C13.48794517 -0.17983432 14.86036414 -0.20027133 16.23266602 -0.22631836 C18.21088656 -0.26291221 20.18946514 -0.27816698 22.16796875 -0.29296875 C23.35672607 -0.3086792 24.5454834 -0.32438965 25.77026367 -0.34057617 C30.20643929 0.1272192 32.5920783 1.67255911 35.78995228 4.68763351 C37.55202163 8.05489749 37.40348156 11.28870649 37.36076355 14.99786377 C37.36332682 15.80982484 37.3658901 16.6217859 37.36853105 17.45835185 C37.37347726 20.18239674 37.35696233 22.90588888 37.34057617 25.62988281 C37.33973008 27.5811868 37.34020469 29.53249174 37.34190369 31.48379517 C37.34276576 36.78512551 37.32510556 42.08625294 37.30418181 47.38753605 C37.28545044 52.92621398 37.28366737 58.46489636 37.28010559 64.00360107 C37.27077472 74.49372233 37.24614681 84.98374998 37.21605712 95.47382998 C37.18254555 107.41564126 37.16603526 119.35745696 37.15097082 131.29930353 C37.11959819 155.86625428 37.06681741 180.4331219 37 205 C32.37359847 205.09901748 27.74781613 205.17153649 23.12060547 205.21972656 C21.54725396 205.2398188 19.97397692 205.26709799 18.40087891 205.30175781 C16.13685728 205.35038494 13.87382427 205.37299135 11.609375 205.390625 C10.90818542 205.41127014 10.20699585 205.43191528 9.48455811 205.45318604 C6.30184213 205.45464212 4.27777639 205.17235829 1.55447769 203.48257065 C-0.62034468 200.0092817 -0.54107588 196.85947799 -0.48101807 192.88824463 C-0.48443577 192.06403291 -0.48785347 191.23982118 -0.49137473 190.39063334 C-0.49797072 187.62497883 -0.47594952 184.86029186 -0.45410156 182.09472656 C-0.45297346 180.1138664 -0.45360623 178.13300457 -0.45587158 176.15214539 C-0.45702109 170.77017649 -0.43347335 165.38856287 -0.40557575 160.00667667 C-0.38060158 154.38392491 -0.37822324 148.76116536 -0.37347412 143.1383667 C-0.36103264 132.48883984 -0.32819509 121.83947686 -0.28807616 111.19002223 C-0.24339499 99.06684588 -0.22138059 86.94366177 -0.20129442 74.8204236 C-0.15946355 49.88019147 -0.08908864 24.94010491 0 0 Z " fill="#006A67" transform="translate(171,51)"/>
<path d="M0 0 C1.98 1.65 3.96 3.3 6 5 C5.65586146 7.71811117 5.31172595 8.75035783 3.13671875 10.4921875 C0.43522336 12.0174337 -2.266961 13.53171841 -5 15 C-5.94875 15.52078125 -6.8975 16.0415625 -7.875 16.578125 C-15.01534392 20.33819972 -22.2263937 22.8685273 -30 25 C-30.02578125 26.16273438 -30.0515625 27.32546875 -30.078125 28.5234375 C-30.83114653 52.58716586 -36.3708229 73.95074882 -54.125 91.1875 C-63.56274343 99.27008027 -75.7186762 103.52372047 -88.0703125 103.25 C-102.24246415 102.04064306 -114.64223841 95.32662715 -124.046875 84.68359375 C-130.65311578 75.88938861 -134.19499024 65.18419015 -134.0625 54.1875 C-134.05347656 53.21167969 -134.04445313 52.23585937 -134.03515625 51.23046875 C-134.02355469 50.49441406 -134.01195312 49.75835937 -134 49 C-133.20529297 49.02094727 -132.41058594 49.04189453 -131.59179688 49.06347656 C-111.63421193 49.70690472 -111.63421193 49.70690472 -92.1640625 45.97265625 C-88.65458817 44.89381784 -85.6847185 44.06839385 -82 44 C-79.59375 46.02734375 -79.59375 46.02734375 -77.5 48.9375 C-76.35337891 50.46117187 -76.35337891 50.46117187 -75.18359375 52.015625 C-74.46300781 53.00046875 -73.74242187 53.9853125 -73 55 C-67.0723972 62.45184352 -60.1533823 69.77514289 -51 73 C-49.86684609 70.5034256 -48.74343421 68.00316228 -47.625 65.5 C-47.30789063 64.80390625 -46.99078125 64.1078125 -46.6640625 63.390625 C-41.12274273 50.92265551 -40.82198525 38.62637908 -41.12695312 25.15234375 C-41.13791016 24.25644531 -41.14886719 23.36054688 -41.16015625 22.4375 C-41.17699463 21.63183594 -41.19383301 20.82617188 -41.21118164 19.99609375 C-41 18 -41 18 -39 16 C-36.37527942 15.32767224 -33.77515175 14.73707854 -31.125 14.1875 C-19.29034976 11.54415834 -9.67576653 7.4280774 0 0 Z " fill="#FEC52E" transform="translate(771,107)"/>
<path d="M0 0 C0.34611328 1.50626953 0.34611328 1.50626953 0.69921875 3.04296875 C4.41043214 18.78610242 9.53347327 33.35771827 20 46 C17.58811352 50.5142831 15.13969906 54.8588408 12.125 59 C9.1674435 63.33262823 7.17531398 67.91937623 5.1875 72.75 C4.88537598 73.48347656 4.58325195 74.21695313 4.27197266 74.97265625 C2.81229923 78.62476084 1.59287819 82.08854389 1 86 C18.16228148 88.39609605 36.58967348 88.27970627 52.140625 79.63671875 C54.8181749 78.71982666 56.35632478 79.041351 59 80 C60.5546875 81.96875 60.5546875 81.96875 61.875 84.5 C64.42675123 89.1250491 67.32208819 93.11768266 70.6796875 97.1875 C72 99 72 99 72 101 C72.82564453 101.36351562 72.82564453 101.36351562 73.66796875 101.734375 C76.52614628 103.28554673 78.83587031 105.14253508 81.3125 107.25 C82.21613281 107.99765625 83.11976563 108.7453125 84.05078125 109.515625 C86 112 86 112 85.85546875 115.171875 C85 118 85 118 84 120 C79.24701962 119.5584663 76.64236158 117.37039968 73.3125 114.1875 C72.79502197 113.70265137 72.27754395 113.21780273 71.74438477 112.71826172 C64.98862729 106.2549747 58.63677203 99.14768249 54 91 C48.98968916 91.89237447 44.2767487 93.47855772 39.44921875 95.0625 C23.37053207 99.43269796 2.85957407 99.46142311 -11.83203125 91.45703125 C-24.92132904 83.6321022 -33.79098344 74.15331883 -38.3046875 59.3984375 C-40.98931057 46.27696519 -39.41062364 32.67188818 -32.25 21.1875 C-25.07796952 11.40420655 -13.04187391 -0.74524994 0 0 Z " fill="#FEC52D" transform="translate(636,57)"/>
<path d="M0 0 C3.49773208 2.67079223 6.54140698 5.56729486 9.4453125 8.8671875 C10.4353125 9.95 10.4353125 9.95 11.4453125 11.0546875 C12.4453125 12.8671875 12.4453125 12.8671875 12.26953125 14.8203125 C11.15477372 17.58871508 9.88691424 18.06152526 7.2578125 19.4296875 C-4.06460816 25.90889818 -13.10200314 33.57988008 -20.6640625 44.21484375 C-22.5546875 46.8671875 -22.5546875 46.8671875 -24.5546875 48.8671875 C-29.32883509 48.5389969 -33.71150148 47.64521868 -38.34008789 46.40722656 C-48.3843424 43.73133942 -58.19430421 43.09463829 -68.5546875 42.8671875 C-65.2798231 60.62600502 -59.27556625 78.15822007 -45.92578125 90.90234375 C-44.5546875 92.8671875 -44.5546875 92.8671875 -44.5546875 95.27734375 C-45.84235765 98.61220824 -47.7013587 100.60874969 -50.1171875 103.2421875 C-58.01053839 112.21991482 -62.94045365 122.9083821 -67.5546875 133.8671875 C-69.8646875 133.5371875 -72.1746875 133.2071875 -74.5546875 132.8671875 C-76.51554668 126.98460995 -72.72430903 120.45098778 -70.265625 115.01953125 C-66.59127874 107.88637301 -61.80842421 101.90314724 -56.5546875 95.8671875 C-58.78333349 91.76647888 -61.16001801 88.00058601 -63.9296875 84.2421875 C-70.47879474 74.96662788 -74.34335431 64.95685844 -76.5546875 53.8671875 C-76.7815625 52.7534375 -77.0084375 51.6396875 -77.2421875 50.4921875 C-78.5146012 35.73218856 -77.41804737 21.62819603 -67.5546875 9.8671875 C-49.86985087 -10.84129913 -22.77198607 -15.46901678 0 0 Z " fill="#FEC52D" transform="translate(715.5546875,9.1328125)"/>
<path d="M0 0 C0.72058594 0.30550781 1.44117188 0.61101563 2.18359375 0.92578125 C14.39727423 6.91287953 23.96586133 17.54465471 28.625 30.2265625 C30.14781928 34.95262066 30.50184203 39.30740892 30.4375 44.25 C30.42614014 45.48834595 30.42614014 45.48834595 30.41455078 46.75170898 C30.11601826 57.95321575 26.74729216 67.97790648 20 77 C19.01 77.495 19.01 77.495 18 78 C17.14019531 77.29875 16.28039062 76.5975 15.39453125 75.875 C3.39691576 66.19541696 -8.20098441 58.64713023 -23 54 C-24.485 53.505 -24.485 53.505 -26 53 C-26.04487549 52.351521 -26.08975098 51.70304199 -26.13598633 51.03491211 C-26.2950696 29.32534923 -26.2950696 29.32534923 -34 10 C-50.90852491 17.06070271 -62.49544839 29.16558716 -71.875 44.6875 C-74 48 -74 48 -77 49 C-79.71484375 47.890625 -79.71484375 47.890625 -82.9375 46.25 C-92.89569918 41.50223026 -102.07549144 39.72556227 -113.06640625 39.2109375 C-116 39 -116 39 -119 38 C-120.35439668 35.29120665 -120.06501451 32.99066732 -120 30 C-107.48113338 29.32694265 -96.88845054 30.80919709 -84.90380859 34.44873047 C-82.62537764 35.10847618 -80.33642136 35.59427413 -78 36 C-77.09121094 34.64068359 -77.09121094 34.64068359 -76.1640625 33.25390625 C-64.7835537 16.56096216 -49.46223086 4.03806585 -30 -2 C-29.37738281 -2.19980469 -28.75476563 -2.39960938 -28.11328125 -2.60546875 C-18.92928775 -4.32004055 -8.57029249 -3.7032128 0 0 Z " fill="#FEC52E" transform="translate(770,25)"/>
<path d="M0 0 C0.65264429 2.01864397 1.29678746 4.04003727 1.9375 6.0625 C2.29714844 7.18785156 2.65679688 8.31320313 3.02734375 9.47265625 C5.05368586 16.82119813 5.12646161 23.87526925 5.0625 31.4375 C5.05798828 32.45521484 5.05347656 33.47292969 5.04882812 34.52148438 C5.03712437 37.01438509 5.02072848 39.50716074 5 42 C6.56041016 42.18369141 6.56041016 42.18369141 8.15234375 42.37109375 C22.98213194 44.79504898 37.62948299 54.48053481 48 65 C48.64582031 65.63550781 49.29164063 66.27101563 49.95703125 66.92578125 C61.12142756 78.67393685 63.63617331 92.52724844 63.3046875 108.07421875 C62.71239735 120.96509566 56.48002104 130.97446703 47.3125 139.8125 C37.38701997 147.82997513 24.50566287 151.98526391 11.76123047 150.79003906 C0.44904993 149.22452496 0.44904993 149.22452496 -4 147 C-1.41450503 139.06723134 -1.41450503 139.06723134 0.01953125 135.375 C4.87362621 122.86706991 5.44018973 110.25866435 6 97 C10.59114605 94.61266232 15.08747895 92.53428238 20 90.875 C28.70201924 87.62066924 38.39569034 82.60430966 45 76 C34.0191705 61.25431467 16.48542395 54.67568235 -0.640625 49.98046875 C-4 49 -4 49 -5 48 C-5.05108307 46.16346887 -5.03529063 44.32501699 -4.9921875 42.48828125 C-4.61780685 24.5344891 -4.61780685 24.5344891 -8 7 C-8.33906608 5.66811296 -8.67484362 4.33535097 -9 3 C-3.375 0 -3.375 0 0 0 Z " fill="#FEC52E" transform="translate(736,38)"/>
</svg>
