<?xml version="1.0" encoding="UTF-8"?>
<svg version="1.1" xmlns="http://www.w3.org/2000/svg" width="512" height="194">
<path d="M0 0 C1.22428711 0.00829834 2.44857422 0.01659668 3.70996094 0.02514648 C30.29932296 0.51864785 52.60510483 11.66203834 71.25 30.4375 C71.62152097 31.0233516 71.99304193 31.60920321 72.37582111 32.21280789 C74.50315674 35.40017365 76.13284014 37.16834269 79.9312191 38.08348608 C83.40715164 38.33054882 86.82283247 38.34888497 90.30737305 38.29705811 C91.65297466 38.30209556 92.99856766 38.31021421 94.34413433 38.32114244 C98.03639196 38.34228552 101.72730041 38.31994912 105.4194541 38.2905252 C109.40317968 38.26644524 113.38676119 38.28283443 117.37051392 38.29441833 C124.27211386 38.3090813 131.17330378 38.29850691 138.07485962 38.27111053 C148.05981151 38.23177452 158.04442369 38.23388861 168.02942932 38.24666575 C184.23810279 38.26656042 200.44661896 38.25745676 216.65527344 38.22802734 C232.38509251 38.19956975 248.11488286 38.17724754 263.84472656 38.16845703 C264.81351836 38.16790875 265.78231016 38.16736047 266.78045928 38.16679558 C277.35629137 38.16116148 287.93211685 38.15927625 298.50794983 38.16319656 C299.43736855 38.16354012 300.36678728 38.16388367 301.32437021 38.16423763 C305.03977053 38.16569661 308.75517066 38.16725057 312.47057068 38.16934505 C323.34969179 38.1754631 334.22864485 38.16969571 345.10773587 38.14232048 C351.93097134 38.1255779 358.75416701 38.11876013 365.57742286 38.11975804 C369.51539509 38.11987395 373.45319855 38.11487959 377.39113235 38.09671593 C380.9959082 38.08012463 384.60042478 38.07725124 388.20522749 38.08524647 C390.12719153 38.08585572 392.04914241 38.07154937 393.97104931 38.05671763 C400.80892537 38.08744264 405.90409252 38.28799799 411.11328125 43.19140625 C411.59152344 43.78824219 412.06976563 44.38507812 412.5625 45 C413.05363281 45.59941406 413.54476563 46.19882812 414.05078125 46.81640625 C416.89485365 50.66099923 416.41250335 54.5070484 416.42700195 59.10644531 C416.43685875 60.45304985 416.43685875 60.45304985 416.44691467 61.82685852 C416.46667198 64.80644814 416.47831617 67.78598729 416.48828125 70.765625 C416.49235678 71.78233025 416.4964323 72.79903549 416.50063133 73.84654999 C416.52150324 79.22858986 416.53579966 84.61060416 416.54516602 89.99267578 C416.55622799 95.55238228 416.59062242 101.11168826 416.63033772 106.6712532 C416.65648376 110.94523869 416.66485612 115.21912852 416.66844749 119.49318695 C416.67331927 121.54249524 416.68495002 123.5917991 416.70348549 125.64102936 C416.72783206 128.51133426 416.72691992 131.38060002 416.7199707 134.25097656 C416.73278076 135.0958815 416.74559082 135.94078644 416.75878906 136.81129456 C416.70446121 142.97555618 415.03002494 146.57590953 410.65234375 151.08203125 C406.21796592 154.6177085 403.39384292 155.56444576 397.80470276 155.54264545 C396.66644295 155.54071951 395.52818314 155.53879357 394.3554306 155.53680927 C392.47128323 155.52599827 392.47128323 155.52599827 390.54907227 155.51496887 C389.2055143 155.51094449 387.86195485 155.50739311 386.51839447 155.5042755 C383.59180022 155.4965663 380.6652394 155.48574163 377.73866463 155.47258186 C372.97702788 155.45128465 368.2153858 155.43699878 363.45372009 155.42398071 C358.32636992 155.40974016 353.19902227 155.39521946 348.07167912 155.37862074 C335.3511688 155.33793149 322.63072688 155.31727988 309.91015625 155.3087616 C308.99051645 155.30811564 308.07087665 155.30746969 307.12336898 155.30680416 C298.58145432 155.30090869 290.0395391 155.2962592 281.49762344 155.29208529 C275.63790072 155.28912677 269.77817885 155.28541252 263.91845703 155.28100586 C262.94510792 155.28028325 261.97175881 155.27956064 260.96891427 155.27881613 C245.20774573 155.2659173 229.44693067 155.21360308 213.68590581 155.14760736 C197.50276256 155.08083099 181.32000866 155.05973809 165.13673878 155.08007544 C155.15620941 155.09111585 145.17709836 155.06619754 135.1968115 154.99495133 C128.35175671 154.94943252 121.5075763 154.94808006 114.66245383 154.98116646 C110.71491308 154.99892853 106.76990821 154.99740686 102.82264519 154.94311714 C86.62796121 153.85700232 86.62796121 153.85700232 72.08666992 159.040411 C69.23318982 161.8240231 67.32822079 165.04596423 65.25 168.4375 C44.37775741 187.34309031 18.77171547 193.45874761 -8.70751953 192.62109375 C-20.26407865 191.92373117 -31.38714065 188.51470551 -41.75 183.4375 C-42.6471875 183.00824219 -43.544375 182.57898438 -44.46875 182.13671875 C-66.25625118 171.02384099 -83.16787837 151.62042812 -91.42724609 128.54541016 C-99.72264629 102.93558226 -97.71750525 75.23518787 -85.703125 51.24951172 C-74.0629616 29.12008223 -54.03540189 12.73265299 -30.58984375 4.54296875 C-20.27010721 1.57197644 -10.76512498 -0.0949688 0 0 Z " fill="#0384CC" transform="translate(95.75,-0.4375)"/>
<path d="M0 0 C1.22428711 0.00829834 2.44857422 0.01659668 3.70996094 0.02514648 C30.27990051 0.51828737 52.64025144 11.66892001 71.25 30.4375 C81.40825105 41.27655094 88.80854844 55.32935975 93.25 69.4375 C93.56839844 70.44039063 93.88679687 71.44328125 94.21484375 72.4765625 C98.34389285 88.11747662 98.15552925 107.01481335 93.25 122.4375 C93.05664062 123.05850586 92.86328125 123.67951172 92.6640625 124.31933594 C84.34320697 150.42473608 67.33077073 170.39884187 43.02734375 183.125 C19.14992751 194.73006257 -8.12549055 195.89508746 -33.13671875 187.26953125 C-36.07909221 186.10539117 -38.90901064 184.82942151 -41.75 183.4375 C-42.6471875 183.00824219 -43.544375 182.57898438 -44.46875 182.13671875 C-66.25625118 171.02384099 -83.16787837 151.62042812 -91.42724609 128.54541016 C-99.72264629 102.93558226 -97.71750525 75.23518787 -85.703125 51.24951172 C-74.0629616 29.12008223 -54.03540189 12.73265299 -30.58984375 4.54296875 C-20.27010721 1.57197644 -10.76512498 -0.0949688 0 0 Z " fill="#FCFDFE" transform="translate(95.75,-0.4375)"/>
<path d="M0 0 C0.886875 0.27714844 1.77375 0.55429687 2.6875 0.83984375 C19.15999564 6.5682597 32.58122009 20.14501975 41 35 C17.33333333 58.66666667 -6.33333333 82.33333333 -30 106 C-33.0815099 104.63204825 -35.13196014 103.09144744 -37.46411133 100.66772461 C-38.45082573 99.65173439 -38.45082573 99.65173439 -39.45747375 98.61521912 C-40.50912971 97.51984581 -40.50912971 97.51984581 -41.58203125 96.40234375 C-43.08599302 94.8633501 -44.59056951 93.32495698 -46.09570312 91.78710938 C-48.45906294 89.36182103 -50.81749187 86.93231129 -53.1652832 84.49194336 C-55.43650451 82.135959 -57.72628223 79.79936531 -60.01953125 77.46484375 C-60.71456253 76.73257065 -61.40959381 76.00029755 -62.12568665 75.24583435 C-65.3910163 71.94669695 -67.28862015 70.19387739 -71.85107422 68.95043945 C-75.59979719 69.00944013 -76.6777471 69.65220756 -79.3125 72.25 C-79.96863281 72.87390625 -80.62476562 73.4978125 -81.30078125 74.140625 C-83.61725127 76.67542897 -84.91789321 78.41904295 -85.40393066 81.85806274 C-84.87399621 85.98010879 -83.44070903 87.33108622 -80.53710938 90.27099609 C-80.06228119 90.75955078 -79.587453 91.24810547 -79.09823608 91.75146484 C-77.5284518 93.35777117 -75.93756663 94.94099913 -74.34375 96.5234375 C-73.24116723 97.63514551 -72.13933049 98.74759388 -71.03820801 99.86074829 C-68.72781198 102.18900402 -66.40641105 104.50556618 -64.07714844 106.81494141 C-61.0984008 109.77072088 -58.15252277 112.75698778 -55.2146225 115.75330162 C-52.94663644 118.0580461 -50.66024272 120.34381397 -48.36811829 122.62453079 C-47.2743572 123.71798579 -46.18676039 124.81764404 -45.1056366 125.92359543 C-43.58826749 127.47085046 -42.04741661 128.99025021 -40.49804688 130.50537109 C-39.62756714 131.37551849 -38.7570874 132.24566589 -37.86022949 133.1421814 C-34.84813123 135.09864405 -32.68513179 135.81025798 -29.06778526 135.57801247 C-24.83842461 134.39577018 -22.18300878 131.2091631 -19.22290039 128.11523438 C-18.12628082 127.01795769 -18.12628082 127.01795769 -17.00750732 125.89851379 C-14.60156517 123.48192078 -12.22507947 121.03837732 -9.84765625 118.59375 C-8.18179324 116.91042243 -6.51407704 115.22892697 -4.84458923 113.54919434 C-0.4592395 109.12766444 3.90198525 104.68308339 8.25817871 100.23284912 C13.56837221 94.81656788 18.90578553 89.42713599 24.23977757 84.03430939 C28.38600624 79.84148604 32.52777047 75.64454091 36.65696716 71.43493652 C37.79223595 70.27987862 37.79223595 70.27987862 38.95043945 69.10148621 C40.37062485 67.65620044 41.78885884 66.20899376 43.20484924 64.75959778 C44.13616165 63.81300545 44.13616165 63.81300545 45.08628845 62.84729004 C45.89893363 62.01767635 45.89893363 62.01767635 46.72799587 61.1713028 C48 60 48 60 49 60 C50.04378952 84.43430985 45.63424039 103.58854635 28.94140625 122.30859375 C16.17354499 135.80474656 -2.62315976 144.78629533 -21.29907227 145.42407227 C-40.68240351 145.54578516 -57.75545788 140.27547418 -73 128 C-73.63292969 127.53078125 -74.26585938 127.0615625 -74.91796875 126.578125 C-90.1057001 114.76158345 -97.40899631 95.48249295 -100 77 C-101.52936451 55.14773401 -94.05936687 35.85075872 -80.1875 19.25 C-59.61245141 -2.88315907 -28.10134656 -9.69361354 0 0 Z " fill="#0284CB" transform="translate(121,26)"/>
<path d="M0 0 C90.42 0 180.84 0 274 0 C274 0.99 274 1.98 274 3 C183.58 3 93.16 3 0 3 C0 2.01 0 1.02 0 0 Z " fill="#DFE8F4" transform="translate(216,105)"/>
<path d="M0 0 C3.8053125 -0.12375 3.8053125 -0.12375 7.6875 -0.25 C8.87218872 -0.30462402 8.87218872 -0.30462402 10.08081055 -0.36035156 C13.90260839 -0.42027101 15.63709783 -0.23202728 18.95703125 1.890625 C23.4285041 6.50744209 22.22272184 12.21242081 22.25 18.3125 C22.270625 19.45396484 22.29125 20.59542969 22.3125 21.77148438 C22.31765625 22.87427734 22.3228125 23.97707031 22.328125 25.11328125 C22.3374707 26.12173096 22.34681641 27.13018066 22.35644531 28.16918945 C21.94216655 31.45930059 20.91875001 33.32184324 19 36 C15.49383463 38.68591568 11.4691945 38.22788498 7.25 38.125 C4.8575 38.08375 2.465 38.0425 0 38 C0 32.39 0 26.78 0 21 C-0.66 21 -1.32 21 -2 21 C-2 19.68 -2 18.36 -2 17 C-1.34 17 -0.68 17 0 17 C0 11.39 0 5.78 0 0 Z " fill="#F6F9FC" transform="translate(216,57)"/>
<path d="M0 0 C3.98066095 1.57724302 5.60667274 2.41000911 8 6 C8.47118026 10.44334866 8.370358 14.90939128 8.375 19.375 C8.39949219 20.60734375 8.42398437 21.8396875 8.44921875 23.109375 C8.45501953 24.89214844 8.45501953 24.89214844 8.4609375 26.7109375 C8.46915527 27.79681152 8.47737305 28.88268555 8.48583984 30.00146484 C7.88826144 33.68963468 6.57005844 35.34014218 4 38 C0.30274625 39.84862688 -3.96461442 39.47587094 -8 39 C-10.93423195 37.20353146 -12.47205355 36.0558929 -14 33 C-14.32542291 28.56889335 -14.32455369 24.12906855 -14.375 19.6875 C-14.41238281 18.45064453 -14.44976562 17.21378906 -14.48828125 15.93945312 C-14.58729557 5.75748079 -14.58729557 5.75748079 -11.6015625 2.70703125 C-7.41696201 -0.03872012 -5.06159779 -0.33743985 0 0 Z " fill="#F3F7FB" transform="translate(481,56)"/>
<path d="M0 0 C5.5 3 5.5 3 7 6 C7.29868306 10.43163261 7.27811301 14.87199322 7.3125 19.3125 C7.34150391 20.54935547 7.37050781 21.78621094 7.40039062 23.06054688 C7.40876953 24.25357422 7.41714844 25.44660156 7.42578125 26.67578125 C7.44036377 27.76802002 7.45494629 28.86025879 7.4699707 29.9855957 C6.89184704 33.69369592 5.58368018 35.33154986 3 38 C-0.69990228 39.84995114 -4.96167141 39.46986842 -9 39 C-12.55680172 36.89495409 -13.69468936 35.91593192 -15 32 C-15.25975767 27.87929884 -15.23140535 23.75301187 -15.25 19.625 C-15.270625 18.48804687 -15.29125 17.35109375 -15.3125 16.1796875 C-15.31765625 15.08140625 -15.3228125 13.983125 -15.328125 12.8515625 C-15.3374707 11.84947754 -15.34681641 10.84739258 -15.35644531 9.81494141 C-14.86458094 5.93056041 -13.42401985 3.107571 -10.3125 0.6875 C-6.83687341 -0.34579439 -3.55923458 -0.57384972 0 0 Z " fill="#F4F8FB" transform="translate(342,56)"/>
<path d="M0 0 C16 0 16 0 21 4 C21.59375 6.47265625 21.59375 6.47265625 21.5 9.0625 C21.4896875 9.91972656 21.479375 10.77695313 21.46875 11.66015625 C20.92664485 14.36616443 20.11130793 15.2873699 18 17 C18.66 17.61875 19.32 18.2375 20 18.875 C22.7808103 23.22001609 22.97547949 26.9655338 22 32 C19.47323961 35.34625024 17.96066458 36.67977847 14 38 C9.38 38 4.76 38 0 38 C0 25.46 0 12.92 0 0 Z " fill="#F8FAFD" transform="translate(416,57)"/>
<path d="M0 0 C2.97 0 5.94 0 9 0 C9.62726108 1.54074808 10.2516901 3.08264923 10.875 4.625 C11.39707031 5.91277344 11.39707031 5.91277344 11.9296875 7.2265625 C13.04521675 10.11716749 14.02020396 13.06061189 15 16 C15.33 10.72 15.66 5.44 16 0 C18.31 0 20.62 0 23 0 C23 12.87 23 25.74 23 39 C20.36 39 17.72 39 15 39 C12.69 31.74 10.38 24.48 8 17 C7.67 24.26 7.34 31.52 7 39 C4.69 39 2.38 39 0 39 C0 26.13 0 13.26 0 0 Z " fill="#F1F5FA" transform="translate(353,56)"/>
<path d="M0 0 C3.63 0 7.26 0 11 0 C13.14186612 6.77590356 14.34675985 13.70548474 15.625 20.6875 C15.96917969 22.52151367 15.96917969 22.52151367 16.3203125 24.39257812 C16.536875 25.56626953 16.7534375 26.73996094 16.9765625 27.94921875 C17.17330566 29.01487061 17.37004883 30.08052246 17.57275391 31.1784668 C18 34 18 34 18 38 C15.36 38 12.72 38 10 38 C10 35.69 10 33.38 10 31 C7.03 31 4.06 31 1 31 C0.67 33.31 0.34 35.62 0 38 C-2.31 38 -4.62 38 -7 38 C-6.26729915 30.26501039 -4.93106899 22.69623089 -3.5 15.0625 C-3.27441406 13.83208984 -3.04882812 12.60167969 -2.81640625 11.33398438 C-1.12754026 2.25508052 -1.12754026 2.25508052 0 0 Z " fill="#F1F5FA" transform="translate(447,57)"/>
<path d="M0 0 C3.63 0 7.26 0 11 0 C11.79217619 3.79156084 12.58375451 7.58324492 13.375 11.375 C13.59671875 12.43589844 13.8184375 13.49679688 14.046875 14.58984375 C14.48835515 16.70635153 14.92814357 18.82321291 15.36621094 20.94042969 C15.77651965 22.92116497 16.19096509 24.9010497 16.61035156 26.87988281 C16.79307617 27.75741211 16.97580078 28.63494141 17.1640625 29.5390625 C17.32600098 30.30686035 17.48793945 31.0746582 17.65478516 31.86572266 C18 34 18 34 18 38 C15.36 38 12.72 38 10 38 C9.67 35.69 9.34 33.38 9 31 C6.36 31 3.72 31 1 31 C0.67 33.31 0.34 35.62 0 38 C-2.31 38 -4.62 38 -7 38 C-6.26729915 30.26501039 -4.93106899 22.69623089 -3.5 15.0625 C-3.27441406 13.83208984 -3.04882812 12.60167969 -2.81640625 11.33398438 C-1.12754026 2.25508052 -1.12754026 2.25508052 0 0 Z " fill="#F3F7FB" transform="translate(247,57)"/>
<path d="M0 0 C2.64 0 5.28 0 8 0 C8 5.61 8 11.22 8 17 C10.64 17 13.28 17 16 17 C16 11.72 16 6.44 16 1 C18.31 1 20.62 1 23 1 C23 13.54 23 26.08 23 39 C20.69 39 18.38 39 16 39 C16 33.72 16 28.44 16 23 C13.36 23 10.72 23 8 23 C8 28.28 8 33.56 8 39 C5.36 39 2.72 39 0 39 C0 26.13 0 13.26 0 0 Z " fill="#F3F7FB" transform="translate(300,56)"/>
<path d="M0 0 C3.4375 1.9375 3.4375 1.9375 6 5 C6.76037114 8.01127115 6.98649367 10.90029617 7 14 C4.36 14 1.72 14 -1 14 C-1.33 11.69 -1.66 9.38 -2 7 C-3.32 7 -4.64 7 -6 7 C-6.33 15.58 -6.66 24.16 -7 33 C-5.02 33 -3.04 33 -1 33 C-1 29.7 -1 26.4 -1 23 C-1.99 23 -2.98 23 -4 23 C-4 21.02 -4 19.04 -4 17 C-0.37 17 3.26 17 7 17 C7.10883596 19.37625177 7.18766696 21.74743976 7.25 24.125 C7.30027344 25.12273437 7.30027344 25.12273437 7.3515625 26.140625 C7.45212173 31.26914595 6.22723319 34.0675566 3 38 C-0.69725375 39.84862688 -4.96461442 39.47587094 -9 39 C-11.93423195 37.20353146 -13.47205355 36.0558929 -15 33 C-15.32542291 28.56889335 -15.32455369 24.12906855 -15.375 19.6875 C-15.41238281 18.45064453 -15.44976562 17.21378906 -15.48828125 15.93945312 C-15.58729557 5.75748079 -15.58729557 5.75748079 -12.6015625 2.70703125 C-8.40167469 -0.04875099 -4.99934098 -0.78839329 0 0 Z " fill="#ECF2F9" transform="translate(395,56)"/>
<path d="M0 0 C0.99 0 1.98 0 3 0 C2.67 1.65 2.34 3.3 2 5 C1.01 5.33 0.02 5.66 -1 6 C-0.67 6.66 -0.34 7.32 0 8 C0.41251687 12.92640344 0.6526414 17.47717008 -1.3125 22.0625 C-3.64502434 24.7405835 -5.3307444 25.91270579 -8.875 26.375 C-12.76603288 25.90807605 -14.25334345 24.74665655 -17 22 C-19.66571554 18.44571262 -19.54162844 14.26737558 -19 10 C-17.43564712 5.9773783 -16.61276337 4.40850891 -13 2 C-8.4402752 1.66224261 -5.1217079 2.00159617 -1 4 C-0.67 2.68 -0.34 1.36 0 0 Z " fill="#E9F0F8" transform="translate(445,118)"/>
<path d="M0 0 C7.26 0 14.52 0 22 0 C22 1.98 22 3.96 22 6 C19.69 6 17.38 6 15 6 C15 16.56 15 27.12 15 38 C12.36 38 9.72 38 7 38 C7 27.44 7 16.88 7 6 C4.69 6 2.38 6 0 6 C0 4.02 0 2.04 0 0 Z " fill="#EDF3F9" transform="translate(276,57)"/>
<path d="M0 0 C3.11183168 2.57064356 5.77057793 4.7940186 6.203125 8.953125 C6.30768804 14.07671416 5.90676605 17.58602192 3 22 C-0.75047482 24.50031654 -2.55856266 24.53603554 -7 24 C-10.24189186 21.32191542 -12.76735893 19.1204661 -13.23828125 14.828125 C-13.4108458 8.83377737 -12.98075605 5.56616135 -9 1 C-5.86128812 -0.56935594 -3.46144178 -0.35201103 0 0 Z " fill="#EDF3F9" transform="translate(300,120)"/>
<path d="M0 0 C3.96 0 7.92 0 12 0 C13.32 1.32 14.64 2.64 16 4 C15.75 7.25 15.75 7.25 15 10 C14.34 10 13.68 10 13 10 C13 10.66 13 11.32 13 12 C13.66 12 14.32 12 15 12 C16.39935013 14.79870027 16.25265405 16.90498792 16 20 C14.45493534 22.03667615 13.27853844 22.86073078 11 24 C7.37 24 3.74 24 0 24 C0 16.08 0 8.16 0 0 Z " fill="#E4EDF6" transform="translate(216,120)"/>
<path d="M0 0 C1.32 0 2.64 0 4 0 C5.37207031 1.46875 5.37207031 1.46875 6.578125 3.5 C7.01640625 4.221875 7.4546875 4.94375 7.90625 5.6875 C8.57140625 6.8321875 8.57140625 6.8321875 9.25 8 C9.70890625 8.763125 10.1678125 9.52625 10.640625 10.3125 C11.77346444 12.20056573 12.88844495 14.09932571 14 16 C14.33 10.72 14.66 5.44 15 0 C15.99 0 16.98 0 18 0 C18 7.92 18 15.84 18 24 C12.89381648 22.72345412 11.79978117 20.18575104 9.25 15.9375 C8.83878906 15.27427734 8.42757813 14.61105469 8.00390625 13.92773438 C6.99175664 12.29181814 5.99442493 10.64675068 5 9 C4.67 13.95 4.34 18.9 4 24 C2.68 24 1.36 24 0 24 C0 16.08 0 8.16 0 0 Z " fill="#E9F1F8" transform="translate(310,120)"/>
<path d="M0 0 C5.10618352 1.27654588 6.20021883 3.81424896 8.75 8.0625 C9.16121094 8.72572266 9.57242187 9.38894531 9.99609375 10.07226562 C11.00824336 11.70818186 12.00557507 13.35324932 13 15 C13.33 10.05 13.66 5.1 14 0 C15.32 0 16.64 0 18 0 C18 7.92 18 15.84 18 24 C16.68 24 15.36 24 14 24 C12.62792969 22.53125 12.62792969 22.53125 11.421875 20.5 C10.98359375 19.778125 10.5453125 19.05625 10.09375 18.3125 C9.6503125 17.549375 9.206875 16.78625 8.75 16 C8.29109375 15.236875 7.8321875 14.47375 7.359375 13.6875 C6.22653556 11.79943427 5.11155505 9.90067429 4 8 C3.67 12.95 3.34 17.9 3 23 C2.01 23 1.02 23 0 23 C0 15.41 0 7.82 0 0 Z " fill="#E8EFF7" transform="translate(450,120)"/>
<path d="M0 0 C0.99 0 1.98 0 3 0 C2.25 4.75 2.25 4.75 0 7 C-0.99 7 -1.98 7 -3 7 C-2.94199219 7.96421875 -2.88398438 8.9284375 -2.82421875 9.921875 C-2.77910156 11.18515625 -2.73398437 12.4484375 -2.6875 13.75 C-2.62949219 15.00296875 -2.57148438 16.2559375 -2.51171875 17.546875 C-3 21 -3 21 -5.328125 23.4296875 C-8.55291716 25.32496008 -10.3143035 25.47051445 -14 25 C-16.61759589 24.12746804 -17.66245868 23.55610947 -19.09716797 21.19238281 C-20.07354017 18.82141948 -20.23174125 17.22188766 -20.1953125 14.671875 C-20.18886719 13.87265625 -20.18242187 13.0734375 -20.17578125 12.25 C-20.15902344 11.425 -20.14226562 10.6 -20.125 9.75 C-20.11597656 8.90953125 -20.10695313 8.0690625 -20.09765625 7.203125 C-20.07415817 5.13529396 -20.03828908 3.06761005 -20 1 C-18.68 1 -17.36 1 -16 1 C-15.97494385 1.57032959 -15.9498877 2.14065918 -15.92407227 2.72827148 C-15.80843451 5.29826157 -15.68556376 7.86785527 -15.5625 10.4375 C-15.52318359 11.33533203 -15.48386719 12.23316406 -15.44335938 13.15820312 C-15.40146484 14.01220703 -15.35957031 14.86621094 -15.31640625 15.74609375 C-15.27974854 16.53685303 -15.24309082 17.3276123 -15.20532227 18.14233398 C-15.19436743 20.01401441 -15.19436743 20.01401441 -14 21 C-12.00041636 21.04080783 -9.99954746 21.04254356 -8 21 C-6.88176185 18.76352369 -6.80603939 17.35108471 -6.68359375 14.8671875 C-6.64169922 14.06152344 -6.59980469 13.25585938 -6.55664062 12.42578125 C-6.51732422 11.58402344 -6.47800781 10.74226562 -6.4375 9.875 C-6.39431641 9.02550781 -6.35113281 8.17601563 -6.30664062 7.30078125 C-6.20045764 5.20071777 -6.09971503 3.10038052 -6 1 C-5.01 1 -4.02 1 -3 1 C-3 1.99 -3 2.98 -3 4 C-2.34 3.67 -1.68 3.34 -1 3 C-0.67 2.01 -0.34 1.02 0 0 Z " fill="#DEE9F4" transform="translate(424,119)"/>
<path d="M0 0 C2.5 1.8125 2.5 1.8125 4 4 C4 4.99 4 5.98 4 7 C3.01 7 2.02 7 1 7 C0.34 6.01 -0.32 5.02 -1 4 C-4.58357241 3.74984127 -4.58357241 3.74984127 -8 4 C-9.29376578 6.58753156 -9.16832397 8.54958985 -9.1875 11.4375 C-9.20167969 12.40558594 -9.21585937 13.37367188 -9.23046875 14.37109375 C-9.19149451 17.23266727 -9.19149451 17.23266727 -7 20 C-5.02252878 20.36297936 -5.02252878 20.36297936 -2.875 20.1875 C-1.59625 20.125625 -0.3175 20.06375 1 20 C1 18.35 1 16.7 1 15 C-0.65 15 -2.3 15 -4 15 C-4 14.01 -4 13.02 -4 12 C-1.36 12 1.28 12 4 12 C4.61770762 20.18462594 4.61770762 20.18462594 2.4375 23.0625 C-1.01445341 24.39017439 -3.32287666 24.50718943 -7 24 C-10.47359452 21.97632105 -12.70338941 19.88983176 -14 16 C-14.52442906 10.61451697 -14.56606775 6.35852726 -11 2 C-7.32726283 -0.44849145 -4.26939032 -0.71299677 0 0 Z " fill="#E4EDF6" transform="translate(486,120)"/>
<path d="M0 0 C2.5 1.8125 2.5 1.8125 4 4 C4 4.99 4 5.98 4 7 C3.01 7 2.02 7 1 7 C0.34 6.01 -0.32 5.02 -1 4 C-4.58357241 3.74984127 -4.58357241 3.74984127 -8 4 C-9.29376578 6.58753156 -9.16832397 8.54958985 -9.1875 11.4375 C-9.20167969 12.40558594 -9.21585937 13.37367188 -9.23046875 14.37109375 C-9.19149451 17.23266727 -9.19149451 17.23266727 -7 20 C-3.41642759 20.25015873 -3.41642759 20.25015873 0 20 C0.33 18.35 0.66 16.7 1 15 C-0.65 15 -2.3 15 -4 15 C-4 14.01 -4 13.02 -4 12 C-1.36 12 1.28 12 4 12 C4.61770762 20.18462594 4.61770762 20.18462594 2.4375 23.0625 C-1.01445341 24.39017439 -3.32287666 24.50718943 -7 24 C-10.47359452 21.97632105 -12.70338941 19.88983176 -14 16 C-14.56216437 11.16170012 -14.45721862 7.85347476 -12.125 3.5 C-8.68369832 -0.54859021 -5.12015364 -0.74879717 0 0 Z " fill="#E5EDF7" transform="translate(346,120)"/>
<path d="M0 0 C0.99 0 1.98 0 3 0 C3 3.3 3 6.6 3 10 C6.96 10 10.92 10 15 10 C15 6.7 15 3.4 15 0 C15.99 0 16.98 0 18 0 C18 7.92 18 15.84 18 24 C16.68 24 15.36 24 14 24 C14 20.37 14 16.74 14 13 C10.37 13 6.74 13 3 13 C3 16.3 3 19.6 3 23 C2.01 23 1.02 23 0 23 C0 15.41 0 7.82 0 0 Z " fill="#E2ECF6" transform="translate(382,120)"/>
<path d="M0 0 C1.875 1.5 1.875 1.5 3 4 C3.3948217 8.9747534 3.26647307 12.46705387 1 17 C-1.31 17.33 -3.62 17.66 -6 18 C-8.85841885 14.8012932 -9.40979023 12.69930326 -9.375 8.4375 C-9.38273437 7.48746094 -9.39046875 6.53742188 -9.3984375 5.55859375 C-9 3 -9 3 -7.6640625 1.1875 C-5.0469676 -0.68009824 -3.11179439 -0.45380335 0 0 Z " fill="#0583CB" transform="translate(439,123)"/>
<path d="M0 0 C4.70588235 0.70588235 4.70588235 0.70588235 6 2 C6.09946453 3.76859193 6.13080217 5.54111451 6.1328125 7.3125 C6.13410156 8.38757813 6.13539063 9.46265625 6.13671875 10.5703125 C6.13285156 11.70210937 6.12898438 12.83390625 6.125 14 C6.12886719 15.13179687 6.13273437 16.26359375 6.13671875 17.4296875 C6.13542969 18.50476563 6.13414062 19.57984375 6.1328125 20.6875 C6.13168457 21.68136719 6.13055664 22.67523438 6.12939453 23.69921875 C6 26 6 26 5 27 C3.00041636 27.04080783 0.99954746 27.04254356 -1 27 C-1.02886537 22.68751391 -1.04675255 18.37505238 -1.0625 14.0625 C-1.07087891 12.83080078 -1.07925781 11.59910156 -1.08789062 10.33007812 C-1.09111328 9.16025391 -1.09433594 7.99042969 -1.09765625 6.78515625 C-1.10289307 5.70113525 -1.10812988 4.61711426 -1.11352539 3.50024414 C-1 1 -1 1 0 0 Z " fill="#1388CC" transform="translate(476,62)"/>
<path d="M0 0 C5.46307885 -0.36420526 5.46307885 -0.36420526 7.67578125 1.13671875 C9.55700036 3.78374387 9.39865236 5.78327875 9.375 9 C9.38273437 10.051875 9.39046875 11.10375 9.3984375 12.1875 C9 15 9 15 7.6328125 16.8515625 C5.29281953 18.49739488 3.79407706 18.41911156 1 18 C-1.00102608 16.43334299 -1.88039864 15.39740957 -2.6171875 12.94921875 C-3.21392599 7.71419475 -2.95082804 4.60329175 0 0 Z " fill="#0784CB" transform="translate(293,123)"/>
<path d="M0 0 C4.70588235 0.70588235 4.70588235 0.70588235 6 2 C6.09946453 3.76859193 6.13080217 5.54111451 6.1328125 7.3125 C6.13410156 8.38757813 6.13539063 9.46265625 6.13671875 10.5703125 C6.13285156 11.70210937 6.12898438 12.83390625 6.125 14 C6.12886719 15.13179687 6.13273437 16.26359375 6.13671875 17.4296875 C6.13542969 18.50476563 6.13414062 19.57984375 6.1328125 20.6875 C6.13168457 21.68136719 6.13055664 22.67523438 6.12939453 23.69921875 C6 26 6 26 5 27 C2.5 27.125 2.5 27.125 0 27 C-1.74545605 25.25454395 -1.1302316 22.83875783 -1.1328125 20.46875 C-1.13410156 19.34855469 -1.13539063 18.22835937 -1.13671875 17.07421875 C-1.13285156 15.89472656 -1.12898438 14.71523437 -1.125 13.5 C-1.12886719 12.32050781 -1.13273437 11.14101562 -1.13671875 9.92578125 C-1.13542969 8.80558594 -1.13414062 7.68539062 -1.1328125 6.53125 C-1.13168457 5.49548828 -1.13055664 4.45972656 -1.12939453 3.39257812 C-1 1 -1 1 0 0 Z " fill="#1187CC" transform="translate(336,62)"/>
<path d="M0 0 C3.79273142 0.96347613 4.910968 2.13574388 6.9375 5.4921875 C7.76179838 11.1893294 8.32618047 16.4247859 5.02734375 21.3359375 C2.54384455 23.89835162 1.65866231 24.41205835 -1.875 24.8046875 C-5.7932645 24.42054392 -7.27543267 23.19962433 -10.0625 20.4921875 C-12.16925168 16.27868414 -11.57502476 11.06915282 -11.0625 6.4921875 C-9.04142368 1.35449817 -5.34011375 -0.50569259 0 0 Z M-6.9375 4.9296875 C-8.87723585 9.34797471 -8.88316971 14.17975858 -7.26953125 18.7265625 C-6.0633829 20.92928776 -6.0633829 20.92928776 -2.4375 21.2421875 C-1.32375 21.3246875 -0.21 21.4071875 0.9375 21.4921875 C3.79591885 18.2934807 4.34729023 16.19149076 4.3125 11.9296875 C4.32023438 10.97964844 4.32796875 10.02960938 4.3359375 9.05078125 C4.13581553 6.46878503 4.13581553 6.46878503 2.6015625 4.6796875 C-0.58420514 2.40627585 -3.87777698 2.58389985 -6.9375 4.9296875 Z " fill="#EFF4FA" transform="translate(247.0625,119.5078125)"/>
<path d="M0 0 C2.31 0.33 4.62 0.66 7 1 C7.02886751 5.14581887 7.04675327 9.29161216 7.0625 13.4375 C7.07087891 14.62150391 7.07925781 15.80550781 7.08789062 17.02539062 C7.09111328 18.15009766 7.09433594 19.27480469 7.09765625 20.43359375 C7.10289307 21.47572021 7.10812988 22.51784668 7.11352539 23.59155273 C7 26 7 26 6 27 C4.00041636 27.04080783 1.99954746 27.04254356 0 27 C0 23.37 0 19.74 0 16 C1.32 16 2.64 16 4 16 C4 14.35 4 12.7 4 11 C2.68 11 1.36 11 0 11 C0 7.37 0 3.74 0 0 Z " fill="#0A83CB" transform="translate(223,62)"/>
<path d="M0 0 C3.32165042 0.91077511 4.93457551 2.83982021 6.9375 5.53125 C6.9375 6.52125 6.9375 7.51125 6.9375 8.53125 C5 8.21875 5 8.21875 2.9375 7.53125 C2.6075 6.54125 2.2775 5.55125 1.9375 4.53125 C-1.47892759 4.28109127 -1.47892759 4.28109127 -5.0625 4.53125 C-8.03218084 8.98577125 -7.41153947 13.43701317 -6.5625 18.53125 C-6.3975 19.19125 -6.2325 19.85125 -6.0625 20.53125 C-3.7525 20.53125 -1.4425 20.53125 0.9375 20.53125 C1.5975 19.21125 2.2575 17.89125 2.9375 16.53125 C4.2575 16.53125 5.5775 16.53125 6.9375 16.53125 C5.484375 22.1015625 5.484375 22.1015625 3.1875 23.90625 C0.21420129 24.73216631 -1.98478079 24.90811358 -5.0625 24.53125 C-8.40011045 22.38034549 -9.79720933 21.32712201 -11.0625 17.53125 C-11.6243464 12.41844774 -12.17371124 7.20779799 -9.0625 2.84375 C-5.72912407 0.27427272 -4.10685128 -0.3111251 0 0 Z " fill="#EBF2F9" transform="translate(277.0625,119.46875)"/>
<path d="M0 0 C5.94 0 11.88 0 18 0 C18 0.99 18 1.98 18 3 C15.36 3 12.72 3 10 3 C10 9.6 10 16.2 10 23 C9.01 23 8.02 23 7 23 C7 16.4 7 9.8 7 3 C4.69 3 2.38 3 0 3 C0 2.01 0 1.02 0 0 Z " fill="#F3F7FB" transform="translate(361,120)"/>
<path d="M0 0 C0.99 0 1.98 0 3 0 C2.25 4.75 2.25 4.75 0 7 C-0.99 7 -1.98 7 -3 7 C-2.96519531 7.97582031 -2.93039062 8.95164062 -2.89453125 9.95703125 C-2.86746094 11.22933594 -2.84039062 12.50164062 -2.8125 13.8125 C-2.77769531 15.07707031 -2.74289062 16.34164062 -2.70703125 17.64453125 C-3 21 -3 21 -4.375 22.96875 C-6 24 -6 24 -8.1875 23.6875 C-8.785625 23.460625 -9.38375 23.23375 -10 23 C-9.51917969 22.53078125 -9.03835938 22.0615625 -8.54296875 21.578125 C-6.26086991 17.76499783 -6.43198137 14.11960444 -6.3125 9.75 C-6.27833984 8.90953125 -6.24417969 8.0690625 -6.20898438 7.203125 C-6.12676432 5.13587796 -6.06169843 3.06796126 -6 1 C-5.01 1 -4.02 1 -3 1 C-3 1.99 -3 2.98 -3 4 C-2.34 3.67 -1.68 3.34 -1 3 C-0.67 2.01 -0.34 1.02 0 0 Z " fill="#F4F8FB" transform="translate(424,119)"/>
<path d="M0 0 C2.85278483 0.29511567 3.83578823 0.81232941 5.75 3 C7.97050438 8.32921051 7.73273773 13.080925 5.6875 18.4375 C4 21 4 21 1 23 C-1.33199388 23.07905064 -3.66832622 23.08798769 -6 23 C-6 22.67 -6 22.34 -6 22 C-5.236875 21.9175 -4.47375 21.835 -3.6875 21.75 C-0.96610063 21.21947036 -0.96610063 21.21947036 0.65625 19.40625 C2.51004944 16.08665565 2.29232468 13.52368846 2.1875 9.75 C2.16042969 8.48671875 2.13335937 7.2234375 2.10546875 5.921875 C2.05326172 4.47554688 2.05326172 4.47554688 2 3 C1.34 3 0.68 3 0 3 C0 2.01 0 1.02 0 0 Z " fill="#E0EAF5" transform="translate(299,121)"/>
<path d="M0 0 C0.99 0.103125 1.98 0.20625 3 0.3125 C5.15502531 3.54503796 5.46856135 4.56400923 5 8.3125 C3.8125 10.1875 3.8125 10.1875 2 11.3125 C-1.34192692 11.06796876 -2.60543557 10.70706443 -5 8.3125 C-5.25 5.3125 -5.25 5.3125 -5 2.3125 C-3 0.3125 -3 0.3125 0 0 Z " fill="#DCE7F4" transform="translate(99,38.6875)"/>
<path d="M0 0 C5.45454545 0.45454545 5.45454545 0.45454545 8 3 C8.25 5.5 8.25 5.5 8 8 C6 10 6 10 3.0625 10.3125 C0 10 0 10 -1.9375 8.8125 C-3 7 -3 7 -2.8125 4.4375 C-2 2 -2 2 0 0 Z " fill="#E0EAF5" transform="translate(41,80)"/>
<path d="M0 0 C0.66 0 1.32 0 2 0 C2.33 1.98 2.66 3.96 3 6 C4.32 5.34 5.64 4.68 7 4 C6.42636089 7.87206399 4.65894107 10.18465063 2 13 C1.01 13 0.02 13 -1 13 C-1.33 11.35 -1.66 9.7 -2 8 C-2.33 8.66 -2.66 9.32 -3 10 C-3.99 9.67 -4.98 9.34 -6 9 C-4.4722133 5.56247993 -2.49818944 2.81046312 0 0 Z " fill="#EAF1F8" transform="translate(132,49)"/>
<path d="M0 0 C1.0725 0.01417969 2.145 0.02835938 3.25 0.04296875 C4.3225 0.04941406 5.395 0.05585937 6.5 0.0625 C9.25 0.23046875 9.25 0.23046875 11.25 1.23046875 C10.875 3.16796875 10.875 3.16796875 10.25 5.23046875 C7.36584117 6.67254816 4.83278472 6.32441762 1.625 6.29296875 C0.43648437 6.28394531 -0.75203125 6.27492188 -1.9765625 6.265625 C-2.89179688 6.25402344 -3.80703125 6.24242187 -4.75 6.23046875 C-4.75 1.68737265 -4.64584435 0.38935343 0 0 Z " fill="#EDF3F9" transform="translate(249.75,48.76953125)"/>
<path d="M0 0 C3.3 1.65 6.6 3.3 10 5 C9.67 5.99 9.34 6.98 9 8 C7.35 8.33 5.7 8.66 4 9 C4.66 9.33 5.32 9.66 6 10 C6 10.99 6 11.98 6 13 C2.51329166 11.8905928 -0.77484237 10.73662334 -4 9 C-3.67 8.01 -3.34 7.02 -3 6 C-1.35 5.67 0.3 5.34 2 5 C1.01 4.34 0.02 3.68 -1 3 C-0.67 2.01 -0.34 1.02 0 0 Z " fill="#E4EDF6" transform="translate(45,68)"/>
<path d="M0 0 C0.66 0 1.32 0 2 0 C3.32421875 1.42578125 3.32421875 1.42578125 4.6875 3.3125 C5.14511719 3.92738281 5.60273437 4.54226562 6.07421875 5.17578125 C6.53248047 6.07876953 6.53248047 6.07876953 7 7 C6.67 7.99 6.34 8.98 6 10 C4.02 9.34 2.04 8.68 0 8 C0.66 9.65 1.32 11.3 2 13 C0.25 12.875 0.25 12.875 -2 12 C-6 6.77777778 -6 6.77777778 -6 4 C-4.02 4 -2.04 4 0 4 C-0.33 3.01 -0.66 2.02 -1 1 C-0.67 0.67 -0.34 0.34 0 0 Z " fill="#E9F1F8" transform="translate(64,49)"/>
<path d="M0 0 C1.99954746 -0.04254356 4.00041636 -0.04080783 6 0 C7 1 7 1 7.1328125 3.03125 C7.13023437 3.8459375 7.12765625 4.660625 7.125 5.5 C7.12757813 6.3146875 7.13015625 7.129375 7.1328125 7.96875 C7 10 7 10 6 11 C4.00041636 11.04080783 1.99954746 11.04254356 0 11 C0 7.37 0 3.74 0 0 Z " fill="#0081CA" transform="translate(423,78)"/>
<path d="M0 0 C3.54867365 1.1161151 4.92298877 3.58760815 6.9375 6.609375 C0.9375 6.609375 -5.0625 6.609375 -11.0625 6.609375 C-7.88889577 1.84896866 -5.91897598 -0.40356654 0 0 Z " fill="#ECF2F9" transform="translate(340.0625,48.390625)"/>
<path d="M0 0 C6.15234375 -0.09765625 6.15234375 -0.09765625 8 0 C9 1 9 1 9.1875 3.4375 C9 6 9 6 7 8 C3.375 8.125 3.375 8.125 0 8 C0 5.36 0 2.72 0 0 Z " fill="#0A84CB" transform="translate(220,133)"/>
<path d="M0 0 C0.99 0 1.98 0 3 0 C3.33 1.98 3.66 3.96 4 6 C4.66 5.01 5.32 4.02 6 3 C7.32 3.33 8.64 3.66 10 4 C9.09515208 5.15518918 8.1755794 6.29885406 7.25 7.4375 C6.48429687 8.39462891 6.48429687 8.39462891 5.703125 9.37109375 C3.80332371 11.18810554 2.56413092 11.60423197 0 12 C-1.16063604 7.74433453 -0.76173392 4.3164922 0 0 Z " fill="#DAE6F3" transform="translate(120,43)"/>
<path d="M0 0 C1.65 0 3.3 0 5 0 C7 2 7 2 7.25 5 C7 8 7 8 5 10 C3.35 10 1.7 10 0 10 C0 6.7 0 3.4 0 0 Z " fill="#1588CC" transform="translate(423,62)"/>
<path d="M0 0 C-0.33 0.99 -0.66 1.98 -1 3 C-1.66 3 -2.32 3 -3 3 C-3 3.66 -3 4.32 -3 5 C-1.68 4.67 -0.36 4.34 1 4 C0.34 5.32 -0.32 6.64 -1 8 C0.65 8 2.3 8 4 8 C4 8.66 4 9.32 4 10 C1.8748967 11.29024129 0.44654501 12 -2.0625 12 C-5.09826022 10.43315602 -5.7659943 8.08501424 -7 5 C-7 4.01 -7 3.02 -7 2 C-4.35261084 0.5393715 -3.10551666 0 0 0 Z " fill="#E8EFF7" transform="translate(75,44)"/>
<path d="M0 0 C1.4540625 0.0309375 1.4540625 0.0309375 2.9375 0.0625 C3.2675 1.0525 3.5975 2.0425 3.9375 3.0625 C2.2875 2.7325 0.6375 2.4025 -1.0625 2.0625 C-1.0625 4.0425 -1.0625 6.0225 -1.0625 8.0625 C0.2575 8.0625 1.5775 8.0625 2.9375 8.0625 C2.9375 7.4025 2.9375 6.7425 2.9375 6.0625 C2.2775 5.7325 1.6175 5.4025 0.9375 5.0625 C2.2575 4.7325 3.5775 4.4025 4.9375 4.0625 C5.0625 6.4375 5.0625 6.4375 4.9375 9.0625 C4.2775 9.7225 3.6175 10.3825 2.9375 11.0625 C-0.35964793 10.73278521 -1.6851839 10.4398161 -4.0625 8.0625 C-4.25 4.5 -4.25 4.5 -4.0625 1.0625 C-3.0625 0.0625 -3.0625 0.0625 0 0 Z " fill="#EDF3F9" transform="translate(87.0625,39.9375)"/>
<path d="M0 0 C0.99 0 1.98 0 3 0 C3.33 1.98 3.66 3.96 4 6 C4.66 4.68 5.32 3.36 6 2 C7.32 2.33 8.64 2.66 10 3 C8.02 5.97 6.04 8.94 4 12 C3.01 11.67 2.02 11.34 1 11 C-0.28317892 7.15046324 -0.06643637 4.05261865 0 0 Z " fill="#E6EFF7" transform="translate(106,39)"/>
<path d="M0 0 C0.66 0 1.32 0 2 0 C2 7.59 2 15.18 2 23 C1.34 23 0.68 23 0 23 C0 19.37 0 15.74 0 12 C-3.63 12 -7.26 12 -11 12 C-11 11.67 -11 11.34 -11 11 C-7.37 11 -3.74 11 0 11 C0 7.37 0 3.74 0 0 Z " fill="#FEFEFE" transform="translate(397,120)"/>
<path d="M0 0 C2.64 0 5.28 0 8 0 C8.05399736 1.45792884 8.09279177 2.91642712 8.125 4.375 C8.14820313 5.18710938 8.17140625 5.99921875 8.1953125 6.8359375 C8 9 8 9 6 11 C2.375 11.125 2.375 11.125 -1 11 C2.75 8 2.75 8 5 8 C5 6.35 5 4.7 5 3 C3.35 3 1.7 3 0 3 C0 2.01 0 1.02 0 0 Z " fill="#F1F6FA" transform="translate(482,132)"/>
<path d="M0 0 C2.64 0 5.28 0 8 0 C8.05399736 1.45792884 8.09279177 2.91642712 8.125 4.375 C8.14820313 5.18710938 8.17140625 5.99921875 8.1953125 6.8359375 C8 9 8 9 6 11 C2.375 11.125 2.375 11.125 -1 11 C2 9 2 9 4 8 C4.65555119 5.47266765 4.65555119 5.47266765 5 3 C3.35 3 1.7 3 0 3 C0 2.01 0 1.02 0 0 Z " fill="#F2F6FB" transform="translate(342,132)"/>
<path d="M0 0 C2.33294775 -0.04241723 4.66702567 -0.04092937 7 0 C8 1 8 1 8.125 3.5 C8 6 8 6 7 7 C4.66702567 7.04092937 2.33294775 7.04241723 0 7 C0 4.69 0 2.38 0 0 Z " fill="#0380CA" transform="translate(220,123)"/>
<path d="M0 0 C0.33 0 0.66 0 1 0 C1.33951619 1.56116819 1.67132544 3.12401338 2 4.6875 C2.185625 5.55761719 2.37125 6.42773438 2.5625 7.32421875 C2.98972047 9.93712964 3.07616201 12.35813038 3 15 C1.02 15 -0.96 15 -3 15 C-2.69257097 12.68682039 -2.37892298 10.37446648 -2.0625 8.0625 C-1.88847656 6.77472656 -1.71445313 5.48695312 -1.53515625 4.16015625 C-1 1 -1 1 0 0 Z " fill="#0F84CB" transform="translate(252,67)"/>
<path d="M0 0 C0.33 0 0.66 0 1 0 C1.66 4.95 2.32 9.9 3 15 C1.02 15 -0.96 15 -3 15 C-2.01 10.05 -1.02 5.1 0 0 Z " fill="#017FCA" transform="translate(452,67)"/>
<path d="M0 0 C2.66666667 1.33333333 5.33333333 2.66666667 8 4 C8.99 3.34 9.98 2.68 11 2 C11 5 11 5 9 7.1875 C8.01 8.0846875 8.01 8.0846875 7 9 C5.82460004 8.07347299 4.65989423 7.13336613 3.5 6.1875 C2.52546875 5.40439453 2.52546875 5.40439453 1.53125 4.60546875 C0 3 0 3 0 0 Z " fill="#E6EEF7" transform="translate(48,63)"/>
<path d="M0 0 C-0.57363911 3.87206399 -2.34105893 6.18465063 -5 9 C-5.99 9 -6.98 9 -8 9 C-8 6.36 -8 3.72 -8 1 C-7.34 1.66 -6.68 2.32 -6 3 C-5.38125 2.505 -4.7625 2.01 -4.125 1.5 C-2 0 -2 0 0 0 Z " fill="#DEE9F5" transform="translate(139,53)"/>
<path d="M0 0 C1.134375 0.020625 2.26875 0.04125 3.4375 0.0625 C-2.5625 6.0625 -2.5625 6.0625 -5.125 6.125 C-6.3315625 6.0940625 -6.3315625 6.0940625 -7.5625 6.0625 C-4.02886364 0.07068182 -4.02886364 0.07068182 0 0 Z " fill="#F1F5FA" transform="translate(456.5625,48.9375)"/>
<path d="M0 0 C3.66075376 -0.3327958 5.39500988 -0.46170299 8.375 1.8125 C10 4 10 4 10 7 C9.01 7 8.02 7 7 7 C6.34 6.01 5.68 5.02 5 4 C1.93443402 3.26656572 1.93443402 3.26656572 -1 3 C-0.67 2.01 -0.34 1.02 0 0 Z " fill="#EDF3F9" transform="translate(480,120)"/>
<path d="M0 0 C3.66075376 -0.3327958 5.39500988 -0.46170299 8.375 1.8125 C10 4 10 4 10 7 C9.01 7 8.02 7 7 7 C6.34 6.01 5.68 5.02 5 4 C1.94570927 2.78715124 1.94570927 2.78715124 -1 2 C-0.67 1.34 -0.34 0.68 0 0 Z " fill="#EEF3F9" transform="translate(340,120)"/>
<path d="M0 0 C2.31 0 4.62 0 7 0 C6.01 0.33 5.02 0.66 4 1 C4 1.66 4 2.32 4 3 C5.65 3.33 7.3 3.66 9 4 C9 4.99 9 5.98 9 7 C5.51329166 5.8905928 2.22515763 4.73662334 -1 3 C-0.67 2.01 -0.34 1.02 0 0 Z " fill="#F0F5FA" transform="translate(42,74)"/>
<path d="M0 0 C1.32 0 2.64 0 4 0 C2.546875 5.5703125 2.546875 5.5703125 0.25 7.375 C-2.56453896 8.15681638 -5.09358367 8.13210983 -8 8 C-8 7.67 -8 7.34 -8 7 C-7.236875 6.95875 -6.47375 6.9175 -5.6875 6.875 C-2.67594887 6.22176391 -2.67594887 6.22176391 -1.1875 2.9375 C-0.795625 1.968125 -0.40375 0.99875 0 0 Z " fill="#E1EBF5" transform="translate(280,136)"/>
<path d="M0 0 C1.17539996 0.92652701 2.34010577 1.86663387 3.5 2.8125 C4.1496875 3.33457031 4.799375 3.85664062 5.46875 4.39453125 C7 6 7 6 7 9 C3.63408134 7.55746343 1.48952921 5.66735273 -1 3 C-0.67 2.01 -0.34 1.02 0 0 Z " fill="#E9F0F7" transform="translate(55,56)"/>
<path d="M0 0 C0.66 0.33 1.32 0.66 2 1 C1.67 2.32 1.34 3.64 1 5 C3.475 5.99 3.475 5.99 6 7 C6 7.66 6 8.32 6 9 C3.19637237 9.22732116 1.53813483 9.34081872 -0.875 7.8125 C-2 6 -2 6 -1.75 3.375 C-1 1 -1 1 0 0 Z " fill="#F3F7FB" transform="translate(40,81)"/>
<path d="M0 0 C1.32 0.33 2.64 0.66 4 1 C4 1.66 4 2.32 4 3 C4.66 3 5.32 3 6 3 C6 3.66 6 4.32 6 5 C5.0925 4.814375 4.185 4.62875 3.25 4.4375 C0.31685676 4.04265379 -1.2644657 4.05308428 -4 5 C-2.68 3.35 -1.36 1.7 0 0 Z " fill="#CFDFF0" transform="translate(244,114)"/>
<path d="M0 0 C-0.33 0.99 -0.66 1.98 -1 3 C-1.66 3 -2.32 3 -3 3 C-2.67 3.99 -2.34 4.98 -2 6 C-3.32 6.33 -4.64 6.66 -6 7 C-6.33 5.35 -6.66 3.7 -7 2 C-4.35261084 0.5393715 -3.10551666 0 0 0 Z " fill="#DBE7F3" transform="translate(75,44)"/>
<path d="M0 0 C1.9375 0.1875 1.9375 0.1875 4 1 C5.25 3.0625 5.25 3.0625 6 5 C5.2575 4.62875 4.515 4.2575 3.75 3.875 C1.05716353 2.70484137 1.05716353 2.70484137 -1.3125 3.875 C-2.1478125 4.431875 -2.1478125 4.431875 -3 5 C-1.125 1.125 -1.125 1.125 0 0 Z " fill="#E1EBF5" transform="translate(295,114)"/>
<path d="M0 0 C0.99 0 1.98 0 3 0 C2.75 2.375 2.75 2.375 2 5 C-0.0625 6.3125 -0.0625 6.3125 -2 7 C-2.33 6.01 -2.66 5.02 -3 4 C-2.34 3.67 -1.68 3.34 -1 3 C-0.67 2.01 -0.34 1.02 0 0 Z " fill="#E1EBF5" transform="translate(424,119)"/>
<path d="M0 0 C1.65 0.33 3.3 0.66 5 1 C5.33 1.99 5.66 2.98 6 4 C4.02 4 2.04 4 0 4 C0 2.68 0 1.36 0 0 Z " fill="#1C88CD" transform="translate(41,83)"/>
<path d="M0 0 C0 0.66 0 1.32 0 2 C1.98 2 3.96 2 6 2 C6 2.33 6 2.66 6 3 C2.37 3 -1.26 3 -5 3 C-5.33 2.34 -5.66 1.68 -6 1 C-4 0 -4 0 0 0 Z " fill="#4A96D2" transform="translate(252,54)"/>
<path d="M0 0 C0.99 0.33 1.98 0.66 3 1 C2.67 2.65 2.34 4.3 2 6 C1.01 6 0.02 6 -1 6 C-1.042721 4.33388095 -1.04063832 2.66617115 -1 1 C-0.67 0.67 -0.34 0.34 0 0 Z " fill="#0B82CB" transform="translate(98,41)"/>
<path d="M0 0 C1.4540625 0.0309375 1.4540625 0.0309375 2.9375 0.0625 C3.2675 1.0525 3.5975 2.0425 3.9375 3.0625 C2.2875 2.7325 0.6375 2.4025 -1.0625 2.0625 C-1.0625 3.7125 -1.0625 5.3625 -1.0625 7.0625 C-1.3925 7.0625 -1.7225 7.0625 -2.0625 7.0625 C-2.0625 5.4125 -2.0625 3.7625 -2.0625 2.0625 C-2.7225 1.7325 -3.3825 1.4025 -4.0625 1.0625 C-3.0625 0.0625 -3.0625 0.0625 0 0 Z " fill="#E0EAF5" transform="translate(87.0625,39.9375)"/>
<path d="M0 0 C-0.33 0.99 -0.66 1.98 -1 3 C-3.64 3 -6.28 3 -9 3 C-9.33 2.34 -9.66 1.68 -10 1 C-6.78548731 -0.60725635 -3.56387464 -0.05748185 0 0 Z " fill="#71AEDC" transform="translate(83,50)"/>
<path d="M0 0 C0.99 0.33 1.98 0.66 3 1 C3.33 2.65 3.66 4.3 4 6 C2.68 6 1.36 6 0 6 C0 4.02 0 2.04 0 0 Z " fill="#3E93D1" transform="translate(86,42)"/>
<path d="M0 0 C0.33 0 0.66 0 1 0 C1.66 2.64 2.32 5.28 3 8 C1.68 7.67 0.36 7.34 -1 7 C-1.04254356 5.00045254 -1.04080783 2.99958364 -1 1 C-0.67 0.67 -0.34 0.34 0 0 Z " fill="#FBFCFE" transform="translate(96,41)"/>
</svg>
