<?xml version="1.0" standalone="no"?>
<!DOCTYPE svg PUBLIC "-//W3C//DTD SVG 20010904//EN"
 "http://www.w3.org/TR/2001/REC-SVG-20010904/DTD/svg10.dtd">
<svg version="1.0" xmlns="http://www.w3.org/2000/svg"
 width="729.000000pt" height="231.000000pt" viewBox="0 0 729.000000 231.000000"
 preserveAspectRatio="xMidYMid meet">

<g transform="translate(0.000000,231.000000) scale(0.100000,-0.100000)"
fill="#000000" stroke="none">
<path d="M0 1155 l0 -1155 3645 0 3645 0 0 1155 0 1155 -3645 0 -3645 0 0
-1155z m1461 577 c31 -9 63 -23 72 -30 26 -22 48 -80 52 -138 3 -30 7 -60 10
-65 4 -5 24 -6 45 -3 39 6 160 -11 192 -27 9 -5 25 -36 34 -70 9 -33 30 -78
45 -99 36 -50 37 -86 3 -153 -43 -85 -62 -106 -107 -119 -23 -6 -43 -12 -45
-14 -2 -1 2 -23 9 -48 9 -35 9 -50 0 -59 -16 -16 -14 -25 9 -32 50 -16 -16
-115 -127 -192 -50 -34 -55 -36 -92 -25 -21 7 -48 12 -60 12 -11 0 -21 6 -21
13 -1 14 -49 52 -57 43 -3 -3 -14 -1 -24 5 -15 8 -17 14 -9 29 24 45 7 47 -32
3 -62 -67 -144 -103 -234 -103 -81 0 -151 21 -188 55 -29 26 -34 45 -12 45 14
0 26 29 26 68 0 12 17 39 41 63 22 22 32 36 21 30 -10 -5 -24 -17 -32 -25 -18
-23 -35 -20 -54 8 -8 14 -26 28 -38 32 -13 4 -29 15 -36 26 -8 10 -37 32 -66
49 -86 48 -92 58 -79 134 14 78 49 159 93 208 32 37 32 38 12 44 -12 3 -22 9
-22 14 0 5 1 9 3 9 1 0 16 4 33 9 23 6 45 4 84 -10 49 -17 55 -17 71 -3 10 9
21 30 24 48 12 57 57 191 70 205 7 7 32 15 56 16 24 2 55 13 72 26 24 17 46
23 104 24 41 2 77 5 80 9 9 8 11 8 74 -12z m-850 -822 c0 12 2 12 6 1 5 -11 7
-11 14 0 7 11 9 11 9 -1 0 -9 -5 -21 -12 -28 -14 -14 -2 -15 27 -2 11 5 14 9
8 9 -7 1 -13 9 -12 19 0 12 2 13 6 3 5 -11 7 -11 14 0 7 11 9 11 9 1 0 -7 5
-10 10 -7 6 3 10 1 10 -4 0 -6 -4 -11 -8 -11 -15 0 -7 -51 8 -60 8 -6 10 -10
4 -10 -5 0 -19 7 -30 15 -23 17 -34 19 -34 5 0 -6 10 -15 23 -20 17 -7 11 -9
-30 -8 -29 1 -50 5 -47 9 2 4 14 5 27 3 15 -3 14 -1 -6 7 -26 10 -27 12 -12
29 11 12 13 20 6 25 -6 3 -11 14 -11 23 0 15 2 15 10 2 9 -13 10 -13 11 0z
m65 -117 c-14 -4 -16 -7 -6 -13 22 -14 0 -30 -38 -29 l-37 2 34 6 c28 5 32 8
20 18 -8 6 -25 13 -39 16 -14 2 0 4 30 4 30 1 46 -2 36 -4z m-65 -67 c-9 -10
-8 -15 4 -20 21 -8 45 3 46 23 1 14 2 14 6 -1 2 -10 11 -18 18 -18 8 0 17 -4
20 -10 3 -6 -9 -9 -32 -7 l-38 2 -9 -65 c-7 -43 -11 -56 -14 -37 -4 30 -18 36
-25 10 -3 -10 -5 14 -5 52 1 78 3 85 25 85 12 0 13 -3 4 -14z m79 -86 c0 -21
3 -45 6 -54 3 -9 1 -16 -5 -16 -7 0 -11 20 -11 50 0 37 -4 50 -14 50 -11 0
-16 -15 -19 -52 l-3 -53 -2 57 c-1 37 2 58 11 61 25 8 37 -6 37 -43z"/>
<path d="M1277 1640 c-77 -61 -4 -174 88 -136 61 26 72 80 26 127 -35 35 -77
38 -114 9z"/>
<path d="M1517 1405 c-11 -16 -13 -26 -6 -30 13 -9 15 -7 23 28 8 33 6 33 -17
2z"/>
<path d="M1307 1352 c-23 -25 -21 -49 3 -62 15 -8 24 -6 40 10 21 21 23 29 14
54 -8 21 -37 20 -57 -2z"/>
<path d="M1134 1305 c-12 -47 30 -70 70 -40 16 12 18 19 8 40 -16 36 -69 36
-78 0z"/>
<path d="M1486 1298 c-9 -12 -16 -30 -16 -39 0 -9 -10 -24 -22 -33 -20 -15
-20 -16 -3 -10 11 4 35 8 53 9 36 2 52 17 52 51 0 44 -39 57 -64 22z"/>
<path d="M1259 1245 c14 -30 40 -61 41 -50 0 6 -12 24 -26 40 -14 17 -21 21
-15 10z"/>
<path d="M1379 1210 c-36 -45 -58 -51 -60 -17 -1 16 -2 18 -6 5 -7 -27 -33
-22 -70 14 -42 41 -54 30 -13 -12 38 -39 29 -49 -38 -44 -37 3 -42 2 -22 -5
14 -5 38 -12 54 -16 27 -6 28 -7 10 -21 -18 -14 -18 -15 6 -8 l25 6 -21 -23
c-38 -43 -38 -55 0 -19 30 28 36 39 31 61 -8 36 22 47 67 25 17 -9 34 -13 37
-10 3 4 0 9 -6 11 -15 5 -2 35 30 71 11 12 18 22 14 22 -3 0 -21 -18 -38 -40z"/>
<path d="M997 1213 c-12 -11 -8 -68 5 -81 18 -18 40 -14 71 13 l28 25 -28 25
c-27 23 -63 32 -76 18z"/>
<path d="M1490 1200 c-12 -8 -10 -10 8 -10 13 0 20 4 17 10 -7 12 -6 12 -25 0z"/>
<path d="M1598 1160 c-24 -13 -49 -18 -75 -15 l-38 5 38 -10 c21 -5 50 -19 66
-31 36 -26 62 -22 79 14 27 56 -4 72 -70 37z"/>
<path d="M1700 1104 c0 -7 14 -26 30 -44 17 -18 30 -28 30 -23 0 13 -59 80
-60 67z"/>
<path d="M1308 1073 c-25 -28 -48 -65 -48 -79 0 -13 42 30 56 58 18 35 30 35
73 0 l33 -28 -31 -31 c-21 -21 -31 -41 -31 -62 0 -27 4 -31 35 -37 50 -9 62 5
55 65 -4 39 -13 60 -43 96 -44 52 -63 56 -99 18z"/>
<path d="M1483 1079 c23 -12 46 -17 55 -14 14 6 11 10 -13 21 -16 7 -41 13
-55 13 -22 0 -21 -2 13 -20z"/>
<path d="M1135 1070 c-3 -6 -17 -7 -30 -4 -18 4 -33 -3 -61 -28 l-37 -35 29
-26 c44 -41 65 -33 79 30 3 18 19 41 33 52 20 15 23 20 10 21 -9 0 -20 -5 -23
-10z"/>
<path d="M1508 1028 c14 -16 22 -37 22 -61 0 -31 4 -38 25 -43 39 -10 55 2 55
39 0 42 -17 63 -55 70 -16 3 -39 9 -50 13 -19 7 -18 5 3 -18z"/>
<path d="M1213 933 c-33 -22 -31 -70 2 -79 47 -12 72 37 41 79 -16 20 -15 20
-43 0z"/>
<path d="M606 852 c-3 -5 1 -9 9 -9 8 0 12 4 9 9 -3 4 -7 8 -9 8 -2 0 -6 -4
-9 -8z"/>
</g>
</svg>
