<svg version="1.1" id="Layer_1" xmlns="http://www.w3.org/2000/svg" xmlns:xlink="http://www.w3.org/1999/xlink" x="0px" y="0px"
	 width="100%" viewBox="0 0 960 666" enable-background="new 0 0 960 666" xml:space="preserve">
<path fill="#000000" opacity="1.000000" stroke="none" 
	d="
M594.000000,667.000000 
	C396.000061,667.000000 198.500122,667.000000 1.000133,667.000000 
	C1.000088,445.000122 1.000088,223.000244 1.000044,1.000281 
	C320.999786,1.000188 640.999573,1.000188 960.999512,1.000094 
	C960.999634,222.999710 960.999634,444.999420 960.999817,666.999573 
	C838.833313,667.000000 716.666687,667.000000 594.000000,667.000000 
M507.057953,420.471436 
	C503.337341,424.003784 499.616699,427.536133 495.461761,431.480804 
	C502.844025,432.864136 508.192841,431.621033 513.173279,426.556976 
	C521.619446,417.969025 530.193115,409.310730 539.762390,402.068207 
	C554.887024,390.621155 560.874084,375.483063 560.976196,357.308441 
	C561.082886,338.313385 560.914795,319.316406 561.117004,300.322968 
	C561.140137,298.153595 562.225098,295.453766 563.748108,293.929626 
	C573.959473,283.710663 584.382385,273.701019 594.832336,263.723724 
	C597.522095,261.155579 600.554199,258.946075 603.551453,256.470703 
	C604.062561,259.749329 604.362183,262.811890 605.037781,265.789124 
	C606.982666,274.359070 610.159119,282.205414 619.514709,285.125885 
	C628.439209,287.911774 635.782471,285.201874 642.180664,278.452148 
	C647.642639,272.690002 653.293884,266.958801 659.597351,262.185883 
	C665.519104,257.702057 669.360168,252.139084 672.084167,245.535965 
	C675.430359,237.424561 676.483704,229.063416 673.226685,220.734650 
	C668.838989,209.514664 655.122864,207.784576 645.598572,212.178238 
	C635.111389,217.016098 626.678711,224.621429 618.771179,232.817200 
	C616.381165,235.294342 614.614075,235.635788 612.319946,232.857056 
	C610.061401,230.121414 607.544617,227.598877 605.141113,224.982834 
	C603.999756,231.638245 604.073303,237.433701 603.943054,243.224579 
	C603.913940,244.519119 603.519470,246.103561 602.702271,247.037308 
	C591.257507,260.113892 576.216431,258.692841 561.012634,257.540558 
	C561.226746,244.368652 558.263306,230.583160 565.345825,219.369522 
	C572.059265,208.740158 581.862305,200.062119 589.886108,191.000870 
	C587.846375,191.000870 584.930542,190.895981 582.028625,191.050552 
	C580.803406,191.115829 579.329468,191.399826 578.446106,192.148132 
	C574.673584,195.344086 571.047119,198.715988 567.427307,202.088043 
	C561.609314,207.507843 556.296448,213.597092 549.949036,218.293869 
	C538.140137,227.031921 530.617310,238.486725 527.572998,252.479736 
	C526.403870,257.853821 524.179321,258.059937 520.012268,258.052917 
	C471.023682,257.970367 422.023895,257.394501 373.051392,258.285431 
	C352.150360,258.665680 337.621979,238.549942 337.926514,222.817703 
	C338.252167,205.994553 338.073914,189.159653 337.944794,172.331192 
	C337.914764,168.414734 337.217896,164.500763 336.765778,160.592850 
	C336.693604,159.968826 336.210724,159.403076 336.056366,158.776245 
	C332.293488,143.496475 328.353821,143.895935 314.457397,145.771896 
	C315.069763,146.451416 315.564667,147.103851 316.160126,147.645874 
	C324.747589,155.462509 328.215973,165.273132 328.049805,176.749130 
	C327.844757,190.909546 328.246307,205.080566 327.937256,219.237213 
	C327.570557,236.034286 331.213989,251.916840 339.288422,266.456482 
	C349.541473,284.919037 365.083557,295.914093 386.917572,295.967529 
	C431.240417,296.076019 475.563721,295.999786 519.886841,295.999695 
	C521.817322,295.999695 523.747864,295.999664 526.000061,295.999664 
	C526.000061,302.138733 526.000000,307.613220 526.000122,313.087738 
	C526.000549,338.612976 525.988953,364.138214 526.006287,389.663452 
	C526.015686,403.512054 517.681641,412.297394 507.057953,420.471436 
M285.000153,628.416626 
	C285.000702,604.255554 284.974091,580.094360 285.050049,555.933472 
	C285.056580,553.858887 285.182831,551.440369 286.211304,549.772217 
	C290.878326,542.202637 297.977570,538.166138 306.763733,539.172546 
	C315.391541,540.160767 321.392334,545.414307 324.010101,553.932800 
	C324.623993,555.930420 324.932709,558.094421 324.962555,560.187866 
	C325.353424,587.605530 325.329926,615.034424 326.155212,642.438110 
	C326.532715,654.973267 331.706879,659.000000 344.131042,659.000000 
	C354.516907,659.000000 364.902802,659.000000 376.076355,659.000000 
	C365.947205,649.989929 360.917755,639.736328 360.968872,627.014709 
	C361.073944,600.853760 361.226959,574.689087 360.891968,548.532043 
	C360.750977,537.523499 356.054718,528.426575 346.737244,521.899170 
	C337.074432,515.129822 326.286163,513.505005 314.869751,513.979797 
	C304.946014,514.392517 296.727356,518.034851 290.974152,526.342285 
	C288.237335,530.294250 285.792755,534.448547 283.005981,538.842041 
	C275.802673,522.312927 262.571777,514.794922 245.159561,513.644592 
	C226.972397,512.443054 215.112930,521.714966 207.305710,537.050476 
	C206.596542,536.717407 206.372452,536.681580 206.344193,536.587097 
	C206.203384,536.116638 206.126495,535.627563 206.004791,535.150757 
	C203.581924,525.658691 199.188232,516.932373 188.845627,515.362183 
	C179.331375,513.917725 169.425171,515.055115 159.760712,515.055115 
	C162.320938,518.182617 164.978455,520.816772 166.903000,523.907349 
	C170.910492,530.343018 172.014862,537.603577 172.009201,545.092407 
	C171.986877,574.586487 171.902435,604.081116 172.091782,633.573975 
	C172.125061,638.757690 172.718536,644.131348 174.234314,649.053650 
	C175.559921,653.358276 177.636398,658.665649 183.164139,658.853333 
	C196.063431,659.291138 208.987717,658.993103 222.743637,658.993103 
	C211.645905,649.446655 207.499969,638.181030 207.846115,624.432556 
	C208.412155,601.951294 208.520203,579.428284 207.779068,556.957275 
	C207.409378,545.747864 223.910660,535.339783 234.967896,539.994263 
	C244.745819,544.110291 248.921295,551.911133 248.965759,562.088135 
	C249.072006,586.416138 248.822311,610.747192 249.136902,635.071533 
	C249.207321,640.517395 250.673798,646.030518 252.118515,651.343872 
	C253.110703,654.993042 255.290604,658.775696 259.620789,658.872864 
	C272.510376,659.162354 285.410614,658.976807 299.462433,658.976807 
	C290.252350,650.362549 284.631287,641.248291 285.000153,628.416626 
M418.344391,110.067711 
	C427.378296,117.892944 436.412201,125.718185 445.608063,133.683685 
	C431.127289,148.584915 417.240845,162.875946 403.351532,177.164124 
	C402.423462,178.118835 401.498657,179.079010 400.529114,179.990677 
	C394.931183,185.254395 389.792206,191.170074 383.581665,195.572571 
	C377.304626,200.022217 369.949158,201.154007 363.141266,195.660919 
	C360.956329,193.897949 358.906647,191.967316 356.000275,189.415573 
	C356.000275,198.017303 356.645813,205.819519 355.861145,213.475128 
	C354.388611,227.841827 367.963470,235.888412 378.386200,235.949203 
	C404.547241,236.101791 430.714020,236.234650 456.867584,235.766281 
	C461.176117,235.689148 466.290863,233.496155 469.543610,230.605225 
	C478.620239,222.538330 487.075714,213.742996 495.410400,204.890640 
	C497.621887,202.541763 499.555298,199.037689 499.818512,195.912598 
	C500.664612,185.867783 501.236053,175.728317 500.812378,165.671753 
	C500.499817,158.252991 499.665558,150.420776 496.919983,143.640915 
	C492.687195,133.188538 486.619202,123.479347 480.999146,112.828522 
	C487.169983,101.223076 482.351593,87.010971 484.578491,72.633018 
	C487.800201,76.460785 490.489624,79.656136 493.440674,83.162354 
	C498.799988,77.424515 504.475952,71.864937 509.425323,65.720062 
	C510.832367,63.973137 510.824036,60.363319 510.258698,57.882626 
	C508.366852,49.580532 502.125061,43.934231 497.136719,37.479286 
	C493.287964,32.498970 489.842377,27.099510 486.989075,21.493689 
	C484.938263,17.464497 484.159454,12.787833 482.583801,7.652275 
	C475.881073,14.441249 469.228821,20.522228 463.464844,27.352810 
	C461.275482,29.947269 460.037872,34.339218 460.268311,37.784725 
	C460.836853,46.287079 464.884125,53.504330 470.365417,60.099754 
	C472.365295,62.506157 473.687622,66.144348 473.839569,69.292000 
	C474.289062,78.601944 474.124847,87.950142 473.930603,97.277748 
	C473.865021,100.425270 472.991058,103.555962 472.388336,107.304993 
	C469.587189,105.168205 467.678131,103.618317 465.675903,102.199966 
	C453.601044,93.646286 440.924652,87.029518 425.391602,87.911415 
	C416.754333,88.401794 408.066254,87.976173 399.401367,88.019669 
	C397.598236,88.028709 395.750092,88.076401 394.001312,88.462349 
	C381.803009,91.154480 372.482269,98.433128 364.171936,107.319885 
	C356.206238,115.838219 354.696564,137.310806 365.322357,146.004288 
	C370.840820,150.519241 375.531677,156.043961 380.616364,161.092407 
	C381.720306,162.188477 382.909576,163.198578 384.812988,164.936050 
	C382.422791,146.154816 381.829407,128.551605 384.023895,110.934120 
	C385.411499,99.794678 398.242371,93.813835 405.950806,100.916786 
	C409.551331,104.234497 413.727203,106.927849 418.344391,110.067711 
M63.995201,498.014374 
	C79.929756,498.342957 95.879234,498.365051 111.792076,499.139587 
	C118.915024,499.486328 126.127914,500.759460 132.998764,502.686310 
	C139.167053,504.416138 144.922760,507.617218 150.990875,510.225311 
	C150.990875,509.552063 151.087128,508.712494 150.963486,507.906677 
	C150.842606,507.118805 150.460861,506.374939 150.256363,505.595306 
	C148.119797,497.449860 142.386765,491.873627 136.063873,487.128052 
	C127.423355,480.643127 117.113091,478.176331 106.516548,478.089874 
	C75.521370,477.837006 44.522800,477.999939 13.525563,477.999939 
	C11.936935,477.999939 10.348308,477.999969 7.872228,477.999969 
	C8.992403,479.321594 9.487348,479.902405 9.978954,480.486023 
	C17.218172,489.080841 22.317001,498.952545 22.816528,510.103546 
	C23.775043,531.500671 23.781963,552.944641 23.965517,574.371033 
	C24.129688,593.534607 23.757355,612.705444 24.138458,631.862854 
	C24.263830,638.164978 25.608124,644.532166 27.119728,650.691711 
	C28.574696,656.620483 33.033081,660.018250 38.336617,659.971191 
	C68.770264,659.701172 99.208748,659.590271 129.634109,658.911194 
	C148.980927,658.479370 156.953964,643.749268 153.249374,625.974121 
	C145.780090,635.839600 134.836517,638.341980 123.607605,638.834045 
	C108.471367,639.497314 93.283630,639.075012 78.119141,638.962891 
	C71.460388,638.913635 67.197037,635.362854 66.120895,628.967896 
	C65.441223,624.928955 65.074440,620.792114 65.048248,616.696167 
	C64.935303,599.031799 64.999962,581.366272 64.999969,563.701172 
	C64.999969,561.928955 64.999969,560.156677 64.999969,557.999451 
	C75.735794,557.999451 85.877991,558.268250 95.999298,557.923706 
	C106.075645,557.580627 115.461800,560.249207 125.198158,564.209717 
	C118.775597,548.541443 103.621719,539.911865 88.568474,539.075684 
	C80.829697,538.645813 73.047356,539.000183 64.999954,539.000183 
	C64.999954,536.162598 65.066032,534.013550 64.988297,531.869629 
	C64.682533,523.436890 64.377625,515.003601 63.971558,506.575378 
	C63.834732,503.735504 63.398453,500.910065 63.995201,498.014374 
M586.001587,658.966187 
	C594.709473,656.757507 601.365540,651.593384 606.438904,644.173340 
	C607.406860,646.749573 608.126709,648.913330 609.022644,651.001587 
	C611.347229,656.419922 614.817200,659.490479 621.414856,659.141113 
	C631.552551,658.604309 641.739563,659.012146 651.905518,658.982483 
	C653.077271,658.979065 654.248352,658.742065 656.498657,658.494812 
	C643.220093,648.352173 640.681335,635.124634 640.900208,620.454773 
	C641.265747,595.961670 641.016052,571.459167 640.966370,546.960754 
	C640.962769,545.193787 640.643311,543.384583 640.192139,541.668274 
	C637.544434,531.597168 630.654358,524.966858 621.785522,520.460327 
	C611.229553,515.096436 600.138977,512.897461 588.058411,514.791382 
	C579.335693,516.158875 571.225708,518.599548 563.609131,522.840881 
	C562.177551,523.638062 560.239990,525.230042 560.187744,526.522034 
	C559.869568,534.391846 560.028870,542.281067 560.028870,550.163757 
	C562.311890,548.424011 563.683594,546.496765 564.983643,544.522339 
	C571.296204,534.934875 580.094727,530.381836 591.637756,530.966797 
	C600.031982,531.392212 607.684753,536.575317 608.942017,543.047974 
	C610.462585,550.876038 606.983887,559.903992 599.786560,563.875732 
	C588.812195,569.931702 577.442261,575.269165 566.261475,580.953430 
	C557.811035,585.249573 550.596558,591.105896 545.096008,598.832886 
	C538.798523,607.679504 537.590576,617.804443 537.928406,628.400024 
	C538.282776,639.516724 547.351807,652.272339 557.746277,656.079041 
	C566.690491,659.354614 575.795959,660.007263 586.001587,658.966187 
M847.573425,650.949524 
	C848.374695,649.753235 849.837402,648.574524 849.869751,647.357727 
	C850.079346,639.479004 849.977234,631.591980 849.977234,622.474243 
	C848.406677,624.348267 847.594177,625.111389 847.027039,626.026672 
	C841.547241,634.869873 833.728149,640.890869 823.446899,641.831055 
	C804.044922,643.605347 794.306580,634.027100 788.015442,616.879700 
	C786.166199,611.839355 787.067139,607.854675 791.601257,604.931824 
	C795.829834,602.205872 799.923218,599.092590 804.491333,597.103333 
	C820.834656,589.986328 835.551270,580.838989 845.208069,565.345825 
	C855.498352,548.836365 852.021667,532.679749 836.737488,521.965515 
	C824.661621,513.500244 810.690552,512.417847 796.994812,514.361694 
	C777.338501,517.151611 763.281494,528.889465 754.783386,546.725769 
	C745.273560,566.685669 742.337524,587.750793 747.321533,609.378601 
	C751.170044,626.078735 759.462769,640.294922 774.345337,649.835876 
	C785.965088,657.285156 798.693848,659.603088 812.431763,659.182739 
	C824.580627,658.810913 836.211609,657.334473 847.573425,650.949524 
M481.945770,318.471771 
	C477.915283,314.972809 473.884827,311.473816 468.999756,307.232971 
	C468.999756,315.911560 468.975342,323.500946 469.006866,331.090118 
	C469.036652,338.249237 467.179565,346.220978 469.735229,352.338531 
	C472.292358,358.459656 479.184448,362.833496 484.359100,367.782135 
	C491.601349,374.708099 492.550140,382.668732 488.746094,391.552826 
	C485.800385,398.432434 476.529327,405.285950 468.714111,405.154633 
	C443.890442,404.737549 419.051666,404.746796 394.226135,405.104126 
	C381.061859,405.293579 368.828125,402.766266 357.457062,396.127716 
	C335.435699,383.271454 322.732574,364.572327 322.066254,338.677429 
	C321.697723,324.355103 322.343079,310.003998 321.861511,295.688385 
	C321.604492,288.047974 320.420258,280.339539 318.681824,272.888794 
	C317.774719,269.001007 316.141449,264.058228 311.218567,263.285645 
	C306.645691,262.567932 301.871552,263.132477 295.621521,263.132477 
	C308.694336,272.386139 312.169403,284.278625 312.049316,297.941528 
	C311.863251,319.104340 311.663483,340.278107 312.176819,361.430054 
	C312.364471,369.162659 313.779968,377.084930 316.019440,384.502808 
	C320.751190,400.176117 329.585815,413.346527 342.328156,423.915161 
	C355.609161,434.930573 370.475281,441.707581 387.878235,441.953918 
	C403.373505,442.173279 418.874756,442.074188 434.372406,441.970123 
	C442.738739,441.913940 450.399445,439.345184 457.547607,434.985291 
	C469.879761,427.463501 479.046539,416.538818 488.278015,405.847626 
	C492.177155,401.331940 495.861328,395.396454 496.659668,389.689026 
	C498.437286,376.980011 498.498840,364.013123 498.892273,351.140076 
	C498.999390,347.634888 497.890900,344.071228 497.181366,340.566589 
	C495.309784,331.322113 488.651978,325.292389 481.945770,318.471771 
M586.000000,298.566711 
	C586.000000,305.896179 586.566284,313.281311 585.852295,320.540558 
	C585.016418,329.039673 587.566650,335.213440 594.053284,340.910950 
	C599.123840,345.364594 604.111511,350.946472 606.611877,357.059448 
	C610.773865,367.234741 606.967957,377.239838 601.950562,386.544617 
	C594.359863,400.621521 583.274475,411.801697 571.822510,422.642792 
	C558.228088,435.511963 542.399536,443.126709 523.285522,443.023407 
	C503.629669,442.917206 483.972809,442.999908 464.316376,442.999908 
	C462.607635,442.999908 460.898926,442.999878 459.090973,442.999878 
	C459.279633,444.134491 459.215363,444.581848 459.401031,444.745148 
	C469.788208,453.883514 480.369720,462.810211 490.533966,472.189148 
	C496.187500,477.405884 502.124939,480.149445 509.991119,479.110809 
	C516.514709,478.249451 523.164246,478.045532 529.756775,478.061005 
	C545.802307,478.098663 560.404785,473.149445 574.098450,465.344818 
	C584.817200,459.235687 594.274170,451.643341 601.460999,441.265228 
	C611.658081,426.540131 615.532715,410.028687 615.905823,392.596741 
	C616.319153,373.282318 616.093750,353.951385 615.917969,334.629700 
	C615.884338,330.931549 615.039490,327.181091 614.141541,323.560791 
	C610.207520,307.700012 598.187805,298.229950 586.000000,287.826935 
	C586.000000,291.669006 586.000000,294.633026 586.000000,298.566711 
M882.514648,640.108826 
	C876.678711,634.718750 870.842712,629.328674 865.000427,623.932739 
	C865.000427,630.288818 865.235901,637.230896 864.908447,644.146362 
	C864.723877,648.044067 866.104492,650.266174 869.528564,651.900574 
	C879.904602,656.853638 890.663025,659.337402 902.273132,659.105408 
	C919.731384,658.756348 934.033203,652.421753 944.842285,638.629761 
	C955.734680,624.731628 956.293823,604.185120 946.747925,589.146179 
	C939.899536,578.356750 929.379944,572.131897 919.068542,565.513367 
	C912.908569,561.559509 906.214905,558.100403 900.961670,553.145996 
	C892.137268,544.823364 895.016479,534.697754 906.640930,531.023193 
	C915.009705,528.377747 923.152527,529.755371 930.038025,534.819031 
	C935.258484,538.658142 939.475281,543.862061 943.999878,548.321777 
	C943.999878,542.271606 943.755310,535.764709 944.091980,529.287964 
	C944.292603,525.427429 942.748230,523.467896 939.502014,521.739014 
	C926.395813,514.758850 912.575012,511.269745 897.871338,514.141357 
	C887.159729,516.233337 877.436768,520.612122 870.488525,529.848633 
	C864.799011,537.411865 863.486267,545.356445 864.768677,554.724426 
	C866.576660,567.931152 873.167358,577.689453 883.562439,585.084351 
	C892.472717,591.423035 902.082947,596.776245 911.009705,603.093750 
	C920.121338,609.542053 924.149231,620.288757 917.735596,630.537415 
	C910.809387,641.605225 894.564209,646.177979 882.514648,640.108826 
M678.076599,645.020874 
	C678.718994,646.863281 679.373840,648.701538 680.001526,650.548950 
	C681.934265,656.237366 685.735352,658.998413 691.668701,658.999390 
	C703.219727,659.001282 714.770691,659.000000 727.258789,659.000000 
	C725.727173,657.346863 724.997192,656.490723 724.197144,655.705933 
	C716.547546,648.202087 712.930054,639.127563 712.965088,628.386963 
	C713.064514,597.910828 712.999939,567.434265 712.999817,536.957825 
	C712.999817,535.147949 712.999756,533.338013 712.999756,530.649414 
	C723.971375,532.357849 734.428345,533.986084 744.577271,535.566406 
	C744.577271,528.949341 744.577271,521.554199 744.577271,513.782532 
	C733.895752,513.782532 723.634033,513.782532 712.644897,513.782532 
	C712.644897,502.965057 712.644897,492.529846 712.644897,482.094666 
	C697.964355,504.804108 676.570190,518.561523 653.218628,529.981323 
	C653.430542,530.377197 653.642456,530.773071 653.854370,531.168945 
	C661.437134,531.168945 669.019958,531.168945 676.485840,531.168945 
	C676.999023,569.116455 677.506470,606.639587 678.076599,645.020874 
M544.995605,548.482300 
	C544.996521,541.483337 545.291016,534.465515 544.842102,527.495544 
	C544.680908,524.992493 543.349365,521.879028 541.488525,520.287415 
	C532.313477,512.439819 515.194885,513.042725 506.806519,521.967712 
	C501.988159,527.094360 498.570496,533.537415 495.376343,538.153625 
	C494.551636,535.150330 493.491211,530.562744 492.017822,526.111877 
	C490.280914,520.865051 487.071716,516.444641 481.268890,515.826782 
	C470.112335,514.638855 458.888153,514.086365 447.692017,513.270264 
	C461.604187,528.785828 459.978821,533.013733 459.985870,549.046631 
	C459.997772,576.042114 459.771515,603.040710 460.138245,630.031250 
	C460.245941,637.959717 460.458038,646.269226 464.913757,653.346863 
	C466.361847,655.647034 469.069733,658.627136 471.304138,658.716187 
	C484.158600,659.228271 497.043945,658.965515 510.692627,658.965515 
	C501.502136,650.827087 496.268585,641.505493 496.100922,630.189148 
	C495.762756,607.364563 495.880737,584.530334 496.076843,561.702454 
	C496.131958,555.285583 498.623016,549.795349 504.247681,545.889038 
	C516.522339,537.364380 531.033386,537.939026 542.328613,548.735107 
	C542.876526,549.258728 544.076416,549.100098 544.995605,548.482300 
M509.037018,220.478058 
	C504.842438,224.431213 500.647888,228.384354 496.453308,232.337509 
	C496.665955,232.763931 496.878632,233.190353 497.091278,233.616791 
	C501.045776,232.932449 506.066895,233.552567 508.772186,231.340515 
	C521.248901,221.138718 533.673523,210.732452 544.971375,199.270508 
	C555.595825,188.491714 561.180176,175.018890 561.073792,159.347519 
	C560.837646,124.541550 560.928345,89.732620 561.047363,54.925446 
	C561.079407,45.562214 563.719116,36.725685 570.010498,29.700411 
	C575.399719,23.682589 581.724182,18.505579 587.586243,12.905666 
	C588.898193,11.652396 590.006714,10.186183 591.208862,8.818016 
	C590.947327,8.351425 590.685791,7.884834 590.424316,7.418243 
	C586.643494,8.079131 582.216492,7.726834 579.229370,9.632052 
	C574.427734,12.694587 570.591003,17.263515 566.322449,21.169615 
	C558.653381,28.187401 551.383667,35.725563 543.185669,42.060963 
	C531.914612,50.771229 527.380310,62.634426 527.188538,75.829079 
	C526.648804,112.960419 526.995300,150.104706 527.002319,187.243896 
	C527.004944,201.265335 521.304688,212.233917 509.037018,220.478058 
M392.000519,574.500000 
	C392.000366,593.991577 391.857483,613.484802 392.093079,632.973572 
	C392.157867,638.334778 392.696289,643.881165 394.236816,648.973633 
	C395.482056,653.090027 396.928040,658.668884 402.560822,658.845825 
	C415.453278,659.250793 428.367157,658.973877 442.227814,658.973877 
	C440.768188,657.392395 440.040009,656.563721 439.270264,655.775635 
	C431.704498,648.029907 427.922150,638.961060 427.903320,627.920349 
	C427.851746,597.672363 427.572388,567.419434 426.852936,537.181091 
	C426.637970,528.147278 423.095123,519.563904 413.885345,516.231812 
	C402.717072,512.190979 390.865112,514.290405 379.045105,514.502380 
	C390.043884,522.911621 392.184937,534.476379 392.022003,547.011780 
	C391.907227,555.839783 392.000275,564.670471 392.000519,574.500000 
M449.939819,351.222992 
	C454.732941,345.261536 453.705475,338.535919 449.596252,333.623413 
	C442.731415,325.416718 434.486237,318.364685 427.380219,311.375488 
	C418.152710,320.459564 409.170410,329.302307 399.957428,338.372131 
	C410.320770,349.076691 421.526184,359.330963 426.820465,375.017761 
	C434.836487,366.869232 442.210083,359.373749 449.939819,351.222992 
M387.000000,360.499268 
	C389.116943,358.382843 391.346832,356.366577 393.329651,354.131195 
	C399.301300,347.398773 400.781860,341.569611 395.410553,334.382050 
	C388.954407,325.742859 380.804810,318.369171 374.177429,311.290344 
	C364.573883,320.918060 355.600830,329.913727 346.652374,338.884735 
	C355.266754,349.784485 367.483459,358.876617 372.279266,375.174652 
	C377.517975,369.952728 382.009064,365.476074 387.000000,360.499268 
M427.681915,489.782074 
	C427.787811,488.632629 428.031799,487.476593 427.977142,486.334839 
	C427.622894,478.933044 424.782349,473.175415 417.665680,469.865692 
	C409.899017,466.253693 402.763885,467.590698 396.743866,472.986023 
	C391.368164,477.803833 391.014618,484.773041 392.297943,491.340179 
	C393.636993,498.192596 402.373108,504.433594 409.589935,503.899048 
	C417.868652,503.285889 425.145081,499.851654 427.681915,489.782074 
z"/>
<path fill="#E23546" opacity="1.000000" stroke="none" 
	d="
M507.356323,420.273132 
	C517.681641,412.297394 526.015686,403.512054 526.006287,389.663452 
	C525.988953,364.138214 526.000549,338.612976 526.000122,313.087738 
	C526.000000,307.613220 526.000061,302.138733 526.000061,295.999664 
	C523.747864,295.999664 521.817322,295.999695 519.886841,295.999695 
	C475.563721,295.999786 431.240417,296.076019 386.917572,295.967529 
	C365.083557,295.914093 349.541473,284.919037 339.288422,266.456482 
	C331.213989,251.916840 327.570557,236.034286 327.937256,219.237213 
	C328.246307,205.080566 327.844757,190.909546 328.049805,176.749130 
	C328.215973,165.273132 324.747589,155.462509 316.160126,147.645874 
	C315.564667,147.103851 315.069763,146.451416 314.457397,145.771896 
	C328.353821,143.895935 332.293488,143.496475 336.056366,158.776245 
	C336.210724,159.403076 336.693604,159.968826 336.765778,160.592850 
	C337.217896,164.500763 337.914764,168.414734 337.944794,172.331192 
	C338.073914,189.159653 338.252167,205.994553 337.926514,222.817703 
	C337.621979,238.549942 352.150360,258.665680 373.051392,258.285431 
	C422.023895,257.394501 471.023682,257.970367 520.012268,258.052917 
	C524.179321,258.059937 526.403870,257.853821 527.572998,252.479736 
	C530.617310,238.486725 538.140137,227.031921 549.949036,218.293869 
	C556.296448,213.597092 561.609314,207.507843 567.427307,202.088043 
	C571.047119,198.715988 574.673584,195.344086 578.446106,192.148132 
	C579.329468,191.399826 580.803406,191.115829 582.028625,191.050552 
	C584.930542,190.895981 587.846375,191.000870 589.886108,191.000870 
	C581.862305,200.062119 572.059265,208.740158 565.345825,219.369522 
	C558.263306,230.583160 561.226746,244.368652 561.012634,257.540558 
	C576.216431,258.692841 591.257507,260.113892 602.702271,247.037308 
	C603.519470,246.103561 603.913940,244.519119 603.943054,243.224579 
	C604.073303,237.433701 603.999756,231.638245 605.141113,224.982834 
	C607.544617,227.598877 610.061401,230.121414 612.319946,232.857056 
	C614.614075,235.635788 616.381165,235.294342 618.771179,232.817200 
	C626.678711,224.621429 635.111389,217.016098 645.598572,212.178238 
	C655.122864,207.784576 668.838989,209.514664 673.226685,220.734650 
	C676.483704,229.063416 675.430359,237.424561 672.084167,245.535965 
	C669.360168,252.139084 665.519104,257.702057 659.597351,262.185883 
	C653.293884,266.958801 647.642639,272.690002 642.180664,278.452148 
	C635.782471,285.201874 628.439209,287.911774 619.514709,285.125885 
	C610.159119,282.205414 606.982666,274.359070 605.037781,265.789124 
	C604.362183,262.811890 604.062561,259.749329 603.551453,256.470703 
	C600.554199,258.946075 597.522095,261.155579 594.832336,263.723724 
	C584.382385,273.701019 573.959473,283.710663 563.748108,293.929626 
	C562.225098,295.453766 561.140137,298.153595 561.117004,300.322968 
	C560.914795,319.316406 561.082886,338.313385 560.976196,357.308441 
	C560.874084,375.483063 554.887024,390.621155 539.762390,402.068207 
	C530.193115,409.310730 521.619446,417.969025 513.173279,426.556976 
	C508.192841,431.621033 502.844025,432.864136 495.461761,431.480804 
	C499.616699,427.536133 503.337341,424.003784 507.356323,420.273132 
M641.201355,238.003647 
	C633.748718,235.639328 627.626587,239.320160 621.342834,242.345490 
	C622.972595,244.414902 624.355713,246.701111 626.235718,248.454483 
	C631.025757,252.921890 635.779175,257.516632 641.098267,261.281952 
	C643.014832,262.638641 647.471313,262.930328 649.029968,261.627594 
	C650.954590,260.018951 652.260559,255.990036 651.724792,253.452133 
	C650.434448,247.339310 648.848145,240.880325 641.201355,238.003647 
z"/>
<path fill="#E23546" opacity="1.000000" stroke="none" 
	d="
M285.000214,628.901123 
	C284.631287,641.248291 290.252350,650.362549 299.462433,658.976807 
	C285.410614,658.976807 272.510376,659.162354 259.620789,658.872864 
	C255.290604,658.775696 253.110703,654.993042 252.118515,651.343872 
	C250.673798,646.030518 249.207321,640.517395 249.136902,635.071533 
	C248.822311,610.747192 249.072006,586.416138 248.965759,562.088135 
	C248.921295,551.911133 244.745819,544.110291 234.967896,539.994263 
	C223.910660,535.339783 207.409378,545.747864 207.779068,556.957275 
	C208.520203,579.428284 208.412155,601.951294 207.846115,624.432556 
	C207.499969,638.181030 211.645905,649.446655 222.743637,658.993103 
	C208.987717,658.993103 196.063431,659.291138 183.164139,658.853333 
	C177.636398,658.665649 175.559921,653.358276 174.234314,649.053650 
	C172.718536,644.131348 172.125061,638.757690 172.091782,633.573975 
	C171.902435,604.081116 171.986877,574.586487 172.009201,545.092407 
	C172.014862,537.603577 170.910492,530.343018 166.903000,523.907349 
	C164.978455,520.816772 162.320938,518.182617 159.760712,515.055115 
	C169.425171,515.055115 179.331375,513.917725 188.845627,515.362183 
	C199.188232,516.932373 203.581924,525.658691 206.004791,535.150757 
	C206.126495,535.627563 206.203384,536.116638 206.344193,536.587097 
	C206.372452,536.681580 206.596542,536.717407 207.305710,537.050476 
	C215.112930,521.714966 226.972397,512.443054 245.159561,513.644592 
	C262.571777,514.794922 275.802673,522.312927 283.005981,538.842041 
	C285.792755,534.448547 288.237335,530.294250 290.974152,526.342285 
	C296.727356,518.034851 304.946014,514.392517 314.869751,513.979797 
	C326.286163,513.505005 337.074432,515.129822 346.737244,521.899170 
	C356.054718,528.426575 360.750977,537.523499 360.891968,548.532043 
	C361.226959,574.689087 361.073944,600.853760 360.968872,627.014709 
	C360.917755,639.736328 365.947205,649.989929 376.076355,659.000000 
	C364.902802,659.000000 354.516907,659.000000 344.131042,659.000000 
	C331.706879,659.000000 326.532715,654.973267 326.155212,642.438110 
	C325.329926,615.034424 325.353424,587.605530 324.962555,560.187866 
	C324.932709,558.094421 324.623993,555.930420 324.010101,553.932800 
	C321.392334,545.414307 315.391541,540.160767 306.763733,539.172546 
	C297.977570,538.166138 290.878326,542.202637 286.211304,549.772217 
	C285.182831,551.440369 285.056580,553.858887 285.050049,555.933472 
	C284.974091,580.094360 285.000702,604.255554 285.000214,628.901123 
z"/>
<path fill="#E23546" opacity="1.000000" stroke="none" 
	d="
M417.993347,109.985954 
	C413.727203,106.927849 409.551331,104.234497 405.950806,100.916786 
	C398.242371,93.813835 385.411499,99.794678 384.023895,110.934120 
	C381.829407,128.551605 382.422791,146.154816 384.812988,164.936050 
	C382.909576,163.198578 381.720306,162.188477 380.616364,161.092407 
	C375.531677,156.043961 370.840820,150.519241 365.322357,146.004288 
	C354.696564,137.310806 356.206238,115.838219 364.171936,107.319885 
	C372.482269,98.433128 381.803009,91.154480 394.001312,88.462349 
	C395.750092,88.076401 397.598236,88.028709 399.401367,88.019669 
	C408.066254,87.976173 416.754333,88.401794 425.391602,87.911415 
	C440.924652,87.029518 453.601044,93.646286 465.675903,102.199966 
	C467.678131,103.618317 469.587189,105.168205 472.388336,107.304993 
	C472.991058,103.555962 473.865021,100.425270 473.930603,97.277748 
	C474.124847,87.950142 474.289062,78.601944 473.839569,69.292000 
	C473.687622,66.144348 472.365295,62.506157 470.365417,60.099754 
	C464.884125,53.504330 460.836853,46.287079 460.268311,37.784725 
	C460.037872,34.339218 461.275482,29.947269 463.464844,27.352810 
	C469.228821,20.522228 475.881073,14.441249 482.583801,7.652275 
	C484.159454,12.787833 484.938263,17.464497 486.989075,21.493689 
	C489.842377,27.099510 493.287964,32.498970 497.136719,37.479286 
	C502.125061,43.934231 508.366852,49.580532 510.258698,57.882626 
	C510.824036,60.363319 510.832367,63.973137 509.425323,65.720062 
	C504.475952,71.864937 498.799988,77.424515 493.440674,83.162354 
	C490.489624,79.656136 487.800201,76.460785 484.578491,72.633018 
	C482.351593,87.010971 487.169983,101.223076 480.999146,112.828522 
	C486.619202,123.479347 492.687195,133.188538 496.919983,143.640915 
	C499.665558,150.420776 500.499817,158.252991 500.812378,165.671753 
	C501.236053,175.728317 500.664612,185.867783 499.818512,195.912598 
	C499.555298,199.037689 497.621887,202.541763 495.410400,204.890640 
	C487.075714,213.742996 478.620239,222.538330 469.543610,230.605225 
	C466.290863,233.496155 461.176117,235.689148 456.867584,235.766281 
	C430.714020,236.234650 404.547241,236.101791 378.386200,235.949203 
	C367.963470,235.888412 354.388611,227.841827 355.861145,213.475128 
	C356.645813,205.819519 356.000275,198.017303 356.000275,189.415573 
	C358.906647,191.967316 360.956329,193.897949 363.141266,195.660919 
	C369.949158,201.154007 377.304626,200.022217 383.581665,195.572571 
	C389.792206,191.170074 394.931183,185.254395 400.529114,179.990677 
	C401.498657,179.079010 402.423462,178.118835 403.351532,177.164124 
	C417.240845,162.875946 431.127289,148.584915 445.608063,133.683685 
	C436.412201,125.718185 427.378296,117.892944 417.993347,109.985954 
M404.060944,191.494705 
	C400.902130,194.461197 397.743317,197.427673 393.957886,200.982651 
	C422.941803,200.982651 451.068665,201.454239 479.162445,200.697723 
	C487.683044,200.468262 492.550537,195.155426 488.927124,185.277420 
	C488.149658,183.157898 487.120605,180.993668 485.698822,179.269440 
	C475.549744,166.961304 465.277527,154.754532 455.007111,142.546967 
	C454.425110,141.855179 453.514252,141.440094 452.389648,140.632965 
	C446.620941,146.928802 441.177124,153.178940 435.399994,159.104050 
	C426.327484,168.408920 417.011322,177.475891 407.849976,186.694916 
	C406.590881,187.961945 405.627808,189.523148 404.060944,191.494705 
z"/>
<path fill="#E23546" opacity="1.000000" stroke="none" 
	d="
M63.547119,498.046204 
	C63.398453,500.910065 63.834732,503.735504 63.971558,506.575378 
	C64.377625,515.003601 64.682533,523.436890 64.988297,531.869629 
	C65.066032,534.013550 64.999954,536.162598 64.999954,539.000183 
	C73.047356,539.000183 80.829697,538.645813 88.568474,539.075684 
	C103.621719,539.911865 118.775597,548.541443 125.198158,564.209717 
	C115.461800,560.249207 106.075645,557.580627 95.999298,557.923706 
	C85.877991,558.268250 75.735794,557.999451 64.999969,557.999451 
	C64.999969,560.156677 64.999969,561.928955 64.999969,563.701172 
	C64.999962,581.366272 64.935303,599.031799 65.048248,616.696167 
	C65.074440,620.792114 65.441223,624.928955 66.120895,628.967896 
	C67.197037,635.362854 71.460388,638.913635 78.119141,638.962891 
	C93.283630,639.075012 108.471367,639.497314 123.607605,638.834045 
	C134.836517,638.341980 145.780090,635.839600 153.249374,625.974121 
	C156.953964,643.749268 148.980927,658.479370 129.634109,658.911194 
	C99.208748,659.590271 68.770264,659.701172 38.336617,659.971191 
	C33.033081,660.018250 28.574696,656.620483 27.119728,650.691711 
	C25.608124,644.532166 24.263830,638.164978 24.138458,631.862854 
	C23.757355,612.705444 24.129688,593.534607 23.965517,574.371033 
	C23.781963,552.944641 23.775043,531.500671 22.816528,510.103546 
	C22.317001,498.952545 17.218172,489.080841 9.978954,480.486023 
	C9.487348,479.902405 8.992403,479.321594 7.872228,477.999969 
	C10.348308,477.999969 11.936935,477.999939 13.525563,477.999939 
	C44.522800,477.999939 75.521370,477.837006 106.516548,478.089874 
	C117.113091,478.176331 127.423355,480.643127 136.063873,487.128052 
	C142.386765,491.873627 148.119797,497.449860 150.256363,505.595306 
	C150.460861,506.374939 150.842606,507.118805 150.963486,507.906677 
	C151.087128,508.712494 150.990875,509.552063 150.990875,510.225311 
	C144.922760,507.617218 139.167053,504.416138 132.998764,502.686310 
	C126.127914,500.759460 118.915024,499.486328 111.792076,499.139587 
	C95.879234,498.365051 79.929756,498.342957 63.547119,498.046204 
z"/>
<path fill="#E23546" opacity="1.000000" stroke="none" 
	d="
M585.569214,658.979736 
	C575.795959,660.007263 566.690491,659.354614 557.746277,656.079041 
	C547.351807,652.272339 538.282776,639.516724 537.928406,628.400024 
	C537.590576,617.804443 538.798523,607.679504 545.096008,598.832886 
	C550.596558,591.105896 557.811035,585.249573 566.261475,580.953430 
	C577.442261,575.269165 588.812195,569.931702 599.786560,563.875732 
	C606.983887,559.903992 610.462585,550.876038 608.942017,543.047974 
	C607.684753,536.575317 600.031982,531.392212 591.637756,530.966797 
	C580.094727,530.381836 571.296204,534.934875 564.983643,544.522339 
	C563.683594,546.496765 562.311890,548.424011 560.028870,550.163757 
	C560.028870,542.281067 559.869568,534.391846 560.187744,526.522034 
	C560.239990,525.230042 562.177551,523.638062 563.609131,522.840881 
	C571.225708,518.599548 579.335693,516.158875 588.058411,514.791382 
	C600.138977,512.897461 611.229553,515.096436 621.785522,520.460327 
	C630.654358,524.966858 637.544434,531.597168 640.192139,541.668274 
	C640.643311,543.384583 640.962769,545.193787 640.966370,546.960754 
	C641.016052,571.459167 641.265747,595.961670 640.900208,620.454773 
	C640.681335,635.124634 643.220093,648.352173 656.498657,658.494812 
	C654.248352,658.742065 653.077271,658.979065 651.905518,658.982483 
	C641.739563,659.012146 631.552551,658.604309 621.414856,659.141113 
	C614.817200,659.490479 611.347229,656.419922 609.022644,651.001587 
	C608.126709,648.913330 607.406860,646.749573 606.438904,644.173340 
	C601.365540,651.593384 594.709473,656.757507 585.569214,658.979736 
M588.669067,587.066162 
	C584.831421,590.828796 580.693359,594.334961 577.217529,598.406433 
	C569.523315,607.419189 568.051514,618.547913 570.499390,629.312317 
	C572.927673,639.990784 583.898926,643.870789 593.950439,641.421082 
	C603.455261,639.104553 606.000732,635.186890 606.000305,625.340454 
	C605.999695,610.359375 605.999634,595.378235 605.999390,580.397156 
	C605.999390,578.827087 605.999451,577.256958 605.999451,575.373718 
	C600.066345,579.488220 594.721924,583.194397 588.669067,587.066162 
z"/>
<path fill="#E23546" opacity="1.000000" stroke="none" 
	d="
M847.300049,651.234375 
	C836.211609,657.334473 824.580627,658.810913 812.431763,659.182739 
	C798.693848,659.603088 785.965088,657.285156 774.345337,649.835876 
	C759.462769,640.294922 751.170044,626.078735 747.321533,609.378601 
	C742.337524,587.750793 745.273560,566.685669 754.783386,546.725769 
	C763.281494,528.889465 777.338501,517.151611 796.994812,514.361694 
	C810.690552,512.417847 824.661621,513.500244 836.737488,521.965515 
	C852.021667,532.679749 855.498352,548.836365 845.208069,565.345825 
	C835.551270,580.838989 820.834656,589.986328 804.491333,597.103333 
	C799.923218,599.092590 795.829834,602.205872 791.601257,604.931824 
	C787.067139,607.854675 786.166199,611.839355 788.015442,616.879700 
	C794.306580,634.027100 804.044922,643.605347 823.446899,641.831055 
	C833.728149,640.890869 841.547241,634.869873 847.027039,626.026672 
	C847.594177,625.111389 848.406677,624.348267 849.977234,622.474243 
	C849.977234,631.591980 850.079346,639.479004 849.869751,647.357727 
	C849.837402,648.574524 848.374695,649.753235 847.300049,651.234375 
M798.471130,582.016174 
	C798.825317,581.665100 799.140076,581.259644 799.539246,580.970825 
	C813.073792,571.176270 819.186829,557.565247 818.877502,541.241699 
	C818.649292,529.197571 808.788269,523.005249 800.360168,527.241516 
	C796.739624,529.061340 793.240906,532.709961 791.486816,536.386536 
	C783.179626,553.798035 783.751831,572.530457 784.117188,591.735229 
	C789.063721,588.440918 793.507385,585.481628 798.471130,582.016174 
z"/>
<path fill="#E23546" opacity="1.000000" stroke="none" 
	d="
M482.217377,318.707214 
	C488.651978,325.292389 495.309784,331.322113 497.181366,340.566589 
	C497.890900,344.071228 498.999390,347.634888 498.892273,351.140076 
	C498.498840,364.013123 498.437286,376.980011 496.659668,389.689026 
	C495.861328,395.396454 492.177155,401.331940 488.278015,405.847626 
	C479.046539,416.538818 469.879761,427.463501 457.547607,434.985291 
	C450.399445,439.345184 442.738739,441.913940 434.372406,441.970123 
	C418.874756,442.074188 403.373505,442.173279 387.878235,441.953918 
	C370.475281,441.707581 355.609161,434.930573 342.328156,423.915161 
	C329.585815,413.346527 320.751190,400.176117 316.019440,384.502808 
	C313.779968,377.084930 312.364471,369.162659 312.176819,361.430054 
	C311.663483,340.278107 311.863251,319.104340 312.049316,297.941528 
	C312.169403,284.278625 308.694336,272.386139 295.621521,263.132477 
	C301.871552,263.132477 306.645691,262.567932 311.218567,263.285645 
	C316.141449,264.058228 317.774719,269.001007 318.681824,272.888794 
	C320.420258,280.339539 321.604492,288.047974 321.861511,295.688385 
	C322.343079,310.003998 321.697723,324.355103 322.066254,338.677429 
	C322.732574,364.572327 335.435699,383.271454 357.457062,396.127716 
	C368.828125,402.766266 381.061859,405.293579 394.226135,405.104126 
	C419.051666,404.746796 443.890442,404.737549 468.714111,405.154633 
	C476.529327,405.285950 485.800385,398.432434 488.746094,391.552826 
	C492.550140,382.668732 491.601349,374.708099 484.359100,367.782135 
	C479.184448,362.833496 472.292358,358.459656 469.735229,352.338531 
	C467.179565,346.220978 469.036652,338.249237 469.006866,331.090118 
	C468.975342,323.500946 468.999756,315.911560 468.999756,307.232971 
	C473.884827,311.473816 477.915283,314.972809 482.217377,318.707214 
z"/>
<path fill="#E23546" opacity="1.000000" stroke="none" 
	d="
M586.000000,298.081879 
	C586.000000,294.633026 586.000000,291.669006 586.000000,287.826935 
	C598.187805,298.229950 610.207520,307.700012 614.141541,323.560791 
	C615.039490,327.181091 615.884338,330.931549 615.917969,334.629700 
	C616.093750,353.951385 616.319153,373.282318 615.905823,392.596741 
	C615.532715,410.028687 611.658081,426.540131 601.460999,441.265228 
	C594.274170,451.643341 584.817200,459.235687 574.098450,465.344818 
	C560.404785,473.149445 545.802307,478.098663 529.756775,478.061005 
	C523.164246,478.045532 516.514709,478.249451 509.991119,479.110809 
	C502.124939,480.149445 496.187500,477.405884 490.533966,472.189148 
	C480.369720,462.810211 469.788208,453.883514 459.401031,444.745148 
	C459.215363,444.581848 459.279633,444.134491 459.090973,442.999878 
	C460.898926,442.999878 462.607635,442.999908 464.316376,442.999908 
	C483.972809,442.999908 503.629669,442.917206 523.285522,443.023407 
	C542.399536,443.126709 558.228088,435.511963 571.822510,422.642792 
	C583.274475,411.801697 594.359863,400.621521 601.950562,386.544617 
	C606.967957,377.239838 610.773865,367.234741 606.611877,357.059448 
	C604.111511,350.946472 599.123840,345.364594 594.053284,340.910950 
	C587.566650,335.213440 585.016418,329.039673 585.852295,320.540558 
	C586.566284,313.281311 586.000000,305.896179 586.000000,298.081879 
z"/>
<path fill="#E23546" opacity="1.000000" stroke="none" 
	d="
M882.816528,640.357422 
	C894.564209,646.177979 910.809387,641.605225 917.735596,630.537415 
	C924.149231,620.288757 920.121338,609.542053 911.009705,603.093750 
	C902.082947,596.776245 892.472717,591.423035 883.562439,585.084351 
	C873.167358,577.689453 866.576660,567.931152 864.768677,554.724426 
	C863.486267,545.356445 864.799011,537.411865 870.488525,529.848633 
	C877.436768,520.612122 887.159729,516.233337 897.871338,514.141357 
	C912.575012,511.269745 926.395813,514.758850 939.502014,521.739014 
	C942.748230,523.467896 944.292603,525.427429 944.091980,529.287964 
	C943.755310,535.764709 943.999878,542.271606 943.999878,548.321777 
	C939.475281,543.862061 935.258484,538.658142 930.038025,534.819031 
	C923.152527,529.755371 915.009705,528.377747 906.640930,531.023193 
	C895.016479,534.697754 892.137268,544.823364 900.961670,553.145996 
	C906.214905,558.100403 912.908569,561.559509 919.068542,565.513367 
	C929.379944,572.131897 939.899536,578.356750 946.747925,589.146179 
	C956.293823,604.185120 955.734680,624.731628 944.842285,638.629761 
	C934.033203,652.421753 919.731384,658.756348 902.273132,659.105408 
	C890.663025,659.337402 879.904602,656.853638 869.528564,651.900574 
	C866.104492,650.266174 864.723877,648.044067 864.908447,644.146362 
	C865.235901,637.230896 865.000427,630.288818 865.000427,623.932739 
	C870.842712,629.328674 876.678711,634.718750 882.816528,640.357422 
z"/>
<path fill="#E23546" opacity="1.000000" stroke="none" 
	d="
M678.045227,644.591797 
	C677.506470,606.639587 676.999023,569.116455 676.485840,531.168945 
	C669.019958,531.168945 661.437134,531.168945 653.854370,531.168945 
	C653.642456,530.773071 653.430542,530.377197 653.218628,529.981323 
	C676.570190,518.561523 697.964355,504.804108 712.644897,482.094666 
	C712.644897,492.529846 712.644897,502.965057 712.644897,513.782532 
	C723.634033,513.782532 733.895752,513.782532 744.577271,513.782532 
	C744.577271,521.554199 744.577271,528.949341 744.577271,535.566406 
	C734.428345,533.986084 723.971375,532.357849 712.999756,530.649414 
	C712.999756,533.338013 712.999817,535.147949 712.999817,536.957825 
	C712.999939,567.434265 713.064514,597.910828 712.965088,628.386963 
	C712.930054,639.127563 716.547546,648.202087 724.197144,655.705933 
	C724.997192,656.490723 725.727173,657.346863 727.258789,659.000000 
	C714.770691,659.000000 703.219727,659.001282 691.668701,658.999390 
	C685.735352,658.998413 681.934265,656.237366 680.001526,650.548950 
	C679.373840,648.701538 678.718994,646.863281 678.045227,644.591797 
z"/>
<path fill="#E23546" opacity="1.000000" stroke="none" 
	d="
M544.984131,548.870728 
	C544.076416,549.100098 542.876526,549.258728 542.328613,548.735107 
	C531.033386,537.939026 516.522339,537.364380 504.247681,545.889038 
	C498.623016,549.795349 496.131958,555.285583 496.076843,561.702454 
	C495.880737,584.530334 495.762756,607.364563 496.100922,630.189148 
	C496.268585,641.505493 501.502136,650.827087 510.692627,658.965515 
	C497.043945,658.965515 484.158600,659.228271 471.304138,658.716187 
	C469.069733,658.627136 466.361847,655.647034 464.913757,653.346863 
	C460.458038,646.269226 460.245941,637.959717 460.138245,630.031250 
	C459.771515,603.040710 459.997772,576.042114 459.985870,549.046631 
	C459.978821,533.013733 461.604187,528.785828 447.692017,513.270264 
	C458.888153,514.086365 470.112335,514.638855 481.268890,515.826782 
	C487.071716,516.444641 490.280914,520.865051 492.017822,526.111877 
	C493.491211,530.562744 494.551636,535.150330 495.376343,538.153625 
	C498.570496,533.537415 501.988159,527.094360 506.806519,521.967712 
	C515.194885,513.042725 532.313477,512.439819 541.488525,520.287415 
	C543.349365,521.879028 544.680908,524.992493 544.842102,527.495544 
	C545.291016,534.465515 544.996521,541.483337 544.984131,548.870728 
z"/>
<path fill="#E23546" opacity="1.000000" stroke="none" 
	d="
M509.296143,220.232086 
	C521.304688,212.233917 527.004944,201.265335 527.002319,187.243896 
	C526.995300,150.104706 526.648804,112.960419 527.188538,75.829079 
	C527.380310,62.634426 531.914612,50.771229 543.185669,42.060963 
	C551.383667,35.725563 558.653381,28.187401 566.322449,21.169615 
	C570.591003,17.263515 574.427734,12.694587 579.229370,9.632052 
	C582.216492,7.726834 586.643494,8.079131 590.424316,7.418243 
	C590.685791,7.884834 590.947327,8.351425 591.208862,8.818016 
	C590.006714,10.186183 588.898193,11.652396 587.586243,12.905666 
	C581.724182,18.505579 575.399719,23.682589 570.010498,29.700411 
	C563.719116,36.725685 561.079407,45.562214 561.047363,54.925446 
	C560.928345,89.732620 560.837646,124.541550 561.073792,159.347519 
	C561.180176,175.018890 555.595825,188.491714 544.971375,199.270508 
	C533.673523,210.732452 521.248901,221.138718 508.772186,231.340515 
	C506.066895,233.552567 501.045776,232.932449 497.091278,233.616791 
	C496.878632,233.190353 496.665955,232.763931 496.453308,232.337509 
	C500.647888,228.384354 504.842438,224.431213 509.296143,220.232086 
z"/>
<path fill="#E23546" opacity="1.000000" stroke="none" 
	d="
M392.000519,574.000000 
	C392.000275,564.670471 391.907227,555.839783 392.022003,547.011780 
	C392.184937,534.476379 390.043884,522.911621 379.045105,514.502380 
	C390.865112,514.290405 402.717072,512.190979 413.885345,516.231812 
	C423.095123,519.563904 426.637970,528.147278 426.852936,537.181091 
	C427.572388,567.419434 427.851746,597.672363 427.903320,627.920349 
	C427.922150,638.961060 431.704498,648.029907 439.270264,655.775635 
	C440.040009,656.563721 440.768188,657.392395 442.227814,658.973877 
	C428.367157,658.973877 415.453278,659.250793 402.560822,658.845825 
	C396.928040,658.668884 395.482056,653.090027 394.236816,648.973633 
	C392.696289,643.881165 392.157867,638.334778 392.093079,632.973572 
	C391.857483,613.484802 392.000366,593.991577 392.000519,574.000000 
z"/>
<path fill="#E33445" opacity="1.000000" stroke="none" 
	d="
M449.761749,351.550629 
	C442.210083,359.373749 434.836487,366.869232 426.820465,375.017761 
	C421.526184,359.330963 410.320770,349.076691 399.957428,338.372131 
	C409.170410,329.302307 418.152710,320.459564 427.380219,311.375488 
	C434.486237,318.364685 442.731415,325.416718 449.596252,333.623413 
	C453.705475,338.535919 454.732941,345.261536 449.761749,351.550629 
z"/>
<path fill="#E23546" opacity="1.000000" stroke="none" 
	d="
M386.750061,360.749329 
	C382.009064,365.476074 377.517975,369.952728 372.279266,375.174652 
	C367.483459,358.876617 355.266754,349.784485 346.652374,338.884735 
	C355.600830,329.913727 364.573883,320.918060 374.177429,311.290344 
	C380.804810,318.369171 388.954407,325.742859 395.410553,334.382050 
	C400.781860,341.569611 399.301300,347.398773 393.329651,354.131195 
	C391.346832,356.366577 389.116943,358.382843 386.750061,360.749329 
z"/>
<path fill="#E23546" opacity="1.000000" stroke="none" 
	d="
M427.419952,490.107056 
	C425.145081,499.851654 417.868652,503.285889 409.589935,503.899048 
	C402.373108,504.433594 393.636993,498.192596 392.297943,491.340179 
	C391.014618,484.773041 391.368164,477.803833 396.743866,472.986023 
	C402.763885,467.590698 409.899017,466.253693 417.665680,469.865692 
	C424.782349,473.175415 427.622894,478.933044 427.977142,486.334839 
	C428.031799,487.476593 427.787811,488.632629 427.419952,490.107056 
z"/>
<path fill="#000000" opacity="1.000000" stroke="none" 
	d="
M641.600220,238.029373 
	C648.848145,240.880325 650.434448,247.339310 651.724792,253.452133 
	C652.260559,255.990036 650.954590,260.018951 649.029968,261.627594 
	C647.471313,262.930328 643.014832,262.638641 641.098267,261.281952 
	C635.779175,257.516632 631.025757,252.921890 626.235718,248.454483 
	C624.355713,246.701111 622.972595,244.414902 621.342834,242.345490 
	C627.626587,239.320160 633.748718,235.639328 641.600220,238.029373 
z"/>
<path fill="#000000" opacity="1.000000" stroke="none" 
	d="
M404.294312,191.221436 
	C405.627808,189.523148 406.590881,187.961945 407.849976,186.694916 
	C417.011322,177.475891 426.327484,168.408920 435.399994,159.104050 
	C441.177124,153.178940 446.620941,146.928802 452.389648,140.632965 
	C453.514252,141.440094 454.425110,141.855179 455.007111,142.546967 
	C465.277527,154.754532 475.549744,166.961304 485.698822,179.269440 
	C487.120605,180.993668 488.149658,183.157898 488.927124,185.277420 
	C492.550537,195.155426 487.683044,200.468262 479.162445,200.697723 
	C451.068665,201.454239 422.941803,200.982651 393.957886,200.982651 
	C397.743317,197.427673 400.902130,194.461197 404.294312,191.221436 
z"/>
<path fill="#000000" opacity="1.000000" stroke="none" 
	d="
M589.023315,586.983398 
	C594.721924,583.194397 600.066345,579.488220 605.999451,575.373718 
	C605.999451,577.256958 605.999390,578.827087 605.999390,580.397156 
	C605.999634,595.378235 605.999695,610.359375 606.000305,625.340454 
	C606.000732,635.186890 603.455261,639.104553 593.950439,641.421082 
	C583.898926,643.870789 572.927673,639.990784 570.499390,629.312317 
	C568.051514,618.547913 569.523315,607.419189 577.217529,598.406433 
	C580.693359,594.334961 584.831421,590.828796 589.023315,586.983398 
z"/>
<path fill="#000000" opacity="1.000000" stroke="none" 
	d="
M798.211060,582.269226 
	C793.507385,585.481628 789.063721,588.440918 784.117188,591.735229 
	C783.751831,572.530457 783.179626,553.798035 791.486816,536.386536 
	C793.240906,532.709961 796.739624,529.061340 800.360168,527.241516 
	C808.788269,523.005249 818.649292,529.197571 818.877502,541.241699 
	C819.186829,557.565247 813.073792,571.176270 799.539246,580.970825 
	C799.140076,581.259644 798.825317,581.665100 798.211060,582.269226 
z"/>
</svg>