<?xml version="1.0" encoding="UTF-8"?>
<svg version="1.1" xmlns="http://www.w3.org/2000/svg" width="1648" height="595">
<path d="M0 0 C1.30395218 -0.0049926 1.30395218 -0.0049926 2.63424683 -0.01008606 C4.46807327 -0.01512771 6.30190882 -0.01749524 8.13574219 -0.01733398 C10.90055013 -0.01950834 13.6649506 -0.03766017 16.4296875 -0.05664062 C28.30065275 -0.09528257 39.47713961 0.2096398 50.8046875 4.16796875 C51.60648438 4.42835938 52.40828125 4.68875 53.234375 4.95703125 C61.82308143 7.89310661 69.76005708 12.00938941 77.8046875 16.16796875 C77.8046875 16.82796875 77.8046875 17.48796875 77.8046875 18.16796875 C78.50980469 18.42578125 79.21492188 18.68359375 79.94140625 18.94921875 C83.04738065 20.27127061 85.76446815 21.86544729 88.6171875 23.66796875 C90.08091797 24.580625 90.08091797 24.580625 91.57421875 25.51171875 C92.31027344 26.05828125 93.04632812 26.60484375 93.8046875 27.16796875 C93.8046875 27.82796875 93.8046875 28.48796875 93.8046875 29.16796875 C94.49175781 29.40386719 95.17882812 29.63976562 95.88671875 29.8828125 C99.39827594 31.42940195 102.38949345 33.50622715 105.4921875 35.73046875 C109.51439205 38.66598405 109.51439205 38.66598405 113.8046875 41.16796875 C113.8046875 41.82796875 113.8046875 42.48796875 113.8046875 43.16796875 C114.49175781 43.40386719 115.17882812 43.63976563 115.88671875 43.8828125 C119.39827594 45.42940195 122.38949345 47.50622715 125.4921875 49.73046875 C129.51439205 52.66598405 129.51439205 52.66598405 133.8046875 55.16796875 C133.8046875 55.82796875 133.8046875 56.48796875 133.8046875 57.16796875 C134.48917969 57.39871094 135.17367188 57.62945312 135.87890625 57.8671875 C139.4726934 59.46495936 142.47587299 61.65154847 145.6171875 63.98046875 C149.56048199 66.86373784 153.47850744 69.66529798 157.6796875 72.16796875 C158.7109375 72.82796875 159.7421875 73.48796875 160.8046875 74.16796875 C160.8046875 74.82796875 160.8046875 75.48796875 160.8046875 76.16796875 C161.50980469 76.42578125 162.21492188 76.68359375 162.94140625 76.94921875 C166.04738065 78.27127061 168.76446815 79.86544729 171.6171875 81.66796875 C172.59300781 82.27640625 173.56882812 82.88484375 174.57421875 83.51171875 C175.67830078 84.3315625 175.67830078 84.3315625 176.8046875 85.16796875 C176.8046875 85.82796875 176.8046875 86.48796875 176.8046875 87.16796875 C177.49175781 87.40386719 178.17882812 87.63976562 178.88671875 87.8828125 C182.39827594 89.42940195 185.38949345 91.50622715 188.4921875 93.73046875 C192.51439205 96.66598405 192.51439205 96.66598405 196.8046875 99.16796875 C196.8046875 99.82796875 196.8046875 100.48796875 196.8046875 101.16796875 C197.49175781 101.40386719 198.17882813 101.63976562 198.88671875 101.8828125 C202.39827594 103.42940195 205.38949345 105.50622715 208.4921875 107.73046875 C212.51439205 110.66598405 212.51439205 110.66598405 216.8046875 113.16796875 C216.8046875 113.82796875 216.8046875 114.48796875 216.8046875 115.16796875 C217.49175781 115.40386719 218.17882813 115.63976562 218.88671875 115.8828125 C222.39827594 117.42940195 225.38949345 119.50622715 228.4921875 121.73046875 C232.51439205 124.66598405 232.51439205 124.66598405 236.8046875 127.16796875 C236.8046875 127.82796875 236.8046875 128.48796875 236.8046875 129.16796875 C237.50980469 129.42578125 238.21492188 129.68359375 238.94140625 129.94921875 C242.04738065 131.27127061 244.76446815 132.86544729 247.6171875 134.66796875 C248.59300781 135.27640625 249.56882812 135.88484375 250.57421875 136.51171875 C251.67830078 137.3315625 251.67830078 137.3315625 252.8046875 138.16796875 C252.8046875 138.82796875 252.8046875 139.48796875 252.8046875 140.16796875 C253.5265625 140.42449219 254.2484375 140.68101562 254.9921875 140.9453125 C257.96759753 142.23878936 260.21758829 143.7783131 262.8046875 145.73046875 C270.28672243 151.2845561 277.96139128 156.54989713 285.66015625 161.796875 C287.00027242 162.71184071 288.34011315 163.62720996 289.6796875 164.54296875 C290.34403809 164.99696045 291.00838867 165.45095215 291.69287109 165.91870117 C297.2319829 169.72625533 302.65363842 173.68220426 308.02099609 177.72802734 C310.60883257 179.65981269 312.71786091 181.13902655 315.8046875 182.16796875 C315.8046875 184.14796875 315.8046875 186.12796875 315.8046875 188.16796875 C315.1446875 188.16796875 314.4846875 188.16796875 313.8046875 188.16796875 C313.4953125 188.95171875 313.1859375 189.73546875 312.8671875 190.54296875 C311.8046875 193.16796875 311.8046875 193.16796875 310.8046875 195.16796875 C310.1446875 195.16796875 309.4846875 195.16796875 308.8046875 195.16796875 C308.5984375 195.82796875 308.3921875 196.48796875 308.1796875 197.16796875 C306.58903412 200.63848521 304.51235979 203.32507496 302.14453125 206.30078125 C300.61854067 208.23280504 300.61854067 208.23280504 299.8046875 211.16796875 C299.1446875 211.16796875 298.4846875 211.16796875 297.8046875 211.16796875 C297.5571875 211.87824219 297.3096875 212.58851563 297.0546875 213.3203125 C295.65719658 216.50397149 293.90070438 218.96018173 291.8046875 221.73046875 C289.49523364 224.79134418 287.38631723 227.66696545 285.8046875 231.16796875 C285.1446875 231.16796875 284.4846875 231.16796875 283.8046875 231.16796875 C283.4953125 231.95171875 283.1859375 232.73546875 282.8671875 233.54296875 C281.8046875 236.16796875 281.8046875 236.16796875 280.8046875 238.16796875 C280.1446875 238.16796875 279.4846875 238.16796875 278.8046875 238.16796875 C278.55460937 238.874375 278.30453125 239.58078125 278.046875 240.30859375 C276.65886577 243.50363387 274.94153343 246.07338073 272.9296875 248.91796875 C272.53821533 249.47452148 272.14674316 250.03107422 271.7434082 250.60449219 C270.8883361 251.81865798 270.03089763 253.0311599 269.17138672 254.2421875 C267.76450635 256.224587 266.36402725 258.21138046 264.96484375 260.19921875 C260.80403632 266.10610392 256.63386479 272.0061537 252.44140625 277.890625 C251.89524658 278.65922852 251.34908691 279.42783203 250.78637695 280.21972656 C249.73905975 281.69338669 248.68952317 283.16547282 247.63745117 284.63574219 C247.16412354 285.30250977 246.6907959 285.96927734 246.203125 286.65625 C245.78724121 287.23930908 245.37135742 287.82236816 244.94287109 288.4230957 C243.73432123 290.27584256 242.75709625 292.17316202 241.8046875 294.16796875 C241.1446875 294.16796875 240.4846875 294.16796875 239.8046875 294.16796875 C239.5571875 294.87050781 239.3096875 295.57304687 239.0546875 296.296875 C237.63469291 299.55842507 235.85689428 302.19939736 233.8046875 305.10546875 C233.21083252 305.95081177 233.21083252 305.95081177 232.60498047 306.81323242 C229.32960514 311.46436811 226.0102423 316.08474979 222.69091797 320.70458984 C218.89845642 325.99759173 215.21405052 331.36251849 211.55908203 336.7512207 C209.63450897 339.57490893 207.70492779 342.29068355 205.546875 344.9453125 C203.62839211 347.13624809 203.62839211 347.13624809 202.8046875 350.16796875 C202.1446875 350.16796875 201.4846875 350.16796875 200.8046875 350.16796875 C200.5984375 350.82796875 200.3921875 351.48796875 200.1796875 352.16796875 C198.58903412 355.63848521 196.51235979 358.32507496 194.14453125 361.30078125 C192.61854067 363.23280504 192.61854067 363.23280504 191.8046875 366.16796875 C190.8146875 366.66296875 190.8146875 366.66296875 189.8046875 367.16796875 C188.68834598 368.81848163 188.68834598 368.81848163 187.6796875 370.73046875 C186.7515625 372.43203125 186.7515625 372.43203125 185.8046875 374.16796875 C185.1446875 374.16796875 184.4846875 374.16796875 183.8046875 374.16796875 C183.70027344 374.73773438 183.59585938 375.3075 183.48828125 375.89453125 C182.68549053 378.56438382 181.50407917 380.285984 179.8671875 382.54296875 C179.238125 383.41953125 178.6090625 384.29609375 177.9609375 385.19921875 C176.89359375 386.66875 176.89359375 386.66875 175.8046875 388.16796875 C174.15495004 390.45684291 172.51026813 392.74931234 170.8671875 395.04296875 C170.43720459 395.64246338 170.00722168 396.24195801 169.56420898 396.85961914 C166.94787881 400.52188934 164.4088008 404.22314318 161.9296875 407.98046875 C154.41307193 419.35369794 146.45287815 430.43574517 138.28198242 441.34692383 C136.17396158 444.18472046 134.23088375 446.92297167 132.8046875 450.16796875 C132.1446875 450.16796875 131.4846875 450.16796875 130.8046875 450.16796875 C130.72992187 450.6990625 130.65515625 451.23015625 130.578125 451.77734375 C129.50024423 455.10897523 127.496849 457.64086904 125.4296875 460.41796875 C124.52601676 461.65658503 123.62372872 462.89621099 122.72265625 464.13671875 C122.24876465 464.78769531 121.77487305 465.43867188 121.28662109 466.109375 C118.71918401 469.67587079 116.22981848 473.29555671 113.7421875 476.91796875 C113.26539551 477.60922852 112.78860352 478.30048828 112.29736328 479.01269531 C109.88336938 482.48888669 109.88336938 482.48888669 107.8046875 486.16796875 C107.1446875 486.16796875 106.4846875 486.16796875 105.8046875 486.16796875 C105.55460937 486.874375 105.30453125 487.58078125 105.046875 488.30859375 C103.65886577 491.50363387 101.94153343 494.07338073 99.9296875 496.91796875 C99.54111572 497.470896 99.15254395 498.02382324 98.75219727 498.59350586 C97.44173829 500.45552121 96.12371985 502.31201812 94.8046875 504.16796875 C92.7824719 507.02115806 90.76206085 509.87562093 88.7421875 512.73046875 C88.22897949 513.45476074 87.71577148 514.17905273 87.18701172 514.92529297 C84.24352138 519.09060948 81.36472253 523.28651097 78.5546875 527.54296875 C74.80927064 533.21548806 70.84364502 538.70202417 66.8046875 544.16796875 C66.22203125 544.98136719 65.639375 545.79476562 65.0390625 546.6328125 C64.50796875 547.36628906 63.976875 548.09976563 63.4296875 548.85546875 C62.96820312 549.49871094 62.50671875 550.14195312 62.03125 550.8046875 C61.62648438 551.25457031 61.22171875 551.70445312 60.8046875 552.16796875 C60.1446875 552.16796875 59.4846875 552.16796875 58.8046875 552.16796875 C58.4953125 553.00328125 58.4953125 553.00328125 58.1796875 553.85546875 C56.83621997 556.11493686 55.75311048 557.16783435 53.7421875 558.79296875 C50.79644037 560.83916272 50.79644037 560.83916272 49.8046875 563.16796875 C49.1446875 563.16796875 48.4846875 563.16796875 47.8046875 563.16796875 C47.8046875 563.82796875 47.8046875 564.48796875 47.8046875 565.16796875 C46.32348633 566.44897461 46.32348633 566.44897461 44.26171875 567.8828125 C43.51728516 568.40423828 42.77285156 568.92566406 42.00585938 569.46289062 C41.21759766 570.00494141 40.42933594 570.54699219 39.6171875 571.10546875 C38.46379883 571.91274414 38.46379883 571.91274414 37.28710938 572.73632812 C26.61157136 580.16796875 26.61157136 580.16796875 22.8046875 580.16796875 C22.8046875 580.82796875 22.8046875 581.48796875 22.8046875 582.16796875 C-2.92661836 592.64355968 -27.00705271 596.97620882 -54.8203125 594.29296875 C-55.64917969 594.21457764 -56.47804688 594.13618652 -57.33203125 594.05541992 C-62.14934879 593.54480384 -66.56205355 592.64870099 -71.1953125 591.16796875 C-71.81470703 590.9771875 -72.43410156 590.78640625 -73.07226562 590.58984375 C-84.29552201 587.08327409 -94.15859891 582.24674778 -104.1953125 576.16796875 C-105.57009766 575.36746094 -105.57009766 575.36746094 -106.97265625 574.55078125 C-108.7559245 573.49147603 -110.48611105 572.34304475 -112.1953125 571.16796875 C-112.1953125 570.50796875 -112.1953125 569.84796875 -112.1953125 569.16796875 C-112.88238281 568.93207031 -113.56945312 568.69617188 -114.27734375 568.453125 C-117.78890094 566.90653555 -120.78011845 564.82971035 -123.8828125 562.60546875 C-127.90501705 559.66995345 -127.90501705 559.66995345 -132.1953125 557.16796875 C-132.1953125 556.50796875 -132.1953125 555.84796875 -132.1953125 555.16796875 C-132.90042969 554.91015625 -133.60554687 554.65234375 -134.33203125 554.38671875 C-137.43800565 553.06466689 -140.15509315 551.47049021 -143.0078125 549.66796875 C-143.98363281 549.05953125 -144.95945312 548.45109375 -145.96484375 547.82421875 C-146.70089844 547.27765625 -147.43695312 546.73109375 -148.1953125 546.16796875 C-148.1953125 545.50796875 -148.1953125 544.84796875 -148.1953125 544.16796875 C-148.88238281 543.93207031 -149.56945312 543.69617188 -150.27734375 543.453125 C-153.78890094 541.90653555 -156.78011845 539.82971035 -159.8828125 537.60546875 C-163.90501705 534.66995345 -163.90501705 534.66995345 -168.1953125 532.16796875 C-168.1953125 531.50796875 -168.1953125 530.84796875 -168.1953125 530.16796875 C-168.9790625 529.85859375 -169.7628125 529.54921875 -170.5703125 529.23046875 C-173.1953125 528.16796875 -173.1953125 528.16796875 -175.1953125 527.16796875 C-175.1953125 526.50796875 -175.1953125 525.84796875 -175.1953125 525.16796875 C-175.89785156 524.92046875 -176.60039063 524.67296875 -177.32421875 524.41796875 C-180.58576882 522.99797416 -183.22674111 521.22017553 -186.1328125 519.16796875 C-186.69057373 518.77641602 -187.24833496 518.38486328 -187.82299805 517.98144531 C-190.85348862 515.8484251 -193.8651376 513.6893351 -196.875 511.52734375 C-197.47820068 511.09421875 -198.08140137 510.66109375 -198.70288086 510.21484375 C-199.89726056 509.35666101 -201.0907968 508.49730305 -202.28344727 507.63671875 C-205.47543297 505.34656979 -208.70147217 503.18808464 -212.0703125 501.16796875 C-213.1015625 500.50796875 -214.1328125 499.84796875 -215.1953125 499.16796875 C-215.1953125 498.50796875 -215.1953125 497.84796875 -215.1953125 497.16796875 C-215.90042969 496.91917969 -216.60554687 496.67039062 -217.33203125 496.4140625 C-220.55387548 495.01192292 -223.14224209 493.26469267 -226.0078125 491.23046875 C-227.1455512 490.4292867 -228.28358673 489.62852605 -229.421875 488.828125 C-230.32728027 488.18834717 -230.32728027 488.18834717 -231.25097656 487.53564453 C-234.77772965 485.05487221 -238.33082082 482.61239762 -241.8828125 480.16796875 C-242.57802002 479.687229 -243.27322754 479.20648926 -243.98950195 478.71118164 C-247.48867793 476.26861834 -247.48867793 476.26861834 -251.1953125 474.16796875 C-251.1953125 473.50796875 -251.1953125 472.84796875 -251.1953125 472.16796875 C-251.90171875 471.91789062 -252.608125 471.6678125 -253.3359375 471.41015625 C-256.53097762 470.02214702 -259.10072448 468.30481468 -261.9453125 466.29296875 C-262.49316406 465.90802246 -263.04101562 465.52307617 -263.60546875 465.12646484 C-265.47270054 463.81246775 -267.33427358 462.490721 -269.1953125 461.16796875 C-271.44102771 459.57566217 -273.68733082 457.9841977 -275.93457031 456.39404297 C-277.41467242 455.34582379 -278.8932507 454.29544882 -280.37011719 453.24267578 C-283.26893957 451.18485293 -286.11097609 449.21650611 -289.1953125 447.44140625 C-289.8553125 447.02117187 -290.5153125 446.6009375 -291.1953125 446.16796875 C-291.1953125 445.50796875 -291.1953125 444.84796875 -291.1953125 444.16796875 C-292.22591797 443.81412109 -292.22591797 443.81412109 -293.27734375 443.453125 C-296.78890094 441.90653555 -299.78011845 439.82971035 -302.8828125 437.60546875 C-306.90501705 434.66995345 -306.90501705 434.66995345 -311.1953125 432.16796875 C-311.1953125 431.50796875 -311.1953125 430.84796875 -311.1953125 430.16796875 C-311.74960937 430.07515625 -312.30390625 429.98234375 -312.875 429.88671875 C-315.81464227 428.97612249 -317.83663637 427.47697465 -320.3203125 425.66796875 C-323.64000704 423.22314532 -323.64000704 423.22314532 -327.1953125 421.16796875 C-327.1953125 420.50796875 -327.1953125 419.84796875 -327.1953125 419.16796875 C-327.92105469 418.89597656 -328.64679688 418.62398438 -329.39453125 418.34375 C-332.11628524 417.20114477 -334.51073252 415.92494356 -337.0078125 414.35546875 C-337.79800781 413.87464844 -338.58820313 413.39382813 -339.40234375 412.8984375 C-341.1953125 411.16796875 -341.1953125 411.16796875 -341.578125 408.6328125 C-341.05907243 405.29074955 -339.38295718 403.68707475 -337.1953125 401.16796875 C-336.8653125 400.17796875 -336.5353125 399.18796875 -336.1953125 398.16796875 C-335.5353125 398.16796875 -334.8753125 398.16796875 -334.1953125 398.16796875 C-333.84146484 397.11996094 -333.84146484 397.11996094 -333.48046875 396.05078125 C-331.95074489 392.6193642 -329.94309691 390.00220946 -327.6328125 387.04296875 C-324.34382038 382.91167128 -324.34382038 382.91167128 -322.1953125 378.16796875 C-321.5353125 378.16796875 -320.8753125 378.16796875 -320.1953125 378.16796875 C-319.99421875 377.5234375 -319.793125 376.87890625 -319.5859375 376.21484375 C-317.60015822 371.86397903 -314.78856838 368.24714109 -311.9453125 364.41796875 C-308.02811336 359.10498601 -304.21537416 353.75944253 -300.58007812 348.24902344 C-298.64297511 345.33790459 -296.61412321 342.50542417 -294.5703125 339.66796875 C-293.70928079 338.46770224 -292.84862131 337.26716863 -291.98828125 336.06640625 C-291.53888184 335.43959961 -291.08948242 334.81279297 -290.62646484 334.16699219 C-288.03609855 330.54878693 -285.45677638 326.92285642 -282.8828125 323.29296875 C-282.39151855 322.60396484 -281.90022461 321.91496094 -281.39404297 321.20507812 C-278.49671857 317.11357959 -275.80732088 312.9663848 -273.28442383 308.63232422 C-272.92501709 308.14908691 -272.56561035 307.66584961 -272.1953125 307.16796875 C-271.5353125 307.16796875 -270.8753125 307.16796875 -270.1953125 307.16796875 C-269.93621094 306.44609375 -269.67710937 305.72421875 -269.41015625 304.98046875 C-268.14459289 302.05054714 -266.63110348 299.74626171 -264.7578125 297.16796875 C-262.90193817 294.60261331 -261.16269079 292.11054177 -259.59765625 289.35546875 C-258.90349609 288.27265625 -258.90349609 288.27265625 -258.1953125 287.16796875 C-257.5353125 287.16796875 -256.8753125 287.16796875 -256.1953125 287.16796875 C-255.95941406 286.48089844 -255.72351563 285.79382813 -255.48046875 285.0859375 C-253.9338793 281.57438031 -251.8570541 278.5831628 -249.6328125 275.48046875 C-246.6972972 271.4582642 -246.6972972 271.4582642 -244.1953125 267.16796875 C-243.5353125 267.16796875 -242.8753125 267.16796875 -242.1953125 267.16796875 C-241.73125 265.99234375 -241.73125 265.99234375 -241.2578125 264.79296875 C-240.1953125 262.16796875 -240.1953125 262.16796875 -239.1953125 260.16796875 C-238.5353125 260.16796875 -237.8753125 260.16796875 -237.1953125 260.16796875 C-236.92976562 259.43835938 -236.66421875 258.70875 -236.390625 257.95703125 C-235.1981455 255.17457909 -233.83420712 252.99601289 -232.0703125 250.54296875 C-231.45671875 249.68316406 -230.843125 248.82335937 -230.2109375 247.9375 C-228.81084653 246.0137316 -227.40410715 244.09479128 -225.9921875 242.1796875 C-225.27546875 241.20644531 -224.55875 240.23320312 -223.8203125 239.23046875 C-223.15257812 238.33457031 -222.48484375 237.43867188 -221.796875 236.515625 C-220.04807772 234.18193189 -220.04807772 234.18193189 -219.1953125 231.16796875 C-218.5353125 231.16796875 -217.8753125 231.16796875 -217.1953125 231.16796875 C-216.8240625 230.39453125 -216.8240625 230.39453125 -216.4453125 229.60546875 C-214.79949634 226.39612724 -212.9977029 223.29211211 -211.1953125 220.16796875 C-210.5353125 220.16796875 -209.8753125 220.16796875 -209.1953125 220.16796875 C-208.8240625 219.11416016 -208.8240625 219.11416016 -208.4453125 218.0390625 C-207.02531791 214.77751243 -205.24751928 212.13654014 -203.1953125 209.23046875 C-202.60145752 208.38512573 -202.60145752 208.38512573 -201.99560547 207.52270508 C-198.71660171 202.86641691 -195.39344439 198.24100591 -192.07055664 193.6159668 C-188.38353824 188.47002053 -184.81611663 183.24599663 -181.25073242 178.01538086 C-177.64763216 172.75831418 -173.86796705 167.66457031 -169.97265625 162.62109375 C-168.4466732 160.51490176 -167.26104447 158.53135364 -166.1953125 156.16796875 C-165.5353125 156.16796875 -164.8753125 156.16796875 -164.1953125 156.16796875 C-164.1025 155.61367187 -164.0096875 155.059375 -163.9140625 154.48828125 C-163.00346624 151.54863898 -161.5043184 149.52664488 -159.6953125 147.04296875 C-157.25048907 143.72327421 -157.25048907 143.72327421 -155.1953125 140.16796875 C-154.5353125 140.16796875 -153.8753125 140.16796875 -153.1953125 140.16796875 C-152.95941406 139.48089844 -152.72351563 138.79382813 -152.48046875 138.0859375 C-150.9338793 134.57438031 -148.8570541 131.5831628 -146.6328125 128.48046875 C-143.6972972 124.4582642 -143.6972972 124.4582642 -141.1953125 120.16796875 C-140.5353125 120.16796875 -139.8753125 120.16796875 -139.1953125 120.16796875 C-138.83179688 119.12382812 -138.83179688 119.12382812 -138.4609375 118.05859375 C-136.98017941 114.6766154 -135.08270341 111.92776411 -132.9453125 108.91796875 C-132.1358661 107.77404036 -131.32727609 106.62950552 -130.51953125 105.484375 C-130.12427246 104.92508301 -129.72901367 104.36579102 -129.32177734 103.78955078 C-127.25347122 100.81215822 -125.31922689 97.74637421 -123.38671875 94.6796875 C-122.79697266 93.93138672 -122.79697266 93.93138672 -122.1953125 93.16796875 C-121.5353125 93.16796875 -120.8753125 93.16796875 -120.1953125 93.16796875 C-119.95941406 92.48089844 -119.72351563 91.79382813 -119.48046875 91.0859375 C-117.9338793 87.57438031 -115.8570541 84.5831628 -113.6328125 81.48046875 C-110.6972972 77.4582642 -110.6972972 77.4582642 -108.1953125 73.16796875 C-107.5353125 73.16796875 -106.8753125 73.16796875 -106.1953125 73.16796875 C-105.9890625 72.50796875 -105.7828125 71.84796875 -105.5703125 71.16796875 C-103.97965912 67.69745229 -101.90298479 65.01086254 -99.53515625 62.03515625 C-98.00916567 60.10313246 -98.00916567 60.10313246 -97.1953125 57.16796875 C-96.5353125 57.16796875 -95.8753125 57.16796875 -95.1953125 57.16796875 C-94.9271875 56.40484375 -94.6590625 55.64171875 -94.3828125 54.85546875 C-93.22927609 52.24483371 -92.20901385 51.09411786 -90.1953125 49.16796875 C-89.8653125 48.17796875 -89.5353125 47.18796875 -89.1953125 46.16796875 C-88.5353125 46.16796875 -87.8753125 46.16796875 -87.1953125 46.16796875 C-86.7921582 45.27803223 -86.7921582 45.27803223 -86.38085938 44.37011719 C-85.19240518 42.16256842 -83.98788861 40.70253993 -82.2265625 38.93359375 C-81.36998047 38.07314453 -81.36998047 38.07314453 -80.49609375 37.1953125 C-79.90183594 36.60878906 -79.30757812 36.02226563 -78.6953125 35.41796875 C-78.10105469 34.81597656 -77.50679687 34.21398438 -76.89453125 33.59375 C-76.03794922 32.74103516 -76.03794922 32.74103516 -75.1640625 31.87109375 C-74.38192383 31.09233887 -74.38192383 31.09233887 -73.58398438 30.29785156 C-72.1953125 29.16796875 -72.1953125 29.16796875 -70.1953125 29.16796875 C-70.1953125 28.50796875 -70.1953125 27.84796875 -70.1953125 27.16796875 C-68.26735039 25.65702666 -66.35163857 24.27744231 -64.3203125 22.91796875 C-63.72750488 22.51610352 -63.13469727 22.11423828 -62.52392578 21.70019531 C-40.92338246 7.16796875 -40.92338246 7.16796875 -32.1953125 7.16796875 C-32.1953125 6.50796875 -32.1953125 5.84796875 -32.1953125 5.16796875 C-31.62683594 5.04679688 -31.05835938 4.925625 -30.47265625 4.80078125 C-26.7955276 4.00273997 -23.18351538 3.16451097 -19.5703125 2.10546875 C-13.05693956 0.29619849 -6.70790014 0.00910426 0 0 Z " fill="#0B6FB5" transform="translate(838.1953125,-0.16796875)"/>
<path d="M0 0 C0.86788651 -0.0033284 1.73577301 -0.0066568 2.62995911 -0.01008606 C4.4578092 -0.0151214 6.28566837 -0.01749544 8.11352539 -0.01733398 C10.86946269 -0.01951144 13.62499314 -0.03767881 16.38085938 -0.05664062 C28.23485419 -0.09532012 39.3957648 0.21498501 50.70703125 4.16796875 C51.50882813 4.42835938 52.310625 4.68875 53.13671875 4.95703125 C64.43183268 8.81830023 75.9461075 14.25398109 85.70703125 21.16796875 C85.70703125 21.82796875 85.70703125 22.48796875 85.70703125 23.16796875 C86.67576172 23.47541016 86.67576172 23.47541016 87.6640625 23.7890625 C91.96442091 25.73774866 95.58252486 28.46603664 99.39453125 31.23046875 C100.91846992 32.32663516 102.4431731 33.42173973 103.96875 34.515625 C104.9736145 35.2427771 104.9736145 35.2427771 105.9987793 35.98461914 C107.70360152 37.22529591 107.70360152 37.22529591 109.70703125 38.16796875 C109.70703125 38.82796875 109.70703125 39.48796875 109.70703125 40.16796875 C110.70476562 40.49667969 110.70476562 40.49667969 111.72265625 40.83203125 C115.67482836 42.6011973 118.95933336 45.01023601 122.45703125 47.54296875 C123.97386073 48.62774066 125.49079076 49.71237198 127.0078125 50.796875 C127.78334473 51.35391113 128.55887695 51.91094727 129.35791016 52.48486328 C133.10589581 55.17023151 136.87560263 57.82461716 140.64453125 60.48046875 C142.06640811 61.48437236 143.48828318 62.48827852 144.91015625 63.4921875 C148.65820588 66.13586824 152.41767406 68.76295553 156.1796875 71.38671875 C158.17483449 72.79288108 160.16013846 74.21011999 162.140625 75.63671875 C163.37104534 76.52220269 164.60151456 77.40761871 165.83203125 78.29296875 C166.43055908 78.72432129 167.02908691 79.15567383 167.64575195 79.60009766 C170.88899472 81.92202073 174.15806517 84.11601745 177.58203125 86.16796875 C178.61328125 86.82796875 179.64453125 87.48796875 180.70703125 88.16796875 C180.70703125 88.82796875 180.70703125 89.48796875 180.70703125 90.16796875 C181.39410156 90.40386719 182.08117188 90.63976562 182.7890625 90.8828125 C186.30061969 92.42940195 189.2918372 94.50622715 192.39453125 96.73046875 C196.4167358 99.66598405 196.4167358 99.66598405 200.70703125 102.16796875 C200.70703125 102.82796875 200.70703125 103.48796875 200.70703125 104.16796875 C201.3721875 104.38195312 202.03734375 104.5959375 202.72265625 104.81640625 C206.72617713 106.62951911 209.97691859 109.13197074 213.45703125 111.79296875 C214.52219971 112.60157349 214.52219971 112.60157349 215.60888672 113.42651367 C223.36985616 119.36736999 230.67147242 125.43007281 236.70703125 133.16796875 C236.70703125 133.82796875 236.70703125 134.48796875 236.70703125 135.16796875 C237.36703125 135.16796875 238.02703125 135.16796875 238.70703125 135.16796875 C240.21484375 136.8125 240.21484375 136.8125 241.83203125 138.98046875 C242.37085938 139.68816406 242.9096875 140.39585937 243.46484375 141.125 C244.70703125 143.16796875 244.70703125 143.16796875 244.70703125 146.16796875 C245.36703125 146.16796875 246.02703125 146.16796875 246.70703125 146.16796875 C248.22062845 148.91069276 249.71543834 151.66322508 251.20703125 154.41796875 C251.63628906 155.19527344 252.06554688 155.97257813 252.5078125 156.7734375 C252.91386719 157.52753906 253.31992188 158.28164062 253.73828125 159.05859375 C254.30385742 160.0954834 254.30385742 160.0954834 254.88085938 161.15332031 C255.70703125 163.16796875 255.70703125 163.16796875 255.70703125 167.16796875 C256.36703125 167.16796875 257.02703125 167.16796875 257.70703125 167.16796875 C260.63736589 175.35501057 263.17895398 183.21491618 264.34765625 191.875 C264.59174216 194.19016383 264.59174216 194.19016383 265.70703125 196.16796875 C267.58798591 211.0994977 268.48581158 228.46910362 264.30078125 243.0859375 C263.55023386 245.71779119 262.95506752 248.37813425 262.33203125 251.04296875 C260.92612009 256.6595485 259.01108846 261.86511952 256.70703125 267.16796875 C256.26230469 268.25658203 256.26230469 268.25658203 255.80859375 269.3671875 C251.4550154 279.73019237 245.42813292 288.86459662 238.52734375 297.671875 C236.55930558 300.10533874 236.55930558 300.10533874 235.70703125 303.16796875 C235.04703125 303.16796875 234.38703125 303.16796875 233.70703125 303.16796875 C233.43826172 303.9045874 233.16949219 304.64120605 232.89257812 305.40014648 C231.74384632 308.0820189 230.4714078 310.11827791 228.73828125 312.453125 C227.88169922 313.62004883 227.88169922 313.62004883 227.0078125 314.81054688 C226.11642578 316.0084082 226.11642578 316.0084082 225.20703125 317.23046875 C224.02726481 318.82353732 222.85008187 320.41852314 221.67578125 322.015625 C221.15435547 322.71695557 220.63292969 323.41828613 220.09570312 324.14086914 C218.76151052 326.08844319 217.70634776 328.03243895 216.70703125 330.16796875 C216.04703125 330.16796875 215.38703125 330.16796875 214.70703125 330.16796875 C214.46855469 330.86277344 214.23007813 331.55757813 213.984375 332.2734375 C212.48227317 335.67728293 210.47029537 338.50869297 208.26953125 341.48046875 C207.37501005 342.70999854 206.4818356 343.940509 205.58984375 345.171875 C205.12223633 345.81656738 204.65462891 346.46125977 204.17285156 347.12548828 C201.61504303 350.68954994 199.12866262 354.30233708 196.64453125 357.91796875 C195.92922241 358.95497925 195.92922241 358.95497925 195.19946289 360.01293945 C192.78562913 363.48903445 192.78562913 363.48903445 190.70703125 367.16796875 C190.04703125 367.16796875 189.38703125 367.16796875 188.70703125 367.16796875 C188.4646875 367.8640625 188.22234375 368.56015625 187.97265625 369.27734375 C186.49189816 372.6593221 184.59442216 375.40817339 182.45703125 378.41796875 C181.64758485 379.56189714 180.83899484 380.70643198 180.03125 381.8515625 C179.63599121 382.41085449 179.24073242 382.97014648 178.83349609 383.54638672 C176.76518997 386.52377928 174.83094564 389.58956329 172.8984375 392.65625 C172.50527344 393.15511719 172.11210938 393.65398437 171.70703125 394.16796875 C171.04703125 394.16796875 170.38703125 394.16796875 169.70703125 394.16796875 C169.45824219 394.87308594 169.20945312 395.57820313 168.953125 396.3046875 C167.55098542 399.52653173 165.80375517 402.11489834 163.76953125 404.98046875 C162.9683492 406.11820745 162.16758855 407.25624298 161.3671875 408.39453125 C160.94066895 408.99813477 160.51415039 409.60173828 160.07470703 410.22363281 C157.59393471 413.7503859 155.15146012 417.30347707 152.70703125 420.85546875 C152.2262915 421.55067627 151.74555176 422.24588379 151.25024414 422.9621582 C148.80768084 426.46133418 148.80768084 426.46133418 146.70703125 430.16796875 C146.04703125 430.16796875 145.38703125 430.16796875 144.70703125 430.16796875 C144.47113281 430.85503906 144.23523437 431.54210937 143.9921875 432.25 C142.44559805 435.76155719 140.36877285 438.7527747 138.14453125 441.85546875 C135.20901595 445.8776733 135.20901595 445.8776733 132.70703125 450.16796875 C132.04703125 450.16796875 131.38703125 450.16796875 130.70703125 450.16796875 C130.45953125 450.86921875 130.21203125 451.57046875 129.95703125 452.29296875 C128.53522887 455.56311423 126.83456837 458.30909075 124.70703125 461.16796875 C124.04703125 461.16796875 123.38703125 461.16796875 122.70703125 461.16796875 C122.58328125 461.97234375 122.45953125 462.77671875 122.33203125 463.60546875 C122.12578125 464.45109375 121.91953125 465.29671875 121.70703125 466.16796875 C121.04703125 466.49796875 120.38703125 466.82796875 119.70703125 467.16796875 C119.37703125 468.15796875 119.04703125 469.14796875 118.70703125 470.16796875 C118.04703125 470.16796875 117.38703125 470.16796875 116.70703125 470.16796875 C115.50075117 472.50011023 114.54155745 474.66439014 113.70703125 477.16796875 C113.04703125 477.16796875 112.38703125 477.16796875 111.70703125 477.16796875 C111.47113281 477.86664063 111.23523437 478.5653125 110.9921875 479.28515625 C109.46246364 482.7165733 107.45481566 485.33372804 105.14453125 488.29296875 C101.85553913 492.42426622 101.85553913 492.42426622 99.70703125 497.16796875 C99.04703125 497.16796875 98.38703125 497.16796875 97.70703125 497.16796875 C97.43753662 497.9053125 97.16804199 498.64265625 96.89038086 499.40234375 C95.74989154 502.06779929 94.49192136 504.09547531 92.7734375 506.41796875 C91.92362305 507.578125 91.92362305 507.578125 91.05664062 508.76171875 C90.46689453 509.55578125 89.87714844 510.34984375 89.26953125 511.16796875 C88.10231541 512.74993785 86.93689648 514.33323462 85.7734375 515.91796875 C84.96156982 517.02205078 84.96156982 517.02205078 84.13330078 518.1484375 C82.57372652 520.29455404 82.57372652 520.29455404 80.921875 523.23046875 C80.52097656 523.86984375 80.12007812 524.50921875 79.70703125 525.16796875 C79.04703125 525.16796875 78.38703125 525.16796875 77.70703125 525.16796875 C77.61550781 525.72355469 77.52398438 526.27914062 77.4296875 526.8515625 C76.50733067 529.80809007 75.00639728 531.75648239 73.14453125 534.23046875 C72.42394531 535.19597656 71.70335937 536.16148437 70.9609375 537.15625 C69.84525391 538.64705078 69.84525391 538.64705078 68.70703125 540.16796875 C67.3301551 542.08328809 65.95509402 543.99991382 64.58203125 545.91796875 C61.46676887 550.19225591 58.31768377 554.29941248 54.70703125 558.16796875 C54.04703125 558.16796875 53.38703125 558.16796875 52.70703125 558.16796875 C52.70703125 558.82796875 52.70703125 559.48796875 52.70703125 560.16796875 C51.24609375 561.67578125 51.24609375 561.67578125 49.33203125 563.29296875 C48.70554687 563.83179688 48.0790625 564.370625 47.43359375 564.92578125 C45.70703125 566.16796875 45.70703125 566.16796875 43.70703125 566.16796875 C43.70703125 566.82796875 43.70703125 567.48796875 43.70703125 568.16796875 C41.67442832 569.73631684 39.65040559 571.18258718 37.51953125 572.60546875 C36.94138672 573.00056641 36.36324219 573.39566406 35.76757812 573.80273438 C26.39447925 580.16796875 26.39447925 580.16796875 22.70703125 580.16796875 C22.70703125 580.82796875 22.70703125 581.48796875 22.70703125 582.16796875 C21.83820313 582.49410156 20.969375 582.82023438 20.07421875 583.15625 C18.92179687 583.59324219 17.769375 584.03023437 16.58203125 584.48046875 C15.44507813 584.90972656 14.308125 585.33898437 13.13671875 585.78125 C9.71646668 587.10308972 9.71646668 587.10308972 6.609375 588.765625 C3.79604646 590.12495871 1.46000142 590.78128177 -1.60546875 591.29296875 C-4.74602702 591.6224256 -4.74602702 591.6224256 -7.29296875 593.16796875 C-23.26574636 595.37388663 -38.87851464 595.81689341 -54.91796875 594.29296875 C-55.74748047 594.2146582 -56.57699219 594.13634766 -57.43164062 594.05566406 C-65.26342049 593.22405522 -72.40620925 590.85349515 -79.79296875 588.23046875 C-80.51355469 587.97845703 -81.23414063 587.72644531 -81.9765625 587.46679688 C-86.49931281 585.86788605 -90.90331544 584.10288172 -95.29296875 582.16796875 C-95.29296875 581.50796875 -95.29296875 580.84796875 -95.29296875 580.16796875 C-96.34484375 580.04035156 -96.34484375 580.04035156 -97.41796875 579.91015625 C-100.96515767 578.99444172 -103.29139276 577.38335203 -106.29296875 575.29296875 C-110.64662492 572.28127512 -110.64662492 572.28127512 -115.16796875 569.53515625 C-115.86921875 569.08398438 -116.57046875 568.6328125 -117.29296875 568.16796875 C-117.29296875 567.50796875 -117.29296875 566.84796875 -117.29296875 566.16796875 C-117.98003906 565.93207031 -118.66710938 565.69617188 -119.375 565.453125 C-122.88655719 563.90653555 -125.8777747 561.82971035 -128.98046875 559.60546875 C-133.0026733 556.66995345 -133.0026733 556.66995345 -137.29296875 554.16796875 C-137.29296875 553.50796875 -137.29296875 552.84796875 -137.29296875 552.16796875 C-138.39789673 551.76481445 -138.39789673 551.76481445 -139.52514648 551.35351562 C-142.2070189 550.20478382 -144.24327791 548.9323453 -146.578125 547.19921875 C-147.74504883 546.34263672 -147.74504883 546.34263672 -148.93554688 545.46875 C-149.73412109 544.87449219 -150.53269531 544.28023437 -151.35546875 543.66796875 C-152.94853732 542.48820231 -154.54352314 541.31101937 -156.140625 540.13671875 C-156.84195557 539.61529297 -157.54328613 539.09386719 -158.26586914 538.55664062 C-160.21344319 537.22244802 -162.15743895 536.16728526 -164.29296875 535.16796875 C-164.29296875 534.50796875 -164.29296875 533.84796875 -164.29296875 533.16796875 C-164.98003906 532.93207031 -165.66710938 532.69617188 -166.375 532.453125 C-169.88655719 530.90653555 -172.8777747 528.82971035 -175.98046875 526.60546875 C-180.0026733 523.66995345 -180.0026733 523.66995345 -184.29296875 521.16796875 C-184.29296875 520.50796875 -184.29296875 519.84796875 -184.29296875 519.16796875 C-184.98003906 518.93207031 -185.66710938 518.69617188 -186.375 518.453125 C-189.88655719 516.90653555 -192.8777747 514.82971035 -195.98046875 512.60546875 C-200.0026733 509.66995345 -200.0026733 509.66995345 -204.29296875 507.16796875 C-204.29296875 506.50796875 -204.29296875 505.84796875 -204.29296875 505.16796875 C-205.00839844 504.9153125 -205.72382812 504.66265625 -206.4609375 504.40234375 C-209.5377716 503.06126847 -211.91822828 501.42464904 -214.60546875 499.41796875 C-216.03826172 498.35642578 -216.03826172 498.35642578 -217.5 497.2734375 C-219.23057634 495.96884918 -220.95781892 494.65980994 -222.6796875 493.34375 C-223.37707031 492.81136719 -224.07445312 492.27898437 -224.79296875 491.73046875 C-225.40140625 491.25738281 -226.00984375 490.78429687 -226.63671875 490.296875 C-228.41154981 488.97676873 -228.41154981 488.97676873 -231.29296875 488.16796875 C-231.29296875 487.50796875 -231.29296875 486.84796875 -231.29296875 486.16796875 C-232.26169922 485.86052734 -232.26169922 485.86052734 -233.25 485.546875 C-237.55035841 483.59818884 -241.16846236 480.86990086 -244.98046875 478.10546875 C-246.50440742 477.00930234 -248.0291106 475.91419777 -249.5546875 474.8203125 C-250.22459717 474.33554443 -250.89450684 473.85077637 -251.5847168 473.35131836 C-253.28953902 472.11064159 -253.28953902 472.11064159 -255.29296875 471.16796875 C-255.29296875 470.50796875 -255.29296875 469.84796875 -255.29296875 469.16796875 C-255.99550781 468.92046875 -256.69804688 468.67296875 -257.421875 468.41796875 C-260.68342507 466.99797416 -263.32439736 465.22017553 -266.23046875 463.16796875 C-266.79185547 462.77351563 -267.35324219 462.3790625 -267.93164062 461.97265625 C-269.72332195 460.71074116 -271.50901005 459.4407742 -273.29296875 458.16796875 C-273.87320801 457.75417969 -274.45344727 457.34039062 -275.05126953 456.9140625 C-277.38924479 455.24510785 -279.72606383 453.57456778 -282.06030273 451.90039062 C-286.99761701 448.36329185 -291.98998662 444.90958282 -296.9921875 441.46484375 C-301.16296516 438.57805813 -305.27051304 435.60329246 -309.38330078 432.63476562 C-312.57480716 430.34566017 -315.79997472 428.18757717 -319.16796875 426.16796875 C-320.19921875 425.50796875 -321.23046875 424.84796875 -322.29296875 424.16796875 C-322.29296875 423.50796875 -322.29296875 422.84796875 -322.29296875 422.16796875 C-323.00195312 421.92175781 -323.7109375 421.67554688 -324.44140625 421.421875 C-327.6516849 420.01023192 -330.12698543 418.22369438 -332.91796875 416.10546875 C-336.83072878 413.12051227 -336.83072878 413.12051227 -341.29296875 411.16796875 C-341.29296875 409.51796875 -341.29296875 407.86796875 -341.29296875 406.16796875 C-340.63296875 406.16796875 -339.97296875 406.16796875 -339.29296875 406.16796875 C-339.03644531 405.44609375 -338.77992187 404.72421875 -338.515625 403.98046875 C-337.22214814 401.00505872 -335.6826244 398.75506796 -333.73046875 396.16796875 C-330.76234533 392.17139323 -327.8646401 388.14441453 -325.04296875 384.04296875 C-321.54022594 378.95245891 -317.98962707 373.89784352 -314.41796875 368.85546875 C-309.10657143 361.34944619 -303.88018098 353.78833646 -298.68701172 346.20019531 C-297.21792397 344.05856897 -295.74250449 341.92141594 -294.265625 339.78515625 C-293.51937866 338.70439819 -293.51937866 338.70439819 -292.75805664 337.60180664 C-291.8091304 336.22783228 -290.85916395 334.85457552 -289.90795898 333.48217773 C-288.03196753 330.76225386 -286.24502402 328.08395449 -284.60546875 325.2109375 C-283.95578125 324.19966797 -283.95578125 324.19966797 -283.29296875 323.16796875 C-282.63296875 323.16796875 -281.97296875 323.16796875 -281.29296875 323.16796875 C-280.91785156 322.10835938 -280.91785156 322.10835938 -280.53515625 321.02734375 C-279.14714702 317.83230363 -277.42981468 315.26255677 -275.41796875 312.41796875 C-274.83511108 311.58857788 -274.83511108 311.58857788 -274.24047852 310.74243164 C-272.93001954 308.88041629 -271.6120011 307.02391938 -270.29296875 305.16796875 C-268.78655316 303.04253323 -267.28103627 300.91646723 -265.77636719 298.78979492 C-264.74835131 297.33722732 -263.71906008 295.88556146 -262.68847656 294.43481445 C-258.91831981 289.11034807 -255.31897774 283.70040905 -251.81640625 278.1953125 C-251.31367187 277.52628906 -250.8109375 276.85726563 -250.29296875 276.16796875 C-249.63296875 276.16796875 -248.97296875 276.16796875 -248.29296875 276.16796875 C-248.20015625 275.61367188 -248.10734375 275.059375 -248.01171875 274.48828125 C-247.10112249 271.54863898 -245.60197465 269.52664488 -243.79296875 267.04296875 C-241.34814532 263.72327421 -241.34814532 263.72327421 -239.29296875 260.16796875 C-238.63296875 260.16796875 -237.97296875 260.16796875 -237.29296875 260.16796875 C-237.03386719 259.44609375 -236.77476563 258.72421875 -236.5078125 257.98046875 C-235.24224914 255.05054714 -233.72875973 252.74626171 -231.85546875 250.16796875 C-229.99959442 247.60261331 -228.26034704 245.11054177 -226.6953125 242.35546875 C-226.23253906 241.63359375 -225.76976562 240.91171875 -225.29296875 240.16796875 C-224.63296875 240.16796875 -223.97296875 240.16796875 -223.29296875 240.16796875 C-223.02355469 239.43191406 -222.75414062 238.69585937 -222.4765625 237.9375 C-221.33052118 235.25583895 -220.06443592 233.20791011 -218.35546875 230.85546875 C-215.24710235 226.51016479 -212.18940353 222.13636657 -209.16796875 217.73046875 C-208.70970703 217.06313721 -208.25144531 216.39580566 -207.77929688 215.70825195 C-206.28302109 213.52872778 -204.78783128 211.34846245 -203.29296875 209.16796875 C-202.7314209 208.34893066 -202.16987305 207.52989258 -201.59130859 206.68603516 C-199.84538638 204.13878564 -198.10024937 201.59100034 -196.35546875 199.04296875 C-195.81196777 198.24963135 -195.2684668 197.45629395 -194.70849609 196.63891602 C-194.19109863 195.88280029 -193.67370117 195.12668457 -193.140625 194.34765625 C-192.65094238 193.63448242 -192.16125977 192.92130859 -191.65673828 192.18652344 C-190.41526383 190.34898123 -189.2263455 188.48597775 -188.0390625 186.61328125 C-187.46285156 185.80632812 -186.88664062 184.999375 -186.29296875 184.16796875 C-185.63296875 184.16796875 -184.97296875 184.16796875 -184.29296875 184.16796875 C-184.03515625 183.46285156 -183.77734375 182.75773438 -183.51171875 182.03125 C-182.18966689 178.9252756 -180.59549021 176.2081881 -178.79296875 173.35546875 C-178.18453125 172.37964844 -177.57609375 171.40382812 -176.94921875 170.3984375 C-176.40265625 169.66238281 -175.85609375 168.92632812 -175.29296875 168.16796875 C-174.63296875 168.16796875 -173.97296875 168.16796875 -173.29296875 168.16796875 C-173.05707031 167.48089844 -172.82117187 166.79382813 -172.578125 166.0859375 C-171.03153555 162.57438031 -168.95471035 159.5831628 -166.73046875 156.48046875 C-163.79495345 152.4582642 -163.79495345 152.4582642 -161.29296875 148.16796875 C-160.63296875 148.16796875 -159.97296875 148.16796875 -159.29296875 148.16796875 C-159.08671875 147.50796875 -158.88046875 146.84796875 -158.66796875 146.16796875 C-157.07731537 142.69745229 -155.00064104 140.01086254 -152.6328125 137.03515625 C-151.10682192 135.10313246 -151.10682192 135.10313246 -150.29296875 132.16796875 C-149.63296875 132.16796875 -148.97296875 132.16796875 -148.29296875 132.16796875 C-148.05707031 131.46929687 -147.82117187 130.770625 -147.578125 130.05078125 C-146.04840114 126.6193642 -144.04075316 124.00220946 -141.73046875 121.04296875 C-138.44147663 116.91167128 -138.44147663 116.91167128 -136.29296875 112.16796875 C-135.63296875 112.16796875 -134.97296875 112.16796875 -134.29296875 112.16796875 C-134.08542969 111.51828125 -133.87789062 110.86859375 -133.6640625 110.19921875 C-131.74961989 105.96671884 -129.07799786 102.41670681 -126.35546875 98.66796875 C-125.28222157 97.17956128 -124.21056251 95.69000715 -123.140625 94.19921875 C-122.39063232 93.15701172 -122.39063232 93.15701172 -121.62548828 92.09375 C-120.15632364 90.02581859 -120.15632364 90.02581859 -118.5390625 87.13671875 C-118.12785156 86.48703125 -117.71664063 85.83734375 -117.29296875 85.16796875 C-116.63296875 85.16796875 -115.97296875 85.16796875 -115.29296875 85.16796875 C-115.06996094 84.50152344 -114.84695313 83.83507812 -114.6171875 83.1484375 C-112.88508119 79.24992095 -110.55596747 75.95920627 -108.10546875 72.48046875 C-107.36997803 71.42351807 -107.36997803 71.42351807 -106.61962891 70.34521484 C-105.1826153 68.28242782 -103.73908475 66.22438166 -102.29296875 64.16796875 C-101.55175781 63.11222656 -100.81054688 62.05648437 -100.046875 60.96875 C-98.87953359 59.30631992 -97.70946438 57.64579751 -96.53515625 55.98828125 C-95.24716127 54.18865334 -95.24716127 54.18865334 -94.29296875 52.16796875 C-93.63296875 52.16796875 -92.97296875 52.16796875 -92.29296875 52.16796875 C-92.29296875 51.17796875 -92.29296875 50.18796875 -92.29296875 49.16796875 C-91.01186468 47.78437635 -89.66091622 46.46576507 -88.29296875 45.16796875 C-87.24262125 43.96717359 -86.20197441 42.75786429 -85.16796875 41.54296875 C-82.2367907 38.1812937 -79.21330392 34.92984546 -76.10546875 31.73046875 C-75.28691406 30.88613281 -74.46835938 30.04179687 -73.625 29.171875 C-71.37968188 27.24248104 -70.18078296 26.53309468 -67.29296875 26.16796875 C-67.29296875 25.50796875 -67.29296875 24.84796875 -67.29296875 24.16796875 C-65.32308171 22.68439757 -63.37517708 21.35352702 -61.29296875 20.04296875 C-60.35868042 19.45008057 -60.35868042 19.45008057 -59.40551758 18.84521484 C-49.70650215 12.81235746 -39.35723893 7.17631958 -28.29296875 4.16796875 C-26.95492187 3.77158203 -26.95492187 3.77158203 -25.58984375 3.3671875 C-17.02028687 0.89700102 -8.88180361 0.01213114 0 0 Z " fill="#0B6FB5" transform="translate(1380.29296875,-0.16796875)"/>
<path d="M0 0 C2.71165319 0.01072378 5.42264412 0.00004686 8.13427734 -0.01269531 C23.19025416 -0.02577191 36.09351227 1.92874017 50.21630859 7.19824219 C50.90208984 7.45025391 51.58787109 7.70226562 52.29443359 7.96191406 C56.40845421 9.49682061 60.31858181 11.22052582 64.21630859 13.26074219 C64.21630859 13.92074219 64.21630859 14.58074219 64.21630859 15.26074219 C64.94591797 15.36128906 65.67552734 15.46183594 66.42724609 15.56542969 C69.54284943 16.34214873 71.27752994 17.47362633 73.84130859 19.38574219 C78.47642806 22.77133396 83.25227527 25.80882728 88.16162109 28.78027344 C88.83966797 29.26882812 89.51771484 29.75738281 90.21630859 30.26074219 C90.21630859 30.92074219 90.21630859 31.58074219 90.21630859 32.26074219 C91.00005859 32.57011719 91.78380859 32.87949219 92.59130859 33.19824219 C95.21630859 34.26074219 95.21630859 34.26074219 97.21630859 35.26074219 C97.21630859 35.92074219 97.21630859 36.58074219 97.21630859 37.26074219 C97.91498047 37.49664062 98.61365234 37.73253906 99.33349609 37.97558594 C102.76491314 39.5053098 105.38206788 41.51295777 108.34130859 43.82324219 C112.47260606 47.11223431 112.47260606 47.11223431 117.21630859 49.26074219 C117.21630859 49.92074219 117.21630859 50.58074219 117.21630859 51.26074219 C117.91755859 51.50824219 118.61880859 51.75574219 119.34130859 52.01074219 C122.61145407 53.43254457 125.35743059 55.13320507 128.21630859 57.26074219 C128.21630859 57.92074219 128.21630859 58.58074219 128.21630859 59.26074219 C128.87630859 59.48761719 129.53630859 59.71449219 130.21630859 59.94824219 C134.10289487 61.64862369 137.85310677 63.65697303 141.21630859 66.26074219 C141.21630859 66.92074219 141.21630859 67.58074219 141.21630859 68.26074219 C141.91884766 68.50824219 142.62138672 68.75574219 143.34521484 69.01074219 C146.60676491 70.43073677 149.2477372 72.2085354 152.15380859 74.26074219 C152.99588867 74.85242188 152.99588867 74.85242188 153.85498047 75.45605469 C155.64666179 76.71796977 157.43234989 77.98793674 159.21630859 79.26074219 C159.79654785 79.67453125 160.37678711 80.08832031 160.97460938 80.51464844 C163.30364336 82.17722039 165.63141704 83.841533 167.95727539 85.50854492 C177.76380196 92.92723049 177.76380196 92.92723049 188.21630859 99.26074219 C188.21630859 99.92074219 188.21630859 100.58074219 188.21630859 101.26074219 C188.90337891 101.49664062 189.59044922 101.73253906 190.29833984 101.97558594 C193.80989704 103.52217538 196.80111455 105.59900059 199.90380859 107.82324219 C203.92601314 110.75875749 203.92601314 110.75875749 208.21630859 113.26074219 C208.21630859 113.92074219 208.21630859 114.58074219 208.21630859 115.26074219 C208.90337891 115.49664062 209.59044922 115.73253906 210.29833984 115.97558594 C213.80989704 117.52217538 216.80111455 119.59900059 219.90380859 121.82324219 C223.92601314 124.75875749 223.92601314 124.75875749 228.21630859 127.26074219 C228.21630859 127.92074219 228.21630859 128.58074219 228.21630859 129.26074219 C228.93818359 129.51726562 229.66005859 129.77378906 230.40380859 130.03808594 C233.37921862 131.3315628 235.62920938 132.87108653 238.21630859 134.82324219 C242.21288411 137.79136561 246.23986281 140.68907084 250.34130859 143.51074219 C256.3988945 147.67987206 262.40514063 151.91824347 268.39257812 156.1875 C271.29108356 158.24450386 274.13259928 160.21256573 277.21630859 161.98730469 C277.87630859 162.40753906 278.53630859 162.82777344 279.21630859 163.26074219 C279.21630859 163.92074219 279.21630859 164.58074219 279.21630859 165.26074219 C280.00005859 165.57011719 280.78380859 165.87949219 281.59130859 166.19824219 C284.21630859 167.26074219 284.21630859 167.26074219 286.21630859 168.26074219 C286.21630859 168.92074219 286.21630859 169.58074219 286.21630859 170.26074219 C286.87630859 170.48761719 287.53630859 170.71449219 288.21630859 170.94824219 C292.10289487 172.64862369 295.85310677 174.65697303 299.21630859 177.26074219 C299.21630859 177.92074219 299.21630859 178.58074219 299.21630859 179.26074219 C301.86859672 180.33599413 304.49999313 181.3553037 307.21630859 182.26074219 C307.42387096 184.99679154 307.53414168 186.72803603 306.10693359 189.12011719 C305.29482422 190.05597656 305.29482422 190.05597656 304.46630859 191.01074219 C300.92329861 195.31807086 297.66738199 199.76031537 294.46630859 204.32324219 C293.69347534 205.42285278 293.69347534 205.42285278 292.9050293 206.54467773 C287.15231004 214.75074944 281.4865123 223.01632106 275.82958984 231.28857422 C270.5719612 238.97435838 265.27322823 246.62266622 259.84277344 254.1875 C255.97624201 259.5788823 252.19299948 265.02588005 248.43310547 270.4921875 C247.09683629 272.43438934 245.75815756 274.37491916 244.41943359 276.31542969 C243.4558233 277.7138199 242.4922816 279.11225738 241.52880859 280.51074219 C241.06104004 281.18862793 240.59327148 281.86651367 240.11132812 282.56494141 C237.0995373 286.94056204 234.1651703 291.35691466 231.33740234 295.85449219 C230.96744141 296.31855469 230.59748047 296.78261719 230.21630859 297.26074219 C229.55630859 297.26074219 228.89630859 297.26074219 228.21630859 297.26074219 C227.95849609 297.96585937 227.70068359 298.67097656 227.43505859 299.39746094 C226.11300673 302.50343534 224.51883006 305.22052284 222.71630859 308.07324219 C222.10787109 309.0490625 221.49943359 310.02488281 220.87255859 311.03027344 C220.32599609 311.76632812 219.77943359 312.50238281 219.21630859 313.26074219 C218.55630859 313.26074219 217.89630859 313.26074219 217.21630859 313.26074219 C216.98041016 313.9478125 216.74451172 314.63488281 216.50146484 315.34277344 C214.9548754 318.85433063 212.87805019 321.84554814 210.65380859 324.94824219 C207.71829329 328.97044674 207.71829329 328.97044674 205.21630859 333.26074219 C204.55630859 333.26074219 203.89630859 333.26074219 203.21630859 333.26074219 C202.96880859 333.96328125 202.72130859 334.66582031 202.46630859 335.38964844 C201.04631401 338.6511985 199.26851538 341.29217079 197.21630859 344.19824219 C196.82693115 344.75310303 196.43755371 345.30796387 196.03637695 345.87963867 C193.86788255 348.96131925 191.67107742 352.02244 189.47021484 355.08105469 C189.02097656 355.70633057 188.57173828 356.33160645 188.10888672 356.97583008 C187.23971166 358.18307084 186.36744189 359.38809112 185.49169922 360.59057617 C183.4729751 363.38588944 181.62711055 366.10763837 180.21630859 369.26074219 C179.55630859 369.26074219 178.89630859 369.26074219 178.21630859 369.26074219 C177.96880859 369.97101563 177.72130859 370.68128906 177.46630859 371.41308594 C176.06881768 374.59674493 174.31232547 377.05295517 172.21630859 379.82324219 C169.90685474 382.88411761 167.79793832 385.75973889 166.21630859 389.26074219 C165.55630859 389.26074219 164.89630859 389.26074219 164.21630859 389.26074219 C163.96236328 389.98003906 163.70841797 390.69933594 163.44677734 391.44042969 C162.12541381 394.4690788 160.52570318 396.7572169 158.52880859 399.38574219 C155.76701874 403.09798584 153.16347468 406.83402511 150.71630859 410.76074219 C147.79586611 415.4215838 144.66250169 419.86554161 141.39990234 424.29199219 C138.89376612 427.69926147 136.42583991 431.13226109 133.96630859 434.57324219 C133.55405029 435.14792236 133.14179199 435.72260254 132.71704102 436.31469727 C130.8280469 438.95760345 128.97924422 441.6174763 127.18115234 444.32324219 C124.56111501 448.24027614 121.73940013 451.99507395 118.92333984 455.77246094 C117.07719407 458.21823511 117.07719407 458.21823511 116.21630859 461.26074219 C115.55630859 461.26074219 114.89630859 461.26074219 114.21630859 461.26074219 C113.96880859 461.96199219 113.72130859 462.66324219 113.46630859 463.38574219 C112.04450621 466.65588766 110.34384571 469.40186419 108.21630859 472.26074219 C107.55630859 472.26074219 106.89630859 472.26074219 106.21630859 472.26074219 C105.95849609 472.96585937 105.70068359 473.67097656 105.43505859 474.39746094 C104.11300673 477.50343534 102.51883006 480.22052284 100.71630859 483.07324219 C100.10787109 484.0490625 99.49943359 485.02488281 98.87255859 486.03027344 C98.32599609 486.76632812 97.77943359 487.50238281 97.21630859 488.26074219 C96.55630859 488.26074219 95.89630859 488.26074219 95.21630859 488.26074219 C94.98041016 488.9478125 94.74451172 489.63488281 94.50146484 490.34277344 C92.9548754 493.85433063 90.87805019 496.84554814 88.65380859 499.94824219 C85.71829329 503.97044674 85.71829329 503.97044674 83.21630859 508.26074219 C82.55630859 508.26074219 81.89630859 508.26074219 81.21630859 508.26074219 C80.90693359 509.25074219 80.90693359 509.25074219 80.59130859 510.26074219 C79.00065521 513.73125865 76.92398089 516.4178484 74.55615234 519.39355469 C73.03016176 521.32557848 73.03016176 521.32557848 72.21630859 524.26074219 C71.55630859 524.26074219 70.89630859 524.26074219 70.21630859 524.26074219 C69.98041016 524.95941406 69.74451172 525.65808594 69.50146484 526.37792969 C67.97174098 529.80934674 65.96409301 532.42650148 63.65380859 535.38574219 C60.36481648 539.51703965 60.36481648 539.51703965 58.21630859 544.26074219 C57.55630859 544.26074219 56.89630859 544.26074219 56.21630859 544.26074219 C55.82378906 545.11152344 55.82378906 545.11152344 55.42333984 545.97949219 C52.21749487 552.03843543 47.71697033 557.20762302 42.21630859 561.26074219 C41.47380859 562.01742187 40.73130859 562.77410156 39.96630859 563.55371094 C37.08800674 566.38703932 34.04576497 568.87833266 30.84130859 571.32324219 C30.03306641 571.95456055 30.03306641 571.95456055 29.20849609 572.59863281 C19.22993505 580.26074219 19.22993505 580.26074219 14.21630859 580.26074219 C14.21630859 580.92074219 14.21630859 581.58074219 14.21630859 582.26074219 C13.35908203 582.586875 12.50185547 582.91300781 11.61865234 583.24902344 C4.55096393 585.93577051 4.55096393 585.93577051 -2.40869141 588.88574219 C-21.42940851 596.63492323 -43.26744986 596.30096259 -63.40869141 594.38574219 C-64.23812256 594.30743164 -65.06755371 594.22912109 -65.92211914 594.1484375 C-70.73849426 593.63706807 -75.15161701 592.74279351 -79.78369141 591.26074219 C-81.03923828 590.86757813 -82.29478516 590.47441406 -83.58837891 590.06933594 C-97.41270328 585.48946723 -110.26465346 579.26798814 -121.99853516 570.57324219 C-123.75364819 569.20513427 -123.75364819 569.20513427 -125.78369141 568.26074219 C-125.78369141 567.60074219 -125.78369141 566.94074219 -125.78369141 566.26074219 C-126.47076172 566.02484375 -127.15783203 565.78894531 -127.86572266 565.54589844 C-131.37727985 563.99930899 -134.36849736 561.92248379 -137.47119141 559.69824219 C-141.49339596 556.76272688 -141.49339596 556.76272688 -145.78369141 554.26074219 C-145.78369141 553.60074219 -145.78369141 552.94074219 -145.78369141 552.26074219 C-146.50556641 552.00421875 -147.22744141 551.74769531 -147.97119141 551.48339844 C-150.94660144 550.18992158 -153.1965922 548.65039784 -155.78369141 546.69824219 C-160.09047559 543.4989168 -164.43450031 540.37507264 -168.84619141 537.32324219 C-169.93029297 536.57171875 -171.01439453 535.82019531 -172.13134766 535.04589844 C-174.61626293 533.29095444 -174.61626293 533.29095444 -176.78369141 532.26074219 C-176.78369141 531.60074219 -176.78369141 530.94074219 -176.78369141 530.26074219 C-177.47076172 530.02484375 -178.15783203 529.78894531 -178.86572266 529.54589844 C-182.37727985 527.99930899 -185.36849736 525.92248379 -188.47119141 523.69824219 C-192.49339596 520.76272688 -192.49339596 520.76272688 -196.78369141 518.26074219 C-196.78369141 517.60074219 -196.78369141 516.94074219 -196.78369141 516.26074219 C-197.56744141 515.95136719 -198.35119141 515.64199219 -199.15869141 515.32324219 C-201.78369141 514.26074219 -201.78369141 514.26074219 -203.78369141 513.26074219 C-203.78369141 512.60074219 -203.78369141 511.94074219 -203.78369141 511.26074219 C-204.44884766 511.04160156 -205.11400391 510.82246094 -205.79931641 510.59667969 C-209.75151363 508.8275024 -213.03590227 506.41838872 -216.53369141 503.88574219 C-218.04404791 502.80623092 -219.55446646 501.72680647 -221.06494141 500.64746094 C-221.83966797 500.09106934 -222.61439453 499.53467773 -223.41259766 498.96142578 C-227.27501757 496.19107805 -231.1536576 493.44383773 -235.03369141 490.69824219 C-235.7359082 490.19824707 -236.438125 489.69825195 -237.16162109 489.18310547 C-239.9884148 487.17993604 -242.76065214 485.27398072 -245.76806641 483.54589844 C-246.43322266 483.12179687 -247.09837891 482.69769531 -247.78369141 482.26074219 C-247.78369141 481.60074219 -247.78369141 480.94074219 -247.78369141 480.26074219 C-248.34056641 480.009375 -248.89744141 479.75800781 -249.47119141 479.49902344 C-257.15870506 475.38256765 -263.50076516 468.76733299 -269.40869141 462.44824219 C-270.18986328 461.62199341 -270.18986328 461.62199341 -270.98681641 460.77905273 C-275.41017972 455.93360713 -275.41017972 455.93360713 -275.78369141 452.26074219 C-276.44369141 452.26074219 -277.10369141 452.26074219 -277.78369141 452.26074219 C-279.29150391 450.17871094 -279.29150391 450.17871094 -280.90869141 447.44824219 C-281.44751953 446.55492187 -281.98634766 445.66160156 -282.54150391 444.74121094 C-283.78369141 442.26074219 -283.78369141 442.26074219 -283.78369141 439.26074219 C-284.44369141 439.26074219 -285.10369141 439.26074219 -285.78369141 439.26074219 C-286.79305677 437.18193019 -287.79086986 435.09750599 -288.78369141 433.01074219 C-289.34056641 431.85058594 -289.89744141 430.69042969 -290.47119141 429.49511719 C-291.78369141 426.26074219 -291.78369141 426.26074219 -291.78369141 422.26074219 C-292.44369141 422.26074219 -293.10369141 422.26074219 -293.78369141 422.26074219 C-293.90486328 421.69226563 -294.02603516 421.12378906 -294.15087891 420.53808594 C-294.93828044 416.90998196 -295.76330965 413.33207832 -296.78369141 409.76074219 C-303.09143145 387.68365202 -301.66725106 364.4671172 -296.78369141 342.26074219 C-296.12369141 342.26074219 -295.46369141 342.26074219 -294.78369141 342.26074219 C-294.76306641 341.08511719 -294.74244141 339.90949219 -294.72119141 338.69824219 C-293.51165664 327.72603393 -286.13085084 316.68192785 -280.78369141 307.26074219 C-280.12369141 307.26074219 -279.46369141 307.26074219 -278.78369141 307.26074219 C-278.45369141 305.94074219 -278.12369141 304.62074219 -277.78369141 303.26074219 C-277.12369141 303.26074219 -276.46369141 303.26074219 -275.78369141 303.26074219 C-275.56970703 302.60332031 -275.35572266 301.94589844 -275.13525391 301.26855469 C-273.29867839 297.18137795 -270.77520736 293.75885811 -268.15869141 290.13574219 C-267.35661255 289.01111572 -267.35661255 289.01111572 -266.53833008 287.86376953 C-262.81682327 282.65623079 -259.04225308 277.48854931 -255.20947266 272.36230469 C-253.62164093 270.22613857 -253.62164093 270.22613857 -252.78369141 267.26074219 C-252.12369141 267.26074219 -251.46369141 267.26074219 -250.78369141 267.26074219 C-250.53619141 266.74511719 -250.28869141 266.22949219 -250.03369141 265.69824219 C-248.69641351 263.09055028 -247.26515644 260.54591792 -245.79541016 258.01074219 C-244.89814328 256.458713 -244.02648299 254.89194236 -243.15869141 253.32324219 C-242.70494141 252.64261719 -242.25119141 251.96199219 -241.78369141 251.26074219 C-241.12369141 251.26074219 -240.46369141 251.26074219 -239.78369141 251.26074219 C-239.49494141 250.49761719 -239.20619141 249.73449219 -238.90869141 248.94824219 C-237.78369141 246.26074219 -237.78369141 246.26074219 -235.78369141 243.26074219 C-235.12369141 243.26074219 -234.46369141 243.26074219 -233.78369141 243.26074219 C-233.78369141 242.27074219 -233.78369141 241.28074219 -233.78369141 240.26074219 C-233.12369141 240.26074219 -232.46369141 240.26074219 -231.78369141 240.26074219 C-231.41244141 239.20693359 -231.41244141 239.20693359 -231.03369141 238.13183594 C-229.61369682 234.87028587 -227.83589819 232.22931358 -225.78369141 229.32324219 C-225.39431396 228.76838135 -225.00493652 228.21352051 -224.60375977 227.6418457 C-222.43526536 224.56016513 -220.23846024 221.49904437 -218.03759766 218.44042969 C-217.58835937 217.81515381 -217.13912109 217.18987793 -216.67626953 216.5456543 C-215.80709448 215.33841354 -214.9348247 214.13339326 -214.05908203 212.9309082 C-212.04035791 210.13559494 -210.19449336 207.41384601 -208.78369141 204.26074219 C-208.12369141 204.26074219 -207.46369141 204.26074219 -206.78369141 204.26074219 C-206.54392578 203.55691406 -206.30416016 202.85308594 -206.05712891 202.12792969 C-204.57328525 198.78700564 -202.65906942 196.26413267 -200.40869141 193.38574219 C-196.7568266 188.66514482 -196.7568266 188.66514482 -193.65869141 183.57324219 C-191.53059992 179.81361389 -188.99890737 176.61642427 -186.27197266 173.27636719 C-184.60268128 171.23291099 -184.60268128 171.23291099 -183.78369141 168.26074219 C-183.12369141 168.26074219 -182.46369141 168.26074219 -181.78369141 168.26074219 C-181.54521484 167.5659375 -181.30673828 166.87113281 -181.06103516 166.15527344 C-179.55893333 162.75142801 -177.54695553 159.92001797 -175.34619141 156.94824219 C-174.45167021 155.7187124 -173.55849576 154.48820194 -172.66650391 153.25683594 C-172.19889648 152.61214355 -171.73128906 151.96745117 -171.24951172 151.30322266 C-168.69170319 147.739161 -166.20532278 144.12637386 -163.72119141 140.51074219 C-163.00588257 139.47373169 -163.00588257 139.47373169 -162.27612305 138.41577148 C-159.86228928 134.93967649 -159.86228928 134.93967649 -157.78369141 131.26074219 C-157.12369141 131.26074219 -156.46369141 131.26074219 -155.78369141 131.26074219 C-155.53361328 130.55433594 -155.28353516 129.84792969 -155.02587891 129.12011719 C-153.63786967 125.92507707 -151.92053734 123.35533021 -149.90869141 120.51074219 C-149.52229492 119.96071533 -149.13589844 119.41068848 -148.73779297 118.84399414 C-147.42544571 116.97882189 -146.10528301 115.11937468 -144.78369141 113.26074219 C-143.22390999 111.06387404 -141.66478938 108.86654897 -140.10742188 106.66796875 C-139.08558689 105.22668365 -138.06131094 103.78712489 -137.03417969 102.34960938 C-134.11516207 98.2412171 -131.40566381 94.08049135 -128.87060547 89.72290039 C-128.51192383 89.24038818 -128.15324219 88.75787598 -127.78369141 88.26074219 C-127.12369141 88.26074219 -126.46369141 88.26074219 -125.78369141 88.26074219 C-125.60580078 87.37539795 -125.60580078 87.37539795 -125.42431641 86.47216797 C-124.75931542 84.17659674 -123.94315158 82.79084814 -122.53369141 80.87792969 C-122.09025391 80.26820312 -121.64681641 79.65847656 -121.18994141 79.03027344 C-120.72587891 78.40507813 -120.26181641 77.77988281 -119.78369141 77.13574219 C-116.52740599 72.85926599 -116.52740599 72.85926599 -113.78369141 68.26074219 C-113.12369141 68.26074219 -112.46369141 68.26074219 -111.78369141 68.26074219 C-111.69087891 67.70644531 -111.59806641 67.15214844 -111.50244141 66.58105469 C-110.59184515 63.64141242 -109.0926973 61.61941832 -107.28369141 59.13574219 C-104.83886798 55.81604765 -104.83886798 55.81604765 -102.78369141 52.26074219 C-102.12369141 52.26074219 -101.46369141 52.26074219 -100.78369141 52.26074219 C-100.45369141 50.94074219 -100.12369141 49.62074219 -99.78369141 48.26074219 C-99.12369141 48.26074219 -98.46369141 48.26074219 -97.78369141 48.26074219 C-97.41244141 47.45636719 -97.41244141 47.45636719 -97.03369141 46.63574219 C-93.59486941 40.10198039 -89.42731709 35.87294663 -83.78369141 31.26074219 C-82.60033203 30.28234375 -82.60033203 30.28234375 -81.39306641 29.28417969 C-68.60063114 18.86518367 -55.33063291 10.22282721 -39.65869141 4.88574219 C-38.96775391 4.64718506 -38.27681641 4.40862793 -37.56494141 4.1628418 C-25.25022999 0.20433733 -12.8054292 -0.06017371 0 0 Z " fill="#0B6FB5" transform="translate(304.78369140625,-0.2607421875)"/>
<path d="M0 0 C1.20599854 0.00563965 2.41199707 0.0112793 3.65454102 0.01708984 C36.83581609 0.45508354 36.83581609 0.45508354 50.45703125 8.0078125 C52.61937485 9.20552852 54.40024419 9.85141614 56.8125 10.3125 C56.8125 10.9725 56.8125 11.6325 56.8125 12.3125 C57.36035156 12.41949219 57.90820312 12.52648437 58.47265625 12.63671875 C75.51472102 17.55871742 91.04033901 35.63636035 99.625 50.4375 C100.84064455 53.38063943 100.91256927 55.18401854 100.8125 58.3125 C99.64332031 58.85519531 98.47414063 59.39789063 97.26953125 59.95703125 C95.72128763 60.67954494 94.17311424 61.40220913 92.625 62.125 C91.85607422 62.48142578 91.08714844 62.83785156 90.29492188 63.20507812 C87.14480261 64.67873907 84.09432818 66.14176931 81.1171875 67.9453125 C77.68436236 69.98173419 74.0067233 71.07791055 70.23828125 72.34765625 C67.68213675 73.17905907 67.68213675 73.17905907 65.8125 75.3125 C65.131875 75.4775 64.45125 75.6425 63.75 75.8125 C63.110625 75.9775 62.47125 76.1425 61.8125 76.3125 C61.4825 76.9725 61.1525 77.6325 60.8125 78.3125 C59.0703125 79.05078125 59.0703125 79.05078125 56.9375 79.625 C56.23882813 79.82738281 55.54015625 80.02976562 54.8203125 80.23828125 C52.8125 80.3125 52.8125 80.3125 51.21875 79.1171875 C49.71713094 77.1901097 48.45255095 75.21492335 47.1875 73.125 C41.51786779 64.45795625 33.63993769 58.37138925 23.8125 55.1875 C22.801875 54.85492188 21.79125 54.52234375 20.75 54.1796875 C9.23415946 50.78006436 -3.90386334 51.11353567 -15.1875 55.3125 C-16.86326632 56.29717509 -18.53011601 57.29718917 -20.1875 58.3125 C-21.01121094 58.61542969 -21.83492187 58.91835937 -22.68359375 59.23046875 C-25.77130513 60.56478396 -27.77804813 62.35172123 -30.25 64.625 C-31.08660156 65.38425781 -31.92320313 66.14351563 -32.78515625 66.92578125 C-37.12797368 71.24035271 -40.02718497 75.58032208 -42.75 81.0625 C-43.32878906 82.21234375 -43.90757813 83.3621875 -44.50390625 84.546875 C-48.36558181 92.93780004 -49.7142783 100.10564508 -49.625 109.375 C-49.61742676 110.47537598 -49.60985352 111.57575195 -49.60205078 112.70947266 C-49.21508603 131.99274556 -42.77746412 147.54525153 -29.14453125 161.38671875 C-23.21113573 166.86105079 -16.88536081 169.2702104 -9.1875 171.3125 C-9.1875 171.9725 -9.1875 172.6325 -9.1875 173.3125 C1.0425 173.3125 11.2725 173.3125 21.8125 173.3125 C21.8125 172.6525 21.8125 171.9925 21.8125 171.3125 C22.905625 170.961875 23.99875 170.61125 25.125 170.25 C34.3433369 166.74604956 41.60426348 161.71236927 46.8125 153.3125 C47.2971875 152.55839844 47.781875 151.80429687 48.28125 151.02734375 C49.48231279 149.13566986 50.65819452 147.23293743 51.8125 145.3125 C57.91578086 146.90466022 62.59471652 148.68273758 67.8125 152.3125 C69.63320913 152.97457605 71.45509823 153.63375294 73.28515625 154.26953125 C76.71786148 155.68611904 79.93421443 157.46974781 83.1875 159.25 C88.91899903 162.38120241 94.65041514 165.10864848 100.8125 167.3125 C99.67091878 176.47201048 94.1656244 185.63406502 87.8125 192.3125 C87.1525 192.3125 86.4925 192.3125 85.8125 192.3125 C85.45671875 193.16714844 85.45671875 193.16714844 85.09375 194.0390625 C81.03124672 201.24752869 72.94491365 206.1807192 65.84375 210.0234375 C63.52753332 211.30087218 63.52753332 211.30087218 61.8125 214.3125 C58.9765625 215.55859375 58.9765625 215.55859375 55.4375 216.75 C54.81552734 216.96100342 54.19355469 217.17200684 53.55273438 217.3894043 C52.26862999 217.82391622 50.9831264 218.25431402 49.69628906 218.68066406 C47.93293716 219.27210454 46.18077123 219.89660614 44.4296875 220.5234375 C43.40101563 220.88695312 42.37234375 221.25046875 41.3125 221.625 C40.3946875 221.95113281 39.476875 222.27726563 38.53125 222.61328125 C35.53166075 223.38472734 32.89707864 223.43497592 29.8125 223.3125 C29.8125 223.9725 29.8125 224.6325 29.8125 225.3125 C23.12974959 226.60358832 16.48837224 226.49853212 9.71240234 226.49780273 C7.47863857 226.49996027 5.24539345 226.51806254 3.01171875 226.53710938 C-6.86682718 226.57438227 -16.41994483 225.77374215 -26.1875 224.3125 C-26.1875 223.6525 -26.1875 222.9925 -26.1875 222.3125 C-26.991875 222.23 -27.79625 222.1475 -28.625 222.0625 C-32.29084435 221.29074329 -35.18033566 220.0637349 -38.55078125 218.484375 C-42.67299613 216.6522795 -46.92555815 215.17425699 -51.171875 213.65625 C-54.3277762 212.24999351 -56.5608213 210.53368799 -59.1875 208.3125 C-60.074375 207.879375 -60.96125 207.44625 -61.875 207 C-71.02622443 202.33805548 -77.20564846 196.58984467 -83.1875 188.3125 C-84.01086341 187.21290068 -84.83512507 186.11397354 -85.66015625 185.015625 C-100.03886806 165.64283234 -100.03886806 165.64283234 -101.1875 154.3125 C-101.8475 154.3125 -102.5075 154.3125 -103.1875 154.3125 C-105.5865987 148.54151738 -106.83333759 143.39914478 -107.375 137.1875 C-107.45395508 136.32495605 -107.53291016 135.46241211 -107.61425781 134.57373047 C-108.77965044 120.55118152 -108.54460458 106.57627238 -107.375 92.5625 C-107.30506836 91.68223145 -107.23513672 90.80196289 -107.16308594 89.89501953 C-106.57711726 83.75869022 -105.15073604 78.14994876 -103.1875 72.3125 C-102.5275 72.3125 -101.8675 72.3125 -101.1875 72.3125 C-101.105 71.301875 -101.0225 70.29125 -100.9375 69.25 C-100.4380542 65.70393479 -99.11947306 63.10942099 -97.21875 60.0546875 C-96.00541545 58.10229715 -96.00541545 58.10229715 -94.8125 54.9375 C-87.85693401 39.4212374 -74.00453074 27.01065479 -60.375 17.3125 C-59.54766357 16.71465698 -59.54766357 16.71465698 -58.70361328 16.10473633 C-55.47471076 13.87271923 -54.25654211 13.3125 -50.1875 13.3125 C-50.1875 12.6525 -50.1875 11.9925 -50.1875 11.3125 C-49.22070312 10.99796875 -48.25390625 10.6834375 -47.2578125 10.359375 C-45.94246736 9.92781709 -44.62738111 9.49546966 -43.3125 9.0625 C-42.28129028 8.72351685 -42.28129028 8.72351685 -41.22924805 8.37768555 C-37.40916687 7.10581639 -33.69657036 5.72825883 -30 4.125 C-20.44877882 0.22970329 -10.18966651 -0.0505404 0 0 Z " fill="#FBFDFE" transform="translate(1346.1875,183.6875)"/>
<path d="M0 0 C1.10775284 -0.00412399 2.21550568 -0.00824799 3.35682678 -0.01249695 C4.56739243 -0.00171112 5.77795807 0.00907471 7.02520752 0.02018738 C8.94266029 0.01953026 8.94266029 0.01953026 10.89884949 0.01885986 C14.40069374 0.01799926 17.9022296 0.03563527 21.40400219 0.05658174 C25.06485111 0.07533782 28.72570713 0.07709813 32.38659668 0.08065796 C39.31743644 0.08998159 46.24813421 0.1145996 53.17891145 0.14470643 C61.07000693 0.1782406 68.9611092 0.19473396 76.85225821 0.20979273 C93.0834937 0.24114893 109.31458639 0.29391553 125.54571533 0.36076355 C125.66974793 6.21395726 125.76025894 12.06637822 125.82037354 17.920578 C125.84544517 19.90997146 125.87951155 21.89927345 125.9229126 23.88835144 C125.98388922 26.75568763 126.01199856 29.62180126 126.03399658 32.4896698 C126.05980301 33.37223953 126.08560944 34.25480927 126.11219788 35.16412354 C126.11492646 41.23566089 124.87029365 45.00707928 120.54571533 49.36076355 C117.15569079 51.93169845 113.73230782 51.60255998 109.57403564 51.58781433 C108.88094803 51.58810638 108.18786041 51.58839844 107.47377014 51.58869934 C105.19033141 51.58730963 102.90722184 51.57176561 100.62384033 51.55607605 C99.03772154 51.55234464 97.45160044 51.54949827 95.86547852 51.54750061 C91.6963054 51.53987423 87.52727223 51.52023433 83.3581543 51.49809265 C78.35296012 51.4740103 73.34771908 51.4648485 68.34248352 51.45318604 C60.74346354 51.4338093 53.14475046 51.39547995 45.54571533 51.36076355 C45.54571533 67.20076355 45.54571533 83.04076355 45.54571533 99.36076355 C68.97571533 99.36076355 92.40571533 99.36076355 116.54571533 99.36076355 C116.58696533 105.85763855 116.62821533 112.35451355 116.67071533 119.04826355 C116.68892334 121.09102478 116.70713135 123.13378601 116.72589111 125.2384491 C116.73173504 126.86645749 116.73683084 128.49446882 116.74102783 130.1224823 C116.75125977 130.96057434 116.7614917 131.79866638 116.77203369 132.66215515 C116.77354832 137.74751576 116.70180803 142.11842714 112.98321533 145.98576355 C112.50884033 146.43951355 112.03446533 146.89326355 111.54571533 147.36076355 C111.21571533 148.35076355 110.88571533 149.34076355 110.54571533 150.36076355 C89.09571533 150.36076355 67.64571533 150.36076355 45.54571533 150.36076355 C45.78288488 170.77933437 45.78288488 170.77933437 46.08624268 191.19694519 C46.10377201 193.76325483 46.11905998 196.32958119 46.13165283 198.8959198 C46.15517319 199.88488503 46.15517319 199.88488503 46.1791687 200.89382935 C46.45503689 213.11427202 46.45503689 213.11427202 42.82159424 217.63981628 C39.83618934 220.63962709 36.37456524 222.17638241 32.16014099 222.60127258 C31.3362941 222.59683136 30.5124472 222.59239014 29.66363525 222.58781433 C28.25273872 222.58758774 28.25273872 222.58758774 26.81333923 222.58735657 C25.81107803 222.577034 24.80881683 222.56671143 23.77618408 222.55607605 C22.74004471 222.55324615 21.70390533 222.55041626 20.6363678 222.54750061 C17.33519827 222.53632809 14.03430252 222.5112286 10.73321533 222.48576355 C8.4916828 222.47572998 6.250146 222.46660478 4.00860596 222.4584198 C-1.47911727 222.43639833 -6.9666814 222.40294976 -12.45428467 222.36076355 C-12.52432185 194.54500102 -12.57724691 166.72925167 -12.60972118 138.91341877 C-12.62519937 125.99845751 -12.64630712 113.083551 -12.68060303 100.16862488 C-12.71047619 88.9138357 -12.72985274 77.65908615 -12.73655015 66.40425843 C-12.74046593 60.44323616 -12.74968841 54.4823273 -12.77147484 48.52134132 C-12.791807 42.91292217 -12.79812505 37.30466337 -12.79360771 31.69621086 C-12.79443437 29.63584141 -12.80041939 27.57546671 -12.81190109 25.51512909 C-12.82679391 22.7053225 -12.82324992 19.89612393 -12.81504822 17.08630371 C-12.82378674 16.26820498 -12.83252527 15.45010625 -12.84152859 14.60721666 C-12.80510503 10.00086165 -12.37489519 6.9825115 -9.45428467 3.36076355 C-6.37701882 0.37790992 -4.22974724 -0.01215445 0 0 Z " fill="#FDFDFE" transform="translate(251.45428466796875,185.6392364501953)"/>
<path d="M0 0 C48 0 48 0 54 4 C57.08708142 7.87963442 57.37212681 10.86142902 57.36076355 15.75141907 C57.36332682 16.41722667 57.3658901 17.08303428 57.36853105 17.76901788 C57.37345924 19.99250117 57.35699284 22.21530033 57.34057617 24.4387207 C57.33972969 26.03549687 57.34020546 27.6322742 57.34190369 29.22904968 C57.34276423 33.55929647 57.32512889 37.88929383 57.30418181 42.21948266 C57.28542491 46.7465032 57.28366535 51.27352949 57.28010559 55.80058289 C57.27078223 64.37113559 57.24616449 72.94157346 57.21605712 81.5120756 C57.17625141 93.09484062 57.16006059 104.67763705 57.14255047 116.26045322 C57.11434362 134.50705483 57.05457603 152.7534141 57 171 C83.4 171 109.8 171 137 171 C137 185.19 137 199.38 137 214 C136.34 214 135.68 214 135 214 C134.731875 214.61875 134.46375 215.2375 134.1875 215.875 C133 218 133 218 130 220 C116.07544196 221.99831368 101.52189734 221.12859743 87.5 221.09765625 C85.25260442 221.09618251 83.00520849 221.09516447 80.7578125 221.09460449 C72.50520303 221.08940161 64.25260096 221.0754405 56 221.0625 C37.52 221.041875 19.04 221.02125 0 221 C0 148.07 0 75.14 0 0 Z " fill="#FCFDFE" transform="translate(757,186)"/>
<path d="M0 0 C1.10775284 -0.00412399 2.21550568 -0.00824799 3.35682678 -0.01249695 C4.56739243 -0.00171112 5.77795807 0.00907471 7.02520752 0.02018738 C8.94266029 0.01953026 8.94266029 0.01953026 10.89884949 0.01885986 C14.40069374 0.01799926 17.9022296 0.03563527 21.40400219 0.05658174 C25.06485111 0.07533782 28.72570713 0.07709813 32.38659668 0.08065796 C39.31743644 0.08998159 46.24813421 0.1145996 53.17891145 0.14470643 C61.07000693 0.1782406 68.9611092 0.19473396 76.85225821 0.20979273 C93.0835068 0.24114896 109.31455982 0.2961649 125.54571533 0.36076355 C125.54571533 14.22076355 125.54571533 28.08076355 125.54571533 42.36076355 C125.21571533 42.36076355 124.88571533 42.36076355 124.54571533 42.36076355 C124.54571533 28.83076355 124.54571533 15.30076355 124.54571533 1.36076355 C107.79506645 1.3784711 91.04489723 1.4167733 74.29442978 1.49285412 C66.51699432 1.5275161 58.73973632 1.5528612 50.96221924 1.55632019 C44.18377367 1.55935844 37.40564404 1.57982968 30.62732053 1.62128812 C27.0377218 1.64263306 23.44857239 1.65521143 19.85890961 1.64691734 C15.8527005 1.6379873 11.84769385 1.66797562 7.84161377 1.70133972 C6.6497496 1.69271408 5.45788544 1.68408844 4.22990417 1.67520142 C-2.07698774 1.55955364 -2.07698774 1.55955364 -7.09777832 4.90197754 C-7.54542542 5.71337692 -7.99307251 6.52477631 -8.45428467 7.36076355 C-9.11428467 7.36076355 -9.77428467 7.36076355 -10.45428467 7.36076355 C-10.45428467 77.65076355 -10.45428467 147.94076355 -10.45428467 220.36076355 C5.38571533 220.36076355 21.22571533 220.36076355 37.54571533 220.36076355 C34.34526057 222.49440006 33.55942097 222.60748583 29.89068604 222.58781433 C28.47956291 222.58758774 28.47956291 222.58758774 27.03993225 222.58735657 C26.02734848 222.577034 25.01476471 222.56671143 23.97149658 222.55607605 C22.41304268 222.55183121 22.41304268 222.55183121 20.82310486 222.54750061 C17.50135836 222.53629637 14.17988048 222.51119119 10.85821533 222.48576355 C8.60756818 222.47573407 6.35691681 222.46660817 4.10626221 222.4584198 C-1.41401189 222.43635625 -6.93412909 222.40287626 -12.45428467 222.36076355 C-12.52432185 194.54500102 -12.57724691 166.72925167 -12.60972118 138.91341877 C-12.62519937 125.99845751 -12.64630712 113.083551 -12.68060303 100.16862488 C-12.71047619 88.9138357 -12.72985274 77.65908615 -12.73655015 66.40425843 C-12.74046593 60.44323616 -12.74968841 54.4823273 -12.77147484 48.52134132 C-12.791807 42.91292217 -12.79812505 37.30466337 -12.79360771 31.69621086 C-12.79443437 29.63584141 -12.80041939 27.57546671 -12.81190109 25.51512909 C-12.82679391 22.7053225 -12.82324992 19.89612393 -12.81504822 17.08630371 C-12.82378674 16.26820498 -12.83252527 15.45010625 -12.84152859 14.60721666 C-12.80510503 10.00086165 -12.37489519 6.9825115 -9.45428467 3.36076355 C-6.37701882 0.37790992 -4.22974724 -0.01215445 0 0 Z " fill="#C6DEF4" transform="translate(251.45428466796875,185.6392364501953)"/>
<path d="M0 0 C0.99 0.495 0.99 0.495 2 1 C2 52.81 2 104.62 2 158 C28.4 158 54.8 158 82 158 C82 172.52 82 187.04 82 202 C81.34 202 80.68 202 80 202 C80 188.14 80 174.28 80 160 C53.6 160 27.2 160 0 160 C0 107.2 0 54.4 0 0 Z " fill="#4684BB" transform="translate(814,197)"/>
<path d="M0 0 C0.33 0 0.66 0 1 0 C1 72.93 1 145.86 1 221 C28.72 220.7834375 28.72 220.7834375 57 220.5625 C62.8059375 220.51939697 68.611875 220.47629395 74.59375 220.43188477 C79.85986811 220.38856818 79.85986811 220.38856818 85.12597656 220.34410095 C87.44692756 220.32505009 89.76789285 220.30768949 92.08886719 220.29173279 C108.2213762 220.19997175 108.2213762 220.19997175 124.34375 219.66772461 C125.53162109 219.61257187 126.71949219 219.55741913 127.94335938 219.50059509 C131.25521157 218.95820325 133.26929742 217.91080801 136 216 C135.04273538 218.77606739 134.11646789 219.91851589 131.69100952 221.61543274 C126.31058226 223.63373245 121.26941891 223.39283145 115.56884766 223.34057617 C114.29936468 223.34093778 113.02988171 223.34129938 111.72192955 223.34167194 C108.29942874 223.34234701 104.87724496 223.32500664 101.45481873 223.30384064 C98.23901253 223.28670881 95.02321943 223.28594873 91.80737305 223.28381348 C82.41320699 223.2680947 73.01909945 223.22621101 63.625 223.1875 C42.62875 223.125625 21.6325 223.06375 0 223 C0 149.41 0 75.82 0 0 Z " fill="#7CA6D2" transform="translate(756,186)"/>
<path d="M0 0 C21.45 0 42.9 0 65 0 C60.73897844 3.19576617 60.1139002 3.365925 55.12988281 3.2487793 C53.35849945 3.21840828 53.35849945 3.21840828 51.55133057 3.18742371 C50.28142273 3.15006607 49.01151489 3.11270844 47.703125 3.07421875 C46.39921814 3.04777786 45.09531128 3.02133698 43.75189209 2.99409485 C40.29257437 2.92377313 36.83396649 2.83503575 33.37518311 2.74243164 C29.8428146 2.65112713 26.31008662 2.57711095 22.77734375 2.50195312 C15.85089497 2.35332562 8.92602498 2.17590578 2 2 C2 21.14 2 40.28 2 60 C1.34 60 0.68 60 0 60 C0 40.2 0 20.4 0 0 Z " fill="#357BB7" transform="translate(297,336)"/>
<path d="M0 0 C1.10775284 -0.00412399 2.21550568 -0.00824799 3.35682678 -0.01249695 C4.56739243 -0.00171112 5.77795807 0.00907471 7.02520752 0.02018738 C8.94266029 0.01953026 8.94266029 0.01953026 10.89884949 0.01885986 C14.40069374 0.01799926 17.9022296 0.03563527 21.40400219 0.05658174 C25.06485111 0.07533782 28.72570713 0.07709813 32.38659668 0.08065796 C39.31743644 0.08998159 46.24813421 0.1145996 53.17891145 0.14470643 C61.07000693 0.1782406 68.9611092 0.19473396 76.85225821 0.20979273 C93.0835068 0.24114896 109.31455982 0.2961649 125.54571533 0.36076355 C125.54571533 14.22076355 125.54571533 28.08076355 125.54571533 42.36076355 C125.21571533 42.36076355 124.88571533 42.36076355 124.54571533 42.36076355 C124.54571533 28.83076355 124.54571533 15.30076355 124.54571533 1.36076355 C107.79506645 1.3784711 91.04489723 1.4167733 74.29442978 1.49285412 C66.51699432 1.5275161 58.73973632 1.5528612 50.96221924 1.55632019 C44.18377367 1.55935844 37.40564404 1.57982968 30.62732053 1.62128812 C27.0377218 1.64263306 23.44857239 1.65521143 19.85890961 1.64691734 C15.8527005 1.6379873 11.84769385 1.66797562 7.84161377 1.70133972 C6.6497496 1.69271408 5.45788544 1.68408844 4.22990417 1.67520142 C-2.03646911 1.55444509 -2.03646911 1.55444509 -7.03527832 4.83947754 C-7.50355042 5.67150192 -7.97182251 6.50352631 -8.45428467 7.36076355 C-9.44428467 7.69076355 -10.43428467 8.02076355 -11.45428467 8.36076355 C-9.42018827 2.08896632 -6.57797437 -0.01890223 0 0 Z " fill="#BED4F0" transform="translate(251.45428466796875,185.6392364501953)"/>
<path d="M0 0 C0.495 1.485 0.495 1.485 1 3 C-2.08137364 5.70453246 -3.96407249 6.3714843 -8.04394531 6.34057617 C-9.04468079 6.34034958 -10.04541626 6.34012299 -11.07647705 6.33988953 C-12.68604279 6.31666374 -12.68604279 6.31666374 -14.328125 6.29296875 C-15.43226746 6.28872391 -16.53640991 6.28447906 -17.67401123 6.28010559 C-21.19958916 6.26331668 -24.72459491 6.22566309 -28.25 6.1875 C-30.64061674 6.17245348 -33.03124245 6.15876502 -35.421875 6.14648438 C-41.28144513 6.11341243 -47.14068169 6.06321046 -53 6 C-53 5.34 -53 4.68 -53 4 C-52.42450409 3.99413376 -51.84900818 3.98826752 -51.256073 3.98222351 C-45.25340288 3.91817164 -39.25126305 3.83372168 -33.24902344 3.73754883 C-31.01048789 3.70434334 -28.77186951 3.67629784 -26.53320312 3.65356445 C-23.31083961 3.61993855 -20.08923226 3.56761728 -16.8671875 3.51171875 C-15.37153763 3.50213387 -15.37153763 3.50213387 -13.84567261 3.49235535 C-8.47533244 3.37933157 -4.6736245 2.9562912 0 0 Z " fill="#357FBC" transform="translate(292,404)"/>
<path d="M0 0 C1.125 3.75 1.125 3.75 0 6 C-0.31255647 8.85207778 -0.51037482 11.70496854 -0.71875 14.56640625 C-1 17 -1 17 -2 18 C-2.15582303 19.34015221 -2.25044142 20.68758903 -2.31640625 22.03515625 C-2.37924805 23.24848633 -2.37924805 23.24848633 -2.44335938 24.48632812 C-2.48267578 25.33646484 -2.52199219 26.18660156 -2.5625 27.0625 C-2.60568359 27.91650391 -2.64886719 28.77050781 -2.69335938 29.65039062 C-2.79976702 31.76672037 -2.90041731 33.88333813 -3 36 C-3.33 36 -3.66 36 -4 36 C-4.08802152 32.0209757 -4.14073233 28.04220612 -4.1875 24.0625 C-4.21263672 22.94552734 -4.23777344 21.82855469 -4.26367188 20.67773438 C-4.3308653 13.04008194 -3.42527796 6.85055591 0 0 Z " fill="#72A6D2" transform="translate(1300,270)"/>
<path d="M0 0 C0 0.99 0 1.98 0 3 C-2.53184488 5.35723489 -3.47190093 6 -7 6 C-7.28875 6.78375 -7.5775 7.5675 -7.875 8.375 C-9 11 -9 11 -11 13 C-11.99 13 -12.98 13 -14 13 C-14 13.99 -14 14.98 -14 16 C-14.66 16 -15.32 16 -16 16 C-14.58184043 11.57024313 -12.40976659 9.00552534 -9.125 5.75 C-8.26132813 4.87859375 -7.39765625 4.0071875 -6.5078125 3.109375 C-4.17189953 1.14458839 -2.97187561 0.35938961 0 0 Z " fill="#347CB7" transform="translate(1322,244)"/>
<path d="M0 0 C0.73605469 0.00451172 1.47210937 0.00902344 2.23046875 0.01367188 C4.02868158 0.02534858 5.82685197 0.04327989 7.625 0.0625 C7.625 0.3925 7.625 0.7225 7.625 1.0625 C0.58594956 2.00104006 -6.27772572 2.17058032 -13.375 2.0625 C-13.375 2.7225 -13.375 3.3825 -13.375 4.0625 C-17.20489106 5.86480168 -20.15621808 6.25872241 -24.375 6.0625 C-23.375 4.0625 -23.375 4.0625 -21.51953125 3.24609375 C-20.74996094 2.99988281 -19.98039062 2.75367188 -19.1875 2.5 C-18.43082031 2.25121094 -17.67414063 2.00242188 -16.89453125 1.74609375 C-11.20988251 0.20374719 -5.84372404 -0.06868753 0 0 Z " fill="#76A4D0" transform="translate(1351.375,234.9375)"/>
<path d="M0 0 C1.8871875 -0.02126953 1.8871875 -0.02126953 3.8125 -0.04296875 C7 0.1875 7 0.1875 9 2.1875 C2.97403427 3.2587828 -2.88909517 3.28695415 -9 3.1875 C-9 2.5275 -9 1.8675 -9 1.1875 C-6.02958551 -0.29770725 -3.30235553 0.0169178 0 0 Z " fill="#2275B5" transform="translate(1357,235.8125)"/>
<path d="M0 0 C0.99 0.495 0.99 0.495 2 1 C2 3.64 2 6.28 2 9 C2.66 9 3.32 9 4 9 C4 10.98 4 12.96 4 15 C4.66 15.33 5.32 15.66 6 16 C5.34 17.32 4.68 18.64 4 20 C-0.59225513 6.3667426 -0.59225513 6.3667426 0 0 Z " fill="#4083BA" transform="translate(1297,304)"/>
<path d="M0 0 C0.66 0.33 1.32 0.66 2 1 C0.51014431 4.79235994 -1.58658047 6.80565887 -5 9 C-6.32 8.67 -7.64 8.34 -9 8 C-6.03 5.36 -3.06 2.72 0 0 Z " fill="#2B7AB6" transform="translate(1429,380)"/>
<path d="M0 0 C0.33 0.99 0.66 1.98 1 3 C-1.67031284 5.67733998 -3.03721441 6.00280229 -6.890625 6.29296875 C-8.34404009 6.27314945 -9.79731167 6.23754845 -11.25 6.1875 C-11.99507813 6.17396484 -12.74015625 6.16042969 -13.5078125 6.14648438 C-15.33885416 6.11127204 -17.16952169 6.05746851 -19 6 C-19 5.67 -19 5.34 -19 5 C-14.71 5 -10.42 5 -6 5 C-6 4.34 -6 3.68 -6 3 C-4.02 2.01 -2.04 1.02 0 0 Z " fill="#2B78B5" transform="translate(292,404)"/>
<path d="M0 0 C4.0997419 -0.28019819 6.61813024 0.49382195 10.25 2.375 C11.55710937 3.03628906 11.55710937 3.03628906 12.890625 3.7109375 C15 5 15 5 16 7 C14.5608866 6.71640113 13.12374482 6.42278601 11.6875 6.125 C10.88699219 5.96257812 10.08648438 5.80015625 9.26171875 5.6328125 C7 5 7 5 4 3 C4 2.34 4 1.68 4 1 C2.68 0.67 1.36 0.34 0 0 Z " fill="#2C78B4" transform="translate(1366,238)"/>
<path d="M0 0 C0.99 0 1.98 0 3 0 C3.3125 2.1875 3.3125 2.1875 3 5 C0.5 7.8125 0.5 7.8125 -2 10 C-1.85950482 8.52031676 -1.71245174 7.04125484 -1.5625 5.5625 C-1.48128906 4.73878906 -1.40007813 3.91507813 -1.31640625 3.06640625 C-1 1 -1 1 0 0 Z " fill="#0F67A6" transform="translate(609,182)"/>
<path d="M0 0 C0.68359375 1.734375 0.68359375 1.734375 1 4 C-0.21484375 6.140625 -0.21484375 6.140625 -1.9375 8.25 C-2.50339844 8.95640625 -3.06929687 9.6628125 -3.65234375 10.390625 C-4.31943359 11.18726563 -4.31943359 11.18726563 -5 12 C-5.33 10.68 -5.66 9.36 -6 8 C-5.34 8 -4.68 8 -4 8 C-4 7.34 -4 6.68 -4 6 C-3.34 6 -2.68 6 -2 6 C-2 5.01 -2 4.02 -2 3 C-1.34 3 -0.68 3 0 3 C0 2.01 0 1.02 0 0 Z " fill="#2775B0" transform="translate(1393,333)"/>
<path d="M0 0 C4.84659077 0.59104765 8.60748167 1.97944157 13 4 C13 4.33 13 4.66 13 5 C10.36 5 7.72 5 5 5 C5 4.01 5 3.02 5 2 C3.35 1.67 1.7 1.34 0 1 C0 0.67 0 0.34 0 0 Z " fill="#77A9D4" transform="translate(1299,399)"/>
<path d="M0 0 C1.32 0 2.64 0 4 0 C4 2.31 4 4.62 4 7 C3.34 7 2.68 7 2 7 C2 7.66 2 8.32 2 9 C1.34 9 0.68 9 0 9 C0.66 6.36 1.32 3.72 2 1 C1.34 0.67 0.68 0.34 0 0 Z " fill="#4C90C2" transform="translate(1445,350)"/>
<path d="M0 0 C0.99 0 1.98 0 3 0 C2.34 1.32 1.68 2.64 1 4 C0.01 4 -0.98 4 -2 4 C-2 4.99 -2 5.98 -2 7 C-2.66 7 -3.32 7 -4 7 C-2.92598892 4.08482708 -2.22189824 2.22189824 0 0 Z " fill="#488BC0" transform="translate(1310,253)"/>
<path d="M0 0 C1 2 1 2 0.3125 4.5625 C-1 7 -1 7 -3.125 7.8125 C-3.74375 7.874375 -4.3625 7.93625 -5 8 C-3.62845496 5.04590299 -2.01136276 2.55991624 0 0 Z " fill="#4B8CC0" transform="translate(1441,365)"/>
<path d="M0 0 C0.66 0 1.32 0 2 0 C2 1.98 2 3.96 2 6 C0.02 6 -1.96 6 -4 6 C-3.67 5.34 -3.34 4.68 -3 4 C-2.01 4 -1.02 4 0 4 C0 2.68 0 1.36 0 0 Z " fill="#5191C6" transform="translate(1447,238)"/>
<path d="M0 0 C-0.639375 0.309375 -1.27875 0.61875 -1.9375 0.9375 C-3.93610821 1.8345163 -3.93610821 1.8345163 -5 3 C-6.99958364 3.04080783 -9.00045254 3.04254356 -11 3 C-8.89427904 -1.21144191 -4.11694326 -0.07767817 0 0 Z " fill="#478ABE" transform="translate(1338,238)"/>
<path d="M0 0 C4 1 4 1 7 3 C6.67 4.32 6.34 5.64 6 7 C4.02 4.69 2.04 2.38 0 0 Z " fill="#3D82B9" transform="translate(1426,210)"/>
<path d="M0 0 C6.52307692 0.61538462 6.52307692 0.61538462 8.9375 2.5625 C9.288125 3.036875 9.63875 3.51125 10 4 C9.01 4.495 9.01 4.495 8 5 C6.0546875 4.22265625 6.0546875 4.22265625 3.875 3.0625 C3.15054687 2.68222656 2.42609375 2.30195313 1.6796875 1.91015625 C1.12539062 1.60980469 0.57109375 1.30945313 0 1 C0 0.67 0 0.34 0 0 Z " fill="#518EC1" transform="translate(1403,195)"/>
<path d="M0 0 C0.66 0.33 1.32 0.66 2 1 C2 1.66 2 2.32 2 3 C0.1875 4.6875 0.1875 4.6875 -2 6 C-2.99 5.67 -3.98 5.34 -5 5 C-3.35 3.35 -1.7 1.7 0 0 Z " fill="#3881B8" transform="translate(1429,380)"/>
<path d="M0 0 C3.3 0.99 6.6 1.98 10 3 C5.99998285 4.00000429 3.94476647 3.80688405 0 3 C0 2.01 0 1.02 0 0 Z " fill="#91B9DD" transform="translate(1327,352)"/>
<path d="M0 0 C2.97 0 5.94 0 9 0 C9 0.66 9 1.32 9 2 C9.66 2.33 10.32 2.66 11 3 C7.31733897 2.40049704 3.65456815 1.75241109 0 1 C0 0.67 0 0.34 0 0 Z " fill="#C0D8F0" transform="translate(1359,235)"/>
</svg>
