<?xml version="1.0" encoding="UTF-8"?>
<svg version="1.1" xmlns="http://www.w3.org/2000/svg" width="842" height="595">
<path d="M0 0 C1.06740866 0.94140391 2.13266615 1.88525499 3.1953125 2.83203125 C5.83158429 5.25439562 5.83158429 5.25439562 8.875 7.1875 C9.143125 6.465625 9.41125 5.74375 9.6875 5 C12.97229537 -2.77977852 17.37785266 -8.28724573 24.95703125 -12.0703125 C33.96026207 -14.36029089 40.79033115 -12.15213445 49 -8.3125 C49.95648438 -7.88324219 50.91296875 -7.45398438 51.8984375 -7.01171875 C54.23199012 -5.96162007 56.55648139 -4.89528595 58.875 -3.8125 C57.49686932 0.32189203 55.07882483 1.0303242 51.39453125 3.1015625 C43.78554873 9.40109222 41.25426499 18.22321852 38.5 27.375 C33.38636062 43.39895579 26.81777392 55.36263781 14.875 67.1875 C14.09511719 67.98929687 13.31523437 68.79109375 12.51171875 69.6171875 C-3.40768875 85.08175478 -24.11771031 91.36274927 -45.875 91.375 C-47.56882812 91.39336914 -47.56882812 91.39336914 -49.296875 91.41210938 C-55.96150098 91.42367991 -62.75266812 91.3808751 -69.125 89.1875 C-69.455 88.5275 -69.785 87.8675 -70.125 87.1875 C-69.33738281 86.90777344 -68.54976563 86.62804687 -67.73828125 86.33984375 C-53.67835263 81.88362497 -53.67835263 81.88362497 -43.125 73.1875 C-43.75664062 73.17332031 -44.38828125 73.15914063 -45.0390625 73.14453125 C-66.25765054 72.01328088 -84.31851162 59.55846687 -98.78515625 44.86328125 C-102.46710248 40.65270835 -105.34587794 36.02795763 -108.125 31.1875 C-103.47185203 24.75520721 -97.83639781 21.18264163 -91.171875 17.10546875 C-88.15035404 15.36066776 -88.15035404 15.36066776 -86.125 13.1875 C-86.59679687 12.33091797 -86.59679687 12.33091797 -87.078125 11.45703125 C-90.65395757 4.68233642 -93.50275556 -2.30171892 -95.125 -9.8125 C-94.125 -12.8125 -94.125 -12.8125 -91.5 -14.12890625 C-60.24214428 -25.66971178 -25.92335363 -22.31478781 0 0 Z " fill="#EFB27F" transform="translate(444.125,198.8125)"/>
<path d="M0 0 C1.43472656 0.64388672 1.43472656 0.64388672 2.8984375 1.30078125 C5.23199012 2.35087993 7.55648139 3.41721405 9.875 4.5 C8.49686932 8.63439203 6.07882483 9.3428242 2.39453125 11.4140625 C-5.21445127 17.71359222 -7.74573501 26.53571852 -10.5 35.6875 C-15.61363938 51.71145579 -22.18222608 63.67513781 -34.125 75.5 C-34.90488281 76.30179687 -35.68476563 77.10359375 -36.48828125 77.9296875 C-52.40768875 93.39425478 -73.11771031 99.67524927 -94.875 99.6875 C-96.56882812 99.70586914 -96.56882812 99.70586914 -98.296875 99.72460938 C-104.96150098 99.73617991 -111.75266812 99.6933751 -118.125 97.5 C-118.455 96.84 -118.785 96.18 -119.125 95.5 C-118.33738281 95.22027344 -117.54976563 94.94054687 -116.73828125 94.65234375 C-105.28273558 90.43616067 -94.62225836 85.26450222 -85.125 77.5 C-84.135 76.7575 -83.145 76.015 -82.125 75.25 C-73.54464141 67.88883446 -67.7757462 57.57036161 -61.78955078 48.12109375 C-59.94082012 45.20998017 -58.07879681 42.3076395 -56.21484375 39.40625 C-48.55193872 27.51512515 -48.55193872 27.51512515 -41.0546875 15.51953125 C-40.37998413 14.42137085 -40.37998413 14.42137085 -39.69165039 13.30102539 C-38.89017306 11.99029713 -38.09448987 10.67599665 -37.30639648 9.35717773 C-27.86283759 -6.0957224 -15.44946126 -7.22566095 0 0 Z " fill="#B08152" transform="translate(493.125,190.5)"/>
<path d="M0 0 C21.99335382 -0.65165493 43.46637311 6.68638557 60.3515625 20.84375 C60.90457031 21.3073291 61.45757812 21.7709082 62.02734375 22.24853516 C67.50790504 27.03197731 67.50790504 27.03197731 68.1640625 30.15625 C66.828125 32.953125 66.828125 32.953125 64.7890625 35.90625 C64.12132812 36.89109375 63.45359375 37.8759375 62.765625 38.890625 C62.23710937 39.63828125 61.70859375 40.3859375 61.1640625 41.15625 C60.09929687 40.62515625 59.03453125 40.0940625 57.9375 39.546875 C35.99014842 28.79305398 12.13591067 23.77794169 -11.8359375 31.15625 C-14.76815284 32.23539245 -17.66413471 33.3401956 -20.53125 34.58203125 C-22.8359375 35.15625 -22.8359375 35.15625 -24.9453125 34.703125 C-27.76756306 32.39401091 -28.73315283 29.42220384 -29.9609375 26.09375 C-30.21955566 25.42142334 -30.47817383 24.74909668 -30.74462891 24.05639648 C-32.58476028 19.15467738 -33.92990584 14.32063049 -34.8359375 9.15625 C-24.17940862 3.06680493 -12.14183074 0.66897139 0 0 Z " fill="#EE9B60" transform="translate(383.8359375,177.84375)"/>
<path d="M0 0 C0.95648438 0.42925781 1.91296875 0.85851562 2.8984375 1.30078125 C5.23199012 2.35087993 7.55648139 3.41721405 9.875 4.5 C8.49686932 8.63439203 6.07882483 9.3428242 2.39453125 11.4140625 C-5.27365436 17.76260687 -7.88283646 26.7796052 -10.6875 36 C-13.14950418 44.00701896 -15.65344038 51.37530725 -20.125 58.5 C-20.455 58.5 -20.785 58.5 -21.125 58.5 C-21.3209375 57.675 -21.516875 56.85 -21.71875 56 C-25.20949648 42.51849635 -30.81115259 30.50240354 -39.8515625 19.83203125 C-41.125 17.5 -41.125 17.5 -40.53125 15.04296875 C-40.0671875 14.20378906 -39.603125 13.36460937 -39.125 12.5 C-38.64804687 11.6028125 -38.17109375 10.705625 -37.6796875 9.78125 C-28.26014415 -5.81576132 -15.90200346 -7.43731342 0 0 Z " fill="#818181" transform="translate(493.125,190.5)"/>
<path d="M0 0 C1.01964844 -0.01675781 2.03929687 -0.03351563 3.08984375 -0.05078125 C6.43120105 0.35755808 8.32590652 1.40242831 11.0625 3.3125 C11.3925 2.3225 11.7225 1.3325 12.0625 0.3125 C15.3625 0.3125 18.6625 0.3125 22.0625 0.3125 C22.16195752 5.43532759 22.23424409 10.55758354 22.28222656 15.68115234 C22.30224522 17.42116089 22.32946886 19.16110299 22.36425781 20.90087891 C22.41320952 23.41325346 22.43556587 25.92473275 22.453125 28.4375 C22.47377014 29.20553955 22.49441528 29.9735791 22.51568604 30.76489258 C22.51796062 36.33731323 21.259377 40.69484484 18.0625 45.3125 C10.68233936 51.1865054 3.08725852 51.008799 -5.9375 50.3125 C-9.48318143 49.32471284 -12.68451848 48.02701261 -15.9375 46.3125 C-14.0625 40.5625 -14.0625 40.5625 -12.9375 38.3125 C-12.40382813 38.5290625 -11.87015625 38.745625 -11.3203125 38.96875 C-5.57590345 41.11544958 -0.06623425 42.46564164 6.0625 41.3125 C9.27613964 39.2686316 9.27613964 39.2686316 11.0625 36.3125 C11.0625 34.9925 11.0625 33.6725 11.0625 32.3125 C10.485 32.786875 9.9075 33.26125 9.3125 33.75 C5.11631812 36.66401519 1.11105183 36.73321265 -3.9375 36.3125 C-9.17969831 34.50957572 -12.97203833 32.10286115 -15.9375 27.3125 C-18.44682465 21.5410533 -18.71214326 16.67720048 -16.75 10.6875 C-12.81466309 3.35963126 -8.23211338 0.03114293 0 0 Z M-6.9375 12.3125 C-8.48774464 15.41298928 -8.22742015 17.89144218 -7.9375 21.3125 C-6.14187595 24.06579021 -4.88495078 25.83877461 -1.9375 27.3125 C2.69695803 27.7759458 5.72852401 28.0380771 9.5 25.125 C12.64457555 21.70665523 12.64457555 21.70665523 13.0625 17.3125 C11.52304236 13.26129569 10.03033624 10.24279871 6.0625 8.3125 C0.18331876 7.65925764 -2.64845965 7.89348873 -6.9375 12.3125 Z " fill="#EF9B60" transform="translate(515.9375,325.6875)"/>
<path d="M0 0 C0 6.7740648 -7.6433766 12.84553867 -12.0625 17.5 C-21.17762155 26.41533807 -31.89929677 32.90622975 -44 37 C-45.11890625 37.391875 -46.2378125 37.78375 -47.390625 38.1875 C-61.95633115 42.57549516 -81.39923884 43.91338263 -96 39 C-96.33 38.34 -96.66 37.68 -97 37 C-96.21238281 36.72027344 -95.42476563 36.44054687 -94.61328125 36.15234375 C-81.41993702 31.62585627 -81.41993702 31.62585627 -70 24 C-67.12269742 23.83713382 -64.25460544 23.72118031 -61.375 23.625 C-38.94457612 22.62407361 -16.28983156 16.18865248 0 0 Z " fill="#818281" transform="translate(471,249)"/>
<path d="M0 0 C5.24341284 3.96453166 9.19226229 8.36035899 10.5625 14.9375 C11.07553575 20.47828609 10.38382109 25.14125414 7.5625 29.9375 C3.3505163 34.77558938 -0.96517399 38.04476538 -7.4375 38.9375 C-14.53616114 39.11234387 -20.01877858 37.63038806 -25.4375 32.9375 C-30.50148069 26.44521706 -31.06979329 20.95038042 -30.4375 12.9375 C-28.41287107 7.18329147 -24.81741235 3.66293645 -19.9375 0.125 C-13.49068657 -2.0623117 -6.49629479 -2.00794566 0 0 Z M-19.1875 11.8125 C-20.69324613 14.37226842 -21.2986714 15.95268516 -21.4375 18.9375 C-19.8341416 24.01480159 -18.12685287 27.27309496 -13.4375 29.9375 C-10.03068457 30.49497889 -7.71436698 30.71161846 -4.69140625 28.87890625 C-2.49591951 27.10461601 -0.70939003 25.48128006 0.5625 22.9375 C0.96021327 18.16494077 1.03703429 15.85267328 -1.1875 11.5625 C-4.00637667 8.27381055 -5.62160369 7.17030722 -9.875 6.625 C-13.92599262 7.11902349 -16.43397417 8.86229376 -19.1875 11.8125 Z " fill="#EF9B60" transform="translate(427.4375,327.0625)"/>
<path d="M0 0 C4.71216147 3.5628538 9.16167162 8.05402081 10.5625 13.9375 C11.36784329 20.46833077 10.4201477 25.54813925 6.5625 30.9375 C2.54525665 35.42209591 -1.38635513 38.014444 -7.4375 38.9375 C-14.53213064 39.12358867 -20.0241922 37.6256996 -25.4375 32.9375 C-30.23655876 26.78486057 -31.23065065 21.56307701 -30.4375 13.9375 C-28.62990467 7.74158587 -24.73926583 3.49251235 -19.4375 -0.0625 C-13.34297543 -2.09400819 -6.10455149 -1.88686137 0 0 Z M-19.25 11.5625 C-21.12337786 15.30925571 -21.21652557 18.84407475 -20.4375 22.9375 C-18.71845248 26.00631816 -16.63035833 28.34107084 -13.4375 29.9375 C-8.87843956 30.46713135 -8.87843956 30.46713135 -4.6796875 28.890625 C-2.50123176 27.10155507 -0.70792188 25.47834375 0.5625 22.9375 C0.96021327 18.16494077 1.03703429 15.85267328 -1.1875 11.5625 C-4.00637667 8.27381055 -5.62160369 7.17030722 -9.875 6.625 C-13.86884086 7.11205376 -16.30382523 8.92110193 -19.25 11.5625 Z " fill="#6E6F71" transform="translate(333.4375,327.0625)"/>
<path d="M0 0 C1.175625 -0.01675781 2.35125 -0.03351563 3.5625 -0.05078125 C7.46906804 0.36207196 9.72244948 1.15022709 13 3.3125 C16.61335541 7.79557021 17.48839341 10.74148527 17.390625 16.4609375 C17.38496521 17.11832916 17.37930542 17.77572083 17.37347412 18.45303345 C17.35126275 20.53196191 17.3011042 22.60910163 17.25 24.6875 C17.22991489 26.10544368 17.21166765 27.52341465 17.1953125 28.94140625 C17.15145067 32.39900877 17.08253437 35.85557951 17 39.3125 C14.03 39.3125 11.06 39.3125 8 39.3125 C8 38.3225 8 37.3325 8 36.3125 C7.319375 36.786875 6.63875 37.26125 5.9375 37.75 C0.6314383 40.57237324 -4.44132924 40.84650122 -10.1328125 39.15234375 C-13.48194243 37.64593594 -15.53958699 35.60347678 -17 32.3125 C-17.88155019 27.43666933 -17.75841476 23.66079291 -15.3125 19.3125 C-10.77815279 15.39090241 -6.69604736 15.05680293 -0.8125 15.125 C1.03408203 15.13466797 1.03408203 15.13466797 2.91796875 15.14453125 C6 15.3125 6 15.3125 8 16.3125 C7.08632697 13.23091857 7.08632697 13.23091857 5 10.3125 C-1.05765163 8.64142369 -6.03195238 9.64089407 -12 11.3125 C-13.17271259 8.82910864 -14 6.89182125 -14 4.125 C-13 2.3125 -13 2.3125 -10.375 1.21875 C-6.7844899 0.25463155 -3.71318091 0.01221441 0 0 Z M-5.0625 22.4375 C-7.15559157 24.20735238 -7.15559157 24.20735238 -8 26.8125 C-8.19142622 29.28250989 -8.19142622 29.28250989 -7.0625 31.125 C-3.80643807 32.99970233 -0.60225562 32.93623687 3 32.3125 C6.08874323 30.87598718 6.08874323 30.87598718 8 28.3125 C8.41809201 25.14401973 8.41809201 25.14401973 8 22.3125 C1.38906371 21.17971202 1.38906371 21.17971202 -5.0625 22.4375 Z " fill="#EF9B60" transform="translate(632,325.6875)"/>
<path d="M0 0 C3.3 0 6.6 0 10 0 C10.33 0.99 10.66 1.98 11 3 C11.598125 2.505 12.19625 2.01 12.8125 1.5 C17.52372404 -0.71704661 21.8820519 -0.80296253 27 0 C30.39176927 1.62885362 32.425209 3.86629553 34.14013672 7.2487793 C35.17719832 10.56696418 35.22593299 13.35660602 35.1953125 16.83203125 C35.18886719 18.12431641 35.18242187 19.41660156 35.17578125 20.74804688 C35.15907327 22.1028673 35.14214342 23.45768501 35.125 24.8125 C35.11496003 26.18684251 35.10583596 27.56119203 35.09765625 28.93554688 C35.07411242 32.29054317 35.04122567 35.64518199 35 39 C31.7 39 28.4 39 25 39 C24.98018066 38.22809326 24.96036133 37.45618652 24.93994141 36.66088867 C24.84478857 33.16941042 24.73506953 29.67853848 24.625 26.1875 C24.5940625 24.97255859 24.563125 23.75761719 24.53125 22.50585938 C24.49257813 21.34248047 24.45390625 20.17910156 24.4140625 18.98046875 C24.3826416 17.90692139 24.3512207 16.83337402 24.31884766 15.72729492 C24.18407693 12.7839235 24.18407693 12.7839235 22 10 C19.67975596 8.98546047 19.67975596 8.98546047 17 9 C13.28738773 10.75113525 13.28738773 10.75113525 11 14 C10.84655791 15.88472859 10.75040429 17.77427874 10.68359375 19.6640625 C10.64169922 20.78554688 10.59980469 21.90703125 10.55664062 23.0625 C10.49766602 24.8259375 10.49766602 24.8259375 10.4375 26.625 C10.39431641 27.80835938 10.35113281 28.99171875 10.30664062 30.2109375 C10.20032574 33.14050328 10.09829358 36.07015588 10 39 C6.7 39 3.4 39 0 39 C0 26.13 0 13.26 0 0 Z " fill="#6E6F71" transform="translate(353,326)"/>
<path d="M0 0 C2.97 0 5.94 0 9 0 C9.01458252 0.70084717 9.02916504 1.40169434 9.04418945 2.1237793 C9.11885487 5.31223009 9.21545475 8.49965513 9.3125 11.6875 C9.33505859 12.79029297 9.35761719 13.89308594 9.38085938 15.02929688 C9.41630859 16.09599609 9.45175781 17.16269531 9.48828125 18.26171875 C9.51446533 19.24100342 9.54064941 20.22028809 9.56762695 21.22924805 C10.07055864 24.45215699 11.07895368 26.38086617 13 29 C15.34872531 30.16977494 15.34872531 30.16977494 18 30 C20.78508316 28.86250805 20.78508316 28.86250805 23 27 C24.01587978 23.95236066 24.19804406 21.65281033 24.31640625 18.45703125 C24.35830078 17.38388672 24.40019531 16.31074219 24.44335938 15.20507812 C24.48267578 14.08552734 24.52199219 12.96597656 24.5625 11.8125 C24.60568359 10.68134766 24.64886719 9.55019531 24.69335938 8.38476562 C24.79949099 5.58996646 24.90154385 2.79507838 25 0 C27.97 0 30.94 0 34 0 C34 12.87 34 25.74 34 39 C31.03 39 28.06 39 25 39 C24.67 38.01 24.34 37.02 24 36 C23.29875 36.474375 22.5975 36.94875 21.875 37.4375 C16.70101712 40.24944722 12.39636997 40.35802106 6.83203125 38.8046875 C3.29574556 37.25143621 1.66480524 34.32961047 0 31 C-0.08586809 28.67583704 -0.10711043 26.34916693 -0.09765625 24.0234375 C-0.09553383 22.99556625 -0.09553383 22.99556625 -0.09336853 21.94692993 C-0.08776675 19.75624239 -0.07521406 17.5656567 -0.0625 15.375 C-0.05748522 13.89062648 -0.05292228 12.40625135 -0.04882812 10.921875 C-0.03779677 7.28121685 -0.02053099 3.64061836 0 0 Z " fill="#6E6F71" transform="translate(200,326)"/>
<path d="M0 0 C2.97 0 5.94 0 9 0 C9.33 0.99 9.66 1.98 10 3 C10.598125 2.505 11.19625 2.01 11.8125 1.5 C16.51515699 -0.71301505 20.88621469 -0.55450684 26 0 C29.61836777 1.35688791 30.62431568 2.37559109 32.60668945 5.67041016 C34.18468658 9.44134494 34.34518981 12.07519453 34.29296875 16.1484375 C34.28872391 16.80582916 34.28447906 17.46322083 34.28010559 18.14053345 C34.26344977 20.21912391 34.2258262 22.29670774 34.1875 24.375 C34.17243605 25.79295464 34.15875065 27.21092464 34.14648438 28.62890625 C34.11359038 32.0862589 34.06190165 35.54303103 34 39 C31.03 39 28.06 39 25 39 C24.98018066 38.36497559 24.96036133 37.72995117 24.93994141 37.07568359 C24.84418878 34.17506674 24.73471454 31.27512095 24.625 28.375 C24.5940625 27.37597656 24.563125 26.37695312 24.53125 25.34765625 C24.27135689 17.9702395 24.27135689 17.9702395 22 11 C19.25 9.25 19.25 9.25 16 9 C13.05549106 10.30867064 11.45298569 11.09402863 10 14 C9.84655791 15.88472859 9.75040429 17.77427874 9.68359375 19.6640625 C9.64169922 20.78554688 9.59980469 21.90703125 9.55664062 23.0625 C9.49766602 24.8259375 9.49766602 24.8259375 9.4375 26.625 C9.39431641 27.80835938 9.35113281 28.99171875 9.30664062 30.2109375 C9.20032574 33.14050328 9.09829358 36.07015588 9 39 C6.03 39 3.06 39 0 39 C0 26.13 0 13.26 0 0 Z " fill="#EF9B60" transform="translate(572,326)"/>
<path d="M0 0 C2.18359375 1.10546875 2.18359375 1.10546875 5.43359375 3.10546875 C4.44359375 5.41546875 3.45359375 7.72546875 2.43359375 10.10546875 C-2.31640625 9.23046875 -2.31640625 9.23046875 -4.56640625 8.10546875 C-5.93983456 8.03652155 -7.31642727 8.02079167 -8.69140625 8.04296875 C-9.97015625 8.06359375 -11.24890625 8.08421875 -12.56640625 8.10546875 C-12.55666086 10.05335665 -12.55666086 10.05335665 -11.56640625 12.10546875 C-8.70183379 13.55384678 -8.70183379 13.55384678 -5.25390625 14.60546875 C-0.74140861 16.10121265 2.54854682 17.20995853 5.43359375 21.10546875 C6.23934753 24.83416385 6.0947254 28.35535227 5.43359375 32.10546875 C3.23199635 35.00230743 1.64764913 36.49844106 -1.56640625 38.10546875 C-9.83158426 38.76711686 -16.6013714 38.88539462 -23.56640625 34.10546875 C-24.06140625 32.62046875 -24.06140625 32.62046875 -24.56640625 31.10546875 C-23.12890625 28.41796875 -23.12890625 28.41796875 -21.56640625 26.10546875 C-20.35984375 26.53859375 -20.35984375 26.53859375 -19.12890625 26.98046875 C-16.38400691 27.84727907 -13.66137812 28.6859786 -10.87890625 29.41796875 C-10.13253906 29.62035156 -9.38617188 29.82273437 -8.6171875 30.03125 C-6.44865575 30.33669024 -6.44865575 30.33669024 -4.796875 28.6484375 C-4.39082031 28.13925781 -3.98476563 27.63007813 -3.56640625 27.10546875 C-4.45660956 24.75464491 -4.45660956 24.75464491 -7.5859375 23.9921875 C-10.10523991 23.19566243 -12.62607132 22.40395664 -15.1484375 21.6171875 C-18.93056585 19.94440616 -20.43445414 18.61321262 -22.56640625 15.10546875 C-23.51506032 11.34356469 -23.41928484 7.67124967 -21.54296875 4.2265625 C-16.4180767 -2.21837751 -7.4942181 -2.61213995 0 0 Z " fill="#6E6F71" transform="translate(267.56640625,326.89453125)"/>
<path d="M0 0 C1.18851563 0.00902344 2.37703125 0.01804687 3.6015625 0.02734375 C4.51679688 0.03894531 5.43203125 0.05054688 6.375 0.0625 C6.375 3.0325 6.375 6.0025 6.375 9.0625 C3.735 9.0625 1.095 9.0625 -1.625 9.0625 C-2.285 11.0425 -2.945 13.0225 -3.625 15.0625 C-0.325 15.0625 2.975 15.0625 6.375 15.0625 C6.375 17.7025 6.375 20.3425 6.375 23.0625 C3.075 23.0625 -0.225 23.0625 -3.625 23.0625 C-3.625 32.9625 -3.625 42.8625 -3.625 53.0625 C-6.595 53.0625 -9.565 53.0625 -12.625 53.0625 C-12.625 43.1625 -12.625 33.2625 -12.625 23.0625 C-14.275 23.0625 -15.925 23.0625 -17.625 23.0625 C-17.625 20.4225 -17.625 17.7825 -17.625 15.0625 C-15.975 15.0625 -14.325 15.0625 -12.625 15.0625 C-12.67140625 14.47082031 -12.7178125 13.87914062 -12.765625 13.26953125 C-12.95869653 9.04264382 -13.0469755 6.7376608 -10.75 3.0625 C-7.15899715 -0.31726738 -4.84863651 -0.04753565 0 0 Z " fill="#6E6F71" transform="translate(186.625,311.9375)"/>
<path d="M0 0 C3.3 0 6.6 0 10 0 C10.33 1.32 10.66 2.64 11 4 C11.680625 3.34 12.36125 2.68 13.0625 2 C16.64457375 -0.43885872 18.75519536 -0.33292585 23 0 C23 3.3 23 6.6 23 10 C20.75390625 10.5859375 18.5078125 11.171875 16.26171875 11.7578125 C12.89144735 13.60884239 12.27922023 15.38620285 11 19 C10.52749691 22.45645118 10.39950371 25.88987998 10.3125 29.375 C10.27833984 30.30183594 10.24417969 31.22867187 10.20898438 32.18359375 C10.12701493 34.45531844 10.06181849 36.72763767 10 39 C6.7 39 3.4 39 0 39 C0 26.13 0 13.26 0 0 Z " fill="#EF9B60" transform="translate(447,326)"/>
<path d="M0 0 C3.3 0 6.6 0 10 0 C10 17.49 10 34.98 10 53 C6.7 53 3.4 53 0 53 C0 35.51 0 18.02 0 0 Z " fill="#EF9B60" transform="translate(661,312)"/>
<path d="M0 0 C3.3 0 6.6 0 10 0 C10 12.87 10 25.74 10 39 C6.7 39 3.4 39 0 39 C0 26.13 0 13.26 0 0 Z " fill="#EF9B60" transform="translate(550,326)"/>
<path d="M0 0 C0.680625 0.07863281 1.36125 0.15726562 2.0625 0.23828125 C4 0.6875 4 0.6875 7 2.6875 C7 2.0275 7 1.3675 7 0.6875 C8.32 0.6875 9.64 0.6875 11 0.6875 C11.08741124 4.24984428 11.14052896 7.81191108 11.1875 11.375 C11.21263672 12.38240234 11.23777344 13.38980469 11.26367188 14.42773438 C11.35691643 23.8454348 11.35691643 23.8454348 8 27.6875 C4.54916005 29.98805997 3.12824272 29.95760256 -0.9375 29.9375 C-2.49791016 29.94523437 -2.49791016 29.94523437 -4.08984375 29.953125 C-6.93098495 29.69379936 -8.58707634 29.15269702 -11 27.6875 C-10.67 26.3675 -10.34 25.0475 -10 23.6875 C-9.25234375 23.84347656 -8.5046875 23.99945313 -7.734375 24.16015625 C-6.74953125 24.35480469 -5.7646875 24.54945313 -4.75 24.75 C-3.77546875 24.94722656 -2.8009375 25.14445312 -1.796875 25.34765625 C0.868119 25.67147535 2.48871723 25.54253199 5 24.6875 C5.33 23.0375 5.66 21.3875 6 19.6875 C5.484375 20.0175 4.96875 20.3475 4.4375 20.6875 C1.10689226 22.05390318 -1.42646082 22.00096835 -5 21.6875 C-8.5386994 20.03610695 -9.81070153 18.97144771 -12 15.6875 C-12.6820176 11.91845539 -12.83098707 8.23121829 -10.984375 4.80078125 C-7.7185482 0.73817141 -5.0970497 -0.64678472 0 0 Z M-7 6.6875 C-8.33550847 9.53377591 -8.33550847 9.53377591 -8 12.6875 C-6.14658666 15.79100449 -6.14658666 15.79100449 -3 17.6875 C0.64407137 18.02410145 0.64407137 18.02410145 4 16.6875 C6.22556103 14.56204636 6.22556103 14.56204636 7 11.6875 C6.32244932 8.52559681 5.41870462 7.07919142 3.0625 4.875 C-0.96212744 2.55779026 -3.60028156 4.00351175 -7 6.6875 Z " fill="#6E6F71" transform="translate(348,393.3125)"/>
<path d="M0 0 C2.97 0 5.94 0 9 0 C9 12.87 9 25.74 9 39 C6.03 39 3.06 39 0 39 C0 26.13 0 13.26 0 0 Z " fill="#EF9B60" transform="translate(479,326)"/>
<path d="M0 0 C2.97 0 5.94 0 9 0 C9 12.87 9 25.74 9 39 C6.03 39 3.06 39 0 39 C0 26.13 0 13.26 0 0 Z " fill="#6E6F71" transform="translate(284,326)"/>
<path d="M0 0 C3 2.625 3 2.625 5 6 C5 8.31 5 10.62 5 13 C-2.92 13.495 -2.92 13.495 -11 14 C-10.01 15.32 -9.02 16.64 -8 18 C-3.79637393 18.54829905 -0.80314159 17.78971369 3 16 C3.66 16.99 4.32 17.98 5 19 C1.97393852 22.12367637 -0.22122478 23.31606564 -4.5 23.4375 C-8.39474139 23.24956739 -10.95694175 22.58198882 -14 20 C-16.71061757 15.559201 -16.79651141 11.05784748 -16 6 C-12.52994142 -0.6598432 -6.99400373 -2.19072879 0 0 Z M-9.8125 5.375 C-12.1066974 7.55853951 -12.1066974 7.55853951 -12 9 C-7.71 9 -3.42 9 1 9 C-1.34707164 4.04044689 -1.34707164 4.04044689 -4.375 2.875 C-7.27818682 2.74659586 -7.27818682 2.74659586 -9.8125 5.375 Z " fill="#6E6F71" transform="translate(469,394)"/>
<path d="M0 0 C7.21273336 2.40424445 10.94699706 12.45167291 14.25 18.9375 C17.32621245 25.10957424 19.61983144 31.21417125 21 38 C17.65451384 34.75942456 14.71205016 31.43924393 11.875 27.75 C6.98217025 21.68124646 1.06312316 15.53156158 -6 12 C-5.36934243 8.78147169 -4.21979305 6.49198931 -2.4375 3.75 C-1.98246094 3.04359375 -1.52742188 2.3371875 -1.05859375 1.609375 C-0.53458984 0.81273437 -0.53458984 0.81273437 0 0 Z " fill="#8E7050" transform="translate(451,208)"/>
<path d="M0 0 C2.39218033 2.15765285 3.82633924 3.85202084 4.31713867 7.09643555 C4.39340652 9.51394889 4.34917996 11.89594224 4.25 14.3125 C4.23195313 15.14845703 4.21390625 15.98441406 4.1953125 16.84570312 C4.14841126 18.89763228 4.07667411 20.94896756 4 23 C3.21625 22.814375 2.4325 22.62875 1.625 22.4375 C-0.97089775 21.74037734 -0.97089775 21.74037734 -3 23 C-11.64147775 23.41813602 -11.64147775 23.41813602 -15 21 C-16.52491998 17.95016004 -16.23562548 15.3576631 -16 12 C-14.16884793 9.38406847 -13.09031634 9.03010545 -10 8 C-2.94938918 7.52530541 -2.94938918 7.52530541 0 9 C-0.63979849 6.96758273 -0.63979849 6.96758273 -2 5 C-5.85214273 3.60894846 -9.05318074 4.17392155 -13 5 C-13.33 3.68 -13.66 2.36 -14 1 C-8.93663274 -0.75667844 -5.32757874 -1.5078053 0 0 Z M-10 12 C-10.66 13.65 -11.32 15.3 -12 17 C-10.06268472 19.36410488 -10.06268472 19.36410488 -6.5625 19.3125 C-3.11802311 19.28954326 -3.11802311 19.28954326 -1.0625 17.75 C0.34598542 15.77135706 0.34598542 15.77135706 0 12 C-3.3 12 -6.6 12 -10 12 Z " fill="#6E6F71" transform="translate(316,394)"/>
<path d="M0 0 C3.46143454 2.33646832 4.81181059 5.03936863 6 9 C6 10.32 6 11.64 6 13 C-2.415 13.495 -2.415 13.495 -11 14 C-8.53603689 17.87118849 -8.53603689 17.87118849 -6.25 18.9375 C-2.70935302 19.0358513 -0.17241025 17.52519723 3 16 C3.66 17.32 4.32 18.64 5 20 C1.94295868 22.68198764 0.05569345 23.39287197 -4 23.3125 C-4.845625 23.30863281 -5.69125 23.30476563 -6.5625 23.30078125 C-10.26908728 22.84339788 -12.3393001 21.77868202 -14.75 18.9375 C-16.47849393 14.87553925 -16.71124122 11.3515726 -16 7 C-12.02533766 -0.4193697 -7.98906053 -0.93076433 0 0 Z M-8.1875 3.5625 C-10.56001826 5.19973776 -10.56001826 5.19973776 -12 10 C-7.71 10 -3.42 10 1 10 C-0.4040048 5.03514308 -0.4040048 5.03514308 -3.375 3.5625 C-5.93475319 2.80969513 -5.93475319 2.80969513 -8.1875 3.5625 Z " fill="#6E6F71" transform="translate(554,394)"/>
<path d="M0 0 C2.76101146 1.82109266 4.52100548 3.04201097 6 6 C6.51512617 10.09157355 6.94367269 14.23589546 4.953125 17.95703125 C2.64852308 20.74288828 0.68567303 22.76400578 -2.953125 23.2734375 C-7.24672199 23.46329043 -10.09582964 23.4342668 -13.5 20.625 C-17.3562691 16.57591745 -17.34389054 13.90670589 -17.28125 8.48046875 C-16.87903081 4.93311892 -15.67419608 3.31281823 -13 1 C-8.77152386 -1.58406875 -4.64230276 -1.32235291 0 0 Z M-11 5 C-13.0815902 7.67633026 -12.99587591 9.11753668 -12.875 12.5625 C-12.2668512 15.95738999 -12.2668512 15.95738999 -10.375 18 C-6.88418213 19.46981805 -4.60851044 18.98413921 -1 18 C1.5881216 15.74582958 1.94242643 14.39479021 2.4375 11 C2.22899984 7.93603757 2.22899984 7.93603757 0.3125 5.6875 C-3.61206402 2.82362895 -6.91990225 2.04544645 -11 5 Z " fill="#6E6F71" transform="translate(381,394)"/>
<path d="M0 0 C2.20361432 1.8231697 2.91976203 3.26991053 3.23168945 6.1081543 C3.29587096 8.66237382 3.26106138 11.19609963 3.1875 13.75 C3.16719727 15.08224609 3.16719727 15.08224609 3.14648438 16.44140625 C3.11121309 18.62822578 3.06192752 20.81379966 3 23 C1.68 23 0.36 23 -1 23 C-1.03738281 21.87980469 -1.07476562 20.75960938 -1.11328125 19.60546875 C-1.17894257 18.1327791 -1.24538986 16.66012434 -1.3125 15.1875 C-1.33505859 14.44951172 -1.35761719 13.71152344 -1.38085938 12.95117188 C-1.57667632 8.71797302 -1.57667632 8.71797302 -3.37890625 4.97265625 C-5.063186 3.74401676 -5.063186 3.74401676 -7.625 4.25 C-9.9312407 4.77745645 -9.9312407 4.77745645 -11 6 C-11.23701239 8.85877909 -11.42219182 11.69883297 -11.5625 14.5625 C-11.60568359 15.36880859 -11.64886719 16.17511719 -11.69335938 17.00585938 C-11.79975262 19.00368805 -11.90040888 21.0018207 -12 23 C-13.65 23 -15.3 23 -17 23 C-17 15.41 -17 7.82 -17 0 C-14.69 0 -12.38 0 -10 0 C-6.82503506 -1.58748247 -3.30053472 -1.07839253 0 0 Z " fill="#6E6F71" transform="translate(409,394)"/>
<path d="M0 0 C2.05938216 1.57885966 2.84571211 2.69142423 4 5 C4.08308638 6.37548156 4.10736016 7.75485796 4.09765625 9.1328125 C4.09443359 9.93847656 4.09121094 10.74414062 4.08789062 11.57421875 C4.07951172 12.41597656 4.07113281 13.25773437 4.0625 14.125 C4.05798828 14.97449219 4.05347656 15.82398438 4.04882812 16.69921875 C4.03702874 18.79950909 4.01909306 20.8997633 4 23 C2.68 23 1.36 23 0 23 C-0.06058594 21.95199219 -0.12117188 20.90398437 -0.18359375 19.82421875 C-0.26801738 18.44529952 -0.35266447 17.06639395 -0.4375 15.6875 C-0.49647461 14.65206055 -0.49647461 14.65206055 -0.55664062 13.59570312 C-0.74927415 10.52838465 -1.02322717 7.93031848 -2 5 C-4.29294488 4.14025199 -4.29294488 4.14025199 -7 4 C-9.29039594 5.45354496 -9.29039594 5.45354496 -11 8 C-11.4490016 10.70552245 -11.69369634 13.04230591 -11.75 15.75 C-11.77964844 16.44738281 -11.80929687 17.14476562 -11.83984375 17.86328125 C-11.91018458 19.57490813 -11.95739946 21.28745815 -12 23 C-13.32 23 -14.64 23 -16 23 C-16 15.41 -16 7.82 -16 0 C-13.525 0.495 -13.525 0.495 -11 1 C-10.38125 0.67 -9.7625 0.34 -9.125 0 C-5.85856863 -1.53714418 -3.43571027 -0.81207697 0 0 Z " fill="#6E6F71" transform="translate(495,394)"/>
<path d="M0 0 C-0.33 1.32 -0.66 2.64 -1 4 C-3.97 3.67 -6.94 3.34 -10 3 C-10.33 3.99 -10.66 4.98 -11 6 C-10.30132812 6.21914063 -9.60265625 6.43828125 -8.8828125 6.6640625 C-1.46314496 9.24938575 -1.46314496 9.24938575 0.8125 12.9375 C1.04066546 16.6642025 0.308893 18.11388375 -2 21 C-5.18441952 22.59220976 -8.5337155 22.3976617 -12 22 C-15 20.5 -15 20.5 -17 19 C-16.34 17.68 -15.68 16.36 -15 15 C-14.46375 15.33 -13.9275 15.66 -13.375 16 C-10.4608939 17.22699204 -8.13132292 17.14233286 -5 17 C-5 16.01 -5 15.02 -5 14 C-5.62648438 13.73445313 -6.25296875 13.46890625 -6.8984375 13.1953125 C-7.71570313 12.84210938 -8.53296875 12.48890625 -9.375 12.125 C-10.18710937 11.77695312 -10.99921875 11.42890625 -11.8359375 11.0703125 C-14 10 -14 10 -16 8 C-16.5565371 2.76855124 -16.5565371 2.76855124 -14.6875 0.1875 C-9.99545408 -3.11431009 -5.11426007 -1.70475336 0 0 Z " fill="#6E6F71" transform="translate(296,395)"/>
<path d="M0 0 C1.16015625 0.10054688 1.16015625 0.10054688 2.34375 0.203125 C4.86784958 0.84329518 5.84858624 1.78100667 7.5 3.75 C6.84 5.07 6.18 6.39 5.5 7.75 C4.613125 7.234375 3.72625 6.71875 2.8125 6.1875 C-0.72045555 4.65433061 -1.94953056 4.46788604 -5.5 5.75 C-7.9282022 7.74557113 -7.9282022 7.74557113 -7.8125 11.6875 C-7.7339218 14.23435809 -7.63665953 15.50704973 -6.375 17.75 C-3.61168143 19.2237699 -1.5915542 19.05915542 1.5 18.75 C4.28566059 17.83742694 4.28566059 17.83742694 6.5 16.75 C6.83 18.07 7.16 19.39 7.5 20.75 C3.91800145 23.43649891 1.00180726 24.2843345 -3.50390625 24.10546875 C-7.56926667 23.38150046 -10.4224266 21.17043766 -12.875 17.9375 C-14.10440405 13.63458583 -14.12297139 10.05527338 -12.1875 6 C-8.62111696 1.24482262 -6.12553408 -0.61255341 0 0 Z " fill="#6E6F71" transform="translate(442.5,393.25)"/>
<path d="M0 0 C1.32 0 2.64 0 4 0 C4 2.31 4 4.62 4 7 C6.31 7 8.62 7 11 7 C11 8.32 11 9.64 11 11 C8.69 11 6.38 11 4 11 C4.33 15.29 4.66 19.58 5 24 C6.65 24.33 8.3 24.66 10 25 C10.5625 26.9375 10.5625 26.9375 11 29 C10 30 10 30 6.625 30.25 C3 30 3 30 1.28515625 28.99609375 C-0.75871851 25.82156487 -0.3115892 22.45563173 -0.1875 18.8125 C-0.16719727 17.68811523 -0.16719727 17.68811523 -0.14648438 16.54101562 C-0.11118539 14.69370233 -0.05737917 12.84675934 0 11 C-0.99 11 -1.98 11 -3 11 C-3 9.68 -3 8.36 -3 7 C-2.01 7 -1.02 7 0 7 C0 4.69 0 2.38 0 0 Z " fill="#6E6F71" transform="translate(506,387)"/>
<path d="M0 0 C1.32 0 2.64 0 4 0 C4.33 0.99 4.66 1.98 5 3 C5.5775 2.505 6.155 2.01 6.75 1.5 C9 0 9 0 13 0 C13 1.32 13 2.64 13 4 C12.05125 4.391875 11.1025 4.78375 10.125 5.1875 C6.48820069 7.2968436 6.19528227 8.10426519 5 12 C4.7240522 13.92903132 4.51550097 15.8689032 4.375 17.8125 C4.30023437 18.78832031 4.22546875 19.76414062 4.1484375 20.76953125 C4.09945312 21.50558594 4.05046875 22.24164063 4 23 C2.68 23 1.36 23 0 23 C0 15.41 0 7.82 0 0 Z " fill="#6E6F71" transform="translate(523,394)"/>
<path d="M0 0 C3.63 0 7.26 0 11 0 C11 3.3 11 6.6 11 10 C7.37 10 3.74 10 0 10 C0 6.7 0 3.4 0 0 Z " fill="#EF9B60" transform="translate(478,312)"/>
<path d="M0 0 C3.3 0 6.6 0 10 0 C10 3.3 10 6.6 10 10 C6.7 10 3.4 10 0 10 C0 6.7 0 3.4 0 0 Z " fill="#EF9B60" transform="translate(550,312)"/>
<path d="M0 0 C3.3 0 6.6 0 10 0 C10 3.3 10 6.6 10 10 C6.7 10 3.4 10 0 10 C0 6.7 0 3.4 0 0 Z " fill="#6E6F71" transform="translate(283,312)"/>
<path d="M0 0 C1.32 0 2.64 0 4 0 C4 7.59 4 15.18 4 23 C2.68 23 1.36 23 0 23 C0 15.41 0 7.82 0 0 Z " fill="#6E6F71" transform="translate(326,394)"/>
<path d="M0 0 C1.65 0 3.3 0 5 0 C5 1.65 5 3.3 5 5 C3.35 5 1.7 5 0 5 C0 3.35 0 1.7 0 0 Z " fill="#6E6F71" transform="translate(326,385)"/>
</svg>
