<?xml version="1.0" standalone="no"?>
<!DOCTYPE svg PUBLIC "-//W3C//DTD SVG 20010904//EN"
 "http://www.w3.org/TR/2001/REC-SVG-20010904/DTD/svg10.dtd">
<svg version="1.0" xmlns="http://www.w3.org/2000/svg"
 width="5000.000000pt" height="3632.000000pt" viewBox="0 0 5000.000000 3632.000000"
 preserveAspectRatio="xMidYMid meet">

<g transform="translate(0.000000,3632.000000) scale(0.100000,-0.100000)"
fill="#000000" stroke="none">
<path d="M24946 36205 c-170 -945 -429 -1980 -700 -2790 -285 -850 -509 -1342
-1171 -2565 -540 -997 -723 -1383 -885 -1866 -206 -612 -269 -1187 -195 -1769
108 -838 527 -1518 1215 -1971 230 -151 469 -267 935 -454 468 -188 605 -255
749 -370 l74 -59 23 26 c42 44 200 144 324 203 66 32 244 108 396 168 447 179
604 251 819 375 719 412 1197 1060 1360 1842 50 243 64 399 64 705 0 377 -29
609 -125 979 -143 556 -354 1028 -973 2176 -419 777 -656 1251 -828 1655 -333
784 -642 1803 -893 2950 -48 221 -141 686 -163 815 l-8 50 -18 -100z m152
-9155 c167 -28 332 -107 455 -221 324 -298 376 -787 122 -1144 -55 -78 -164
-182 -243 -233 -76 -49 -187 -96 -279 -118 -101 -25 -285 -23 -395 4 -517 126
-801 677 -606 1172 74 188 234 362 418 455 161 82 355 113 528 85z"/>
<path d="M21703 29322 c-402 -288 -733 -645 -983 -1062 -89 -148 -220 -421
-275 -575 -58 -161 -117 -391 -141 -550 -25 -163 -25 -529 -1 -700 144 -1006
852 -1827 2112 -2450 287 -142 482 -226 890 -384 777 -301 998 -401 1225 -552
148 -98 303 -246 377 -360 l49 -75 44 69 c93 144 262 298 460 417 203 123 424
220 1085 475 553 214 919 377 1221 545 1124 627 1741 1412 1859 2365 21 166
22 463 2 610 -75 552 -326 1100 -729 1597 -181 223 -472 491 -708 654 -89 61
-88 56 14 -55 207 -227 389 -500 541 -813 136 -281 228 -570 271 -853 27 -177
25 -519 -5 -714 -43 -284 -111 -503 -236 -756 -292 -596 -819 -1083 -1600
-1480 -307 -155 -569 -262 -1140 -462 -400 -140 -524 -188 -680 -263 -147 -71
-252 -140 -333 -218 l-61 -59 -53 54 c-149 152 -392 269 -993 478 -534 186
-813 297 -1110 444 -963 473 -1573 1111 -1808 1891 -37 120 -59 222 -84 374
-20 130 -28 477 -14 616 64 611 382 1280 852 1792 44 48 79 88 77 88 -2 0 -58
-40 -125 -88z"/>
<path d="M15605 29354 c-690 -53 -1339 -229 -1973 -535 -192 -92 -418 -214
-427 -230 -4 -5 12 -9 36 -9 65 0 280 -47 415 -91 227 -74 437 -192 636 -358
313 -262 546 -654 707 -1191 22 -74 72 -259 111 -410 399 -1544 795 -2347
1491 -3025 467 -455 1054 -785 1799 -1011 481 -147 960 -231 1620 -285 185
-15 788 -25 1050 -18 679 20 823 21 1015 10 742 -44 1335 -190 1870 -460 94
-48 217 -116 273 -151 232 -145 496 -365 647 -538 l80 -92 59 67 c245 281 584
537 954 722 494 247 991 378 1672 443 154 14 758 15 1162 2 1081 -37 2068 83
2860 346 729 243 1351 626 1780 1095 636 695 984 1441 1373 2945 84 328 166
584 244 765 215 499 544 853 985 1061 178 83 426 155 594 170 39 4 72 10 72
13 0 9 -190 112 -375 204 -491 244 -1011 414 -1532 502 -301 50 -425 59 -793
59 -369 1 -486 -8 -793 -60 -1332 -225 -2167 -969 -2637 -2350 -80 -236 -126
-399 -209 -734 -34 -135 -84 -318 -112 -405 -342 -1070 -949 -1812 -1934
-2365 -326 -183 -692 -342 -1460 -635 -525 -201 -756 -315 -1095 -540 -341
-226 -640 -523 -775 -768 l-37 -67 -48 79 c-178 297 -518 611 -930 858 -261
158 -501 271 -880 417 -799 308 -965 378 -1285 538 -232 117 -366 194 -575
333 -429 286 -734 580 -1019 980 -313 439 -526 939 -690 1615 -246 1017 -575
1691 -1065 2182 -513 516 -1153 795 -2071 904 -123 15 -669 27 -790 18z"/>
<path d="M21605 21713 c-229 -15 -545 -71 -760 -133 -817 -239 -1483 -749
-2010 -1540 -141 -212 -217 -343 -339 -589 -178 -355 -292 -648 -539 -1391
-228 -685 -359 -1029 -511 -1345 -245 -508 -509 -847 -823 -1057 -318 -213
-829 -382 -1431 -474 -62 -9 -109 -20 -105 -24 13 -11 187 -89 301 -134 555
-222 1185 -374 1832 -440 500 -52 1116 -46 1585 14 662 85 1246 257 1783 525
903 451 1609 1110 2134 1990 255 428 450 865 690 1550 117 337 194 501 329
705 190 287 432 474 744 573 192 62 265 72 501 72 l211 0 54 69 c30 38 104
119 164 180 499 502 1260 847 2070 938 162 18 512 15 670 -6 157 -21 354 -70
490 -121 362 -136 646 -372 780 -648 104 -216 128 -465 68 -705 -99 -399 -476
-714 -923 -772 -230 -29 -487 19 -679 127 -102 58 -224 170 -285 261 -276 417
-76 956 379 1026 l40 7 -55 -31 c-65 -36 -93 -66 -128 -140 -74 -155 8 -345
186 -428 51 -24 69 -27 167 -27 98 0 116 3 167 27 116 54 196 161 218 291 47
267 -182 515 -565 612 -355 90 -928 82 -1397 -19 -465 -101 -928 -301 -1288
-556 -130 -92 -132 -96 -73 -105 76 -11 300 -88 393 -135 280 -141 493 -371
674 -729 73 -144 113 -244 227 -566 405 -1147 864 -1917 1520 -2549 702 -676
1575 -1131 2560 -1335 458 -94 832 -131 1337 -131 523 -1 940 39 1419 135 514
103 1065 280 1399 448 l67 34 -119 18 c-680 100 -1240 305 -1580 579 -238 192
-475 514 -669 911 -170 346 -279 634 -545 1435 -211 634 -288 845 -407 1109
-271 605 -590 1081 -992 1481 -562 559 -1228 887 -2016 992 -227 30 -699 32
-925 5 -916 -113 -1687 -475 -2287 -1075 -117 -117 -267 -294 -319 -375 -16
-25 -32 -46 -35 -47 -4 0 -35 39 -70 88 -94 128 -224 276 -351 397 -627 597
-1451 952 -2382 1025 -118 9 -431 11 -551 3z m875 -489 c166 -19 303 -44 485
-91 727 -186 1364 -580 1755 -1087 14 -18 14 -18 -5 -8 -11 7 -63 44 -115 82
-374 274 -915 492 -1435 579 -240 40 -324 46 -650 46 -262 0 -339 -3 -427 -18
-237 -40 -406 -104 -539 -206 -84 -63 -129 -118 -171 -207 -31 -64 -33 -76
-33 -169 1 -82 5 -111 24 -160 33 -82 124 -174 203 -203 153 -57 318 -27 432
78 154 142 124 404 -56 494 -59 30 -41 34 46 11 366 -95 545 -507 386 -888
-114 -275 -384 -463 -733 -512 -87 -12 -289 -6 -375 10 -419 81 -764 387 -852
757 -93 391 5 735 289 1018 283 281 700 451 1208 490 137 11 389 3 563 -16z"/>
<path d="M27100 11254 c-988 -74 -1803 -680 -1950 -1454 -48 -250 -30 -489 55
-746 158 -477 486 -811 992 -1013 509 -202 1159 -243 1853 -115 117 22 225 46
373 85 l37 10 0 689 0 690 -370 0 -370 0 0 -422 c0 -378 -4 -473 -26 -580 -7
-33 -25 -39 -189 -64 -148 -22 -397 -22 -530 1 -266 45 -499 161 -676 335
-186 184 -299 406 -344 678 -25 150 -17 381 18 514 120 453 516 784 1072 895
142 28 492 26 642 -5 128 -26 264 -69 372 -118 41 -19 75 -33 76 -32 1 2 8 23
15 47 8 24 43 86 78 138 64 95 92 156 92 198 0 18 -15 29 -77 58 -195 91 -411
154 -636 187 -129 19 -398 32 -507 24z"/>
<path d="M12830 11244 c-160 -19 -221 -28 -328 -50 -519 -106 -971 -370 -1237
-721 -117 -156 -236 -432 -287 -667 -19 -85 -22 -133 -22 -301 -1 -184 2 -209
26 -305 46 -185 105 -318 208 -470 448 -665 1486 -1039 2445 -880 216 35 432
98 592 170 l63 29 0 675 0 676 -366 0 -365 0 2 -427 c3 -431 -5 -578 -35 -601
-16 -13 -171 -40 -306 -52 -331 -32 -680 52 -934 222 -82 55 -252 227 -305
308 -168 258 -236 595 -186 923 70 468 416 824 922 951 165 41 248 51 443 50
259 -1 479 -42 710 -132 55 -22 102 -37 104 -33 2 3 7 21 11 40 4 18 37 77 73
130 64 93 102 172 102 210 0 50 -430 192 -720 237 -100 15 -525 28 -610 18z"/>
<path d="M48725 11239 c-490 -50 -839 -266 -941 -582 -53 -164 -43 -370 26
-515 103 -218 258 -359 735 -668 309 -200 427 -291 521 -404 112 -133 158
-274 136 -416 -28 -178 -132 -287 -323 -341 -97 -27 -359 -24 -495 5 -185 40
-370 114 -491 195 l-53 36 -6 -25 c-8 -32 -71 -129 -138 -213 -29 -36 -66 -88
-81 -115 l-29 -49 31 -26 c17 -14 67 -47 110 -73 456 -276 1227 -284 1753 -18
117 59 204 122 301 220 82 81 103 110 143 190 83 170 96 325 41 515 -51 175
-138 319 -271 445 -127 121 -436 356 -724 550 -80 54 -177 126 -216 159 -86
72 -167 177 -191 246 -36 104 -13 236 53 314 48 56 105 87 205 112 114 29 299
23 443 -15 107 -28 245 -87 272 -117 10 -11 23 -19 29 -19 25 0 134 90 175
143 47 63 130 206 130 224 0 14 -122 78 -235 123 -101 40 -278 86 -405 105
-132 19 -387 27 -505 14z"/>
<path d="M5085 11229 c-293 -31 -599 -133 -843 -282 -439 -268 -732 -667 -837
-1137 -25 -113 -31 -381 -12 -505 57 -355 223 -670 502 -951 146 -147 277
-241 451 -325 554 -267 1271 -247 1859 52 474 242 789 625 902 1099 34 144 43
423 19 585 -67 452 -242 787 -544 1038 -382 318 -959 482 -1497 426z m444
-458 c334 -84 587 -341 701 -711 54 -175 64 -255 64 -480 0 -183 -3 -219 -27
-331 -136 -644 -553 -1020 -1064 -959 -408 49 -714 258 -868 593 -83 181 -118
360 -118 592 3 620 316 1126 780 1260 48 14 97 35 108 46 19 20 28 21 180 16
116 -4 183 -11 244 -26z"/>
<path d="M19200 11224 c-415 -43 -636 -109 -859 -258 -187 -125 -323 -262
-456 -461 -346 -515 -408 -1169 -161 -1690 92 -193 196 -335 366 -498 459
-440 1142 -601 1817 -426 631 162 1123 583 1297 1111 88 266 106 640 45 943
-130 647 -618 1108 -1319 1249 -235 47 -466 57 -730 30z m530 -484 c251 -62
461 -231 585 -471 275 -533 160 -1334 -250 -1744 -174 -174 -366 -255 -605
-255 -162 0 -323 42 -495 128 -122 61 -191 109 -270 189 -126 127 -219 295
-271 488 -35 131 -45 222 -45 390 1 394 137 762 374 1012 154 162 330 252 552
282 109 15 326 5 425 -19z"/>
<path d="M7600 11209 c-41 -5 -81 -11 -87 -14 -10 -3 -13 -342 -13 -1648 l0
-1644 214 -7 c207 -7 270 -5 349 15 l37 10 0 1114 c0 613 3 1115 6 1115 3 0
40 -37 83 -82 209 -223 422 -468 871 -1003 499 -595 825 -968 894 -1025 87
-72 184 -125 269 -146 83 -20 213 -16 305 11 l62 18 0 1633 0 1634 -300 0
-300 0 0 -1132 -1 -1133 -77 80 c-210 218 -412 451 -953 1100 -744 892 -798
950 -959 1034 -123 65 -254 87 -400 70z"/>
<path d="M21775 11208 c-43 -4 -85 -10 -92 -12 -11 -4 -13 -311 -13 -1649 l0
-1644 223 -7 c220 -7 260 -6 345 16 l42 11 0 1115 0 1115 26 -24 c81 -74 429
-473 864 -989 151 -179 357 -421 459 -539 102 -118 231 -266 285 -329 217
-251 328 -337 489 -379 77 -19 226 -13 307 14 l55 18 3 1633 2 1632 -305 0
-305 0 0 -1132 -1 -1133 -116 120 c-214 222 -433 477 -958 1115 -493 599 -673
804 -782 891 -166 132 -319 178 -528 157z"/>
<path d="M41710 11207 l-55 -12 -3 -1647 -2 -1648 291 0 290 0 -2 908 c-2 859
4 1125 30 1302 l6 44 109 -119 c224 -245 1104 -1269 1474 -1715 219 -264 341
-367 496 -416 68 -22 99 -26 191 -25 61 1 126 4 145 9 l35 8 3 1647 2 1647
-285 0 -285 0 -2 -1131 -3 -1131 -261 289 c-144 158 -399 440 -568 626 -488
539 -713 798 -831 955 -192 257 -319 367 -471 406 -72 19 -222 20 -304 3z"/>
<path d="M35380 11200 c-195 -4 -358 -8 -362 -9 -5 0 -8 -734 -8 -1631 l0
-1630 363 0 364 0 7 111 c3 60 4 114 1 118 -2 5 -5 199 -6 432 -1 384 5 524
27 632 l6 27 161 -2 161 -3 79 -115 c84 -123 143 -221 342 -564 151 -261 247
-409 350 -539 l76 -97 415 0 c228 0 414 2 414 5 0 12 -86 174 -147 278 -75
126 -134 216 -373 567 -170 248 -287 431 -354 552 l-37 66 75 36 c223 107 406
278 501 466 101 201 121 465 51 686 -84 264 -302 437 -669 530 -299 76 -693
99 -1437 84z m854 -405 c304 -53 490 -264 489 -555 -1 -231 -130 -438 -334
-539 -113 -56 -172 -71 -309 -78 -105 -5 -246 9 -322 33 -17 5 -18 40 -18 554
l0 548 68 16 c149 37 295 44 426 21z"/>
<path d="M45330 9560 l0 -1650 1035 0 1035 0 0 219 0 220 -577 -2 c-439 -2
-598 1 -663 11 -46 8 -88 16 -92 18 -4 3 -8 237 -8 520 l0 514 620 0 620 0 0
221 0 220 -517 -2 c-488 -3 -622 2 -705 27 -17 5 -18 35 -18 445 l0 439 635 0
635 0 0 225 0 225 -1000 0 -1000 0 0 -1650z"/>
<path d="M37942 9553 l3 -1648 1095 0 1095 0 0 215 0 215 -620 0 c-584 0 -747
6 -827 31 -17 5 -18 81 -18 1420 l0 1414 -365 0 -365 0 2 -1647z"/>
<path d="M0 9545 l0 -1645 364 0 363 0 6 43 c4 23 4 308 0 632 -5 557 -1 729
24 888 l6 38 666 -4 c472 -3 694 -7 764 -17 l97 -13 0 -783 0 -784 360 0 360
0 0 1645 0 1645 -366 0 -365 0 3 -517 c2 -391 -1 -543 -11 -618 -7 -55 -15
-103 -18 -107 -2 -5 -346 -8 -764 -8 l-759 0 0 625 0 625 -365 0 -365 0 0
-1645z"/>
<path d="M14800 9540 l0 -1650 380 0 380 0 0 814 0 815 48 -52 c534 -576 692
-759 842 -974 169 -242 232 -324 320 -417 194 -203 321 -233 772 -182 125 14
250 26 277 26 28 0 52 4 55 8 6 11 -176 215 -645 722 -441 478 -616 674 -818
915 l-148 178 442 441 c424 423 564 569 833 869 l123 137 -384 0 -384 0 -114
-117 c-63 -65 -231 -244 -374 -398 -327 -353 -478 -510 -680 -705 l-160 -155
-3 688 -2 687 -380 0 -380 0 0 -1650z"/>
<path d="M31412 10883 c-267 -547 -440 -919 -992 -2145 l-378 -838 303 0 303
0 55 123 c30 67 96 219 146 337 50 118 118 267 150 330 l58 115 658 0 657 0
73 -205 c75 -215 160 -439 227 -601 l40 -96 311 -7 c255 -6 327 -4 396 8 45 8
85 17 87 19 2 2 -68 170 -157 373 -474 1085 -849 1983 -1129 2707 l-73 187
-292 0 -292 0 -151 -307z m441 -733 c64 -157 137 -341 162 -410 82 -219 185
-504 185 -512 0 -4 -218 -8 -485 -8 -318 0 -485 3 -485 10 0 37 159 433 336
836 70 159 135 309 146 333 10 24 20 42 22 40 3 -2 56 -132 119 -289z"/>
<path d="M33670 9545 l0 -1645 365 0 365 0 0 1645 0 1645 -365 0 -365 0 0
-1645z"/>
<path d="M40330 9545 l0 -1645 365 0 365 0 0 1645 0 1645 -365 0 -365 0 0
-1645z"/>
<path d="M14700 5034 c-682 -139 -1703 -251 -2605 -285 -327 -13 -894 -7
-1118 12 -76 6 -141 8 -144 5 -9 -9 15 -120 63 -286 25 -85 48 -175 51 -199
l6 -43 726 5 c435 3 777 9 855 17 70 6 130 10 132 8 1 -2 6 -73 10 -159 6
-134 5 -159 -10 -187 l-17 -32 -1084 0 -1085 0 0 -250 0 -250 777 0 776 0 -24
-26 c-36 -39 -193 -155 -294 -219 -126 -80 -412 -220 -595 -292 -86 -34 -276
-102 -424 -152 -148 -50 -272 -93 -274 -96 -3 -3 2 -13 10 -22 24 -27 116
-183 199 -336 l74 -139 56 6 c31 3 112 26 180 50 118 43 196 65 229 66 13 0
15 -105 18 -873 4 -811 0 -1010 -24 -1284 l-7 -73 317 0 c245 0 316 3 317 13
1 6 0 42 -1 79 -2 85 14 136 47 149 14 5 505 9 1233 9 l1210 0 17 -27 c17 -25
20 -59 23 -210 0 -10 70 -13 315 -13 l315 0 0 1123 c0 618 3 1126 6 1130 3 3
35 -5 70 -19 72 -27 333 -108 380 -118 29 -7 31 -5 47 47 9 29 64 147 122 262
59 114 105 217 103 228 -3 18 -20 23 -143 44 -254 43 -564 130 -775 218 -237
99 -466 242 -602 378 l-93 92 778 3 777 2 0 250 0 250 -47 2 c-27 2 -453 3
-948 3 -842 0 -1046 5 -1245 31 l-45 5 -4 145 c-4 160 4 187 56 198 15 3 271
33 568 66 678 75 991 120 1188 171 34 9 36 12 26 31 -6 12 -31 78 -54 147 -73
219 -132 317 -209 352 -50 23 -63 22 -206 -7z m-1251 -1828 c240 -264 578
-516 866 -646 110 -50 109 -51 -35 -70 -69 -9 -209 -11 -519 -6 l-425 6 0 358
c-1 264 2 368 12 400 7 23 16 42 20 41 4 -1 40 -38 81 -83z m-755 -366 l-2
-355 -473 -2 -474 -2 28 24 c15 14 121 91 235 172 340 243 484 366 602 517
l54 69 16 -34 c13 -29 15 -89 14 -389z m1624 -1032 l-3 -173 -1255 0 -1255 0
-3 155 -2 155 487 2 c269 2 668 9 888 17 220 7 568 14 773 15 l372 1 -2 -172z
m2 -868 l0 -190 -1255 0 -1255 0 -2 103 c-5 185 -2 224 15 251 l17 26 1240 0
1240 0 0 -190z"/>
<path d="M20363 4974 c-3 -9 -1 -107 5 -218 11 -193 5 -297 -16 -318 -32 -32
-427 -34 -572 -3 -237 52 -403 138 -707 367 l-133 100 -42 -25 c-110 -64 -203
-162 -331 -348 l-67 -97 66 -28 c104 -44 254 -148 444 -308 185 -155 324 -256
352 -256 27 0 83 55 144 141 59 84 86 109 119 109 18 0 20 -5 17 -36 -2 -19 3
-55 13 -80 l17 -44 354 0 354 0 3 -122 c3 -188 0 -256 -13 -288 l-12 -30 -402
-2 -401 -3 -5 -252 -5 -252 -100 62 c-55 35 -163 106 -240 159 -77 53 -183
122 -235 153 -99 60 -285 155 -304 155 -6 0 -24 -21 -41 -48 -16 -26 -68 -94
-114 -152 -47 -58 -111 -141 -143 -184 l-59 -79 79 -42 c109 -58 178 -107 351
-244 180 -144 268 -209 344 -251 l57 -32 35 27 c41 31 90 96 166 218 66 108
157 198 225 221 77 27 185 30 388 11 109 -10 228 -16 286 -13 l100 5 -16 -26
c-73 -116 -252 -308 -379 -407 -155 -121 -366 -243 -570 -330 -60 -25 -112
-48 -114 -50 -5 -5 147 -254 201 -326 51 -70 126 -143 165 -161 25 -11 55 4
218 113 86 58 194 120 209 120 2 0 9 -37 16 -83 19 -128 13 -356 -15 -622 -55
-524 -24 -723 140 -872 106 -98 209 -136 455 -167 414 -53 1519 -45 2008 14
201 25 320 75 423 179 118 121 165 249 230 631 22 129 42 241 44 248 6 16 -85
58 -223 103 -136 45 -437 127 -439 120 -1 -3 -7 -90 -12 -193 -12 -214 -30
-318 -71 -403 -49 -104 -62 -114 -163 -125 -169 -19 -576 -27 -1132 -23 -487
5 -562 7 -578 21 -52 46 -80 289 -42 380 l17 42 864 0 864 0 0 515 c0 283 3
515 8 515 4 0 68 -46 142 -101 253 -189 395 -287 514 -358 123 -73 136 -79
136 -60 0 20 75 162 150 285 68 110 130 231 130 253 0 5 -44 28 -97 51 -472
205 -732 392 -895 644 l-58 91 480 3 480 2 0 255 0 255 -496 0 -495 0 3 213
c2 149 7 219 16 235 l13 22 429 0 430 0 0 234 0 234 -32 7 c-17 4 -156 4 -307
0 -271 -7 -433 1 -523 25 l-38 11 0 264 0 265 -300 0 -300 0 0 -282 0 -283
-368 1 c-277 1 -382 4 -427 15 l-60 14 -3 268 -2 267 -300 0 c-270 0 -301 -2
-307 -16z m1467 -1264 l0 -220 -430 0 -430 0 0 220 0 220 430 0 430 0 0 -220z
m-122 -726 c25 -5 37 -15 51 -43 11 -20 55 -86 99 -148 78 -110 115 -175 128
-227 l6 -26 -587 0 -587 0 7 38 c3 20 24 73 45 118 76 158 218 258 418 294 50
9 364 5 420 -6z m90 -1131 l-3 -218 -555 0 -555 0 -3 218 -2 217 560 0 560 0
-2 -217z"/>
<path d="M36445 4954 c-91 -18 -125 -26 -125 -29 0 -1 27 -46 60 -99 78 -124
102 -179 98 -230 l-3 -41 -1017 -3 -1018 -2 0 -595 0 -595 340 0 340 0 0 328
0 327 1403 3 c1296 3 1706 -2 2035 -24 l92 -7 0 -313 0 -314 350 0 350 0 0
595 0 595 -1018 0 -1019 0 -18 61 c-10 34 -51 116 -91 184 -39 67 -75 132 -79
144 -6 21 -8 21 -333 20 -180 -1 -336 -3 -347 -5z"/>
<path d="M27457 4913 c-3 -5 -19 -71 -37 -148 -18 -77 -46 -172 -62 -212 -24
-59 -35 -74 -61 -84 -22 -9 -115 -14 -309 -17 l-278 -3 0 -830 0 -829 -170 0
-170 0 2 -237 3 -238 150 3 c122 3 154 1 170 -11 19 -15 20 -26 18 -220 -5
-571 -95 -1057 -290 -1567 l-56 -144 49 -45 c27 -24 81 -66 119 -93 80 -57
336 -211 341 -205 14 14 101 216 134 314 116 335 177 692 260 1538 23 231 43
426 45 433 3 9 95 12 413 12 l409 0 7 -647 c8 -725 2 -845 -54 -1052 l-11 -41
-107 0 c-98 0 -159 5 -341 26 l-64 7 7 -76 c4 -42 22 -131 42 -199 19 -68 37
-151 41 -186 3 -34 11 -66 16 -69 23 -14 335 -23 463 -13 154 12 225 28 319
75 152 74 234 218 264 460 41 333 39 1254 -4 2320 -14 352 -28 845 -32 1096
l-6 455 -71 -14 c-134 -27 -632 -13 -651 17 -2 4 9 41 25 82 35 93 60 210 60
289 l0 60 -289 0 c-160 0 -292 -3 -294 -7z m683 -1518 l0 -595 -435 0 -435 0
0 595 0 595 435 0 435 0 0 -595z"/>
<path d="M27595 3805 c-55 -14 -135 -27 -177 -31 -43 -4 -78 -10 -78 -13 0 -3
27 -89 60 -191 55 -167 139 -486 155 -582 6 -37 7 -38 51 -38 108 0 464 80
464 105 0 37 -111 380 -240 743 -12 32 -13 32 -73 31 -34 0 -107 -11 -162 -24z"/>
<path d="M29480 4910 c0 -6 33 -100 73 -208 66 -175 91 -252 111 -344 l6 -28
-445 0 -445 0 0 -270 0 -270 1305 0 1305 0 0 270 0 270 -510 0 c-400 0 -511 3
-514 13 -42 144 -79 244 -145 392 l-79 180 -331 3 c-229 1 -331 -1 -331 -8z"/>
<path d="M36059 3807 c-82 -176 -277 -394 -465 -520 -248 -165 -563 -290
-1058 -417 -103 -27 -190 -51 -193 -54 -3 -2 13 -31 35 -63 52 -77 142 -234
198 -344 24 -49 48 -89 53 -89 20 0 224 43 333 71 458 115 825 279 1129 505
233 173 459 431 594 677 l37 67 -134 65 c-185 89 -284 120 -479 150 -23 3 -29
-2 -50 -48z"/>
<path d="M37251 3815 c-36 -8 -68 -18 -72 -22 -10 -10 -35 -135 -50 -248 -15
-118 -6 -379 16 -460 56 -198 164 -329 350 -420 234 -116 541 -151 1155 -134
162 4 404 8 538 8 l242 1 3 143 c4 259 -6 365 -36 384 -6 4 -295 8 -642 8
-611 0 -633 1 -732 22 -57 12 -115 28 -130 35 -46 22 -53 82 -53 410 l0 287
-262 0 c-189 0 -281 -4 -327 -14z"/>
<path d="M29580 3420 c-166 -7 -366 -26 -383 -37 -4 -2 -5 -170 -1 -371 15
-845 -41 -1499 -167 -1947 -60 -214 -161 -445 -250 -577 l-39 -57 82 -69 c106
-89 289 -226 367 -274 l60 -37 54 82 c275 421 423 976 478 1797 6 96 12 349
13 561 l1 386 89 7 c140 10 224 7 260 -8 30 -12 35 -21 46 -68 43 -201 39
-544 -14 -1088 -64 -652 -69 -942 -22 -1166 61 -286 194 -438 443 -506 64 -18
105 -21 233 -21 135 0 168 3 254 26 150 40 273 104 355 185 77 76 101 117 133
229 20 70 23 99 22 278 0 122 -7 266 -18 370 -20 180 -26 450 -13 551 l8 61
-61 12 c-34 7 -118 34 -189 60 -134 51 -267 88 -278 78 -3 -4 2 -118 12 -254
31 -438 20 -721 -35 -877 -24 -71 -67 -146 -82 -146 -26 0 -78 54 -104 107
l-28 56 3 1329 3 1328 -464 0 c-254 0 -492 2 -528 4 -36 2 -144 0 -240 -4z"/>
<path d="M35430 2130 c-129 -4 -312 -11 -406 -15 l-172 -7 17 -37 c14 -31 16
-70 13 -268 l-2 -233 816 0 815 0 -4 -392 c-3 -264 -8 -409 -16 -440 l-13 -48
-1099 0 -1099 0 0 -270 0 -270 2608 2 2607 3 3 268 2 267 -914 0 c-812 0
-1175 7 -1314 26 l-43 5 3 392 c3 313 7 401 19 437 l15 45 827 3 827 2 0 263
0 264 -1102 6 c-1262 8 -2050 7 -2388 -3z"/>
<path d="M27692 2054 c-18 -8 -91 -28 -162 -44 -125 -28 -190 -52 -190 -69 0
-5 32 -121 71 -258 76 -267 133 -492 145 -568 l7 -48 76 6 c42 3 132 22 201
42 69 20 149 39 178 42 51 6 53 7 47 31 -3 14 -26 115 -51 226 -76 339 -138
494 -237 600 l-52 54 -33 -14z"/>
<path d="M18996 1958 c-2 -7 -32 -101 -66 -208 -144 -452 -320 -819 -526
-1096 l-73 -98 27 -50 c16 -29 91 -116 178 -206 83 -85 165 -174 181 -197 l30
-42 80 82 c242 249 412 579 618 1201 l93 280 -67 41 c-37 23 -118 79 -180 125
-110 81 -265 180 -283 180 -5 0 -10 -6 -12 -12z"/>
</g>
</svg>
