<svg version="1.1" id="Layer_1" xmlns="http://www.w3.org/2000/svg" xmlns:xlink="http://www.w3.org/1999/xlink" x="0px" y="0px"
	 width="100%" viewBox="0 0 960 960" enable-background="new 0 0 960 960" xml:space="preserve">
<path fill="#E2001A" opacity="1.000000" stroke="none" 
	d="
M961.000000,437.000000 
	C961.000000,466.020905 961.000000,495.041779 960.582397,524.409546 
	C959.776978,525.933228 959.088501,527.100586 959.051514,528.288330 
	C958.854370,534.609436 957.729370,540.607483 954.425903,546.160278 
	C949.330505,554.725037 944.825745,563.662292 939.400330,572.005798 
	C924.300293,595.227295 907.144043,616.835388 887.272461,636.204895 
	C883.063782,640.307251 878.723450,644.274475 874.443787,648.303955 
	C874.738281,648.646667 875.032715,648.989380 875.327148,649.332092 
	C902.722778,633.099976 926.386047,612.179565 948.692749,589.411621 
	C947.409973,596.027649 945.644226,602.267212 944.032654,608.546387 
	C937.522095,633.914490 928.289673,658.317993 917.362183,682.054810 
	C904.529236,709.930542 889.545593,736.674622 871.062134,761.200989 
	C858.237976,778.217773 844.835693,794.893127 830.551331,810.689758 
	C814.807617,828.100342 796.976746,843.424622 778.572693,858.089355 
	C753.386597,878.157898 726.473145,895.516174 697.754333,909.891541 
	C681.131897,918.212036 663.975098,925.761414 646.439758,931.885437 
	C625.384766,939.238770 603.897949,945.692810 582.172791,950.685364 
	C564.050720,954.849915 545.312195,956.325867 526.861572,959.091797 
	C526.161377,959.196838 525.616943,960.340332 525.000000,961.000000 
	C495.979095,961.000000 466.958221,961.000000 437.609375,960.582153 
	C436.104065,959.776794 434.950256,959.165100 433.745422,959.038513 
	C426.550446,958.282410 419.222382,958.247253 412.164062,956.840454 
	C392.179504,952.857666 372.225861,948.655701 352.404388,943.934021 
	C326.148712,937.679565 301.191620,927.610291 276.771973,916.298645 
	C249.242294,903.546387 223.118546,888.238892 198.801727,870.099854 
	C184.242966,859.239746 169.845657,848.001282 156.503967,835.708374 
	C134.860870,815.766724 114.741570,794.272583 97.112053,770.597595 
	C82.274338,750.671753 68.684753,729.925537 57.048939,707.962952 
	C40.307671,676.363892 26.936127,643.388367 17.454727,608.880676 
	C15.706736,602.518860 14.310851,596.060242 12.752441,589.646301 
	C34.694191,612.084167 58.146152,632.049805 85.033249,647.794006 
	C84.396454,646.049622 83.282265,644.855408 82.161026,643.667969 
	C70.792221,631.628052 58.646851,620.216064 48.266994,607.376770 
	C37.519245,594.082336 28.070829,579.668457 18.827602,565.248352 
	C11.219805,553.379700 2.175993,541.832764 2.858660,526.413208 
	C2.878262,525.970459 1.647661,525.472290 0.999998,525.000000 
	C1.000000,495.979095 1.000000,466.958221 1.376817,437.631744 
	C2.360134,435.426331 2.966634,433.526489 3.939838,430.477936 
	C15.390619,462.278717 30.830338,491.048248 50.806648,517.292297 
	C70.875793,543.658264 94.252052,566.532837 121.496986,585.277405 
	C122.119720,584.641235 122.742455,584.005066 123.365189,583.368835 
	C120.783569,581.285767 118.062012,579.352661 115.643021,577.095276 
	C100.043381,562.537903 86.524094,546.129761 74.377586,528.685242 
	C55.130688,501.043335 39.573738,471.336945 29.163683,439.277863 
	C23.441984,421.657196 19.509958,403.441864 15.131755,385.407043 
	C13.873987,380.226044 12.490791,374.442047 13.566317,369.452087 
	C16.306549,356.738556 19.690626,344.059357 24.118189,331.837769 
	C31.229292,312.208710 39.256588,292.905212 47.185062,273.582428 
	C49.624775,267.636475 53.005257,262.076569 55.954967,256.339874 
	C56.362377,256.418945 56.769791,256.497986 57.177204,256.577057 
	C55.898491,289.797455 58.404171,322.621521 65.856567,355.049011 
	C73.249855,387.219330 84.596390,417.767761 99.895470,447.054535 
	C118.438797,482.551758 149.834305,520.945679 158.158813,526.286072 
	C157.740311,525.174011 157.609604,524.364319 157.183914,523.763733 
	C148.109390,510.959351 138.116882,498.704041 130.128784,485.257263 
	C120.552139,469.136444 111.795807,452.388855 104.298325,435.208344 
	C95.371986,414.753601 89.077721,393.302490 84.568207,371.339661 
	C80.428162,351.176300 77.543068,330.849091 77.193024,310.331451 
	C76.908371,293.646576 77.769745,276.885254 79.171898,260.246246 
	C80.322578,246.591431 82.689117,233.006638 85.164078,219.509506 
	C86.409637,212.716888 87.537338,205.045090 91.421219,199.755402 
	C102.862022,184.173538 115.021103,169.004761 128.069870,154.745773 
	C145.814758,135.355164 164.746796,116.970734 186.144897,101.593285 
	C205.373566,87.774857 224.887604,74.178268 245.302155,62.238781 
	C262.760040,52.028503 281.273346,43.311371 300.054718,35.761940 
	C319.326599,28.015327 339.300323,21.815590 359.311554,16.158033 
	C384.063477,9.160204 409.407776,4.810503 435.120667,2.903057 
	C435.790466,2.853368 436.375458,1.660017 437.000000,1.000010 
	C466.020905,1.000000 495.041779,1.000000 524.391724,1.418121 
	C525.898682,2.223696 527.053040,2.835144 528.258362,2.961838 
	C535.450806,3.717853 542.770020,3.774793 549.832947,5.157718 
	C568.394836,8.792126 586.924866,12.659082 605.324829,17.034090 
	C634.985291,24.086548 663.242798,35.224003 690.648376,48.392895 
	C714.563171,59.884384 737.720947,72.918556 758.796570,89.100677 
	C777.149597,103.192345 795.169556,117.808174 812.429260,133.209320 
	C831.795349,150.490112 848.430176,170.460968 864.350403,190.939926 
	C869.508240,197.574661 874.483154,204.419281 875.278992,213.393433 
	C875.722534,218.395081 877.033997,223.335678 878.152161,228.258850 
	C882.797913,248.712921 884.280273,269.524231 884.902466,290.393311 
	C885.158447,298.980316 884.559143,307.615631 883.944641,316.199982 
	C883.193604,326.693146 882.136963,337.168823 881.000061,347.628967 
	C878.840149,367.500946 874.041016,386.809174 868.080078,405.840210 
	C859.687866,432.633820 848.311768,458.154205 833.850891,482.179901 
	C826.871399,493.775970 818.556641,504.570374 810.803955,515.698059 
	C808.182495,519.460754 805.430237,523.132263 802.737671,526.845398 
	C803.175415,527.075867 803.613098,527.306274 804.050781,527.536682 
	C874.615601,451.170837 907.894165,360.723206 904.981384,255.867218 
	C905.993408,257.306763 906.408630,257.779236 906.693909,258.320160 
	C922.927490,289.100800 935.355591,321.389374 944.872498,354.826324 
	C947.699402,364.758362 949.400940,374.656708 947.004028,385.102173 
	C942.002197,406.900238 937.030396,428.657166 929.049683,449.645691 
	C920.004578,473.433472 908.719299,496.075623 894.967590,517.428528 
	C880.227905,540.315613 863.263611,561.463684 843.362244,580.151733 
	C841.978821,581.450867 840.729736,582.893005 839.418152,584.268677 
	C839.849060,584.623291 840.280029,584.977844 840.710938,585.332397 
	C895.684021,546.264648 934.478882,494.616882 957.792969,431.640228 
	C959.020752,433.692169 960.010376,435.346069 961.000000,437.000000 
M488.387817,13.999953 
	C475.850159,14.663897 463.272400,14.910481 450.786346,16.111242 
	C438.725800,17.271086 426.571045,18.589127 414.788727,21.284735 
	C382.787323,28.606115 352.358551,40.085552 323.974884,56.930927 
	C301.970154,69.990501 281.876740,85.427628 263.520477,103.129555 
	C256.527405,109.873383 250.228653,117.359306 243.841934,124.705643 
	C225.564087,145.729782 210.890198,169.062958 199.222992,194.358627 
	C185.566376,223.967529 176.388336,254.797638 172.984177,287.281769 
	C171.339828,302.972961 169.032883,318.593018 170.929626,334.486084 
	C172.624359,348.686371 172.845154,363.102692 175.214844,377.171295 
	C177.699112,391.920135 181.179718,406.614807 185.644806,420.889038 
	C191.945145,441.030334 200.641815,460.270081 211.229462,478.600830 
	C225.737610,503.719238 243.275101,526.377136 264.050079,546.728577 
	C278.944611,561.319397 295.151978,574.043457 312.267181,585.787354 
	C313.934723,586.931641 315.289459,589.116943 315.911194,591.094971 
	C318.156372,598.237793 319.747162,605.590698 322.094116,612.696106 
	C327.431641,628.855774 334.716339,643.986023 347.380127,657.564148 
	C345.662872,651.522400 344.342255,646.689880 342.915527,641.888916 
	C336.760223,621.175842 333.587555,599.948975 333.156464,578.416626 
	C332.932404,567.225159 334.237640,555.995117 335.009491,544.793457 
	C336.128723,528.550232 340.175415,512.896484 344.862549,497.385498 
	C351.465424,475.534790 360.963409,454.970673 372.333618,435.218170 
	C386.965576,409.799164 404.439850,386.469360 424.507874,365.149109 
	C434.056213,355.005035 444.220673,345.396973 454.582031,336.075195 
	C463.855072,327.732574 473.555603,319.820282 483.473663,312.250214 
	C497.649506,301.430328 511.216980,290.088562 521.899231,275.621124 
	C532.450989,261.330383 529.255554,239.664963 514.613831,229.770218 
	C503.660034,222.367706 491.379181,221.320282 479.080017,220.120529 
	C466.756226,218.918381 454.339691,218.665512 441.963409,218.003540 
	C429.424896,217.332870 416.886261,216.664490 404.347046,216.006592 
	C391.472321,215.331116 378.596039,214.684998 365.721954,213.997421 
	C353.678070,213.354187 341.637238,212.654678 329.593231,212.013641 
	C310.446869,210.994553 291.302307,209.932953 272.150391,209.028702 
	C261.720337,208.536224 251.272034,208.433197 240.841110,207.955017 
	C235.233871,207.697968 229.645996,207.019272 223.700287,206.500381 
	C225.041946,205.933319 226.045563,205.208603 227.109253,205.105835 
	C238.412613,204.013824 249.725677,203.022293 261.035736,201.999619 
	C268.743408,201.302689 276.458588,200.677643 284.156128,199.882309 
	C296.080444,198.650284 307.985931,197.235306 319.912170,196.023193 
	C327.935272,195.207779 335.990326,194.706741 344.013214,193.889404 
	C355.940002,192.674377 367.845428,191.250381 379.770660,190.019058 
	C387.466797,189.224411 395.192169,188.711533 402.886353,187.900681 
	C414.474304,186.679489 426.037964,185.226761 437.628082,184.028503 
	C445.653198,183.198853 453.728638,182.823929 461.735016,181.859421 
	C465.254517,181.435425 468.432129,180.205688 470.119812,176.149399 
	C471.327209,173.247421 473.731415,170.630951 476.127960,168.471100 
	C490.353882,155.650070 506.896942,147.087921 525.412292,142.280350 
	C544.276428,137.382217 562.622498,137.690704 580.460571,146.712997 
	C592.129944,152.615234 602.867432,159.730927 612.309692,168.726013 
	C622.889771,178.805023 633.456421,188.910675 643.687988,199.339172 
	C653.306519,209.142731 662.480713,219.382187 672.095032,229.692200 
	C667.985779,231.974213 662.867798,234.514160 658.055237,237.539978 
	C633.979248,252.677368 609.550415,267.340118 587.755371,285.770935 
	C572.308838,298.833130 556.878601,311.948273 542.065186,325.711487 
	C534.392761,332.839996 528.016785,341.377136 521.160278,349.368073 
	C503.889893,369.495697 490.066193,391.718964 479.866241,416.263550 
	C472.497406,433.995392 467.999939,452.400269 467.243896,471.456757 
	C466.850739,481.366058 468.170746,491.532349 470.097778,501.310425 
	C476.832214,535.481567 496.179321,560.683838 526.848816,576.815918 
	C540.660645,584.080872 555.686646,587.742859 571.422485,589.234375 
	C583.761597,590.403809 595.657349,589.233398 607.689819,587.174683 
	C625.934326,584.052917 642.815125,577.385498 658.982056,568.550781 
	C675.199585,559.688293 690.015930,548.923279 703.277527,536.111023 
	C711.023682,528.627319 718.094116,520.449280 725.702942,512.817200 
	C737.963989,500.518799 746.860840,485.932281 755.056641,470.812958 
	C766.101624,450.437592 774.292358,428.917084 780.614441,406.684235 
	C786.184814,387.094940 789.473206,367.032227 790.859253,346.748444 
	C791.632507,335.432495 791.519653,323.990784 790.870605,312.659332 
	C790.053101,298.387787 789.498047,283.918915 786.615662,269.993469 
	C782.893921,252.013062 777.496948,234.320908 771.881897,216.805801 
	C764.961243,195.218140 754.201904,175.347610 741.841187,156.408798 
	C727.402527,134.286316 711.123352,113.652214 690.875244,96.451591 
	C680.875610,87.957024 671.189453,78.985435 660.532410,71.393379 
	C631.113708,50.435482 598.866821,35.166409 564.005554,25.476645 
	C539.566345,18.683714 514.612732,15.395150 488.387817,13.999953 
M513.470764,809.251343 
	C517.550476,809.251343 521.630249,809.251343 525.674011,809.251343 
	C526.562134,817.299500 527.359802,824.528503 528.163696,831.813721 
	C549.918823,831.813721 571.335327,831.813721 593.064270,831.813721 
	C588.048279,786.065125 583.064697,740.612976 578.071960,695.076721 
	C577.063416,694.935303 576.426575,694.768188 575.789551,694.767822 
	C550.128662,694.752258 524.467285,694.694275 498.807709,694.874390 
	C497.028351,694.886902 494.798370,696.283020 493.556183,697.712158 
	C455.852936,741.091675 418.246948,784.555664 380.630066,828.010193 
	C379.702209,829.082031 378.822723,830.195801 377.881195,831.337891 
	C378.534790,831.727356 378.787384,832.009460 379.040466,832.009888 
	C400.368195,832.046753 421.696259,832.109985 443.023071,831.975952 
	C444.535004,831.966431 446.434418,830.839111 447.476379,829.642029 
	C452.067108,824.367676 456.571075,818.998840 460.777374,813.416321 
	C463.081848,810.357849 465.550659,809.077942 469.491791,809.149170 
	C483.817261,809.408081 498.150208,809.251343 513.470764,809.251343 
M730.500000,832.078979 
	C739.658936,832.078918 748.819092,832.154297 757.975342,831.996216 
	C759.320374,831.973022 761.492126,831.151062 761.849121,830.174927 
	C765.088684,821.316589 768.009766,812.341675 771.192688,802.900879 
	C744.444946,802.900879 718.211609,802.900879 691.225525,802.900879 
	C703.019409,766.652222 714.629211,730.969299 726.413879,694.748901 
	C705.711060,694.748901 685.911194,694.904846 666.117432,694.622742 
	C661.953064,694.563416 660.432800,696.033630 659.138611,699.677795 
	C644.244385,741.617310 629.185974,783.498657 614.185181,825.400452 
	C613.439087,827.484558 612.821716,829.614807 612.030334,832.078979 
	C651.583679,832.078979 690.541809,832.078979 730.500000,832.078979 
M366.169617,700.603027 
	C356.424194,725.523499 346.716858,750.458923 336.912018,775.355957 
	C333.629211,783.692017 328.691986,790.952820 321.836334,796.801392 
	C315.429504,802.267029 308.277924,805.731934 299.549957,805.201965 
	C289.810059,804.610535 280.058502,804.210938 270.003723,803.712585 
	C266.702118,813.738342 263.257111,824.199585 259.653839,835.141357 
	C282.437073,836.897827 304.429596,839.367493 326.644043,837.165100 
	C359.091614,833.948120 383.004333,818.687317 395.273315,787.919556 
	C404.810059,764.003601 413.228973,739.641602 422.119293,715.468445 
	C424.571014,708.802063 426.931519,702.102112 429.512817,694.919678 
	C410.519165,694.919678 392.200684,695.057922 373.887299,694.813416 
	C369.782623,694.758667 367.299408,695.749329 366.169617,700.603027 
M86.616058,649.820923 
	C87.127556,649.641968 87.639053,649.462952 88.150551,649.283936 
	C87.859756,648.916809 87.568970,648.549683 87.278168,648.182556 
	C86.853203,648.538757 86.428246,648.895020 86.616058,649.820923 
M162.793594,531.179626 
	C162.587204,530.842590 162.380814,530.505615 162.174438,530.168579 
	C162.192047,530.613708 162.209656,531.058899 162.793594,531.179626 
M798.235718,531.451721 
	C798.412720,531.798828 798.589722,532.145874 798.766785,532.492981 
	C798.882324,532.380432 799.106567,532.253784 799.094055,532.157837 
	C799.048279,531.805176 798.924072,531.462708 798.235718,531.451721 
M125.578850,587.324402 
	C125.110222,587.247498 124.641602,587.170593 124.172966,587.093689 
	C124.493385,587.339050 124.813797,587.584351 125.578850,587.324402 
M836.806946,587.810791 
	C837.146606,587.599915 837.486328,587.389038 837.826050,587.178101 
	C837.377930,587.198792 836.929871,587.219543 836.806946,587.810791 
M872.807312,650.810791 
	C873.146790,650.600037 873.486206,650.389282 873.825684,650.178528 
	C873.377808,650.199280 872.929932,650.220032 872.807312,650.810791 
M90.579025,651.324463 
	C90.110603,651.247620 89.642189,651.170776 89.173759,651.093933 
	C89.494041,651.339172 89.814323,651.584412 90.579025,651.324463 
z"/>
<path fill="#000000" opacity="1.000000" stroke="none" 
	d="
M961.000000,436.531342 
	C960.010376,435.346069 959.020752,433.692169 957.792969,431.640228 
	C934.478882,494.616882 895.684021,546.264648 840.710938,585.332397 
	C840.280029,584.977844 839.849060,584.623291 839.418152,584.268677 
	C840.729736,582.893005 841.978821,581.450867 843.362244,580.151733 
	C863.263611,561.463684 880.227905,540.315613 894.967590,517.428528 
	C908.719299,496.075623 920.004578,473.433472 929.049683,449.645691 
	C937.030396,428.657166 942.002197,406.900238 947.004028,385.102173 
	C949.400940,374.656708 947.699402,364.758362 944.872498,354.826324 
	C935.355591,321.389374 922.927490,289.100800 906.693909,258.320160 
	C906.408630,257.779236 905.993408,257.306763 904.981384,255.867218 
	C907.894165,360.723206 874.615601,451.170837 804.050781,527.536682 
	C803.613098,527.306274 803.175415,527.075867 802.737671,526.845398 
	C805.430237,523.132263 808.182495,519.460754 810.803955,515.698059 
	C818.556641,504.570374 826.871399,493.775970 833.850891,482.179901 
	C848.311768,458.154205 859.687866,432.633820 868.080078,405.840210 
	C874.041016,386.809174 878.840149,367.500946 881.000061,347.628967 
	C882.136963,337.168823 883.193604,326.693146 883.944641,316.199982 
	C884.559143,307.615631 885.158447,298.980316 884.902466,290.393311 
	C884.280273,269.524231 882.797913,248.712921 878.152161,228.258850 
	C877.033997,223.335678 875.722534,218.395081 875.278992,213.393433 
	C874.483154,204.419281 869.508240,197.574661 864.350403,190.939926 
	C848.430176,170.460968 831.795349,150.490112 812.429260,133.209320 
	C795.169556,117.808174 777.149597,103.192345 758.796570,89.100677 
	C737.720947,72.918556 714.563171,59.884384 690.648376,48.392895 
	C663.242798,35.224003 634.985291,24.086548 605.324829,17.034090 
	C586.924866,12.659082 568.394836,8.792126 549.832947,5.157718 
	C542.770020,3.774793 535.450806,3.717853 528.258362,2.961838 
	C527.053040,2.835144 525.898682,2.223696 524.860352,1.418121 
	C670.260376,1.000000 815.520813,1.000000 961.000000,1.000000 
	C961.000000,146.020828 961.000000,291.041748 961.000000,436.531342 
z"/>
<path fill="#000000" opacity="1.000000" stroke="none" 
	d="
M436.531372,1.000010 
	C436.375458,1.660017 435.790466,2.853368 435.120667,2.903057 
	C409.407776,4.810503 384.063477,9.160204 359.311554,16.158033 
	C339.300323,21.815590 319.326599,28.015327 300.054718,35.761940 
	C281.273346,43.311371 262.760040,52.028503 245.302155,62.238781 
	C224.887604,74.178268 205.373566,87.774857 186.144897,101.593285 
	C164.746796,116.970734 145.814758,135.355164 128.069870,154.745773 
	C115.021103,169.004761 102.862022,184.173538 91.421219,199.755402 
	C87.537338,205.045090 86.409637,212.716888 85.164078,219.509506 
	C82.689117,233.006638 80.322578,246.591431 79.171898,260.246246 
	C77.769745,276.885254 76.908371,293.646576 77.193024,310.331451 
	C77.543068,330.849091 80.428162,351.176300 84.568207,371.339661 
	C89.077721,393.302490 95.371986,414.753601 104.298325,435.208344 
	C111.795807,452.388855 120.552139,469.136444 130.128784,485.257263 
	C138.116882,498.704041 148.109390,510.959351 157.183914,523.763733 
	C157.609604,524.364319 157.740311,525.174011 158.158813,526.286072 
	C149.834305,520.945679 118.438797,482.551758 99.895470,447.054535 
	C84.596390,417.767761 73.249855,387.219330 65.856567,355.049011 
	C58.404171,322.621521 55.898491,289.797455 57.177204,256.577057 
	C56.769791,256.497986 56.362377,256.418945 55.954967,256.339874 
	C53.005257,262.076569 49.624775,267.636475 47.185062,273.582428 
	C39.256588,292.905212 31.229292,312.208710 24.118189,331.837769 
	C19.690626,344.059357 16.306549,356.738556 13.566317,369.452087 
	C12.490791,374.442047 13.873987,380.226044 15.131755,385.407043 
	C19.509958,403.441864 23.441984,421.657196 29.163683,439.277863 
	C39.573738,471.336945 55.130688,501.043335 74.377586,528.685242 
	C86.524094,546.129761 100.043381,562.537903 115.643021,577.095276 
	C118.062012,579.352661 120.783569,581.285767 123.365189,583.368835 
	C122.742455,584.005066 122.119720,584.641235 121.496986,585.277405 
	C94.252052,566.532837 70.875793,543.658264 50.806648,517.292297 
	C30.830338,491.048248 15.390619,462.278717 3.939838,430.477936 
	C2.966634,433.526489 2.360134,435.426331 1.376817,437.163086 
	C1.000000,291.739594 1.000000,146.479172 1.000000,1.000000 
	C146.020828,1.000000 291.041748,1.000000 436.531372,1.000010 
z"/>
<path fill="#000000" opacity="1.000000" stroke="none" 
	d="
M525.468628,961.000000 
	C525.616943,960.340332 526.161377,959.196838 526.861572,959.091797 
	C545.312195,956.325867 564.050720,954.849915 582.172791,950.685364 
	C603.897949,945.692810 625.384766,939.238770 646.439758,931.885437 
	C663.975098,925.761414 681.131897,918.212036 697.754333,909.891541 
	C726.473145,895.516174 753.386597,878.157898 778.572693,858.089355 
	C796.976746,843.424622 814.807617,828.100342 830.551331,810.689758 
	C844.835693,794.893127 858.237976,778.217773 871.062134,761.200989 
	C889.545593,736.674622 904.529236,709.930542 917.362183,682.054810 
	C928.289673,658.317993 937.522095,633.914490 944.032654,608.546387 
	C945.644226,602.267212 947.409973,596.027649 948.692749,589.411621 
	C926.386047,612.179565 902.722778,633.099976 875.327148,649.332092 
	C875.032715,648.989380 874.738281,648.646667 874.443787,648.303955 
	C878.723450,644.274475 883.063782,640.307251 887.272461,636.204895 
	C907.144043,616.835388 924.300293,595.227295 939.400330,572.005798 
	C944.825745,563.662292 949.330505,554.725037 954.425903,546.160278 
	C957.729370,540.607483 958.854370,534.609436 959.051514,528.288330 
	C959.088501,527.100586 959.776978,525.933228 960.582397,524.878174 
	C961.000000,670.260376 961.000000,815.520813 961.000000,961.000000 
	C815.979187,961.000000 670.958252,961.000000 525.468628,961.000000 
z"/>
<path fill="#000000" opacity="1.000000" stroke="none" 
	d="
M0.999998,525.468628 
	C1.647661,525.472290 2.878262,525.970459 2.858660,526.413208 
	C2.175993,541.832764 11.219805,553.379700 18.827602,565.248352 
	C28.070829,579.668457 37.519245,594.082336 48.266994,607.376770 
	C58.646851,620.216064 70.792221,631.628052 82.161026,643.667969 
	C83.282265,644.855408 84.396454,646.049622 85.033249,647.794006 
	C58.146152,632.049805 34.694191,612.084167 12.752441,589.646301 
	C14.310851,596.060242 15.706736,602.518860 17.454727,608.880676 
	C26.936127,643.388367 40.307671,676.363892 57.048939,707.962952 
	C68.684753,729.925537 82.274338,750.671753 97.112053,770.597595 
	C114.741570,794.272583 134.860870,815.766724 156.503967,835.708374 
	C169.845657,848.001282 184.242966,859.239746 198.801727,870.099854 
	C223.118546,888.238892 249.242294,903.546387 276.771973,916.298645 
	C301.191620,927.610291 326.148712,937.679565 352.404388,943.934021 
	C372.225861,948.655701 392.179504,952.857666 412.164062,956.840454 
	C419.222382,958.247253 426.550446,958.282410 433.745422,959.038513 
	C434.950256,959.165100 436.104065,959.776794 437.140717,960.582153 
	C291.739594,961.000000 146.479172,961.000000 1.000000,961.000000 
	C1.000000,815.979187 1.000000,670.958252 0.999998,525.468628 
z"/>
<path fill="#000000" opacity="1.000000" stroke="none" 
	d="
M488.871948,13.999940 
	C514.612732,15.395150 539.566345,18.683714 564.005554,25.476645 
	C598.866821,35.166409 631.113708,50.435482 660.532410,71.393379 
	C671.189453,78.985435 680.875610,87.957024 690.875244,96.451591 
	C711.123352,113.652214 727.402527,134.286316 741.841187,156.408798 
	C754.201904,175.347610 764.961243,195.218140 771.881897,216.805801 
	C777.496948,234.320908 782.893921,252.013062 786.615662,269.993469 
	C789.498047,283.918915 790.053101,298.387787 790.870605,312.659332 
	C791.519653,323.990784 791.632507,335.432495 790.859253,346.748444 
	C789.473206,367.032227 786.184814,387.094940 780.614441,406.684235 
	C774.292358,428.917084 766.101624,450.437592 755.056641,470.812958 
	C746.860840,485.932281 737.963989,500.518799 725.702942,512.817200 
	C718.094116,520.449280 711.023682,528.627319 703.277527,536.111023 
	C690.015930,548.923279 675.199585,559.688293 658.982056,568.550781 
	C642.815125,577.385498 625.934326,584.052917 607.689819,587.174683 
	C595.657349,589.233398 583.761597,590.403809 571.422485,589.234375 
	C555.686646,587.742859 540.660645,584.080872 526.848816,576.815918 
	C496.179321,560.683838 476.832214,535.481567 470.097778,501.310425 
	C468.170746,491.532349 466.850739,481.366058 467.243896,471.456757 
	C467.999939,452.400269 472.497406,433.995392 479.866241,416.263550 
	C490.066193,391.718964 503.889893,369.495697 521.160278,349.368073 
	C528.016785,341.377136 534.392761,332.839996 542.065186,325.711487 
	C556.878601,311.948273 572.308838,298.833130 587.755371,285.770935 
	C609.550415,267.340118 633.979248,252.677368 658.055237,237.539978 
	C662.867798,234.514160 667.985779,231.974213 672.095032,229.692200 
	C662.480713,219.382187 653.306519,209.142731 643.687988,199.339172 
	C633.456421,188.910675 622.889771,178.805023 612.309692,168.726013 
	C602.867432,159.730927 592.129944,152.615234 580.460571,146.712997 
	C562.622498,137.690704 544.276428,137.382217 525.412292,142.280350 
	C506.896942,147.087921 490.353882,155.650070 476.127960,168.471100 
	C473.731415,170.630951 471.327209,173.247421 470.119812,176.149399 
	C468.432129,180.205688 465.254517,181.435425 461.735016,181.859421 
	C453.728638,182.823929 445.653198,183.198853 437.628082,184.028503 
	C426.037964,185.226761 414.474304,186.679489 402.886353,187.900681 
	C395.192169,188.711533 387.466797,189.224411 379.770660,190.019058 
	C367.845428,191.250381 355.940002,192.674377 344.013214,193.889404 
	C335.990326,194.706741 327.935272,195.207779 319.912170,196.023193 
	C307.985931,197.235306 296.080444,198.650284 284.156128,199.882309 
	C276.458588,200.677643 268.743408,201.302689 261.035736,201.999619 
	C249.725677,203.022293 238.412613,204.013824 227.109253,205.105835 
	C226.045563,205.208603 225.041946,205.933319 223.700287,206.500381 
	C229.645996,207.019272 235.233871,207.697968 240.841110,207.955017 
	C251.272034,208.433197 261.720337,208.536224 272.150391,209.028702 
	C291.302307,209.932953 310.446869,210.994553 329.593231,212.013641 
	C341.637238,212.654678 353.678070,213.354187 365.721954,213.997421 
	C378.596039,214.684998 391.472321,215.331116 404.347046,216.006592 
	C416.886261,216.664490 429.424896,217.332870 441.963409,218.003540 
	C454.339691,218.665512 466.756226,218.918381 479.080017,220.120529 
	C491.379181,221.320282 503.660034,222.367706 514.613831,229.770218 
	C529.255554,239.664963 532.450989,261.330383 521.899231,275.621124 
	C511.216980,290.088562 497.649506,301.430328 483.473663,312.250214 
	C473.555603,319.820282 463.855072,327.732574 454.582031,336.075195 
	C444.220673,345.396973 434.056213,355.005035 424.507874,365.149109 
	C404.439850,386.469360 386.965576,409.799164 372.333618,435.218170 
	C360.963409,454.970673 351.465424,475.534790 344.862549,497.385498 
	C340.175415,512.896484 336.128723,528.550232 335.009491,544.793457 
	C334.237640,555.995117 332.932404,567.225159 333.156464,578.416626 
	C333.587555,599.948975 336.760223,621.175842 342.915527,641.888916 
	C344.342255,646.689880 345.662872,651.522400 347.380127,657.564148 
	C334.716339,643.986023 327.431641,628.855774 322.094116,612.696106 
	C319.747162,605.590698 318.156372,598.237793 315.911194,591.094971 
	C315.289459,589.116943 313.934723,586.931641 312.267181,585.787354 
	C295.151978,574.043457 278.944611,561.319397 264.050079,546.728577 
	C243.275101,526.377136 225.737610,503.719238 211.229462,478.600830 
	C200.641815,460.270081 191.945145,441.030334 185.644806,420.889038 
	C181.179718,406.614807 177.699112,391.920135 175.214844,377.171295 
	C172.845154,363.102692 172.624359,348.686371 170.929626,334.486084 
	C169.032883,318.593018 171.339828,302.972961 172.984177,287.281769 
	C176.388336,254.797638 185.566376,223.967529 199.222992,194.358627 
	C210.890198,169.062958 225.564087,145.729782 243.841934,124.705643 
	C250.228653,117.359306 256.527405,109.873383 263.520477,103.129555 
	C281.876740,85.427628 301.970154,69.990501 323.974884,56.930927 
	C352.358551,40.085552 382.787323,28.606115 414.788727,21.284735 
	C426.571045,18.589127 438.725800,17.271086 450.786346,16.111242 
	C463.272400,14.910481 475.850159,14.663897 488.871948,13.999940 
z"/>
<path fill="#FFFEFE" opacity="1.000000" stroke="none" 
	d="
M512.975586,809.251343 
	C498.150208,809.251343 483.817261,809.408081 469.491791,809.149170 
	C465.550659,809.077942 463.081848,810.357849 460.777374,813.416321 
	C456.571075,818.998840 452.067108,824.367676 447.476379,829.642029 
	C446.434418,830.839111 444.535004,831.966431 443.023071,831.975952 
	C421.696259,832.109985 400.368195,832.046753 379.040466,832.009888 
	C378.787384,832.009460 378.534790,831.727356 377.881195,831.337891 
	C378.822723,830.195801 379.702209,829.082031 380.630066,828.010193 
	C418.246948,784.555664 455.852936,741.091675 493.556183,697.712158 
	C494.798370,696.283020 497.028351,694.886902 498.807709,694.874390 
	C524.467285,694.694275 550.128662,694.752258 575.789551,694.767822 
	C576.426575,694.768188 577.063416,694.935303 578.071960,695.076721 
	C583.064697,740.612976 588.048279,786.065125 593.064270,831.813721 
	C571.335327,831.813721 549.918823,831.813721 528.163696,831.813721 
	C527.359802,824.528503 526.562134,817.299500 525.674011,809.251343 
	C521.630249,809.251343 517.550476,809.251343 512.975586,809.251343 
M516.993530,747.494873 
	C507.882050,757.728394 498.770569,767.961853 489.082428,778.843018 
	C500.745178,778.843018 511.424866,778.843018 522.961426,778.843018 
	C522.961426,766.187378 522.961426,753.693237 522.961426,740.828979 
	C521.136047,742.868591 519.300537,744.919556 516.993530,747.494873 
z"/>
<path fill="#FFFEFE" opacity="1.000000" stroke="none" 
	d="
M730.000000,832.078979 
	C690.541809,832.078979 651.583679,832.078979 612.030334,832.078979 
	C612.821716,829.614807 613.439087,827.484558 614.185181,825.400452 
	C629.185974,783.498657 644.244385,741.617310 659.138611,699.677795 
	C660.432800,696.033630 661.953064,694.563416 666.117432,694.622742 
	C685.911194,694.904846 705.711060,694.748901 726.413879,694.748901 
	C714.629211,730.969299 703.019409,766.652222 691.225525,802.900879 
	C718.211609,802.900879 744.444946,802.900879 771.192688,802.900879 
	C768.009766,812.341675 765.088684,821.316589 761.849121,830.174927 
	C761.492126,831.151062 759.320374,831.973022 757.975342,831.996216 
	C748.819092,832.154297 739.658936,832.078918 730.000000,832.078979 
z"/>
<path fill="#FFFEFE" opacity="1.000000" stroke="none" 
	d="
M366.337372,700.242249 
	C367.299408,695.749329 369.782623,694.758667 373.887299,694.813416 
	C392.200684,695.057922 410.519165,694.919678 429.512817,694.919678 
	C426.931519,702.102112 424.571014,708.802063 422.119293,715.468445 
	C413.228973,739.641602 404.810059,764.003601 395.273315,787.919556 
	C383.004333,818.687317 359.091614,833.948120 326.644043,837.165100 
	C304.429596,839.367493 282.437073,836.897827 259.653839,835.141357 
	C263.257111,824.199585 266.702118,813.738342 270.003723,803.712585 
	C280.058502,804.210938 289.810059,804.610535 299.549957,805.201965 
	C308.277924,805.731934 315.429504,802.267029 321.836334,796.801392 
	C328.691986,790.952820 333.629211,783.692017 336.912018,775.355957 
	C346.716858,750.458923 356.424194,725.523499 366.337372,700.242249 
z"/>
<path fill="#000000" opacity="1.000000" stroke="none" 
	d="
M86.309669,649.536133 
	C86.428246,648.895020 86.853203,648.538757 87.278168,648.182556 
	C87.568970,648.549683 87.859756,648.916809 88.150558,649.283936 
	C87.639053,649.462952 87.127556,649.641968 86.309669,649.536133 
z"/>
<path fill="#000000" opacity="1.000000" stroke="none" 
	d="
M162.510422,531.341797 
	C162.209656,531.058899 162.192047,530.613708 162.174438,530.168579 
	C162.380814,530.505615 162.587204,530.842590 162.510422,531.341797 
z"/>
<path fill="#000000" opacity="1.000000" stroke="none" 
	d="
M798.532593,531.284058 
	C798.924072,531.462708 799.048279,531.805176 799.094055,532.157837 
	C799.106567,532.253784 798.882324,532.380432 798.766785,532.492981 
	C798.589722,532.145874 798.412720,531.798828 798.532593,531.284058 
z"/>
<path fill="#000000" opacity="1.000000" stroke="none" 
	d="
M125.356529,587.577026 
	C124.813797,587.584351 124.493385,587.339050 124.172974,587.093689 
	C124.641602,587.170593 125.110222,587.247498 125.356529,587.577026 
z"/>
<path fill="#000000" opacity="1.000000" stroke="none" 
	d="
M836.644348,587.525513 
	C836.929871,587.219543 837.377930,587.198792 837.826050,587.178101 
	C837.486328,587.389038 837.146606,587.599915 836.644348,587.525513 
z"/>
<path fill="#000000" opacity="1.000000" stroke="none" 
	d="
M872.644653,650.525757 
	C872.929932,650.220032 873.377808,650.199280 873.825684,650.178528 
	C873.486206,650.389282 873.146790,650.600037 872.644653,650.525757 
z"/>
<path fill="#000000" opacity="1.000000" stroke="none" 
	d="
M90.356812,651.577026 
	C89.814323,651.584412 89.494041,651.339172 89.173767,651.093933 
	C89.642189,651.170776 90.110603,651.247620 90.356812,651.577026 
z"/>
<path fill="#E3051E" opacity="1.000000" stroke="none" 
	d="
M517.229248,747.232666 
	C519.300537,744.919556 521.136047,742.868591 522.961426,740.828979 
	C522.961426,753.693237 522.961426,766.187378 522.961426,778.843018 
	C511.424866,778.843018 500.745178,778.843018 489.082428,778.843018 
	C498.770569,767.961853 507.882050,757.728394 517.229248,747.232666 
z"/>
</svg>