<?xml version="1.0" encoding="UTF-8" standalone="no"?>
<!-- Created with Inkscape (http://www.inkscape.org/) -->

<svg
   version="1.1"
   id="svg920"
   width="985"
   height="492"
   viewBox="0 0 985 492"
   sodipodi:docname="Korean Air 2025 (stacked).svg"
   inkscape:version="1.2.2 (b0a8486541, 2022-12-01)"
   xmlns:inkscape="http://www.inkscape.org/namespaces/inkscape"
   xmlns:sodipodi="http://sodipodi.sourceforge.net/DTD/sodipodi-0.dtd"
   xmlns="http://www.w3.org/2000/svg"
   xmlns:svg="http://www.w3.org/2000/svg">
  <defs
     id="defs924">
    <mask
       id="mask-3"
       width="275.8378804"
       height="291.1227888"
       x="0"
       y="0"
       maskUnits="userSpaceOnUse">
      <g
         id="mask0_407_41521-6">
        <path
           id="Clip_23-7"
           d="M 0.001,0 H 275.838 V 291.122 H 0 Z"
           style="fill:#ffffff;fill-rule:evenodd" />
      </g>
    </mask>
  </defs>
  <sodipodi:namedview
     id="namedview922"
     pagecolor="#ffffff"
     bordercolor="#000000"
     borderopacity="0.25"
     inkscape:showpageshadow="2"
     inkscape:pageopacity="0.0"
     inkscape:pagecheckerboard="0"
     inkscape:deskcolor="#d1d1d1"
     showgrid="false"
     inkscape:zoom="0.27568761"
     inkscape:cx="353.66117"
     inkscape:cy="68.918586"
     inkscape:window-width="1366"
     inkscape:window-height="683"
     inkscape:window-x="0"
     inkscape:window-y="0"
     inkscape:window-maximized="1"
     inkscape:current-layer="logo-3" />
  <g
     inkscape:groupmode="layer"
     inkscape:label="Image"
     id="g926">
    <g
       id="Logo-5"
       transform="matrix(0.26844019,0,0,0.26792891,269.45476,-136.89305)"
       style="fill:#000000">
      <g
         id="logo-3"
         style="fill:#000000">
        <g
           id="g4801"
           transform="translate(-3.5124454e-5)"
           style="fill:#051766;fill-opacity:1">
          <g
             id="Group_24"
             mask="url(#mask-3)"
             style="fill:#051766;fill-opacity:1"
             transform="matrix(4.001173,0,0,4.028644,238.8346,510.93049)">
            <path
               id="Fill_22"
               d="m 19.215,217.032 -1.165,0.801 c 23.727,43.74 68.633,73.29 119.869,73.29 76.201,0 137.919,-65.212 137.919,-145.56 0,-22.128 -9.17,-40.759 -20.014,-54.878 -14.41,-18.778 -34.934,-27.802 -55.386,-27.948 -16.885,-0.145 -34.351,5.532 -46.653,16.666 -14.047,12.737 -17.176,29.114 -20.815,55.678 -4.002,29.112 -27.438,49.2 -57.568,49.2 -39.011,0 -63.174,-24.017 -61.573,-60.772 0.146,-2.548 0.364,-5.094 0.8,-7.568 7.351,-43.377 54.004,-88.137 124.164,-87.993 47.089,0 82.46,10.553 117.832,46.143 l 1.165,-0.8 C 234.063,29.552 189.23,0 137.92,0 61.79,0 0,65.211 0,145.563 c 0,22.124 9.17,40.756 20.016,54.874 14.337,18.778 34.935,27.73 55.386,27.95 16.885,0.217 34.352,-5.534 46.651,-16.668 14.048,-12.737 17.177,-29.112 20.816,-55.677 4.003,-29.113 27.51,-49.2 57.569,-49.2 39.082,0 63.246,24.017 61.644,60.771 -0.144,2.548 -0.364,5.096 -0.798,7.571 -7.498,43.376 -53.93,88.137 -124.237,87.99 -47.09,0 -82.46,-10.552 -117.832,-46.142"
               class="st2"
               style="fill:#051766;fill-opacity:1;fill-rule:evenodd" />
          </g>
          <g
             id="g894"
             transform="matrix(2.4240828,0,0,2.432221,-1957.9227,1785.7262)"
             style="fill:#051766;fill-opacity:1">
            <g
               id="g2538"
               style="fill:#051766;fill-opacity:1">
              <path
                 id="Fill_25-5"
                 d="m 535.32,217.34 q 6.47,6.823 11.79,10.75 h -22.424 q -11.79,0 -20.575,-4.161 c -5.858,-2.775 -11.557,-7.55 -17.107,-14.333 l -55.711,-69.582 71.895,-76.98 h 36.987 l -72.127,75.593 50.166,59.18 q 10.633,12.718 17.106,19.533 m -141.71,10.75 h 32.827 V 63.034 H 393.61 Z"
                 class="st2"
                 style="fill:#051766;fill-opacity:1;fill-rule:evenodd" />
              <path
                 id="Fill_27-6"
                 d="m 662.236,198.038 q 12.251,-6.933 19.187,-20.344 6.937,-13.407 6.936,-32.132 c -0.001,-18.725 -2.311,-23.194 -6.936,-32.133 q -6.936,-13.407 -19.187,-20.343 -12.255,-6.935 -27.972,-6.935 -15.952,0 -28.204,6.935 c -8.17,4.622 -14.564,11.406 -19.186,20.343 q -6.937,13.409 -6.936,32.133 c 0,18.724 2.31,23.195 6.936,32.132 q 6.932,13.409 19.186,20.344 12.253,6.933 28.204,6.934 15.716,0 27.972,-6.934 m -73.052,22.076 q -20.11,-10.747 -31.555,-30.168 -11.441,-19.418 -11.442,-44.384 c -10e-4,-24.966 3.815,-31.44 11.442,-44.385 q 11.446,-19.42 31.555,-30.17 20.114,-10.747 45.08,-10.748 24.733,10e-4 44.847,10.748 20.112,10.752 31.556,30.285 11.443,19.536 11.443,44.27 0,24.738 -11.443,44.268 -11.445,19.538 -31.556,30.284 -20.114,10.75 -44.847,10.75 -24.966,0 -45.08,-10.75"
                 class="st2"
                 style="fill:#051766;fill-opacity:1;fill-rule:evenodd" />
              <path
                 id="Fill_29-2"
                 d="m 904.504,228.09 h -20.806 q -12.717,0 -21.497,-4.392 -8.789,-4.39 -16.183,-14.102 l -49.933,-67.04 h 15.026 c 12.327,0 21.65,-2.347 27.972,-7.05 q 9.477,-7.047 9.478,-20.69 0,-13.404 -9.364,-19.882 -9.362,-6.47 -28.78,-6.472 H 789.844 V 228.09 H 757.016 V 63.033 h 60.104 q 19.647,0 34.33,6.012 14.678,6.012 22.54,17.222 c 5.236,7.476 7.859,16.22 7.859,26.237 0,11.098 -3.201,20.771 -9.593,29.012 q -9.596,12.369 -26.931,18.379 l 30.282,37.912 q 15.487,19.42 28.897,30.284"
                 class="st2"
                 style="fill:#051766;fill-opacity:1;fill-rule:evenodd" />
              <path
                 id="Fill_31-9"
                 d="m 1033.496,202.198 v 25.893 H 924.847 V 63.033 h 106.339 v 25.89 H 957.67 v 41.15 h 61.731 v 25.429 h -61.73 v 46.696 z"
                 class="st2"
                 style="fill:#051766;fill-opacity:1;fill-rule:evenodd" />
              <path
                 id="Fill_33-1"
                 d="m 1161.098,169.604 -26.348,-60.798 -26.358,60.798 z m 63.807,58.485 h -19.644 c -6.48,0 -11.873,-1.5 -16.19,-4.506 -4.316,-3.005 -8.172,-8.358 -11.559,-16.067 l -5.55,-12.945 h -74.435 l -14.564,33.518 h -30.978 L 1127.81,63.032 h 18.03 l 58.95,128.07 c 8.33,18.03 15.035,30.364 20.115,36.987"
                 class="st2"
                 style="fill:#051766;fill-opacity:1;fill-rule:evenodd" />
              <path
                 id="Fill_35-2"
                 d="m 1394.125,63.033 v 165.058 h -18.03 L 1275.303,119.44 v 108.65 h -28.208 V 63.034 h 18.038 l 100.785,108.651 V 63.034 Z"
                 class="st2"
                 style="fill:#051766;fill-opacity:1;fill-rule:evenodd" />
              <path
                 id="Fill_37-7"
                 d="m 1591.543,169.604 -26.358,-60.798 -26.348,60.798 z m 63.807,58.485 h -19.654 c -6.47,0 -11.873,-1.5 -16.189,-4.506 -4.307,-3.005 -8.163,-8.358 -11.55,-16.067 l -5.55,-12.945 h -74.435 l -14.564,33.518 h -30.978 l 75.825,-165.057 h 18.03 l 58.95,128.07 c 8.32,18.03 15.025,30.364 20.115,36.987"
                 class="st2"
                 style="fill:#051766;fill-opacity:1;fill-rule:evenodd" />
              <path
                 id="Fill_39-0"
                 d="m 1677.539,228.089 h 32.828 V 63.032 h -32.828 z"
                 class="st2"
                 style="fill:#051766;fill-opacity:1;fill-rule:evenodd" />
              <path
                 id="Fill_41-9"
                 d="m 1907.315,228.09 h -20.798 c -8.477,0 -15.651,-1.463 -21.504,-4.392 q -8.794,-4.39 -16.18,-14.102 l -49.936,-67.04 h 15.024 c 12.332,0 21.65,-2.347 27.973,-7.05 q 9.485,-7.047 9.485,-20.69 0,-13.404 -9.367,-19.882 c -6.245,-4.312 -15.837,-6.472 -28.786,-6.472 h -20.574 V 228.09 h -32.818 V 63.033 h 60.096 c 13.106,0 24.548,2.004 34.336,6.012 9.788,4.009 17.295,9.748 22.541,17.222 5.237,7.476 7.86,16.22 7.86,26.237 q 0,16.649 -9.602,29.012 -9.588,12.369 -26.926,18.379 l 30.283,37.912 q 15.489,19.42 28.893,30.284"
                 class="st2"
                 style="fill:#051766;fill-opacity:1;fill-rule:evenodd" />
            </g>
          </g>
        </g>
      </g>
    </g>
  </g>
</svg>
