<?xml version="1.0" standalone="no"?>
<!DOCTYPE svg PUBLIC "-//W3C//DTD SVG 20010904//EN"
 "http://www.w3.org/TR/2001/REC-SVG-20010904/DTD/svg10.dtd">
<svg version="1.0" xmlns="http://www.w3.org/2000/svg"
 width="3840.000000pt" height="957.000000pt" viewBox="0 0 3840.000000 957.000000"
 preserveAspectRatio="xMidYMid meet">

<g transform="translate(0.000000,957.000000) scale(0.100000,-0.100000)"
fill="#000000" stroke="none">
<path d="M30867 9277 c-9 -39 -17 -78 -17 -85 0 -11 275 -13 1533 -12 1355 2
1541 0 1611 -14 195 -39 320 -145 362 -306 24 -92 14 -196 -31 -340 -53 -172
-145 -493 -225 -790 -213 -789 -288 -1043 -345 -1166 -118 -258 -358 -446
-603 -472 -42 -5 -106 -6 -142 -2 -303 32 -443 203 -401 490 18 117 47 223
231 830 72 238 65 358 -28 461 -25 28 -67 61 -95 75 -103 53 -118 54 -988 54
-443 0 -901 -3 -1017 -7 l-210 -6 -17 -61 c-9 -34 -18 -68 -21 -77 -4 -16 28
-17 368 -22 383 -5 466 -13 593 -54 187 -60 267 -162 250 -316 -4 -34 -58
-240 -120 -457 -61 -217 -120 -426 -130 -464 -28 -106 -107 -258 -167 -322
-60 -63 -94 -86 -174 -116 -57 -22 -74 -23 -594 -28 l-534 -5 -22 -80 c-11
-44 -24 -90 -28 -102 l-7 -23 413 2 c360 2 425 0 508 -15 206 -39 288 -114
298 -274 5 -86 -8 -160 -53 -303 -19 -58 -59 -197 -90 -310 -89 -325 -113
-399 -163 -500 -85 -175 -248 -307 -422 -342 -48 -10 -185 -13 -528 -13 l-462
0 -14 -45 c-8 -25 -19 -61 -24 -81 l-10 -36 92 -7 c76 -5 1220 -11 1826 -10
191 1 264 15 380 72 94 46 207 151 261 242 56 95 103 238 259 795 103 368 129
424 255 551 106 106 210 174 333 217 250 87 528 13 618 -165 62 -123 55 -278
-25 -553 -90 -308 -388 -1366 -440 -1560 -27 -105 -63 -223 -80 -263 -108
-267 -349 -455 -646 -503 -51 -8 -499 -11 -1615 -9 l-1545 1 -27 -82 c-15 -46
-25 -85 -22 -88 11 -12 3674 -13 3822 -2 411 31 799 110 1192 241 315 105 573
221 845 380 758 445 1335 1007 1795 1750 139 223 218 326 347 451 208 201 463
338 753 403 99 23 292 46 380 46 76 0 78 1 88 28 6 15 24 64 41 109 l31 83
-83 0 c-159 0 -341 33 -474 86 -123 49 -196 97 -289 189 -78 78 -98 104 -137
185 -66 135 -77 192 -87 435 -17 414 -88 707 -255 1044 -386 777 -1067 1201
-2130 1326 -112 13 -394 15 -2030 15 l-1900 0 -18 -73z"/>
<path d="M10655 7018 c-2 -7 -61 -213 -130 -458 -465 -1641 -703 -2492 -946
-3375 -88 -319 -162 -588 -165 -597 -5 -17 22 -18 474 -18 l479 0 116 408
c152 533 303 1068 612 2172 139 498 312 1112 384 1366 71 253 133 473 136 487
l7 27 -481 0 c-376 0 -483 -3 -486 -12z"/>
<path d="M20985 6088 c-305 -11 -495 -57 -719 -171 -265 -135 -477 -358 -615
-647 -56 -117 -101 -249 -122 -355 -20 -103 -18 -343 4 -425 50 -187 162 -322
339 -410 57 -27 139 -59 183 -69 173 -42 253 -46 835 -44 672 4 738 -4 834
-87 124 -110 18 -414 -178 -510 -121 -60 -112 -59 -1343 -60 l-1122 0 -9 -32
c-5 -18 -37 -129 -71 -245 -59 -204 -123 -454 -118 -459 1 -1 578 -3 1282 -5
1405 -4 1374 -5 1618 56 497 126 877 516 1014 1041 25 98 28 126 28 274 0 185
-11 243 -70 365 -48 99 -118 181 -206 241 -87 59 -157 88 -279 114 -144 32
-322 40 -884 40 -330 0 -566 4 -606 11 -80 13 -157 53 -187 98 -55 81 -9 282
90 396 44 50 124 99 202 122 55 16 147 18 1124 23 l1064 5 19 65 c146 515 184
656 179 662 -8 8 -2072 15 -2286 6z"/>
<path d="M1165 6033 c-9 -32 -54 -186 -100 -343 -46 -157 -232 -816 -414
-1465 -182 -649 -360 -1281 -396 -1404 -36 -124 -65 -231 -65 -238 0 -11 90
-13 478 -13 l479 0 42 143 c73 247 265 919 364 1272 123 437 367 1323 367
1330 0 3 194 5 431 5 l431 0 -7 -27 c-23 -95 -184 -678 -357 -1288 -222 -788
-388 -1392 -388 -1411 0 -7 15 -16 33 -19 17 -3 230 -4 472 -3 l440 3 22 55
c12 30 107 363 212 740 105 377 270 969 368 1315 l178 630 215 0 c171 0 231
-4 292 -18 188 -44 268 -165 239 -364 -6 -45 -112 -437 -236 -870 -276 -970
-416 -1476 -409 -1483 3 -3 217 -5 476 -5 l470 0 23 58 c13 32 43 131 65 220
51 199 343 1236 438 1557 94 318 116 394 157 562 61 245 59 418 -9 598 -92
247 -307 425 -586 486 -128 28 -439 33 -2062 34 l-1647 0 -16 -57z"/>
<path d="M6469 6063 c-32 -85 -199 -677 -199 -706 0 -6 340 -8 898 -5 493 3
933 1 977 -4 301 -31 406 -129 392 -367 -5 -89 -39 -228 -67 -271 -10 -17
-255 -19 -1100 -10 -467 5 -545 1 -752 -41 -514 -103 -908 -453 -1073 -953
-103 -313 -84 -620 53 -818 142 -205 374 -303 767 -323 61 -3 643 -2 1294 2
l1184 8 108 375 c59 206 189 668 289 1025 100 358 200 713 222 790 105 375
103 616 -6 838 -121 248 -338 397 -657 451 -169 29 -428 36 -1382 36 l-937 0
-11 -27z m1456 -2102 l341 -6 -90 -321 -90 -321 -410 -6 c-564 -9 -819 -8
-899 3 -92 14 -159 44 -203 93 l-37 40 6 86 c3 47 15 113 27 146 54 157 199
261 398 285 80 9 485 9 957 1z"/>
<path d="M12051 6072 c-21 -39 -201 -675 -201 -710 0 -12 133 -14 938 -11 986
3 991 3 1129 -42 76 -25 153 -90 177 -150 38 -94 31 -227 -20 -380 l-25 -76
-67 -7 c-102 -9 -344 -8 -807 6 -746 21 -1031 -15 -1340 -167 -282 -139 -480
-342 -634 -652 -99 -198 -141 -370 -141 -572 0 -140 18 -231 65 -329 111 -234
297 -347 655 -399 103 -15 245 -16 1375 -14 693 2 1261 4 1263 6 11 10 134
446 371 1308 56 202 133 470 172 595 126 406 166 610 156 787 -24 413 -285
698 -723 789 -148 31 -330 36 -1330 36 -948 0 -1004 -1 -1013 -18z m1787
-2117 c4 -3 -92 -358 -151 -560 l-23 -80 -384 -8 c-212 -4 -511 -6 -665 -4
-256 3 -286 5 -347 26 -106 34 -158 99 -158 196 1 126 105 307 214 369 47 28
125 52 211 66 54 8 1294 3 1303 -5z"/>
<path d="M15940 6068 c-5 -13 -32 -108 -60 -213 -63 -231 -248 -892 -445
-1585 -192 -675 -195 -689 -202 -880 -5 -137 -3 -166 16 -240 80 -323 313
-493 759 -556 168 -23 460 -32 925 -26 235 2 427 3 427 0 0 -21 -85 -330 -103
-375 -80 -197 -256 -334 -500 -391 -64 -15 -170 -17 -1001 -17 l-928 0 -69
-240 c-77 -269 -133 -484 -127 -490 2 -2 471 -5 1043 -5 1117 -2 1160 0 1345
50 315 86 623 277 872 539 146 153 267 357 336 566 29 87 460 1616 885 3140
113 402 202 733 200 738 -2 4 -218 7 -479 7 l-474 0 -9 -22 c-5 -13 -93 -324
-196 -693 -196 -703 -519 -1843 -555 -1957 l-21 -67 -432 -3 c-512 -4 -640 2
-721 32 -194 73 -218 245 -91 655 19 61 86 295 149 520 63 226 154 547 201
715 78 275 225 808 225 817 0 1 -216 3 -480 3 l-480 0 -10 -22z"/>
<path d="M23920 6085 c0 -3 -149 -531 -331 -1173 -539 -1901 -649 -2295 -649
-2319 l0 -23 449 0 c247 0 462 3 479 6 l30 6 196 687 c243 852 474 1680 646
2306 72 264 133 488 136 498 5 16 -22 17 -475 17 -265 0 -481 -2 -481 -5z"/>
<path d="M25543 6078 c-4 -7 -31 -96 -59 -198 -94 -340 -131 -475 -138 -504
l-7 -28 948 3 c1038 2 1030 3 1162 -56 71 -32 113 -73 142 -139 39 -88 23
-282 -34 -418 -15 -36 -16 -36 -94 -44 -73 -6 -385 -3 -1028 12 -702 17 -1071
-77 -1392 -355 -222 -191 -401 -510 -470 -833 -24 -114 -24 -318 1 -413 54
-211 208 -384 408 -459 86 -33 234 -62 373 -75 112 -10 2292 -6 2471 5 l91 6
116 401 c179 622 533 1893 552 1982 80 389 -14 717 -258 900 -172 130 -390
197 -696 215 -86 5 -589 10 -1118 10 -759 0 -963 -3 -970 -12z m1794 -2122 c3
-3 -175 -637 -180 -642 -2 -2 -298 -5 -658 -6 -715 -3 -712 -3 -813 56 -56 33
-76 75 -76 160 0 140 103 316 220 376 46 24 141 51 210 61 46 6 1290 2 1297
-5z"/>
<path d="M22183 2223 c-12 -2 -26 -10 -31 -16 -5 -7 -53 -172 -106 -367 -78
-284 -430 -1541 -452 -1612 -5 -17 6 -18 140 -18 l145 0 11 43 c48 185 124
461 256 932 128 454 243 875 278 1018 l6 27 -112 -1 c-62 -1 -123 -4 -135 -6z"/>
<path d="M23769 1796 c-3 -3 -145 -8 -315 -11 l-309 -5 -98 -342 c-98 -344
-337 -1209 -337 -1221 0 -4 63 -7 140 -7 l139 0 12 43 c90 340 279 1015 335
1193 l34 111 283 7 c192 5 298 4 333 -4 131 -28 181 -113 154 -260 -6 -36 -52
-207 -102 -380 -49 -173 -112 -396 -139 -495 -27 -99 -52 -188 -55 -197 -5
-17 6 -18 140 -18 l145 0 10 38 c84 320 220 812 273 987 37 123 43 250 15 331
-37 107 -137 180 -287 208 -82 16 -361 32 -371 22z"/>
<path d="M25397 1789 c-260 -22 -507 -177 -668 -420 -152 -229 -227 -464 -216
-684 10 -218 100 -364 262 -424 114 -43 206 -51 575 -51 l347 0 28 99 c15 55
25 106 22 115 -6 14 -41 16 -334 14 -281 -3 -336 -1 -386 14 -87 25 -142 62
-174 116 -26 44 -28 55 -28 157 0 82 5 120 17 148 l17 37 499 0 499 0 27 101
c15 55 24 104 21 107 -4 4 -136 6 -293 4 -374 -4 -692 6 -692 22 0 7 23 51 51
99 92 153 199 245 344 295 l80 27 340 0 340 0 31 110 c18 61 31 111 30 111 -7
6 -672 9 -739 3z"/>
<path d="M18687 1773 c-17 -56 -57 -199 -57 -207 0 -4 223 -7 508 -5 498 4
508 4 552 -17 68 -32 84 -55 87 -127 3 -50 -3 -80 -30 -157 l-34 -95 -331 3
c-569 6 -732 -27 -882 -178 -76 -76 -122 -151 -154 -247 -90 -264 9 -460 261
-519 74 -17 259 -21 809 -16 297 2 322 3 327 20 2 9 59 215 125 457 67 242
136 490 156 550 67 214 71 302 19 404 -21 40 -41 63 -74 84 -98 60 -101 60
-715 64 -534 4 -562 3 -567 -14z m960 -839 c3 -8 -8 -61 -25 -117 -17 -56 -48
-163 -68 -238 l-38 -136 -330 -8 c-351 -7 -423 -2 -498 36 -60 31 -80 70 -76
154 6 126 87 239 203 286 58 23 70 24 435 29 206 3 379 7 383 8 4 1 10 -5 14
-14z"/>
<path d="M20428 1698 c-217 -764 -408 -1455 -408 -1477 0 -8 41 -11 138 -11
l138 0 66 243 c37 133 114 411 172 618 58 207 125 453 150 547 l45 172 -137 0
-137 0 -27 -92z"/>
<path d="M21315 1778 c-85 -16 -190 -73 -255 -138 -64 -66 -133 -188 -174
-310 -28 -85 -218 -759 -276 -983 l-39 -148 142 3 141 3 63 235 c134 503 226
818 259 889 48 105 92 154 171 193 67 33 69 33 235 36 l168 4 24 76 c13 43 26
94 30 115 l7 37 -223 -1 c-123 -1 -245 -5 -273 -11z"/>
<path d="M22585 1778 c-7 -19 -435 -1558 -435 -1563 0 -3 63 -5 139 -5 l139 0
11 32 c5 18 35 125 66 238 55 200 351 1258 361 1293 5 16 -6 17 -136 17 -103
0 -142 -3 -145 -12z"/>
<path d="M26785 1780 c-98 -11 -147 -25 -244 -72 -107 -51 -219 -159 -269
-258 -82 -164 -75 -337 18 -443 72 -81 156 -97 509 -97 130 0 264 -5 296 -11
126 -23 169 -68 169 -175 -1 -124 -72 -214 -202 -254 -119 -37 -214 -42 -658
-34 l-422 7 -15 -49 c-14 -44 -47 -166 -47 -175 0 -6 582 -14 885 -13 294 0
349 9 466 70 185 97 294 279 293 489 -1 106 -24 179 -79 243 -78 90 -178 112
-531 112 -278 0 -367 19 -398 85 -37 77 -8 175 76 257 95 93 229 117 556 99
267 -14 509 -14 517 0 7 11 65 213 62 215 -9 6 -928 10 -982 4z"/>
</g>
</svg>
