<?xml version="1.0" encoding="UTF-8"?>
<svg version="1.1" xmlns="http://www.w3.org/2000/svg" width="1280" height="1006">
<path d="M0 0 C1.11917114 1.65316772 1.11917114 1.65316772 2.00439453 3.83740234 C2.34713409 4.66126434 2.68987366 5.48512634 3.04299927 6.33395386 C3.40263763 7.24210846 3.762276 8.15026306 4.1328125 9.0859375 C4.5218576 10.03236115 4.91090271 10.97878479 5.31173706 11.95388794 C6.59685965 15.08872594 7.86061201 18.23174847 9.125 21.375 C10.0217989 23.57163323 10.92025695 25.76758978 11.8203125 27.96289062 C13.66527061 32.46596873 15.50344783 36.97172358 17.33691406 41.47949219 C20.80082231 49.9803951 24.35083726 58.44454636 27.90960693 66.90606689 C29.75669315 71.30009528 31.59707018 75.69693035 33.4375 80.09375 C33.99182205 81.417733 33.99182205 81.417733 34.55734253 82.76846313 C39.05164802 93.50671368 43.52525792 104.25358656 48 115 C56.5693409 135.57891159 65.16861957 156.14514942 73.78222656 176.70556641 C77.89958872 186.53407172 82.0132127 196.36414251 86.12756348 206.19390869 C87.25429065 208.8857923 88.38104191 211.57766582 89.5078125 214.26953125 C89.87946533 215.15741333 90.25111816 216.04529541 90.6340332 216.96008301 C92.86313491 222.28510556 95.09306196 227.60978162 97.32366943 232.93417358 C105.99343347 253.62874388 114.64256726 274.33174896 123.26794434 295.04486084 C131.41514823 314.60859632 139.59344833 334.15920269 147.78222656 353.70556641 C151.14824934 361.74055859 154.51159695 369.77667069 157.87518311 377.81268311 C159.73963698 382.26707779 161.60417718 386.72143635 163.46875 391.17578125 C163.83833832 392.0587085 164.20792664 392.94163574 164.5887146 393.85131836 C166.91876975 399.41753667 169.24926766 404.98356941 171.58004761 410.54948425 C188.03911148 449.85390943 188.03911148 449.85390943 196 469 C198.5212721 466.4787279 199.523578 463.68625087 200.84375 460.44140625 C201.12464478 459.76275009 201.40553955 459.08409393 201.69494629 458.38487244 C202.30923773 456.89908683 202.92123518 455.41235125 203.53125 453.92480469 C204.51649535 451.52227595 205.50742929 449.1221672 206.5 446.72265625 C207.559225 444.16195735 208.61811283 441.60112521 209.67529297 439.0395813 C213.37305065 430.0819935 217.11761431 421.14422292 220.86557007 412.20755005 C222.00007756 409.49981488 223.13192737 406.79098398 224.26293945 404.08178711 C227.61518565 396.05518711 230.97676258 388.03353213 234.40206909 380.03778076 C235.83353703 376.69345026 237.25555293 373.34514392 238.67651367 369.99633789 C239.34457809 368.4293469 240.01735046 366.86435381 240.69506836 365.30151367 C241.62499282 363.15637612 242.53874503 361.00501205 243.44921875 358.8515625 C243.96830811 357.64322754 244.48739746 356.43489258 245.0222168 355.18994141 C246.92941989 348.96784013 243.83294473 343.88939441 241.37890625 338.1796875 C241.00781235 337.30551178 240.63671844 336.43133606 240.25437927 335.53067017 C239.45004941 333.63732683 238.64357544 331.74489324 237.83520508 329.85327148 C236.10026274 325.79331337 234.37555393 321.7290342 232.65023804 317.66497803 C231.75560111 315.55786213 230.86043279 313.45097178 229.9647522 311.34429932 C225.97375311 301.95400043 222.02914207 292.54471456 218.09790039 283.12927246 C211.61915743 267.61385722 205.10591652 252.11324664 198.5625 236.625 C198.16918488 235.69399475 197.77586975 234.7629895 197.37063599 233.80377197 C194.58138978 227.20210631 191.79084505 220.60098988 189 214 C177.70238452 187.27854324 166.42996888 160.54708691 155.25212097 133.77526855 C153.05763421 128.52205271 150.85356811 123.27297476 148.6418457 118.0269928 C147.21916154 114.651051 145.80049216 111.27343061 144.38244629 107.89553833 C143.71660753 106.31228542 143.04891504 104.72981067 142.37927246 103.14816284 C141.4641589 100.9861882 140.55555531 98.82158903 139.6484375 96.65625 C139.37754303 96.02094864 139.10664856 95.38564728 138.82754517 94.73109436 C137.67505565 91.96318476 137 90.03559401 137 87 C139.01953125 86.02083333 141.0390625 85.04166667 143.05859375 84.0625 C143.70101517 83.7510202 144.34343658 83.43954041 145.00532532 83.11862183 C148.65033708 81.35133189 152.29536789 79.58408125 155.94042969 77.81689453 C163.46716823 74.1677573 170.99368413 70.51816284 178.51953125 66.8671875 C192.64035442 60.017338 206.76646879 53.17882207 220.90283203 46.36108398 C229.73460166 42.09931867 238.55674459 37.81797433 247.3760376 33.53045654 C249.6043686 32.4475265 251.83310731 31.36544071 254.06201172 30.28369141 C255.5231122 29.57454474 256.98421247 28.8653976 258.4453125 28.15625 C259.16141693 27.80871674 259.87752136 27.46118347 260.61532593 27.1031189 C264.79535643 25.07355704 268.97203175 23.03729846 273.14584351 20.99497986 C275.06547474 20.05653079 276.98632232 19.12062798 278.90771484 18.18579102 C281.24623706 17.04768054 283.58262147 15.90516341 285.91650391 14.75756836 C286.94437012 14.25878174 287.97223633 13.75999512 289.03125 13.24609375 C289.92392578 12.80966553 290.81660156 12.3732373 291.73632812 11.92358398 C294 11 294 11 297 11 C305.82742319 30.98368918 314.21142702 51.15140742 322.62548828 71.31152344 C326.39149372 80.33463332 330.16348237 89.35523878 333.9375 98.375 C334.30641357 99.2568396 334.67532715 100.1386792 335.05541992 101.04724121 C340.84202344 114.87680823 346.66299435 128.69163904 352.5 142.5 C358.7129584 157.1977367 364.90441969 171.90418055 371.0625 186.625 C371.61721481 187.95099213 371.61721481 187.95099213 372.18313599 189.30377197 C375.16156225 196.42423585 378.13813608 203.54547376 381.11462402 210.66674805 C383.72137451 216.90319808 386.32887487 223.13933386 388.9375 229.375 C389.49209396 230.70075043 389.49209396 230.70075043 390.05789185 232.05328369 C395.84368275 245.88083141 401.66384179 259.6936438 407.5 273.5 C413.7129584 288.1977367 419.90441969 302.90418055 426.0625 317.625 C426.61721481 318.95099213 426.61721481 318.95099213 427.18313599 320.30377197 C430.16156225 327.42423585 433.13813608 334.54547376 436.11462402 341.66674805 C438.72137451 347.90319809 441.32892474 354.13931299 443.9375 360.375 C444.30789398 361.2604953 444.67828796 362.1459906 445.05990601 363.05831909 C451.19349429 377.71850235 457.37207932 392.35937638 463.56271362 406.99554443 C470.1819708 422.649388 476.73171707 438.3314235 483.25769043 454.02435303 C489.33639846 468.63905005 495.45894539 483.23444432 501.625 497.8125 C507.79717513 512.4057245 513.94812453 527.00745488 520.0625 541.625 C520.43249115 542.50944794 520.8024823 543.39389587 521.1836853 544.30514526 C524.16192765 551.42515173 527.13832619 558.54592858 530.11462402 565.66674805 C532.72137451 571.90319808 535.32887487 578.13933386 537.9375 584.375 C538.49209396 585.70075043 538.49209396 585.70075043 539.05789185 587.05328369 C544.84368275 600.88083141 550.66384179 614.6936438 556.5 628.5 C562.71295827 643.19773641 568.90448647 657.90415278 575.0625 672.625 C575.42965118 673.50268036 575.79680237 674.38036072 576.17507935 675.28463745 C578.40392471 680.61339303 580.63181348 685.94254822 582.85949707 691.27178955 C585.99794411 698.77930555 589.13794373 706.28617159 592.27883911 713.79266357 C593.42076859 716.52250273 594.56186555 719.25268879 595.70288086 721.98291016 C598.9675088 729.79015606 602.24194155 737.59244642 605.57421875 745.37109375 C605.84123093 745.99577042 606.1082431 746.62044708 606.38334656 747.26405334 C607.58410708 750.07294876 608.78967359 752.87952094 610.00561523 755.68188477 C610.60998413 757.09232056 610.60998413 757.09232056 611.2265625 758.53125 C611.57283691 759.33111328 611.91911133 760.13097656 612.27587891 760.95507812 C613 763 613 763 613 766 C550.3 766 487.6 766 423 766 C416.11685604 751.08652142 416.11685604 751.08652142 412.9609375 743.5390625 C412.60238678 742.68714325 412.24383606 741.835224 411.87442017 740.95748901 C411.10609443 739.13147878 410.33872948 737.30506402 409.57226562 735.47827148 C407.47748686 730.48608563 405.37504449 725.49712674 403.2734375 720.5078125 C402.6208194 718.9577652 402.6208194 718.9577652 401.95501709 717.37640381 C397.3332135 706.40487016 392.66791743 695.45197318 388 684.5 C381.53374568 669.32453828 375.09526319 654.13774902 368.6875 638.9375 C361.17547029 621.11812 353.60756201 603.32295882 346.02230835 585.53463745 C339.09905523 569.29709234 332.20919497 553.04596472 325.35351562 536.77978516 C318.29307161 520.03070978 311.17436748 503.3067838 304.04464722 486.58709717 C294.30668523 463.74848282 284.63856615 440.88071731 275 418 C272.39666314 420.60333686 271.35205284 423.57765837 269.97265625 426.92578125 C269.6721637 427.64367828 269.37167114 428.36157532 269.06207275 429.10122681 C268.05776096 431.5031511 267.06025978 433.90784746 266.0625 436.3125 C265.35301909 438.0120346 264.64296512 439.71133007 263.93237305 441.41040039 C262.80454473 444.10736486 261.67712789 446.80449479 260.5514679 449.50236511 C256.57254892 459.03746632 252.54926598 468.55365111 248.52426147 478.06936646 C247.31488874 480.93184607 246.10870468 483.79564823 244.90356445 486.65991211 C241.58989449 494.53196469 238.2747828 502.4018639 234.85905457 510.2303009 C233.60259583 513.11186784 232.35755036 515.9982925 231.11361694 518.88528442 C230.54606507 520.19288592 229.97252188 521.49790624 229.39248657 522.80001831 C228.60605602 524.56581371 227.84150527 526.34130548 227.078125 528.1171875 C226.64918945 529.09284668 226.22025391 530.06850586 225.77832031 531.07373047 C223.79804489 538.51901942 227.53100208 545.20418737 230.4609375 551.9140625 C230.91808136 552.97970428 231.37522522 554.04534607 231.84622192 555.14328003 C233.34826299 558.64049008 234.86174265 562.13263057 236.375 565.625 C237.43000228 568.07706567 238.48424685 570.52943858 239.53710938 572.98242188 C241.14364805 576.7242835 242.75062016 580.46595071 244.36138916 584.20599365 C248.74663781 594.38975602 253.07233744 604.59776075 257.37164307 614.8180542 C264.69853949 632.23305695 272.08916896 649.62057407 279.5 667 C288.69129692 688.55551553 297.83030606 710.13253456 306.93086243 731.72650146 C309.15328211 736.99801983 311.38358527 742.2661196 313.62109375 747.53125 C313.89053802 748.16577087 314.1599823 748.80029175 314.43759155 749.45404053 C315.64223596 752.29087023 316.84834157 755.12705482 318.05761719 757.96191406 C318.4549707 758.89745117 318.85232422 759.83298828 319.26171875 760.796875 C319.60162842 761.59448242 319.94153809 762.39208984 320.29174805 763.21386719 C321 765 321 765 321 766 C257.97 766 194.94 766 130 766 C125.05 754.12 120.1 742.24 115 730 C111.71691917 722.25659422 108.43272132 714.51447176 105.12609863 706.78121948 C102.67405858 701.04585365 100.22779412 695.30802441 97.78125 689.5703125 C97.29102356 688.42080612 96.80079712 687.27129974 96.29571533 686.08695984 C91.58974693 675.04728309 86.91413438 663.99490589 82.25 652.9375 C81.86524506 652.02547821 81.48049011 651.11345642 81.08407593 650.17379761 C78.77371984 644.69683011 76.46451018 639.21937986 74.15570068 633.74176025 C70.62634307 625.36878569 67.09526129 616.99653903 63.5625 608.625 C63.17187378 607.69928192 62.78124756 606.77356384 62.37878418 605.8197937 C56.27944667 591.36836173 50.14739587 576.93104681 44 562.5 C37.45484614 547.13521403 30.93068038 531.76182604 24.4375 516.375 C24.05271484 515.46338104 23.66792969 514.55176208 23.27148438 513.61251831 C19.18660899 503.93421705 15.10620788 494.25404327 11.03175354 484.5713501 C9.27817432 480.4048901 7.52310618 476.23905815 5.76785278 472.07330322 C4.93056563 470.08497548 4.09402344 468.09633385 3.25827026 466.10736084 C2.10105442 463.35336814 0.941406 460.6004114 -0.21875 457.84765625 C-0.72836525 456.63211311 -0.72836525 456.63211311 -1.24827576 455.39201355 C-3.0260904 451.18094589 -4.90098728 447.06460673 -7 443 C-7.25467041 443.65967773 -7.50934082 444.31935547 -7.77172852 444.99902344 C-18.29283308 472.17989688 -29.49651845 499.06393808 -41.15576172 525.77514648 C-45.22275871 535.11448469 -49.13590927 544.51258981 -53 553.9375 C-53.58918192 555.37337682 -54.17837461 556.80924923 -54.76757812 558.24511719 C-55.64664809 560.38799676 -56.52560726 562.53092165 -57.40438843 564.67391968 C-74.61209959 606.63174742 -92.81519215 648.51365824 -116.39599609 687.34765625 C-118.00047968 690.00079318 -119.57603457 692.66920543 -121.14453125 695.34375 C-134.85112268 718.63753702 -150.65230688 740.70535994 -168.8984375 760.67578125 C-170.73384837 762.70565015 -172.49381444 764.7770936 -174.25 766.875 C-182.48440472 776.26677496 -191.88365926 784.07651171 -202.32421875 790.88916016 C-204.02093312 792.01387612 -205.68327828 793.17801708 -207.34375 794.35546875 C-225.87865706 807.35411021 -246.16603587 817.08794713 -268.0625 822.75 C-268.82908936 822.94907959 -269.59567871 823.14815918 -270.38549805 823.35327148 C-282.85131084 826.38605932 -295.38809718 827.36912737 -308.1875 827.3125 C-308.85875916 827.31034485 -309.53001831 827.3081897 -310.22161865 827.30596924 C-339.2615481 827.15733731 -369.53525115 820.27734286 -394 804 C-393.3673347 799.96531031 -392.07643582 796.68888594 -390.33203125 793.00390625 C-389.49768555 791.22983398 -389.49768555 791.22983398 -388.64648438 789.41992188 C-388.0351999 788.13409383 -387.42387053 786.84828713 -386.8125 785.5625 C-386.17845343 784.21837383 -385.54500004 782.8739677 -384.91210938 781.52929688 C-383.59686058 778.73605103 -382.27906762 775.94402711 -380.95947266 773.15283203 C-378.23958728 767.39481777 -375.55079398 761.6223596 -372.86190796 755.849823 C-371.40942927 752.73251974 -369.95458649 749.61632012 -368.5 746.5 C-367.91665553 745.2500052 -367.33332219 744.0000052 -366.75 742.75 C-365.58333333 740.25 -364.41666667 737.75 -363.25 735.25 C-362.96125504 734.63126007 -362.67251007 734.01252014 -362.37501526 733.37503052 C-361.79163329 732.12492775 -361.20824909 730.87482603 -360.62486267 729.62472534 C-359.16725519 726.50130616 -357.70968633 723.37786897 -356.25219727 720.25439453 C-353.61861222 714.61058422 -350.98474316 708.96690734 -348.34944153 703.32389832 C-341.69372697 689.07185427 -335.05089713 674.81397352 -328.43066406 660.54541016 C-324.63189072 652.358235 -320.82362278 644.17560071 -317 636 C-316.1028125 636.0721875 -315.205625 636.144375 -314.28125 636.21875 C-277.20027273 638.97683922 -235.20097803 635.04066916 -204 613 C-203.35514648 612.54608887 -202.71029297 612.09217773 -202.04589844 611.62451172 C-181.55660605 597.02675657 -162.61756749 579.87719603 -146 561 C-145.5054834 560.43958008 -145.0109668 559.87916016 -144.50146484 559.30175781 C-137.01653149 550.78118841 -129.87572794 542.01813191 -123 533 C-122.22366211 531.98655518 -122.22366211 531.98655518 -121.43164062 530.95263672 C-105.72161894 510.34848343 -91.85007042 488.48318606 -79 466 C-78.57203125 465.25443848 -78.1440625 464.50887695 -77.703125 463.74072266 C-74.72598527 458.53426112 -71.84114081 453.28177733 -69 448 C-68.24130615 446.59331055 -68.24130615 446.59331055 -67.46728516 445.15820312 C-59.94410844 431.131713 -52.98062957 416.91435926 -46.375 402.4375 C-45.86244659 401.31518478 -45.86244659 401.31518478 -45.33953857 400.17019653 C-43.74393429 396.66786103 -42.16389393 393.1600209 -40.61621094 389.63623047 C-39.63505436 387.42877638 -38.62081143 385.23512029 -37.54785156 383.07080078 C-35.41832225 378.6998977 -35.41832225 378.6998977 -35.36550903 373.96780396 C-35.61888031 373.28249603 -35.87225159 372.59718811 -36.13330078 371.89111328 C-36.42163788 371.10497147 -36.70997498 370.31882965 -37.00704956 369.50886536 C-38.77421081 365.04381911 -40.61723809 360.61786835 -42.515625 356.20703125 C-42.95900208 355.16882736 -43.40237915 354.13062347 -43.85919189 353.06095886 C-45.31953785 349.64340285 -46.78480297 346.22797868 -48.25 342.8125 C-49.28488177 340.39273914 -50.31938028 337.97281433 -51.35351562 335.55273438 C-53.23088662 331.15977588 -55.1093659 326.76729478 -56.98931885 322.3754406 C-61.70160134 311.36636531 -66.39280229 300.34833353 -71.0826416 289.3296814 C-73.47080093 283.71937866 -75.86048299 278.10972458 -78.25 272.5 C-79.20834051 270.25000306 -80.16667384 268.00000306 -81.125 265.75 C-81.599375 264.63625 -82.07375 263.5225 -82.5625 262.375 C-109.87499998 198.25000005 -109.87499998 198.25000005 -111.31230164 194.87545776 C-112.27128853 192.62392863 -113.23028309 190.37240275 -114.18928528 188.12088013 C-116.57518174 182.51930258 -118.96094796 176.91766965 -121.34643555 171.31591797 C-125.77695036 160.91228033 -130.20867822 150.50916492 -134.64492798 140.10797119 C-136.70616611 135.27499255 -138.76668179 130.44170603 -140.82714844 125.60839844 C-141.7953779 123.33773803 -142.76394852 121.06722306 -143.73291016 118.796875 C-150.23415108 103.56368791 -156.65488973 88.29890244 -163 73 C-160.19767863 70.01899738 -157.47436174 68.66534703 -153.71875 66.98828125 C-153.08631378 66.7033783 -152.45387756 66.41847534 -151.80227661 66.12493896 C-149.70422302 65.18129857 -147.60210096 64.24708504 -145.5 63.3125 C-144.01315691 62.64523413 -142.52667218 61.97716921 -141.04052734 61.30834961 C-137.9261532 59.90704947 -134.81058242 58.50845899 -131.69433594 57.11132812 C-125.04445323 54.12541452 -118.41706065 51.09051836 -111.79003906 48.05429077 C-108.87016466 46.71671468 -105.94944398 45.38099174 -103.02874756 44.04521179 C-100.82149029 43.03569493 -98.614348 42.02592706 -96.40722656 41.01611328 C-92.01924242 39.00864757 -87.63078842 37.00221068 -83.2421875 34.99609375 C-82.52003555 34.66597794 -81.79788361 34.33586212 -81.05384827 33.9957428 C-77.42358039 32.336288 -73.79324392 30.67698336 -70.1628418 29.01782227 C-61.88021682 25.23228264 -53.59925207 21.443147 -45.31999207 17.6502533 C-39.44634061 14.9601255 -33.56892384 12.27832175 -27.68977356 9.60023499 C-23.7668933 7.81168161 -19.85314142 6.00488049 -15.9453125 4.18359375 C-14.31781979 3.43465358 -12.6902282 2.68592822 -11.0625 1.9375 C-10.37148193 1.60878906 -9.68046387 1.28007813 -8.96850586 0.94140625 C-5.56098115 -0.60961113 -3.5193417 -1.47202192 0 0 Z " fill="#A11C2A" transform="translate(394,1)"/>
<path d="M0 0 C7.00969795 -1.28334699 14.10012327 -2.27224335 21 0 C26.46967203 4.30313497 29.17588561 11.32020447 32.17138672 17.42773438 C35.37891233 23.83690728 39.19440239 29.92400429 42.8817749 36.06420898 C44.17791352 38.23395217 45.45680034 40.41299094 46.73095703 42.59570312 C47.13128647 43.27763733 47.53161591 43.95957153 47.94407654 44.66217041 C48.70247413 45.9541157 49.4574063 47.24810326 50.20838928 48.54437256 C52.03616113 51.8363483 52.03616113 51.8363483 55 54 C55.27368408 53.27522461 55.54736816 52.55044922 55.8293457 51.80371094 C56.95982625 49.09621593 58.24830165 46.67012392 59.73046875 44.140625 C60.55140015 42.73103516 60.55140015 42.73103516 61.38891602 41.29296875 C62.61220971 39.22331589 63.84348055 37.15836179 65.08178711 35.09765625 C68.46704049 29.44275875 71.64268715 23.78947336 74.5234375 17.859375 C82.92149417 1.22530079 82.92149417 1.22530079 88.70996094 -1.07861328 C94.92428336 -2.12129183 100.90007536 -1.43221753 107 0 C107.73145588 3.33589378 108.16343136 6.51877536 108.31007385 9.92915344 C108.35351929 10.89524033 108.39696472 11.86132721 108.44172668 12.85668945 C108.4848851 13.90469727 108.52804352 14.95270508 108.57250977 16.0324707 C108.62142365 17.14510788 108.67033752 18.25774506 108.72073364 19.40409851 C108.88131936 23.07784281 109.03638533 26.75179827 109.19140625 30.42578125 C109.30173849 32.97455798 109.41241504 35.52331983 109.52342224 38.07206726 C109.78480092 44.09249526 110.04270919 50.11306222 110.29893202 56.13371104 C110.59090911 62.98993664 110.88732596 69.84596804 111.18411171 76.70198691 C111.79434032 90.80111553 112.39842044 104.90049984 113 119 C105.74 119 98.48 119 91 119 C90.59008485 111.55172992 90.18119958 104.10340419 89.77319336 96.6550293 C89.63479186 94.13092592 89.49612816 91.60683689 89.35717773 89.08276367 C89.15536501 85.41589207 88.95448398 81.7489706 88.75390625 78.08203125 C88.68805328 76.88498566 88.62220032 75.68794006 88.55435181 74.45462036 C88.2483107 68.83182937 87.95803535 63.20936099 87.71435547 57.58349609 C87.67148911 56.60499191 87.62862274 55.62648773 87.5844574 54.61833191 C87.5068074 52.80446808 87.43306125 50.99043135 87.36390686 49.17622375 C87.28940826 44.95258157 87.28940826 44.95258157 86 41 C85.44054687 41.96035156 84.88109375 42.92070313 84.3046875 43.91015625 C79.13404512 52.7576511 73.88035137 61.55266691 68.5625 70.3125 C67.95970215 71.30838135 67.3569043 72.3042627 66.73583984 73.33032227 C66.16430176 74.26932373 65.59276367 75.2083252 65.00390625 76.17578125 C64.49674072 77.01020752 63.9895752 77.84463379 63.46704102 78.7043457 C62.98291748 79.46191162 62.49879395 80.21947754 62 81 C61.34040283 82.10843262 61.34040283 82.10843262 60.66748047 83.23925781 C58.32883261 85.7087056 56.67508147 85.79143751 53.31640625 85.99609375 C49.3367328 85.8518029 47.61751286 85.58475703 44.69873047 82.82080078 C42.55180549 79.67095589 40.71200972 76.42854605 38.9375 73.0625 C38.26646941 71.87052273 37.59064799 70.6812303 36.91015625 69.49462891 C35.55496675 67.12483633 34.21978603 64.74547319 32.89794922 62.35693359 C30.28515231 57.73563729 27.42889797 53.30027287 24.5 48.875 C23.61427517 47.51843032 22.72882209 46.16168314 21.84375 44.8046875 C21.2353125 43.87914062 20.626875 42.95359375 20 42 C19.04265986 49.42863082 18.67162161 56.85025651 18.36924744 64.32913208 C18.27963681 66.53979678 18.18583676 68.75024952 18.09094238 70.96069336 C17.82221154 77.23803963 17.5611343 83.5156979 17.30224609 89.79345703 C17.14296468 93.64893858 16.97911072 97.50420425 16.81248474 101.359375 C16.75006053 102.82658275 16.68947916 104.29387007 16.63075256 105.76123047 C16.5491155 107.80063092 16.46124464 109.839779 16.37304688 111.87890625 C16.32498901 113.0397876 16.27693115 114.20066895 16.22741699 115.39672852 C16 118 16 118 15 119 C13.5112814 119.08669432 12.018555 119.10703494 10.52734375 119.09765625 C9.62822266 119.09443359 8.72910156 119.09121094 7.80273438 119.08789062 C6.38444336 119.07532227 6.38444336 119.07532227 4.9375 119.0625 C3.98810547 119.05798828 3.03871094 119.05347656 2.06054688 119.04882812 C-0.29303369 119.03700109 -2.64647581 119.01968094 -5 119 C-5.11516236 105.65997319 -4.78091872 92.38717687 -4.16015625 79.0625 C-4.07257018 77.12061901 -3.98529131 75.17872414 -3.89830017 73.23681641 C-3.71684894 69.20641637 -3.5325433 65.17616114 -3.34594727 61.14599609 C-3.10817804 56.00803319 -2.87647226 50.86981881 -2.6467371 45.73149109 C-2.46768086 41.73690825 -2.28605425 37.74244555 -2.10360527 33.74801636 C-2.01726053 31.85361624 -1.93154887 29.95918714 -1.84651375 28.06472778 C-0.99733655 9.22744513 -0.99733655 9.22744513 0 0 Z " fill="#000000" transform="translate(249,884)"/>
<path d="M0 0 C2.49079856 2.18177572 4.84979605 4.43336581 7.17578125 6.7890625 C7.7378125 7.32917969 8.29984375 7.86929688 8.87890625 8.42578125 C19.32638435 19.34064653 23.77133932 35.31206463 23.61328125 50.0390625 C23.60570801 51.03905273 23.59813477 52.03904297 23.59033203 53.06933594 C23.19307311 71.07647385 16.85643921 85.0648284 4.17578125 97.7890625 C3.54929687 98.43875 2.9228125 99.0884375 2.27734375 99.7578125 C-7.54806643 109.21010584 -21.83221614 113.55935694 -35.26171875 114.1640625 C-51.84280142 113.42438595 -65.93441403 107.38574415 -77.82421875 95.7890625 C-89.17959591 82.85928296 -95.78155675 65.80325521 -95.109375 48.47265625 C-93.55330809 33.82857452 -89.70412602 21.73938547 -80.82421875 9.7890625 C-80.34726562 9.12261719 -79.8703125 8.45617187 -79.37890625 7.76953125 C-70.75786373 -3.21255055 -57.61312877 -9.15011434 -44.26171875 -11.9609375 C-27.79429 -13.15856868 -13.27715299 -10.39400912 0 0 Z M-62.82421875 22.7890625 C-68.68711384 31.3169099 -71.21764864 39.90825116 -71.13671875 50.1640625 C-71.1318042 50.90720703 -71.12688965 51.65035156 -71.12182617 52.41601562 C-70.86583764 64.46191679 -66.14444289 75.07263721 -57.82421875 83.7890625 C-50.73028985 90.1900112 -42.06264337 92.44343576 -32.62109375 92.13671875 C-23.18862079 90.96424655 -15.1860564 86.71400624 -8.91796875 79.63671875 C-0.36123552 68.45132806 1.70543228 55.50011909 0.17578125 41.7890625 C-2.09816736 29.71669486 -7.81536187 20.88690535 -17.82421875 13.7890625 C-33.59381635 4.32730394 -51.34093383 9.80107128 -62.82421875 22.7890625 Z " fill="#000000" transform="translate(998.82421875,892.2109375)"/>
<path d="M0 0 C61.63043478 0 61.63043478 0 72 9 C79.84365934 17.24042032 83.36598123 26.36188722 83.1484375 37.8046875 C82.41162192 48.70180208 78.77022415 57.9850318 70.74609375 65.52734375 C68.88432981 67.09755629 66.95307593 68.54572126 65 70 C71.59343408 82.75225273 78.25291071 95.45575417 85.25292969 107.99072266 C85.73020508 108.85358887 86.20748047 109.71645508 86.69921875 110.60546875 C87.12033936 111.35981201 87.54145996 112.11415527 87.9753418 112.89135742 C89 115 89 115 90 119 C81.75 119 73.5 119 65 119 C59.23982259 108.24202159 53.6723117 97.43124679 48.375 86.4375 C47.84229492 85.33736572 47.30958984 84.23723145 46.76074219 83.10375977 C46.26993164 82.07822998 45.77912109 81.0527002 45.2734375 79.99609375 C44.83435059 79.08013428 44.39526367 78.1641748 43.94287109 77.22045898 C43 75 43 75 43 73 C36.07 73 29.14 73 22 73 C22 88.18 22 103.36 22 119 C14.74 119 7.48 119 0 119 C0 79.73 0 40.46 0 0 Z M22 20 C22 30.89 22 41.78 22 53 C28.1875 53.12375 28.1875 53.12375 34.5 53.25 C35.78455078 53.28641602 37.06910156 53.32283203 38.39257812 53.36035156 C45.42334261 53.42816541 50.0851727 52.91062962 56 49 C59.62153194 44.6483569 61.25929091 39.66118493 61 34 C59.80097128 27.77427397 57.10794514 24.58642957 52 21 C49.18175808 19.59087904 46.82748718 19.88816447 43.6796875 19.90234375 C41.98175049 19.90609009 41.98175049 19.90609009 40.24951172 19.90991211 C38.08412842 19.92356812 38.08412842 19.92356812 35.875 19.9375 C31.29625 19.958125 26.7175 19.97875 22 20 Z " fill="#000000" transform="translate(554,884)"/>
<path d="M0 0 C61.30935252 0 61.30935252 0 72.75390625 10.62890625 C80.29744604 18.77744171 82.28074187 28.13213911 82.1484375 38.94140625 C81.59038588 50.4402067 76.98571007 58.55105568 68.76953125 66.46875 C67 68 67 68 65 69 C66.31069757 73.23047886 67.92541861 77.04224347 69.9765625 80.96484375 C70.56163574 82.08834229 71.14670898 83.21184082 71.74951172 84.36938477 C72.37461477 85.55878789 72.99977855 86.74815911 73.625 87.9375 C74.25964624 89.15337197 74.89392232 90.36943723 75.52783203 91.58569336 C79.52966781 99.25243927 83.58873672 106.88696058 87.7421875 114.47265625 C89 117 89 117 89 119 C80.75 119 72.5 119 64 119 C60.875 112.75 60.875 112.75 59.76708984 110.52978516 C57.62487552 106.23842378 55.47267647 101.952278 53.30984497 97.67126465 C52.02609467 95.12886589 50.74558739 92.58484025 49.46539307 90.04064941 C48.82110711 88.76217948 48.175392 87.48442879 47.52825928 86.20739746 C46.60892819 84.39271936 45.6949804 82.57531711 44.78125 80.7578125 C44.24564453 79.6970752 43.71003906 78.63633789 43.15820312 77.54345703 C42 75 42 75 42 73 C35.07 73 28.14 73 21 73 C21 88.18 21 103.36 21 119 C14.07 119 7.14 119 0 119 C0 79.73 0 40.46 0 0 Z M21 20 C21 30.89 21 41.78 21 53 C25.16625 53.061875 29.3325 53.12375 33.625 53.1875 C34.92775879 53.21481201 36.23051758 53.24212402 37.57275391 53.27026367 C45.26148866 53.32561685 50.01178537 52.8523867 55.75 47.375 C58.61256408 43.61091411 59.8137839 39.70971557 60 35 C59.2905033 30.04158554 57.78216369 26.28732915 53.9375 23 C49.71671551 20.12627439 47.77601405 19.87938732 42.6796875 19.90234375 C40.98175049 19.90609009 40.98175049 19.90609009 39.24951172 19.90991211 C37.08412842 19.92356812 37.08412842 19.92356812 34.875 19.9375 C30.29625 19.958125 25.7175 19.97875 21 20 Z " fill="#000000" transform="translate(691,884)"/>
<path d="M0 0 C7.59 0 15.18 0 23 0 C23.59723877 1.66643555 24.19447754 3.33287109 24.80981445 5.04980469 C27.38095772 12.22221215 29.95427626 19.39383761 32.52836227 26.56518936 C33.30904377 28.74037005 34.08948635 30.91563635 34.86990356 33.09091187 C40.4534673 48.65168055 46.05578725 64.20484924 51.7578125 79.72265625 C52.2016478 80.93152496 52.64548309 82.14039368 53.10276794 83.38589478 C55.19804405 89.08960841 57.29948629 94.79095193 59.40942383 100.48925781 C60.15719956 102.52013231 60.90484732 104.55105393 61.65234375 106.58203125 C61.99496246 107.50089615 62.33758118 108.41976105 62.69058228 109.36647034 C62.9975705 110.20306686 63.30455872 111.03966339 63.62084961 111.90161133 C63.88900986 112.6256868 64.1571701 113.34976227 64.43345642 114.09577942 C65 116 65 116 65 119 C56.75 119 48.5 119 40 119 C38.71406128 115.21107341 37.43091712 111.42137473 36.15478516 107.62915039 C35.71988772 106.33953841 35.28337578 105.05046971 34.84521484 103.76196289 C34.21547426 101.9091547 33.59202743 100.05421111 32.96875 98.19921875 C32.59169922 97.08377686 32.21464844 95.96833496 31.82617188 94.8190918 C31 92 31 92 31 89 C17.14 89 3.28 89 -11 89 C-11.66 91.97 -12.32 94.94 -13 98 C-13.5409671 99.83476235 -14.11142329 101.66141302 -14.7265625 103.47265625 C-15.00580566 104.30289307 -15.28504883 105.13312988 -15.57275391 105.98852539 C-15.91999512 107.00293701 -16.26723633 108.01734863 -16.625 109.0625 C-17.73875 112.341875 -18.8525 115.62125 -20 119 C-27.59 119 -35.18 119 -43 119 C-40.7500303 108.87513634 -40.7500303 108.87513634 -39.31445312 104.98242188 C-38.99165878 104.09842209 -38.66886444 103.2144223 -38.33628845 102.30363464 C-37.98812576 101.36812271 -37.63996307 100.43261078 -37.28125 99.46875 C-36.91089127 98.45931839 -36.54053253 97.44988678 -36.15895081 96.40986633 C-34.94476646 93.10453692 -33.72251338 89.8022569 -32.5 86.5 C-31.65110774 84.19509101 -30.80272621 81.88999385 -29.95483398 79.5847168 C-28.19502841 74.80207988 -26.43216815 70.0205836 -24.66748047 65.23974609 C-22.05665548 58.16124757 -19.46587057 51.07552816 -16.87890625 43.98828125 C-15.66387613 40.66378927 -14.44848393 37.33942995 -13.23291016 34.01513672 C-12.45815959 31.89515801 -11.68422185 29.77488206 -10.91113281 27.65429688 C-9.8304565 24.69160724 -8.7457863 21.73040864 -7.66015625 18.76953125 C-7.19096519 17.47901604 -7.19096519 17.47901604 -6.71229553 16.16242981 C-6.41286545 15.3480394 -6.11343536 14.53364899 -5.80493164 13.69458008 C-5.55135391 13.0009285 -5.29777618 12.30727692 -5.03651428 11.59260559 C-3.47247995 7.68052814 -1.71111844 3.8500165 0 0 Z M10 27 C8.14285418 32.49734921 6.29159767 37.99663258 4.44580078 43.49780273 C3.81688839 45.36944211 3.18636244 47.2405401 2.55419922 49.11108398 C1.64647731 51.79791235 0.74455223 54.48662629 -0.15625 57.17578125 C-0.44060913 58.01337479 -0.72496826 58.85096832 -1.01794434 59.71394348 C-1.27821411 60.49452621 -1.53848389 61.27510895 -1.80664062 62.0793457 C-2.03758423 62.76551468 -2.26852783 63.45168365 -2.50646973 64.15864563 C-3.12944399 66.16522921 -3.12944399 66.16522921 -3 69 C6.24 69 15.48 69 25 69 C23.19222685 63.17693354 21.37999616 57.35568135 19.55566406 51.5378418 C18.93604997 49.5569297 18.31917943 47.57515733 17.70507812 45.5925293 C16.82355559 42.7481973 15.9323169 39.90707235 15.0390625 37.06640625 C14.76502594 36.17474258 14.49098938 35.28307892 14.20864868 34.36439514 C13.94852997 33.54361984 13.68841125 32.72284454 13.42041016 31.87719727 C13.19390778 31.15105728 12.9674054 30.4249173 12.73403931 29.67677307 C12.12340719 27.79503237 12.12340719 27.79503237 10 27 Z " fill="#000000" transform="translate(446,884)"/>
<path d="M0 0 C32.34 0 64.68 0 98 0 C98 6.6 98 13.2 98 20 C85.46 20 72.92 20 60 20 C60 52.67 60 85.34 60 119 C52.74 119 45.48 119 38 119 C38 86.33 38 53.66 38 20 C25.46 20 12.92 20 0 20 C0 13.4 0 6.8 0 0 Z " fill="#000000" transform="translate(1182,884)"/>
<path d="M0 0 C32.34 0 64.68 0 98 0 C98 6.6 98 13.2 98 20 C85.46 20 72.92 20 60 20 C60 52.67 60 85.34 60 119 C52.74 119 45.48 119 38 119 C38 86.33 38 53.66 38 20 C25.46 20 12.92 20 0 20 C0 13.4 0 6.8 0 0 Z " fill="#000000" transform="translate(1049,884)"/>
<path d="M0 0 C7.26 0 14.52 0 22 0 C22 39.27 22 78.54 22 119 C14.74 119 7.48 119 0 119 C0 79.73 0 40.46 0 0 Z " fill="#000000" transform="translate(832,884)"/>
</svg>
