<?xml version="1.0" encoding="UTF-8"?>
<svg version="1.1" xmlns="http://www.w3.org/2000/svg" width="3000" height="2000">
<path d="M0 0 C1.45608673 0.00090637 1.45608673 0.00090637 2.94158936 0.00183105 C83.25895164 0.13611638 162.85635821 14.7831694 326.09130859 83.87402344 C328.08378532 84.98947867 330.08142334 86.09455128 332.08203125 87.1953125 C360.10961387 102.85280122 387.40471055 121.05879503 412.4375 141.1875 C416.4831726 139.44073317 419.78571686 136.73101667 423.25 134.0625 C457.43487982 108.13051902 494.15105818 86.43109735 532.4375 67.1875 C533.33645996 66.73068848 534.23541992 66.27387695 535.16162109 65.80322266 C553.05139127 56.75069543 571.77379067 49.46747893 590.4375 42.1875 C591.07449829 41.93873108 591.71149658 41.68996216 592.36779785 41.43365479 C647.92462388 19.8190184 707.22580004 7.81517954 766.4375 2.1875 C767.58831055 2.07035645 768.73912109 1.95321289 769.92480469 1.83251953 C856.01458145 -6.69536092 946.24484841 4.55103916 1028.4375 31.1875 C1029.47227478 31.52264618 1029.47227478 31.52264618 1030.5279541 31.86456299 C1081.74361691 48.51118088 1130.56977757 70.97764029 1176.4375 99.1875 C1177.93265137 100.10644043 1177.93265137 100.10644043 1179.45800781 101.04394531 C1192.18273424 108.90820863 1204.42743607 117.27606821 1216.4375 126.1875 C1219.07506177 128.13594216 1221.71363931 130.08299827 1224.3527832 132.02929688 C1226.04448438 133.2782188 1227.73449598 134.52943336 1229.42260742 135.78320312 C1230.18033447 136.34458984 1230.93806152 136.90597656 1231.71875 137.484375 C1232.72518555 138.23219238 1232.72518555 138.23219238 1233.75195312 138.99511719 C1235.43396374 140.24883735 1235.43396374 140.24883735 1237.4375 141.1875 C1237.4375 141.8475 1237.4375 142.5075 1237.4375 143.1875 C1238.02523193 143.46207031 1238.61296387 143.73664063 1239.21850586 144.01953125 C1241.35667765 145.14495911 1243.0698349 146.35504774 1244.94140625 147.875 C1245.59431641 148.40399902 1246.24722656 148.93299805 1246.91992188 149.47802734 C1247.60634766 150.04215332 1248.29277344 150.6062793 1249 151.1875 C1249.71091797 151.76838379 1250.42183594 152.34926758 1251.15429688 152.94775391 C1256.2682618 157.15511033 1261.210548 161.50075216 1266.0703125 166 C1268.12060095 167.894656 1270.19940274 169.73874801 1272.3125 171.5625 C1282.51739425 180.48670035 1292.21895568 189.86591095 1301.8125 199.4375 C1302.33432861 199.95674042 1302.85615723 200.47598083 1303.39379883 201.01095581 C1308.76195153 206.35812269 1314.05495283 211.72723545 1318.98388672 217.48876953 C1321.03223747 219.88252576 1323.17486065 222.18602339 1325.3125 224.5 C1330.23374205 229.90226571 1334.8514906 235.50055671 1339.4375 241.1875 C1340.41157866 242.37076549 1341.38691 243.55300053 1342.36328125 244.734375 C1363.92094258 270.88233723 1383.34393472 298.91629932 1400.4375 328.1875 C1400.88641602 328.94691895 1401.33533203 329.70633789 1401.79785156 330.48876953 C1442.94616702 400.22714833 1471.22292488 478.35672663 1492.625 653.25 C1492.66760956 654.52140839 1492.71021912 655.79281677 1492.75411987 657.10275269 C1492.87474998 660.76761996 1492.99155725 664.43257432 1493.10546875 668.09765625 C1493.13968933 669.19856598 1493.17390991 670.29947571 1493.20916748 671.43374634 C1493.68766073 687.68717854 1493.68766073 687.68717854 1492.4375 690.1875 C1492.30624645 692.27352683 1492.23461444 694.36341964 1492.19140625 696.453125 C1492.15853516 697.73703125 1492.12566406 699.0209375 1492.09179688 700.34375 C1492.02993382 703.0259782 1491.9742591 705.70822171 1491.91992188 708.390625 C1491.72158649 715.93485389 1491.14032784 723.23406276 1489.97485352 730.68994141 C1489.42036999 734.29899684 1488.96908031 737.90880648 1488.54296875 741.53515625 C1486.53523759 758.45481465 1484.0348551 775.17264018 1480.9987793 791.94238281 C1480.41845635 795.29760363 1479.91274279 798.65852528 1479.41796875 802.02734375 C1478.69126065 806.83761467 1477.7195636 811.38975806 1476.375 816.0625 C1475.02475356 820.78071963 1474.11173537 825.32954775 1473.4375 830.1875 C1472.859375 832.20703125 1472.859375 832.20703125 1472.1875 834 C1470.50943643 838.80043061 1469.12048727 843.66741801 1467.75 848.5625 C1467.52344727 849.36018799 1467.29689453 850.15787598 1467.06347656 850.97973633 C1466.85303711 851.73665771 1466.64259766 852.4935791 1466.42578125 853.2734375 C1466.23540283 853.9545459 1466.04502441 854.6356543 1465.84887695 855.33740234 C1465.3289734 857.35969962 1465.3289734 857.35969962 1465.4375 860.1875 C1464.7775 860.1875 1464.1175 860.1875 1463.4375 860.1875 C1463.32792969 860.78175781 1463.21835938 861.37601563 1463.10546875 861.98828125 C1460.54182867 875.39007451 1460.54182867 875.39007451 1458.4375 881.1875 C1457.7775 881.5175 1457.1175 881.8475 1456.4375 882.1875 C1456.08923088 884.18495331 1455.75930648 886.18561296 1455.4375 888.1875 C1454.57944246 890.64443752 1453.6871826 893.03953922 1452.71484375 895.44921875 C1452.44990616 896.12169144 1452.18496857 896.79416412 1451.91200256 897.48701477 C1451.07188476 899.61859018 1450.22429349 901.7470654 1449.375 903.875 C1448.52243247 906.01375402 1447.6716954 908.15313129 1446.82728577 910.29512024 C1446.30351647 911.62369092 1445.77507317 912.9504307 1445.24143982 914.27507019 C1444.13312609 917.08558768 1443.4375 919.13385616 1443.4375 922.1875 C1442.7775 922.1875 1442.1175 922.1875 1441.4375 922.1875 C1441.045625 923.445625 1440.65375 924.70375 1440.25 926 C1438.69441883 930.68886077 1436.70868716 935.09778299 1434.62109375 939.5703125 C1433.6399552 941.73982679 1432.78682686 943.88091392 1432 946.125 C1430.31399602 950.83992974 1427.95193504 955.2132818 1425.64453125 959.6484375 C1424.2943866 962.01998709 1424.2943866 962.01998709 1424.4375 964.1875 C1423.7775 964.1875 1423.1175 964.1875 1422.4375 964.1875 C1422.06818359 965.43466797 1422.06818359 965.43466797 1421.69140625 966.70703125 C1420.26306109 970.67169024 1418.40916178 974.19604193 1416.375 977.875 C1413.58967401 982.88459474 1413.58967401 982.88459474 1411.4375 988.1875 C1410.7775 988.1875 1410.1175 988.1875 1409.4375 988.1875 C1409.210625 988.97125 1408.98375 989.755 1408.75 990.5625 C1407.03089067 995.31051625 1404.75665279 999.70852552 1402.4375 1004.1875 C1401.7775 1004.1875 1401.1175 1004.1875 1400.4375 1004.1875 C1400.0353125 1005.486875 1400.0353125 1005.486875 1399.625 1006.8125 C1398.46638013 1010.10541964 1397.05540161 1013.09877875 1395.4375 1016.1875 C1394.7775 1016.1875 1394.1175 1016.1875 1393.4375 1016.1875 C1392.7775 1018.1675 1392.1175 1020.1475 1391.4375 1022.1875 C1390.7775 1022.1875 1390.1175 1022.1875 1389.4375 1022.1875 C1389.178479 1022.90010986 1388.91945801 1023.61271973 1388.65258789 1024.34692383 C1387.36196861 1027.36407378 1385.80571871 1029.90070693 1383.99609375 1032.63671875 C1383.33029297 1033.64927734 1382.66449219 1034.66183594 1381.97851562 1035.70507812 C1381.28435547 1036.75115234 1380.59019531 1037.79722656 1379.875 1038.875 C1378.49786208 1040.9616882 1377.1215187 1043.04890106 1375.74609375 1045.13671875 C1374.83041626 1046.51863403 1374.83041626 1046.51863403 1373.89624023 1047.9284668 C1372.43576633 1050.09971355 1372.43576633 1050.09971355 1371.4375 1052.1875 C1370.7775 1052.1875 1370.1175 1052.1875 1369.4375 1052.1875 C1369.22222656 1052.86554688 1369.00695313 1053.54359375 1368.78515625 1054.2421875 C1367.02196383 1058.09565731 1364.5537629 1061.05408162 1361.875 1064.3125 C1360.8698626 1065.54114318 1359.86839767 1066.77280232 1358.87109375 1068.0078125 C1358.42822021 1068.54680176 1357.98534668 1069.08579102 1357.52905273 1069.64111328 C1356.23332475 1071.31879931 1356.23332475 1071.31879931 1355.4375 1074.1875 C1354.31246308 1075.31253692 1353.18338229 1076.43379658 1352.03515625 1077.53515625 C1347.91958393 1081.7916039 1343.94929017 1086.54393249 1341.0078125 1091.6875 C1339.15067225 1094.6441412 1336.95223455 1096.7696293 1334.4375 1099.1875 C1332.69506535 1101.02920379 1330.96589388 1102.88354357 1329.25 1104.75 C1328.39019531 1105.67941406 1327.53039063 1106.60882812 1326.64453125 1107.56640625 C1324.76657856 1109.79668281 1323.70661805 1111.622146 1322.4375 1114.1875 C1320.87890625 1115.6875 1320.87890625 1115.6875 1319 1117.1875 C1314.75574139 1120.76568883 1311.08239428 1124.7130822 1307.38305664 1128.8359375 C1305.24958502 1131.21297753 1303.09279011 1133.53169308 1300.83203125 1135.7890625 C1298.69645756 1137.92812 1296.75590302 1140.12596337 1294.8125 1142.4375 C1290.94311127 1146.84287616 1286.66363538 1150.44203965 1282.05078125 1154.046875 C1278.31519488 1157.1068172 1275.12038169 1160.16317746 1272.4375 1164.1875 C1270.77537066 1165.19502361 1269.10796647 1166.19386046 1267.4375 1167.1875 C1265.56874919 1168.77164221 1263.73668478 1170.39977025 1261.9375 1172.0625 C1261.0196875 1172.90554688 1260.101875 1173.74859375 1259.15625 1174.6171875 C1257.31234705 1176.36041759 1255.52099085 1178.16061707 1253.78125 1180.0078125 C1251.4375 1182.1875 1251.4375 1182.1875 1248.4375 1182.1875 C1248.1075 1183.1775 1247.7775 1184.1675 1247.4375 1185.1875 C1245.53125 1186.7734375 1245.53125 1186.7734375 1242.9375 1188.5625 C1237.79329657 1192.18896195 1232.79172602 1195.96288129 1227.8125 1199.8125 C1222.63746563 1203.8048158 1217.46459559 1207.68413101 1211.90625 1211.13671875 C1210.26900868 1212.13513187 1210.26900868 1212.13513187 1209.4375 1214.1875 C1208.09273362 1215.00994296 1206.71085035 1215.7723838 1205.3125 1216.5 C1202.20784911 1218.16373636 1199.33003238 1219.90279706 1196.5 1222 C1193.4375 1224.1875 1193.4375 1224.1875 1191.4375 1224.1875 C1191.4375 1224.8475 1191.4375 1225.5075 1191.4375 1226.1875 C1190.52484375 1226.66316406 1190.52484375 1226.66316406 1189.59375 1227.1484375 C1182.77186498 1230.78008805 1176.24019852 1234.74814838 1169.74609375 1238.93505859 C1164.64773937 1242.1875 1164.64773937 1242.1875 1162.4375 1242.1875 C1162.4375 1242.8475 1162.4375 1243.5075 1162.4375 1244.1875 C1161.633125 1244.579375 1160.82875 1244.97125 1160 1245.375 C1156.39463636 1247.20930782 1152.89420685 1249.17929656 1149.390625 1251.19921875 C1147.4375 1252.1875 1147.4375 1252.1875 1145.4375 1252.1875 C1145.1075 1252.8475 1144.7775 1253.5075 1144.4375 1254.1875 C1143.4475 1254.1875 1142.4575 1254.1875 1141.4375 1254.1875 C1141.4375 1254.8475 1141.4375 1255.5075 1141.4375 1256.1875 C1140.81746094 1256.455625 1140.19742188 1256.72375 1139.55859375 1257 C1133.85711093 1259.52292689 1128.3457995 1262.26919542 1122.875 1265.25 C1118.05870213 1267.8663791 1113.30660234 1270.14089077 1108.1640625 1272.05859375 C1104.46336078 1273.59083271 1100.93816318 1275.42458552 1097.375 1277.25 C1083.76316842 1284.1875 1083.76316842 1284.1875 1077.4375 1284.1875 C1077.1075 1284.8475 1076.7775 1285.5075 1076.4375 1286.1875 C1074.35484949 1287.0965135 1072.23105674 1287.91180456 1070.09375 1288.68359375 C1069.45062866 1288.91780533 1068.80750732 1289.15201691 1068.14489746 1289.39332581 C1066.07814008 1290.14397266 1064.00789057 1290.88444092 1061.9375 1291.625 C1060.57268693 1292.11980948 1059.20810073 1292.61524522 1057.84375 1293.11132812 C1052.30982677 1295.11718971 1046.77091356 1297.09965752 1041.1796875 1298.94140625 C1037.45418295 1300.11499033 1037.45418295 1300.11499033 1034.0625 1301.6875 C1029.29895156 1303.65862349 1024.42680437 1304.91916229 1019.4375 1306.1875 C1018.74398437 1306.37183594 1018.05046875 1306.55617188 1017.3359375 1306.74609375 C1015.4375 1307.1875 1015.4375 1307.1875 1011.75 1307.625 C1010.656875 1307.810625 1009.56375 1307.99625 1008.4375 1308.1875 C1008.1075 1308.8475 1007.7775 1309.5075 1007.4375 1310.1875 C1005.4575 1310.1875 1003.4775 1310.1875 1001.4375 1310.1875 C1001.1075 1310.8475 1000.7775 1311.5075 1000.4375 1312.1875 C998.1796875 1312.75 998.1796875 1312.75 995.3125 1313.1875 C991.98323904 1313.73087679 988.78148356 1314.3012264 985.5625 1315.3125 C982.66723169 1316.12317513 980.41914781 1316.36820593 977.4375 1316.1875 C977.4375 1316.8475 977.4375 1317.5075 977.4375 1318.1875 C976.24125 1318.290625 975.045 1318.39375 973.8125 1318.5 C968.34607461 1319.09870373 963.03535303 1320.27686599 957.671875 1321.46875 C951.97453395 1322.73482579 946.25698694 1323.7381846 940.5 1324.6875 C939.71431641 1324.81769531 938.92863281 1324.94789062 938.11914062 1325.08203125 C936.57817045 1325.33735518 935.03707555 1325.59192763 933.49584961 1325.84570312 C931.85269864 1326.11855467 930.21119996 1326.40135069 928.5703125 1326.6875 C922.80753101 1327.60724567 917.01480544 1328.32648468 911.22851562 1329.08203125 C910.27267578 1329.20964844 909.31683594 1329.33726563 908.33203125 1329.46875 C907.46425049 1329.58283203 906.59646973 1329.69691406 905.70239258 1329.81445312 C903.28039658 1330.1521762 903.28039658 1330.1521762 900.4375 1331.1875 C897.8087303 1331.39549057 895.19515801 1331.56062492 892.5625 1331.6875 C891.01036483 1331.76986219 889.45828131 1331.85320333 887.90625 1331.9375 C886.75962891 1331.999375 886.75962891 1331.999375 885.58984375 1332.0625 C882.74357526 1332.22780053 879.90384785 1332.45316203 877.0625 1332.6875 C870.73459518 1333.1994923 864.40097232 1333.51582288 858.05908203 1333.79492188 C857.28806152 1333.83166016 856.51704102 1333.86839844 855.72265625 1333.90625 C855.04082275 1333.93654297 854.35898926 1333.96683594 853.65649414 1333.99804688 C851.3349407 1334.16040082 851.3349407 1334.16040082 848.66777039 1334.69599915 C845.5474084 1335.17077692 842.68602515 1335.28502065 839.53417969 1335.2409668 C838.39148621 1335.2273259 837.24879272 1335.213685 836.07147217 1335.19963074 C834.23398407 1335.1684893 834.23398407 1335.1684893 832.359375 1335.13671875 C831.07879211 1335.1178511 829.79820923 1335.09898346 828.4788208 1335.07954407 C825.76542773 1335.03864266 823.05214501 1334.99347634 820.33886719 1334.94555664 C817.59282685 1334.89748238 814.84682102 1334.85577744 812.10058594 1334.82055664 C798.37999964 1334.64415307 784.76257264 1334.46382398 771.14501953 1332.67114258 C764.80557486 1331.84416774 758.43165749 1331.43343166 752.05664062 1330.9765625 C746.20518512 1330.52374806 740.53480181 1329.75154372 734.77905273 1328.59594727 C731.97550379 1328.10691199 729.27683126 1328.11651672 726.4375 1328.1875 C725.4475 1327.8575 724.4575 1327.5275 723.4375 1327.1875 C721.98337031 1326.89493606 720.52402453 1326.62804713 719.0625 1326.375 C715.1062234 1325.67839753 711.16035928 1324.94261621 707.21875 1324.16796875 C706.28981934 1323.98661377 705.36088867 1323.80525879 704.40380859 1323.6184082 C702.53104151 1323.25199725 700.65894812 1322.88212351 698.78759766 1322.50854492 C697.473479 1322.252948 697.473479 1322.252948 696.1328125 1321.9921875 C695.34922363 1321.83733887 694.56563477 1321.68249023 693.75830078 1321.52294922 C691.28828801 1321.16593286 688.92975317 1321.13069494 686.4375 1321.1875 C686.4375 1320.5275 686.4375 1319.8675 686.4375 1319.1875 C685.44363281 1319.22488281 684.44976563 1319.26226563 683.42578125 1319.30078125 C679.28480018 1319.18316279 675.59689666 1318.44382052 671.625 1317.375 C670.92141357 1317.19267822 670.21782715 1317.01035645 669.49291992 1316.82250977 C664.93656384 1315.62886693 660.42994156 1314.30508295 655.93359375 1312.90234375 C651.90483736 1311.74856845 647.80960669 1310.89847472 643.7109375 1310.03125 C640.60771671 1309.23137447 637.70037646 1308.17262738 634.71484375 1307.01757812 C631.17837752 1305.72855742 627.56972358 1304.70285543 623.96069336 1303.63769531 C612.76027949 1300.32296557 601.78221993 1296.60133661 590.875 1292.4375 C589.66948486 1291.97794922 588.46396973 1291.51839844 587.22192383 1291.04492188 C581.53172255 1288.84829715 575.90491628 1286.58566945 570.37939453 1284 C567.15155094 1282.64945141 563.85062417 1281.93218164 560.4375 1281.1875 C560.4375 1280.5275 560.4375 1279.8675 560.4375 1279.1875 C558.705 1278.6615625 558.705 1278.6615625 556.9375 1278.125 C543.5598068 1273.62409388 531.10672751 1267.08874116 518.71533203 1260.41308594 C516.55253108 1259.24939239 514.38497716 1258.09526266 512.21484375 1256.9453125 C506.15952796 1253.73444173 500.12274449 1250.49980063 494.171875 1247.09765625 C492.28050613 1246.04582511 492.28050613 1246.04582511 489.4375 1245.1875 C489.4375 1244.5275 489.4375 1243.8675 489.4375 1243.1875 C488.4475 1243.1875 487.4575 1243.1875 486.4375 1243.1875 C486.4375 1242.5275 486.4375 1241.8675 486.4375 1241.1875 C485.869104 1241.07792969 485.30070801 1240.96835938 484.71508789 1240.85546875 C482.11854352 1240.09395675 480.26381533 1238.97330606 477.99609375 1237.5 C477.16529297 1236.96632813 476.33449219 1236.43265625 475.47851562 1235.8828125 C474.61935547 1235.32335938 473.76019531 1234.76390625 472.875 1234.1875 C471.16723167 1233.08044779 469.45767083 1231.97615448 467.74609375 1230.875 C466.99126709 1230.38386719 466.23644043 1229.89273437 465.45874023 1229.38671875 C463.35583144 1228.04243798 463.35583144 1228.04243798 460.4375 1227.1875 C459.42066481 1226.2046235 458.42264222 1225.20214023 457.4375 1224.1875 C456.02266803 1223.13598882 454.58399262 1222.11615602 453.12890625 1221.12109375 C452.29939453 1220.55326172 451.46988281 1219.98542969 450.61523438 1219.40039062 C449.75220703 1218.81451172 448.88917969 1218.22863281 448 1217.625 C447.14083984 1217.03525391 446.28167969 1216.44550781 445.39648438 1215.83789062 C441.8180418 1213.39766485 438.35848501 1211.04656376 434.4375 1209.1875 C434.4375 1208.5275 434.4375 1207.8675 434.4375 1207.1875 C433.86 1206.89875 433.2825 1206.61 432.6875 1206.3125 C430.60416667 1205.27083333 428.52083333 1204.22916667 426.4375 1203.1875 C426.4375 1202.5275 426.4375 1201.8675 426.4375 1201.1875 C425.4475 1201.1875 424.4575 1201.1875 423.4375 1201.1875 C423.4375 1200.5275 423.4375 1199.8675 423.4375 1199.1875 C421.7875 1198.5275 420.1375 1197.8675 418.4375 1197.1875 C418.4375 1196.5275 418.4375 1195.8675 418.4375 1195.1875 C415.81959984 1193.70441072 415.81959984 1193.70441072 412.4375 1193.1875 C409.78935168 1194.76041408 407.83366547 1196.18101218 405.5625 1198.1875 C404.33107402 1199.21525708 403.09930507 1200.24260337 401.8671875 1201.26953125 C401.27905273 1201.77178223 400.69091797 1202.2740332 400.08496094 1202.79150391 C391.35670252 1210.1875 391.35670252 1210.1875 388.4375 1210.1875 C388.4375 1210.8475 388.4375 1211.5075 388.4375 1212.1875 C386.4609375 1213.51953125 386.4609375 1213.51953125 383.8125 1215 C380.72809023 1216.78229569 378.11949911 1218.45358238 375.375 1220.75 C372.97751893 1222.73939918 370.99180192 1224.05533201 368.28515625 1225.5 C363.6938611 1228.00909401 359.32454642 1230.77855355 354.9375 1233.625 C346.1789463 1239.24132803 337.17813584 1244.35952456 328.06640625 1249.37866211 C323.75614745 1251.75517579 319.47466512 1254.11879565 315.3359375 1256.78515625 C310.8287219 1259.64929057 306.07626392 1261.91467379 301.25 1264.1875 C300.25589111 1264.65752441 299.26178223 1265.12754883 298.23754883 1265.61181641 C294.97512391 1267.14633555 291.70713193 1268.66840215 288.4375 1270.1875 C286.77799316 1270.9623877 286.77799316 1270.9623877 285.08496094 1271.75292969 C215.31361814 1304.1875 215.31361814 1304.1875 198.4375 1304.1875 C198.1075 1304.8475 197.7775 1305.5075 197.4375 1306.1875 C192.038356 1307.99297375 186.4116369 1309.17354242 180.75 1309.75 C179.656875 1309.894375 178.56375 1310.03875 177.4375 1310.1875 C177.1075 1310.8475 176.7775 1311.5075 176.4375 1312.1875 C174.09825563 1312.85812576 171.81815231 1313.39101102 169.4375 1313.875 C168.28519897 1314.11947876 168.28519897 1314.11947876 167.10961914 1314.36889648 C165.29922016 1314.75226499 163.48802723 1315.13189395 161.67626953 1315.50878906 C157.94629528 1316.29043601 154.2211679 1317.09385951 150.49609375 1317.8984375 C123.95797352 1323.61409063 123.95797352 1323.61409063 111.09375 1325.6796875 C108.52470176 1325.91304785 108.52470176 1325.91304785 107.4375 1327.1875 C106.12011547 1327.40158195 104.79320151 1327.55789001 103.46484375 1327.6875 C102.64693359 1327.77 101.82902344 1327.8525 100.98632812 1327.9375 C100.12458984 1328.02 99.26285156 1328.1025 98.375 1328.1875 C96.69653882 1328.35340195 95.01815235 1328.52006157 93.33984375 1328.6875 C92.09448853 1328.81125 92.09448853 1328.81125 90.82397461 1328.9375 C88.69061678 1329.16098424 86.56490455 1329.41385821 84.4375 1329.6875 C79.80098859 1330.28268462 75.15217943 1330.73397451 70.5 1331.1875 C65.72119752 1331.6555082 60.94483231 1332.12405003 56.17578125 1332.68359375 C36.22167899 1334.90869932 16.18329951 1335.38318912 -3.875 1335.375 C-4.83476746 1335.37581573 -5.79453491 1335.37663147 -6.78338623 1335.37747192 C-9.51842879 1335.37720807 -12.25327209 1335.36844017 -14.98828125 1335.35546875 C-15.8118663 1335.35427032 -16.63545135 1335.3530719 -17.48399353 1335.35183716 C-20.76226762 1335.32463301 -23.43097037 1335.23134321 -26.5625 1334.1875 C-27.93725531 1334.13763333 -29.31425035 1334.13765323 -30.68945312 1334.1730957 C-35.35065219 1334.22370213 -39.89679629 1333.8865207 -44.53125 1333.41796875 C-45.36015244 1333.33756851 -46.18905487 1333.25716827 -47.04307556 1333.17433167 C-49.71677398 1332.91320106 -52.38968119 1332.64497748 -55.0625 1332.375 C-55.98443146 1332.28246948 -56.90636292 1332.18993896 -57.85623169 1332.09460449 C-62.46611882 1331.63117272 -67.07539377 1331.16221564 -71.68408203 1330.68701172 C-75.56787762 1330.28697808 -79.45335459 1329.90818571 -83.33984375 1329.53515625 C-125.77855999 1325.21571226 -167.3618025 1314.26194986 -207.79255676 1301.03939819 C-210.9249731 1300.01833364 -214.05841924 1299.047224 -217.22900391 1298.15039062 C-220.15143218 1297.30623821 -222.93884875 1296.3489742 -225.76953125 1295.2421875 C-227.14334961 1294.71044922 -227.14334961 1294.71044922 -228.54492188 1294.16796875 C-230.45123401 1293.42333613 -232.35748276 1292.67854122 -234.26367188 1291.93359375 C-235.17310547 1291.58167969 -236.08253906 1291.22976563 -237.01953125 1290.8671875 C-238.2566687 1290.38354736 -238.2566687 1290.38354736 -239.51879883 1289.89013672 C-241.51753781 1289.07912429 -241.51753781 1289.07912429 -243.5625 1289.1875 C-243.5625 1288.5275 -243.5625 1287.8675 -243.5625 1287.1875 C-244.27172607 1287.06906738 -244.98095215 1286.95063477 -245.71166992 1286.82861328 C-248.72935204 1286.14997722 -251.33288109 1285.14538414 -254.17578125 1283.9296875 C-255.25053711 1283.47279541 -256.32529297 1283.01590332 -257.43261719 1282.54516602 C-258.56860352 1282.05588623 -259.70458984 1281.56660645 -260.875 1281.0625 C-262.04836914 1280.55968506 -263.22173828 1280.05687012 -264.43066406 1279.53881836 C-266.76464356 1278.53769109 -269.09783489 1277.53472401 -271.43017578 1276.52978516 C-273.96616208 1275.44304683 -276.50762096 1274.3750439 -279.05859375 1273.32421875 C-288.74967739 1269.29077205 -297.85669412 1264.33317479 -307.02734375 1259.23828125 C-312.11539761 1256.41473473 -317.26633344 1253.7296382 -322.4375 1251.0625 C-329.36851727 1247.47084729 -336.02267414 1243.5609814 -342.57763672 1239.32177734 C-345.2296226 1237.6097182 -347.5524607 1236.19084643 -350.5625 1235.1875 C-350.5625 1234.5275 -350.5625 1233.8675 -350.5625 1233.1875 C-351.27148438 1232.93097656 -351.98046875 1232.67445312 -352.7109375 1232.41015625 C-355.78866588 1231.09052751 -358.39410987 1229.46802186 -361.1875 1227.625 C-364.03313329 1225.75000053 -366.32532389 1224.2665587 -369.5625 1223.1875 C-369.5625 1222.5275 -369.5625 1221.8675 -369.5625 1221.1875 C-370.25085938 1220.95546875 -370.93921875 1220.7234375 -371.6484375 1220.484375 C-375.19106053 1218.90776529 -378.1137216 1216.76163683 -381.1875 1214.4375 C-382.51040341 1213.45310718 -383.83332079 1212.46873315 -385.15625 1211.484375 C-385.86136719 1210.95650391 -386.56648438 1210.42863281 -387.29296875 1209.88476562 C-391.41305462 1206.80356544 -395.55040749 1203.74580232 -399.6875 1200.6875 C-400.49268066 1200.0884082 -401.29786133 1199.48931641 -402.12744141 1198.87207031 C-405.19724916 1196.59962362 -408.19523445 1194.40296245 -411.4921875 1192.46875 C-413.5625 1191.1875 -413.5625 1191.1875 -415.5625 1188.1875 C-416.5525 1187.8575 -417.5425 1187.5275 -418.5625 1187.1875 C-420.25123879 1185.54320171 -421.91555515 1183.87365782 -423.5625 1182.1875 C-425.22038785 1180.84326661 -426.88826317 1179.51131517 -428.5625 1178.1875 C-430.59416455 1176.42479308 -432.61024091 1174.64527461 -434.625 1172.86328125 C-436.22518678 1171.47924873 -437.88685203 1170.16664531 -439.5625 1168.875 C-440.2225 1168.318125 -440.8825 1167.76125 -441.5625 1167.1875 C-441.5625 1166.5275 -441.5625 1165.8675 -441.5625 1165.1875 C-442.15417969 1164.92582031 -442.74585938 1164.66414063 -443.35546875 1164.39453125 C-445.67949378 1163.12351579 -447.07947812 1161.80765004 -448.875 1159.875 C-451.14602887 1157.52165238 -453.33528883 1155.55179794 -456.0625 1153.75 C-459.59328889 1151.35410754 -462.08258934 1148.42063152 -464.80859375 1145.1640625 C-466.96986143 1142.72842454 -469.36472671 1140.7495102 -471.875 1138.6875 C-474.20865069 1136.61314383 -476.1071584 1134.25499447 -478.0859375 1131.84765625 C-479.53891424 1130.21401838 -481.03363871 1128.91106959 -482.75 1127.5625 C-485.5625 1125.1875 -485.5625 1125.1875 -486.9375 1122.875 C-488.518725 1120.25989711 -490.06637993 1118.61153941 -492.25 1116.5 C-496.11026278 1112.75348345 -499.42202596 1108.74166879 -502.703125 1104.484375 C-504.50672947 1102.17367769 -504.50672947 1102.17367769 -506.5390625 1100.21484375 C-509.58516031 1097.16286544 -512.11752726 1093.73451204 -514.7578125 1090.33203125 C-516.38463654 1088.11126498 -516.38463654 1088.11126498 -518.5625 1087.1875 C-518.95695313 1086.52492188 -519.35140625 1085.86234375 -519.7578125 1085.1796875 C-522.30785807 1080.95168987 -525.38030961 1077.18324625 -528.4375 1073.3125 C-540.5625 1057.92013158 -540.5625 1057.92013158 -540.5625 1055.1875 C-541.2225 1055.1875 -541.8825 1055.1875 -542.5625 1055.1875 C-543.4596875 1053.57875 -543.4596875 1053.57875 -544.375 1051.9375 C-545.59808027 1049.78296359 -546.81271742 1047.85685555 -548.3125 1045.875 C-549.5625 1044.1875 -549.5625 1044.1875 -549.5625 1042.1875 C-550.5525 1041.8575 -551.5425 1041.5275 -552.5625 1041.1875 C-553.5 1039.5625 -553.5 1039.5625 -554.5625 1037.1875 C-557.12061158 1032.37724013 -557.12061158 1032.37724013 -560.5625 1028.1875 C-564.5625 1021.99771898 -564.5625 1021.99771898 -564.5625 1019.1875 C-565.2225 1019.1875 -565.8825 1019.1875 -566.5625 1019.1875 C-566.85125 1018.40375 -567.14 1017.62 -567.4375 1016.8125 C-568.41162254 1014.09078368 -568.41162254 1014.09078368 -570.5625 1012.1875 C-571.81429031 1010.03510038 -573.01615549 1007.88258057 -574.1875 1005.6875 C-574.67476562 1004.79611328 -574.67476562 1004.79611328 -575.171875 1003.88671875 C-577.5625 999.43694196 -577.5625 999.43694196 -577.5625 997.1875 C-578.2225 997.1875 -578.8825 997.1875 -579.5625 997.1875 C-580.56734204 995.23164675 -581.56623805 993.27273763 -582.5625 991.3125 C-583.119375 990.22195313 -583.67625 989.13140625 -584.25 988.0078125 C-585.5625 985.1875 -585.5625 985.1875 -585.5625 983.1875 C-586.2225 982.8575 -586.8825 982.5275 -587.5625 982.1875 C-588.88693806 979.78919324 -590.11877596 977.39997894 -591.3125 974.9375 C-591.66376953 974.22255371 -592.01503906 973.50760742 -592.37695312 972.77099609 C-593.44799238 970.58080829 -594.50767906 968.38554025 -595.5625 966.1875 C-595.87896484 965.5284668 -596.19542969 964.86943359 -596.52148438 964.19042969 C-601.5625 953.63272777 -601.5625 953.63272777 -601.5625 951.1875 C-602.2225 950.8575 -602.8825 950.5275 -603.5625 950.1875 C-604.67578125 948.04199219 -604.67578125 948.04199219 -605.875 945.234375 C-606.31070313 944.22246094 -606.74640625 943.21054688 -607.1953125 942.16796875 C-607.87207031 940.56888672 -607.87207031 940.56888672 -608.5625 938.9375 C-609.01367188 937.88691406 -609.46484375 936.83632812 -609.9296875 935.75390625 C-611.15114105 932.90264337 -612.36611805 930.04937156 -613.5625 927.1875 C-614.12904297 925.87313965 -614.12904297 925.87313965 -614.70703125 924.53222656 C-615.5625 922.1875 -615.5625 922.1875 -615.5625 919.1875 C-616.2225 918.8575 -616.8825 918.5275 -617.5625 918.1875 C-618.54174566 915.71664796 -619.41675592 913.27023775 -620.25 910.75 C-622.61779936 903.79278971 -625.16029839 896.93736879 -627.93823242 890.13305664 C-632.99482608 877.46659978 -636.50834022 864.16407922 -640.15722656 851.0390625 C-640.8202324 848.65975095 -641.49206617 846.28303588 -642.1640625 843.90625 C-642.59428762 842.36473328 -643.02399441 840.82307178 -643.453125 839.28125 C-643.74996185 838.23729065 -643.74996185 838.23729065 -644.05279541 837.17224121 C-645.01259895 833.68500755 -645.70079908 830.34623307 -646.06933594 826.74414062 C-646.23208008 825.57044922 -646.39482422 824.39675781 -646.5625 823.1875 C-647.2225 822.8575 -647.8825 822.5275 -648.5625 822.1875 C-649.09204102 819.99438477 -649.09204102 819.99438477 -649.50390625 817.06640625 C-650.22293526 812.31941182 -651.03396779 807.61268804 -651.96484375 802.90234375 C-652.21403564 801.63801514 -652.46322754 800.37368652 -652.7199707 799.07104492 C-652.84763824 798.42557709 -652.97530579 797.78010925 -653.10684204 797.11508179 C-655.17984066 786.62200461 -657.17847258 776.13302908 -658.71264648 765.54467773 C-659.22980618 761.74854104 -659.22980618 761.74854104 -660.5625 758.1875 C-660.84820015 754.97677446 -661.00931771 751.76541975 -661.18359375 748.546875 C-661.43997352 744.91838907 -661.97588641 741.36038609 -662.52734375 737.765625 C-663.71896707 729.58800866 -664.27859575 721.43233201 -664.6875 713.1875 C-664.72919312 712.369328 -664.77088623 711.55115601 -664.81384277 710.70819092 C-665.64560079 693.770245 -665.78172386 676.82544217 -665.8083725 659.8706665 C-665.81245556 657.83465952 -665.81996096 655.79868936 -665.82818604 653.76269531 C-665.87089585 639.78993287 -665.74935227 626.04699242 -663.82775879 612.19519043 C-663.37043336 608.73378621 -663.04510703 605.25949692 -662.703125 601.78515625 C-654.81433336 524.55744526 -634.26455464 449.19157492 -600.5625 379.1875 C-599.99805176 378.01477539 -599.43360352 376.84205078 -598.85205078 375.63378906 C-590.96697093 359.32119779 -582.56647015 343.4493146 -573.20605469 327.92333984 C-571.61087494 325.2680243 -570.04025904 322.59973246 -568.4765625 319.92578125 C-553.38589559 294.23325637 -535.74530491 269.83313226 -516.7734375 246.8671875 C-515.28922816 245.0683048 -513.81536411 243.2608403 -512.3515625 241.4453125 C-507.78237785 235.78593643 -503.05300513 230.33126228 -498.1171875 224.98828125 C-496.12473407 222.80389423 -494.17269633 220.59890442 -492.234375 218.3671875 C-488.56073655 214.15622123 -484.77212415 210.06436124 -480.9375 206 C-480.24527344 205.26604004 -479.55304688 204.53208008 -478.83984375 203.77587891 C-462.50163553 186.5195833 -462.50163553 186.5195833 -453.7734375 179.1171875 C-451.3208038 176.97654961 -448.95207121 174.75941671 -446.57958984 172.53076172 C-440.97916315 167.2711136 -435.30792881 162.20884305 -429.3046875 157.40625 C-426.88995448 155.45244892 -424.53346443 153.44540154 -422.18676758 151.41088867 C-362.61919192 99.98182499 -289.78834187 61.52729711 -215.5625 36.21484375 C-212.8568966 35.2883155 -210.16194298 34.33685463 -207.46875 33.375 C-177.64210215 22.87392875 -146.61590444 15.90559449 -115.5625 10.1875 C-114.86527832 10.05901672 -114.16805664 9.93053345 -113.44970703 9.79815674 C-96.31747531 6.66830882 -79.13943757 4.59797651 -61.8125 2.9375 C-60.94652191 2.85423462 -60.08054382 2.77096924 -59.18832397 2.68518066 C-39.46457017 0.81641424 -19.81040135 -0.02311749 0 0 Z " fill="#F79D1A" transform="translate(1086.5625,332.8125)"/>
<path d="M0 0 C1.45608673 0.00090637 1.45608673 0.00090637 2.94158936 0.00183105 C83.25895164 0.13611638 162.85635821 14.7831694 326.09130859 83.87402344 C328.08378532 84.98947867 330.08142334 86.09455128 332.08203125 87.1953125 C360.44593839 103.04068747 388.42761071 121.3878182 413.4375 142.1875 C409.94169007 146.66527901 406.3499942 150.04786513 401.8125 153.4375 C396.24335843 157.70116798 391.0202441 162.15837102 385.875 166.9296875 C383.80219593 168.84968871 381.70166732 170.71746818 379.5625 172.5625 C369.17891548 181.64555604 359.32407975 191.19730901 349.5625 200.9375 C349.01675323 201.48065857 348.47100647 202.02381714 347.90872192 202.58343506 C341.86398272 208.6055875 335.98229758 214.69625959 330.4375 221.1875 C328.81782183 222.96320221 327.19338282 224.73458307 325.5625 226.5 C321.52347847 230.93381311 317.66243122 235.46804584 313.8984375 240.13671875 C312.10469764 242.36038674 310.29877617 244.56948478 308.4765625 246.76953125 C290.19942235 268.90780156 273.26356209 292.44892792 258.64160156 317.16015625 C257.48034677 319.11535897 256.30241393 321.05925477 255.1171875 323 C222.45072558 376.59562366 196.96731203 435.31177594 181.4375 496.1875 C181.15068359 497.30721191 180.86386719 498.42692383 180.56835938 499.58056641 C174.46665412 523.62514021 169.36712858 547.83326452 165.75 572.375 C165.55970215 573.6345752 165.3694043 574.89415039 165.17333984 576.19189453 C161.07401566 604.56110399 159.95648278 632.91654767 160.1149292 661.53637695 C160.1283991 664.83152186 160.12307435 668.12653269 160.11807346 671.42169285 C160.08735514 698.11387099 161.06439735 724.63793391 164.625 751.125 C164.72910187 751.91892151 164.83320374 752.71284302 164.94046021 753.53082275 C168.55604469 780.97987366 173.23509195 808.43702975 180.4375 835.1875 C180.6840332 836.10756836 180.93056641 837.02763672 181.18457031 837.97558594 C191.42583179 875.6408159 204.70798794 912.90922096 221.4375 948.1875 C221.94893555 949.27450195 222.46037109 950.36150391 222.98730469 951.48144531 C239.12934901 985.71226638 257.65154539 1018.22060171 279.4375 1049.1875 C279.91799805 1049.87505371 280.39849609 1050.56260742 280.89355469 1051.27099609 C289.28264879 1063.26539602 298.22637106 1074.81439011 307.4375 1086.1875 C308.46423828 1087.45980469 308.46423828 1087.45980469 309.51171875 1088.7578125 C324.95640147 1107.77945046 341.57684277 1125.41180917 358.875 1142.75 C359.8618277 1143.74084595 359.8618277 1143.74084595 360.86859131 1144.75170898 C367.54671579 1151.45043148 374.20310552 1158.08358522 381.4375 1164.1875 C383.04518373 1165.64195517 384.64989715 1167.09970895 386.25 1168.5625 C391.49590363 1173.29504303 396.94333684 1177.74815546 402.4375 1182.1875 C404.50234622 1183.87215026 406.56354634 1185.56119374 408.625 1187.25 C409.54667969 1188.00410156 410.46835938 1188.75820312 411.41796875 1189.53515625 C412.08441406 1190.08042969 412.75085937 1190.62570312 413.4375 1191.1875 C408.75466353 1195.98678355 403.72019899 1200.07517135 398.4375 1204.1875 C397.66019531 1204.79722656 396.88289063 1205.40695312 396.08203125 1206.03515625 C390.69281915 1210.1875 390.69281915 1210.1875 388.4375 1210.1875 C388.4375 1210.8475 388.4375 1211.5075 388.4375 1212.1875 C386.4609375 1213.51953125 386.4609375 1213.51953125 383.8125 1215 C380.72809023 1216.78229569 378.11949911 1218.45358238 375.375 1220.75 C372.97751893 1222.73939918 370.99180192 1224.05533201 368.28515625 1225.5 C363.6938611 1228.00909401 359.32454642 1230.77855355 354.9375 1233.625 C346.1789463 1239.24132803 337.17813584 1244.35952456 328.06640625 1249.37866211 C323.75614745 1251.75517579 319.47466512 1254.11879565 315.3359375 1256.78515625 C310.8287219 1259.64929057 306.07626392 1261.91467379 301.25 1264.1875 C300.25589111 1264.65752441 299.26178223 1265.12754883 298.23754883 1265.61181641 C294.97512391 1267.14633555 291.70713193 1268.66840215 288.4375 1270.1875 C286.77799316 1270.9623877 286.77799316 1270.9623877 285.08496094 1271.75292969 C215.31361814 1304.1875 215.31361814 1304.1875 198.4375 1304.1875 C198.1075 1304.8475 197.7775 1305.5075 197.4375 1306.1875 C192.038356 1307.99297375 186.4116369 1309.17354242 180.75 1309.75 C179.656875 1309.894375 178.56375 1310.03875 177.4375 1310.1875 C177.1075 1310.8475 176.7775 1311.5075 176.4375 1312.1875 C174.09825563 1312.85812576 171.81815231 1313.39101102 169.4375 1313.875 C168.28519897 1314.11947876 168.28519897 1314.11947876 167.10961914 1314.36889648 C165.29922016 1314.75226499 163.48802723 1315.13189395 161.67626953 1315.50878906 C157.94629528 1316.29043601 154.2211679 1317.09385951 150.49609375 1317.8984375 C123.95797352 1323.61409063 123.95797352 1323.61409063 111.09375 1325.6796875 C108.52470176 1325.91304785 108.52470176 1325.91304785 107.4375 1327.1875 C106.12011547 1327.40158195 104.79320151 1327.55789001 103.46484375 1327.6875 C102.64693359 1327.77 101.82902344 1327.8525 100.98632812 1327.9375 C100.12458984 1328.02 99.26285156 1328.1025 98.375 1328.1875 C96.69653882 1328.35340195 95.01815235 1328.52006157 93.33984375 1328.6875 C92.09448853 1328.81125 92.09448853 1328.81125 90.82397461 1328.9375 C88.69061678 1329.16098424 86.56490455 1329.41385821 84.4375 1329.6875 C79.80098859 1330.28268462 75.15217943 1330.73397451 70.5 1331.1875 C65.72119752 1331.6555082 60.94483231 1332.12405003 56.17578125 1332.68359375 C36.22167899 1334.90869932 16.18329951 1335.38318912 -3.875 1335.375 C-4.83476746 1335.37581573 -5.79453491 1335.37663147 -6.78338623 1335.37747192 C-9.51842879 1335.37720807 -12.25327209 1335.36844017 -14.98828125 1335.35546875 C-15.8118663 1335.35427032 -16.63545135 1335.3530719 -17.48399353 1335.35183716 C-20.76226762 1335.32463301 -23.43097037 1335.23134321 -26.5625 1334.1875 C-27.93725531 1334.13763333 -29.31425035 1334.13765323 -30.68945312 1334.1730957 C-35.35065219 1334.22370213 -39.89679629 1333.8865207 -44.53125 1333.41796875 C-45.36015244 1333.33756851 -46.18905487 1333.25716827 -47.04307556 1333.17433167 C-49.71677398 1332.91320106 -52.38968119 1332.64497748 -55.0625 1332.375 C-55.98443146 1332.28246948 -56.90636292 1332.18993896 -57.85623169 1332.09460449 C-62.46611882 1331.63117272 -67.07539377 1331.16221564 -71.68408203 1330.68701172 C-75.56787762 1330.28697808 -79.45335459 1329.90818571 -83.33984375 1329.53515625 C-125.77855999 1325.21571226 -167.3618025 1314.26194986 -207.79255676 1301.03939819 C-210.9249731 1300.01833364 -214.05841924 1299.047224 -217.22900391 1298.15039062 C-220.15143218 1297.30623821 -222.93884875 1296.3489742 -225.76953125 1295.2421875 C-227.14334961 1294.71044922 -227.14334961 1294.71044922 -228.54492188 1294.16796875 C-230.45123401 1293.42333613 -232.35748276 1292.67854122 -234.26367188 1291.93359375 C-235.17310547 1291.58167969 -236.08253906 1291.22976563 -237.01953125 1290.8671875 C-238.2566687 1290.38354736 -238.2566687 1290.38354736 -239.51879883 1289.89013672 C-241.51753781 1289.07912429 -241.51753781 1289.07912429 -243.5625 1289.1875 C-243.5625 1288.5275 -243.5625 1287.8675 -243.5625 1287.1875 C-244.27172607 1287.06906738 -244.98095215 1286.95063477 -245.71166992 1286.82861328 C-248.72935204 1286.14997722 -251.33288109 1285.14538414 -254.17578125 1283.9296875 C-255.25053711 1283.47279541 -256.32529297 1283.01590332 -257.43261719 1282.54516602 C-258.56860352 1282.05588623 -259.70458984 1281.56660645 -260.875 1281.0625 C-262.04836914 1280.55968506 -263.22173828 1280.05687012 -264.43066406 1279.53881836 C-266.76464356 1278.53769109 -269.09783489 1277.53472401 -271.43017578 1276.52978516 C-273.96616208 1275.44304683 -276.50762096 1274.3750439 -279.05859375 1273.32421875 C-288.74967739 1269.29077205 -297.85669412 1264.33317479 -307.02734375 1259.23828125 C-312.11539761 1256.41473473 -317.26633344 1253.7296382 -322.4375 1251.0625 C-329.36851727 1247.47084729 -336.02267414 1243.5609814 -342.57763672 1239.32177734 C-345.2296226 1237.6097182 -347.5524607 1236.19084643 -350.5625 1235.1875 C-350.5625 1234.5275 -350.5625 1233.8675 -350.5625 1233.1875 C-351.27148438 1232.93097656 -351.98046875 1232.67445312 -352.7109375 1232.41015625 C-355.78866588 1231.09052751 -358.39410987 1229.46802186 -361.1875 1227.625 C-364.03313329 1225.75000053 -366.32532389 1224.2665587 -369.5625 1223.1875 C-369.5625 1222.5275 -369.5625 1221.8675 -369.5625 1221.1875 C-370.25085938 1220.95546875 -370.93921875 1220.7234375 -371.6484375 1220.484375 C-375.19106053 1218.90776529 -378.1137216 1216.76163683 -381.1875 1214.4375 C-382.51040341 1213.45310718 -383.83332079 1212.46873315 -385.15625 1211.484375 C-385.86136719 1210.95650391 -386.56648438 1210.42863281 -387.29296875 1209.88476562 C-391.41305462 1206.80356544 -395.55040749 1203.74580232 -399.6875 1200.6875 C-400.49268066 1200.0884082 -401.29786133 1199.48931641 -402.12744141 1198.87207031 C-405.19724916 1196.59962362 -408.19523445 1194.40296245 -411.4921875 1192.46875 C-413.5625 1191.1875 -413.5625 1191.1875 -415.5625 1188.1875 C-416.5525 1187.8575 -417.5425 1187.5275 -418.5625 1187.1875 C-420.25123879 1185.54320171 -421.91555515 1183.87365782 -423.5625 1182.1875 C-425.22038785 1180.84326661 -426.88826317 1179.51131517 -428.5625 1178.1875 C-430.59416455 1176.42479308 -432.61024091 1174.64527461 -434.625 1172.86328125 C-436.22518678 1171.47924873 -437.88685203 1170.16664531 -439.5625 1168.875 C-440.2225 1168.318125 -440.8825 1167.76125 -441.5625 1167.1875 C-441.5625 1166.5275 -441.5625 1165.8675 -441.5625 1165.1875 C-442.15417969 1164.92582031 -442.74585938 1164.66414063 -443.35546875 1164.39453125 C-445.67949378 1163.12351579 -447.07947812 1161.80765004 -448.875 1159.875 C-451.14602887 1157.52165238 -453.33528883 1155.55179794 -456.0625 1153.75 C-459.59328889 1151.35410754 -462.08258934 1148.42063152 -464.80859375 1145.1640625 C-466.96986143 1142.72842454 -469.36472671 1140.7495102 -471.875 1138.6875 C-474.20865069 1136.61314383 -476.1071584 1134.25499447 -478.0859375 1131.84765625 C-479.53891424 1130.21401838 -481.03363871 1128.91106959 -482.75 1127.5625 C-485.5625 1125.1875 -485.5625 1125.1875 -486.9375 1122.875 C-488.518725 1120.25989711 -490.06637993 1118.61153941 -492.25 1116.5 C-496.11026278 1112.75348345 -499.42202596 1108.74166879 -502.703125 1104.484375 C-504.50672947 1102.17367769 -504.50672947 1102.17367769 -506.5390625 1100.21484375 C-509.58516031 1097.16286544 -512.11752726 1093.73451204 -514.7578125 1090.33203125 C-516.38463654 1088.11126498 -516.38463654 1088.11126498 -518.5625 1087.1875 C-518.95695313 1086.52492188 -519.35140625 1085.86234375 -519.7578125 1085.1796875 C-522.30785807 1080.95168987 -525.38030961 1077.18324625 -528.4375 1073.3125 C-540.5625 1057.92013158 -540.5625 1057.92013158 -540.5625 1055.1875 C-541.2225 1055.1875 -541.8825 1055.1875 -542.5625 1055.1875 C-543.4596875 1053.57875 -543.4596875 1053.57875 -544.375 1051.9375 C-545.59808027 1049.78296359 -546.81271742 1047.85685555 -548.3125 1045.875 C-549.5625 1044.1875 -549.5625 1044.1875 -549.5625 1042.1875 C-550.5525 1041.8575 -551.5425 1041.5275 -552.5625 1041.1875 C-553.5 1039.5625 -553.5 1039.5625 -554.5625 1037.1875 C-557.12061158 1032.37724013 -557.12061158 1032.37724013 -560.5625 1028.1875 C-564.5625 1021.99771898 -564.5625 1021.99771898 -564.5625 1019.1875 C-565.2225 1019.1875 -565.8825 1019.1875 -566.5625 1019.1875 C-566.85125 1018.40375 -567.14 1017.62 -567.4375 1016.8125 C-568.41162254 1014.09078368 -568.41162254 1014.09078368 -570.5625 1012.1875 C-571.81429031 1010.03510038 -573.01615549 1007.88258057 -574.1875 1005.6875 C-574.67476562 1004.79611328 -574.67476562 1004.79611328 -575.171875 1003.88671875 C-577.5625 999.43694196 -577.5625 999.43694196 -577.5625 997.1875 C-578.2225 997.1875 -578.8825 997.1875 -579.5625 997.1875 C-580.56734204 995.23164675 -581.56623805 993.27273763 -582.5625 991.3125 C-583.119375 990.22195313 -583.67625 989.13140625 -584.25 988.0078125 C-585.5625 985.1875 -585.5625 985.1875 -585.5625 983.1875 C-586.2225 982.8575 -586.8825 982.5275 -587.5625 982.1875 C-588.88693806 979.78919324 -590.11877596 977.39997894 -591.3125 974.9375 C-591.66376953 974.22255371 -592.01503906 973.50760742 -592.37695312 972.77099609 C-593.44799238 970.58080829 -594.50767906 968.38554025 -595.5625 966.1875 C-595.87896484 965.5284668 -596.19542969 964.86943359 -596.52148438 964.19042969 C-601.5625 953.63272777 -601.5625 953.63272777 -601.5625 951.1875 C-602.2225 950.8575 -602.8825 950.5275 -603.5625 950.1875 C-604.67578125 948.04199219 -604.67578125 948.04199219 -605.875 945.234375 C-606.31070313 944.22246094 -606.74640625 943.21054688 -607.1953125 942.16796875 C-607.87207031 940.56888672 -607.87207031 940.56888672 -608.5625 938.9375 C-609.01367188 937.88691406 -609.46484375 936.83632812 -609.9296875 935.75390625 C-611.15114105 932.90264337 -612.36611805 930.04937156 -613.5625 927.1875 C-614.12904297 925.87313965 -614.12904297 925.87313965 -614.70703125 924.53222656 C-615.5625 922.1875 -615.5625 922.1875 -615.5625 919.1875 C-616.2225 918.8575 -616.8825 918.5275 -617.5625 918.1875 C-618.54174566 915.71664796 -619.41675592 913.27023775 -620.25 910.75 C-622.61779936 903.79278971 -625.16029839 896.93736879 -627.93823242 890.13305664 C-632.99482608 877.46659978 -636.50834022 864.16407922 -640.15722656 851.0390625 C-640.8202324 848.65975095 -641.49206617 846.28303588 -642.1640625 843.90625 C-642.59428762 842.36473328 -643.02399441 840.82307178 -643.453125 839.28125 C-643.74996185 838.23729065 -643.74996185 838.23729065 -644.05279541 837.17224121 C-645.01259895 833.68500755 -645.70079908 830.34623307 -646.06933594 826.74414062 C-646.23208008 825.57044922 -646.39482422 824.39675781 -646.5625 823.1875 C-647.2225 822.8575 -647.8825 822.5275 -648.5625 822.1875 C-649.09204102 819.99438477 -649.09204102 819.99438477 -649.50390625 817.06640625 C-650.22293526 812.31941182 -651.03396779 807.61268804 -651.96484375 802.90234375 C-652.21403564 801.63801514 -652.46322754 800.37368652 -652.7199707 799.07104492 C-652.84763824 798.42557709 -652.97530579 797.78010925 -653.10684204 797.11508179 C-655.17984066 786.62200461 -657.17847258 776.13302908 -658.71264648 765.54467773 C-659.22980618 761.74854104 -659.22980618 761.74854104 -660.5625 758.1875 C-660.84820015 754.97677446 -661.00931771 751.76541975 -661.18359375 748.546875 C-661.43997352 744.91838907 -661.97588641 741.36038609 -662.52734375 737.765625 C-663.71896707 729.58800866 -664.27859575 721.43233201 -664.6875 713.1875 C-664.72919312 712.369328 -664.77088623 711.55115601 -664.81384277 710.70819092 C-665.64560079 693.770245 -665.78172386 676.82544217 -665.8083725 659.8706665 C-665.81245556 657.83465952 -665.81996096 655.79868936 -665.82818604 653.76269531 C-665.87089585 639.78993287 -665.74935227 626.04699242 -663.82775879 612.19519043 C-663.37043336 608.73378621 -663.04510703 605.25949692 -662.703125 601.78515625 C-654.81433336 524.55744526 -634.26455464 449.19157492 -600.5625 379.1875 C-599.99805176 378.01477539 -599.43360352 376.84205078 -598.85205078 375.63378906 C-590.96697093 359.32119779 -582.56647015 343.4493146 -573.20605469 327.92333984 C-571.61087494 325.2680243 -570.04025904 322.59973246 -568.4765625 319.92578125 C-553.38589559 294.23325637 -535.74530491 269.83313226 -516.7734375 246.8671875 C-515.28922816 245.0683048 -513.81536411 243.2608403 -512.3515625 241.4453125 C-507.78237785 235.78593643 -503.05300513 230.33126228 -498.1171875 224.98828125 C-496.12473407 222.80389423 -494.17269633 220.59890442 -492.234375 218.3671875 C-488.56073655 214.15622123 -484.77212415 210.06436124 -480.9375 206 C-480.24527344 205.26604004 -479.55304688 204.53208008 -478.83984375 203.77587891 C-462.50163553 186.5195833 -462.50163553 186.5195833 -453.7734375 179.1171875 C-451.3208038 176.97654961 -448.95207121 174.75941671 -446.57958984 172.53076172 C-440.97916315 167.2711136 -435.30792881 162.20884305 -429.3046875 157.40625 C-426.88995448 155.45244892 -424.53346443 153.44540154 -422.18676758 151.41088867 C-362.61919192 99.98182499 -289.78834187 61.52729711 -215.5625 36.21484375 C-212.8568966 35.2883155 -210.16194298 34.33685463 -207.46875 33.375 C-177.64210215 22.87392875 -146.61590444 15.90559449 -115.5625 10.1875 C-114.86527832 10.05901672 -114.16805664 9.93053345 -113.44970703 9.79815674 C-96.31747531 6.66830882 -79.13943757 4.59797651 -61.8125 2.9375 C-60.94652191 2.85423462 -60.08054382 2.77096924 -59.18832397 2.68518066 C-39.46457017 0.81641424 -19.81040135 -0.02311749 0 0 Z " fill="#EB001A" transform="translate(1086.5625,332.8125)"/>
<path d="M0 0 C3.96663641 1.71530223 7.20243881 4.33502915 10.5625 7 C11.17947754 7.48694336 11.79645508 7.97388672 12.43212891 8.47558594 C17.32689383 12.37876623 21.97142771 16.48476872 26.5625 20.7421875 C28.63530407 22.66218871 30.73583268 24.52996818 32.875 26.375 C43.1526344 35.32988016 52.9400191 44.77582387 62.55908203 54.42871094 C64.39110995 56.2661576 66.22850605 58.0981165 68.06640625 59.9296875 C73.92615989 65.78613256 79.63357231 71.68265572 85 78 C86.61967817 79.77570221 88.24411718 81.54708307 89.875 83.3125 C94.79560371 88.71478931 99.42982766 94.30028913 104 100 C104.93587212 101.15521193 105.87208689 102.31014633 106.80859375 103.46484375 C141.29499925 146.11341003 171.16716191 193.10602046 194 243 C194.46438477 243.99805664 194.92876953 244.99611328 195.40722656 246.02441406 C202.00424421 260.22205244 207.90616675 274.61107686 213.4375 289.25 C213.73073151 290.02514954 214.02396301 290.80029907 214.32608032 291.59893799 C229.81578452 332.67679344 240.86193893 375.24543791 247.46655273 418.63061523 C247.86175194 421.12679108 248.27488205 423.6159878 248.70727539 426.10571289 C254.24857319 458.09104594 255.40166757 490.08179789 255.43390274 522.47946548 C255.43743375 525.0149308 255.44607385 527.55033606 255.45565796 530.08578491 C255.55022786 561.37096655 253.75850101 592.28966874 248.625 623.1875 C248.31467841 625.11157192 248.00487328 627.0357272 247.69555664 628.95996094 C245.46510637 642.70920435 243.05251067 656.40653022 240 670 C239.77489746 671.01288086 239.54979492 672.02576172 239.31787109 673.06933594 C236.11761978 687.32240861 232.25994012 701.27828038 227.86474609 715.20556641 C227.02683619 717.91327864 226.23416562 720.62975855 225.45703125 723.35546875 C211.54347896 771.72973702 189.65342371 819.33763317 163.61132812 862.32861328 C162.02671242 864.95571405 160.47049128 867.59764183 158.921875 870.24609375 C152.10662729 881.85274101 144.75029035 892.9983805 137 904 C136.30729004 904.98637451 136.30729004 904.98637451 135.60058594 905.99267578 C123.35905447 923.39114379 110.44558007 940.20281437 96.49853516 956.26318359 C95.03175401 957.96319681 93.58167584 959.67594935 92.13671875 961.39453125 C80.43550034 975.28250206 67.81489981 988.270571 55 1001.125 C54.51131439 1001.61636444 54.02262878 1002.10772888 53.51913452 1002.61398315 C48.396415 1007.75804958 43.23846888 1012.79487385 37.72509766 1017.52001953 C35.32457737 1019.57945259 33.01056572 1021.72896417 30.6875 1023.875 C26.17049931 1027.99325856 21.54199507 1031.92187268 16.77734375 1035.75 C14.8306175 1037.32709469 12.90789006 1038.93406013 11.00390625 1040.5625 C9.54791016 1041.8 9.54791016 1041.8 8.0625 1043.0625 C7.18722656 1043.81660156 6.31195312 1044.57070312 5.41015625 1045.34765625 C3 1047 3 1047 -1 1047 C-2.76416016 1045.94946289 -2.76416016 1045.94946289 -4.5390625 1044.47265625 C-5.52616211 1043.66175537 -5.52616211 1043.66175537 -6.53320312 1042.83447266 C-7.22349609 1042.24972168 -7.91378906 1041.6649707 -8.625 1041.0625 C-9.33849609 1040.47001465 -10.05199219 1039.8775293 -10.78710938 1039.26708984 C-15.57036676 1035.27274527 -20.25823715 1031.18056993 -24.8515625 1026.96875 C-26.83255268 1025.15344263 -28.84326567 1023.38307216 -30.875 1021.625 C-41.37410713 1012.44709155 -51.34965115 1002.81040529 -61.19262695 992.93774414 C-63.32324634 990.80172643 -65.45921223 988.67115882 -67.59570312 986.54101562 C-68.9768835 985.15917493 -70.35775389 983.77702433 -71.73828125 982.39453125 C-72.36446854 981.77036819 -72.99065582 981.14620514 -73.63581848 980.50312805 C-77.41397668 976.70516723 -81.00449106 972.78933127 -84.50279236 968.73188782 C-86.37222313 966.56943266 -88.31061872 964.47472382 -90.25 962.375 C-94.34152276 957.84584407 -98.11355036 953.12407248 -101.84936523 948.30297852 C-104.75309266 944.56170516 -107.73786509 940.91637534 -110.8125 937.3125 C-130.89505744 913.25102712 -148.48002918 886.19982237 -164 859 C-164.40508789 858.29584961 -164.81017578 857.59169922 -165.22753906 856.86621094 C-186.10915013 820.44479629 -203.84576749 782.30913818 -217.16699219 742.47558594 C-218.05567034 739.83455532 -218.96834981 737.20251968 -219.8828125 734.5703125 C-234.53106004 692.02667511 -243.25159967 648.58088708 -249.25 604.0625 C-249.40098145 602.9787207 -249.55196289 601.89494141 -249.70751953 600.77832031 C-252.91018512 575.87190855 -253.35379167 550.83271831 -253.31567383 525.76147461 C-253.3110496 522.47097069 -253.31796486 519.18083716 -253.33618164 515.89038086 C-253.64568139 459.35466831 -245.87548265 403.56637722 -231 349 C-230.75491699 348.09024414 -230.50983398 347.18048828 -230.25732422 346.24316406 C-212.31547981 280.29911759 -183.14603767 218.04471986 -146.5 160.5 C-145.54891357 159.00605713 -145.54891357 159.00605713 -144.57861328 157.48193359 C-140.2820449 150.80978815 -135.71826166 144.37920366 -131 138 C-129.84696758 136.4210756 -128.69459385 134.84166991 -127.54296875 133.26171875 C-118.2033211 120.50977096 -108.70367916 107.99780862 -98.34814453 96.05102539 C-95.24057534 92.46540763 -92.2208743 88.82583139 -89.25 85.125 C-86.07833928 81.21481178 -82.76879947 77.60950528 -79.1171875 74.14453125 C-77.35498845 72.35957317 -75.75171616 70.54866373 -74.12890625 68.640625 C-69.02105244 62.75912152 -63.46317427 57.31412149 -57.94848633 51.81811523 C-56.06671726 49.94170525 -54.19035262 48.06001031 -52.31445312 46.17773438 C-46.37693889 40.23692494 -40.40806522 34.43694107 -34 29 C-32.22429779 27.38032183 -30.45291693 25.75588282 -28.6875 24.125 C-23.28868699 19.20277186 -17.68853312 14.5811016 -12 10 C-9.95539829 8.33689263 -7.91519087 6.66852819 -5.875 5 C-4.96492188 4.2575 -4.05484375 3.515 -3.1171875 2.75 C-2.04918385 1.86722208 -0.97977769 0.97977769 0 0 Z " fill="#FE5E00" transform="translate(1499,476)"/>
<path d="M0 0 C2.97 0 5.94 0 9 0 C10.00696568 2.10084209 11.0053589 4.20579489 12 6.3125 C12.556875 7.48425781 13.11375 8.65601563 13.6875 9.86328125 C15 13 15 13 15 16 C15.66 16 16.32 16 17 16 C17.18175781 15.43152344 17.36351563 14.86304688 17.55078125 14.27734375 C19.14084634 9.39298997 20.90459778 4.68970973 23 0 C25.64 0 28.28 0 31 0 C31 8.91 31 17.82 31 27 C28.69 27 26.38 27 24 27 C24 22.71 24 18.42 24 14 C22.35 17.3 20.7 20.6 19 24 C17.02 24 15.04 24 13 24 C11.35 20.37 9.7 16.74 8 13 C7.67 17.62 7.34 22.24 7 27 C5.02 27 3.04 27 1 27 C0.67 18.09 0.34 9.18 0 0 Z " fill="#F79C1A" transform="translate(2527,1387)"/>
<path d="M0 0 C7.92 0 15.84 0 24 0 C24 1.65 24 3.3 24 5 C20.7 5 17.4 5 14 5 C14 12.26 14 19.52 14 27 C12.35 27 10.7 27 9 27 C9 19.74 9 12.48 9 5 C6.03 5 3.06 5 0 5 C0 3.35 0 1.7 0 0 Z " fill="#F79B1A" transform="translate(2501,1387)"/>
</svg>
