<?xml version="1.0" encoding="UTF-8"?>
<svg version="1.1" xmlns="http://www.w3.org/2000/svg" width="1331" height="598">
<path d="M0 0 C23.76 0 47.52 0 72 0 C84.80903567 25.61807135 97.3332715 51.3184316 109.05560303 77.45141602 C111.12372607 82.06051943 113.20828998 86.66183828 115.30311584 91.25886536 C123.17024864 108.52472838 130.89894717 125.82953117 138.125 143.375 C138.42930939 144.11176971 138.73361877 144.84853943 139.04714966 145.6076355 C139.89310611 147.66094164 140.73320431 149.71651038 141.5703125 151.7734375 C142.04227051 152.93278809 142.51422852 154.09213867 143.00048828 155.28662109 C144 158 144 158 144 160 C146.7123474 158.6438263 146.81943784 157.3708654 147.890625 154.55859375 C148.26268066 153.59969238 148.63473633 152.64079102 149.01806641 151.65283203 C149.42460449 150.59177246 149.83114258 149.53071289 150.25 148.4375 C161.07310057 120.82999743 173.56572198 93.91021628 186 67 C186.30764282 66.33379639 186.61528564 65.66759277 186.93225098 64.98120117 C197.00086776 43.18449792 207.26200759 21.47598482 218 0 C241.76 0 265.52 0 290 0 C291.34142677 6.70713385 292.50728594 13.23040695 293.296875 19.99609375 C293.41081604 20.95135956 293.52475708 21.90662537 293.64215088 22.89083862 C294.01807753 26.07232485 294.38541413 29.25469478 294.75 32.4375 C294.94408447 34.12823135 294.94408447 34.12823135 295.14208984 35.8531189 C303.44026689 108.64978668 308.24653942 181.83534621 312.24391937 254.97898483 C312.37322601 257.34257336 312.50374532 259.70609284 312.63433838 262.0696106 C312.83765642 265.7650101 313.03517288 269.46067839 313.22805023 273.15663719 C313.33057013 275.10873646 313.4368191 277.06063883 313.54327393 279.01252747 C314.01800121 288.37890313 314 297.58632994 314 307 C290.24 307 266.48 307 242 307 C241.67386719 298.18410156 241.34773438 289.36820312 241.01171875 280.28515625 C240.79816411 274.58395945 240.58430589 268.8827765 240.36914062 263.18164062 C240.03024734 254.20072399 239.69237702 245.21978012 239.36254883 236.23852539 C238.28764274 206.997862 237.18714172 177.76606932 235.39453125 148.55859375 C235.3316007 147.52297869 235.26867016 146.48736362 235.20383263 145.42036629 C235.0274183 142.55129746 234.8450924 139.68269237 234.65942383 136.81420898 C234.5815372 135.56967988 234.5815372 135.56967988 234.5020771 134.30000877 C234.24317726 130.45425153 233.88609353 126.76449029 233 123 C222.82574845 145.73615184 213.05417214 168.62300487 203.48797607 191.62106323 C200.73659493 198.23550569 197.97506406 204.84563439 195.20703125 211.453125 C194.61736069 212.86074348 194.61736069 212.86074348 194.01577759 214.29679871 C192.84395554 217.09374265 191.67198029 219.89062236 190.5 222.6875 C184.57202012 236.8335516 184.57202012 236.8335516 178.68359375 250.99609375 C178.20921875 252.14053955 177.73484375 253.28498535 177.24609375 254.46411133 C176.4040005 256.49817499 175.56398767 258.53310184 174.7265625 260.5690918 C174.37207031 261.42543213 174.01757812 262.28177246 173.65234375 263.1640625 C173.35320068 263.89061035 173.05405762 264.6171582 172.74584961 265.36572266 C172 267 172 267 171 268 C169.37325222 268.09340434 167.74245949 268.11745171 166.11303711 268.11352539 C165.07203354 268.11344986 164.03102997 268.11337433 162.95848083 268.11329651 C161.8262056 268.10813522 160.69393036 268.10297394 159.52734375 268.09765625 C157.79817467 268.09553383 157.79817467 268.09553383 156.03407288 268.09336853 C152.33518936 268.08775005 148.63636536 268.07519442 144.9375 268.0625 C142.43684983 268.05748738 139.93619871 268.05292406 137.43554688 268.04882812 C131.29034412 268.03777462 125.14517631 268.02101852 119 268 C116.04964756 262.26137527 113.45064939 256.46561617 111.015625 250.4921875 C110.64299026 249.58557373 110.27035553 248.67895996 109.88642883 247.74487305 C109.08728602 245.80012874 108.28941397 243.85486184 107.4927063 241.90911865 C105.37070562 236.72816653 103.23783067 231.55169438 101.10546875 226.375 C100.67463486 225.32859344 100.24380096 224.28218689 99.7999115 223.20407104 C85.96206132 189.62258586 71.70399803 156.21105634 57 123 C55.24987895 137.70914161 54.32062611 152.3943673 53.625 167.1875 C53.56541107 168.41673187 53.50582214 169.64596375 53.44442749 170.91244507 C51.25213365 216.25748764 49.69422185 261.63441487 48 307 C24.24 307 0.48 307 -24 307 C-24 290.90403145 -24 290.90403145 -23.63623047 284.2824707 C-23.57732714 283.13068848 -23.57732714 283.13068848 -23.51723385 281.95563793 C-23.38768787 279.44547019 -23.25267851 276.9356346 -23.1171875 274.42578125 C-23.02155697 272.61113237 -22.92607669 270.79647556 -22.83073425 268.98181152 C-22.51916083 263.09165459 -22.19765017 257.20205897 -21.875 251.3125 C-21.81986614 250.30072567 -21.76473228 249.28895134 -21.7079277 248.24651718 C-17.40535568 169.32808561 -11.96881411 90.39760684 -2.19921875 11.9453125 C-2.09220139 11.07380051 -1.98518402 10.20228851 -1.87492371 9.30436707 C-1.46438455 6.07537815 -1.03209733 3.09629198 0 0 Z " fill="#141ED2" transform="translate(652,144)"/>
<path d="M0 0 C3.44281367 -0.00442563 6.88538249 -0.01853201 10.328125 -0.04101562 C43.65850005 -0.25376278 78.13383917 -0.26221589 108.51220703 15.24023438 C109.58986328 15.78550781 110.66751953 16.33078125 111.77783203 16.89257812 C129.05320967 26.30544415 141.18998963 41.81945062 147.57861328 60.33007812 C152.96937999 79.31495218 151.03774791 98.45718558 142.08642578 116.04101562 C136.92862495 124.88478827 129.0580012 133.54303826 120.51220703 139.24023438 C121.65496094 139.96726562 121.65496094 139.96726562 122.82080078 140.70898438 C142.38559215 153.41022222 155.02993914 170.23052348 160.51220703 193.24023438 C165.41911105 219.14088114 162.11221641 245.49485551 148.51220703 268.24023438 C146.06476617 271.80650535 143.42861794 275.05003795 140.51220703 278.24023438 C139.98369141 278.84867187 139.45517578 279.45710938 138.91064453 280.08398438 C122.75726231 297.59011289 98.29322044 304.63565921 75.57470703 308.42773438 C74.66664307 308.58266357 73.7585791 308.73759277 72.82299805 308.8972168 C51.18731406 312.24245301 29.29336422 312.57762285 7.44970703 312.49023438 C6.13721985 312.48812958 4.82473267 312.48602478 3.47247314 312.4838562 C-16.90161641 312.45096522 -37.25163894 312.02352971 -57.61279297 311.30273438 C-58.85151154 311.25934937 -60.0902301 311.21596436 -61.3664856 311.17126465 C-64.84732663 311.04608281 -68.32773627 310.91301892 -71.80810547 310.77539062 C-72.83742691 310.73678421 -73.86674835 310.6981778 -74.92726135 310.65840149 C-76.34191933 310.59848274 -76.34191933 310.59848274 -77.78515625 310.53735352 C-78.60186798 310.50404434 -79.41857971 310.47073517 -80.26004028 310.43641663 C-82.48779297 310.24023438 -82.48779297 310.24023438 -86.48779297 309.24023438 C-86.48779297 207.93023437 -86.48779297 106.62023437 -86.48779297 2.24023438 C-70.69633112 1.11227281 -70.69633112 1.11227281 -64.45507812 0.93261719 C-63.41968966 0.9023859 -63.41968966 0.9023859 -62.36338425 0.87154388 C-60.12629704 0.80806624 -57.88912389 0.75007012 -55.65185547 0.69335938 C-54.863167 0.6726664 -54.07447853 0.65197342 -53.26189041 0.63065338 C-35.5092787 0.17164235 -17.7580446 0.01942387 0 0 Z M-13.48779297 60.24023438 C-13.48779297 79.71023437 -13.48779297 99.18023437 -13.48779297 119.24023438 C-5.3563023 123.30597971 8.78949254 121.42660007 17.86401367 121.42553711 C19.945519 121.42772996 22.0264971 121.44601297 24.10791016 121.46484375 C40.34952745 121.53244463 59.76086404 121.43084973 72.23486328 109.60742188 C78.10910634 103.17029066 80.10295627 96.98650221 79.86376953 88.31054688 C79.01326229 80.88278366 76.3122569 75.05003183 70.51220703 70.24023438 C69.76970703 69.55960938 69.02720703 68.87898438 68.26220703 68.17773438 C53.99889518 58.12858285 35.81635526 58.79648297 19.12695312 58.95898438 C15.85812065 58.99051494 12.5897713 59.00000712 9.32080078 59.00585938 C7.22574282 59.01501779 5.13068973 59.02538983 3.03564453 59.03710938 C1.5824733 59.04348419 1.5824733 59.04348419 0.09994507 59.04998779 C-1.26340469 59.06439911 -1.26340469 59.06439911 -2.65429688 59.07910156 C-3.44542877 59.08592957 -4.23656067 59.09275757 -5.05166626 59.09979248 C-7.88458369 59.26310923 -10.68878076 59.77373234 -13.48779297 60.24023438 Z M-13.48779297 177.24023438 C-13.48779297 200.67023438 -13.48779297 224.10023438 -13.48779297 248.24023438 C33.58519189 252.84498964 33.58519189 252.84498964 76.38720703 236.48632812 C84.00863718 228.43058854 87.00719198 219.50643419 86.83251953 208.56445312 C85.9959476 199.88246886 81.69199614 192.01304595 75.32470703 186.11523438 C53.17751015 168.2199255 10.83045407 175.36959999 -13.48779297 177.24023438 Z " fill="#141ED2" transform="translate(1097.48779296875,141.759765625)"/>
<path d="M0 0 C5.82119421 4.0402963 9.17263993 8.90184999 12.625 15 C13.13587158 15.87664307 13.64674316 16.75328613 14.1730957 17.65649414 C15.25168508 19.50787286 16.32525899 21.36218174 17.39404297 23.21923828 C19.43905794 26.7602417 21.5265123 30.27509136 23.61547852 33.7902832 C30.08459602 44.68399978 36.47770173 55.62300404 42.87988281 66.55615234 C45.9913881 71.86950073 49.1039478 77.18213935 52.234375 82.484375 C52.70012939 83.27352295 53.16588379 84.0626709 53.64575195 84.87573242 C54.47386216 86.27761924 55.30303115 87.67888148 56.13354492 89.0793457 C57.09886898 90.71379255 58.050394 92.35637124 59 94 C59.40605469 94.68449219 59.81210937 95.36898437 60.23046875 96.07421875 C62.43058521 101.58009396 61.84678394 108.97199049 59.5625 114.375 C56.7661432 119.01617553 53.01938394 122.00679536 48 124 C41.45138717 125.04073309 34.71814417 124.98082454 28.89453125 121.5234375 C24.73850146 118.1814754 21.40647729 114.07782683 18 110 C16.89886297 108.74733035 15.79488386 107.49715076 14.6875 106.25 C12.53596773 103.78542724 10.4050508 101.30426757 8.28515625 98.8125 C2.46540141 91.97771593 -3.44877701 85.26300847 -9.54296875 78.671875 C-12.1684904 75.81677674 -14.7266784 72.91234756 -17.265625 69.98046875 C-19.27264538 67.68866845 -21.32402851 65.44003248 -23.375 63.1875 C-28.10685333 57.93973762 -32.58363699 52.51421596 -37 47 C-37.59167969 46.30003906 -38.18335938 45.60007812 -38.79296875 44.87890625 C-43.57664238 39.00857095 -45.57157562 32.99862753 -46.375 25.5 C-45.31560854 15.61234638 -41.73556101 8.73556101 -34.75 1.75 C-23.60557993 -5.34190368 -11.81799574 -6.38718267 0 0 Z " fill="#EB2D4B" transform="translate(272,353)"/>
<path d="M0 0 C6.90681183 5.47112623 10.63627277 12.35819283 11.7109375 21.08984375 C12.27065924 33.52616113 7.13958829 40.94780229 -1.0390625 49.90234375 C-1.90660156 50.83304687 -2.77414063 51.76375 -3.66796875 52.72265625 C-6.05131745 55.33524307 -8.27360197 58.01236164 -10.4765625 60.77734375 C-14.76015241 66.09385605 -19.38520077 71.02370435 -24.07324219 75.97949219 C-28.21089319 80.37616505 -32.05181113 84.92686119 -35.81640625 89.6484375 C-39.40992716 93.94086037 -43.2746446 97.96705188 -47.12695312 102.02661133 C-50.52319671 105.62794432 -53.706661 109.28491436 -56.7265625 113.21484375 C-60.3403679 117.87332523 -63.5521628 120.63587718 -69.2265625 122.52734375 C-76.96182921 123.37372335 -83.14981716 123.29917371 -89.4140625 118.34765625 C-94.04680821 113.69494181 -95.4554501 109.2296285 -95.8515625 102.71484375 C-95.64282639 98.24066268 -94.86401038 95.26575265 -92.62109375 91.3984375 C-92.07614258 90.44525635 -91.53119141 89.4920752 -90.96972656 88.51000977 C-90.10686035 87.03359009 -90.10686035 87.03359009 -89.2265625 85.52734375 C-88.1130413 83.5665425 -86.99976376 81.60560285 -85.88671875 79.64453125 C-84.68949707 77.56265236 -83.49019499 75.48196877 -82.2890625 73.40234375 C-81.6401001 72.27779785 -80.9911377 71.15325195 -80.32250977 69.99462891 C-75.24357381 61.21346997 -70.04858404 52.50487698 -64.80322266 43.82202148 C-61.61800128 38.5419206 -58.46892061 33.24499749 -55.3828125 27.90625 C-54.75834229 26.82617676 -54.13387207 25.74610352 -53.49047852 24.63330078 C-52.31191257 22.58873069 -51.1376017 20.54169909 -49.96850586 18.49169922 C-43.89698068 7.9582112 -38.44058669 -0.12620195 -26.8515625 -4.84765625 C-16.81627118 -6.57787889 -8.60414311 -5.69081044 0 0 Z " fill="#EB2D4B" transform="translate(227.2265625,262.47265625)"/>
<path d="M0 0 C0.91154846 0.19839981 1.82309692 0.39679962 2.76226807 0.60121155 C5.76206654 1.25630985 8.75935286 1.92216391 11.7565918 2.58886719 C13.85246683 3.05050725 15.94843081 3.51174366 18.04447937 3.97259521 C22.43422847 4.93959082 26.82273062 5.91201754 31.21044922 6.88818359 C36.81302415 8.13409118 42.41863477 9.36566758 48.02529621 10.59303665 C52.35484325 11.54265672 56.682572 12.50036144 61.00981712 13.46041107 C63.07475366 13.91745256 65.14026024 14.37192685 67.20635414 14.82370758 C70.10561668 15.45886082 73.00222349 16.10501318 75.8984375 16.75390625 C76.73980759 16.93589066 77.58117767 17.11787506 78.44804382 17.30537415 C89.08230214 19.71829834 98.81782593 23.10157804 105.21362305 32.42480469 C109.63829799 40.38921958 110.86864976 49.0980614 108.49487305 57.94433594 C105.50299075 65.64362936 100.01890173 72.39605865 92.61987305 76.16699219 C83.62292721 79.67482667 75.12234946 79.0298579 66.2487793 75.54199219 C65.55491119 75.27516129 64.86104309 75.00833038 64.14614868 74.7334137 C57.21371406 72.03326631 50.40685747 69.05819999 43.61938477 66.01516724 C39.94142284 64.36631331 36.25662021 62.73283866 32.57299805 61.09667969 C31.4540213 60.59887749 31.4540213 60.59887749 30.31243896 60.09101868 C23.40839993 57.02253085 16.47944914 54.01333521 9.54281616 51.01940918 C7.66079686 50.20580162 5.78035039 49.38866645 3.90039062 48.5703125 C-1.37431727 46.27680592 -6.65125095 44.0018023 -11.9777832 41.83105469 C-21.47142935 37.91307142 -28.51484003 34.52990338 -32.85668945 24.76074219 C-33.70051122 18.64303438 -33.49988029 13.37978345 -30.66918945 7.82324219 C-21.56737169 -2.75454602 -12.77689547 -2.86585636 0 0 Z " fill="#EB2D4B" transform="translate(202.356689453125,164.8642578125)"/>
<path d="M0 0 C5.54917347 4.44806046 8.09405873 9.22497694 8.98046875 16.2578125 C9.0238131 22.34335979 6.91418207 28.10709582 2.73535156 32.62109375 C-5.57796643 39.22683658 -17.05990301 42.69063633 -26.8125 46.8125 C-29.90724985 48.12656182 -33.00068356 49.44369993 -36.09375 50.76171875 C-36.89279251 51.10195068 -37.69183502 51.44218262 -38.51509094 51.79272461 C-44.51567222 54.35302826 -50.49584236 56.95788501 -56.46875 59.58203125 C-57.76808723 60.15214684 -57.76808723 60.15214684 -59.09367371 60.73377991 C-62.4883674 62.22372459 -65.88295196 63.71382338 -69.27334595 65.21353149 C-102.46239163 79.89225636 -102.46239163 79.89225636 -115.1875 75.4375 C-124.21187548 71.32639562 -129.53177754 65.25851661 -133 56 C-135.13550424 46.92750746 -133.63581281 38.97875752 -129.3125 30.8125 C-118.23195246 17.3361584 -101.56411558 15.83867546 -85.32421875 12.234375 C-83.34409397 11.79190029 -81.36401772 11.34920835 -79.38398743 10.90631104 C-75.25898573 9.98502628 -71.13309928 9.06783579 -67.0065918 8.15332031 C-61.73128004 6.98363809 -56.45887733 5.80137076 -51.18712139 4.61577988 C-47.10912986 3.70052981 -43.02942746 2.79310077 -38.94919777 1.88788605 C-37.00423595 1.45518371 -35.0598662 1.01981074 -33.11612511 0.58165741 C-30.40035544 -0.02953824 -27.68239157 -0.62984553 -24.96362305 -1.22753906 C-24.17124237 -1.40826965 -23.37886169 -1.58900024 -22.56246948 -1.77520752 C-14.78675028 -3.46113168 -7.09811522 -4.19369682 0 0 Z " fill="#EB2D4B" transform="translate(462,315)"/>
<path d="M0 0 C4.86311467 3.53090285 8.26830394 8.32002336 9.2467041 14.27061462 C9.36058472 15.44193436 9.47446533 16.61325409 9.59179688 17.82006836 C9.65715134 18.46967026 9.7225058 19.11927216 9.7898407 19.78855896 C10.00415988 21.93779683 10.20719012 24.08794398 10.41015625 26.23828125 C10.55876536 27.75174059 10.7080696 29.26513182 10.85803223 30.77845764 C11.25225318 34.77610261 11.63689878 38.77461376 12.01959229 42.77337646 C12.40309064 46.76289818 12.7956791 50.75152301 13.1875 54.74023438 C13.85753989 61.57302651 14.51790875 68.40670203 15.17263508 75.24097729 C15.57539977 79.43864721 15.98709136 83.63530955 16.40698242 87.83129883 C18.10210346 104.86843912 18.10210346 104.86843912 18.06640625 113.0859375 C18.08251953 113.87806641 18.09863281 114.67019531 18.11523438 115.48632812 C18.1222518 123.99846932 15.56726825 130.2131925 9.7890625 136.4453125 C2.6220848 142.88321186 -4.67586022 144.6613053 -14.08203125 144.546875 C-22.6129862 143.80963198 -29.69562151 139.72431968 -35.24609375 133.2734375 C-41.49131888 124.02988289 -41.66857633 114.45680994 -40.56518555 103.66796875 C-40.48076202 102.76573578 -40.3963385 101.86350281 -40.30935669 100.93392944 C-40.03079555 97.98360744 -39.73838714 95.03485021 -39.4453125 92.0859375 C-39.24619244 90.01675017 -39.04778419 87.94749423 -38.85005188 85.87817383 C-38.43478852 81.55391488 -38.01301873 77.23035813 -37.58618164 72.90722656 C-37.04141972 67.38739286 -36.50973041 61.86639971 -35.98253155 56.34486389 C-35.57397418 52.07548148 -35.16007192 47.80663086 -34.74442482 43.53793335 C-34.54663454 41.50324662 -34.35009928 39.46843745 -34.15488243 37.4335022 C-33.88013805 34.58143717 -33.59859172 31.73012198 -33.31518555 28.87890625 C-33.23664841 28.05160004 -33.15811127 27.22429382 -33.07719421 26.37191772 C-31.20391178 7.84988492 -31.20391178 7.84988492 -23.80859375 1.0234375 C-16.38066071 -4.04929726 -7.88410381 -4.49155005 0 0 Z " fill="#EB2D4B" transform="translate(385.24609375,145.7265625)"/>
<path d="M0 0 C7.34511987 6.11863644 11.95966825 15.13583374 16.6875 23.3125 C21.47818368 31.50867783 26.34322365 39.65583667 31.28030396 47.7644043 C32.37136665 49.55653203 33.46113988 51.34943759 34.55053711 53.14257812 C37.85702834 58.5839681 41.1696414 64.02151602 44.4921875 69.453125 C45.57838352 71.23942616 46.66433812 73.02587415 47.75 74.8125 C48.23992432 75.6080127 48.72984863 76.40352539 49.23461914 77.22314453 C53.54963634 84.34824769 56.33889276 91.09343009 54.3125 99.515625 C52.25373533 105.6451289 48.92838898 110.43114369 43.3125 113.8125 C37.1209533 116.60338658 30.17276421 116.3313153 23.62109375 114.98828125 C13.61803934 111.04135581 5.53297782 98.22473771 -0.9765625 90.1171875 C-3.2968495 87.30496685 -5.71821134 84.61952737 -8.1875 81.9375 C-12.30128909 77.4676488 -16.15837297 72.84705107 -19.97265625 68.12109375 C-22.14382827 65.49041443 -24.38991357 62.95807576 -26.6875 60.4375 C-48.01392333 36.95238112 -48.01392333 36.95238112 -47.5859375 20.40625 C-46.76189243 12.19811477 -43.20798068 5.70992051 -36.9375 0.375 C-25.56272744 -7.46307857 -11.50758427 -7.85720937 0 0 Z " fill="#EB2D4B" transform="translate(125.1875,149.5625)"/>
<path d="M0 0 C5.21145376 4.20721825 8.64807624 10.13172873 10.75 16.4375 C11.75708599 30.20651173 9.36934797 37.85739878 0.42578125 48.3671875 C-0.46565703 49.39105079 -1.35761187 50.41446448 -2.25 51.4375 C-3.25709028 52.60627144 -4.26357427 53.7755655 -5.26953125 54.9453125 C-8.02119834 58.1373306 -10.78668568 61.31707487 -13.55615234 64.49365234 C-16.31346675 67.65792696 -19.06336498 70.82861895 -21.8125 74 C-22.35028076 74.62028076 -22.88806152 75.24056152 -23.44213867 75.87963867 C-27.07768845 80.07610498 -30.69972636 84.28391561 -34.3125 88.5 C-34.7986377 89.0664624 -35.28477539 89.6329248 -35.78564453 90.21655273 C-38.36789659 93.22832366 -40.93736896 96.25006847 -43.4921875 99.28515625 C-44.02706787 99.91736084 -44.56194824 100.54956543 -45.11303711 101.20092773 C-46.13073852 102.40421092 -47.14483517 103.61055635 -48.15454102 104.82055664 C-52.97396659 110.50481393 -57.6079931 114.92634431 -65.30078125 115.7734375 C-72.15988622 115.85558247 -77.66625038 115.70820636 -83.25 111.4375 C-88.59572869 106.21056529 -90.86207483 100.87340861 -91.6875 93.5625 C-91.22293239 83.62458468 -84.64153899 74.72173954 -79.5625 66.5625 C-78.8088522 65.3391152 -78.05602033 64.11522743 -77.30395508 62.89086914 C-75.74111996 60.34774447 -74.17481201 57.80680629 -72.60644531 55.26708984 C-69.93805924 50.93903746 -67.30640482 46.58915051 -64.67793274 42.23678589 C-61.52649514 37.01867748 -58.35777717 31.81131742 -55.18212891 26.60791016 C-53.93589262 24.56297404 -52.69311631 22.51592338 -51.45458984 20.46630859 C-49.85634397 17.82438558 -48.24316881 15.1922522 -46.625 12.5625 C-46.17664795 11.81411865 -45.7282959 11.0657373 -45.26635742 10.29467773 C-40.1994446 2.14611155 -34.06239893 -2.64105415 -24.8125 -5.25 C-15.79794866 -6.34933553 -7.65230822 -5.1550855 0 0 Z " fill="#EB2D4B" transform="translate(376.25,57.5625)"/>
<path d="M0 0 C4.74437531 3.6572982 8.10469204 8.78021069 9.19921875 14.6953125 C9.96731106 21.2807597 9.03629803 27.18492045 5.19921875 32.6953125 C0.0698264 38.21461438 -6.07193071 40.94941153 -12.92578125 43.8203125 C-14.0147168 44.28767822 -15.10365234 44.75504395 -16.22558594 45.23657227 C-19.74387563 46.73945587 -23.27064077 48.22049612 -26.80078125 49.6953125 C-27.96641602 50.18338379 -29.13205078 50.67145508 -30.33300781 51.17431641 C-37.54348438 54.18647657 -44.76780578 57.16412386 -51.99707031 60.13085938 C-55.99534015 61.77340028 -59.98823332 63.42879379 -63.98046875 65.0859375 C-64.64965332 65.36357437 -65.31883789 65.64121124 -66.00830078 65.92726135 C-68.61904994 67.01043817 -71.22979682 68.0936179 -73.83996582 69.17819214 C-75.62077469 69.91793657 -77.40217074 70.656267 -79.18359375 71.39453125 C-80.19824707 71.81565186 -81.21290039 72.23677246 -82.25830078 72.6706543 C-89.81682931 75.71685597 -99.01331744 76.26745678 -106.67578125 73.1328125 C-114.33251861 69.0834393 -120.62333414 63.3159287 -123.37890625 54.9375 C-125.31892545 44.62665724 -124.2417172 35.52325153 -118.55078125 26.7734375 C-110.7598063 16.41498217 -96.71773517 14.61720662 -84.87109375 11.83203125 C-83.03066807 11.39146061 -81.19041001 10.95018919 -79.35031128 10.508255 C-75.50771945 9.5884388 -71.66313023 8.67764718 -67.81689453 7.77319336 C-62.91519869 6.61970364 -58.01943183 5.44298261 -53.12495613 4.2592802 C-49.33002704 3.34441363 -45.53211012 2.44248656 -41.73321152 1.54426003 C-39.92794745 1.11573187 -38.12362836 0.68320034 -36.32034683 0.24640465 C-10.58689866 -5.9668511 -10.58689866 -5.9668511 0 0 Z " fill="#EB2D4B" transform="translate(211.80078125,395.3046875)"/>
<path d="M0 0 C1.84345169 0.43714917 3.68707791 0.87356295 5.53086853 1.3092804 C9.37972684 2.22183111 13.22632725 3.14322872 17.0715332 4.07104492 C21.97515541 5.25349235 26.88374012 6.41360522 31.79424381 7.56709576 C35.59789138 8.46321565 39.3986237 9.37123188 43.19860649 10.2827549 C45.00646071 10.71493077 46.81518309 11.14349299 48.62480354 11.56821251 C75.04437787 17.78855806 75.04437787 17.78855806 83.21875 29.72265625 C87.23399838 37.16555568 87.23117229 46.39897531 85.2421875 54.484375 C82.0604834 62.43174845 76.51035441 68.62560849 68.69921875 72.109375 C58.9795428 75.84933727 48.79579004 74.48276649 39.45532227 70.44775391 C38.36533936 69.94550293 37.27535645 69.44325195 36.15234375 68.92578125 C34.30775737 68.1198251 32.46311761 67.31398673 30.61720276 66.51107788 C28.56869446 65.61653209 26.52542609 64.71062588 24.48193359 63.8046875 C19.33424625 61.53691143 14.14577972 59.36943799 8.953125 57.20703125 C8.00571442 56.81248749 7.05830383 56.41794373 6.08218384 56.01144409 C4.16073449 55.21177104 2.23917479 54.4123631 0.31750488 53.61322021 C-6.72748665 50.68069614 -13.76353665 47.7269932 -20.79641724 44.76556396 C-22.97628105 43.85166718 -25.16016556 42.94818309 -27.34545898 42.04736328 C-28.60407418 41.52262947 -29.86262403 40.99773888 -31.12109375 40.47265625 C-32.18634277 40.03276367 -33.2515918 39.59287109 -34.34912109 39.13964844 C-39.92706833 36.42251727 -43.56227722 32.5909223 -46.03515625 26.92578125 C-48.34111546 19.50660814 -47.56610324 12.69223706 -44.09765625 5.80078125 C-34.74803277 -10.28057113 -14.34662396 -3.46462361 0 0 Z " fill="#EB2D4B" transform="translate(466.09765625,247.19921875)"/>
<path d="M0 0 C5.28866243 3.09607113 9.19884842 7.84339671 11.625 13.4375 C12.06396484 15.97558594 12.06396484 15.97558594 12.3359375 18.921875 C12.44446045 20.06084229 12.5529834 21.19980957 12.66479492 22.37329102 C12.83072144 24.26132446 12.83072144 24.26132446 13 26.1875 C13.12244064 27.53120166 13.24525536 28.87486928 13.3684082 30.21850586 C13.64277585 33.23939922 13.91006818 36.26083485 14.17333984 39.28271484 C14.49192066 42.93736935 14.81892354 46.59116497 15.15087891 50.24462891 C15.62352177 55.45221128 16.08438667 60.66073453 16.53814697 65.86999512 C16.71811855 67.9232326 16.90092396 69.97622408 17.08685303 72.02893066 C18.06319347 82.86535395 18.79554349 93.65088865 18.859375 104.53515625 C18.86877609 105.4447963 18.87817719 106.35443634 18.88786316 107.29164124 C18.8564041 115.47384762 17.08153044 120.57982483 11.60546875 126.69140625 C4.78835923 133.36524902 -1.45583754 135.51356702 -10.875 135.875 C-19.77656719 135.62629498 -26.11312048 132.5361956 -32.58203125 126.48046875 C-39.3177462 118.80556914 -40.73202895 110.28832197 -40.20283508 100.35609436 C-39.87505045 95.36581363 -39.4436432 90.38448941 -39.01171875 85.40234375 C-38.85752219 83.55494742 -38.70395333 81.7074986 -38.55097961 79.86000061 C-38.22958566 76.00243025 -37.90195663 72.1454576 -37.56958008 68.28881836 C-37.14555933 63.36514964 -36.73513524 58.44046444 -36.32913494 53.51528072 C-36.01386003 49.70487792 -35.69238316 45.89501822 -35.36896706 42.08529854 C-35.21542944 40.2702989 -35.06354398 38.45515867 -34.91339684 36.63987541 C-34.70188138 34.09650908 -34.48225534 31.55396586 -34.26049805 29.01147461 C-34.17074455 27.90538345 -34.17074455 27.90538345 -34.07917786 26.77694702 C-33.23062374 17.29921381 -31.89015636 9.27802388 -24.4375 2.6875 C-17.36759867 -2.50671322 -8.14772107 -3.65784009 0 0 Z " fill="#EB2D4B" transform="translate(384.375,407.5625)"/>
</svg>
