<?xml version="1.0" encoding="UTF-8"?>
<svg version="1.1" xmlns="http://www.w3.org/2000/svg" width="1200" height="469">
<path d="M0 0 C3.6955793 0.21117596 4.89944643 0.89944643 7.5625 3.5625 C16.47849458 15.33834189 17.21308473 28.66329479 15.53515625 42.9609375 C10.87759745 73.1015728 -7.01558332 99.68092644 -31 118 C-32.25876953 118.98226562 -32.25876953 118.98226562 -33.54296875 119.984375 C-53.7213849 135.2479273 -76.28216123 144.23552786 -100.05996704 152.21289062 C-144.30527807 165.18069121 -144.30527807 165.18069121 -178.09375 193.79296875 C-180.94557183 199.98511894 -180.81017784 207.35177595 -180 214 C-178.20677009 217.59644996 -176.51322191 219.97723587 -173 222 C-171.68 222 -170.36 222 -169 222 C-169.350625 221.46375 -169.70125 220.9275 -170.0625 220.375 C-171.33735758 217.14536079 -170.96557827 215.31055407 -170 212 C-168.04844601 209.4211608 -166.62811244 208.24793912 -163.625 207.0625 C-160.04143933 206.97717713 -158.0142912 208.12444103 -155 210 C-152.49695622 213.75456567 -152.54719926 215.54745934 -153 220 C-155.91670901 225.7212369 -159.92133322 228.97377774 -166 231 C-172.44226068 231.77510434 -177.75708602 230.9625392 -183 227 C-189.7600765 219.82022917 -191.48787439 213.38869654 -191.3046875 203.62890625 C-190.37625964 192.57109237 -184.60589029 183.45017112 -176.75 175.8125 C-160.38915576 162.03494696 -139.33191872 154.99587849 -119.7578125 147.0546875 C-102.47425683 140.02965253 -85.64259977 132.42705002 -69 124 C-67.8545874 123.42088867 -67.8545874 123.42088867 -66.68603516 122.83007812 C-37.67145508 107.90455335 -13.84054556 84.58841573 -3.6875 53.1171875 C1.25617215 35.70528339 2.27459273 17.91241771 0 0 Z " fill="#B18445" transform="translate(801,2)"/>
<path d="M0 0 C2.125 0.375 2.125 0.375 4 1 C3.76023437 2.70736328 3.76023437 2.70736328 3.515625 4.44921875 C0.03429359 32.56529071 6.99483084 61.05759674 23.28515625 84.25390625 C25.13034019 86.56814629 27.03158355 88.79090381 29 91 C29.63164062 91.82242188 30.26328125 92.64484375 30.9140625 93.4921875 C34.66699864 98.00414443 39.39789068 101.39246418 44 105 C44.96679688 105.75925781 45.93359375 106.51851563 46.9296875 107.30078125 C58.85048034 116.45481183 71.52787212 123.48361297 85 130 C85.70381805 130.34231659 86.40763611 130.68463318 87.13278198 131.037323 C98.44262093 136.52798364 109.87987367 141.54012201 121.53100586 146.25933838 C134.30781223 151.44672177 147.04130585 156.70784294 159.5 162.625 C160.45793457 163.07270752 161.41586914 163.52041504 162.40283203 163.98168945 C168.57163636 166.97878138 173.7054799 170.6659039 179 175 C179.86625 175.598125 180.7325 176.19625 181.625 176.8125 C189.49955482 184.06537944 194.09081343 193.52967321 195.37890625 204.11328125 C195.68518457 211.88879864 194.24404753 217.89977528 189.38671875 224.0390625 C184.74782678 229.03795717 180.95179405 230.71434251 174.125 231.375 C169.47175901 231.24128618 165.80479103 229.62370291 162 227 C158.84462257 223.60190123 157.14809643 221.30818514 156.625 216.6875 C157 213 157 213 159.1875 210.125 C162.05811658 207.9560897 163.42481427 207 167 207 C169.83713564 208.38557787 171.77001704 209.77001704 174 212 C174.23046875 213.875 174.23046875 213.875 174.1875 216 C174.17783203 217.051875 174.17783203 217.051875 174.16796875 218.125 C174 220 174 220 173 222 C176.92888829 221.73212125 178.54876221 221.47562903 181.3125 218.5625 C184.99436837 212.97151469 184.51927385 207.56510512 184 201 C181.49719773 190.18970345 174.49611033 183.3384874 165.33740234 177.55957031 C146.94898364 166.62191104 126.2083108 160.06695736 106.0867157 153.11494446 C77.54728009 143.24046763 50.66198022 132.47880438 28 112 C27.14277344 111.28585938 26.28554688 110.57171875 25.40234375 109.8359375 C5.76714681 93.21914642 -8.17561912 68.33971855 -11.78515625 42.7890625 C-12.87639891 28.62274873 -12.90316776 15.02533509 -3.3671875 3.48828125 C-2.27387543 2.29813297 -1.14275636 1.14275636 0 0 Z " fill="#B18445" transform="translate(392,2)"/>
<path d="M0 0 C3.32878886 9.98636657 -0.77814693 20.83571125 -5 29.9375 C-20.57189668 60.62081133 -55.82200083 78.63539662 -87 89 C-101.22846813 93.35041625 -115.71452682 96.7267779 -130.20922852 100.04907227 C-156.9328749 106.1782543 -183.14548395 112.53034795 -201 135 C-201.495 135.99 -201.495 135.99 -202 137 C-202.66 137 -203.32 137 -204 137 C-203.56538163 128.52494178 -197.34321237 121.61266316 -191.4453125 115.97265625 C-174.90827947 102.63207849 -153.34359599 97.41121945 -133.3046875 91.8671875 C-92.56148511 80.69117435 -92.56148511 80.69117435 -56 60 C-54.95972656 59.24203125 -53.91945313 58.4840625 -52.84765625 57.703125 C-35.26129576 44.69058356 -21.75891311 30.34586763 -11.79052734 10.75195312 C-6.22603151 0 -6.22603151 0 0 0 Z " fill="#B18445" transform="translate(829,72)"/>
<path d="M0 0 C3.73586746 0.21347814 4.86620571 0.85711699 7.47265625 3.640625 C9.95342231 6.74793109 11.60046873 10.00102979 13.25 13.625 C25.35081481 38.98486009 49.47645766 58.26109168 74 71 C74.62003906 71.32564941 75.24007812 71.65129883 75.87890625 71.98681641 C96.24365249 82.53431503 118.52599397 88.15400779 140.58813477 93.96801758 C162.33468294 99.74823416 189.03232457 107.0622922 201.1875 127.875 C202.70594066 130.86638497 203.43041723 133.69757063 204 137 C203.34 137 202.68 137 202 137 C200.80859375 135.53125 200.80859375 135.53125 199.4375 133.5 C181.63811717 109.10665695 147.26432498 103.85105582 119.75 97.4375 C79.69031522 88.08419495 32.17112796 73.64610483 8.765625 36.5703125 C5.02043526 30.34823442 1.7779028 24.08095771 0 17 C-0.226875 16.195625 -0.45375 15.39125 -0.6875 14.5625 C-1.98039216 3.96078431 -1.98039216 3.96078431 0 0 Z " fill="#B18445" transform="translate(368,72)"/>
<path d="M0 0 C1.12728516 0.00386719 1.12728516 0.00386719 2.27734375 0.0078125 C3.37755859 0.00394531 3.37755859 0.00394531 4.5 0 C5.84384766 0.06574219 5.84384766 0.06574219 7.21484375 0.1328125 C8.18683716 0.13752563 8.18683716 0.13752563 9.1784668 0.14233398 C11.33994075 0.24839869 13.15588145 0.46027474 15.21484375 1.1328125 C16.99635693 3.3773178 17.84855761 4.86717352 18.90234375 7.4453125 C19.20994629 8.12158691 19.51754883 8.79786133 19.83447266 9.49462891 C20.55270324 11.07788423 21.25730912 12.66735807 21.95166016 14.26123047 C24.28880373 19.57423446 26.75740014 24.8275755 29.20327759 30.09115601 C30.08356197 31.994232 30.95436597 33.90139569 31.82299805 35.80981445 C32.362229 36.98632568 32.90145996 38.16283691 33.45703125 39.375 C34.18188721 40.96610596 34.18188721 40.96610596 34.92138672 42.58935547 C36.09224621 45.216721 36.09224621 45.216721 38.21484375 47.1328125 C38.47349213 46.61551575 38.7321405 46.09821899 38.99862671 45.56524658 C45.73736572 32.08776855 52.47610474 18.61029053 59.21484375 5.1328125 C59.51580963 4.39939636 59.81677551 3.66598022 60.12686157 2.91033936 C60.66541275 2.03046356 60.66541275 2.03046356 61.21484375 1.1328125 C66.74214029 -0.03082888 75.00558692 -1.47181591 80.21484375 1.1328125 C80 2.9921875 80 2.9921875 79.21484375 5.1328125 C77.1484375 6.3984375 77.1484375 6.3984375 74.65234375 7.3828125 C73.82605469 7.71796875 72.99976563 8.053125 72.1484375 8.3984375 C71.51035156 8.64078125 70.87226563 8.883125 70.21484375 9.1328125 C70.10264547 20.29030834 70.22199399 31.41959913 70.65234375 42.5703125 C70.69157959 43.64144287 70.73081543 44.71257324 70.77124023 45.81616211 C70.83420288 47.33222046 70.83420288 47.33222046 70.8984375 48.87890625 C70.93509521 49.77279053 70.97175293 50.6666748 71.00952148 51.58764648 C71.21936176 54.18881755 71.54852466 56.60844625 72.21484375 59.1328125 C74.033915 60.58378936 74.033915 60.58378936 76.27734375 61.4453125 C77.01082031 61.77144531 77.74429688 62.09757812 78.5 62.43359375 C79.06589844 62.66433594 79.63179688 62.89507812 80.21484375 63.1328125 C79.71984375 65.1128125 79.71984375 65.1128125 79.21484375 67.1328125 C70.30484375 67.1328125 61.39484375 67.1328125 52.21484375 67.1328125 C51.88484375 65.8128125 51.55484375 64.4928125 51.21484375 63.1328125 C53.52484375 62.4728125 55.83484375 61.8128125 58.21484375 61.1328125 C58.21484375 47.9328125 58.21484375 34.7328125 58.21484375 21.1328125 C55.84296875 26.1653125 53.47109375 31.1978125 51.02734375 36.3828125 C50.2897583 37.94418945 49.55217285 39.50556641 48.79223633 41.11425781 C48.18895148 42.39617191 47.58630687 43.67838755 46.984375 44.9609375 C46.49865776 45.99471527 46.49865776 45.99471527 46.00312805 47.04937744 C43.58879917 52.22895225 41.38837724 57.472491 39.3269043 62.80371094 C38.22347402 65.11473724 37.13736435 66.46968233 35.21484375 68.1328125 C32.21484375 67.1328125 32.21484375 67.1328125 31.07421875 65.0078125 C30.708125 64.0590625 30.34203125 63.1103125 29.96484375 62.1328125 C29.53429687 61.04484375 29.10375 59.956875 28.66015625 58.8359375 C28.18320313 57.61390625 27.70625 56.391875 27.21484375 55.1328125 C26.10171069 52.37791037 24.97160026 49.63010825 23.83984375 46.8828125 C23.54875732 46.17326416 23.2576709 45.46371582 22.95776367 44.73266602 C19.83337896 37.14536144 16.53690937 29.63522818 13.21484375 22.1328125 C12.40188097 25.03211798 12.03809899 27.72513776 11.8984375 30.73046875 C11.85638184 31.60985107 11.81432617 32.4892334 11.77099609 33.39526367 C11.73184082 34.31927979 11.69268555 35.2432959 11.65234375 36.1953125 C11.58974365 37.60744019 11.58974365 37.60744019 11.52587891 39.0480957 C10.2834209 49.87086923 10.2834209 49.87086923 12.21484375 60.1328125 C14.52450223 61.18634093 16.85782115 62.19000346 19.21484375 63.1328125 C18.88484375 64.4528125 18.55484375 65.7728125 18.21484375 67.1328125 C14.44443119 67.32951804 10.67350612 67.51359676 6.90234375 67.6953125 C5.29456055 67.77942383 5.29456055 67.77942383 3.65429688 67.86523438 C2.62626953 67.91357422 1.59824219 67.96191406 0.5390625 68.01171875 C-0.88273315 68.08241577 -0.88273315 68.08241577 -2.33325195 68.15454102 C-4.78515625 68.1328125 -4.78515625 68.1328125 -7.78515625 67.1328125 C-7.78515625 65.8128125 -7.78515625 64.4928125 -7.78515625 63.1328125 C-7.23085937 62.89046875 -6.6765625 62.648125 -6.10546875 62.3984375 C-5.38101563 62.06328125 -4.6565625 61.728125 -3.91015625 61.3828125 C-2.83121094 60.89554687 -2.83121094 60.89554687 -1.73046875 60.3984375 C0.6280949 58.8639503 1.13072873 57.70169962 2.21484375 55.1328125 C2.64932895 53.17222674 2.64932895 53.17222674 2.82495117 51.11791992 C2.90811081 50.33998581 2.99127045 49.5620517 3.07695007 48.76054382 C3.15725967 47.92819717 3.23756927 47.09585052 3.3203125 46.23828125 C3.45280144 44.93991081 3.45280144 44.93991081 3.58796692 43.61531067 C3.77243881 41.78584175 3.95290328 39.95596492 4.12963867 38.12573242 C4.40046732 35.33961601 4.68859369 32.55567098 4.97851562 29.77148438 C5.15599708 27.98968753 5.33246241 26.20778911 5.5078125 24.42578125 C5.63738594 23.18637032 5.63738594 23.18637032 5.76957703 21.92192078 C6.22069039 17.10255566 6.10270978 12.89558238 5.21484375 8.1328125 C2.24484375 7.1428125 -0.72515625 6.1528125 -3.78515625 5.1328125 C-2.5493703 0.18966869 -2.5493703 0.18966869 0 0 Z " fill="#000000" transform="translate(193.78515625,296.8671875)"/>
<path d="M0 0 C1.06734375 -0.00128906 2.1346875 -0.00257813 3.234375 -0.00390625 C4.35328125 -0.00003906 5.4721875 0.00382812 6.625 0.0078125 C7.74390625 0.00394531 8.8628125 0.00007813 10.015625 -0.00390625 C11.61664062 -0.00197266 11.61664062 -0.00197266 13.25 0 C14.72339844 0.00169189 14.72339844 0.00169189 16.2265625 0.00341797 C18.625 0.1328125 18.625 0.1328125 20.625 1.1328125 C20.5 3.0078125 20.5 3.0078125 19.625 5.1328125 C17.645 5.7928125 15.665 6.4528125 13.625 7.1328125 C13.295 14.3928125 12.965 21.6528125 12.625 29.1328125 C24.175 28.8028125 35.725 28.4728125 47.625 28.1328125 C47.295 21.5328125 46.965 14.9328125 46.625 8.1328125 C42.17 6.1528125 42.17 6.1528125 37.625 4.1328125 C37.955 3.1428125 38.285 2.1528125 38.625 1.1328125 C44.63360549 0.07443123 50.47127561 0.01618679 56.5625 0.0703125 C57.53251953 0.07482422 58.50253906 0.07933594 59.50195312 0.08398438 C61.8763676 0.095681 64.25065021 0.11207164 66.625 0.1328125 C67.615 2.1128125 67.615 2.1128125 68.625 4.1328125 C64.665 6.1128125 64.665 6.1128125 60.625 8.1328125 C60.625 24.9628125 60.625 41.7928125 60.625 59.1328125 C63.265 60.4528125 65.905 61.7728125 68.625 63.1328125 C68.625 64.4528125 68.625 65.7728125 68.625 67.1328125 C58.725 67.1328125 48.825 67.1328125 38.625 67.1328125 C38.625 65.8128125 38.625 64.4928125 38.625 63.1328125 C39.19089844 62.96007812 39.75679687 62.78734375 40.33984375 62.609375 C42.76630546 61.67972886 44.60516304 60.77686584 46.625 59.1328125 C47.90525263 55.67679374 47.625 52.95169407 47.625 49.1328125 C47.625 44.8428125 47.625 40.5528125 47.625 36.1328125 C36.405 36.4628125 25.185 36.7928125 13.625 37.1328125 C12.89241033 51.78210029 12.89241033 51.78210029 15.625 60.1328125 C17.26619399 61.56664549 17.26619399 61.56664549 19.25 62.0703125 C20.920625 62.59625 20.920625 62.59625 22.625 63.1328125 C22.625 64.4528125 22.625 65.7728125 22.625 67.1328125 C12.725 67.1328125 2.825 67.1328125 -7.375 67.1328125 C-7.375 65.8128125 -7.375 64.4928125 -7.375 63.1328125 C-4.735 61.8128125 -2.095 60.4928125 0.625 59.1328125 C0.625 42.3028125 0.625 25.4728125 0.625 8.1328125 C-3.83 6.1528125 -3.83 6.1528125 -8.375 4.1328125 C-8.045 3.1428125 -7.715 2.1528125 -7.375 1.1328125 C-4.78776011 -0.16080744 -2.89386997 0.00332301 0 0 Z " fill="#000000" transform="translate(698.375,296.8671875)"/>
<path d="M0 0 C1.06734375 -0.00128906 2.1346875 -0.00257813 3.234375 -0.00390625 C4.35328125 -0.00003906 5.4721875 0.00382812 6.625 0.0078125 C7.74390625 0.00394531 8.8628125 0.00007813 10.015625 -0.00390625 C11.61664062 -0.00197266 11.61664062 -0.00197266 13.25 0 C14.72339844 0.00169189 14.72339844 0.00169189 16.2265625 0.00341797 C18.625 0.1328125 18.625 0.1328125 20.625 1.1328125 C20.5 3.0078125 20.5 3.0078125 19.625 5.1328125 C17.645 5.7928125 15.665 6.4528125 13.625 7.1328125 C13.625 14.0628125 13.625 20.9928125 13.625 28.1328125 C25.175 28.4628125 36.725 28.7928125 48.625 29.1328125 C47.965 22.2028125 47.305 15.2728125 46.625 8.1328125 C42.17 6.1528125 42.17 6.1528125 37.625 4.1328125 C37.955 3.1428125 38.285 2.1528125 38.625 1.1328125 C44.58791015 0.09363314 50.39291238 -0.01721685 56.4375 0.0078125 C57.86739258 0.00201172 57.86739258 0.00201172 59.32617188 -0.00390625 C60.23560547 -0.00261719 61.14503906 -0.00132812 62.08203125 0 C63.3191687 0.00169189 63.3191687 0.00169189 64.58129883 0.00341797 C66.625 0.1328125 66.625 0.1328125 68.625 1.1328125 C68.5625 2.9453125 68.5625 2.9453125 67.625 5.1328125 C64.16 6.6178125 64.16 6.6178125 60.625 8.1328125 C60.625 24.9628125 60.625 41.7928125 60.625 59.1328125 C65.08 61.1128125 65.08 61.1128125 69.625 63.1328125 C69.13 65.1128125 69.13 65.1128125 68.625 67.1328125 C58.725 67.1328125 48.825 67.1328125 38.625 67.1328125 C38.625 65.8128125 38.625 64.4928125 38.625 63.1328125 C39.19089844 62.936875 39.75679687 62.7409375 40.33984375 62.5390625 C42.66320563 61.5917515 44.60406652 60.62394524 46.625 59.1328125 C47.85078484 55.64909233 47.85078484 55.64909233 47.625 51.1328125 C47.625 46.1828125 47.625 41.2328125 47.625 36.1328125 C36.405 36.4628125 25.185 36.7928125 13.625 37.1328125 C13.1866027 51.51622246 13.1866027 51.51622246 14.625 59.1328125 C16.42301875 60.69167276 16.42301875 60.69167276 18.6875 61.5078125 C19.78771484 61.98347656 19.78771484 61.98347656 20.91015625 62.46875 C21.75900391 62.79746094 21.75900391 62.79746094 22.625 63.1328125 C22.625 64.4528125 22.625 65.7728125 22.625 67.1328125 C12.725 67.1328125 2.825 67.1328125 -7.375 67.1328125 C-7.705 66.4728125 -8.035 65.8128125 -8.375 65.1328125 C-5.59346556 61.88768899 -3.64115224 61.26588862 0.625 59.1328125 C0.625 42.3028125 0.625 25.4728125 0.625 8.1328125 C-3.83 6.1528125 -3.83 6.1528125 -8.375 4.1328125 C-8.045 3.1428125 -7.715 2.1528125 -7.375 1.1328125 C-4.78776011 -0.16080744 -2.89386997 0.00332301 0 0 Z " fill="#000000" transform="translate(940.375,296.8671875)"/>
<path d="M0 0 C2.68339016 2.8565121 3 4.52527573 3 8.4375 C1.42837621 14.03640975 -1.28414226 17.02875977 -6.3125 19.875 C-7.6428125 20.431875 -7.6428125 20.431875 -9 21 C-8.38125 21.86625 -7.7625 22.7325 -7.125 23.625 C-2.20708109 31.43581238 -1.9341751 40.0234829 -3 49 C-5.44179939 58.57098154 -10.62795685 66.19849063 -18.75 71.8125 C-27.21398716 76.65841915 -36.67482054 78.38046457 -46.16796875 76.30859375 C-57.46004894 73.20294684 -64.72401073 67.92868144 -71 58 C-75.10344848 50.22964011 -75.36091213 40.58973514 -73.30859375 32.16015625 C-69.2842946 21.23224767 -62.14572448 14.16895518 -51.84765625 8.8984375 C-40.35492474 4.31846628 -29.13305023 7.09608877 -17.9284668 10.86499023 C-13.45649834 12.36038098 -9.79097555 13.37332277 -5 13 C-5 12.01 -5 11.02 -5 10 C-5.639375 9.773125 -6.27875 9.54625 -6.9375 9.3125 C-9 8 -9 8 -9.75 5.375 C-9.8325 4.59125 -9.915 3.8075 -10 3 C-6.7335598 -0.01517557 -4.41639963 -0.7517276 0 0 Z M-56.37109375 20.74609375 C-62.0125861 30.02459216 -62.64176918 41.63069517 -60.3125 52.0859375 C-57.51364328 59.66617446 -53.26096272 65.01145403 -46.1875 68.9375 C-40.5545294 71.48796045 -35.77451645 72.21956398 -29.8359375 70.30078125 C-24.30972497 67.84813637 -20.6162987 64.41508273 -18.03125 58.953125 C-14.3362812 48.75774812 -14.46740164 36.29050876 -18.7421875 26.3359375 C-21.82263182 20.61511233 -25.63733135 16.30853465 -31.66796875 13.66796875 C-41.28082438 10.91453774 -50.06197701 12.71140662 -56.37109375 20.74609375 Z " fill="#000000" transform="translate(430,289)"/>
<path d="M0 0 C0.66 0 1.32 0 2 0 C2.99421329 7.84330993 3.97361302 15.68650946 4.859375 23.54296875 C8.01409686 60.56222133 8.01409686 60.56222133 20.64453125 94.6875 C22 97 22 97 22 100 C20.4609375 101.32421875 20.4609375 101.32421875 18.375 102.6875 C8.46085355 109.79906088 4.10409152 120.28906954 2 132 C1.34 132 0.68 132 0 132 C-0.08636719 131.32195312 -0.17273438 130.64390625 -0.26171875 129.9453125 C-1.88554745 119.18930957 -6.05327483 109.26606585 -14.9375 102.53125 C-15.8965625 101.86609375 -15.8965625 101.86609375 -16.875 101.1875 C-17.90625 100.465625 -18.9375 99.74375 -20 99 C-20 98.34 -20 97.68 -20 97 C-19.34 97 -18.68 97 -18 97 C-17.71769531 96.13375 -17.43539062 95.2675 -17.14453125 94.375 C-16.43313712 92.2772371 -15.68659485 90.19064494 -14.88671875 88.125 C-4.18964808 60.24989728 -1.95078829 29.53937554 0 0 Z " fill="#B18445" transform="translate(597,76)"/>
<path d="M0 0 C0.75990234 0.0103125 1.51980469 0.020625 2.30273438 0.03125 C6.36415202 0.21473716 8.19875616 0.48345346 11.45703125 3.09375 C12.19308594 4.0115625 12.92914063 4.929375 13.6875 5.875 C14.41710937 6.74898438 15.14671875 7.62296875 15.8984375 8.5234375 C16.61257813 9.42320312 17.32671875 10.32296875 18.0625 11.25 C21.20515433 15.13669335 24.42782716 18.73834418 28.015625 22.2109375 C30.40647161 24.59061193 32.58566466 27.13514775 34.7890625 29.6875 C36.97935094 32.21128915 39.20443205 34.70149555 41.4375 37.1875 C42.17484375 38.00863281 42.9121875 38.82976562 43.671875 39.67578125 C45.30490575 41.45755705 46.96098591 43.18488831 48.6875 44.875 C49.0175 45.205 49.3475 45.535 49.6875 45.875 C49.71238484 41.73071691 49.73044686 37.58647446 49.74243164 33.44213867 C49.7474327 32.03490439 49.7542357 30.62767523 49.76293945 29.22045898 C49.77519159 27.18732431 49.7807707 25.15425886 49.78515625 23.12109375 C49.79039307 21.90091553 49.79562988 20.6807373 49.80102539 19.42358398 C49.68563768 15.81678749 49.38907767 12.41587788 48.6875 8.875 C46.67586707 7.19409038 46.67586707 7.19409038 44.125 6.4375 C43.29871094 6.12941406 42.47242188 5.82132812 41.62109375 5.50390625 C40.66396484 5.19259766 40.66396484 5.19259766 39.6875 4.875 C40.0175 3.555 40.3475 2.235 40.6875 0.875 C44.45750648 0.64932589 48.22841787 0.44744154 52 0.25 C53.6077832 0.15332031 53.6077832 0.15332031 55.24804688 0.0546875 C56.27607422 0.003125 57.30410156 -0.0484375 58.36328125 -0.1015625 C59.7850769 -0.18011475 59.7850769 -0.18011475 61.2355957 -0.26025391 C63.6875 -0.125 63.6875 -0.125 66.6875 1.875 C66.3575 2.865 66.0275 3.855 65.6875 4.875 C62.125 6.5625 62.125 6.5625 58.6875 7.875 C57.84134911 15.11420113 57.49042923 22.28556267 57.37109375 29.5703125 C57.3399221 31.18049759 57.3399221 31.18049759 57.30812073 32.82321167 C57.24330872 36.21541625 57.18406166 39.60769093 57.125 43 C57.0817496 45.3151111 57.03813336 47.63021539 56.99414062 49.9453125 C56.88769856 55.58846993 56.7858119 61.23169538 56.6875 66.875 C54.7075 67.865 54.7075 67.865 52.6875 68.875 C48.06629867 63.83865529 43.54312967 58.75791427 39.25 53.4375 C35.39445778 48.67003823 31.32527616 44.15264835 27.171875 39.64453125 C23.93401573 36.0350309 20.90227212 32.27951216 17.890625 28.48046875 C15.30824954 25.42648926 12.54559986 22.67185487 9.6875 19.875 C9.63776489 24.30410272 9.60162296 28.73305397 9.57763672 33.16235352 C9.56762876 34.66661413 9.5540182 36.17085553 9.53662109 37.67504883 C9.51214191 39.84721643 9.50096477 42.01912504 9.4921875 44.19140625 C9.48171387 45.49537354 9.47124023 46.79934082 9.46044922 48.14282227 C9.69604838 52.01551513 10.38827918 55.22437248 11.6875 58.875 C13.5531986 60.52314902 13.5531986 60.52314902 15.8125 61.3125 C16.53695313 61.62058594 17.26140625 61.92867188 18.0078125 62.24609375 C18.56210937 62.45363281 19.11640625 62.66117187 19.6875 62.875 C19.3575 64.195 19.0275 65.515 18.6875 66.875 C9.7775 66.875 0.8675 66.875 -8.3125 66.875 C-8.3125 65.555 -8.3125 64.235 -8.3125 62.875 C-7.46365234 62.47667969 -7.46365234 62.47667969 -6.59765625 62.0703125 C-5.86417969 61.71710938 -5.13070313 61.36390625 -4.375 61 C-3.27865234 60.47792969 -3.27865234 60.47792969 -2.16015625 59.9453125 C-0.14917541 59.0065023 -0.14917541 59.0065023 0.6875 56.875 C1.85655079 46.18035017 1.89157685 35.30804576 2.0625 24.5625 C2.10060791 23.28076904 2.13871582 21.99903809 2.17797852 20.6784668 C2.18885498 19.46843994 2.19973145 18.25841309 2.2109375 17.01171875 C2.2406665 15.38302856 2.2406665 15.38302856 2.27099609 13.72143555 C1.92444185 10.66541361 1.92444185 10.66541361 -0.71899414 8.55688477 C-2.84869296 7.17577819 -4.77230723 6.04762462 -7.125 5.125 C-8.176875 4.7125 -9.22875 4.3 -10.3125 3.875 C-10.3125 2.885 -10.3125 1.895 -10.3125 0.875 C-7.05155736 -0.75547132 -3.55974598 -0.15464226 0 0 Z " fill="#000000" transform="translate(447.3125,297.125)"/>
<path d="M0 0 C0.75990234 0.0103125 1.51980469 0.020625 2.30273438 0.03125 C6.36415202 0.21473716 8.19875616 0.48345346 11.45703125 3.09375 C12.19308594 4.0115625 12.92914062 4.929375 13.6875 5.875 C14.41710937 6.74898438 15.14671875 7.62296875 15.8984375 8.5234375 C16.61257813 9.42320312 17.32671875 10.32296875 18.0625 11.25 C21.2075496 15.13965572 24.43319332 18.74326248 28.0234375 22.21875 C30.36675572 24.55106672 32.49528336 27.04759021 34.6484375 29.5546875 C36.25330515 31.3809162 37.88026539 33.16888566 39.5390625 34.9453125 C40.03760742 35.48067627 40.53615234 36.01604004 41.04980469 36.56762695 C42.04400436 37.63226782 43.04195294 38.69342241 44.04394531 39.75073242 C46.2579425 42.12738585 47.64661907 43.75235721 48.6875 46.875 C49.3475 46.875 50.0075 46.875 50.6875 46.875 C50.59354205 42.28481063 50.48735709 37.69512259 50.37011719 33.10546875 C50.33197039 31.54597602 50.29709318 29.9863996 50.265625 28.42675781 C50.21966175 26.17743126 50.16172192 23.92867385 50.1015625 21.6796875 C50.09001129 20.9888205 50.07846008 20.29795349 50.06655884 19.58615112 C49.93905865 15.34956489 49.3422576 11.78624525 47.6875 7.875 C45.79278994 6.53647863 45.79278994 6.53647863 43.5625 6 C42.83804688 5.77570313 42.11359375 5.55140625 41.3671875 5.3203125 C40.81289063 5.17335938 40.25859375 5.02640625 39.6875 4.875 C40.0175 3.555 40.3475 2.235 40.6875 0.875 C48.6075 0.545 56.5275 0.215 64.6875 -0.125 C65.6775 1.855 65.6775 1.855 66.6875 3.875 C66.12160156 4.04773438 65.55570313 4.22046875 64.97265625 4.3984375 C62.54065415 5.33020632 60.7328592 6.2537264 58.6875 7.875 C57.98804335 9.93880185 57.98804335 9.93880185 57.95336914 12.30810547 C57.87120651 13.64878082 57.87120651 13.64878082 57.78738403 15.01654053 C57.7544223 15.95983215 57.72146057 16.90312378 57.6875 17.875 C57.65042938 18.79428284 57.61335876 19.71356567 57.57516479 20.66070557 C57.47818372 23.63061186 57.4197646 26.5992349 57.37109375 29.5703125 C57.3399221 31.18049759 57.3399221 31.18049759 57.30812073 32.82321167 C57.24330872 36.21541625 57.18406166 39.60769093 57.125 43 C57.0817496 45.3151111 57.03813336 47.63021539 56.99414062 49.9453125 C56.88769856 55.58846993 56.7858119 61.23169538 56.6875 66.875 C54.7075 67.865 54.7075 67.865 52.6875 68.875 C48.45382303 64.20295866 44.3297844 59.4738568 40.375 54.5625 C36.6741958 49.99541461 32.7884921 45.66753452 28.78515625 41.36938477 C24.94140526 37.21724294 21.36500606 32.88484325 17.85546875 28.4453125 C15.28760527 25.40089058 12.53370207 22.66029903 9.6875 19.875 C9.63776489 24.30410272 9.60162296 28.73305397 9.57763672 33.16235352 C9.56762876 34.66661413 9.5540182 36.17085553 9.53662109 37.67504883 C9.51214191 39.84721643 9.50096477 42.01912504 9.4921875 44.19140625 C9.48171387 45.49537354 9.47124023 46.79934082 9.46044922 48.14282227 C9.69604838 52.01551513 10.38827918 55.22437248 11.6875 58.875 C13.5531986 60.52314902 13.5531986 60.52314902 15.8125 61.3125 C16.53695312 61.62058594 17.26140625 61.92867188 18.0078125 62.24609375 C18.56210937 62.45363281 19.11640625 62.66117187 19.6875 62.875 C19.3575 64.195 19.0275 65.515 18.6875 66.875 C9.7775 66.875 0.8675 66.875 -8.3125 66.875 C-8.3125 65.555 -8.3125 64.235 -8.3125 62.875 C-7.46365234 62.47667969 -7.46365234 62.47667969 -6.59765625 62.0703125 C-5.86417969 61.71710938 -5.13070312 61.36390625 -4.375 61 C-3.27865234 60.47792969 -3.27865234 60.47792969 -2.16015625 59.9453125 C-0.14917541 59.0065023 -0.14917541 59.0065023 0.6875 56.875 C1.85655079 46.18035017 1.89157685 35.30804576 2.0625 24.5625 C2.10060791 23.28076904 2.13871582 21.99903809 2.17797852 20.6784668 C2.18885498 19.46843994 2.19973145 18.25841309 2.2109375 17.01171875 C2.2406665 15.38302856 2.2406665 15.38302856 2.27099609 13.72143555 C1.92444185 10.66541361 1.92444185 10.66541361 -0.71899414 8.55688477 C-2.84869296 7.17577819 -4.77230723 6.04762462 -7.125 5.125 C-8.176875 4.7125 -9.22875 4.3 -10.3125 3.875 C-10.3125 2.885 -10.3125 1.895 -10.3125 0.875 C-7.05155736 -0.75547132 -3.55974598 -0.15464226 0 0 Z " fill="#000000" transform="translate(859.3125,297.125)"/>
<path d="M0 0 C2.63829198 3.35150058 3.54547148 6.5228274 4.25 10.6875 C4.42015625 11.64011719 4.5903125 12.59273438 4.765625 13.57421875 C5 16 5 16 4 18 C1.75 17.875 1.75 17.875 -1 17 C-2.38442 15.03501678 -3.71203834 13.02951535 -5 11 C-10.12403715 5.76209536 -15.03255956 3.71218492 -22.3125 3.625 C-29.91083281 3.76237099 -34.29077473 5.41392134 -39.75 10.625 C-45.88125387 18.9801324 -47.14482464 27.82507895 -46 38 C-44.20986976 45.39182991 -40.5163476 52.14022777 -33.9765625 56.28125 C-26.0653499 60.39860972 -18.70583018 60.74116604 -10 59 C-8.73417781 55.13276369 -8.8881235 51.26848738 -8.9375 47.25 C-8.94201172 46.55261719 -8.94652344 45.85523438 -8.95117188 45.13671875 C-8.9628998 43.42444197 -8.98083347 41.71220967 -9 40 C-13.455 38.02 -13.455 38.02 -18 36 C-17.67 35.01 -17.34 34.02 -17 33 C-11.97985026 31.67392271 -6.96320636 31.8529413 -1.8125 31.875 C-0.89791016 31.87113281 0.01667969 31.86726563 0.95898438 31.86328125 C1.83232422 31.86457031 2.70566406 31.86585938 3.60546875 31.8671875 C4.40106201 31.86831543 5.19665527 31.86944336 6.01635742 31.87060547 C8 32 8 32 10 33 C9.8125 34.8125 9.8125 34.8125 9 37 C8.15695312 37.33515625 7.31390625 37.6703125 6.4453125 38.015625 C3.81085755 39.69888163 3.81085755 39.69888163 3.68725586 42.04956055 C3.73812797 45.61025728 3.99820481 49.13693955 4.28320312 52.68554688 C4.40486219 55.22915726 4.45270036 57.49278026 4 60 C-2.2209557 66.07037281 -12.8316345 67.11269702 -21.25 67.3125 C-32.96741278 66.83540665 -44.16775077 63.45449827 -52.5 54.8125 C-59.6962911 45.81713613 -61.07090622 36.28467431 -60 25 C-58.59400586 16.72723088 -53.98054337 10.14542172 -47.44921875 4.984375 C-34.05865006 -4.03105738 -15.1958232 -6.7562613 0 0 Z " fill="#000000" transform="translate(578,299)"/>
<path d="M0 0 C2.375 0.5 2.375 0.5 4.1875 2 C5.86878371 5.53954465 6.13646707 8.70730826 5.375 12.5 C2.38328987 17.36152897 -0.79072938 19.43849222 -5.953125 21.73828125 C-7.62297095 22.38120445 -7.62297095 22.38120445 -8.625 23.5 C-8.8187614 25.72143085 -8.94949723 27.94839859 -9.0546875 30.17578125 C-9.12849977 31.57619336 -9.20273327 32.97658332 -9.27734375 34.37695312 C-9.38957099 36.57704427 -9.49838108 38.77713487 -9.59912109 40.9777832 C-10.86268377 68.00877885 -10.86268377 68.00877885 -19.37890625 76.18359375 C-25.47371348 81.15724271 -31.60538822 83.00898706 -39.4921875 82.74609375 C-47.25342174 81.85056672 -54.13292495 79.16964792 -59.625 73.5 C-62.94871455 68.49997724 -64.63806274 63.35814488 -64.92211914 57.37402344 C-64.96208511 56.57349548 -65.00205109 55.77296753 -65.04322815 54.94818115 C-65.08181442 54.09387512 -65.1204007 53.23956909 -65.16015625 52.359375 C-65.20313339 51.47719299 -65.24611053 50.59501099 -65.29039001 49.68609619 C-65.42651285 46.87422956 -65.55707721 44.06213622 -65.6875 41.25 C-65.77893036 39.34112824 -65.87072297 37.4322738 -65.96289062 35.5234375 C-66.18779445 30.84914869 -66.40771422 26.17464888 -66.625 21.5 C-69.265 20.18 -71.905 18.86 -74.625 17.5 C-74.625 16.51 -74.625 15.52 -74.625 14.5 C-71.99332552 13.18416276 -70.01024212 13.37044988 -67.06640625 13.3671875 C-65.95845703 13.36589844 -64.85050781 13.36460937 -63.70898438 13.36328125 C-62.54689453 13.36714844 -61.38480469 13.37101562 -60.1875 13.375 C-59.02927734 13.37113281 -57.87105469 13.36726563 -56.67773438 13.36328125 C-55.01387695 13.36521484 -55.01387695 13.36521484 -53.31640625 13.3671875 C-52.29748291 13.36831543 -51.27855957 13.36944336 -50.22875977 13.37060547 C-47.625 13.5 -47.625 13.5 -44.625 14.5 C-44.625 15.82 -44.625 17.14 -44.625 18.5 C-47.265 19.49 -49.905 20.48 -52.625 21.5 C-54.90673981 35.19043884 -56.08863846 55.03441153 -49.625 67.5 C-45.44331517 71.79470334 -41.08531741 73.27633478 -35.1875 73.8125 C-29.90773451 73.34936268 -26.1377285 71.97184395 -22.3125 68.25 C-16.71955236 59.13556681 -17.42891557 47.04602826 -17.375 36.6875 C-17.354375 35.67751953 -17.33375 34.66753906 -17.3125 33.62695312 C-17.16994882 26.51474616 -17.16994882 26.51474616 -20.625 20.5 C-22.39080116 19.30126145 -22.39080116 19.30126145 -24.3125 18.6875 C-25.405625 18.295625 -26.49875 17.90375 -27.625 17.5 C-27.13 16.015 -27.13 16.015 -26.625 14.5 C-24.17224859 13.2736243 -22.5744219 13.38584686 -19.8359375 13.40234375 C-18.89492188 13.40556641 -17.95390625 13.40878906 -16.984375 13.41210938 C-15.99953125 13.42048828 -15.0146875 13.42886719 -14 13.4375 C-12.51113281 13.44426758 -12.51113281 13.44426758 -10.9921875 13.45117188 C-8.5363984 13.46297855 -6.08072896 13.479446 -3.625 13.5 C-3.295 12.51 -2.965 11.52 -2.625 10.5 C-3.5840625 10.12875 -3.5840625 10.12875 -4.5625 9.75 C-6.625 8.5 -6.625 8.5 -7.375 6.375 C-7.4575 5.75625 -7.54 5.1375 -7.625 4.5 C-5.11016484 2.20072214 -3.3892824 0.6455776 0 0 Z " fill="#000000" transform="translate(355.625,283.5)"/>
<path d="M0 0 C6.50301363 1.48314346 10.91560591 4.19766949 16.125 8.1875 C31.40919749 19.78663534 47.89388095 26.49103923 66.75 29.9609375 C67.65464996 30.13033844 68.55929993 30.29973938 69.49136353 30.47427368 C77.62803124 31.97591836 85.79324007 33.27055986 93.96948242 34.53515625 C158.65990981 44.5424989 158.65990981 44.5424989 173 62 C173 62.66 173 63.32 173 64 C170.5161933 62.78010506 168.07578827 61.50408151 165.63671875 60.1953125 C145.41662393 49.49055642 123.54599757 47.22012504 101.04476929 45.29376221 C24.87568935 38.69580274 24.87568935 38.69580274 3.390625 16.32421875 C-0.14979913 11.9981387 -1.15852389 7.55965922 -1 2 C-0.67 1.34 -0.34 0.68 0 0 Z " fill="#B18445" transform="translate(383,138)"/>
<path d="M0 0 C1.51351872 5.50370443 0.51741046 9.07420078 -2 14 C-12.44696647 29.99691741 -37.30441543 35.81836096 -54.9375 39.5625 C-70.45223191 42.68803181 -86.22704832 43.87552919 -101.96478271 45.33525085 C-127.62792323 47.72560826 -150.31726372 51.0065428 -173 64 C-168.85612712 54.87175172 -158.84258226 50.59970823 -150 47 C-131.81269716 40.20169474 -112.46900841 37.32181975 -93.375 34.30859375 C-92.43705093 34.15959122 -91.49910187 34.01058868 -90.5327301 33.85707092 C-85.84564493 33.11312836 -81.15736835 32.38130313 -76.46459961 31.67407227 C-62.49032977 29.51989863 -48.19575621 26.92583171 -35.625 20.125 C-34.64442627 19.6146521 -34.64442627 19.6146521 -33.64404297 19.09399414 C-25.07147689 14.56133669 -17.11104872 9.1965356 -9.2890625 3.48046875 C-6.36121399 1.58686025 -3.54160496 0 0 0 Z " fill="#B18445" transform="translate(814,138)"/>
<path d="M0 0 C0.99 0.33 1.98 0.66 3 1 C4.25546149 3.81925515 5.31987719 6.56075398 6.328125 9.46875 C6.79626617 10.77120667 6.79626617 10.77120667 7.27386475 12.09997559 C8.27692233 14.89619303 9.264196 17.69765829 10.25 20.5 C15.78678617 36.12582948 15.78678617 36.12582948 21.67578125 51.62109375 C21.93832703 52.31912109 22.2008728 53.01714844 22.47137451 53.73632812 C24.19815309 58.01761501 25.92774059 60.26563173 29.9375 62.5625 C32.15059023 63.49910104 32.15059023 63.49910104 34 64 C34 65.32 34 66.64 34 68 C24.76 68 15.52 68 6 68 C5.67 66.68 5.34 65.36 5 64 C6.98 63.01 8.96 62.02 11 61 C10.46246904 54.81839396 8.45417612 49.673142 6 44 C3.2291017 43.97303991 0.4584655 43.95318048 -2.3125 43.9375 C-3.49102539 43.92493164 -3.49102539 43.92493164 -4.69335938 43.91210938 C-5.8293457 43.90727539 -5.8293457 43.90727539 -6.98828125 43.90234375 C-8.03302612 43.89448853 -8.03302612 43.89448853 -9.09887695 43.88647461 C-11.22497968 43.93104009 -11.22497968 43.93104009 -14 45 C-14.88040196 47.54698226 -15.5759039 49.95191274 -16.1875 52.5625 C-16.36474609 53.27341797 -16.54199219 53.98433594 -16.72460938 54.71679688 C-17.16122323 56.47505269 -17.58210434 58.23720155 -18 60 C-15.69 61.32 -13.38 62.64 -11 64 C-11.33 65.32 -11.66 66.64 -12 68 C-20.25 68 -28.5 68 -37 68 C-37 66.68 -37 65.36 -37 64 C-36.45730469 63.75765625 -35.91460938 63.5153125 -35.35546875 63.265625 C-34.64003906 62.93046875 -33.92460938 62.5953125 -33.1875 62.25 C-32.12595703 61.76273437 -32.12595703 61.76273437 -31.04296875 61.265625 C-26.35449007 58.36109901 -24.78792701 53.45285313 -22.85546875 48.515625 C-22.56319901 47.78237 -22.27092926 47.04911499 -21.96980286 46.29364014 C-21.03669697 43.94796585 -20.11217193 41.59900979 -19.1875 39.25 C-18.57799411 37.71724097 -17.96797252 36.18468691 -17.35742188 34.65234375 C-16.75230824 33.12772159 -16.14748986 31.6029822 -15.54296875 30.078125 C-15.24317108 29.32446655 -14.94337341 28.57080811 -14.63449097 27.79431152 C-13.15339883 24.04196331 -11.73375261 20.2827204 -10.42431641 16.46679688 C-10.17096024 15.7435321 -9.91760406 15.02026733 -9.65657043 14.27508545 C-9.1865081 12.92224659 -8.73134598 11.56408901 -8.29496765 10.20001221 C-6.53875139 5.1864971 -4.32884719 2.86596627 0 0 Z M-4 15 C-5.17171756 18.28989086 -6.33651088 21.58219102 -7.5 24.875 C-7.83386719 25.81214844 -8.16773438 26.74929688 -8.51171875 27.71484375 C-8.98544922 29.05869141 -8.98544922 29.05869141 -9.46875 30.4296875 C-9.76201172 31.25710449 -10.05527344 32.08452148 -10.35742188 32.93701172 C-11.09912901 34.95812785 -11.09912901 34.95812785 -11 37 C-6.05 37 -1.1 37 4 37 C3.26977851 31.21257222 3.26977851 31.21257222 1.58984375 26.03515625 C1.32236328 25.38095703 1.05488281 24.72675781 0.77929688 24.05273438 C0.50150391 23.39595703 0.22371094 22.73917969 -0.0625 22.0625 C-0.34416016 21.37865234 -0.62582031 20.69480469 -0.91601562 19.99023438 C-1.6035405 18.32386054 -2.30076175 16.66149273 -3 15 C-3.33 15 -3.66 15 -4 15 Z " fill="#000000" transform="translate(811,296)"/>
<path d="M0 0 C5.97732771 -0.09931654 11.9541688 -0.17167995 17.93212891 -0.21972656 C19.96313857 -0.23976836 21.99409106 -0.26700947 24.02490234 -0.30175781 C26.95424556 -0.35060414 29.882822 -0.37304343 32.8125 -0.390625 C33.71178223 -0.41127014 34.61106445 -0.43191528 35.53759766 -0.45318604 C41.5235513 -0.45528824 46.00431935 0.60586702 51 4 C54.54711702 7.63579495 55.28578227 10.56629785 55.5 15.5 C55.30691801 20.40028768 54.41113589 23.31228553 51 27 C47.85116877 29.26069934 44.58951535 30.58576691 41 32 C43.09438002 35.29799027 45.20213206 38.58722167 47.3125 41.875 C47.90740234 42.81214844 48.50230469 43.74929688 49.11523438 44.71484375 C49.69208984 45.61074219 50.26894531 46.50664062 50.86328125 47.4296875 C51.39219971 48.25710449 51.92111816 49.08452148 52.46606445 49.93701172 C54.00205928 52.24456082 54.00205928 52.24456082 57 54 C57 54.66 57 55.32 57 56 C52.05 56 47.1 56 42 56 C42 55.34 42 54.68 42 54 C42.66 54 43.32 54 44 54 C42.88894528 51.93279723 41.75364907 49.89047259 40.5703125 47.86328125 C39 45 39 45 37.5546875 41.54296875 C35.69256367 37.61518662 34.20883466 34.95964723 31 32 C24.75505448 30.1045561 18.47464625 30.77518589 12 31 C12.33 38.26 12.66 45.52 13 53 C13.66 53.33 14.32 53.66 15 54 C15 54.66 15 55.32 15 56 C10.05 56 5.1 56 0 56 C0.33 55.01 0.66 54.02 1 53 C1.66 53 2.32 53 3 53 C3 36.5 3 20 3 3 C2.01 2.67 1.02 2.34 0 2 C0 1.34 0 0.68 0 0 Z M12 7 C11.67 12.94 11.34 18.88 11 25 C15.37516578 25.05401439 19.74966253 25.09368368 24.125 25.125 C25.98125 25.15013672 25.98125 25.15013672 27.875 25.17578125 C29.67324219 25.18544922 29.67324219 25.18544922 31.5078125 25.1953125 C32.60754395 25.20578613 33.70727539 25.21625977 34.84033203 25.22705078 C38.89781555 24.93548382 42.3772291 23.97366254 45.875 21.875 C47.74681634 18.7553061 47.65162088 15.47531138 47 12 C45.12984906 9.56880377 43.71861655 8.35930827 41 7 C38.82175039 6.91440882 36.64084745 6.89286588 34.4609375 6.90234375 C32.50800781 6.90717773 32.50800781 6.90717773 30.515625 6.91210938 C29.13541601 6.92046534 27.75520768 6.92893029 26.375 6.9375 C24.98698074 6.94251499 23.59895978 6.9470779 22.2109375 6.95117188 C18.80727327 6.96299015 15.4036313 6.9809261 12 7 Z " fill="#B18445" transform="translate(496,408)"/>
<path d="M0 0 C0.72445312 0.43570312 1.44890625 0.87140625 2.1953125 1.3203125 C8.05979894 5.28046386 11.76456899 10.29370697 14 17 C14.75612052 26.5163168 15.03427244 35.05707691 9 43 C3.54666107 49.25138853 -2.98630115 53.42613064 -11.33837891 54.22314453 C-24.23769859 54.99041714 -34.52208509 54.65142342 -44.875 46.3125 C-51.26354713 40.19484533 -53.60461756 33.5210957 -54.09375 24.765625 C-53.81783478 16.62612605 -50.70870935 9.77062594 -45 4 C-33.16872905 -5.69776307 -13.44532721 -8.16867049 0 0 Z M-39.9375 10.875 C-43.96592426 15.92918044 -45.44151827 20.37656295 -45.25390625 26.91796875 C-44.55146575 32.67798084 -42.21548391 38.00069475 -38 42 C-29.91065093 47.23952334 -22.23161476 48.87384375 -12.75 47.3125 C-5.31002533 45.54550602 -0.25741162 41.22135691 4 35 C6.92481901 28.26019967 6.23447763 21.56626871 3.875 14.75 C0.13323262 9.26207451 -5.35520171 4.38147868 -12 3 C-23.17665864 1.97820615 -32.03425719 2.43840952 -39.9375 10.875 Z " fill="#B18445" transform="translate(618,411)"/>
<path d="M0 0 C1.97718026 0.40907178 3.88905076 0.96782285 5.8274231 1.52998352 C8.25736077 2.05567757 10.46257073 2.13426039 12.94873047 2.14526367 C13.93009979 2.15164352 14.91146912 2.15802338 15.9225769 2.16459656 C17.50390915 2.16626579 17.50390915 2.16626579 19.1171875 2.16796875 C20.20709991 2.17129715 21.29701233 2.17462555 22.41995239 2.17805481 C24.72478819 2.18311565 27.02963131 2.1854634 29.33447266 2.18530273 C32.85461548 2.18748735 36.37444394 2.2056471 39.89453125 2.22460938 C42.1354156 2.22754386 44.37630143 2.22952829 46.6171875 2.23046875 C47.66736053 2.23765427 48.71753357 2.24483978 49.79953003 2.25224304 C54.93111027 2.23625803 59.20135781 2.06657974 64 0 C66.67135401 3.83883465 65.84057805 7.39895643 65.125 11.75 C65.02058594 12.44738281 64.91617188 13.14476562 64.80859375 13.86328125 C64.55032364 15.57725559 64.27667048 17.2888995 64 19 C62.68 19.33 61.36 19.66 60 20 C59.75765625 19.36191406 59.5153125 18.72382813 59.265625 18.06640625 C58.93046875 17.24011719 58.5953125 16.41382813 58.25 15.5625 C57.76273438 14.32693359 57.76273438 14.32693359 57.265625 13.06640625 C56.2096332 10.90818883 56.2096332 10.90818883 54.34375 10.25 C50.98302179 9.89152232 47.62341907 9.6319977 44.25 9.4375 C43.55261719 9.39431641 42.85523438 9.35113281 42.13671875 9.30664062 C40.42468078 9.20110404 38.71236439 9.1001009 37 9 C36.83746757 29.84769455 36.83746757 29.84769455 37.3125 50.6875 C37.33497803 51.49864258 37.35745605 52.30978516 37.38061523 53.14550781 C37.55137936 57.25737329 37.55137936 57.25737329 39.3125 60.8828125 C41.07911375 62.05237623 42.82818014 63.1701363 44.6875 64.1875 C45.780625 64.785625 46.87375 65.38375 48 66 C47.505 67.485 47.505 67.485 47 69 C36.11 69 25.22 69 14 69 C13.67 67.68 13.34 66.36 13 65 C13.71027344 64.72285156 14.42054688 64.44570313 15.15234375 64.16015625 C16.53099609 63.61681641 16.53099609 63.61681641 17.9375 63.0625 C19.31228516 62.52302734 19.31228516 62.52302734 20.71484375 61.97265625 C22.92418533 61.2003782 22.92418533 61.2003782 24 60 C24.15949684 58.10272726 24.25158131 56.19973621 24.31640625 54.296875 C24.35838135 53.09764404 24.40035645 51.89841309 24.44360352 50.6628418 C24.48283936 49.371604 24.5220752 48.08036621 24.5625 46.75 C24.62618774 44.79477417 24.62618774 44.79477417 24.69116211 42.80004883 C25.02427179 31.86372946 25.10760774 20.94012015 25 10 C22.39521117 9.9190687 19.79293347 9.85954566 17.1875 9.8125 C16.44951172 9.78736328 15.71152344 9.76222656 14.95117188 9.73632812 C10.80505186 9.62055158 10.80505186 9.62055158 7.125 11.28125 C5.95982725 13.06137504 4.83411106 14.82041772 3.8125 16.6875 C3.214375 17.780625 2.61625 18.87375 2 20 C0.68 19.67 -0.64 19.34 -2 19 C-1.85982174 16.02046641 -1.71313658 13.04150696 -1.5625 10.0625 C-1.52318359 9.21236328 -1.48386719 8.36222656 -1.44335938 7.48632812 C-1.40146484 6.67744141 -1.35957031 5.86855469 -1.31640625 5.03515625 C-1.27974854 4.2862915 -1.24309082 3.53742676 -1.20532227 2.76586914 C-1 1 -1 1 0 0 Z " fill="#000000" transform="translate(618,295)"/>
<path d="M0 0 C1.39514352 0.58498123 2.79088495 1.16854074 4.1875 1.75 C5.115625 2.1625 6.04375 2.575 7 3 C7 2.34 7 1.68 7 1 C7.99 1.33 8.98 1.66 10 2 C8.62159784 4.83338222 7.13581614 7.55688806 5.5 10.25 C5.0771875 10.95640625 4.654375 11.6628125 4.21875 12.390625 C3.8165625 12.92171875 3.414375 13.4528125 3 14 C2.34 14 1.68 14 1 14 C0.7525 12.88625 0.7525 12.88625 0.5 11.75 C-1.90882979 7.33381205 -6.20024156 5.87492451 -10.875 4.4140625 C-19.13093685 2.80536892 -26.67062859 3.34578182 -33.9765625 7.58984375 C-39.44726936 11.40244062 -41.74916791 16.59329907 -43 23 C-43.32726208 29.04032304 -42.20677286 34.25984642 -38.70703125 39.2421875 C-33.90631825 44.18571347 -27.15716908 46.65236983 -20.359375 47.07421875 C-14.04105369 46.87546361 -5.91938441 46.14263951 -1 42 C-0.18223492 38.57975281 -0.09228775 35.55307833 0 32 C-4.95 32.33 -9.9 32.66 -15 33 C-15.33 33.99 -15.66 34.98 -16 36 C-16.99 35.505 -16.99 35.505 -18 35 C-18 30.71 -18 26.42 -18 22 C-17.01 22.33 -16.02 22.66 -15 23 C-15 23.66 -15 24.32 -15 25 C-2.13 25.495 -2.13 25.495 11 26 C10.505 27.485 10.505 27.485 10 29 C9.34 29 8.68 29 8 29 C8.11351517 30.81325551 8.24112961 32.62563357 8.375 34.4375 C8.47941406 35.95150391 8.47941406 35.95150391 8.5859375 37.49609375 C8.72257812 38.32238281 8.85921875 39.14867187 9 40 C9.99 40.495 9.99 40.495 11 41 C11 41.99 11 42.98 11 44 C8.91015625 45.71875 8.91015625 45.71875 6.0625 47.5 C5.14597656 48.0878125 4.22945313 48.675625 3.28515625 49.28125 C-4.05466257 53.12134546 -10.67888562 54.53745057 -18.9375 54.4375 C-20.25463989 54.42614014 -20.25463989 54.42614014 -21.59838867 54.41455078 C-28.05003262 54.25033801 -33.44899802 53.50938097 -39 50 C-39.63808594 49.61070312 -40.27617187 49.22140625 -40.93359375 48.8203125 C-46.64130975 44.67147807 -49.81811202 38.59176017 -52 32 C-53.20760758 24.18505381 -52.71524723 17.14284403 -48.66796875 10.25 C-36.88073572 -5.65034244 -17.30183742 -8.01862565 0 0 Z " fill="#B18445" transform="translate(471,411)"/>
<path d="M0 0 C5.87155408 -0.07433795 11.74283219 -0.12869117 17.61474609 -0.16479492 C19.61088841 -0.17985098 21.60699781 -0.20030027 23.60302734 -0.22631836 C26.47762185 -0.26284161 29.35177772 -0.27975837 32.2265625 -0.29296875 C33.55815903 -0.31619453 33.55815903 -0.31619453 34.91665649 -0.33988953 C40.75354616 -0.34146326 45.15387568 0.40401012 49.64453125 4.5 C53.49767179 9.44851494 54.51403646 12.72875513 54 19 C52.34821006 24.33349039 49.99175428 27.6533627 45.07421875 30.30859375 C38.14118446 32.61960518 30.77299414 32.11812993 23.5625 32.0625 C22.44939453 32.05798828 21.33628906 32.05347656 20.18945312 32.04882812 C17.45961204 32.03711207 14.72979886 32.01917891 12 32 C12 38.93 12 45.86 12 53 C12.99 53 13.98 53 15 53 C15 53.99 15 54.98 15 56 C10.05 56 5.1 56 0 56 C0.33 55.01 0.66 54.02 1 53 C1.99 52.505 1.99 52.505 3 52 C3.07588365 45.20075608 3.12852926 38.40162078 3.16479492 31.60205078 C3.17990853 29.28755615 3.20039996 26.97309026 3.22631836 24.65869141 C3.26258841 21.33749304 3.27970044 18.01667232 3.29296875 14.6953125 C3.30845261 13.65569366 3.32393646 12.61607483 3.33988953 11.54495239 C3.34011612 10.58410736 3.34034271 9.62326233 3.34057617 8.63330078 C3.34723801 7.78502716 3.35389984 6.93675354 3.36076355 6.06277466 C3.24171158 5.38205902 3.12265961 4.70134338 3 4 C2.01 3.34 1.02 2.68 0 2 C0 1.34 0 0.68 0 0 Z M12 7 C12 12.94 12 18.88 12 25 C16.22933734 25.05395328 20.45798605 25.09365368 24.6875 25.125 C26.48477539 25.15013672 26.48477539 25.15013672 28.31835938 25.17578125 C29.47529297 25.18222656 30.63222656 25.18867188 31.82421875 25.1953125 C32.88729248 25.20578613 33.95036621 25.21625977 35.0456543 25.22705078 C39.27002175 24.90239482 42.04807798 24.07884496 44.875 20.875 C46.50815925 16.70137079 46.05657725 14.36718597 45 10 C42.65420049 7.53075576 41.292511 7.03196904 37.88378906 6.65942383 C36.68979492 6.67513428 35.49580078 6.69084473 34.265625 6.70703125 C32.32236328 6.7215332 32.32236328 6.7215332 30.33984375 6.73632812 C28.97655646 6.76139217 27.61327521 6.78678698 26.25 6.8125 C24.87110816 6.82755482 23.49220065 6.84124183 22.11328125 6.85351562 C18.74201936 6.88887851 15.37096014 6.94268519 12 7 Z " fill="#B18445" transform="translate(718,408)"/>
<path d="M0 0 C4.62 0 9.24 0 14 0 C14 0.99 14 1.98 14 3 C13.01 3.495 13.01 3.495 12 4 C11.95045895 9.17780166 11.91421364 14.35546446 11.89013672 19.53344727 C11.88009649 21.29388839 11.86646156 23.05431291 11.84912109 24.81469727 C11.82478564 27.34916285 11.81349704 29.88340739 11.8046875 32.41796875 C11.79436493 33.20149216 11.78404236 33.98501556 11.77340698 34.7922821 C11.77255726 38.95697872 11.97290948 42.31434141 14 46 C20.58959089 50.73098833 29.21697601 50.46851429 36.9375 49.3125 C41.23839627 48.58407132 43.36706351 47.53067553 46 44 C46.61905198 40.88716379 46.60493507 37.80687548 46.609375 34.640625 C46.62591125 33.73624695 46.64244751 32.8318689 46.65948486 31.90008545 C46.70799979 29.01665479 46.72934344 26.13375166 46.75 23.25 C46.77815678 21.29294216 46.80808379 19.33590893 46.83984375 17.37890625 C46.91375969 12.58598092 46.96331298 7.79334904 47 3 C46.01 2.67 45.02 2.34 44 2 C44 1.34 44 0.68 44 0 C48.62 0 53.24 0 58 0 C57.67 0.99 57.34 1.98 57 3 C56.34 3 55.68 3 55 3 C54.9906543 4.27117676 54.98130859 5.54235352 54.97167969 6.85205078 C54.9317135 11.58238362 54.86593586 16.31207062 54.79248047 21.04199219 C54.76430934 23.08650395 54.74307565 25.13112384 54.72900391 27.17578125 C54.70752113 30.12035322 54.6608431 33.06363041 54.609375 36.0078125 C54.60753204 37.3722197 54.60753204 37.3722197 54.60565186 38.76419067 C54.47830195 44.32121228 53.74003587 47.61510106 50 52 C43.05987645 57.34967857 37.28442223 57.23242512 28.8125 57.3125 C27.30719727 57.35600586 27.30719727 57.35600586 25.77148438 57.40039062 C19.07425256 57.45703605 13.75718192 56.56862397 8 53 C4.31840718 49.22636736 2.90722841 46.12131922 2.79467773 40.89575195 C2.77473251 40.07512772 2.75478729 39.25450348 2.73423767 38.40901184 C2.71752518 37.52767075 2.70081268 36.64632965 2.68359375 35.73828125 C2.66281265 34.83248825 2.64203156 33.92669525 2.62062073 32.99345398 C2.55523442 30.09987984 2.49629096 27.20621493 2.4375 24.3125 C2.3943044 22.35090207 2.35068977 20.38931332 2.30664062 18.42773438 C2.19956418 13.61858261 2.09826586 8.80933954 2 4 C1.34 3.67 0.68 3.34 0 3 C0 2.01 0 1.02 0 0 Z " fill="#B18445" transform="translate(646,408)"/>
<path d="M0 0 C1.68802734 0.02707031 1.68802734 0.02707031 3.41015625 0.0546875 C4.66119141 0.08949219 4.66119141 0.08949219 5.9375 0.125 C5.26305158 4.98596361 3.90002252 6.74927815 0.12109375 9.70703125 C-19.55608664 22.48487827 -49.68569673 16.86023908 -71.5625 15.0625 C-87.03994251 13.79393307 -101.72597546 13.45862454 -117.0625 16.125 C-119.39493513 16.46456134 -121.72806528 16.79946953 -124.0625 17.125 C-115.80594147 7.65819673 -95.56085424 7.72140539 -83.99417114 6.90966797 C-75.60215901 6.46225871 -67.20092662 6.26152184 -58.80053711 6.04101562 C-41.9820047 5.57808485 -25.46848077 4.45829416 -9.06066895 0.52664185 C-6.02758537 -0.08302296 -3.08380353 -0.06492218 0 0 Z " fill="#B18445" transform="translate(781.0625,180.875)"/>
<path d="M0 0 C8.96039962 -0.58863939 16.94832033 0.54910437 25.66699219 2.48925781 C35.11151093 4.57333063 44.49108105 5.14036696 54.140625 5.4296875 C56.28647455 5.50343593 58.43230742 5.57767098 60.578125 5.65234375 C63.89440943 5.76466951 67.21067298 5.87381058 70.52734375 5.97412109 C82.11079679 6.33045481 93.59113067 6.86623846 105.0859375 8.40234375 C105.96566223 8.51838959 106.84538696 8.63443542 107.75177002 8.7539978 C115.24130898 9.84294224 122.05623958 12.00209661 129 15 C129 15.66 129 16.32 129 17 C128.31035156 16.86722656 127.62070312 16.73445313 126.91015625 16.59765625 C125.50056641 16.33275391 125.50056641 16.33275391 124.0625 16.0625 C123.14597656 15.88847656 122.22945312 15.71445313 121.28515625 15.53515625 C114.29416259 14.39631424 107.39827682 13.81811583 100.31640625 13.84375 C99.10121056 13.84634827 99.10121056 13.84634827 97.86146545 13.84899902 C87.85865611 13.93519268 77.90595478 14.72485878 67.9375 15.5 C65.10107605 15.71682454 62.26453064 15.93150144 59.42762756 16.14196777 C57.68533505 16.27156294 55.94330721 16.4047965 54.2016449 16.54260254 C38.78417064 17.70183597 17.07281419 18.86204717 4.4375 8.625 C1.38642585 5.9361258 0.50624732 4.0361088 0 0 Z " fill="#B18445" transform="translate(410,181)"/>
<path d="M0 0 C18.35309085 2.80390753 18.35309085 2.80390753 36.875 3.6875 C37.69395752 3.68556641 38.51291504 3.68363281 39.35668945 3.68164062 C45.4211866 3.63850679 51.41620269 3.32023629 57.4375 2.5625 C56.17549322 6.43959299 55.09702425 8.25847458 51.5625 10.3125 C50.88445312 10.71984375 50.20640625 11.1271875 49.5078125 11.546875 C34.75728966 18.78298055 14.99684022 11.62400523 0.46972656 7.43457031 C-3.48529369 6.29710394 -7.45872628 5.23799455 -11.4375 4.1875 C-12.52804687 3.89101562 -13.61859375 3.59453125 -14.7421875 3.2890625 C-20.21922404 1.87808079 -25.21622084 1.43425904 -30.875 1.5 C-31.98584961 1.50676758 -31.98584961 1.50676758 -33.11914062 1.51367188 C-34.93362899 1.52537825 -36.74807534 1.54331102 -38.5625 1.5625 C-38.5625 0.9025 -38.5625 0.2425 -38.5625 -0.4375 C-37.12857064 -0.78587329 -35.6899731 -1.11501769 -34.25 -1.4375 C-33.44949219 -1.623125 -32.64898438 -1.80875 -31.82421875 -2 C-21.06207447 -3.4435451 -10.62830947 -1.62595193 0 0 Z " fill="#B18445" transform="translate(702.5625,199.4375)"/>
<path d="M0 0 C0.82886719 0.185625 1.65773438 0.37125 2.51171875 0.5625 C3.10597656 0.706875 3.70023438 0.85125 4.3125 1 C4.3125 1.66 4.3125 2.32 4.3125 3 C3.40113281 2.94199219 2.48976563 2.88398438 1.55078125 2.82421875 C-16.09911033 2.20954591 -32.56703519 7.83158677 -49.34375 12.765625 C-60.6138058 16.00263089 -75.02953605 17.52772752 -85.86328125 12.21484375 C-88.4456201 10.49512773 -90.13652318 8.67895996 -91.6875 6 C-91.6875 5.34 -91.6875 4.68 -91.6875 4 C-91.11386719 4.0721875 -90.54023438 4.144375 -89.94921875 4.21875 C-72.55130579 6.11958419 -55.92564956 4.55528199 -38.6875 2 C-35.71926998 1.56633475 -32.75061296 1.13677251 -29.78051758 0.71606445 C-27.95498884 0.45693186 -26.13047718 0.19046898 -24.30737305 -0.08520508 C-16.25022734 -1.2391004 -7.9959044 -1.85412276 0 0 Z " fill="#B18445" transform="translate(528.6875,198)"/>
<path d="M0 0 C4.36564592 1.23693301 6.51384249 3.45786644 9.59375 6.6796875 C10.13064453 7.205625 10.66753906 7.7315625 11.22070312 8.2734375 C14.2012687 11.31038199 16.11719069 13.58602184 16.28125 17.9296875 C15.95125 18.2596875 15.62125 18.5896875 15.28125 18.9296875 C9.6966773 18.58891034 6.13927439 16.99893952 1.46875 13.9921875 C0.61120117 13.45174805 0.61120117 13.45174805 -0.26367188 12.90039062 C-2.63593732 11.38671244 -4.72367085 9.92476665 -6.71875 7.9296875 C-6.50773817 5.18653373 -6.0050579 3.38175261 -4.53125 1.0546875 C-2.71875 -0.0703125 -2.71875 -0.0703125 0 0 Z " fill="#000000" transform="translate(384.71875,274.0703125)"/>
</svg>
