<svg xmlns="http://www.w3.org/2000/svg" width="48" height="48" fill="none" viewBox="0 0 48 48"><path fill="#D6F1FF" d="M16.554 21.023c-1.06-5.282 2.362-10.424 7.645-11.484 5.282-1.06 10.424 2.362 11.485 7.645 1.06 5.282-2.363 10.424-7.645 11.485-5.283 1.06-10.425-2.363-11.485-7.646Z"/><path fill="#fff" d="M22.64 14.662a2.262 2.262 0 1 1 4.434-.89 2.262 2.262 0 0 1-4.434.89Z" opacity=".8"/><path fill="#85D6FF" d="m17.017 35.546-2.124-1.56 4.21-6.108a.983.983 0 0 1 .635-.403.953.953 0 0 1 .728.175l.54.396a.99.99 0 0 1 .393.649 1.02 1.02 0 0 1-.17.744l-4.212 6.107Z"/><path fill="#85D6FF" d="M16.276 31.305a1.017 1.017 0 0 0-1.423.235l-4.463 6.127a1.026 1.026 0 0 0 .234 1.43l.49.36 5.864-7.646-.702-.506Z"/><path fill="#1BA0E2" d="m19.154 33.387-2.15-1.492-6.022 7.553 2.368 1.645a1.065 1.065 0 0 0 .78.177 1.069 1.069 0 0 0 .68-.41l4.58-6.06a.987.987 0 0 0 .184-.754 1.009 1.009 0 0 0-.42-.659Z"/><path stroke="#1870C9" stroke-linecap="round" stroke-linejoin="round" stroke-width="2.5" d="M19.154 33.46c.225.156.376.39.42.653a.97.97 0 0 1-.184.747l-4.58 6.005c-.08.107-.18.198-.298.267a1.076 1.076 0 0 1-.79.125 1.068 1.068 0 0 1-.372-.162l-2.368-1.63"/><path fill="#1BA0E2" d="M37.029 13.38c.024.33.042.664.039 1a11.626 11.626 0 0 1-2.933 7.64 8.506 8.506 0 0 1-2.313 3.192 8.725 8.725 0 0 1-3.527 1.835 8.836 8.836 0 0 1-3.992.091 8.745 8.745 0 0 1-3.95-1.954 12.092 12.092 0 0 1-3.91-2.606A11.825 11.825 0 0 1 13.85 18.7a11.822 11.822 0 0 0 1.176 5.273 12.058 12.058 0 0 0 3.41 4.237 12.36 12.36 0 0 0 4.958 2.346c1.813.403 3.695.396 5.505-.019 1.81-.415 3.5-1.229 4.941-2.379a12.054 12.054 0 0 0 3.381-4.26 11.819 11.819 0 0 0-.194-10.517Z"/><path fill="#85D6FF" d="M20.35 25.376a8.704 8.704 0 0 1-.323-12.696 8.66 8.66 0 0 1 8.772-2.056 8.664 8.664 0 0 1 3.887 2.61 8.694 8.694 0 0 1 1.441 8.913 12.03 12.03 0 0 0 2.932-7.806c0-.359 0-.685-.04-1.023a12.262 12.262 0 0 0-5.752-5.571 12.224 12.224 0 0 0-7.957-.825 12.245 12.245 0 0 0-6.768 4.274 12.293 12.293 0 0 0-2.693 7.55 12.103 12.103 0 0 0 6.5 6.63Z"/><path stroke="#1870C9" stroke-linecap="round" stroke-linejoin="round" stroke-width="2.5" d="M34.135 22.005a8.52 8.52 0 0 1-2.313 3.197 8.72 8.72 0 0 1-3.527 1.838 8.822 8.822 0 0 1-3.992.091 8.738 8.738 0 0 1-3.61-1.675m-2.255 2.748a12.35 12.35 0 0 0 4.957 2.35c1.813.404 3.695.398 5.505-.018 1.81-.417 3.5-1.231 4.941-2.384a12.071 12.071 0 0 0 3.381-4.266 11.856 11.856 0 0 0 1.14-5.29"/></svg>