<?xml version="1.0" encoding="UTF-8"?>
<svg version="1.1" xmlns="http://www.w3.org/2000/svg" width="590" height="172">
<path d="M0 0 C2.64 0 5.28 0 8 0 C8 23.43 8 46.86 8 71 C19.22 71 30.44 71 42 71 C43.57910156 67.2875 45.15820312 63.575 46.78515625 59.75 C48.06528727 56.74166801 49.34558164 53.73340564 50.62598419 50.72518921 C51.96616305 47.57641096 53.30607125 44.42751824 54.64526367 41.27832031 C64.8862969 17.1987012 64.8862969 17.1987012 69.18359375 7.3125 C69.46324478 6.66522949 69.74289581 6.01795898 70.03102112 5.35107422 C71.88144951 1.11855049 71.88144951 1.11855049 73 0 C76.00003445 -0.14177857 78.99757235 -0.04228771 82 0 C87.17893961 10.03747127 91.79349223 20.22434217 96.1875 30.625 C97.16324869 32.9240476 98.14008359 35.22263174 99.11697388 37.52119446 C99.77498715 39.06985473 100.43243928 40.61875356 101.08932495 42.16789246 C103.25498413 47.26973702 105.45458797 52.35571063 107.67578125 57.43359375 C108.5168223 59.3640575 109.35731629 61.29475853 110.19766235 63.2255249 C110.9876541 65.0342337 111.78515172 66.83965817 112.58276367 68.64501953 C113.05045166 69.72251465 113.51813965 70.80000977 114 71.91015625 C114.4125 72.84996338 114.825 73.78977051 115.25 74.75805664 C115.4975 75.49789795 115.745 76.23773926 116 77 C115.67 77.66 115.34 78.32 115 79 C112.36 79 109.72 79 107 79 C106.11921165 77.29464383 105.24585561 75.58544973 104.375 73.875 C103.88773437 72.92367187 103.40046875 71.97234375 102.8984375 70.9921875 C100.08558524 65.07709489 97.58011001 59.0202567 95 53 C83.45 53 71.9 53 60 53 C56.42236186 61.18137522 56.42236186 61.18137522 52.84985352 69.36499023 C52.18360962 70.88394897 52.18360962 70.88394897 51.50390625 72.43359375 C51.04830322 73.47572021 50.5927002 74.51784668 50.12329102 75.59155273 C49 78 49 78 48 79 C46.49581261 79.09311889 44.98728644 79.11746028 43.48022461 79.11352539 C42.50581421 79.11340454 41.53140381 79.11328369 40.52746582 79.11315918 C39.49617554 79.10804321 38.46488525 79.10292725 37.40234375 79.09765625 C35.98846375 79.09614563 35.98846375 79.09614563 34.54602051 79.09460449 C31.00983471 79.08935477 27.47366619 79.07539364 23.9375 79.0625 C16.038125 79.041875 8.13875 79.02125 0 79 C0 52.93 0 26.86 0 0 Z M77 11 C75.00385779 15.53796236 73.0100906 20.07695758 71.01855469 24.61694336 C70.34017707 26.1624801 69.66114176 27.70772834 68.98144531 29.25268555 C68.00674737 31.46848939 67.0343897 33.685307 66.0625 35.90234375 C65.75626709 36.5971434 65.45003418 37.29194305 65.13452148 38.00779724 C63.64527796 40.90046772 63.64527796 40.90046772 63 44 C72.57 44 82.14 44 92 44 C89.64875 38.3384375 89.64875 38.3384375 87.25 32.5625 C86.7643457 31.39146729 86.27869141 30.22043457 85.77832031 29.01391602 C83.26491789 22.97224059 80.6958217 16.96264665 78 11 C77.67 11 77.34 11 77 11 Z " fill="#6F6F6F" transform="translate(321,1)"/>
<path d="M0 0 C1.45539185 0.36931641 1.45539185 0.36931641 2.94018555 0.74609375 C4.24983276 1.09607422 4.24983276 1.09607422 5.5859375 1.453125 C6.34696777 1.65583008 7.10799805 1.85853516 7.89208984 2.06738281 C9.625 2.75 9.625 2.75 10.625 4.75 C10.295 5.41 9.965 6.07 9.625 6.75 C4.12930952 6.13054356 -1.10531674 4.86754638 -6.46728516 3.52880859 C-59.84746968 -9.66124902 -115.40721034 -14.33495577 -170.1875 -17.375 C-170.87423798 -17.41370209 -171.56097595 -17.45240417 -172.26852417 -17.49227905 C-201.24816266 -19.09684094 -230.23321033 -19.45530074 -259.25 -19.4375 C-260.11923977 -19.43738041 -260.98847954 -19.43726082 -261.88405991 -19.4371376 C-291.42404941 -19.43201678 -320.87771226 -18.96558968 -350.375 -17.25 C-352.20149714 -17.14713085 -354.02799453 -17.04426626 -355.85449219 -16.94140625 C-410.92739184 -13.78195512 -469.07670615 -9.71147563 -522.21313477 6.22998047 C-524.375 6.75 -524.375 6.75 -528.375 6.75 C-528.375 5.43 -528.375 4.11 -528.375 2.75 C-469.87145874 -12.77615288 -409.68095838 -18.90949194 -349.375 -22.25 C-348.41839478 -22.30327454 -347.46178955 -22.35654907 -346.47619629 -22.41143799 C-257.45385216 -27.28863259 -166.86307936 -25.75874643 0 0 Z " fill="#7E7E7E" transform="translate(555.375,126.25)"/>
<path d="M0 0 C11.017332 -0.68417113 11.017332 -0.68417113 14.58959961 1.80297852 C15.10530518 2.65303467 15.62101074 3.50309082 16.15234375 4.37890625 C16.77343018 5.34852295 17.3945166 6.31813965 18.03442383 7.31713867 C18.66243896 8.38810791 19.2904541 9.45907715 19.9375 10.5625 C21.00201159 12.24990492 22.06665554 13.93723255 23.13597107 15.62159729 C24.28530237 17.44197761 25.41655084 19.27286315 26.54785156 21.10449219 C30.47549051 27.40657286 34.71383131 33.50393816 38.90701294 39.63082886 C41.15295044 42.91734423 43.38307714 46.21451587 45.61328125 49.51171875 C46.19038345 50.3634819 46.19038345 50.3634819 46.77914429 51.23245239 C49.20247836 54.81112714 51.60247792 58.40371689 54 62 C54.33 41.54 54.66 21.08 55 0 C57.64 0 60.28 0 63 0 C63 26.07 63 52.14 63 79 C55 79 55 79 53.14892578 77.67749023 C52.7517334 77.06075439 52.35454102 76.44401855 51.9453125 75.80859375 C51.48181396 75.11983154 51.01831543 74.43106934 50.54077148 73.72143555 C49.8399646 72.59088745 49.8399646 72.59088745 49.125 71.4375 C48.60945557 70.65737549 48.09391113 69.87725098 47.56274414 69.07348633 C46.01865302 66.7298319 44.50931009 64.36613934 43 62 C41.86210443 60.28051337 40.71217773 58.56967792 39.56054688 56.859375 C38.38184956 55.10465343 37.21614786 53.34172534 36.05078125 51.578125 C30.96576599 43.91552683 25.76875338 36.32724614 20.59936523 28.72143555 C20.1950679 28.1264325 19.79077057 27.53142944 19.3742218 26.918396 C18.26299102 25.28318483 17.15128625 23.64829581 16.03955078 22.01342773 C14.01222351 19.01806019 12.00266888 16.01188119 10 13 C9.98969254 13.81210434 9.97938507 14.62420868 9.96876526 15.46092224 C9.87096021 23.09836488 9.76847052 30.73572322 9.66066074 38.37303066 C9.60539585 42.29984614 9.5519703 46.22666901 9.50268555 50.15356445 C9.45509439 53.94020842 9.40275376 57.72675916 9.34705925 61.51329231 C9.32661182 62.96101638 9.30790276 64.40876603 9.29092598 65.85653496 C9.26693492 67.87764159 9.23629925 69.8986661 9.20532227 71.91967773 C9.18977798 73.07217514 9.1742337 74.22467255 9.15821838 75.41209412 C9 78 9 78 8 79 C4.5 79.125 4.5 79.125 1 79 C-0.69668207 77.30331793 -0.11968993 75.18867982 -0.12442017 72.92559814 C-0.12082489 72.19983582 -0.11722961 71.47407349 -0.11352539 70.72631836 C-0.11367142 69.96539383 -0.11381744 69.2044693 -0.1139679 68.42048645 C-0.11326862 65.89357702 -0.10547555 63.36674038 -0.09765625 60.83984375 C-0.09579212 59.0924941 -0.0943682 57.34514393 -0.09336853 55.59779358 C-0.08954293 50.98968066 -0.07971229 46.38159905 -0.06866455 41.77349854 C-0.05845134 37.07491479 -0.0538711 32.37632601 -0.04882812 27.67773438 C-0.03809005 18.45180913 -0.02101313 9.22590716 0 0 Z " fill="#6B6B6B" transform="translate(445,1)"/>
<path d="M0 0 C4.3375321 -0.07517053 8.67470103 -0.12907363 13.01269531 -0.16479492 C14.48281473 -0.17971429 15.952891 -0.20005727 17.42285156 -0.22631836 C32.86099407 -0.49485358 46.02013208 1.47421552 57.8125 12.25 C66.32293678 21.28353691 67.47413712 31.59859749 67.2734375 43.4375 C66.87164625 53.12822753 62.9047241 61.22314116 56 68 C42.8630872 78.35640058 29.11460094 79.18101831 13 79.125 C11.28490234 79.13080078 11.28490234 79.13080078 9.53515625 79.13671875 C8.45105469 79.13542969 7.36695313 79.13414063 6.25 79.1328125 C5.26515625 79.13168457 4.2803125 79.13055664 3.265625 79.12939453 C1 79 1 79 0 78 C-0.09498646 75.56603981 -0.12558417 73.16057048 -0.11352539 70.72631836 C-0.11367142 69.96539383 -0.11381744 69.2044693 -0.1139679 68.42048645 C-0.11326862 65.89357702 -0.10547555 63.36674038 -0.09765625 60.83984375 C-0.09579212 59.0924941 -0.0943682 57.34514393 -0.09336853 55.59779358 C-0.08954293 50.98968066 -0.07971229 46.38159905 -0.06866455 41.77349854 C-0.05845134 37.07491479 -0.0538711 32.37632601 -0.04882812 27.67773438 C-0.03809005 18.45180913 -0.02101313 9.22590716 0 0 Z M9 8 C9 28.79 9 49.58 9 71 C31.71361279 71.76552139 31.71361279 71.76552139 50.58984375 61.58984375 C56.6226032 55.00698465 59.35139253 46.01708133 59.21875 37.24609375 C58.36440481 28.47379944 54.77026006 21.54363553 48.5625 15.375 C36.98763149 5.86631931 23.6858699 8 9 8 Z " fill="#6E6E6E" transform="translate(523,1)"/>
<path d="M0 0 C4.23173639 -0.07497625 8.46310588 -0.12898541 12.6953125 -0.16479492 C14.1306025 -0.17974586 15.56584791 -0.20011424 17.00097656 -0.22631836 C28.22479799 -0.42590514 38.22242503 -0.0443082 47.30859375 7.31640625 C52.21413093 12.19928506 54.1461292 17.92915098 54.25 24.75 C54.15718178 32.46319433 51.87482267 37.74413287 46.7421875 43.42578125 C42.45528681 47.29937088 37.61224515 49.00788734 32 50 C32.67804688 50.85980469 33.35609375 51.71960937 34.0546875 52.60546875 C40.42605921 60.69438073 46.73965553 68.8248864 53 77 C52.67 77.66 52.34 78.32 52 79 C48.86213201 79.51230498 46.1327574 79.59182694 43 79 C41.23486328 77.53515625 41.23486328 77.53515625 39.6328125 75.5625 C39.03686279 74.83482422 38.44091309 74.10714844 37.8269043 73.35742188 C34.79879911 69.44998051 31.83841149 65.5028081 28.9375 61.5 C27.75943511 59.88518278 26.58105267 58.27059718 25.40234375 56.65625 C24.8388623 55.88023438 24.27538086 55.10421875 23.69482422 54.3046875 C21.53558821 51.36847489 19.31038628 48.48490264 17.06860352 45.61132812 C16 44 16 44 16 42 C17.0621875 41.97421875 18.124375 41.9484375 19.21875 41.921875 C31.31958604 41.56037 31.31958604 41.56037 41.63671875 35.5546875 C44.95307901 31.77270646 44.33423532 26.68904862 44.265625 21.94921875 C43.8941373 17.82461271 42.97037187 15.89792378 40 13 C33.36807792 9.00155129 27.04681122 8.36079077 19.4375 8.25 C18.42880859 8.22035156 17.42011719 8.19070313 16.38085938 8.16015625 C13.9204963 8.09019332 11.46103989 8.03713811 9 8 C9.00222061 8.87474472 9.00444122 9.74948944 9.00672913 10.65074158 C9.02672978 18.87675346 9.04197298 27.10275723 9.05181217 35.3287878 C9.05704056 39.55831371 9.0641374 43.7878196 9.07543945 48.01733398 C9.08626991 52.09568543 9.09227717 56.17401757 9.09487724 60.25238228 C9.09673121 61.81177639 9.10035127 63.3711694 9.10573006 64.93055534 C9.11294262 67.10729162 9.11399085 69.28394714 9.11352539 71.46069336 C9.115746 72.70201523 9.11796661 73.9433371 9.12025452 75.22227478 C9 78 9 78 8 79 C4.5 79.125 4.5 79.125 1 79 C-0.69668207 77.30331793 -0.11968993 75.18867982 -0.12442017 72.92559814 C-0.12082489 72.19983582 -0.11722961 71.47407349 -0.11352539 70.72631836 C-0.11367142 69.96539383 -0.11381744 69.2044693 -0.1139679 68.42048645 C-0.11326862 65.89357702 -0.10547555 63.36674038 -0.09765625 60.83984375 C-0.09579212 59.0924941 -0.0943682 57.34514393 -0.09336853 55.59779358 C-0.08954293 50.98968066 -0.07971229 46.38159905 -0.06866455 41.77349854 C-0.05845134 37.07491479 -0.0538711 32.37632601 -0.04882812 27.67773438 C-0.03809005 18.45180913 -0.02101313 9.22590716 0 0 Z " fill="#6F6F6F" transform="translate(255,1)"/>
<path d="M0 0 C1.20269531 -0.02578125 2.40539062 -0.0515625 3.64453125 -0.078125 C9.4665947 0.46107382 14.03652098 3.20825727 18.1875 7.25 C21.53466089 12.24348432 22.68463094 16.28442876 22.1875 22.25 C19.5475 22.25 16.9075 22.25 14.1875 22.25 C13.51630451 20.7937455 12.85068193 19.33492133 12.1875 17.875 C11.81625 17.06289063 11.445 16.25078125 11.0625 15.4140625 C10.1875 13.25 10.1875 13.25 10.1875 11.25 C4.86317749 8.95758336 0.63173952 7.53333429 -5.01953125 9.39453125 C-8.09084376 10.85992872 -9.80878115 12.51765611 -11.8125 15.25 C-12.93953171 19.12417152 -13.01345025 21.47711442 -12 25.375 C-7.55184778 31.22114292 -0.58312002 33.06149682 6.25 35.0625 C13.86863047 37.49732005 19.03507581 41.7930763 23.25 48.5625 C25.19705889 56.22093162 25.16468828 63.2556344 21.1875 70.25 C17.07363644 76.07797338 12.29351735 79.85012791 5.1875 81.25 C-3.68144236 82.03432824 -10.1718115 80.63600889 -17.125 75 C-21.85070049 70.58068088 -23.68597173 66.90709374 -24 60.3125 C-23.938125 59.301875 -23.87625 58.29125 -23.8125 57.25 C-21.1725 57.25 -18.5325 57.25 -15.8125 57.25 C-15.57015625 58.00925781 -15.3278125 58.76851562 -15.078125 59.55078125 C-14.74296875 60.54464844 -14.4078125 61.53851563 -14.0625 62.5625 C-13.73765625 63.54863281 -13.4128125 64.53476563 -13.078125 65.55078125 C-11.68790784 68.5157197 -10.60247869 69.60476447 -7.8125 71.25 C-2.61638584 72.98203805 2.32110485 72.88387005 7.5 71.125 C10.89518445 68.75626666 12.40830689 67.01367773 14.1875 63.25 C14.83495016 58.71057413 14.69688338 54.7144772 13.1875 50.375 C9.37983637 46.32935739 4.47470556 44.68977947 -0.6484375 42.87890625 C-17.52741279 36.89843083 -17.52741279 36.89843083 -20.953125 29.9296875 C-22.89513379 23.87415101 -22.86996932 16.74812644 -20.3125 10.875 C-15.7663419 3.0699472 -8.6733819 0.11084194 0 0 Z " fill="#6D6D6D" transform="translate(23.8125,-0.25)"/>
<path d="M0 0 C14.19 0 28.38 0 43 0 C43 2.64 43 5.28 43 8 C31.45 8 19.9 8 8 8 C8 16.91 8 25.82 8 35 C19.22 35 30.44 35 42 35 C42 37.64 42 40.28 42 43 C30.78 43 19.56 43 8 43 C8 52.24 8 61.48 8 71 C19.55 71 31.1 71 43 71 C43 73.64 43 76.28 43 79 C28.81 79 14.62 79 0 79 C0 52.93 0 26.86 0 0 Z " fill="#6A6A6A" transform="translate(199,1)"/>
<path d="M0 0 C2.97 0 5.94 0 9 0 C12.61533834 6.90336209 15.5279342 14.01883292 18.421875 21.25 C18.93153172 22.51663772 19.44148552 23.78315593 19.95172119 25.04956055 C21.28296487 28.35597537 22.61021092 31.66398015 23.93658447 34.97235107 C25.29512026 38.35885346 26.65749476 41.74381069 28.01953125 45.12890625 C30.68341176 51.75111075 33.34306518 58.37500537 36 65 C37.72889667 62.406655 38.82297426 60.21263481 39.98364258 57.35180664 C40.3677681 56.40974869 40.75189362 55.46769073 41.1476593 54.49708557 C41.55912704 53.4783989 41.97059479 52.45971222 42.39453125 51.41015625 C43.0383802 49.82780434 43.0383802 49.82780434 43.69523621 48.21348572 C45.07078886 44.83108631 46.44177581 41.44685866 47.8125 38.0625 C49.1734768 34.71067484 50.53538997 31.35923175 51.89762878 28.00791931 C52.74453429 25.92347556 53.59055205 23.83867081 54.4355011 21.75343323 C55.61957976 18.83393392 56.80818601 15.91634986 58 13 C58.45386078 11.88873749 58.90772156 10.77747498 59.37533569 9.63253784 C59.8247049 8.54135651 60.2740741 7.45017517 60.73706055 6.32592773 C61.14627243 5.33012192 61.55548431 4.3343161 61.97709656 3.30833435 C63 1 63 1 64 0 C67.00003445 -0.14177857 69.99757235 -0.04228771 73 0 C71.00976697 6.26073744 68.71502777 12.32234017 66.15625 18.37109375 C65.79027206 19.24360275 65.42429413 20.11611176 65.04722595 21.01506042 C63.86806707 23.82391917 62.6841997 26.63076318 61.5 29.4375 C60.6873493 31.36953131 59.87493179 33.30166071 59.06274414 35.23388672 C57.45543117 39.05601337 55.84606297 42.87726412 54.23486328 46.69775391 C52.56163185 50.66570781 50.89270658 54.63543468 49.22750854 58.60676575 C47.96635196 61.61376062 46.70184715 64.61934555 45.4375 67.625 C44.76847656 69.22106079 44.76847656 69.22106079 44.0859375 70.84936523 C43.68503906 71.79884033 43.28414062 72.74831543 42.87109375 73.7265625 C42.53005615 74.53689941 42.18901855 75.34723633 41.83764648 76.18212891 C41 78 41 78 40 79 C36.625 79.3125 36.625 79.3125 33 79 C30.70975524 76.5005134 29.36657689 73.86905853 28.08984375 70.75170898 C27.74483322 69.9173381 27.39982269 69.08296722 27.0443573 68.22331238 C26.67909439 67.32333023 26.31383148 66.42334808 25.9375 65.49609375 C25.35510307 64.08080132 25.35510307 64.08080132 24.76094055 62.63691711 C23.50164953 59.57272546 22.25063414 56.5052339 21 53.4375 C20.14130987 51.34194174 19.28217812 49.2465644 18.42260742 47.15136719 C16.72428058 43.00897403 15.02936434 38.86521164 13.33740234 34.72021484 C11.33499135 29.81591793 9.32054456 24.91670084 7.30078125 20.01953125 C6.30396883 17.59664896 5.30825714 15.17331637 4.3125 12.75 C3.86197266 11.65872803 3.41144531 10.56745605 2.94726562 9.44311523 C2.54830078 8.46673096 2.14933594 7.49034668 1.73828125 6.484375 C1.39837158 5.65647461 1.05846191 4.82857422 0.70825195 3.97558594 C0 2 0 2 0 0 Z " fill="#6D6D6D" transform="translate(118,1)"/>
<path d="M0 0 C2.97 0 5.94 0 9 0 C9 23.43 9 46.86 9 71 C19.56 71 30.12 71 41 71 C41 73.64 41 76.28 41 79 C35.32169922 79.02464705 29.64342931 79.04283462 23.96508789 79.05493164 C22.03181415 79.05997256 20.09854424 79.06680519 18.1652832 79.07543945 C15.39273128 79.08751565 12.62022959 79.09323057 9.84765625 79.09765625 C8.54297142 79.10539818 8.54297142 79.10539818 7.21192932 79.11329651 C5.14094186 79.11349185 3.07005676 79.06208168 1 79 C-0.69668207 77.30331793 -0.11968993 75.18867982 -0.12442017 72.92559814 C-0.12082489 72.19983582 -0.11722961 71.47407349 -0.11352539 70.72631836 C-0.11367142 69.96539383 -0.11381744 69.2044693 -0.1139679 68.42048645 C-0.11326862 65.89357702 -0.10547555 63.36674038 -0.09765625 60.83984375 C-0.09579212 59.0924941 -0.0943682 57.34514393 -0.09336853 55.59779358 C-0.08954293 50.98968066 -0.07971229 46.38159905 -0.06866455 41.77349854 C-0.05845134 37.07491479 -0.0538711 32.37632601 -0.04882812 27.67773438 C-0.03809005 18.45180913 -0.02101313 9.22590716 0 0 Z " fill="#707070" transform="translate(82,1)"/>
<path d="M0 0 C0 0.33 0 0.66 0 1 C-0.7616597 1.01030746 -1.5233194 1.02061493 -2.30805969 1.03123474 C-11.97626355 1.16269585 -21.64440419 1.29832543 -31.3125 1.4375 C-32.46122274 1.45403185 -32.46122274 1.45403185 -33.63315201 1.47089767 C-56.42829387 1.80036183 -79.21534599 2.21084839 -102 3 C-94.08 3.33 -86.16 3.66 -78 4 C-78 4.33 -78 4.66 -78 5 C-79.28946533 5.04487549 -80.57893066 5.08975098 -81.9074707 5.13598633 C-192.08594435 8.65129495 -192.08594435 8.65129495 -299.83813477 30.47998047 C-302 31 -302 31 -306 31 C-306 29.68 -306 28.36 -306 27 C-247.49645874 11.47384712 -187.30595838 5.34050806 -127 2 C-126.04339478 1.94672546 -125.08678955 1.89345093 -124.10119629 1.83856201 C-82.75006057 -0.42690896 -41.39644451 -0.22308371 0 0 Z " fill="#858585" transform="translate(333,102)"/>
<path d="M0 0 C2.31 0 4.62 0 7 0 C7 23.1 7 46.2 7 70 C17.56 70 28.12 70 39 70 C39 71.98 39 73.96 39 76 C39.99 76.495 39.99 76.495 41 77 C27.47 77 13.94 77 0 77 C0 51.59 0 26.18 0 0 Z " fill="#5D5D5D" transform="translate(322,2)"/>
<path d="M0 0 C2.97 0 5.94 0 9 0 C9.02312392 10.15266151 9.04091534 20.3053168 9.05181217 30.45799923 C9.05704089 35.17179733 9.06413834 39.88557747 9.07543945 44.59936523 C9.08626873 49.14455404 9.09227692 53.68972552 9.09487724 58.23492622 C9.09673142 59.97294958 9.10035189 61.71097194 9.10573006 63.44898796 C9.11294103 65.87478595 9.11399092 68.30051146 9.11352539 70.72631836 C9.11712067 71.45208069 9.12071594 72.17784302 9.12442017 72.92559814 C9.11405216 77.88594784 9.11405216 77.88594784 8 79 C4.5 79.125 4.5 79.125 1 79 C-0.69668207 77.30331793 -0.11968993 75.18867982 -0.12442017 72.92559814 C-0.12082489 72.19983582 -0.11722961 71.47407349 -0.11352539 70.72631836 C-0.11367142 69.96539383 -0.11381744 69.2044693 -0.1139679 68.42048645 C-0.11326862 65.89357702 -0.10547555 63.36674038 -0.09765625 60.83984375 C-0.09579212 59.0924941 -0.0943682 57.34514393 -0.09336853 55.59779358 C-0.08954293 50.98968066 -0.07971229 46.38159905 -0.06866455 41.77349854 C-0.05845134 37.07491479 -0.0538711 32.37632601 -0.04882812 27.67773438 C-0.03809005 18.45180913 -0.02101313 9.22590716 0 0 Z " fill="#727272" transform="translate(58,1)"/>
<path d="M0 0 C1.98 0 3.96 0 6 0 C7.93561891 2.05135856 9.26656856 3.77532227 10.7421875 6.125 C11.15542267 6.74648926 11.56865784 7.36797852 11.99441528 8.00830078 C13.30781487 9.99327313 14.59132869 11.99570483 15.875 14 C16.761116 15.35021036 17.64911633 16.69918609 18.5390625 18.046875 C20.71871781 21.34889013 22.85693312 24.67294172 25 28 C25.33 18.76 25.66 9.52 26 0 C28.475 0.495 28.475 0.495 31 1 C31 13.21 31 25.42 31 38 C26 38 26 38 23.89453125 35.90234375 C23.20746094 34.92394531 22.52039063 33.94554687 21.8125 32.9375 C21.43738281 32.4118042 21.06226563 31.8861084 20.67578125 31.34448242 C19.42736478 29.57786018 18.21052505 27.79278527 17 26 C16.54802246 25.33194336 16.09604492 24.66388672 15.63037109 23.97558594 C13.38881198 20.64960321 11.16835642 17.31089095 8.96875 13.95703125 C7.28803762 11.22246622 7.28803762 11.22246622 6 10 C5.67 19.24 5.34 28.48 5 38 C3.35 38 1.7 38 0 38 C0 25.46 0 12.92 0 0 Z " fill="#818181" transform="translate(218,134)"/>
<path d="M0 0 C1.98 0 3.96 0 6 0 C7.93561891 2.05135856 9.26656856 3.77532227 10.7421875 6.125 C11.15542267 6.74648926 11.56865784 7.36797852 11.99441528 8.00830078 C13.30781487 9.99327313 14.59132869 11.99570483 15.875 14 C16.761116 15.35021036 17.64911633 16.69918609 18.5390625 18.046875 C20.71871781 21.34889013 22.85693312 24.67294172 25 28 C25.33 18.76 25.66 9.52 26 0 C28.475 0.495 28.475 0.495 31 1 C31 13.21 31 25.42 31 38 C26 38 26 38 23.89453125 35.90234375 C23.20746094 34.92394531 22.52039063 33.94554687 21.8125 32.9375 C21.43738281 32.4118042 21.06226563 31.8861084 20.67578125 31.34448242 C19.42736478 29.57786018 18.21052505 27.79278527 17 26 C16.54802246 25.33194336 16.09604492 24.66388672 15.63037109 23.97558594 C13.38881198 20.64960321 11.16835642 17.31089095 8.96875 13.95703125 C7.28803762 11.22246622 7.28803762 11.22246622 6 10 C5.67 19.24 5.34 28.48 5 38 C3.35 38 1.7 38 0 38 C0 25.46 0 12.92 0 0 Z " fill="#7E7E7E" transform="translate(363,134)"/>
<path d="M0 0 C15.70588235 0 15.70588235 0 20.4375 4.125 C22.60690301 8.11670154 22.43711094 10.48318695 22 15 C21.01 16.485 21.01 16.485 20 18 C20.66 18.639375 21.32 19.27875 22 19.9375 C24.34467157 23.52777835 24.63996924 25.64073824 24.46484375 29.84375 C23.71734681 33.31113075 21.74299778 34.91009693 19 37 C13.32745403 39.83627298 6.3420992 38 0 38 C0 25.46 0 12.92 0 0 Z M4 5 C4 8.63 4 12.26 4 16 C10.69207708 16.59885364 10.69207708 16.59885364 16.6875 14.3125 C18.23727646 12.06174731 18.23727646 12.06174731 17.875 9.375 C17.13532087 6.85594875 17.13532087 6.85594875 15 5 C12.33050591 4.75684344 12.33050591 4.75684344 9.375 4.875 C7.60125 4.91625 5.8275 4.9575 4 5 Z M4 21 C4 25.29 4 29.58 4 34 C11.58517674 34.70572387 11.58517674 34.70572387 18.25 31.8125 C20.23113208 29.18062107 20.23113208 29.18062107 20 26.375 C18.91040276 23.78720655 18.2402641 22.67420165 16 21 C13.02807238 20.63680691 13.02807238 20.63680691 9.8125 20.8125 C6.9353125 20.9053125 6.9353125 20.9053125 4 21 Z " fill="#777777" transform="translate(162,134)"/>
<path d="M0 0 C0 0.33 0 0.66 0 1 C-0.7616597 1.01030746 -1.5233194 1.02061493 -2.30805969 1.03123474 C-11.97626355 1.16269585 -21.64440419 1.29832543 -31.3125 1.4375 C-32.46122274 1.45403185 -32.46122274 1.45403185 -33.63315201 1.47089767 C-56.42829387 1.80036183 -79.21534599 2.21084839 -102 3 C-94.08 3.33 -86.16 3.66 -78 4 C-78 4.33 -78 4.66 -78 5 C-79.28946533 5.04487549 -80.57893066 5.08975098 -81.9074707 5.13598633 C-106.77207172 6.01301312 -131.59494105 7.03025454 -156.39770508 9.03442383 C-168.28484033 9.968599 -180.07828317 10.14770665 -192 10 C-191.67 9.34 -191.34 8.68 -191 8 C-188.1916453 7.54770708 -185.45168834 7.20307938 -182.625 6.9375 C-181.07523555 6.78277929 -179.52574028 6.6253322 -177.9765625 6.46484375 C-176.94136475 6.36610962 -176.94136475 6.36610962 -175.88525391 6.26538086 C-173.7791228 6.02687498 -173.7791228 6.02687498 -171 5 C-168.3008013 4.72876381 -165.61537716 4.50372804 -162.91015625 4.31640625 C-162.08135956 4.25656555 -161.25256287 4.19672485 -160.39865112 4.1350708 C-106.90904923 0.33630127 -53.59521517 -0.28882237 0 0 Z " fill="#757575" transform="translate(333,102)"/>
<path d="M0 0 C2.475 0.495 2.475 0.495 5 1 C5 6.28 5 11.56 5 17 C10.94 17 16.88 17 23 17 C23 11.39 23 5.78 23 0 C25.475 0.495 25.475 0.495 28 1 C28 13.21 28 25.42 28 38 C26.35 38 24.7 38 23 38 C23 32.39 23 26.78 23 21 C17.06 21 11.12 21 5 21 C5 26.61 5 32.22 5 38 C3.35 38 1.7 38 0 38 C0 25.46 0 12.92 0 0 Z " fill="#838383" transform="translate(291,134)"/>
<path d="M0 0 C2.2644043 0.01977539 2.2644043 0.01977539 5 1 C6.53110469 3.59413155 7.6592961 5.91389593 8.76953125 8.68359375 C9.09539719 9.45429703 9.42126312 10.22500031 9.75700378 11.01905823 C10.79378735 13.48468033 11.80280288 15.96068054 12.8125 18.4375 C13.51067449 20.10292526 14.21052481 21.76764904 14.91210938 23.43164062 C20 35.59681749 20 35.59681749 20 38 C18.35 38 16.7 38 15 38 C14.32645501 36.56570999 13.66140299 35.12742943 13 33.6875 C12.443125 32.48673828 12.443125 32.48673828 11.875 31.26171875 C11 29 11 29 11 26 C5.06 26 -0.88 26 -7 26 C-7.45375 27.423125 -7.9075 28.84625 -8.375 30.3125 C-9.33944209 33.3373411 -10.20931427 35.3139714 -12 38 C-14.625 38.1875 -14.625 38.1875 -17 38 C-6.50588638 12.23623663 -6.50588638 12.23623663 0 0 Z M1 7 C-0.98 11.95 -2.96 16.9 -5 22 C-0.71 22 3.58 22 8 22 C5.91776325 14.09419726 5.91776325 14.09419726 2 7 C1.67 7 1.34 7 1 7 Z " fill="#787878" transform="translate(339,134)"/>
<path d="M0 0 C1.32 0 2.64 0 4 0 C4 5.61 4 11.22 4 17 C10.27 17 16.54 17 23 17 C23 11.39 23 5.78 23 0 C24.32 0 25.64 0 27 0 C27 12.54 27 25.08 27 38 C25.68 38 24.36 38 23 38 C23 32.39 23 26.78 23 21 C16.73 21 10.46 21 4 21 C4 26.61 4 32.22 4 38 C2.35 38 0.7 38 -1 38 C-1.02464928 32.74894558 -1.04283568 27.49792455 -1.05493164 22.24682617 C-1.05997218 20.45905979 -1.06680454 18.67129755 -1.07543945 16.88354492 C-1.0875173 14.31948832 -1.09323094 11.75548603 -1.09765625 9.19140625 C-1.10281754 8.3872377 -1.10797882 7.58306915 -1.11329651 6.75453186 C-1.11349215 4.83598285 -1.06201983 2.91754632 -1 1 C-0.67 0.67 -0.34 0.34 0 0 Z " fill="#777777" transform="translate(401,134)"/>
<path d="M0 0 C6.93 0 13.86 0 21 0 C21 1.65 21 3.3 21 5 C15.72 5 10.44 5 5 5 C5 8.96 5 12.92 5 17 C10.28 17 15.56 17 21 17 C21 18.32 21 19.64 21 21 C15.72 21 10.44 21 5 21 C5 25.29 5 29.58 5 34 C10.28 34 15.56 34 21 34 C21 35.32 21 36.64 21 38 C14.07 38 7.14 38 0 38 C0 25.46 0 12.92 0 0 Z " fill="#7F7F7F" transform="translate(191,134)"/>
<path d="M0 0 C5.67194675 0.00010361 11.34377381 -0.01380241 17.01569176 -0.03077221 C21.43025282 -0.04185545 25.84478389 -0.04392072 30.25935745 -0.04339027 C32.35412655 -0.04456612 34.44889652 -0.04896556 36.54365158 -0.05672264 C39.44146356 -0.06649321 42.33900024 -0.06366155 45.23681641 -0.05761719 C46.08957657 -0.06323669 46.94233673 -0.0688562 47.82093811 -0.074646 C52.11496779 -0.05182654 55.42238549 0.18913008 59.33691406 2.18530273 C59.33691406 2.51530273 59.33691406 2.84530273 59.33691406 3.18530273 C30.63570543 4.39378451 1.97770521 4.13645326 -26.74035645 3.79040527 C-32.84280002 3.71839334 -38.94532776 3.65438519 -45.04785156 3.58959961 C-56.91968886 3.46243827 -68.791411 3.32676502 -80.66308594 3.18530273 C-80.33308594 2.52530273 -80.00308594 1.86530273 -79.66308594 1.18530273 C-53.10873015 0.20157649 -26.57080977 -0.00266572 0 0 Z " fill="#767676" transform="translate(310.6630859375,102.814697265625)"/>
<path d="M0 0 C14.45157838 -0.19139326 28.71701821 0.34294997 43.125 1.4375 C45.00776407 1.57423615 46.89057671 1.7103053 48.7734375 1.84570312 C57.52307737 2.48074366 66.2686357 3.14470869 75 4 C75 4.33 75 4.66 75 5 C72.36 5 69.72 5 67 5 C67 5.66 67 6.32 67 7 C67.59167969 6.98839844 68.18335938 6.97679688 68.79296875 6.96484375 C73.00231785 6.91677614 76.8922333 6.93993117 81 8 C81 8.33 81 8.66 81 9 C72.51920069 8.49073813 64.04343169 7.94031168 55.5703125 7.31640625 C27.39884989 5.26237987 -0.77224027 3.9863778 -29 3 C-29 2.67 -29 2.34 -29 2 C-19.43 1.67 -9.86 1.34 0 1 C0 0.67 0 0.34 0 0 Z " fill="#9D9D9D" transform="translate(366,104)"/>
<path d="M0 0 C6.93 0 13.86 0 21 0 C21.33 1.65 21.66 3.3 22 5 C19.03 5 16.06 5 13 5 C13 15.89 13 26.78 13 38 C11.68 38 10.36 38 9 38 C9 27.11 9 16.22 9 5 C6.03 5 3.06 5 0 5 C0 3.35 0 1.7 0 0 Z " fill="#7B7B7B" transform="translate(266,134)"/>
<path d="M0 0 C4.31263714 0.01048495 8.62528087 0.01484976 12.93792725 0.01983643 C21.30382972 0.03035831 29.66970176 0.0472755 38.0355835 0.06866455 C38.0355835 0.39866455 38.0355835 0.72866455 38.0355835 1.06866455 C37.2739238 1.07897202 36.5122641 1.08927948 35.7275238 1.09989929 C26.05931994 1.2313604 16.3911793 1.36698998 6.7230835 1.50616455 C5.57436075 1.5226964 5.57436075 1.5226964 4.40243149 1.53956223 C-18.39271038 1.86902638 -41.17976249 2.27951294 -63.9644165 3.06866455 C-56.0444165 3.39866455 -48.1244165 3.72866455 -39.9644165 4.06866455 C-39.9644165 4.39866455 -39.9644165 4.72866455 -39.9644165 5.06866455 C-72.47870501 6.26254858 -72.47870501 6.26254858 -85.9644165 6.06866455 C-85.9644165 5.73866455 -85.9644165 5.40866455 -85.9644165 5.06866455 C-81.3444165 5.06866455 -76.7244165 5.06866455 -71.9644165 5.06866455 C-71.9644165 4.40866455 -71.9644165 3.74866455 -71.9644165 3.06866455 C-73.38367432 3.1769458 -73.38367432 3.1769458 -74.831604 3.28741455 C-85.22355203 4.03254273 -95.54852375 4.17716343 -105.9644165 4.06866455 C-105.9644165 3.73866455 -105.9644165 3.40866455 -105.9644165 3.06866455 C-101.28127913 2.79674811 -96.59784558 2.53075666 -91.91412354 2.269104 C-90.33819595 2.18036581 -88.76234202 2.09030427 -87.18658447 1.99859619 C-58.12398557 0.31066459 -29.10220656 -0.07864887 0 0 Z " fill="#A8A8A8" transform="translate(294.96441650390625,101.93133544921875)"/>
<path d="M0 0 C-0.33 0.66 -0.66 1.32 -1 2 C-30.33792331 2.69425761 -59.6535218 3.16617485 -89 3 C-88.67 2.34 -88.34 1.68 -88 1 C-58.66743973 -0.13525915 -29.35070491 -0.11117214 0 0 Z " fill="#5D5D5D" transform="translate(319,103)"/>
<path d="M0 0 C9.44540899 -0.18662718 18.79354559 -0.2431511 28.1875 0.875 C28.85644287 0.95347168 29.52538574 1.03194336 30.21459961 1.11279297 C34.92645531 1.72643547 39.41568678 2.78635534 44 4 C43.67 4.66 43.34 5.32 43 6 C39.12582403 5.75888158 35.25220224 5.51024307 31.37890625 5.25537109 C29.43253163 5.12874292 27.4857996 5.00764641 25.5390625 4.88671875 C16.93867068 4.3162846 8.51249758 3.34321114 0 2 C0 1.34 0 0.68 0 0 Z " fill="#787878" transform="translate(433,109)"/>
<path d="M0 0 C-0.33 0.99 -0.66 1.98 -1 3 C-4.47665446 3.68022483 -7.95664448 4.34164011 -11.4375 5 C-12.89833008 5.28617187 -12.89833008 5.28617187 -14.38867188 5.578125 C-20.37182594 6.69871573 -25.9136113 7.201411 -32 7 C-28.72587726 2.9574607 -25.45082711 2.04374674 -20.5 1.25 C-19.79746094 1.12713623 -19.09492187 1.00427246 -18.37109375 0.87768555 C-12.23764142 -0.12067018 -6.20755594 -0.31743184 0 0 Z " fill="#888888" transform="translate(88,118)"/>
<path d="M0 0 C7.79311062 -0.13852709 15.43110717 0.26366508 23.1875 1 C24.75854492 1.14308594 24.75854492 1.14308594 26.36132812 1.2890625 C28.90799269 1.52163461 31.45415315 1.75866925 34 2 C34 2.33 34 2.66 34 3 C31.36 3 28.72 3 26 3 C26 3.66 26 4.32 26 5 C26.59167969 4.98839844 27.18335938 4.97679688 27.79296875 4.96484375 C32.00231785 4.91677614 35.8922333 4.93993117 40 6 C40 6.33 40 6.66 40 7 C25.65471473 6.16520545 11.32853814 5.08030133 -3 4 C-3 3.67 -3 3.34 -3 3 C2.94 2.505 2.94 2.505 9 2 C6.03 1.67 3.06 1.34 0 1 C0 0.67 0 0.34 0 0 Z " fill="#949494" transform="translate(407,106)"/>
<path d="M0 0 C14.78132118 0.96355353 14.78132118 0.96355353 21 2 C21 2.33 21 2.66 21 3 C19.35 3 17.7 3 16 3 C16 3.66 16 4.32 16 5 C19.3 5.33 22.6 5.66 26 6 C26 6.33 26 6.66 26 7 C16.20813178 6.29059881 6.48970854 5.14358046 -3.25 3.9375 C-4.78513031 3.74913747 -6.32028643 3.56098506 -7.85546875 3.37304688 C-11.57061233 2.91778076 -15.28540124 2.45969278 -19 2 C-19 1.67 -19 1.34 -19 1 C-10.95787245 0.83322777 -3.01396246 1.3533402 5 2 C2.525 1.505 2.525 1.505 0 1 C0 0.67 0 0.34 0 0 Z " fill="#959595" transform="translate(471,112)"/>
<path d="M0 0 C0 0.33 0 0.66 0 1 C-5.61 1.66 -11.22 2.32 -17 3 C-14.03 3.33 -11.06 3.66 -8 4 C-8 4.33 -8 4.66 -8 5 C-11.02038089 5.33794471 -14.04119756 5.67048433 -17.0625 6 C-17.91005859 6.09539062 -18.75761719 6.19078125 -19.63085938 6.2890625 C-24.45472589 6.81056158 -29.14836264 7.10532727 -34 7 C-34 6.67 -34 6.34 -34 6 C-32.02 5.67 -30.04 5.34 -28 5 C-30.64 4.67 -33.28 4.34 -36 4 C-36 3.67 -36 3.34 -36 3 C-31.50077152 2.49289271 -27.00051028 1.99559191 -22.5 1.5 C-20.59734375 1.28537109 -20.59734375 1.28537109 -18.65625 1.06640625 C-12.40044504 0.38217758 -6.29374663 -0.19071959 0 0 Z " fill="#989898" transform="translate(159,108)"/>
<path d="M0 0 C0 0.66 0 1.32 0 2 C-11.6777897 3.09908609 -23.28188331 3.10902914 -35 3 C-34.67 2.34 -34.34 1.68 -34 1 C-22.64906646 0.26429134 -11.37473908 -0.13947228 0 0 Z " fill="#5D5D5D" transform="translate(223,105)"/>
<path d="M0 0 C9.89613084 -0.21105492 19.2648233 -0.10084738 29 2 C29 2.33 29 2.66 29 3 C9.03189066 3.18451025 9.03189066 3.18451025 0 2 C0 1.34 0 0.68 0 0 Z " fill="#5D5D5D" transform="translate(390,106)"/>
<path d="M0 0 C-4.33471946 4.33471946 -10.49269218 4.1066141 -16.28076172 4.13623047 C-19.52156844 4.11983035 -22.75990033 4.07077888 -26 4 C-25.67 3.34 -25.34 2.68 -25 2 C-21.97265625 1.3671875 -21.97265625 1.3671875 -18.0625 0.875 C-17.38823975 0.79008301 -16.71397949 0.70516602 -16.01928711 0.61767578 C-10.65862229 -0.01674508 -5.3891255 -0.22824532 0 0 Z " fill="#6A6A6A" transform="translate(133,112)"/>
<path d="M0 0 C-0.33 0.33 -0.66 0.66 -1 1 C-0.01 1.66 0.98 2.32 2 3 C-0.08047297 3.5321441 -2.16452293 4.05031786 -4.25 4.5625 C-5.41015625 4.85253906 -6.5703125 5.14257812 -7.765625 5.44140625 C-10.72090983 5.95179964 -12.24434101 6.02996165 -15 5 C-14.01 5 -13.02 5 -12 5 C-12 4.34 -12 3.68 -12 3 C-13.32 2.67 -14.64 2.34 -16 2 C-13.89829344 1.46932659 -11.79352402 0.95077143 -9.6875 0.4375 C-7.92986328 0.00244141 -7.92986328 0.00244141 -6.13671875 -0.44140625 C-3 -1 -3 -1 0 0 Z " fill="#A0A0A0" transform="translate(58,123)"/>
<path d="M0 0 C0 0.33 0 0.66 0 1 C-4.95 1.66 -9.9 2.32 -15 3 C-12.69 3.33 -10.38 3.66 -8 4 C-8 4.33 -8 4.66 -8 5 C-12.95 5.33 -17.9 5.66 -23 6 C-22.67 4.68 -22.34 3.36 -22 2 C-7.40318907 -0.29612756 -7.40318907 -0.29612756 0 0 Z " fill="#8E8E8E" transform="translate(123,112)"/>
<path d="M0 0 C4.62 0 9.24 0 14 0 C14 0.33 14 0.66 14 1 C19.28 1.33 24.56 1.66 30 2 C30 2.33 30 2.66 30 3 C20.6587308 3.61326035 11.36749815 4.1820896 2 4 C2 3.67 2 3.34 2 3 C4.97 3 7.94 3 11 3 C11 2.34 11 1.68 11 1 C7.37 1 3.74 1 0 1 C0 0.67 0 0.34 0 0 Z " fill="#A2A2A2" transform="translate(175,106)"/>
<path d="M0 0 C6.08778799 -0.11227478 11.99599056 -0.09163808 18 1 C18.33 1.66 18.66 2.32 19 3 C12.56744599 3.12086218 6.38226945 2.82351864 0 2 C0 1.34 0 0.68 0 0 Z " fill="#5D5D5D" transform="translate(433,109)"/>
<path d="M0 0 C-0.33 0.66 -0.66 1.32 -1 2 C-6.82407765 3.57407504 -13.01639051 3.08713994 -19 3 C-18.67 2.34 -18.34 1.68 -18 1 C-12.13162837 -0.21256802 -5.96802174 -0.11051892 0 0 Z " fill="#5D5D5D" transform="translate(160,109)"/>
<path d="M0 0 C4.95 0 9.9 0 15 0 C15 0.33 15 0.66 15 1 C10.71 1 6.42 1 2 1 C2 1.66 2 2.32 2 3 C5.3 3 8.6 3 12 3 C12 3.33 12 3.66 12 4 C7.71 4 3.42 4 -1 4 C-0.67 2.68 -0.34 1.36 0 0 Z " fill="#A1A1A1" transform="translate(388,105)"/>
<path d="M0 0 C2.64 0 5.28 0 8 0 C8 0.66 8 1.32 8 2 C4.09971775 4.60018816 0.52565431 4.15085514 -4 4 C-3.67 3.34 -3.34 2.68 -3 2 C-2.01 2 -1.02 2 0 2 C0 1.34 0 0.68 0 0 Z " fill="#6D6D6D" transform="translate(38,126)"/>
<path d="M0 0 C1.8871875 0.0309375 1.8871875 0.0309375 3.8125 0.0625 C3.4825 1.0525 3.1525 2.0425 2.8125 3.0625 C-0.8175 3.0625 -4.4475 3.0625 -8.1875 3.0625 C-6.45706736 -0.39836529 -3.47359009 -0.0569441 0 0 Z " fill="#696969" transform="translate(84.1875,117.9375)"/>
<path d="M0 0 C3.96 0 7.92 0 12 0 C12 0.99 12 1.98 12 3 C8.04 2.67 4.08 2.34 0 2 C0 1.34 0 0.68 0 0 Z " fill="#5F5F5F" transform="translate(376,105)"/>
<path d="M0 0 C0.7425 0.0825 1.485 0.165 2.25 0.25 C1.92 1.24 1.59 2.23 1.25 3.25 C-1.39 3.58 -4.03 3.91 -6.75 4.25 C-3.42692308 0.31153846 -3.42692308 0.31153846 0 0 Z " fill="#6D6D6D" transform="translate(62.75,120.75)"/>
<path d="M0 0 C0.66 0.33 1.32 0.66 2 1 C-0.97 3.97 -3.94 6.94 -7 10 C-7 6.04435836 -5.59478606 4.89133304 -3 2 C-2.01 1.34 -1.02 0.68 0 0 Z " fill="#8C8C8C" transform="translate(12,2)"/>
<path d="M0 0 C2.86724686 0.57344937 3.8614515 0.8614515 6 3 C3.11788698 3.96070434 1.30149956 4.10581883 -1.6875 4.0625 C-2.89986328 4.04896484 -2.89986328 4.04896484 -4.13671875 4.03515625 C-5.05904297 4.01775391 -5.05904297 4.01775391 -6 4 C-6 3.67 -6 3.34 -6 3 C-4.02 2.67 -2.04 2.34 0 2 C0 1.34 0 0.68 0 0 Z " fill="#858585" transform="translate(159,108)"/>
<path d="M0 0 C-0.33 0.33 -0.66 0.66 -1 1 C-0.01 1.66 0.98 2.32 2 3 C-0.64 3.33 -3.28 3.66 -6 4 C-5.01 3.67 -4.02 3.34 -3 3 C-3 2.34 -3 1.68 -3 1 C-4.65 1 -6.3 1 -8 1 C-8 0.67 -8 0.34 -8 0 C-4.71303767 -0.79953138 -3.28976808 -1.09658936 0 0 Z " fill="#A4A4A4" transform="translate(58,123)"/>
<path d="M0 0 C2.97 0 5.94 0 9 0 C5.99382731 3.00617269 3.17618402 2.59585316 -1 3 C-0.67 2.01 -0.34 1.02 0 0 Z " fill="#5E5E5E" transform="translate(124,112)"/>
<path d="M0 0 C1.65 0 3.3 0 5 0 C4.67 1.32 4.34 2.64 4 4 C2.68 4 1.36 4 0 4 C0 2.68 0 1.36 0 0 Z " fill="#858585" transform="translate(27,129)"/>
<path d="M0 0 C0 0.66 0 1.32 0 2 C-2.64 2.33 -5.28 2.66 -8 3 C-5.53387212 -0.1151089 -3.89156016 -0.31553191 0 0 Z " fill="#5D5D5D" transform="translate(55,124)"/>
</svg>
