<svg version="1.1" id="Layer_1" xmlns="http://www.w3.org/2000/svg" xmlns:xlink="http://www.w3.org/1999/xlink" x="0px" y="0px"
	 width="100%" viewBox="0 0 1280 308" enable-background="new 0 0 1280 308" xml:space="preserve">
<path fill="#000000" opacity="1.000000" stroke="none" 
	d="
M928.000000,309.000000 
	C618.666687,309.000000 309.833344,309.000000 1.000000,309.000000 
	C1.000000,206.333328 1.000000,103.666664 1.000000,1.000000 
	C427.666656,1.000000 854.333313,1.000000 1281.000000,1.000000 
	C1281.000000,103.666664 1281.000000,206.333328 1281.000000,309.000000 
	C1163.500000,309.000000 1046.000000,309.000000 928.000000,309.000000 
M881.035217,150.952271 
	C880.984314,159.953415 880.933411,168.954575 880.172729,178.323746 
	C871.602112,180.264496 868.034912,177.522354 868.012024,168.818649 
	C867.969910,152.836090 868.000061,136.853348 868.000061,120.139496 
	C855.666138,124.405518 843.799500,128.509918 832.768188,132.325394 
	C834.978394,137.349289 838.173096,141.768967 838.744202,146.505005 
	C839.910278,156.173889 839.605774,166.015503 840.014465,175.781494 
	C840.544006,188.436218 849.782410,195.984619 862.561951,191.951492 
	C869.212280,189.852661 875.280823,185.910400 881.789368,182.713837 
	C881.917786,185.354218 882.066406,188.408569 882.223511,191.638168 
	C893.790222,191.638168 905.095886,191.638168 916.401489,191.638168 
	C910.639709,188.407043 909.817383,183.465149 909.906128,177.576553 
	C910.167236,160.253571 909.999268,142.924118 909.999268,125.597198 
	C909.999268,123.821716 909.999207,122.046242 909.999207,119.412537 
	C897.398743,123.872375 885.581787,128.054886 873.069824,132.483414 
	C878.809570,137.881165 881.583008,143.285095 881.035217,150.952271 
M177.561951,204.071014 
	C178.947311,203.610931 180.444702,203.353867 181.701340,202.660507 
	C203.027802,190.893738 213.105682,167.153214 207.507721,144.024445 
	C204.963089,133.510864 199.336349,124.921303 191.279388,117.685631 
	C182.280746,109.604263 171.724869,105.809212 159.876541,104.999947 
	C146.728271,104.101883 135.033905,108.231903 124.797417,116.103508 
	C111.315346,126.470863 105.173157,141.012299 105.399956,157.514938 
	C105.600540,172.110001 111.346230,184.912842 122.518150,195.143845 
	C137.481247,208.846710 159.238831,211.416214 177.561951,204.071014 
M618.994629,189.266678 
	C618.994629,157.680038 618.994629,126.093414 618.994629,94.344315 
	C609.427551,94.344315 600.390015,94.344315 591.500000,94.344315 
	C591.500000,111.443848 591.500000,128.199066 591.500000,145.144913 
	C590.257385,143.759628 589.048523,142.636154 588.102722,141.323212 
	C577.312927,126.344719 566.589844,111.318008 555.747314,96.377953 
	C554.963806,95.298363 553.404358,94.156509 552.178101,94.125252 
	C544.251831,93.923195 536.317932,94.021774 528.375366,94.021774 
	C528.375366,126.665260 528.375366,158.687439 528.375366,190.721695 
	C537.673157,190.721695 546.592834,190.721695 555.499329,190.721695 
	C555.499329,173.982727 555.499329,157.522858 555.499329,141.127014 
	C556.338501,141.934128 557.405762,142.697433 558.138062,143.704330 
	C569.109375,158.789902 579.982788,173.947357 591.059448,188.954803 
	C592.138672,190.417053 594.367859,191.762344 596.132568,191.856003 
	C602.608215,192.199661 609.115234,192.076294 615.604980,191.912201 
	C616.740601,191.883469 617.849731,190.811295 618.994629,189.266678 
M495.580017,93.999443 
	C493.155609,93.999443 490.731232,93.999443 488.000183,93.999443 
	C488.000183,96.533440 488.000183,98.343994 488.000153,100.154556 
	C488.000061,117.639732 488.018768,135.124939 487.991730,152.610062 
	C487.978973,160.848419 480.659149,168.187744 472.738403,167.996078 
	C464.941040,167.807388 459.006805,161.319046 459.002808,152.942825 
	C458.994293,135.124603 459.000305,117.306374 459.000366,99.488152 
	C459.000366,97.740120 459.000366,95.992081 459.000366,94.296295 
	C448.952942,94.296295 439.698608,94.296295 430.426544,94.296295 
	C430.251343,95.040733 430.046387,95.506409 430.045807,95.972328 
	C430.020203,116.621338 429.400879,137.298813 430.359467,157.902802 
	C430.664276,164.454834 433.804657,171.937668 438.011566,177.048782 
	C451.333557,193.234238 469.531616,195.138565 488.390930,190.010071 
	C506.194550,185.168655 515.838623,171.722916 515.978271,152.734680 
	C516.088562,137.748199 516.000488,122.760262 516.000549,107.772964 
	C516.000549,103.329002 516.000488,98.885040 516.000488,93.999443 
	C509.136230,93.999443 502.847198,93.999443 495.580017,93.999443 
M342.529877,180.023819 
	C354.693817,190.570541 369.238037,193.984802 384.742432,192.813950 
	C395.254089,192.020142 405.137787,188.945099 412.985168,180.704788 
	C422.204102,171.024200 422.338409,149.742966 412.698761,141.086349 
	C406.119629,135.178131 398.338562,132.246994 390.059326,129.944473 
	C384.162781,128.304611 378.154846,126.665680 372.687256,124.014473 
	C368.621552,122.043007 369.021667,118.508530 373.350128,117.081963 
	C376.869507,115.922058 380.913025,115.613480 384.630096,115.953949 
	C391.332947,116.567902 397.007996,119.791748 401.291077,124.677666 
	C406.431976,120.078934 411.488068,115.799080 416.179047,111.150681 
	C417.095490,110.242523 417.376801,107.182228 416.610687,106.353149 
	C413.558746,103.050522 410.272156,99.787682 406.532410,97.332848 
	C397.495209,91.400650 387.129364,91.893524 376.867859,91.955162 
	C368.398285,92.006042 360.461670,94.112282 353.813263,99.116478 
	C340.330566,109.264740 336.828400,125.789612 346.380096,139.482330 
	C351.869171,147.351059 360.747559,150.518036 369.723480,153.003189 
	C375.367645,154.565872 381.118286,155.910110 386.518707,158.098709 
	C388.463654,158.886932 390.564972,161.808807 390.656830,163.844421 
	C390.728973,165.442719 387.996979,168.336365 386.197754,168.612030 
	C382.196747,169.225021 377.926605,168.994751 373.897064,168.322968 
	C364.813263,166.808563 358.469666,160.726242 352.611023,153.971466 
	C346.784363,160.599304 341.287598,166.851898 335.569519,173.356262 
	C337.932617,175.616974 339.975769,177.571594 342.529877,180.023819 
M656.568481,92.000221 
	C653.310242,92.000221 650.052002,92.000221 645.856140,92.000221 
	C647.503235,93.804634 648.346985,95.001801 649.443481,95.885025 
	C655.630371,100.868141 658.171082,107.234329 658.078308,115.201889 
	C657.837952,135.849762 657.938354,156.502579 658.039001,177.152756 
	C658.064636,182.418533 656.233215,186.380478 651.551941,188.923920 
	C650.389099,189.555740 649.263245,190.255508 647.002869,191.577759 
	C666.021973,191.577759 683.697021,191.577759 701.372070,191.577759 
	C696.252441,189.021912 691.057739,186.263306 690.210449,180.456268 
	C689.007385,172.211700 689.064880,163.783188 688.585693,155.467239 
	C693.500244,154.900055 697.398621,154.443390 701.298584,154.001373 
	C711.298096,152.868073 720.809448,150.659302 729.223938,144.492325 
	C738.805786,137.469742 741.556091,128.010803 739.894226,117.014420 
	C738.431274,107.333702 731.602661,101.852356 723.176758,97.932579 
	C713.111389,93.250145 702.285156,92.547127 691.518005,92.103935 
	C680.212585,91.638596 668.873169,92.000069 656.568481,92.000221 
M762.452820,94.003120 
	C756.018127,96.203171 749.583496,98.403229 742.393127,100.861664 
	C750.166687,107.745522 751.246887,115.895180 751.089966,124.764984 
	C750.783569,142.085205 750.890930,159.415726 751.059204,176.739731 
	C751.118225,182.821884 751.157654,188.574890 744.301147,191.570312 
	C757.681824,191.570312 771.062500,191.570312 783.373413,191.570312 
	C781.925476,188.340363 779.311096,185.117401 779.201477,181.811371 
	C778.732361,167.666534 778.915833,153.495911 779.133301,139.338867 
	C779.155396,137.901260 780.697144,135.763382 782.055969,135.191498 
	C789.028748,132.256668 793.635193,135.290497 793.963501,142.960861 
	C794.431213,153.886856 794.679626,164.822418 794.994507,175.754669 
	C795.165405,181.688385 795.126282,187.568130 787.904907,191.535187 
	C802.706055,191.535187 816.051758,191.535187 830.892883,191.535187 
	C824.348511,188.520386 822.772278,184.418030 822.903137,178.842255 
	C823.208008,165.855194 823.292725,152.846924 822.885864,139.865433 
	C822.656067,132.533493 820.929565,125.454567 813.069580,122.007118 
	C804.725708,118.347427 797.076111,120.536476 789.759399,124.831421 
	C786.248962,126.892059 782.973206,129.352600 778.829102,132.145615 
	C778.829102,116.824295 778.829102,102.751617 778.829102,88.025986 
	C773.308899,90.108574 768.276245,92.007248 762.452820,94.003120 
M978.004883,116.506119 
	C991.918945,134.640152 1001.625549,154.473434 1002.437317,178.935287 
	C1005.578308,177.013855 1008.282776,175.826447 1010.408325,173.974564 
	C1017.770752,167.560181 1021.515686,159.288467 1023.220215,149.672699 
	C1026.981812,128.452850 1018.904297,111.148209 1002.843323,99.018372 
	C992.557556,91.250275 980.541565,89.339294 967.798523,89.903923 
	C952.503357,90.581650 940.372803,97.106064 932.031250,109.481079 
	C919.225464,128.478867 918.563110,148.529602 928.935242,169.063904 
	C932.134888,175.398346 937.800842,178.010406 943.730042,177.651291 
	C953.421326,177.064346 963.005737,174.711945 973.200989,173.009857 
	C969.479736,168.081161 965.425903,163.394455 962.134644,158.222473 
	C952.936279,143.768066 945.796448,128.383072 944.278564,111.073891 
	C943.977966,107.645935 945.254211,103.323814 947.361145,100.634705 
	C949.912292,97.378731 954.105896,97.577019 958.166504,99.532547 
	C966.099365,103.352966 972.401001,108.927063 978.004883,116.506119 
M1087.543945,191.994110 
	C1095.928955,191.994110 1104.313843,191.994110 1112.698853,191.994110 
	C1112.965942,191.652008 1113.232910,191.309921 1113.499878,190.967819 
	C1105.282593,187.707413 1105.920654,181.015503 1105.964600,174.399719 
	C1106.072876,158.072647 1106.000000,141.744385 1106.000000,125.416595 
	C1106.000000,123.682571 1106.000000,121.948555 1106.000000,119.590950 
	C1093.545532,123.973900 1081.948730,128.055054 1070.911377,131.939301 
	C1073.047363,136.320892 1076.243408,140.234772 1076.758545,144.474442 
	C1077.891357,153.795502 1077.665283,163.281387 1078.002197,172.699692 
	C1078.111328,175.748199 1078.420044,178.722565 1073.945679,179.037064 
	C1068.902222,179.391525 1065.680786,177.656601 1065.076050,173.358185 
	C1064.504395,169.293915 1064.085449,165.174423 1064.047119,161.075043 
	C1063.921631,147.639694 1064.000000,134.202423 1064.000000,120.158157 
	C1051.672119,124.516502 1039.930054,128.667694 1027.588379,133.030899 
	C1034.617188,139.380402 1036.457397,146.749084 1036.058228,155.067245 
	C1035.763062,161.217636 1035.489014,167.445969 1036.113159,173.546707 
	C1037.229248,184.455719 1039.208618,190.540146 1049.118652,192.299774 
	C1053.798706,193.130768 1059.243164,192.020432 1063.829712,190.368729 
	C1068.729858,188.604065 1073.026855,185.164566 1078.229004,182.074982 
	C1078.229004,185.790451 1078.229004,188.719009 1078.229004,191.994110 
	C1081.282471,191.994110 1083.920776,191.994110 1087.543945,191.994110 
M1176.946533,125.453926 
	C1174.214966,124.421013 1171.557617,123.073753 1168.739258,122.408661 
	C1155.315063,119.240791 1142.524048,120.731110 1131.358398,129.251572 
	C1113.967041,142.522781 1114.833008,172.380280 1132.427124,185.009628 
	C1147.407104,195.762512 1165.929688,194.965866 1179.871094,187.360443 
	C1188.883057,182.444183 1193.428467,173.739868 1195.438843,163.417923 
	C1198.001953,150.256821 1191.667114,131.335678 1176.946533,125.453926 
M101.654282,288.071350 
	C103.456902,287.392120 105.249779,286.685638 107.063622,286.037872 
	C128.411743,278.413300 147.223251,266.422089 162.877945,250.314667 
	C174.203201,238.661911 183.741272,225.252548 193.836273,212.437454 
	C196.397186,209.186493 198.042282,205.214111 200.108170,201.573227 
	C198.335678,201.865829 197.215729,202.534851 196.191193,203.327240 
	C184.079330,212.694626 171.477402,221.273102 156.419464,225.141678 
	C145.006317,228.073883 133.341461,230.044022 121.968376,233.109283 
	C111.863625,235.832672 102.028313,239.773148 97.397545,250.284637 
	C91.670013,263.285706 92.066650,277.022491 93.369301,291.029938 
	C96.114021,290.129974 98.551025,289.330933 101.654282,288.071350 
M131.035950,94.448326 
	C142.005737,87.301270 153.034683,80.242867 163.925461,72.977371 
	C171.779236,67.737946 179.090637,61.549339 180.494492,51.688560 
	C181.406219,45.284508 181.120605,38.395054 179.772491,32.063530 
	C178.067963,24.058113 174.738022,16.398779 171.969330,8.174770 
	C127.748421,41.162033 110.903160,82.210068 101.848946,127.634476 
	C110.645279,117.620422 120.591881,106.296860 131.035950,94.448326 
M231.062393,138.353363 
	C235.991867,143.353958 240.775879,148.508942 245.883194,153.320786 
	C254.675369,161.604355 265.130737,163.137054 276.443054,159.973251 
	C286.962189,157.031250 296.376465,151.883057 305.430023,144.896179 
	C287.921448,128.089081 268.025848,115.695625 245.262344,108.114250 
	C222.447388,100.515732 198.864029,97.536026 174.743546,97.452255 
	C196.674988,106.542191 216.253082,118.681839 231.062393,138.353363 
M224.742172,54.001625 
	C223.830963,54.314823 222.942337,54.776726 222.005173,54.919048 
	C206.329712,57.299553 191.485184,62.480713 177.687027,69.996307 
	C164.919174,76.950722 152.845978,85.192192 140.565643,93.021774 
	C137.467758,94.996918 134.747269,97.563972 130.786484,100.705116 
	C139.927322,98.351952 147.506500,96.280296 155.145538,94.459892 
	C170.066376,90.904228 184.958008,91.755257 199.975159,94.341522 
	C208.971466,95.890892 218.185852,96.710068 227.308258,96.760239 
	C231.721512,96.784531 236.738724,95.187737 240.465225,92.762100 
	C254.933472,83.344475 258.864441,67.807320 263.365173,51.999950 
	C260.945923,51.999950 259.293945,51.915260 257.652954,52.013687 
	C246.980972,52.653778 236.311371,53.333664 224.742172,54.001625 
M175.016937,276.276123 
	C180.388504,285.030701 186.187805,293.435608 194.327072,300.584625 
	C223.894730,258.314545 225.684677,211.778809 218.756500,163.677170 
	C217.898849,165.102051 217.343887,166.592300 217.017990,168.131073 
	C213.916946,182.773804 209.502777,196.995758 200.932098,209.397415 
	C193.918594,219.545837 185.859421,228.965302 178.628723,238.971634 
	C170.427338,250.321259 167.973389,262.498169 175.016937,276.276123 
M93.001259,173.606567 
	C92.007187,172.119370 90.754822,170.742859 90.062042,169.126526 
	C86.303162,160.356552 83.011177,151.370789 78.913109,142.766693 
	C75.463234,135.523514 72.063148,127.921494 66.992821,121.856148 
	C56.940159,109.830727 42.560444,112.829231 29.289410,113.474640 
	C24.216900,113.721329 19.229403,115.716003 14.044078,116.952026 
	C37.118641,165.070404 79.439415,191.684494 118.907654,205.891907 
	C110.962585,196.193893 102.016037,185.273453 93.001259,173.606567 
M277.066833,236.231964 
	C277.041992,235.067261 277.163513,233.877747 276.970764,232.741531 
	C273.097687,209.911713 264.772919,188.844360 252.019150,169.502716 
	C240.301880,151.732971 224.894440,137.288986 209.893845,122.472786 
	C209.622803,122.205093 209.072311,122.220360 208.057877,121.938400 
	C209.396332,124.656906 210.456085,126.927216 211.615387,129.145493 
	C221.460068,147.982849 226.588425,167.909302 226.077469,189.276840 
	C225.916367,196.013657 226.174179,202.842438 227.120605,209.504059 
	C228.447769,218.845535 231.522659,227.978210 240.464249,232.568329 
	C247.696442,236.280945 255.729233,238.567047 263.585236,240.880341 
	C268.119843,242.215576 273.008087,242.349701 278.241760,243.096436 
	C277.932434,240.538925 277.718689,238.771835 277.066833,236.231964 
M95.009979,147.335068 
	C95.938026,139.400665 96.616196,131.427322 97.845787,123.539932 
	C100.462524,106.754417 110.228607,91.832474 110.449471,74.307129 
	C110.536011,67.440620 108.818344,61.425957 104.737869,56.444359 
	C97.152573,47.183956 87.414528,40.576736 76.421516,35.763710 
	C73.664841,34.556763 72.470642,34.921749 71.988678,37.902863 
	C69.319695,54.411407 66.048088,70.906609 69.039528,87.715569 
	C71.109962,99.349472 72.642311,111.196907 76.083206,122.438347 
	C80.083626,135.507767 85.780518,148.071304 91.012245,160.742447 
	C92.618126,164.631851 95.115059,168.153366 97.823051,172.936951 
	C97.439018,169.599243 97.211929,167.692078 97.001350,165.783081 
	C96.356895,159.940704 95.718788,154.097626 95.009979,147.335068 
M111.992676,208.478073 
	C110.207428,207.728241 108.353073,207.108932 106.648575,206.206558 
	C98.056351,201.657806 89.643555,196.744293 80.894989,192.524323 
	C72.899727,188.667725 64.449333,186.263397 55.420399,188.898560 
	C39.599468,193.516006 30.622740,205.733398 22.104290,218.362869 
	C44.400608,228.102539 67.265305,232.707123 91.368675,232.139740 
	C115.254349,231.577499 138.003204,226.375320 161.583099,218.630890 
	C152.097595,217.430328 143.916473,216.849487 135.937531,215.256226 
	C128.064346,213.684067 120.395706,211.087570 111.992676,208.478073 
M1260.119629,123.049500 
	C1256.874878,122.598701 1253.615967,122.230751 1250.387695,121.682549 
	C1237.358521,119.470062 1225.264648,121.822174 1215.673096,131.059906 
	C1205.211304,141.135529 1202.280640,153.955505 1205.581543,168.063171 
	C1207.093750,174.526352 1210.409790,179.958847 1215.586304,184.305832 
	C1225.547241,192.670700 1236.999878,194.783951 1249.261597,191.847961 
	C1256.983154,189.999115 1264.336426,186.816345 1267.976685,178.484131 
	C1264.684570,178.484131 1261.752075,178.871201 1258.957153,178.415222 
	C1248.453491,176.701553 1240.582642,170.335083 1234.211304,162.467758 
	C1228.016113,154.817947 1223.079468,146.231003 1223.005371,135.819565 
	C1222.983032,132.676437 1222.625366,128.738022 1226.488770,128.105484 
	C1229.071289,127.682640 1232.444580,128.869827 1234.728516,130.420090 
	C1243.051636,136.069366 1248.223511,144.521484 1253.405396,152.880341 
	C1255.663574,156.523102 1257.825928,160.225311 1260.218018,164.210571 
	C1261.034546,162.837128 1261.594482,162.299011 1261.677734,161.695190 
	C1263.152466,150.990219 1264.451416,140.259537 1266.056274,129.574631 
	C1266.706421,125.244362 1264.018311,124.273613 1260.119629,123.049500 
M506.008636,241.501129 
	C504.811188,238.294495 503.106537,235.175034 502.536804,231.860504 
	C501.711334,227.058151 498.404419,227.979858 495.397705,228.029083 
	C492.320526,228.079468 488.994934,226.882263 487.786926,231.878754 
	C486.424622,237.513260 483.834930,242.851028 481.555756,248.911636 
	C479.041962,239.434067 476.755157,230.812256 474.476044,222.219482 
	C469.678772,222.219482 465.060333,222.219482 460.299561,222.219482 
	C460.193024,223.047363 459.902374,223.735870 460.061829,224.296326 
	C464.345856,239.354706 468.621216,254.416382 473.111023,269.413757 
	C473.441925,270.519073 475.279785,271.625275 476.584808,271.883575 
	C478.667419,272.295868 480.993073,272.391327 483.021332,271.867279 
	C484.533539,271.476562 486.385406,270.170685 486.969025,268.797577 
	C489.645203,262.501129 491.928314,256.037567 494.714020,248.679001 
	C497.340912,255.247513 499.741150,261.090271 502.012848,266.982574 
	C503.680725,271.308624 512.223938,274.189362 515.868652,271.479126 
	C516.439392,271.054718 516.747253,270.147766 516.968750,269.402161 
	C519.940918,259.396606 522.935425,249.397003 525.796936,239.359589 
	C527.383301,233.795044 528.732117,228.162735 530.333435,222.001099 
	C526.053345,222.001099 522.580383,222.062454 519.110840,221.980499 
	C516.614258,221.921524 515.464172,222.599243 514.841370,225.453323 
	C513.164246,233.138519 510.844025,240.683350 508.633820,248.818481 
	C507.625854,246.219803 506.862366,244.251343 506.008636,241.501129 
M451.962280,226.453644 
	C451.302429,225.967819 450.693451,225.384018 449.975067,225.010910 
	C439.477783,219.558533 428.314056,223.016235 417.000122,221.857895 
	C417.000122,230.723251 417.000092,238.844162 417.000092,246.965088 
	C417.000092,255.217056 417.000122,263.469025 417.000122,271.726807 
	C421.665833,271.726807 425.589783,271.726807 430.030579,271.726807 
	C430.030579,266.399506 430.030579,261.330292 430.030579,254.832474 
	C432.186371,256.361633 433.682556,256.928375 434.383850,258.010315 
	C436.777954,261.703949 438.772888,265.657135 441.183563,269.338745 
	C441.944977,270.501617 443.489288,271.790039 444.750793,271.873016 
	C449.348816,272.175476 453.978699,271.992493 459.547394,271.992493 
	C455.793060,265.295685 452.437500,259.310272 449.079773,253.320923 
	C457.916534,248.707047 460.116852,233.096039 451.962280,226.453644 
M624.035156,253.518860 
	C621.446289,256.504608 618.857422,259.490387 616.183350,262.574371 
	C624.780151,272.827850 635.654968,275.070343 648.123840,271.390656 
	C654.922546,269.384277 658.854492,264.181305 658.999390,257.389038 
	C659.174683,249.166931 656.136902,244.555649 648.625305,242.056290 
	C645.851624,241.133423 642.862000,240.844742 640.113220,239.866730 
	C637.864868,239.066803 635.828003,237.672577 632.513000,235.913239 
	C637.986145,233.238480 642.520142,232.788406 645.536316,235.504044 
	C649.398010,238.980988 651.327576,237.521561 653.983765,234.615067 
	C655.305908,233.168350 657.154968,232.203125 658.892029,230.927277 
	C657.230347,228.630630 656.546448,226.981003 655.313599,226.096298 
	C647.558777,220.531158 638.978760,219.450043 630.069458,222.546707 
	C624.614258,224.442825 618.463989,230.444595 618.893982,237.278564 
	C619.336060,244.304947 621.873291,248.264923 629.720825,251.297287 
	C633.659180,252.819092 637.759216,253.919769 641.714661,255.401825 
	C642.608276,255.736664 643.798401,256.882446 643.778015,257.625458 
	C643.755310,258.449097 642.644165,259.540680 641.746643,259.965271 
	C640.682739,260.468536 639.076538,260.917542 638.164307,260.464966 
	C633.572937,258.187256 629.131287,255.607849 624.035156,253.518860 
M973.449158,178.000397 
	C962.625671,177.385361 952.252014,179.582535 941.745239,182.660019 
	C959.099609,201.452728 972.600708,207.837265 996.568604,201.462997 
	C1008.431152,198.308121 1020.968506,197.638214 1033.231079,196.084351 
	C1035.688477,195.772949 1038.283813,196.549911 1040.815552,196.825043 
	C1040.922119,196.296753 1041.028809,195.768448 1041.135376,195.240158 
	C1028.828613,191.160995 1016.672607,186.515869 1004.166504,183.184998 
	C994.478516,180.604691 984.352844,179.667862 973.449158,178.000397 
M573.085693,271.996185 
	C575.865112,272.087769 576.420715,271.379974 575.242920,268.493866 
	C570.190796,256.113556 565.540100,243.570236 560.614075,231.137436 
	C556.808838,221.533295 556.713257,221.438553 548.058899,222.127426 
	C546.616333,222.242264 544.634338,223.732651 544.043945,225.085785 
	C540.001465,234.351196 536.211853,243.728745 532.446167,253.112457 
	C529.987122,259.239990 527.705200,265.438599 525.193848,271.997192 
	C529.550171,271.997192 533.217468,272.192291 536.844177,271.894073 
	C538.158386,271.785980 540.325989,270.655701 540.480774,269.722504 
	C541.390747,264.238617 544.862183,263.515594 549.481384,263.947968 
	C552.434204,264.224365 555.433899,263.999756 558.366638,263.999756 
	C559.520325,266.784454 560.562866,269.300812 561.680725,271.999054 
	C565.215088,271.999054 568.695862,271.999054 573.085693,271.996185 
M385.110413,266.317749 
	C384.812988,265.392731 384.568146,264.446838 384.210114,263.545898 
	C379.810089,252.472626 375.255737,241.458313 371.020508,230.322571 
	C366.909515,219.513580 368.624329,222.318954 359.046417,222.144516 
	C357.693848,222.119888 355.634521,223.735535 355.042816,225.090149 
	C350.991821,234.364212 347.190125,243.749161 343.420258,253.143372 
	C340.966400,259.258270 338.701660,265.449066 336.202942,271.996918 
	C340.595459,271.996918 344.266907,272.195557 347.896271,271.891632 
	C349.205688,271.781982 351.367188,270.613556 351.512085,269.676544 
	C352.377014,264.084595 355.977051,263.562317 360.536377,263.952148 
	C363.494354,264.205048 366.491486,263.999725 369.330322,263.999725 
	C370.524963,266.832794 371.582855,269.341583 372.617096,271.794281 
	C377.422272,271.794281 382.048950,271.794281 387.405853,271.794281 
	C386.661346,269.908661 386.089844,268.461212 385.110413,266.317749 
M596.935730,233.290497 
	C596.073486,234.393768 595.211243,235.497025 594.274353,236.695801 
	C590.983337,232.083664 588.656006,226.051086 584.292908,223.498779 
	C580.057251,221.021011 573.732056,222.115112 568.324463,221.640640 
	C568.135925,222.133972 567.947388,222.627304 567.758850,223.120636 
	C573.252563,230.995377 578.867920,238.789673 584.160034,246.797607 
	C585.605591,248.984970 586.693604,251.771225 586.874756,254.357651 
	C587.276550,260.095551 586.999939,265.880951 586.999939,271.579163 
	C592.394775,271.579163 597.105286,271.579163 602.000244,271.579163 
	C602.000244,269.498779 602.195923,267.811523 601.968872,266.183167 
	C600.374634,254.747009 603.609558,244.953415 611.125793,236.184891 
	C614.627258,232.100052 617.133301,227.162048 619.952515,222.823212 
	C609.553650,219.910645 601.562683,221.810822 597.402039,232.191101 
	C597.342041,232.340744 597.209045,232.461121 596.935730,233.290497 
M405.999878,251.499786 
	C405.999878,241.772339 405.999878,232.044891 405.999878,222.417679 
	C400.585938,222.417679 395.883118,222.417679 391.263367,222.417679 
	C391.263367,239.054657 391.263367,255.271210 391.263367,271.668579 
	C396.227478,271.668579 400.924103,271.668579 405.999878,271.668579 
	C405.999878,265.060913 405.999878,258.780212 405.999878,251.499786 
z"/>
<path fill="#F1C219" opacity="1.000000" stroke="none" 
	d="
M177.249756,204.319275 
	C159.238831,211.416214 137.481247,208.846710 122.518150,195.143845 
	C111.346230,184.912842 105.600540,172.110001 105.399956,157.514938 
	C105.173157,141.012299 111.315346,126.470863 124.797417,116.103508 
	C135.033905,108.231903 146.728271,104.101883 159.876541,104.999947 
	C171.724869,105.809212 182.280746,109.604263 191.279388,117.685631 
	C199.336349,124.921303 204.963089,133.510864 207.507721,144.024445 
	C213.105682,167.153214 203.027802,190.893738 181.701340,202.660507 
	C180.444702,203.353867 178.947311,203.610931 177.249756,204.319275 
z"/>
<path fill="#D72027" opacity="1.000000" stroke="none" 
	d="
M618.982910,189.743866 
	C617.849731,190.811295 616.740601,191.883469 615.604980,191.912201 
	C609.115234,192.076294 602.608215,192.199661 596.132568,191.856003 
	C594.367859,191.762344 592.138672,190.417053 591.059448,188.954803 
	C579.982788,173.947357 569.109375,158.789902 558.138062,143.704330 
	C557.405762,142.697433 556.338501,141.934128 555.499329,141.127014 
	C555.499329,157.522858 555.499329,173.982727 555.499329,190.721695 
	C546.592834,190.721695 537.673157,190.721695 528.375366,190.721695 
	C528.375366,158.687439 528.375366,126.665260 528.375366,94.021774 
	C536.317932,94.021774 544.251831,93.923195 552.178101,94.125252 
	C553.404358,94.156509 554.963806,95.298363 555.747314,96.377953 
	C566.589844,111.318008 577.312927,126.344719 588.102722,141.323212 
	C589.048523,142.636154 590.257385,143.759628 591.500000,145.144913 
	C591.500000,128.199066 591.500000,111.443848 591.500000,94.344315 
	C600.390015,94.344315 609.427551,94.344315 618.994629,94.344315 
	C618.994629,126.093414 618.994629,157.680038 618.982910,189.743866 
z"/>
<path fill="#D72027" opacity="1.000000" stroke="none" 
	d="
M496.069092,93.999443 
	C502.847198,93.999443 509.136230,93.999443 516.000488,93.999443 
	C516.000488,98.885040 516.000549,103.329002 516.000549,107.772964 
	C516.000488,122.760262 516.088562,137.748199 515.978271,152.734680 
	C515.838623,171.722916 506.194550,185.168655 488.390930,190.010071 
	C469.531616,195.138565 451.333557,193.234238 438.011566,177.048782 
	C433.804657,171.937668 430.664276,164.454834 430.359467,157.902802 
	C429.400879,137.298813 430.020203,116.621338 430.045807,95.972328 
	C430.046387,95.506409 430.251343,95.040733 430.426544,94.296295 
	C439.698608,94.296295 448.952942,94.296295 459.000366,94.296295 
	C459.000366,95.992081 459.000366,97.740120 459.000366,99.488152 
	C459.000305,117.306374 458.994293,135.124603 459.002808,152.942825 
	C459.006805,161.319046 464.941040,167.807388 472.738403,167.996078 
	C480.659149,168.187744 487.978973,160.848419 487.991730,152.610062 
	C488.018768,135.124939 488.000061,117.639732 488.000153,100.154556 
	C488.000183,98.343994 488.000183,96.533440 488.000183,93.999443 
	C490.731232,93.999443 493.155609,93.999443 496.069092,93.999443 
z"/>
<path fill="#D72027" opacity="1.000000" stroke="none" 
	d="
M342.274414,179.775024 
	C339.975769,177.571594 337.932617,175.616974 335.569519,173.356262 
	C341.287598,166.851898 346.784363,160.599304 352.611023,153.971466 
	C358.469666,160.726242 364.813263,166.808563 373.897064,168.322968 
	C377.926605,168.994751 382.196747,169.225021 386.197754,168.612030 
	C387.996979,168.336365 390.728973,165.442719 390.656830,163.844421 
	C390.564972,161.808807 388.463654,158.886932 386.518707,158.098709 
	C381.118286,155.910110 375.367645,154.565872 369.723480,153.003189 
	C360.747559,150.518036 351.869171,147.351059 346.380096,139.482330 
	C336.828400,125.789612 340.330566,109.264740 353.813263,99.116478 
	C360.461670,94.112282 368.398285,92.006042 376.867859,91.955162 
	C387.129364,91.893524 397.495209,91.400650 406.532410,97.332848 
	C410.272156,99.787682 413.558746,103.050522 416.610687,106.353149 
	C417.376801,107.182228 417.095490,110.242523 416.179047,111.150681 
	C411.488068,115.799080 406.431976,120.078934 401.291077,124.677666 
	C397.007996,119.791748 391.332947,116.567902 384.630096,115.953949 
	C380.913025,115.613480 376.869507,115.922058 373.350128,117.081963 
	C369.021667,118.508530 368.621552,122.043007 372.687256,124.014473 
	C378.154846,126.665680 384.162781,128.304611 390.059326,129.944473 
	C398.338562,132.246994 406.119629,135.178131 412.698761,141.086349 
	C422.338409,149.742966 422.204102,171.024200 412.985168,180.704788 
	C405.137787,188.945099 395.254089,192.020142 384.742432,192.813950 
	C369.238037,193.984802 354.693817,190.570541 342.274414,179.775024 
z"/>
<path fill="#D72027" opacity="1.000000" stroke="none" 
	d="
M657.058533,92.000221 
	C668.873169,92.000069 680.212585,91.638596 691.518005,92.103935 
	C702.285156,92.547127 713.111389,93.250145 723.176758,97.932579 
	C731.602661,101.852356 738.431274,107.333702 739.894226,117.014420 
	C741.556091,128.010803 738.805786,137.469742 729.223938,144.492325 
	C720.809448,150.659302 711.298096,152.868073 701.298584,154.001373 
	C697.398621,154.443390 693.500244,154.900055 688.585693,155.467239 
	C689.064880,163.783188 689.007385,172.211700 690.210449,180.456268 
	C691.057739,186.263306 696.252441,189.021912 701.372070,191.577759 
	C683.697021,191.577759 666.021973,191.577759 647.002869,191.577759 
	C649.263245,190.255508 650.389099,189.555740 651.551941,188.923920 
	C656.233215,186.380478 658.064636,182.418533 658.039001,177.152756 
	C657.938354,156.502579 657.837952,135.849762 658.078308,115.201889 
	C658.171082,107.234329 655.630371,100.868141 649.443481,95.885025 
	C648.346985,95.001801 647.503235,93.804634 645.856140,92.000221 
	C650.052002,92.000221 653.310242,92.000221 657.058533,92.000221 
M703.109070,142.511780 
	C709.588501,130.093170 710.511047,117.249336 704.080139,104.791840 
	C700.189758,97.255783 695.018799,94.043953 689.228027,96.753952 
	C689.228027,114.910728 689.228027,133.113174 689.228027,151.299576 
	C695.396729,151.038559 699.516663,147.723495 703.109070,142.511780 
z"/>
<path fill="#D72027" opacity="1.000000" stroke="none" 
	d="
M762.848145,93.954521 
	C768.276245,92.007248 773.308899,90.108574 778.829102,88.025986 
	C778.829102,102.751617 778.829102,116.824295 778.829102,132.145615 
	C782.973206,129.352600 786.248962,126.892059 789.759399,124.831421 
	C797.076111,120.536476 804.725708,118.347427 813.069580,122.007118 
	C820.929565,125.454567 822.656067,132.533493 822.885864,139.865433 
	C823.292725,152.846924 823.208008,165.855194 822.903137,178.842255 
	C822.772278,184.418030 824.348511,188.520386 830.892883,191.535187 
	C816.051758,191.535187 802.706055,191.535187 787.904907,191.535187 
	C795.126282,187.568130 795.165405,181.688385 794.994507,175.754669 
	C794.679626,164.822418 794.431213,153.886856 793.963501,142.960861 
	C793.635193,135.290497 789.028748,132.256668 782.055969,135.191498 
	C780.697144,135.763382 779.155396,137.901260 779.133301,139.338867 
	C778.915833,153.495911 778.732361,167.666534 779.201477,181.811371 
	C779.311096,185.117401 781.925476,188.340363 783.373413,191.570312 
	C771.062500,191.570312 757.681824,191.570312 744.301147,191.570312 
	C751.157654,188.574890 751.118225,182.821884 751.059204,176.739731 
	C750.890930,159.415726 750.783569,142.085205 751.089966,124.764984 
	C751.246887,115.895180 750.166687,107.745522 742.393127,100.861664 
	C749.583496,98.403229 756.018127,96.203171 762.848145,93.954521 
z"/>
<path fill="#D72027" opacity="1.000000" stroke="none" 
	d="
M977.751709,116.250694 
	C972.401001,108.927063 966.099365,103.352966 958.166504,99.532547 
	C954.105896,97.577019 949.912292,97.378731 947.361145,100.634705 
	C945.254211,103.323814 943.977966,107.645935 944.278564,111.073891 
	C945.796448,128.383072 952.936279,143.768066 962.134644,158.222473 
	C965.425903,163.394455 969.479736,168.081161 973.200989,173.009857 
	C963.005737,174.711945 953.421326,177.064346 943.730042,177.651291 
	C937.800842,178.010406 932.134888,175.398346 928.935242,169.063904 
	C918.563110,148.529602 919.225464,128.478867 932.031250,109.481079 
	C940.372803,97.106064 952.503357,90.581650 967.798523,89.903923 
	C980.541565,89.339294 992.557556,91.250275 1002.843323,99.018372 
	C1018.904297,111.148209 1026.981812,128.452850 1023.220215,149.672699 
	C1021.515686,159.288467 1017.770752,167.560181 1010.408325,173.974564 
	C1008.282776,175.826447 1005.578308,177.013855 1002.437317,178.935287 
	C1001.625549,154.473434 991.918945,134.640152 977.751709,116.250694 
z"/>
<path fill="#D72027" opacity="1.000000" stroke="none" 
	d="
M881.166504,150.026459 
	C881.583008,143.285095 878.809570,137.881165 873.069824,132.483414 
	C885.581787,128.054886 897.398743,123.872375 909.999207,119.412537 
	C909.999207,122.046242 909.999268,123.821716 909.999268,125.597198 
	C909.999268,142.924118 910.167236,160.253571 909.906128,177.576553 
	C909.817383,183.465149 910.639709,188.407043 916.401489,191.638168 
	C905.095886,191.638168 893.790222,191.638168 882.223511,191.638168 
	C882.066406,188.408569 881.917786,185.354218 881.789368,182.713837 
	C875.280823,185.910400 869.212280,189.852661 862.561951,191.951492 
	C849.782410,195.984619 840.544006,188.436218 840.014465,175.781494 
	C839.605774,166.015503 839.910278,156.173889 838.744202,146.505005 
	C838.173096,141.768967 834.978394,137.349289 832.768188,132.325394 
	C843.799500,128.509918 855.666138,124.405518 868.000061,120.139496 
	C868.000061,136.853348 867.969910,152.836090 868.012024,168.818649 
	C868.034912,177.522354 871.602112,180.264496 880.782593,177.815857 
	C881.317139,168.214142 881.241821,159.120300 881.166504,150.026459 
z"/>
<path fill="#D72027" opacity="1.000000" stroke="none" 
	d="
M1087.051514,191.994110 
	C1083.920776,191.994110 1081.282471,191.994110 1078.229004,191.994110 
	C1078.229004,188.719009 1078.229004,185.790451 1078.229004,182.074982 
	C1073.026855,185.164566 1068.729858,188.604065 1063.829712,190.368729 
	C1059.243164,192.020432 1053.798706,193.130768 1049.118652,192.299774 
	C1039.208618,190.540146 1037.229248,184.455719 1036.113159,173.546707 
	C1035.489014,167.445969 1035.763062,161.217636 1036.058228,155.067245 
	C1036.457397,146.749084 1034.617188,139.380402 1027.588379,133.030899 
	C1039.930054,128.667694 1051.672119,124.516502 1064.000000,120.158157 
	C1064.000000,134.202423 1063.921631,147.639694 1064.047119,161.075043 
	C1064.085449,165.174423 1064.504395,169.293915 1065.076050,173.358185 
	C1065.680786,177.656601 1068.902222,179.391525 1073.945679,179.037064 
	C1078.420044,178.722565 1078.111328,175.748199 1078.002197,172.699692 
	C1077.665283,163.281387 1077.891357,153.795502 1076.758545,144.474442 
	C1076.243408,140.234772 1073.047363,136.320892 1070.911377,131.939301 
	C1081.948730,128.055054 1093.545532,123.973900 1106.000000,119.590950 
	C1106.000000,121.948555 1106.000000,123.682571 1106.000000,125.416595 
	C1106.000000,141.744385 1106.072876,158.072647 1105.964600,174.399719 
	C1105.920654,181.015503 1105.282593,187.707413 1113.499878,190.967819 
	C1113.232910,191.309921 1112.965942,191.652008 1112.698853,191.994110 
	C1104.313843,191.994110 1095.928955,191.994110 1087.051514,191.994110 
z"/>
<path fill="#D72027" opacity="1.000000" stroke="none" 
	d="
M1177.257080,125.675949 
	C1191.667114,131.335678 1198.001953,150.256821 1195.438843,163.417923 
	C1193.428467,173.739868 1188.883057,182.444183 1179.871094,187.360443 
	C1165.929688,194.965866 1147.407104,195.762512 1132.427124,185.009628 
	C1114.833008,172.380280 1113.967041,142.522781 1131.358398,129.251572 
	C1142.524048,120.731110 1155.315063,119.240791 1168.739258,122.408661 
	C1171.557617,123.073753 1174.214966,124.421013 1177.257080,125.675949 
M1165.706665,183.934708 
	C1168.999390,185.652603 1172.495850,189.750992 1175.695679,184.472549 
	C1176.906006,182.476089 1176.995361,178.944305 1176.116577,176.688782 
	C1172.742432,168.029709 1169.541138,159.141571 1164.798950,151.223022 
	C1160.123535,143.416000 1153.854980,136.510040 1147.831543,129.604538 
	C1146.506836,128.085922 1142.943237,127.274963 1141.016846,127.927589 
	C1139.521729,128.434097 1138.758423,131.660965 1138.084961,133.808807 
	C1137.719116,134.975388 1137.977539,136.490402 1138.366211,137.717865 
	C1143.834717,154.989395 1153.093872,170.066589 1165.706665,183.934708 
z"/>
<path fill="#F1C219" opacity="1.000000" stroke="none" 
	d="
M101.321152,288.301605 
	C98.551025,289.330933 96.114021,290.129974 93.369301,291.029938 
	C92.066650,277.022491 91.670013,263.285706 97.397545,250.284637 
	C102.028313,239.773148 111.863625,235.832672 121.968376,233.109283 
	C133.341461,230.044022 145.006317,228.073883 156.419464,225.141678 
	C171.477402,221.273102 184.079330,212.694626 196.191193,203.327240 
	C197.215729,202.534851 198.335678,201.865829 200.108170,201.573227 
	C198.042282,205.214111 196.397186,209.186493 193.836273,212.437454 
	C183.741272,225.252548 174.203201,238.661911 162.877945,250.314667 
	C147.223251,266.422089 128.411743,278.413300 107.063622,286.037872 
	C105.249779,286.685638 103.456902,287.392120 101.321152,288.301605 
z"/>
<path fill="#F1C219" opacity="1.000000" stroke="none" 
	d="
M130.787216,94.710815 
	C120.591881,106.296860 110.645279,117.620422 101.848946,127.634476 
	C110.903160,82.210068 127.748421,41.162033 171.969330,8.174770 
	C174.738022,16.398779 178.067963,24.058113 179.772491,32.063530 
	C181.120605,38.395054 181.406219,45.284508 180.494492,51.688560 
	C179.090637,61.549339 171.779236,67.737946 163.925461,72.977371 
	C153.034683,80.242867 142.005737,87.301270 130.787216,94.710815 
z"/>
<path fill="#F1C219" opacity="1.000000" stroke="none" 
	d="
M231.005707,137.998505 
	C216.253082,118.681839 196.674988,106.542191 174.743546,97.452255 
	C198.864029,97.536026 222.447388,100.515732 245.262344,108.114250 
	C268.025848,115.695625 287.921448,128.089081 305.430023,144.896179 
	C296.376465,151.883057 286.962189,157.031250 276.443054,159.973251 
	C265.130737,163.137054 254.675369,161.604355 245.883194,153.320786 
	C240.775879,148.508942 235.991867,143.353958 231.005707,137.998505 
z"/>
<path fill="#F1C219" opacity="1.000000" stroke="none" 
	d="
M225.191589,54.001076 
	C236.311371,53.333664 246.980972,52.653778 257.652954,52.013687 
	C259.293945,51.915260 260.945923,51.999950 263.365173,51.999950 
	C258.864441,67.807320 254.933472,83.344475 240.465225,92.762100 
	C236.738724,95.187737 231.721512,96.784531 227.308258,96.760239 
	C218.185852,96.710068 208.971466,95.890892 199.975159,94.341522 
	C184.958008,91.755257 170.066376,90.904228 155.145538,94.459892 
	C147.506500,96.280296 139.927322,98.351952 130.786484,100.705116 
	C134.747269,97.563972 137.467758,94.996918 140.565643,93.021774 
	C152.845978,85.192192 164.919174,76.950722 177.687027,69.996307 
	C191.485184,62.480713 206.329712,57.299553 222.005173,54.919048 
	C222.942337,54.776726 223.830963,54.314823 225.191589,54.001076 
z"/>
<path fill="#F1C219" opacity="1.000000" stroke="none" 
	d="
M174.969147,275.890350 
	C167.973389,262.498169 170.427338,250.321259 178.628723,238.971634 
	C185.859421,228.965302 193.918594,219.545837 200.932098,209.397415 
	C209.502777,196.995758 213.916946,182.773804 217.017990,168.131073 
	C217.343887,166.592300 217.898849,165.102051 218.756500,163.677170 
	C225.684677,211.778809 223.894730,258.314545 194.327072,300.584625 
	C186.187805,293.435608 180.388504,285.030701 174.969147,275.890350 
z"/>
<path fill="#F1C219" opacity="1.000000" stroke="none" 
	d="
M93.035370,173.979797 
	C102.016037,185.273453 110.962585,196.193893 118.907654,205.891907 
	C79.439415,191.684494 37.118641,165.070404 14.044078,116.952026 
	C19.229403,115.716003 24.216900,113.721329 29.289410,113.474640 
	C42.560444,112.829231 56.940159,109.830727 66.992821,121.856148 
	C72.063148,127.921494 75.463234,135.523514 78.913109,142.766693 
	C83.011177,151.370789 86.303162,160.356552 90.062042,169.126526 
	C90.754822,170.742859 92.007187,172.119370 93.035370,173.979797 
z"/>
<path fill="#F1C219" opacity="1.000000" stroke="none" 
	d="
M277.285889,236.618347 
	C277.718689,238.771835 277.932434,240.538925 278.241760,243.096436 
	C273.008087,242.349701 268.119843,242.215576 263.585236,240.880341 
	C255.729233,238.567047 247.696442,236.280945 240.464249,232.568329 
	C231.522659,227.978210 228.447769,218.845535 227.120605,209.504059 
	C226.174179,202.842438 225.916367,196.013657 226.077469,189.276840 
	C226.588425,167.909302 221.460068,147.982849 211.615387,129.145493 
	C210.456085,126.927216 209.396332,124.656906 208.057877,121.938400 
	C209.072311,122.220360 209.622803,122.205093 209.893845,122.472786 
	C224.894440,137.288986 240.301880,151.732971 252.019150,169.502716 
	C264.772919,188.844360 273.097687,209.911713 276.970764,232.741531 
	C277.163513,233.877747 277.041992,235.067261 277.285889,236.618347 
z"/>
<path fill="#F1C219" opacity="1.000000" stroke="none" 
	d="
M95.044098,147.794952 
	C95.718788,154.097626 96.356895,159.940704 97.001350,165.783081 
	C97.211929,167.692078 97.439018,169.599243 97.823051,172.936951 
	C95.115059,168.153366 92.618126,164.631851 91.012245,160.742447 
	C85.780518,148.071304 80.083626,135.507767 76.083206,122.438347 
	C72.642311,111.196907 71.109962,99.349472 69.039528,87.715569 
	C66.048088,70.906609 69.319695,54.411407 71.988678,37.902863 
	C72.470642,34.921749 73.664841,34.556763 76.421516,35.763710 
	C87.414528,40.576736 97.152573,47.183956 104.737869,56.444359 
	C108.818344,61.425957 110.536011,67.440620 110.449471,74.307129 
	C110.228607,91.832474 100.462524,106.754417 97.845787,123.539932 
	C96.616196,131.427322 95.938026,139.400665 95.044098,147.794952 
z"/>
<path fill="#F1C219" opacity="1.000000" stroke="none" 
	d="
M112.315002,208.709259 
	C120.395706,211.087570 128.064346,213.684067 135.937531,215.256226 
	C143.916473,216.849487 152.097595,217.430328 161.583099,218.630890 
	C138.003204,226.375320 115.254349,231.577499 91.368675,232.139740 
	C67.265305,232.707123 44.400608,228.102539 22.104290,218.362869 
	C30.622740,205.733398 39.599468,193.516006 55.420399,188.898560 
	C64.449333,186.263397 72.899727,188.667725 80.894989,192.524323 
	C89.643555,196.744293 98.056351,201.657806 106.648575,206.206558 
	C108.353073,207.108932 110.207428,207.728241 112.315002,208.709259 
z"/>
<path fill="#D72027" opacity="1.000000" stroke="none" 
	d="
M1260.515259,123.206940 
	C1264.018311,124.273613 1266.706421,125.244362 1266.056274,129.574631 
	C1264.451416,140.259537 1263.152466,150.990219 1261.677734,161.695190 
	C1261.594482,162.299011 1261.034546,162.837128 1260.218018,164.210571 
	C1257.825928,160.225311 1255.663574,156.523102 1253.405396,152.880341 
	C1248.223511,144.521484 1243.051636,136.069366 1234.728516,130.420090 
	C1232.444580,128.869827 1229.071289,127.682640 1226.488770,128.105484 
	C1222.625366,128.738022 1222.983032,132.676437 1223.005371,135.819565 
	C1223.079468,146.231003 1228.016113,154.817947 1234.211304,162.467758 
	C1240.582642,170.335083 1248.453491,176.701553 1258.957153,178.415222 
	C1261.752075,178.871201 1264.684570,178.484131 1267.976685,178.484131 
	C1264.336426,186.816345 1256.983154,189.999115 1249.261597,191.847961 
	C1236.999878,194.783951 1225.547241,192.670700 1215.586304,184.305832 
	C1210.409790,179.958847 1207.093750,174.526352 1205.581543,168.063171 
	C1202.280640,153.955505 1205.211304,141.135529 1215.673096,131.059906 
	C1225.264648,121.822174 1237.358521,119.470062 1250.387695,121.682549 
	C1253.615967,122.230751 1256.874878,122.598701 1260.515259,123.206940 
z"/>
<path fill="#D72027" opacity="1.000000" stroke="none" 
	d="
M506.053741,241.891998 
	C506.862366,244.251343 507.625854,246.219803 508.633820,248.818481 
	C510.844025,240.683350 513.164246,233.138519 514.841370,225.453323 
	C515.464172,222.599243 516.614258,221.921524 519.110840,221.980499 
	C522.580383,222.062454 526.053345,222.001099 530.333435,222.001099 
	C528.732117,228.162735 527.383301,233.795044 525.796936,239.359589 
	C522.935425,249.397003 519.940918,259.396606 516.968750,269.402161 
	C516.747253,270.147766 516.439392,271.054718 515.868652,271.479126 
	C512.223938,274.189362 503.680725,271.308624 502.012848,266.982574 
	C499.741150,261.090271 497.340912,255.247513 494.714020,248.679001 
	C491.928314,256.037567 489.645203,262.501129 486.969025,268.797577 
	C486.385406,270.170685 484.533539,271.476562 483.021332,271.867279 
	C480.993073,272.391327 478.667419,272.295868 476.584808,271.883575 
	C475.279785,271.625275 473.441925,270.519073 473.111023,269.413757 
	C468.621216,254.416382 464.345856,239.354706 460.061829,224.296326 
	C459.902374,223.735870 460.193024,223.047363 460.299561,222.219482 
	C465.060333,222.219482 469.678772,222.219482 474.476044,222.219482 
	C476.755157,230.812256 479.041962,239.434067 481.555756,248.911636 
	C483.834930,242.851028 486.424622,237.513260 487.786926,231.878754 
	C488.994934,226.882263 492.320526,228.079468 495.397705,228.029083 
	C498.404419,227.979858 501.711334,227.058151 502.536804,231.860504 
	C503.106537,235.175034 504.811188,238.294495 506.053741,241.891998 
z"/>
<path fill="#D72027" opacity="1.000000" stroke="none" 
	d="
M452.225342,226.722900 
	C460.116852,233.096039 457.916534,248.707047 449.079773,253.320923 
	C452.437500,259.310272 455.793060,265.295685 459.547394,271.992493 
	C453.978699,271.992493 449.348816,272.175476 444.750793,271.873016 
	C443.489288,271.790039 441.944977,270.501617 441.183563,269.338745 
	C438.772888,265.657135 436.777954,261.703949 434.383850,258.010315 
	C433.682556,256.928375 432.186371,256.361633 430.030579,254.832474 
	C430.030579,261.330292 430.030579,266.399506 430.030579,271.726807 
	C425.589783,271.726807 421.665833,271.726807 417.000122,271.726807 
	C417.000122,263.469025 417.000092,255.217056 417.000092,246.965088 
	C417.000092,238.844162 417.000122,230.723251 417.000122,221.857895 
	C428.314056,223.016235 439.477783,219.558533 449.975067,225.010910 
	C450.693451,225.384018 451.302429,225.967819 452.225342,226.722900 
M434.373993,244.999786 
	C437.577789,245.049072 440.967682,245.117752 442.143127,241.341141 
	C442.601135,239.869568 442.369202,236.862686 441.635956,236.565170 
	C438.103485,235.131882 434.292694,234.384460 430.003601,233.239624 
	C430.003601,237.122971 430.160492,239.456711 429.963226,241.760101 
	C429.725067,244.540634 431.037445,245.304184 434.373993,244.999786 
z"/>
<path fill="#D72027" opacity="1.000000" stroke="none" 
	d="
M624.336121,253.326599 
	C629.131287,255.607849 633.572937,258.187256 638.164307,260.464966 
	C639.076538,260.917542 640.682739,260.468536 641.746643,259.965271 
	C642.644165,259.540680 643.755310,258.449097 643.778015,257.625458 
	C643.798401,256.882446 642.608276,255.736664 641.714661,255.401825 
	C637.759216,253.919769 633.659180,252.819092 629.720825,251.297287 
	C621.873291,248.264923 619.336060,244.304947 618.893982,237.278564 
	C618.463989,230.444595 624.614258,224.442825 630.069458,222.546707 
	C638.978760,219.450043 647.558777,220.531158 655.313599,226.096298 
	C656.546448,226.981003 657.230347,228.630630 658.892029,230.927277 
	C657.154968,232.203125 655.305908,233.168350 653.983765,234.615067 
	C651.327576,237.521561 649.398010,238.980988 645.536316,235.504044 
	C642.520142,232.788406 637.986145,233.238480 632.513000,235.913239 
	C635.828003,237.672577 637.864868,239.066803 640.113220,239.866730 
	C642.862000,240.844742 645.851624,241.133423 648.625305,242.056290 
	C656.136902,244.555649 659.174683,249.166931 658.999390,257.389038 
	C658.854492,264.181305 654.922546,269.384277 648.123840,271.390656 
	C635.654968,275.070343 624.780151,272.827850 616.183350,262.574371 
	C618.857422,259.490387 621.446289,256.504608 624.336121,253.326599 
z"/>
<path fill="#F1C219" opacity="1.000000" stroke="none" 
	d="
M973.935425,178.000427 
	C984.352844,179.667862 994.478516,180.604691 1004.166504,183.184998 
	C1016.672607,186.515869 1028.828613,191.160995 1041.135376,195.240158 
	C1041.028809,195.768448 1040.922119,196.296753 1040.815552,196.825043 
	C1038.283813,196.549911 1035.688477,195.772949 1033.231079,196.084351 
	C1020.968506,197.638214 1008.431152,198.308121 996.568604,201.462997 
	C972.600708,207.837265 959.099609,201.452728 941.745239,182.660019 
	C952.252014,179.582535 962.625671,177.385361 973.935425,178.000427 
z"/>
<path fill="#D72027" opacity="1.000000" stroke="none" 
	d="
M572.631165,271.997620 
	C568.695862,271.999054 565.215088,271.999054 561.680725,271.999054 
	C560.562866,269.300812 559.520325,266.784454 558.366638,263.999756 
	C555.433899,263.999756 552.434204,264.224365 549.481384,263.947968 
	C544.862183,263.515594 541.390747,264.238617 540.480774,269.722504 
	C540.325989,270.655701 538.158386,271.785980 536.844177,271.894073 
	C533.217468,272.192291 529.550171,271.997192 525.193848,271.997192 
	C527.705200,265.438599 529.987122,259.239990 532.446167,253.112457 
	C536.211853,243.728745 540.001465,234.351196 544.043945,225.085785 
	C544.634338,223.732651 546.616333,222.242264 548.058899,222.127426 
	C556.713257,221.438553 556.808838,221.533295 560.614075,231.137436 
	C565.540100,243.570236 570.190796,256.113556 575.242920,268.493866 
	C576.420715,271.379974 575.865112,272.087769 572.631165,271.997620 
M552.176453,246.618271 
	C551.664978,245.619766 551.153442,244.621277 550.508362,243.362045 
	C549.253967,246.555801 548.113403,249.459702 546.856567,252.659714 
	C549.472473,252.659714 551.635193,252.659714 554.153015,252.659714 
	C553.582092,250.574295 553.120239,248.887634 552.176453,246.618271 
z"/>
<path fill="#D72027" opacity="1.000000" stroke="none" 
	d="
M385.314362,266.665771 
	C386.089844,268.461212 386.661346,269.908661 387.405853,271.794281 
	C382.048950,271.794281 377.422272,271.794281 372.617096,271.794281 
	C371.582855,269.341583 370.524963,266.832794 369.330322,263.999725 
	C366.491486,263.999725 363.494354,264.205048 360.536377,263.952148 
	C355.977051,263.562317 352.377014,264.084595 351.512085,269.676544 
	C351.367188,270.613556 349.205688,271.781982 347.896271,271.891632 
	C344.266907,272.195557 340.595459,271.996918 336.202942,271.996918 
	C338.701660,265.449066 340.966400,259.258270 343.420258,253.143372 
	C347.190125,243.749161 350.991821,234.364212 355.042816,225.090149 
	C355.634521,223.735535 357.693848,222.119888 359.046417,222.144516 
	C368.624329,222.318954 366.909515,219.513580 371.020508,230.322571 
	C375.255737,241.458313 379.810089,252.472626 384.210114,263.545898 
	C384.568146,264.446838 384.812988,265.392731 385.314362,266.665771 
M359.875549,247.525162 
	C359.266815,249.152939 358.658112,250.780731 357.954468,252.662262 
	C360.482605,252.662262 362.645203,252.662262 365.493469,252.662262 
	C364.140411,249.260803 362.997467,246.387527 361.699432,243.124313 
	C360.967041,244.762100 360.511108,245.781693 359.875549,247.525162 
z"/>
<path fill="#D72027" opacity="1.000000" stroke="none" 
	d="
M597.022949,232.942810 
	C597.209045,232.461121 597.342041,232.340744 597.402039,232.191101 
	C601.562683,221.810822 609.553650,219.910645 619.952515,222.823212 
	C617.133301,227.162048 614.627258,232.100052 611.125793,236.184891 
	C603.609558,244.953415 600.374634,254.747009 601.968872,266.183167 
	C602.195923,267.811523 602.000244,269.498779 602.000244,271.579163 
	C597.105286,271.579163 592.394775,271.579163 586.999939,271.579163 
	C586.999939,265.880951 587.276550,260.095551 586.874756,254.357651 
	C586.693604,251.771225 585.605591,248.984970 584.160034,246.797607 
	C578.867920,238.789673 573.252563,230.995377 567.758850,223.120636 
	C567.947388,222.627304 568.135925,222.133972 568.324463,221.640640 
	C573.732056,222.115112 580.057251,221.021011 584.292908,223.498779 
	C588.656006,226.051086 590.983337,232.083664 594.274353,236.695801 
	C595.211243,235.497025 596.073486,234.393768 597.022949,232.942810 
z"/>
<path fill="#D72027" opacity="1.000000" stroke="none" 
	d="
M405.999878,251.999664 
	C405.999878,258.780212 405.999878,265.060913 405.999878,271.668579 
	C400.924103,271.668579 396.227478,271.668579 391.263367,271.668579 
	C391.263367,255.271210 391.263367,239.054657 391.263367,222.417679 
	C395.883118,222.417679 400.585938,222.417679 405.999878,222.417679 
	C405.999878,232.044891 405.999878,241.772339 405.999878,251.999664 
z"/>
<path fill="#CC3333" opacity="1.000000" stroke="none" 
	d="
M881.100830,150.489365 
	C881.241821,159.120300 881.317139,168.214142 881.137451,177.631851 
	C880.933411,168.954575 880.984314,159.953415 881.100830,150.489365 
z"/>
<path fill="#000000" opacity="1.000000" stroke="none" 
	d="
M703.022400,142.875183 
	C699.516663,147.723495 695.396729,151.038559 689.228027,151.299576 
	C689.228027,133.113174 689.228027,114.910728 689.228027,96.753952 
	C695.018799,94.043953 700.189758,97.255783 704.080139,104.791840 
	C710.511047,117.249336 709.588501,130.093170 703.022400,142.875183 
z"/>
<path fill="#000000" opacity="1.000000" stroke="none" 
	d="
M1165.393799,183.740509 
	C1153.093872,170.066589 1143.834717,154.989395 1138.366211,137.717865 
	C1137.977539,136.490402 1137.719116,134.975388 1138.084961,133.808807 
	C1138.758423,131.660965 1139.521729,128.434097 1141.016846,127.927589 
	C1142.943237,127.274963 1146.506836,128.085922 1147.831543,129.604538 
	C1153.854980,136.510040 1160.123535,143.416000 1164.798950,151.223022 
	C1169.541138,159.141571 1172.742432,168.029709 1176.116577,176.688782 
	C1176.995361,178.944305 1176.906006,182.476089 1175.695679,184.472549 
	C1172.495850,189.750992 1168.999390,185.652603 1165.393799,183.740509 
z"/>
<path fill="#000000" opacity="1.000000" stroke="none" 
	d="
M433.928986,244.999146 
	C431.037445,245.304184 429.725067,244.540634 429.963226,241.760101 
	C430.160492,239.456711 430.003601,237.122971 430.003601,233.239624 
	C434.292694,234.384460 438.103485,235.131882 441.635956,236.565170 
	C442.369202,236.862686 442.601135,239.869568 442.143127,241.341141 
	C440.967682,245.117752 437.577789,245.049072 433.928986,244.999146 
z"/>
<path fill="#000000" opacity="1.000000" stroke="none" 
	d="
M552.417480,246.909622 
	C553.120239,248.887634 553.582092,250.574295 554.153015,252.659714 
	C551.635193,252.659714 549.472473,252.659714 546.856567,252.659714 
	C548.113403,249.459702 549.253967,246.555801 550.508362,243.362045 
	C551.153442,244.621277 551.664978,245.619766 552.417480,246.909622 
z"/>
<path fill="#000000" opacity="1.000000" stroke="none" 
	d="
M359.965332,247.163239 
	C360.511108,245.781693 360.967041,244.762100 361.699432,243.124313 
	C362.997467,246.387527 364.140411,249.260803 365.493469,252.662262 
	C362.645203,252.662262 360.482605,252.662262 357.954468,252.662262 
	C358.658112,250.780731 359.266815,249.152939 359.965332,247.163239 
z"/>
</svg>