<?xml version="1.0" encoding="UTF-8"?>
<svg version="1.1" xmlns="http://www.w3.org/2000/svg" width="590" height="225">
<path d="M0 0 C3.245613 1.42074324 5.3626159 3.13762681 7.828125 5.66796875 C8.54613281 6.39693359 9.26414062 7.12589844 10.00390625 7.87695312 C10.74511719 8.63943359 11.48632812 9.40191406 12.25 10.1875 C16.5192294 14.55909991 20.79916095 18.91259253 25.296875 23.05078125 C26.22258301 23.90603394 26.22258301 23.90603394 27.16699219 24.77856445 C29.18766555 26.36968076 29.18766555 26.36968076 33 26 C34.72207627 24.72588656 34.72207627 24.72588656 36.25 22.9375 C38.63379728 20.40755024 41.03110539 18.05469587 43.6875 15.8125 C49.43565433 10.86931403 54.68294744 5.39680835 60 0 C62.89544737 1.30688843 64.92343117 2.68967692 67.12890625 4.96875 C67.96905273 5.82533203 67.96905273 5.82533203 68.82617188 6.69921875 C69.39916016 7.29347656 69.97214844 7.88773438 70.5625 8.5 C71.70730947 9.67934563 72.85436457 10.85651652 74.00390625 12.03125 C74.50736572 12.55267578 75.0108252 13.07410156 75.52954102 13.61132812 C77.15641908 15.2256108 77.15641908 15.2256108 80 17 C80 17.66 80 18.32 80 19 C80.58555664 19.25885986 81.17111328 19.51771973 81.77441406 19.78442383 C84.1688396 21.09221724 85.71093329 22.49736101 87.609375 24.44921875 C88.28226563 25.13306641 88.95515625 25.81691406 89.6484375 26.52148438 C90.34195313 27.23626953 91.03546875 27.95105469 91.75 28.6875 C96.38486483 33.44132048 101.0722359 38.00307783 106.10742188 42.33227539 C108.99944943 44.88070679 111.68573682 47.61588582 114.375 50.375 C117.83669022 54.14026227 117.83669022 54.14026227 122 57 C120.33437746 61.33272699 117.12548131 64.13520713 113.875 67.3125 C113.28315918 67.89789551 112.69131836 68.48329102 112.08154297 69.08642578 C108.59454209 72.51236837 105.01955357 75.77067592 101.2890625 78.9296875 C97.90048674 81.99444032 94.71441277 85.25430341 91.5 88.5 C87.16296185 92.87924776 82.84212549 97.16000344 78.09765625 101.1015625 C76.2387878 102.78389037 74.53069311 104.51641738 72.80859375 106.3359375 C72.23318848 106.93712402 71.6577832 107.53831055 71.06494141 108.15771484 C69.91467467 109.36695318 68.77707001 110.58838981 67.65380859 111.82275391 C66.05078125 113.5 66.05078125 113.5 63 116 C58.71704451 115.81165316 56.76011791 114.23276815 53.85546875 111.2109375 C53.09556641 110.43363281 52.33566406 109.65632813 51.55273438 108.85546875 C50.77220703 108.03691406 49.99167969 107.21835938 49.1875 106.375 C43.65526835 100.65264136 38.09183351 95.12985535 32 90 C29.10784459 91.31848841 26.95380025 92.76401818 24.64453125 94.94140625 C24.02626465 95.52124268 23.40799805 96.1010791 22.77099609 96.69848633 C21.80154053 97.6211731 21.80154053 97.6211731 20.8125 98.5625 C20.14557129 99.18858154 19.47864258 99.81466309 18.79150391 100.4597168 C14.35190189 104.64693417 10.06357889 108.93494743 5.9296875 113.42578125 C3.53135707 115.38231397 2.08302557 115.79317169 -1 116 C-3.09301758 114.57226562 -3.09301758 114.57226562 -5.14453125 112.40625 C-5.90443359 111.6225 -6.66433594 110.83875 -7.44726562 110.03125 C-8.22779297 109.1959375 -9.00832031 108.360625 -9.8125 107.5 C-11.35819732 105.88304254 -12.90635332 104.26843162 -14.45703125 102.65625 C-15.59579712 101.46841919 -15.59579712 101.46841919 -16.75756836 100.2565918 C-19.4360955 97.56115071 -22.25748224 95.08882048 -25.14477539 92.62158203 C-28.01048093 90.11677664 -30.65758643 87.41200502 -33.3125 84.6875 C-36.08145 81.84871519 -38.67960605 79.21359597 -42 77 C-42 76.34 -42 75.68 -42 75 C-42.53367188 74.79503906 -43.06734375 74.59007813 -43.6171875 74.37890625 C-46.99937434 72.42167354 -49.43037488 69.7403035 -52.125 66.9375 C-55.69553366 62.9955106 -55.69553366 62.9955106 -60 60 C-60 57 -60 57 -58.671875 55.59765625 C-58.03765625 55.09105469 -57.4034375 54.58445313 -56.75 54.0625 C-52.95174168 50.89055023 -49.46546936 47.52378124 -46 44 C-42.81795394 40.77718996 -39.65299431 37.60938736 -36.1875 34.6875 C-31.34547059 30.57634295 -26.96797133 25.99209912 -22.50219727 21.48266602 C-18.74195227 17.69979449 -14.93028521 14.06976704 -10.8515625 10.62890625 C-7.04852319 7.28319445 -3.54301835 3.61683123 0 0 Z M28.1171875 32.72265625 C27.37726563 33.49480469 26.63734375 34.26695313 25.875 35.0625 C23.04473897 37.9603628 20.21250703 40.75317068 17.125 43.375 C11.78916349 47.94394503 6.92271025 52.99584785 2 58 C7.86290422 65.00688554 14.0796727 71.26198371 21 77.22265625 C24.13788102 80.01120286 27.07410323 82.99181238 30 86 C34.27175708 84.35305751 36.95870017 81.22947516 40.0625 78 C45.63747228 72.24168514 45.63747228 72.24168514 49 70 C49 69.34 49 68.68 49 68 C49.58265625 67.74476562 50.1653125 67.48953125 50.765625 67.2265625 C53.21388223 65.88258913 54.81743248 64.38189704 56.75 62.375 C57.36359375 61.74335937 57.9771875 61.11171875 58.609375 60.4609375 C59.06828125 59.97882813 59.5271875 59.49671875 60 59 C53.83508067 51.6020968 47.20451476 44.9386593 39.890625 38.67578125 C38.0472144 37.04184913 36.33483838 35.33458978 34.625 33.5625 C31.41906445 30.2847428 31.41906445 30.2847428 28.1171875 32.72265625 Z " fill="#E02329" transform="translate(261,15)"/>
<path d="M0 0 C3.96 0 7.92 0 12 0 C15.20628019 6.73318839 17.04022409 13.82741912 19 21 C19.26478149 20.09906616 19.26478149 20.09906616 19.53491211 19.17993164 C20.33245 16.47312842 21.13490682 13.76780837 21.9375 11.0625 C22.21529297 10.11697266 22.49308594 9.17144531 22.77929688 8.19726562 C23.04677734 7.29814453 23.31425781 6.39902344 23.58984375 5.47265625 C23.83597412 4.64000244 24.08210449 3.80734863 24.33569336 2.94946289 C25 1 25 1 26 0 C27.99799572 -0.09873816 29.99957158 -0.12971799 32 -0.125 C33.093125 -0.12757813 34.18625 -0.13015625 35.3125 -0.1328125 C38 0 38 0 39 1 C39.35747367 2.86171687 39.65951737 4.73414094 39.9375 6.609375 C40.11023438 7.75664062 40.28296875 8.90390625 40.4609375 10.0859375 C40.63882813 11.29507813 40.81671875 12.50421875 41 13.75 C41.35318728 16.11993783 41.70731908 18.48973514 42.0625 20.859375 C42.21847656 21.91608398 42.37445313 22.97279297 42.53515625 24.06152344 C42.83581723 25.96213032 43.17266276 27.85751513 43.55249023 29.74389648 C44.23628663 33.19123008 44.05945961 36.49188284 44 40 C42.18757948 40.02687279 40.37504767 40.04633715 38.5625 40.0625 C37.55316406 40.07410156 36.54382813 40.08570313 35.50390625 40.09765625 C33 40 33 40 32 39 C31.599617 36.14471393 31.2481773 33.30263513 30.9375 30.4375 C30.84662109 29.63119141 30.75574219 28.82488281 30.66210938 27.99414062 C30.43752551 25.99652623 30.21826764 23.9983144 30 22 C27.71635001 25.42547499 26.86599293 28.75656137 25.875 32.6875 C25.69324219 33.38939453 25.51148438 34.09128906 25.32421875 34.81445312 C24.87772921 36.54166268 24.4381834 38.27066456 24 40 C20.7 40 17.4 40 14 40 C12.35 34.06 10.7 28.12 9 22 C8.05335972 27.54894181 8.05335972 27.54894181 7.11547852 33.09936523 C6.11111111 38.88888889 6.11111111 38.88888889 5 40 C3.14712498 40.07226502 1.29166122 40.0838122 -0.5625 40.0625 C-1.57441406 40.05347656 -2.58632813 40.04445312 -3.62890625 40.03515625 C-4.41136719 40.02355469 -5.19382812 40.01195312 -6 40 C-5.66170491 31.33964569 -4.42897306 22.91317774 -3 14.375 C-2.82178711 13.30765625 -2.64357422 12.2403125 -2.45996094 11.140625 C-1.13888604 3.41665812 -1.13888604 3.41665812 0 0 Z " fill="#E0262B" transform="translate(302,169)"/>
<path d="M0 0 C11.16789376 -1.24905458 11.16789376 -1.24905458 15.24316406 1.52929688 C17.09169562 3.67551669 18.61948617 5.85131863 20.125 8.25 C20.66125 9.02730469 21.1975 9.80460938 21.75 10.60546875 C22.74400342 12.05196626 23.72056772 13.51073872 24.67236328 14.98535156 C26.03144937 17.04772346 27.51804946 19.02406594 29 21 C29 14.07 29 7.14 29 0 C38.27734375 -0.09765625 38.27734375 -0.09765625 41 0 C42.84276509 1.84276509 42.12874411 4.42963759 42.13894653 6.88134766 C42.1369223 7.70425293 42.13489807 8.5271582 42.1328125 9.375 C42.13376923 10.21466309 42.13472595 11.05432617 42.13571167 11.91943359 C42.13639348 13.69824295 42.13453917 15.47705477 42.13037109 17.25585938 C42.12502283 19.98833776 42.13031605 22.72065176 42.13671875 25.453125 C42.13605797 27.1770837 42.13477681 28.90104229 42.1328125 30.625 C42.13483673 31.44790527 42.13686096 32.27081055 42.13894653 33.11865234 C42.11495054 38.88504946 42.11495054 38.88504946 41 40 C36.52330551 40.75127918 31.90238729 41.31732771 28.03125 38.63671875 C26.17295805 36.51984372 24.59447873 34.32308159 23 32 C21.81765389 30.42221875 20.620132 28.85677115 19.4206543 27.29199219 C17.59125669 24.87822651 15.7994475 22.43617508 14 20 C13.67 26.6 13.34 33.2 13 40 C3.72265625 40.09765625 3.72265625 40.09765625 1 40 C0 39 0 39 -0.11352539 35.30639648 C-0.11336624 33.66128708 -0.10766988 32.01617269 -0.09765625 30.37109375 C-0.0962413 29.50686295 -0.09482635 28.64263214 -0.09336853 27.75221252 C-0.08775239 24.98060708 -0.07519719 22.2090812 -0.0625 19.4375 C-0.05748708 17.5631522 -0.05292381 15.68880315 -0.04882812 13.81445312 C-0.03777772 9.20960456 -0.0205023 4.60481579 0 0 Z " fill="#252122" transform="translate(429,169)"/>
<path d="M0 0 C4.29 0 8.58 0 13 0 C13 4.95 13 9.9 13 15 C17.29 15 21.58 15 26 15 C26 10.05 26 5.1 26 0 C30.29 0 34.58 0 39 0 C39 13.2 39 26.4 39 40 C34.71 40 30.42 40 26 40 C26 34.72 26 29.44 26 24 C21.71 24 17.42 24 13 24 C13 29.28 13 34.56 13 40 C3.72265625 40.09765625 3.72265625 40.09765625 1 40 C0 39 0 39 -0.11352539 35.30639648 C-0.11336624 33.66128708 -0.10766988 32.01617269 -0.09765625 30.37109375 C-0.0962413 29.50686295 -0.09482635 28.64263214 -0.09336853 27.75221252 C-0.08775239 24.98060708 -0.07519719 22.2090812 -0.0625 19.4375 C-0.05748708 17.5631522 -0.05292381 15.68880315 -0.04882812 13.81445312 C-0.03777772 9.20960456 -0.0205023 4.60481579 0 0 Z " fill="#E02329" transform="translate(169,169)"/>
<path d="M0 0 C4.50334071 3.23992499 7.52260466 7.39203273 9.26953125 12.6328125 C9.95124987 20.24970704 8.77638437 24.87253282 4.51953125 31.2578125 C-0.25074592 36.29310507 -6.02170009 38.70664382 -12.91796875 38.9453125 C-20.13721411 38.81491562 -25.64062466 36.14965097 -30.66796875 31.0078125 C-34.67674081 25.99218607 -35.91640138 20.86277979 -35.63671875 14.5 C-34.44826417 7.61236548 -29.54475743 2.66171829 -24.04296875 -1.3046875 C-15.92717265 -5.03356679 -7.71723608 -4.25359469 0 0 Z M-21.73046875 11.6328125 C-23.11960622 15.87697284 -23.23398365 19.3460522 -21.60546875 23.5078125 C-19.42570428 25.97821224 -17.78053808 27.35603929 -14.73046875 28.6328125 C-10.51035 28.46056276 -7.78637605 27.57553805 -4.73046875 24.6328125 C-3.1107225 19.77357374 -2.95203374 15.42321302 -4.98046875 10.7578125 C-7.45924228 7.74787322 -9.31594814 6.89338209 -13.10546875 6.1953125 C-16.95075121 6.83619291 -19.46531729 8.53877281 -21.73046875 11.6328125 Z " fill="#E0252B" transform="translate(283.73046875,171.3671875)"/>
<path d="M0 0 C3.50625 -0.061875 7.0125 -0.12375 10.625 -0.1875 C11.71893066 -0.21481201 12.81286133 -0.24212402 13.93994141 -0.27026367 C20.35708143 -0.32500537 25.0537787 0.15198607 29.875 4.8125 C31.41542833 7.80777732 31.47570543 9.670062 31 13 C29 15.875 29 15.875 27 18 C27.804375 18.66 28.60875 19.32 29.4375 20 C32.83816688 23.98126854 33 25.80422865 33 31 C31.42669516 34.7262483 29.44883864 36.90979476 26 39 C22.8840911 39.98816656 20.05503588 40.11659905 16.796875 40.09765625 C15.91354492 40.09515869 15.03021484 40.09266113 14.12011719 40.09008789 C13.00797852 40.08098389 11.89583984 40.07187988 10.75 40.0625 C7.2025 40.041875 3.655 40.02125 0 40 C0 26.8 0 13.6 0 0 Z M11 9 C11 10.98 11 12.96 11 15 C13.31 15 15.62 15 18 15 C18.38218767 13.34385343 18.71395102 11.67542976 19 10 C17.81575674 8.58422523 17.81575674 8.58422523 14.4375 8.9375 C12.7359375 8.9684375 12.7359375 8.9684375 11 9 Z M11 23 C11 25.64 11 28.28 11 31 C15.455 30.505 15.455 30.505 20 30 C20.33 28.68 20.66 27.36 21 26 C18.44931155 23.64551835 17.28982642 23.01672076 13.75 22.8125 C12.38875 22.9053125 12.38875 22.9053125 11 23 Z " fill="#242021" transform="translate(351,169)"/>
<path d="M0 0 C3.96 0 7.92 0 12 0 C12.33 4.62 12.66 9.24 13 14 C13.55945313 12.989375 14.11890625 11.97875 14.6953125 10.9375 C19.50977384 2.91612126 19.50977384 2.91612126 23 0 C27.8818653 -1.20029333 32.08133479 -0.89301414 37 0 C35.44301719 4.90543378 32.56676327 8.37950236 29.375 12.3125 C28.6015625 13.28026367 28.6015625 13.28026367 27.8125 14.26757812 C26.54705818 15.8493804 25.27425738 17.42529063 24 19 C27.17682787 23.96564916 30.7457459 28.34911088 34.640625 32.76367188 C38 36.67794364 38 36.67794364 38 40 C33.07691591 40.90555999 28.89124475 41.18184391 24 40 C19.30379157 36.29724558 16.13487518 31.01580029 13 26 C12.67 30.62 12.34 35.24 12 40 C8.04 40 4.08 40 0 40 C0 26.8 0 13.6 0 0 Z " fill="#252122" transform="translate(478,169)"/>
<path d="M0 0 C4.95 0 9.9 0 15 0 C18.51217183 8.27824516 21.77255057 16.60021149 24.8125 25.0625 C25.42254883 26.7321582 25.42254883 26.7321582 26.04492188 28.43554688 C26.42841797 29.49966797 26.81191406 30.56378906 27.20703125 31.66015625 C27.5522583 32.61543213 27.89748535 33.57070801 28.25317383 34.55493164 C29 37 29 37 29 40 C25.04 40 21.08 40 17 40 C15 36 15 36 15 33 C10.05 33 5.1 33 0 33 C-0.33 34.98 -0.66 36.96 -1 39 C-2 40 -2 40 -4.72265625 40.09765625 C-5.82480469 40.08605469 -6.92695313 40.07445312 -8.0625 40.0625 C-9.16722656 40.05347656 -10.27195312 40.04445312 -11.41015625 40.03515625 C-12.69212891 40.01775391 -12.69212891 40.01775391 -14 40 C-13.38375548 36.57641931 -12.52539301 33.42058504 -11.328125 30.15625 C-10.99554688 29.24504395 -10.66296875 28.33383789 -10.3203125 27.39501953 C-9.79050781 25.96198486 -9.79050781 25.96198486 -9.25 24.5 C-8.89164062 23.52272949 -8.53328125 22.54545898 -8.1640625 21.53857422 C-5.5131765 14.33088194 -2.79193659 7.15433751 0 0 Z M7 10 C6.32968281 11.9570868 5.66385317 13.91571113 5 15.875 C4.62875 16.96554688 4.2575 18.05609375 3.875 19.1796875 C2.901228 21.82620854 2.901228 21.82620854 3 24 C5.97 24 8.94 24 12 24 C11.54857225 22.22739369 11.08859477 20.4569632 10.625 18.6875 C10.24214844 17.20830078 10.24214844 17.20830078 9.8515625 15.69921875 C9.08086826 12.8194184 9.08086826 12.8194184 7 10 Z " fill="#252122" transform="translate(398,169)"/>
<path d="M0 0 C8.91 0 17.82 0 27 0 C27 2.97 27 5.94 27 9 C26 10 26 10 22.83984375 10.09765625 C20.90818359 10.08025391 20.90818359 10.08025391 18.9375 10.0625 C17.64714844 10.05347656 16.35679688 10.04445312 15.02734375 10.03515625 C14.02832031 10.02355469 13.02929688 10.01195312 12 10 C12 11.65 12 13.3 12 15 C16.62 15 21.24 15 26 15 C26 18.3 26 21.6 26 25 C21.38 25 16.76 25 12 25 C12 26.65 12 28.3 12 30 C16.95 30 21.9 30 27 30 C27.09765625 36.93359375 27.09765625 36.93359375 27 39 C26 40 26 40 23.49975586 40.11352539 C22.41573486 40.10828857 21.33171387 40.10305176 20.21484375 40.09765625 C19.16159912 40.09515869 18.10835449 40.09266113 17.02319336 40.09008789 C15.67491455 40.08098389 14.32663574 40.07187988 12.9375 40.0625 C8.668125 40.041875 4.39875 40.02125 0 40 C0 26.8 0 13.6 0 0 Z " fill="#E1282C" transform="translate(102,169)"/>
<path d="M0 0 C1.00804687 -0.00515625 2.01609375 -0.0103125 3.0546875 -0.015625 C6.125 0.25 6.125 0.25 12.125 2.25 C12.125 6.54 12.125 10.83 12.125 15.25 C10.805 14.59 9.485 13.93 8.125 13.25 C3.82919729 11.78959789 -0.54671184 10.3404611 -4.875 12.25 C-7.32793592 16.10461359 -7.73477477 20.80783035 -6.875 25.25 C-4.97850449 28.39658666 -4.97850449 28.39658666 -1.875 30.25 C3.21999023 30.97785575 5.9424687 30.11802146 10.125 27.25 C10.785 27.25 11.445 27.25 12.125 27.25 C12.125 31.21 12.125 35.17 12.125 39.25 C5.75376858 41.98052775 0.32368466 43.75458225 -6.42578125 41.3359375 C-13.07094938 38.28408251 -17.10104882 35.13579782 -20.1875 28.375 C-21.67466836 21.61514383 -21.51198438 15.26362764 -17.875 9.25 C-12.60365288 3.55336372 -7.90959032 -0.04025237 0 0 Z " fill="#E0262B" transform="translate(152.875,167.75)"/>
<path d="M0 0 C0.495 6.435 0.495 6.435 1 13 C0.01 13 -0.98 13 -2 13 C-2.680625 12.2884375 -2.680625 12.2884375 -3.375 11.5625 C-5.60360848 9.41960723 -6.91168481 9.14037796 -10 9 C-14.86255628 10.42291136 -14.86255628 10.42291136 -18 14 C-18.09585131 15.64356807 -18.12983511 17.29114642 -18.125 18.9375 C-18.12757813 19.81277344 -18.13015625 20.68804687 -18.1328125 21.58984375 C-18.09822003 24.14459056 -18.09822003 24.14459056 -17 27 C-13.42365687 28.19211438 -10.75935317 28.25926574 -7 28 C-5.31008021 27.0398183 -3.63790712 26.04644066 -2 25 C-1.01 25.33 -0.02 25.66 1 26 C0.67 29.63 0.34 33.26 0 37 C-6.94069998 39.92239999 -12.206354 41.27676878 -19.5 38.5 C-24.49572946 36.11334158 -27.87829628 32.52461224 -31 28 C-33.06185331 21.81444008 -33.09729467 14.46260471 -30.3125 8.5 C-28.37377674 5.21437427 -26.23606455 3.08032721 -23 1 C-22.13375 0.4225 -21.2675 -0.155 -20.375 -0.75 C-13.27933577 -3.37802379 -7.05000129 -2.35000043 0 0 Z " fill="#E0262B" transform="translate(245,170)"/>
<path d="M0 0 C9.9 0 19.8 0 30 0 C30 3.3 30 6.6 30 10 C27.03 10 24.06 10 21 10 C21.00785522 11.30988892 21.00785522 11.30988892 21.01586914 12.64624023 C21.03287751 15.87589273 21.04543369 19.10552245 21.05493164 22.33520508 C21.0599708 23.73495228 21.06680216 25.1346942 21.07543945 26.53442383 C21.0875232 28.54245777 21.09269807 30.55052957 21.09765625 32.55859375 C21.10551147 34.37315063 21.10551147 34.37315063 21.11352539 36.22436523 C21 39 21 39 20 40 C18.16884117 40.09851171 16.33380067 40.12972629 14.5 40.125 C13.4996875 40.12757813 12.499375 40.13015625 11.46875 40.1328125 C9 40 9 40 8 39 C7.91224395 36.85441173 7.89304781 34.70595579 7.90234375 32.55859375 C7.90556641 31.25341797 7.90878906 29.94824219 7.91210938 28.60351562 C7.92046599 27.2148431 7.92893095 25.82617123 7.9375 24.4375 C7.94251334 23.04492344 7.94707653 21.65234519 7.95117188 20.25976562 C7.96300566 16.8398013 7.9794912 13.41992156 8 10 C5.36 10 2.72 10 0 10 C0 6.7 0 3.4 0 0 Z " fill="#E12B2F" transform="translate(68,169)"/>
<path d="M0 0 C3.04248532 2.68870796 4.40358379 4.52325136 5.6875 8.375 C5.6875 14.45932021 3.76856025 17.1944017 -0.3125 21.375 C-4.00185692 23.21967846 -8.27685342 22.72509552 -12.3125 22.375 C-15.55107278 21.06578973 -16.91506422 19.85466387 -19.125 17.1875 C-20.68796015 13.48575227 -21.24154786 10.27552635 -20.3125 6.375 C-15.58376414 -1.37239429 -8.39345943 -4.11754613 0 0 Z M-12.3125 2.375 C-11.013125 2.519375 -9.71375 2.66375 -8.375 2.8125 C-4.4375 3.25 -4.4375 3.25 -3.3125 4.375 C-3.16613946 7.74129251 -3.24056521 10.15919562 -4.3125 13.375 C-3.43335312 16.0319191 -3.43335312 16.0319191 -2.3125 18.375 C0.71044792 17.69726864 0.71044792 17.69726864 1.875 15.6875 C2.93548545 12.66919526 3.07739322 10.55912795 2.6875 7.375 C0.59429931 3.69096678 -0.87208517 2.55588466 -4.8125 0.9375 C-8.33322225 0.37166964 -9.48343413 0.33807257 -12.3125 2.375 Z M-13.3125 2.375 C-16.18903936 5.25153936 -17.24814189 6.85094112 -17.75 10.9375 C-17.30179043 14.45914659 -16.84554505 15.93937976 -14.3125 18.375 C-13.6525 18.375 -12.9925 18.375 -12.3125 18.375 C-12.3125 13.095 -12.3125 7.815 -12.3125 2.375 C-12.6425 2.375 -12.9725 2.375 -13.3125 2.375 Z M-9.3125 5.375 C-9.3125 6.695 -9.3125 8.015 -9.3125 9.375 C-7.9925 9.375 -6.6725 9.375 -5.3125 9.375 C-5.3125 8.055 -5.3125 6.735 -5.3125 5.375 C-6.6325 5.375 -7.9525 5.375 -9.3125 5.375 Z M-9.3125 12.375 C-9.6425 15.015 -9.9725 17.655 -10.3125 20.375 C-8.3325 20.375 -6.3525 20.375 -4.3125 20.375 C-5.61405006 16.29535719 -5.61405006 16.29535719 -7.3125 12.375 C-7.9725 12.375 -8.6325 12.375 -9.3125 12.375 Z " fill="#F37063" transform="translate(385.3125,115.625)"/>
<path d="M0 0 C3.01319894 1.03903412 4.00046911 2.00069557 5.8125 4.6875 C7.23944884 8.66793623 7.07360679 10.93563145 6 15 C4.4375 16.9375 4.4375 16.9375 3 18 C2.67 17.01 2.34 16.02 2 15 C2.33 14.34 2.66 13.68 3 13 C3.39815041 8.4212703 2.89645477 6.49988285 0 3 C0 2.01 0 1.02 0 0 Z " fill="#F26458" transform="translate(384,116)"/>
<path d="M0 0 C0.33 1.32 0.66 2.64 1 4 C1.99 4 2.98 4 4 4 C4 4.99 4 5.98 4 7 C3.01 7 2.02 7 1 7 C1 8.98 1 10.96 1 13 C0.34 13 -0.32 13 -1 13 C-1.02686553 11.02090602 -1.04633375 9.04171029 -1.0625 7.0625 C-1.07410156 5.96035156 -1.08570313 4.85820313 -1.09765625 3.72265625 C-1 1 -1 1 0 0 Z " fill="#EE272C" transform="translate(375,121)"/>
<path d="M0 0 C0.66 0 1.32 0 2 0 C0.25 3.875 0.25 3.875 -2 5 C-3.70702735 5.06996014 -5.41668003 5.08440154 -7.125 5.0625 C-8.03507812 5.05347656 -8.94515625 5.04445312 -9.8828125 5.03515625 C-10.58148438 5.02355469 -11.28015625 5.01195312 -12 5 C-11.67 4.01 -11.34 3.02 -11 2 C-10.06027344 2.03480469 -10.06027344 2.03480469 -9.1015625 2.0703125 C-7.87566406 2.09738281 -7.87566406 2.09738281 -6.625 2.125 C-5.40683594 2.15980469 -5.40683594 2.15980469 -4.1640625 2.1953125 C-1.78657757 2.21370051 -1.78657757 2.21370051 0 0 Z " fill="#F15148" transform="translate(385,133)"/>
<path d="M0 0 C0.66 0 1.32 0 2 0 C2 0.66 2 1.32 2 2 C3.32 2.33 4.64 2.66 6 3 C4.68 3.33 3.36 3.66 2 4 C1.67 7.96 1.34 11.92 1 16 C1.66 16.33 2.32 16.66 3 17 C2.01 17.33 1.02 17.66 0 18 C-1.60670684 14.78658631 -0.82510855 11.37041032 -0.5625 7.875 C-0.51029297 7.12089844 -0.45808594 6.36679688 -0.40429688 5.58984375 C-0.27454996 3.7262063 -0.13792512 1.86305004 0 0 Z " fill="#F57B72" transform="translate(373,118)"/>
<path d="M0 0 C0.66 0 1.32 0 2 0 C2 0.66 2 1.32 2 2 C5.3 2 8.6 2 12 2 C12 2.66 12 3.32 12 4 C8.37 4 4.74 4 1 4 C0.67 2.68 0.34 1.36 0 0 Z " fill="#E33437" transform="translate(334,205)"/>
<path d="M0 0 C7.75 -0.125 7.75 -0.125 10 1 C10 1.99 10 2.98 10 4 C6.7 3.34 3.4 2.68 0 2 C0 1.34 0 0.68 0 0 Z " fill="#F15349" transform="translate(374,114)"/>
<path d="M0 0 C-0.33 2.97 -0.66 5.94 -1 9 C-1.66 9 -2.32 9 -3 9 C-3 6.36 -3 3.72 -3 1 C-1 0 -1 0 0 0 Z " fill="#F25D54" transform="translate(368,121)"/>
<path d="M0 0 C1.98 0 3.96 0 6 0 C6.33 2.31 6.66 4.62 7 7 C6.5875 6.360625 6.175 5.72125 5.75 5.0625 C3.82189513 2.79009069 2.88575819 2.39803561 0 2 C0 1.34 0 0.68 0 0 Z " fill="#EE302C" transform="translate(375,118)"/>
<path d="M0 0 C0.66 0 1.32 0 2 0 C2.66 1.98 3.32 3.96 4 6 C3.01 6.33 2.02 6.66 1 7 C0.67 4.69 0.34 2.38 0 0 Z " fill="#F36E62" transform="translate(380,129)"/>
<path d="M0 0 C1.9375 0.8125 1.9375 0.8125 4 2 C4.33 2.99 4.66 3.98 5 5 C4.34 5.66 3.68 6.32 3 7 C0 3.375 0 3.375 0 0 Z " fill="#F37367" transform="translate(384,116)"/>
</svg>
