<?xml version="1.0" standalone="no"?>
<!DOCTYPE svg PUBLIC "-//W3C//DTD SVG 20010904//EN"
 "http://www.w3.org/TR/2001/REC-SVG-20010904/DTD/svg10.dtd">
<svg version="1.0" xmlns="http://www.w3.org/2000/svg"
 width="3000.000000pt" height="2000.000000pt" viewBox="0 0 3000.000000 2000.000000"
 preserveAspectRatio="xMidYMid meet">

<g transform="translate(0.000000,2000.000000) scale(0.100000,-0.100000)"
fill="#000000" stroke="none">
<path d="M15678 12996 c-174 -61 -312 -224 -386 -452 -76 -233 -74 -621 4
-974 137 -613 495 -1242 989 -1735 135 -135 263 -245 450 -384 61 -46 110 -86
110 -89 0 -19 -49 -122 -58 -122 -32 0 -412 270 -582 414 -246 208 -509 492
-671 723 -269 384 -470 831 -520 1155 l-17 111 -66 -7 c-85 -8 -156 -43 -219
-109 -98 -104 -143 -238 -143 -427 -1 -183 38 -336 131 -522 120 -240 306
-456 611 -710 356 -296 603 -439 1184 -688 175 -75 251 -113 253 -125 2 -10 1
-38 -3 -63 l-7 -45 -57 6 c-83 9 -310 70 -511 137 -419 140 -802 332 -1083
543 -139 104 -330 290 -432 420 l-69 88 -37 -37 c-108 -106 -148 -336 -89
-525 98 -319 605 -631 1214 -748 237 -46 714 -77 941 -62 72 4 132 7 134 5 5
-5 32 -137 28 -141 -7 -7 -200 -41 -322 -58 -66 -9 -205 -19 -310 -22 -298 -9
-534 18 -839 97 -211 54 -309 91 -475 176 -88 45 -148 71 -154 65 -15 -15 -25
-132 -16 -203 17 -137 68 -239 168 -338 154 -153 385 -224 721 -224 342 0 578
55 1088 254 117 46 214 81 215 79 2 -2 17 -27 34 -56 l32 -52 -40 -36 c-145
-131 -564 -316 -884 -391 -150 -35 -373 -43 -574 -20 -79 9 -148 16 -154 16
-18 0 1 -100 32 -166 59 -126 173 -209 323 -234 113 -19 289 -8 428 28 288 75
471 192 807 517 l163 157 45 -38 45 -37 -37 -68 c-52 -93 -130 -185 -243 -286
-260 -234 -527 -390 -750 -439 -139 -31 -127 -25 -119 -59 31 -115 214 -193
389 -166 310 48 570 296 827 789 36 70 67 128 69 130 3 4 104 -47 104 -53 0
-2 -16 -51 -35 -110 -72 -221 -210 -442 -384 -615 -89 -89 -133 -125 -189
-154 -85 -44 -85 -55 0 -102 48 -26 61 -29 148 -29 86 0 101 3 164 33 99 46
179 132 239 253 61 125 90 222 139 468 23 113 44 209 47 213 4 4 29 2 56 -5
l50 -12 6 -80 c12 -143 -12 -348 -57 -490 -21 -63 -88 -200 -120 -242 -40 -53
-35 -56 84 -52 93 4 115 8 165 32 70 35 121 97 144 176 13 45 15 84 9 211 -3
85 -9 170 -12 188 l-6 32 47 0 c109 0 431 83 577 149 334 150 566 434 703 857
l45 141 47 7 c59 8 93 38 93 82 0 50 -15 80 -77 152 -79 94 -94 136 -77 221 5
26 16 36 50 53 52 24 94 70 94 103 0 48 -25 77 -121 141 -106 71 -141 113
-186 224 -26 64 -40 193 -29 253 10 55 31 61 129 41 100 -20 166 -14 218 21
63 41 109 157 109 274 l0 49 -62 -26 c-95 -38 -156 -40 -222 -8 -117 57 -152
159 -107 307 49 155 165 250 306 250 102 0 142 -30 171 -128 9 -29 19 -53 24
-53 4 0 35 30 69 66 90 98 148 258 122 337 -10 29 -9 42 4 72 22 54 19 88 -10
115 -22 21 -35 23 -143 25 -135 3 -199 18 -306 72 -39 19 -73 37 -75 39 -2 2
2 32 9 67 12 57 11 66 -5 90 -22 34 -123 101 -235 157 -196 98 -354 227 -402
329 -19 41 -29 51 -55 57 -17 3 -47 1 -67 -6 -37 -12 -106 -80 -106 -105 0
-21 -7 -19 -43 11 -50 42 -133 78 -316 138 -96 32 -204 71 -239 87 -47 21 -69
26 -82 19 -51 -27 -106 -134 -98 -190 3 -16 4 -30 3 -30 -2 0 -22 7 -45 15
-55 20 -162 19 -302 -1 -119 -18 -325 -24 -369 -12 -26 8 -27 7 -44 -77 -18
-84 -15 -151 10 -207 6 -16 0 -18 -71 -18 -44 0 -135 -9 -204 -20 -69 -11
-153 -20 -187 -20 l-62 0 -11 -57 c-22 -104 -2 -175 86 -310 l53 -82 -38 -11
c-35 -9 -137 -30 -149 -30 -12 0 14 -161 50 -305 95 -383 213 -657 409 -956
77 -116 192 -274 231 -315 l30 -32 83 63 c207 157 381 224 625 244 228 19 433
-23 620 -126 269 -148 460 -385 544 -676 36 -125 46 -194 46 -335 0 -439 -227
-812 -602 -990 -121 -58 -330 -112 -431 -112 l-46 0 -6 48 c-4 26 -7 54 -8 62
-2 12 16 16 83 22 112 9 168 23 270 66 117 49 201 105 296 198 100 99 152 167
202 269 79 159 108 305 99 499 -22 459 -327 811 -791 912 -98 22 -298 21 -401
0 -175 -38 -346 -129 -478 -255 l-78 -75 -37 20 c-123 65 -334 327 -507 628
-201 352 -320 646 -385 952 -71 338 -104 661 -104 1024 -1 298 6 373 56 622
25 128 28 160 18 173 -20 24 -136 55 -204 55 -38 0 -86 -9 -128 -24z m2471
-1169 c41 -21 93 -88 79 -102 -3 -3 -30 1 -59 9 -80 24 -113 21 -147 -14 -39
-39 -46 -73 -27 -135 8 -28 15 -51 15 -52 0 -8 -35 -1 -59 12 -39 20 -71 89
-71 152 0 41 5 58 27 84 57 68 163 88 242 46z m971 -334 c0 -23 -78 -163 -90
-163 -10 0 -92 96 -109 128 -11 21 -10 22 36 23 26 0 71 7 98 14 68 17 65 17
65 -2z"/>
<path d="M23987 11635 c-96 -18 -236 -70 -313 -116 -74 -44 -174 -137 -213
-198 -46 -71 -66 -163 -52 -233 21 -97 89 -174 202 -228 103 -48 192 -63 338
-57 157 6 253 30 390 98 85 42 118 65 182 128 96 94 131 163 137 264 4 60 1
75 -27 132 -47 95 -140 162 -277 200 -85 23 -271 28 -367 10z"/>
<path d="M7570 11608 c-277 -27 -529 -176 -622 -366 -30 -63 -37 -176 -13
-238 36 -95 157 -182 305 -221 144 -38 372 -18 535 47 160 63 297 174 360 290
27 49 30 64 30 145 0 106 -14 143 -82 209 -106 105 -300 156 -513 134z"/>
<path d="M4243 11375 c-17 -7 -39 -25 -48 -38 -32 -49 -672 -1890 -700 -2013
-34 -149 -39 -323 -11 -424 67 -247 213 -393 461 -462 79 -22 86 -23 945 -26
l866 -3 34 23 c43 29 73 81 104 178 13 41 67 210 120 374 60 187 96 315 96
342 0 78 32 74 -628 74 -630 0 -609 -2 -661 54 -31 32 -40 123 -20 194 7 26
136 409 286 851 150 443 273 812 273 821 0 10 -9 29 -21 44 l-20 26 -522 0
c-421 -1 -528 -3 -554 -15z"/>
<path d="M21420 10804 c-276 -28 -538 -119 -752 -264 -167 -113 -389 -333
-487 -481 -81 -123 -220 -401 -255 -511 -66 -209 -88 -406 -62 -557 33 -189
87 -303 194 -414 114 -117 224 -157 435 -157 143 0 211 17 345 84 192 97 338
226 422 371 39 69 83 175 76 182 -1 2 -29 -7 -62 -18 -203 -72 -326 -77 -414
-16 -91 62 -121 152 -101 306 31 247 132 471 284 636 126 137 229 197 359 211
174 18 277 -60 278 -208 0 -65 -8 -92 -254 -898 -97 -316 -175 -586 -174 -600
l3 -25 510 -3 c358 -1 518 1 537 9 18 7 32 25 43 53 31 84 645 2061 645 2077
0 9 -7 20 -16 23 -9 3 -97 6 -197 6 -218 0 -267 7 -450 66 -170 55 -317 90
-452 110 -104 15 -376 25 -455 18z"/>
<path d="M9365 10634 c-520 -79 -1054 -380 -1308 -736 -153 -215 -227 -427
-227 -653 0 -136 20 -226 77 -344 38 -79 59 -108 131 -181 210 -210 526 -330
872 -330 548 0 1062 216 1440 606 234 242 363 505 377 764 22 434 -315 778
-852 870 -139 24 -370 26 -510 4z m200 -785 c42 -16 77 -40 116 -79 69 -69 89
-131 70 -220 -26 -122 -125 -232 -276 -305 -108 -52 -205 -75 -317 -75 -214 0
-338 94 -338 255 0 55 23 137 54 189 60 102 212 207 358 246 100 27 247 22
333 -11z"/>
<path d="M25920 10643 c-30 -2 -143 -15 -250 -29 -215 -29 -370 -33 -700 -20
l-195 8 -323 -1043 c-178 -574 -325 -1052 -328 -1061 -3 -9 4 -26 15 -37 21
-21 30 -21 507 -21 429 0 490 2 520 16 19 9 39 24 44 33 4 9 77 253 160 541
83 289 160 544 170 567 61 139 268 226 426 178 27 -8 54 -15 60 -15 7 0 115
125 240 277 126 153 239 289 251 303 l22 27 -23 49 c-29 61 -110 138 -179 169
-97 45 -265 68 -417 58z"/>
<path d="M12490 10624 c-58 -8 -188 -35 -290 -60 -250 -62 -305 -65 -496 -25
-124 25 -175 31 -280 31 l-130 0 -322 -1028 c-177 -565 -322 -1036 -322 -1045
0 -10 11 -29 25 -42 l24 -25 473 0 c468 0 532 4 557 34 7 8 93 290 192 628 99
337 188 624 198 638 26 36 96 49 301 56 166 5 177 5 208 -15 18 -12 37 -33 42
-47 26 -66 14 -116 -160 -668 -103 -325 -170 -552 -168 -571 5 -54 8 -55 536
-55 392 0 489 3 516 14 40 17 16 -52 226 641 197 649 209 711 175 940 -17 113
-53 196 -134 306 -102 138 -328 265 -532 298 -92 15 -513 12 -639 -5z"/>
<path d="M23363 10600 c-12 -5 -26 -17 -31 -27 -11 -21 -642 -2077 -642 -2091
0 -6 7 -18 16 -26 14 -14 75 -16 529 -16 449 0 516 2 529 15 8 9 33 73 55 143
202 642 611 1969 611 1979 0 7 -9 17 -19 23 -24 13 -1016 13 -1048 0z"/>
<path d="M6893 10553 c-56 -11 -56 -13 -376 -1049 -169 -550 -307 -1009 -307
-1021 0 -53 5 -53 527 -53 289 0 492 4 507 10 15 5 33 24 41 42 30 66 635
1997 635 2027 0 25 -6 34 -26 41 -24 10 -953 12 -1001 3z"/>
</g>
</svg>
