<?xml version="1.0" encoding="UTF-8"?>
<svg version="1.1" xmlns="http://www.w3.org/2000/svg" width="960" height="960">
<path d="M0 0 C0.98334981 -0.00205263 1.96669962 -0.00410527 2.97984791 -0.0062201 C6.27097003 -0.01186912 9.56205002 -0.01043544 12.85317612 -0.00901413 C15.23836177 -0.01159898 17.62354698 -0.01461247 20.0087316 -0.01801753 C25.87412273 -0.02523229 31.7395054 -0.02778949 37.60489993 -0.02834659 C44.63333328 -0.0292624 51.66175827 -0.03593644 58.69018801 -0.04269341 C75.67693188 -0.05873467 92.66367483 -0.06465488 109.65042491 -0.06944216 C117.69197507 -0.07178031 125.73352453 -0.07538324 133.77507413 -0.07913754 C161.3207517 -0.09197232 188.86642888 -0.10269082 216.41210938 -0.10614014 C218.140509 -0.10636177 219.86890863 -0.10658355 221.59730826 -0.10680549 C223.32980552 -0.10702613 225.06230278 -0.10724661 226.79480004 -0.10746694 C230.27029308 -0.10790948 233.74578611 -0.1083566 237.22127914 -0.10880661 C238.08299599 -0.108916 238.94471283 -0.10902539 239.83254231 -0.1091381 C267.75667095 -0.11276653 295.68077359 -0.12867889 323.60489227 -0.15199697 C353.15133454 -0.1766245 382.69776195 -0.19031436 412.24421477 -0.19150805 C415.49134811 -0.1916795 418.73848144 -0.19189492 421.98561478 -0.19214249 C422.78510767 -0.19219826 423.58460056 -0.19225402 424.40832051 -0.19231148 C437.24375615 -0.19345948 450.07916501 -0.20446017 462.91459162 -0.21902954 C475.83097815 -0.23343659 488.74733054 -0.23660789 501.6637229 -0.22858956 C509.32455322 -0.22415284 516.98527292 -0.22791488 524.64608857 -0.24382807 C530.38577235 -0.25481029 536.1253588 -0.24987569 541.86503884 -0.2390562 C544.1726667 -0.23710862 546.48030586 -0.24013368 548.78791788 -0.24890056 C602.87259787 -0.44121026 655.22410553 18.75525173 694.36727524 56.65681839 C695.42372937 57.67777566 696.48704831 58.69165921 697.5557518 59.69978714 C711.73668012 73.08511221 723.13557832 88.27482638 732.89315414 105.13142776 C733.27955063 105.79577835 733.66594711 106.46012894 734.06405258 107.14461136 C752.87419055 139.91650723 760.56103804 176.5695701 760.40108871 214.06453323 C760.40571141 216.46892993 760.41207341 218.87332379 760.41999769 221.27771187 C760.43480512 227.12870865 760.43140594 232.97948544 760.41979463 238.83048465 C760.40691144 245.85471164 760.41755414 252.87885801 760.42864228 259.90308112 C760.4495957 273.66131415 760.44792369 287.41947241 760.43632663 301.17771238 C760.42622826 313.21842414 760.42365436 325.25910863 760.42841721 337.29982376 C760.42887552 338.50208459 760.42887552 338.50208459 760.42934309 339.72863351 C760.43058862 342.98295297 760.43186224 346.23727243 760.43318214 349.49159186 C760.44539326 379.9632034 760.4343639 410.43476758 760.41279455 440.9063718 C760.3938149 467.9247752 760.39551353 494.94310315 760.41463852 521.96150589 C760.4360992 552.38061363 760.44452694 582.7996796 760.43218946 613.21879387 C760.43090677 616.46687316 760.4296554 619.71495246 760.42841721 622.96303177 C760.4281009 623.76267726 760.42778459 624.56232276 760.42745869 625.38619994 C760.42292617 637.41357176 760.42819734 649.44091319 760.43833542 661.46828079 C760.44981649 675.15639992 760.44681991 688.84443321 760.42521244 702.53254175 C760.41456358 709.50682706 760.40996858 716.48097359 760.42380905 723.45525742 C760.43584191 729.85567016 760.42899298 736.25579101 760.40789884 742.65617776 C760.40347851 744.95531882 760.40559419 747.25448522 760.415402 749.55360961 C760.62657889 803.22970075 740.90644738 855.83714949 703.36776352 894.60554886 C702.34680625 895.66200299 701.3329227 896.72532193 700.32479477 897.79402542 C686.9394697 911.97495375 671.74975553 923.37385194 654.89315414 933.13142776 C654.22880356 933.51782425 653.56445297 933.90422073 652.87997055 934.3023262 C619.76373086 953.31010775 582.79812004 960.80179242 544.92245102 960.63936234 C542.52615355 960.64398593 540.12985893 960.65034852 537.7335701 960.65827131 C531.90645479 960.67306843 526.07956052 960.66968582 520.25244281 960.65806825 C513.25594574 960.64517694 506.25952944 960.65583142 499.26303625 960.6669159 C485.55938023 960.68786225 471.8557993 960.68620018 458.15213633 960.67460025 C446.15914403 960.66449942 434.16617912 960.66192911 422.17318344 960.66669083 C420.97540245 960.66714914 420.97540245 960.66714914 419.75342387 960.66761671 C416.51118085 960.66886226 413.26893785 960.67013588 410.02669486 960.67145576 C379.67194748 960.6836652 349.31724764 960.6726402 318.96250761 960.65106817 C292.05134348 960.63208871 265.1402551 960.63378734 238.22909164 960.65291214 C207.9264294 960.67437568 177.62380909 960.68279898 147.32114029 960.67046309 C144.08513515 960.6691804 140.84913 960.66792903 137.61312485 960.66669083 C136.41812694 960.66621636 136.41812694 960.66621636 135.19898766 960.66573231 C123.21967155 960.66120096 111.24038595 960.66646875 99.26107407 960.67660904 C85.62680642 960.68809337 71.99262495 960.68508669 58.35836792 960.66348606 C51.41230531 960.65284159 44.46638199 960.64823426 37.52032089 960.66208267 C31.1445677 960.67412447 24.76910732 960.66725238 18.39338017 960.64617246 C16.10434536 960.64175583 13.81528507 960.64385914 11.52626705 960.65367562 C-12.04377204 960.74689032 -34.70576316 957.56854944 -57.10684586 950.13142776 C-57.81454117 949.89697952 -58.52223648 949.66253128 -59.25137711 949.42097855 C-87.42122122 939.88066566 -113.20589056 924.3031061 -134.58096695 903.60603714 C-135.63742108 902.58507987 -136.70074002 901.57119632 -137.76944351 900.56306839 C-151.95037184 887.17774332 -163.34927003 871.98802915 -173.10684586 855.13142776 C-173.49324234 854.46707718 -173.87963882 853.80272659 -174.27774429 853.11824417 C-193.08788227 820.3463483 -200.77472975 783.69328543 -200.61478043 746.1983223 C-200.61940312 743.7939256 -200.62576512 741.38953174 -200.6336894 738.98514366 C-200.64849683 733.13414688 -200.64509765 727.28337009 -200.63348634 721.43237088 C-200.62060315 714.40814389 -200.63124585 707.38399752 -200.64233399 700.35977441 C-200.66328741 686.60154138 -200.6616154 672.84338311 -200.65001834 659.08514315 C-200.63991997 647.04443139 -200.63734607 635.0037469 -200.64210892 622.96303177 C-200.64241446 622.16152455 -200.64272 621.36001734 -200.6430348 620.53422202 C-200.64428034 617.27990256 -200.64555396 614.0255831 -200.64687385 610.77126367 C-200.65908497 580.29965213 -200.64805561 549.82808795 -200.62648626 519.35648373 C-200.60750661 492.33808033 -200.60920524 465.31975238 -200.62833023 438.30134964 C-200.64979091 407.8822419 -200.65821865 377.46317593 -200.64588118 347.04406166 C-200.64459848 343.79598237 -200.64334711 340.54790307 -200.64210892 337.29982376 C-200.64179261 336.50017827 -200.6414763 335.70053277 -200.6411504 334.87665559 C-200.63661788 322.84928377 -200.64188905 310.82194234 -200.65202713 298.79457474 C-200.6635082 285.10645561 -200.66051162 271.41842232 -200.63890415 257.73031378 C-200.6282553 250.75602847 -200.62366029 243.78188194 -200.63750076 236.80759811 C-200.64953362 230.40718537 -200.6426847 224.00706452 -200.62159055 217.60667777 C-200.61717023 215.30753671 -200.6192859 213.00837031 -200.62909371 210.70924592 C-200.8402706 157.03315478 -181.12013909 104.42570604 -143.58145523 65.65730667 C-142.56049796 64.60085254 -141.54661441 63.5375336 -140.53848648 62.46883011 C-127.15316141 48.28790178 -111.96344724 36.88900359 -95.10684586 27.13142776 C-94.44249527 26.74503128 -93.77814468 26.3586348 -93.09366226 25.96052933 C-65.33664796 10.02879103 -32.11488793 -0.06307912 0 0 Z " fill="#000000" transform="translate(200.1068458557129,-0.13142776489257813)"/>
<path d="M0 0 C43.89 0 87.78 0 133 0 C133.66 8.58 134.32 17.16 135 26 C138.61521645 57.50402909 151.49454172 87.97655024 171 113 C171.680625 113.90234375 172.36125 114.8046875 173.0625 115.734375 C199.81992225 149.99198379 238.97011208 173.04939242 281 183 C281.65887207 183.15839355 282.31774414 183.31678711 282.99658203 183.47998047 C294.75934476 186.22354225 305.71942729 186.41521082 318 187 C318 230.56 318 274.12 318 319 C306.07099362 319 294.85791658 318.73751969 283.125 317.25 C282.38953949 317.15974548 281.65407898 317.06949097 280.89633179 316.97650146 C269.138403 315.53064746 257.52565231 313.76784255 246 311 C245.1140918 310.79149414 244.22818359 310.58298828 243.31542969 310.36816406 C207.84737541 301.91521028 174.16381722 288.05069905 143.890625 267.64453125 C142.9330127 267.00245728 141.97540039 266.3603833 140.98876953 265.69885254 C138.65742034 264.13516046 136.32788051 262.56884914 134 261 C134.00113916 261.5893264 134.00227832 262.17865281 134.003452 262.78583759 C134.0707807 297.8175281 134.12215744 332.84920736 134.15319599 367.88094926 C134.15694751 372.09975078 134.16083054 376.31855218 134.16479492 380.53735352 C134.16558185 381.37713974 134.16636878 382.21692595 134.16717956 383.08216024 C134.18018624 396.62883087 134.20381357 410.17546279 134.23145839 423.72211056 C134.25964517 437.65189173 134.27620411 451.58165281 134.28226548 465.51146132 C134.28635461 474.08705465 134.29920573 482.66253851 134.3237494 491.23809809 C134.33977106 497.14158269 134.34436383 503.04501179 134.34050413 508.94851648 C134.33860769 512.34000142 134.3429458 515.73114626 134.35761642 519.12262154 C134.62520796 584.24683803 114.82123363 648.24902906 70.0703125 696.7421875 C68.21571134 698.76475254 66.44964839 700.83483984 64.6875 702.9375 C56.00054354 712.85975761 45.52403456 721.12516543 35 729 C34.34370605 729.49145508 33.68741211 729.98291016 33.01123047 730.48925781 C22.49264852 738.29474334 11.63075288 744.98692005 0 751 C-0.77730469 751.40959961 -1.55460937 751.81919922 -2.35546875 752.24121094 C-13.36720191 757.99407806 -24.67069707 762.50327497 -36.4375 766.4375 C-37.66887695 766.85064453 -38.90025391 767.26378906 -40.16894531 767.68945312 C-100.22050892 787.18566776 -168.03007051 779.63460855 -223.9765625 751.2421875 C-242.83615167 741.29781904 -259.81933444 729.04436878 -275.33203125 714.48046875 C-277.52975844 712.43719384 -279.76341064 710.48851198 -282.0625 708.5625 C-287.50116528 703.81765622 -292.26971633 698.43524853 -297 693 C-297.51755859 692.40541992 -298.03511719 691.81083984 -298.56835938 691.19824219 C-313.2496197 674.14759454 -324.07735448 655.12434279 -334 635 C-334.59603027 633.79512939 -334.59603027 633.79512939 -335.20410156 632.56591797 C-362.63982463 576.31428454 -362.10999876 506.93790255 -342.16870117 448.58105469 C-330.26192789 415.08888659 -310.57033834 385.53637724 -286 360 C-285.44940918 359.42217773 -284.89881836 358.84435547 -284.33154297 358.24902344 C-240.11910958 312.02980246 -177.30769167 287.55566059 -113.9453125 285.76171875 C-101.70182947 285.5746499 -90.30256221 286.55263974 -78 288 C-78 332.88 -78 377.76 -78 424 C-81.30528246 423.44911959 -84.60851707 422.88232085 -87.8984375 422.24609375 C-118.98662082 416.47031959 -149.72251528 420.71172531 -176.19433594 438.70507812 C-200.68098289 456.26553992 -217.37850191 481.33627561 -223 511 C-225.82591964 528.37558696 -225.88454619 548.31104114 -220 565 C-219.63777344 566.16660156 -219.27554688 567.33320312 -218.90234375 568.53515625 C-214.32351688 582.55102291 -207.24819098 594.58373495 -198 606 C-197.46117187 606.70382812 -196.92234375 607.40765625 -196.3671875 608.1328125 C-179.35762338 629.24518606 -150.94178267 641.40250803 -124.72265625 644.68359375 C-93.22685129 647.36057193 -63.2049917 637.68393961 -38.87890625 617.44140625 C-24.09333225 604.69852985 -13.68419023 588.30746796 -7.125 570 C-6.85083252 569.24259521 -6.57666504 568.48519043 -6.29418945 567.70483398 C-1.12151039 552.3795076 -0.56181925 537.42569285 -0.60127258 521.42358398 C-0.59582493 519.16588029 -0.58906997 516.90817944 -0.58113068 514.65048313 C-0.56318835 508.48414296 -0.56365225 502.31792373 -0.56726015 496.15156364 C-0.56782163 490.17334719 -0.55430648 484.1951667 -0.54117843 478.21696828 C-0.51482777 465.99855899 -0.50223223 453.78017236 -0.49761391 441.56173706 C-0.49299908 429.4727938 -0.48218606 417.38388194 -0.46318626 405.29495239 C-0.46200614 404.54187958 -0.46082601 403.78880676 -0.45961012 403.01291356 C-0.45358428 399.18807233 -0.44744858 395.36323127 -0.44127061 391.53839028 C-0.39776684 364.48263306 -0.36802246 337.4268766 -0.34643555 310.37109375 C-0.3254391 284.09504062 -0.2981693 257.81900617 -0.26245117 231.54296875 C-0.26135169 230.73230675 -0.26025222 229.92164476 -0.25911942 229.08641724 C-0.24807061 220.94504144 -0.23689474 212.80366582 -0.2256258 204.66229032 C-0.2026748 188.07897902 -0.18057154 171.49566663 -0.15898132 154.91235352 C-0.1579877 154.14996418 -0.15699409 153.38757485 -0.15597036 152.6020828 C-0.12557384 129.24506062 -0.09876877 105.88803625 -0.07551575 82.53100586 C-0.07356033 80.56902998 -0.07356033 80.56902998 -0.07156541 78.56741822 C-0.04568184 52.37828068 -0.02329308 26.18913995 0 0 Z " fill="#FEFEFE" transform="translate(499,91)"/>
</svg>
