<?xml version="1.0" encoding="UTF-8"?>
<svg version="1.1" xmlns="http://www.w3.org/2000/svg" width="960" height="293">
<path d="M0 0 C1.21922176 -0.00573832 1.21922176 -0.00573832 2.46307427 -0.01159257 C5.17825378 -0.02188584 7.89322039 -0.01793742 10.6084137 -0.01396179 C12.55850927 -0.01831028 14.50860313 -0.02349388 16.45869446 -0.02944946 C21.749982 -0.04283548 27.04119809 -0.0434186 32.33249927 -0.04088616 C36.75105999 -0.03981626 41.16960628 -0.04470029 45.58816391 -0.04949158 C56.01240531 -0.06058524 66.43661066 -0.06102486 76.8608551 -0.05497742 C87.61270078 -0.04893583 98.36441565 -0.06125371 109.11623901 -0.08254749 C118.35037172 -0.10016266 127.58446279 -0.106165 136.81861168 -0.10290974 C142.33246388 -0.10109673 147.84622276 -0.10373501 153.36005974 -0.11762428 C158.54507102 -0.1301967 163.72987833 -0.12826399 168.91488647 -0.11521339 C170.81638215 -0.11284686 172.71789217 -0.11558506 174.61937141 -0.12383652 C177.21800105 -0.13429905 179.81594561 -0.12620741 182.41455078 -0.11352539 C183.16436688 -0.12089968 183.91418299 -0.12827396 184.68672079 -0.13587171 C190.57104354 -0.07558788 194.91018815 1.30139568 199.76686096 4.62788391 C204.11097391 9.17213214 204.47308189 13.35262417 204.56764221 19.49116516 C202.53165728 29.12217231 196.375519 37.87252982 191.39576721 46.26069641 C190.1576372 48.36418611 188.92070715 50.46838246 187.68482971 52.57319641 C187.04448792 53.66374329 186.40414612 54.75429016 185.74440002 55.87788391 C182.37784708 61.64816565 179.07594391 67.4551442 175.77076721 73.26069641 C170.23190716 82.98250383 164.63701009 92.66965843 158.98731995 102.32759094 C152.8330998 112.85154266 146.74706725 123.41449779 140.66188049 133.97846985 C138.78128615 137.24243968 136.89936176 140.5056383 135.01686096 143.76850891 C134.39794983 144.84125061 133.7790387 145.91399231 133.14137268 147.01924133 C131.89983123 149.17063077 130.65797209 151.3218369 129.41578674 153.47285461 C126.51260367 158.5014055 123.61306878 163.53193695 120.72801208 168.57090759 C119.71199537 170.34502186 118.69469793 172.1183956 117.67701721 173.89155579 C116.40494429 176.10884955 115.13524436 178.32750716 113.86842346 180.54780579 C102.56816054 200.22281912 102.56816054 200.22281912 95.77076721 202.26069641 C89.58895951 203.312919 85.08889328 202.61917496 79.84767151 199.14570618 C75.42407113 195.13082214 72.92973531 189.65665495 70.14576721 184.44819641 C69.4508041 183.18476508 68.75358267 181.92257357 68.05421448 180.66157532 C66.63206471 178.09513547 65.21807749 175.5244621 63.80934143 172.95063782 C60.87862005 167.6190225 57.79477855 162.37818133 54.70826721 157.13569641 C49.86388406 148.86222829 45.05547737 140.56881072 40.27076721 132.26069641 C35.46231998 123.91267193 30.63179626 115.57821338 25.77076721 107.26069641 C20.27346714 97.85448094 14.82016587 88.42360547 9.38282776 78.98262024 C5.72285719 72.63192783 2.04586302 66.2916833 -1.65428162 59.96430969 C-3.3898107 56.99426865 -5.11815418 54.02012412 -6.84642029 51.04585266 C-9.1093939 47.15739047 -11.41002205 43.29472756 -13.73704529 39.44429016 C-14.83875955 37.59151581 -15.94032847 35.73865503 -17.04173279 33.88569641 C-17.55179871 33.06029358 -18.06186462 32.23489075 -18.58738708 31.38447571 C-21.88037958 25.79134419 -23.42768285 20.80307741 -23.22923279 14.26069641 C-21.62502046 8.5044051 -19.12892373 5.62322941 -14.22923279 2.26069641 C-9.46866706 0.27407702 -5.08991924 -0.0255788 0 0 Z M56.77076721 28.26069641 C58.42078294 47.35328829 61.04784076 66.33250464 63.54371643 85.32826233 C64.13593039 89.84060824 64.72467054 94.35340734 65.31373596 98.86616516 C66.46275259 107.66477986 67.61551346 116.46289847 68.77076721 125.26069641 C75.77388963 120.6498923 75.77388963 120.6498923 82.54029846 115.70210266 C83.35595276 115.07666565 84.17160706 114.45122864 85.01197815 113.80683899 C85.86050354 113.15223694 86.70902893 112.49763489 87.58326721 111.82319641 C89.43822528 110.40065525 91.29370708 108.97879679 93.14967346 107.55757141 C94.08440491 106.84149719 95.01913635 106.12542297 95.98219299 105.38764954 C100.30767702 102.08843602 104.66337126 98.83007656 109.02076721 95.57319641 C121.4022941 86.30680189 133.77095864 77.01975449 145.77076721 67.26069641 C142.86564497 64.91852481 140.04977213 63.36630487 136.62037659 61.90742493 C135.58989197 61.46588577 134.55940735 61.02434662 133.49769592 60.56942749 C132.38124695 60.0975853 131.26479797 59.6257431 130.11451721 59.13960266 C128.35814941 58.38960243 128.35814941 58.38960243 126.56629944 57.62445068 C123.43580229 56.28771789 120.30258214 54.95749003 117.16871643 53.62867737 C114.09178906 52.32284348 111.01732724 51.01125485 107.94264221 49.70014954 C103.66550827 47.87672967 99.38750154 46.0553995 95.10826111 44.23692894 C89.30535396 41.77043309 83.50793796 39.29160625 77.71607971 36.79927063 C76.73661251 36.37809227 76.73661251 36.37809227 75.73735809 35.94840527 C72.59534506 34.59724683 69.45409429 33.24436752 66.31410217 31.88851929 C65.2060321 31.41184311 64.09796204 30.93516693 62.95631409 30.44404602 C61.97626404 30.02126877 60.99621399 29.59849152 59.98646545 29.16290283 C58.01513016 28.1978426 58.01513016 28.1978426 56.77076721 28.26069641 Z " fill="#E87A20" transform="translate(25.229232788085938,0.7393035888671875)"/>
<path d="M0 0 C1.0725 0.763125 2.145 1.52625 3.25 2.3125 C12.62523138 11.47465794 17.03130222 21.70502742 17.47045898 34.72631836 C17.63174135 49.86953278 14.09378639 61.30014193 3.875 72.6875 C-3.42017964 79.61310006 -13.32904604 82.95704772 -23 85 C-23.86625 85.18691406 -24.7325 85.37382813 -25.625 85.56640625 C-30.46236736 86.18787358 -35.25331726 86.14420506 -40.125 86.125 C-41.11371094 86.12886719 -42.10242188 86.13273437 -43.12109375 86.13671875 C-44.55001953 86.13478516 -44.55001953 86.13478516 -46.0078125 86.1328125 C-46.87035645 86.13168457 -47.73290039 86.13055664 -48.62158203 86.12939453 C-51 86 -51 86 -55 85 C-55 103.15 -55 121.3 -55 140 C-64.57 140 -74.14 140 -84 140 C-84 92.81 -84 45.62 -84 -3 C-56.5290102 -11.07970288 -24.92895444 -18.60116191 0 0 Z M-55 15 C-55 30.18 -55 45.36 -55 61 C-46.11588361 63.96137213 -33.43611743 62.92414502 -25 59 C-19.83596407 56.40270382 -16.49339682 52.88651418 -13.87890625 47.7265625 C-11.71585896 41.01630913 -11.96665398 33.18821259 -14.1875 26.5 C-17.29370387 20.50181322 -20.61898404 16.25180851 -26.93359375 13.6875 C-36.14814213 11.62156304 -46.11929394 12.03976465 -55 15 Z " fill="#5D2D86" transform="translate(464,38)"/>
<path d="M0 0 C1.27543019 1.05327534 2.5259334 2.13744794 3.75 3.25 C4.3790625 3.81332031 5.008125 4.37664063 5.65625 4.95703125 C12.66940862 12.01476503 14.89071105 21.12783858 15.25 30.875 C14.90219051 40.4861357 11.60815402 49.37683908 4.75 56.25 C1.27761221 58.93187792 -2.3244771 61.28723855 -6.25 63.25 C-5.46496094 63.67410156 -4.67992187 64.09820312 -3.87109375 64.53515625 C7.0444137 70.62908986 15.66337202 77.61089784 19.30566406 90.1652832 C21.92791984 102.46827335 19.85764493 114.18326608 13.19921875 124.69921875 C5.75613372 134.41978878 -7.53140433 139.78487602 -19.30078125 141.8515625 C-38.43296299 143.78181229 -57.16412061 141.94177537 -75.25 135.25 C-76.25 134.25 -76.25 134.25 -76.37304783 132.00298977 C-76.37166514 130.50000631 -76.37166514 130.50000631 -76.37025452 128.96665955 C-76.37162918 127.82095993 -76.37300385 126.67526031 -76.37442017 125.49484253 C-76.37082489 124.22673737 -76.36722961 122.9586322 -76.36352539 121.65209961 C-76.36324352 120.31206769 -76.36340125 118.97203561 -76.3639679 117.63200378 C-76.36425587 113.98340562 -76.3583592 110.33484005 -76.35139394 106.68624949 C-76.34516034 102.87722484 -76.3445566 99.0681995 -76.34336853 95.25917053 C-76.34025523 88.04142246 -76.33204186 80.82368946 -76.32201904 73.60594803 C-76.31085786 65.39084743 -76.30534744 57.17574612 -76.30032361 48.96063983 C-76.28985925 32.05708449 -76.27225983 15.15354384 -76.25 -1.75 C-74.19709002 -2.39843398 -72.1427758 -3.04242316 -70.08789062 -3.68457031 C-68.94404907 -4.04367493 -67.80020752 -4.40277954 -66.6217041 -4.77276611 C-62.03510715 -6.10211704 -57.47828655 -6.88684771 -52.75 -7.5 C-51.84564209 -7.62141357 -50.94128418 -7.74282715 -50.00952148 -7.86791992 C-33.46556573 -9.96862237 -14.18769138 -10.00205063 0 0 Z M-59.25 10.25 C-59.25 25.76 -59.25 41.27 -59.25 57.25 C-54.3825 57.311875 -49.515 57.37375 -44.5 57.4375 C-42.99083008 57.46481201 -41.48166016 57.49212402 -39.92675781 57.52026367 C-30.04828519 57.58049826 -18.76183269 57.43842368 -10.71484375 50.88671875 C-5.59260026 45.16346536 -3.03509814 37.87901616 -3.25 30.25 C-3.81491042 23.37692324 -6.19842637 18.00207321 -11.25 13.25 C-25.99761342 3.30292937 -42.94766922 4.81588974 -59.25 10.25 Z M-59.25 72.25 C-59.25 89.41 -59.25 106.57 -59.25 124.25 C-34.14323973 128.91777029 -34.14323973 128.91777029 -10.578125 121.63671875 C-5.19552545 117.67012987 -1.39244256 113.67732767 0.75 107.25 C1.62697784 96.99942296 0.0253243 89.67475587 -5.25 80.9375 C-11.66963731 74.00743281 -23.24341462 71.93010893 -32.25 71.25 C-41.3284478 70.92468449 -50.277383 70.75456383 -59.25 72.25 Z " fill="#5D2D86" transform="translate(584.25,35.75)"/>
<path d="M0 0 C32.34 0 64.68 0 98 0 C98 8.58 98 17.16 98 26 C86.78 26 75.56 26 64 26 C64.00523682 29.75109131 64.01047363 33.50218262 64.01586914 37.36694336 C64.03240171 49.72828126 64.04352071 62.08961897 64.05181217 74.45096493 C64.05697511 81.94933064 64.06401776 89.44768591 64.07543945 96.94604492 C64.08538637 103.47930504 64.09185344 110.01255759 64.09408849 116.54582506 C64.09539559 120.00721807 64.09848136 123.46858942 64.10573006 126.92997551 C64.11374407 130.78787527 64.11399113 134.64575357 64.11352539 138.50366211 C64.11712067 139.65955841 64.12071594 140.81545471 64.12442017 142.00637817 C64.1230455 143.05110794 64.12167084 144.09583771 64.12025452 145.17222595 C64.12117631 146.0857228 64.1220981 146.99921965 64.12304783 147.94039822 C64 150 64 150 63 151 C53.43 151 43.86 151 34 151 C34 109.75 34 68.5 34 26 C22.78 26 11.56 26 0 26 C0 17.42 0 8.84 0 0 Z " fill="#5E2D86" transform="translate(256,27)"/>
<path d="M0 0 C5.61 0 11.22 0 17 0 C17.33 29.37 17.66 58.74 18 89 C20.97 85.7 23.94 82.4 27 79 C28.79538724 77.14477649 30.60695903 75.30484471 32.4453125 73.4921875 C33.37730469 72.56792969 34.30929687 71.64367187 35.26953125 70.69140625 C36.22104357 69.75228936 37.17286787 68.81348848 38.125 67.875 C48.83514279 57.38897993 48.83514279 57.38897993 58.31640625 45.8125 C61.6716265 41.61118073 64.27793694 38.49916195 69.64941406 37.51416016 C76.11822894 37.04659944 82.55088508 37.38982173 89 38 C86.35152505 42.19976282 83.60946545 45.62083268 80.04296875 49.1171875 C79.57691727 49.57803741 79.11086578 50.03888733 78.63069153 50.51370239 C77.15437909 51.97238847 75.67152161 53.42416118 74.1875 54.875 C68.5087916 60.44596191 62.89236751 66.00201726 57.72290039 72.05664062 C53.66444462 76.6344085 49.17287513 80.82112978 44.7890625 85.08398438 C44.056875 85.80521484 43.3246875 86.52644531 42.5703125 87.26953125 C41.90789551 87.91510986 41.24547852 88.56068848 40.56298828 89.22583008 C38.77621998 91.02161875 38.77621998 91.02161875 38 94 C47.22511155 104.12652578 56.58882975 114.11932725 65.97314453 124.09814453 C78.92550768 137.87308395 78.92550768 137.87308395 84.9375 144.4375 C85.73027344 145.30246094 86.52304687 146.16742188 87.33984375 147.05859375 C89 149 89 149 89 150 C69.59937765 151.30138334 69.59937765 151.30138334 64.00390625 148.5 C62.01656301 146.45267658 60.51975396 144.41078778 59 142 C57.9369681 140.75323419 56.85302885 139.52402349 55.75 138.3125 C55.18539062 137.65636719 54.62078125 137.00023437 54.0390625 136.32421875 C51.45246655 133.37589578 48.79163286 130.50085394 46.125 127.625 C41.8117382 122.97091915 37.54066042 118.28333277 33.3046875 113.55859375 C30.57230286 110.52518368 27.82039434 107.51020946 25.0625 104.5 C24.5893335 103.98300537 24.11616699 103.46601074 23.62866211 102.93334961 C21.78293243 100.92125942 19.93096623 98.93096623 18 97 C17.67 114.49 17.34 131.98 17 150 C11.39 150 5.78 150 0 150 C0 100.5 0 51 0 0 Z " fill="#5D2D86" transform="translate(816,27)"/>
<path d="M0 0 C7.65036897 6.83620126 11.69799756 14.72087133 12.34289551 25.0423584 C12.50954864 29.70096851 12.45114548 34.35546247 12.390625 39.015625 C12.38314757 40.72482638 12.37746176 42.43403643 12.37347412 44.14324951 C12.35833578 48.60183147 12.31915874 53.05987687 12.2746582 57.51824951 C12.233448 62.08370713 12.2154086 66.64925301 12.1953125 71.21484375 C12.15265058 80.14346253 12.08454588 89.07168633 12 98 C10.57215911 98.64822911 9.14283184 99.29318485 7.71289062 99.93676758 C6.51919861 100.4760363 6.51919861 100.4760363 5.3013916 101.02619934 C-10.75624739 107.82075765 -35.7616652 108.94320784 -52.125 102.3125 C-60.60992455 97.80384401 -66.63665692 91.0617677 -70.11328125 82.14453125 C-72.75519844 72.77561788 -71.37849203 62.65099216 -67.00390625 54.0390625 C-60.09712061 43.09336069 -45.91520383 38.94851991 -34 36.25 C-24.42446534 34.47154288 -14.71694067 34.25412025 -5 34 C-5.37224579 22.09253119 -5.37224579 22.09253119 -11.5625 12.3125 C-18.83258194 6.77509115 -28.19313894 6.04652144 -37 7 C-42.4129841 8.02018547 -47.70570745 9.49362808 -53 11 C-53.67208496 11.19110352 -54.34416992 11.38220703 -55.03662109 11.57910156 C-56.69170263 12.05055659 -58.34594198 12.52496652 -60 13 C-60.83790789 11.21046815 -61.67019396 9.41830305 -62.5 7.625 C-62.9640625 6.62726563 -63.428125 5.62953125 -63.90625 4.6015625 C-65 2 -65 2 -65 0 C-47.01875955 -9.83879194 -17.01172395 -13.88073181 0 0 Z M-48 57 C-52.65773597 62.54855979 -54.42889208 67.07299066 -54.34375 74.36328125 C-53.59364266 80.11694549 -50.46253858 83.817522 -46.0625 87.375 C-32.8483811 94.38657329 -18.81308239 91.94659497 -5 88 C-5 74.47 -5 60.94 -5 47 C-19.13915018 47 -36.6927824 47.34749717 -48 57 Z " fill="#5D2D86" transform="translate(690,72)"/>
<path d="M0 0 C6.89949784 5.58669698 10.4544477 11.94618885 12.09765625 20.62109375 C12.63204716 27.05117106 12.44764892 33.52710797 12.390625 39.97265625 C12.38502099 41.84166115 12.3807547 43.71067049 12.37776184 45.5796814 C12.36637639 50.46889685 12.33696427 55.3578396 12.3036499 60.24694824 C12.27281233 65.24792798 12.2592274 70.24895233 12.24414062 75.25 C12.21208779 85.04050291 12.15937217 94.83073285 12.09765625 104.62109375 C6.15765625 104.62109375 0.21765625 104.62109375 -5.90234375 104.62109375 C-5.91692627 102.26984375 -5.93150879 99.91859375 -5.9465332 97.49609375 C-5.99697497 89.70880775 -6.06358685 81.92171969 -6.13805866 74.1346283 C-6.18269764 69.41545332 -6.22196793 64.69636339 -6.2487793 59.97705078 C-6.27487698 55.41868646 -6.31532481 50.86065053 -6.36553001 46.30249023 C-6.38215511 44.56750589 -6.39369644 42.83246481 -6.39995766 41.09741211 C-6.40964647 38.65834504 -6.4377613 36.22010988 -6.4699707 33.78125 C-6.46853561 33.07130386 -6.46710052 32.36135773 -6.46562195 31.62989807 C-6.57657635 25.65025771 -7.89065533 20.19259591 -11.62890625 15.4140625 C-18.76258846 9.38125718 -25.47647187 7.01498087 -34.84765625 7.25390625 C-41.26199419 8.0249392 -48.10027259 9.72005817 -53.90234375 12.62109375 C-54.23234375 42.98109375 -54.56234375 73.34109375 -54.90234375 104.62109375 C-60.84234375 104.62109375 -66.78234375 104.62109375 -72.90234375 104.62109375 C-72.90234375 70.30109375 -72.90234375 35.98109375 -72.90234375 0.62109375 C-67.49367674 -2.08323976 -63.45947532 -4.01419685 -57.83984375 -5.56640625 C-56.69386719 -5.88996094 -55.54789063 -6.21351562 -54.3671875 -6.546875 C-37.0044189 -10.71628843 -14.97192789 -10.85234199 0 0 Z " fill="#5D2D86" transform="translate(788.90234375,72.37890625)"/>
<path d="M0 0 C1.10988281 -0.01417969 2.21976563 -0.02835938 3.36328125 -0.04296875 C6.7836836 0.19416843 9.49723443 0.96641499 12.6875 2.1875 C12.10659506 10.38169067 10.58976521 18.287569 8.875 26.3125 C8.62685547 27.53582031 8.37871094 28.75914062 8.12304688 30.01953125 C4.78694219 45.72384082 4.78694219 45.72384082 -0.75 50.125 C-7.03029343 52.72902411 -13.87697354 53.40358673 -20.25 50.8125 C-23.3125 49.1875 -23.3125 49.1875 -24.3125 47.1875 C-23.375 45.0625 -23.375 45.0625 -22.3125 43.1875 C-21.3225 43.5175 -20.3325 43.8475 -19.3125 44.1875 C-14.55601962 45.54787269 -7.78001413 46.59308453 -3.3125 44.1875 C-2.0079344 41.19134054 -2.0079344 41.19134054 -1.3125 38.1875 C-2.3025 38.6825 -2.3025 38.6825 -3.3125 39.1875 C-7.8595877 39.60599303 -11.98615093 39.72368367 -16.25 38 C-19.4909249 35.15191448 -21.20914724 32.60437244 -21.52734375 28.2421875 C-20.74260102 19.24527784 -19.84736141 9.8796018 -12.75 3.5625 C-8.63557211 0.39191637 -5.12325593 0.02954588 0 0 Z M-8.25 7.625 C-12.92856982 13.43776857 -14.69733066 21.79609726 -14.3125 29.1875 C-13.14583333 32.02083333 -13.14583333 32.02083333 -10.3125 33.1875 C-7.26110466 33.59868093 -4.35506202 33.69263578 -1.3125 33.1875 C0.92055505 30.95444495 1.12528124 30.05577754 1.7578125 27.046875 C2.01884766 25.81130859 2.01884766 25.81130859 2.28515625 24.55078125 C2.45917969 23.68839844 2.63320313 22.82601563 2.8125 21.9375 C2.99425781 21.09058594 3.17601562 20.24367188 3.36328125 19.37109375 C4.28708027 14.9049075 4.91238779 10.77521091 4.6875 6.1875 C-1.98164641 5.69436431 -1.98164641 5.69436431 -8.25 7.625 Z " fill="#5D2D86" transform="translate(601.3125,238.8125)"/>
<path d="M0 0 C3.125 -0.5625 3.125 -0.5625 7 0 C9.76462465 2.96852322 13 6.80045287 13 11 C9.75 11.375 9.75 11.375 6 11 C3.5625 8 3.5625 8 2 5 C-0.05660341 7.61461933 -1.67946475 10.14758981 -3.09716797 13.15429688 C-3.67324295 14.36575378 -3.67324295 14.36575378 -4.26095581 15.60168457 C-4.66726227 16.46531616 -5.07356873 17.32894775 -5.4921875 18.21875 C-6.37061897 20.05621664 -7.24954033 21.89344914 -8.12890625 23.73046875 C-9.50562107 26.61808017 -10.87846035 29.5073395 -12.24267578 32.40087891 C-13.56471691 35.19979481 -14.90223545 37.99087389 -16.2421875 40.78125 C-16.6444455 41.64488159 -17.04670349 42.50851318 -17.46115112 43.39831543 C-19.67027651 47.96896684 -21.50259709 51.30607825 -26 54 C-29.625 54.5 -29.625 54.5 -33 54 C-36.78822982 50.57967365 -36.65186535 46.14749042 -36.94921875 41.359375 C-37.01156204 40.51836243 -37.07390533 39.67734985 -37.13813782 38.81085205 C-37.33380418 36.12462778 -37.51053148 33.43751378 -37.6875 30.75 C-37.8171944 28.9569466 -37.94804161 27.1639762 -38.08007812 25.37109375 C-39.1905218 9.85878485 -39.1905218 9.85878485 -39 3 C-38 2 -38 2 -34.9375 1.9375 C-33.4834375 1.9684375 -33.4834375 1.9684375 -32 2 C-30.8355371 5.49338871 -30.7029125 8.51435287 -30.5 12.1953125 C-30.45939453 12.90219208 -30.41878906 13.60907166 -30.37695312 14.33737183 C-30.24742193 16.59971507 -30.12329691 18.86230908 -30 21.125 C-29.87613255 23.36622672 -29.75100717 25.60736123 -29.62304688 27.84835815 C-29.5062796 29.89760654 -29.3936472 31.94708931 -29.28125 33.99658203 C-29.00941055 38.34834251 -28.51595185 42.67131111 -28 47 C-27.44538086 45.84999512 -26.89076172 44.69999023 -26.31933594 43.51513672 C-24.25138623 39.23024745 -22.17758694 34.94821115 -20.10205078 30.66699219 C-19.2062575 28.8171742 -18.31203122 26.96659649 -17.41943359 25.11523438 C-16.13274354 22.44718142 -14.84035691 19.78195309 -13.546875 17.1171875 C-13.15191833 16.29507782 -12.75696167 15.47296814 -12.35003662 14.62594604 C-10.1847727 10.1805058 -8.02183193 5.9277562 -5 2 C-2.25 1.625 -2.25 1.625 0 2 C0 1.34 0 0.68 0 0 Z " fill="#5D2D86" transform="translate(419,224)"/>
<path d="M0 0 C1.98 0 3.96 0 6 0 C7.3609623 2.7219246 6.70366248 4.1831957 6.0625 7.125 C5.86785156 8.03507813 5.67320312 8.94515625 5.47265625 9.8828125 C5.31667969 10.58148438 5.16070313 11.28015625 5 12 C5.73605469 12.03738281 6.47210937 12.07476562 7.23046875 12.11328125 C17.33612758 12.79411163 17.33612758 12.79411163 21 16 C24.23678886 20.01808272 24.23891749 22.94637565 24 28 C21.02855586 43.95283695 21.02855586 43.95283695 15 49 C7.62686515 53.60820928 -1.75061517 52.9013452 -10 51 C-10.24538576 45.13701547 -9.32966529 39.91338665 -8.06640625 34.19921875 C-7.86901352 33.28163284 -7.67162079 32.36404694 -7.46824646 31.4186554 C-7.05211202 29.4908556 -6.63254122 27.56379471 -6.2097168 25.63745117 C-5.56110653 22.68114869 -4.92323201 19.72268393 -4.28710938 16.76367188 C-3.8808297 14.88788614 -3.47394982 13.01223029 -3.06640625 11.13671875 C-2.87470352 10.25030197 -2.68300079 9.36388519 -2.48548889 8.4506073 C-2.30537766 7.63248062 -2.12526642 6.81435394 -1.93969727 5.97143555 C-1.78203384 5.25086472 -1.62437042 4.53029388 -1.46192932 3.78788757 C-1 2 -1 2 0 0 Z M3 19 C0.57593382 27.98595695 -1.60378931 36.64942777 -2 46 C2.58330868 46.36666469 6.09170226 46.38686756 10.375 44.5625 C15.55168456 39.50906983 16.62773031 32.21436161 17.109375 25.17578125 C17.13782023 22.83623286 17.13782023 22.83623286 15.6875 20.375 C11.56150817 18.26402744 7.54498186 18.68774934 3 19 Z " fill="#5D2D86" transform="translate(867,226)"/>
<path d="M0 0 C2.31 0 4.62 0 7 0 C6.69147815 1.958964 6.3780582 3.91715713 6.0625 5.875 C5.80146484 7.51082031 5.80146484 7.51082031 5.53515625 9.1796875 C5 12 5 12 4 14 C4.55816406 13.84015625 5.11632812 13.6803125 5.69140625 13.515625 C10.88931456 12.35467086 16.17996045 12.18283938 21.0625 14.375 C23.23971793 16.20105374 23.91797368 17.13505402 24.18554688 19.95654297 C24.28196042 26.95644994 23.0993535 33.32990893 21.5 40.125 C21.26152344 41.176875 21.02304687 42.22875 20.77734375 43.3125 C20.19442336 45.87734972 19.6018584 48.43954068 19 51 C16.69 51 14.38 51 12 51 C12.47313958 45.51158093 13.33608849 40.31172779 14.5625 34.9375 C15.71239907 29.78528234 16.3155909 25.25984838 16 20 C11.1666528 19.91666643 6.76307437 20.04738513 2 21 C1.9175 22.258125 1.835 23.51625 1.75 24.8125 C1.20970901 30.3107554 0.13248941 35.66197897 -1 41.0625 C-1.17821289 41.92012939 -1.35642578 42.77775879 -1.54003906 43.66137695 C-2.87188457 49.87188457 -2.87188457 49.87188457 -4 51 C-6.33297433 51.04092937 -8.66705225 51.04241723 -11 51 C-8.45711897 38.17930076 -5.89138966 25.36330649 -3.25 12.5625 C-3.03964111 11.53318359 -2.82928223 10.50386719 -2.61254883 9.44335938 C-2.41556396 8.49396484 -2.2185791 7.54457031 -2.015625 6.56640625 C-1.84321289 5.73052979 -1.67080078 4.89465332 -1.49316406 4.03344727 C-1 2 -1 2 0 0 Z " fill="#5D2D87" transform="translate(484,226)"/>
<path d="M0 0 C1.98 0 3.96 0 6 0 C6.21192221 5.19209404 5.5912689 9.126739 4 14 C4.8353125 13.75830078 4.8353125 13.75830078 5.6875 13.51171875 C8.18409961 12.95926174 10.44450442 12.83197786 13 12.8125 C13.845625 12.79832031 14.69125 12.78414062 15.5625 12.76953125 C18.2496915 13.02360865 19.77354805 13.47891106 22 15 C26.56191223 22.60928586 23.38083083 32.00542741 21.5 40.0625 C21.26152344 41.11888672 21.02304687 42.17527344 20.77734375 43.26367188 C20.1934398 45.84452732 19.60085212 48.42304755 19 51 C16.69 51 14.38 51 12 51 C12.47107834 43.95006891 13.73795921 37.26452483 15.37890625 30.39453125 C16.02610984 26.85729907 16.10485356 23.58781535 16 20 C11.1666528 19.91666643 6.76307437 20.04738513 2 21 C1.87625 22.28003906 1.7525 23.56007812 1.625 24.87890625 C1.05817133 29.97337869 0.08375287 34.93103293 -1 39.9375 C-1.17789063 40.78634766 -1.35578125 41.63519531 -1.5390625 42.50976562 C-2.86544296 48.73088592 -2.86544296 48.73088592 -4 51 C-6.31 51 -8.62 51 -11 51 C-8.55343597 37.97106321 -6.05554483 24.95706419 -3.25 12 C-3.03964111 11.02216553 -2.82928223 10.04433105 -2.61254883 9.03686523 C-2.41556396 8.13782471 -2.2185791 7.23878418 -2.015625 6.3125 C-1.84321289 5.52488281 -1.67080078 4.73726562 -1.49316406 3.92578125 C-1 2 -1 2 0 0 Z " fill="#5D2D86" transform="translate(731,226)"/>
<path d="M0 0 C3.37019678 2.73828488 4.30246724 4.01486927 4.75 8.3125 C4.89695312 9.55580078 4.89695312 9.55580078 5.046875 10.82421875 C5 13.625 5 13.625 3 20.625 C-4.92 20.625 -12.84 20.625 -21 20.625 C-20.67 23.265 -20.34 25.905 -20 28.625 C-16.63391065 30.86905956 -16.06404036 30.8040611 -12.25 30.3125 C-10.93128906 30.15007812 -10.93128906 30.15007812 -9.5859375 29.984375 C-8.73257813 29.86578125 -7.87921875 29.7471875 -7 29.625 C-6.27039063 29.52703125 -5.54078125 29.4290625 -4.7890625 29.328125 C-3.19091045 29.10634063 -1.59510464 28.86773331 0 28.625 C-0.33 30.605 -0.66 32.585 -1 34.625 C-8.5577663 37.69191966 -15.66528207 39.25051923 -23.5 36.3125 C-26 34.625 -26 34.625 -28 31.625 C-28.94618274 22.86359357 -28.48693142 13.74777578 -23.41796875 6.30078125 C-17.33607669 -1.07964114 -9.18596396 -4.21023348 0 0 Z M-17.8125 9.625 C-19.25526938 11.667265 -19.25526938 11.667265 -19 14.625 C-13.72 14.625 -8.44 14.625 -3 14.625 C-1.34867804 8.98859773 -1.34867804 8.98859773 -3.625 6.25 C-9.07165734 2.52333971 -13.71837223 5.10734177 -17.8125 9.625 Z " fill="#5D2D86" transform="translate(800,240.375)"/>
<path d="M0 0 C2.853604 2.37800333 2.853604 2.37800333 3.11328125 4.6171875 C3.29438256 11.49903739 2.43657326 17.90830036 1.0625 24.625 C0.81463745 25.87482666 0.81463745 25.87482666 0.56176758 27.14990234 C0.39056396 27.93703613 0.21936035 28.72416992 0.04296875 29.53515625 C-0.18483276 30.59101929 -0.18483276 30.59101929 -0.41723633 31.66821289 C-1.25856456 33.91997755 -2.29473675 35.02730934 -4.125 36.5625 C-7.51388247 37.84538111 -10.97098831 37.72923982 -14.5625 37.75 C-16.23119141 37.77126953 -16.23119141 37.77126953 -17.93359375 37.79296875 C-22.24744662 37.48144204 -25.05219628 36.63530372 -28.125 33.5625 C-29.48964291 28.67252959 -29.00209914 25.25524784 -27.125 20.5625 C-23.85648168 16.10542956 -20.79883593 14.77579907 -15.55078125 13.83203125 C-11.7128099 13.40558999 -7.98382013 13.43999777 -4.125 13.5625 C-4.30964366 9.22065798 -4.30964366 9.22065798 -6.125 5.5625 C-11.58378647 5.37096363 -16.72303219 5.79079031 -22.125 6.5625 C-22.0625 4.25 -22.0625 4.25 -21.125 1.5625 C-14.85564271 -2.3899209 -6.77769958 -3.11774181 0 0 Z M-19.8125 21.125 C-21.58364266 24.41426495 -21.47183394 26.88606025 -21.125 30.5625 C-20.03947634 31.87512571 -20.03947634 31.87512571 -17.40234375 31.66015625 C-16.30019531 31.64855469 -15.19804688 31.63695312 -14.0625 31.625 C-12.95777344 31.61597656 -11.85304688 31.60695313 -10.71484375 31.59765625 C-9.86019531 31.58605469 -9.00554688 31.57445312 -8.125 31.5625 C-7.795 30.325 -7.465 29.0875 -7.125 27.8125 C-6.939375 27.11640625 -6.75375 26.4203125 -6.5625 25.703125 C-5.99150651 23.27348139 -5.99150651 23.27348139 -6.125 19.5625 C-13.24819039 18.93817841 -13.24819039 18.93817841 -19.8125 21.125 Z " fill="#5D2D87" transform="translate(919.125,240.4375)"/>
<path d="M0 0 C3.00948407 2.85900986 3.8172366 4.27841958 4.5 8.375 C4.60467708 16.88375112 2.44623722 25.6534372 -2.875 32.375 C-8.25006478 36.47028745 -12.36506801 37.94950076 -19.09375 37.7265625 C-22.7314575 37.19507926 -24.82617872 35.84828468 -27.5 33.375 C-31.05478414 26.27736052 -29.15906592 18.74678366 -26.75 11.5 C-24.53615986 5.90965547 -21.7877973 2.91793306 -16.8125 -0.4375 C-10.92189138 -2.54922762 -5.70192647 -2.647323 0 0 Z M-18.5 9.375 C-21.28467193 14.32074938 -23.01723455 20.69619563 -22.5 26.375 C-20.70653576 29.66888912 -20.70653576 29.66888912 -17.5 31.375 C-13.03418134 31.61424029 -11.17126152 30.93946992 -7.75 28.0625 C-4.41784484 23.49047316 -3.21940854 17.90308668 -2.5 12.375 C-2.89553723 8.82984118 -2.89553723 8.82984118 -4.5 6.375 C-10.21512783 2.56491478 -14.23040604 4.30562619 -18.5 9.375 Z " fill="#5D2D87" transform="translate(685.5,240.625)"/>
<path d="M0 0 C1.2065625 0.0309375 1.2065625 0.0309375 2.4375 0.0625 C3.41665059 3.15638926 3.41042586 5.18433795 2.66015625 8.328125 C2.38461914 9.54048828 2.38461914 9.54048828 2.10351562 10.77734375 C1.90435547 11.61394531 1.70519531 12.45054687 1.5 13.3125 C0.05637129 19.3824108 -0.80020786 24.81006304 -0.5625 31.0625 C2.08208379 32.38479189 4.11511301 32.15927194 7.0625 32.125 C8.06539062 32.11597656 9.06828125 32.10695313 10.1015625 32.09765625 C10.87242187 32.08605469 11.64328125 32.07445312 12.4375 32.0625 C12.53546875 31.41667969 12.6334375 30.77085937 12.734375 30.10546875 C14.28256971 20.34917276 16.35734522 10.71603381 18.4375 1.0625 C20.4289056 0.68116701 22.43029077 0.34924418 24.4375 0.0625 C24.9325 0.5575 24.9325 0.5575 25.4375 1.0625 C25.30082479 8.66003385 23.52363767 16.16656661 21.9375 23.5625 C21.71191406 24.6453125 21.48632812 25.728125 21.25390625 26.84375 C19.57636634 34.78476732 19.57636634 34.78476732 18.4375 37.0625 C11.1298656 39.49837813 1.43367895 40.90074232 -5.6875 37.625 C-8.53942815 35.24839321 -8.53942815 35.24839321 -8.8359375 32.859375 C-9.19818732 21.9918803 -6.79217339 11.41398195 -3.5625 1.0625 C-2.5625 0.0625 -2.5625 0.0625 0 0 Z " fill="#5D2D87" transform="translate(815.5625,238.9375)"/>
<path d="M0 0 C2.625 -0.1875 2.625 -0.1875 5 0 C6.19276037 3.5782811 5.72284289 5.21588109 4.93359375 8.875 C4.69576172 10.02484375 4.45792969 11.1746875 4.21289062 12.359375 C3.69579342 14.78725707 3.17495639 17.21434562 2.65039062 19.640625 C2.41384766 20.79046875 2.17730469 21.9403125 1.93359375 23.125 C1.5941272 24.70667969 1.5941272 24.70667969 1.24780273 26.3203125 C0.69587163 29.22518085 0.69587163 29.22518085 3 32 C5.89608399 32.36498034 5.89608399 32.36498034 9.125 32.1875 C10.22070312 32.16042969 11.31640625 32.13335937 12.4453125 32.10546875 C13.28835938 32.07066406 14.13140625 32.03585937 15 32 C15.11214844 30.9275 15.22429688 29.855 15.33984375 28.75 C16.04731636 23.09021912 17.31990315 17.56210018 18.5625 12 C18.79646484 10.93910156 19.03042969 9.87820312 19.27148438 8.78515625 C19.84442795 6.18937106 20.42067235 3.59436646 21 1 C22.98 0.67 24.96 0.34 27 0 C28.17264535 4.26680609 27.75328491 7.42048553 26.85546875 11.7265625 C26.59056641 13.0053125 26.32566406 14.2840625 26.05273438 15.6015625 C25.91053467 16.26188477 25.76833496 16.92220703 25.62182617 17.60253906 C25.18787581 19.62325003 24.77157362 21.64702403 24.35742188 23.671875 C22.26642096 33.60036856 22.26642096 33.60036856 20 37 C13.20898249 39.79103357 3.73212517 40.5233164 -3.0625 37.75 C-5.54201066 35.51044198 -6.90894708 33.48416259 -7.1171875 30.08984375 C-6.43355017 24.01429261 -5.28515375 18.04899591 -4.0625 12.0625 C-3.89282715 11.22130615 -3.7231543 10.3801123 -3.54833984 9.51342773 C-3.37898926 8.71622314 -3.20963867 7.91901855 -3.03515625 7.09765625 C-2.8844165 6.38101807 -2.73367676 5.66437988 -2.57836914 4.92602539 C-2 3 -2 3 0 0 Z " fill="#5D2D86" transform="translate(517,239)"/>
<path d="M0 0 C1.60101562 -0.04253906 1.60101562 -0.04253906 3.234375 -0.0859375 C7.05152281 0.49751255 8.63815653 1.54706877 11.25 4.375 C12.35472955 8.75593101 12.16674028 12.17548148 11.2890625 16.578125 C11.06476562 17.7228125 10.84046875 18.8675 10.609375 20.046875 C10.36703125 21.22765625 10.1246875 22.4084375 9.875 23.625 C9.64039063 24.82125 9.40578125 26.0175 9.1640625 27.25 C7.41171288 36.05157425 7.41171288 36.05157425 6.25 38.375 C3.94 38.375 1.63 38.375 -0.75 38.375 C0.18302673 32.59817494 1.12800181 26.84337743 2.375 21.125 C3.26785897 16.77319131 3.49202556 12.81213536 3.25 8.375 C2.16447634 7.06237429 2.16447634 7.06237429 -0.47265625 7.27734375 C-1.57480469 7.28894531 -2.67695312 7.30054688 -3.8125 7.3125 C-4.91722656 7.32152344 -6.02195312 7.33054688 -7.16015625 7.33984375 C-8.01480469 7.35144531 -8.86945312 7.36304688 -9.75 7.375 C-9.84796875 8.02082031 -9.9459375 8.66664063 -10.046875 9.33203125 C-11.59506971 19.08832724 -13.66984522 28.72146619 -15.75 38.375 C-18.06 38.375 -20.37 38.375 -22.75 38.375 C-22.22411821 30.28682253 -20.57777845 22.6181196 -18.6875 14.75 C-18.40583984 13.55503906 -18.12417969 12.36007813 -17.83398438 11.12890625 C-17.14501325 8.20953709 -16.4502464 5.29168127 -15.75 2.375 C-10.47209254 1.08157034 -5.46225404 0.06661285 0 0 Z " fill="#5D2D87" transform="translate(946.75,238.625)"/>
<path d="M0 0 C3.50234878 7.00469757 0.1835735 16.97208772 -1.5 24.125 C-1.73847656 25.176875 -1.97695313 26.22875 -2.22265625 27.3125 C-2.80557664 29.87734972 -3.3981416 32.43954068 -4 35 C-6.31 35 -8.62 35 -11 35 C-10.39070239 28.05400723 -9.09793835 21.35557238 -7.62109375 14.55078125 C-7.04805033 11.27470284 -6.88286982 8.31529342 -7 5 C-10.14341993 3.42829004 -13.55771451 3.76824217 -17 4 C-17.99 4.33 -18.98 4.66 -20 5 C-20.97129606 7.76030979 -20.97129606 7.76030979 -21.5703125 11.15234375 C-21.95509766 13.02889648 -21.95509766 13.02889648 -22.34765625 14.94335938 C-22.60732869 16.27463089 -22.86643677 17.60601261 -23.125 18.9375 C-23.6438679 21.53089149 -24.16970065 24.1228036 -24.6953125 26.71484375 C-24.92234863 27.87105225 -25.14938477 29.02726074 -25.38330078 30.21850586 C-26 33 -26 33 -27 35 C-29.31 35 -31.62 35 -34 35 C-33.21053766 30.85374382 -32.41802789 26.70807558 -31.625 22.5625 C-31.29242187 20.81549805 -31.29242187 20.81549805 -30.953125 19.03320312 C-30.51481506 16.74496742 -30.06995948 14.45797461 -29.61816406 12.17236328 C-29.23203731 10.19079493 -28.86595901 8.20508956 -28.53027344 6.21435547 C-28.0859375 3.77734375 -28.0859375 3.77734375 -27 0 C-19.64627363 -4.60476633 -6.99831785 -5.13958459 0 0 Z " fill="#5D2D86" transform="translate(578,242)"/>
<path d="M0 0 C1.2065625 0.0309375 1.2065625 0.0309375 2.4375 0.0625 C2.4375 2.3725 2.4375 4.6825 2.4375 7.0625 C4.7475 7.7225 7.0575 8.3825 9.4375 9.0625 C9.4375 10.7125 9.4375 12.3625 9.4375 14.0625 C6.4675 14.0625 3.4975 14.0625 0.4375 14.0625 C-1.2125 22.9725 -2.8625 31.8825 -4.5625 41.0625 C-2.2525 41.0625 0.0575 41.0625 2.4375 41.0625 C2.7675 41.7225 3.0975 42.3825 3.4375 43.0625 C2.5 45.1875 2.5 45.1875 1.4375 47.0625 C-0.16629341 47.11666188 -1.77061406 47.15536638 -3.375 47.1875 C-4.26832031 47.21070313 -5.16164063 47.23390625 -6.08203125 47.2578125 C-8.5625 47.0625 -8.5625 47.0625 -11.5625 45.0625 C-13.48899606 36.31516654 -10.5481424 22.0337848 -6.5625 14.0625 C-8.8725 14.0625 -11.1825 14.0625 -13.5625 14.0625 C-13.8925 13.4025 -14.2225 12.7425 -14.5625 12.0625 C-13.625 9.9375 -13.625 9.9375 -12.5625 8.0625 C-10.2525 8.0625 -7.9425 8.0625 -5.5625 8.0625 C-5.253125 6.928125 -4.94375 5.79375 -4.625 4.625 C-3.26939655 0.07974138 -3.26939655 0.07974138 0 0 Z " fill="#5D2D86" transform="translate(648.5625,230.9375)"/>
<path d="M0 0 C0.61875 0.495 1.2375 0.99 1.875 1.5 C1.545 3.15 1.215 4.8 0.875 6.5 C-0.00542969 6.36980469 -0.88585937 6.23960937 -1.79296875 6.10546875 C-8.8016648 5.08864304 -8.8016648 5.08864304 -15.25 7.3125 C-18.88247477 13.48770711 -21.00827758 20.28656641 -20.125 27.5 C-19.06085742 29.33068826 -19.06085742 29.33068826 -17.125 30.5 C-14.14160601 30.64531394 -14.14160601 30.64531394 -10.9375 30.1875 C-9.30748047 30.00767578 -9.30748047 30.00767578 -7.64453125 29.82421875 C-6.81308594 29.71722656 -5.98164063 29.61023438 -5.125 29.5 C-5.125 31.15 -5.125 32.8 -5.125 34.5 C-10.48612376 37.18056188 -14.11926726 38.07197455 -20.125 37.5 C-25.48929383 35.51322451 -25.48929383 35.51322451 -27.26953125 32.67578125 C-30.1574202 25.33078515 -27.74070428 16.59817188 -25.125 9.5 C-19.91772724 -0.04666673 -10.34774518 -4.96691769 0 0 Z " fill="#5D2D86" transform="translate(474.125,240.5)"/>
<path d="M0 0 C1 1 1 1 1.4375 3.6875 C0.88886476 7.8414525 -0.52252926 8.92104825 -3.546875 11.61328125 C-5.16362113 12.99486453 -5.16362113 12.99486453 -6.125 15.3125 C-7 17 -7 17 -9.125 17.75 C-10.053125 17.87375 -10.053125 17.87375 -11 18 C-10.505 18.78375 -10.01 19.5675 -9.5 20.375 C-8 23 -8 23 -8 25 C-11.3125 25.3125 -11.3125 25.3125 -15 25 C-16.9375 22.5 -16.9375 22.5 -18 20 C-20.22655661 20.99811158 -21.76254312 21.70600576 -23.3125 23.625 C-25.99792857 25.81312698 -28.67227311 25.1883619 -32 25 C-30.53497827 23.26150755 -29.06087125 21.53416557 -27.5625 19.82421875 C-25.90813623 17.94536285 -25.90813623 17.94536285 -24.25 15.5625 C-21.47492466 13.63536435 -20.25712084 13.90876937 -16.9375 14.0625 C-14.33427549 14.22102008 -14.33427549 14.22102008 -12 14 C-9.97477807 11.87502253 -9.97477807 11.87502253 -9 9 C-7.68962066 7.31522656 -6.36176922 5.64351457 -5 4 C-7.64 4.33 -10.28 4.66 -13 5 C-12.66855019 2.51412643 -12.38738909 1.32540684 -10.4375 -0.3125 C-6.72622923 -1.35926868 -3.78735633 -0.6829659 0 0 Z " fill="#5D2D86" transform="translate(813,211)"/>
<path d="M0 0 C0.78375 0.04125 1.5675 0.0825 2.375 0.125 C2.53549385 5.21208176 1.99445346 9.63770924 0.84375 14.58984375 C0.68837769 15.26801651 0.53300537 15.94618927 0.3729248 16.64491272 C-0.11927257 18.78582609 -0.62193616 20.92411692 -1.125 23.0625 C-1.46293784 24.52392725 -1.80018406 25.98551462 -2.13671875 27.44726562 C-2.958163 31.00839555 -3.78900441 34.56725435 -4.625 38.125 C-6.935 38.125 -9.245 38.125 -11.625 38.125 C-10.85271982 30.5547474 -9.2744826 23.18636451 -7.6875 15.75 C-7.29014648 13.82607422 -7.29014648 13.82607422 -6.88476562 11.86328125 C-6.62501953 10.64253906 -6.36527344 9.42179688 -6.09765625 8.1640625 C-5.74586304 6.49657959 -5.74586304 6.49657959 -5.38696289 4.79541016 C-4.38570206 1.28634544 -3.7324432 0.17773539 0 0 Z " fill="#5D2D87" transform="translate(701.625,238.875)"/>
<path d="M0 0 C-0.54111508 8.2368418 -2.20962664 16.09444911 -4.0625 24.125 C-4.34416016 25.36765625 -4.62582031 26.6103125 -4.91601562 27.890625 C-5.60534368 30.92834184 -6.3001118 33.9647021 -7 37 C-9.31 37 -11.62 37 -14 37 C-13.29808244 29.027603 -11.73654385 21.32023362 -10.0625 13.5 C-9.79759766 12.21351563 -9.53269531 10.92703125 -9.25976562 9.6015625 C-9.00001953 8.38210937 -8.74027344 7.16265625 -8.47265625 5.90625 C-8.12086304 4.24045898 -8.12086304 4.24045898 -7.76196289 2.54101562 C-7.51051514 1.70248047 -7.25906738 0.86394531 -7 0 C-4.3333581 -1.33332095 -2.83319697 -0.67102033 0 0 Z " fill="#5E2D86" transform="translate(770,240)"/>
<path d="M0 0 C1.2065625 0.0309375 1.2065625 0.0309375 2.4375 0.0625 C3.71789964 4.49653567 3.05467845 8.12286352 2.0390625 12.515625 C1.80743912 13.56686554 1.80743912 13.56686554 1.57113647 14.63934326 C1.24450204 16.11282431 0.91307917 17.58525114 0.57714844 19.05664062 C0.06153067 21.31674887 -0.43918888 23.57976956 -0.9375 25.84375 C-1.25695248 27.27623373 -1.57723577 28.70853249 -1.8984375 30.140625 C-2.04952972 30.81973938 -2.20062195 31.49885376 -2.35629272 32.19854736 C-3.44564657 36.94564657 -3.44564657 36.94564657 -4.5625 38.0625 C-6.56208364 38.10330783 -8.56295254 38.10504356 -10.5625 38.0625 C-10.01340018 29.85558787 -8.3870449 22.00820297 -6.5625 14 C-6.28921875 12.76572266 -6.0159375 11.53144531 -5.734375 10.25976562 C-3.44694632 0.08407186 -3.44694632 0.08407186 0 0 Z " fill="#5D2D86" transform="translate(425.5625,238.9375)"/>
<path d="M0 0 C0.83848804 1.45537568 1.67063934 2.91440373 2.5 4.375 C3.19609375 5.59316406 3.19609375 5.59316406 3.90625 6.8359375 C5 9 5 9 5 11 C1.6875 11.3125 1.6875 11.3125 -2 11 C-3.9375 8.5 -3.9375 8.5 -5 6 C-7.22655661 6.99811158 -8.76254312 7.70600576 -10.3125 9.625 C-12.99792857 11.81312698 -15.67227311 11.1883619 -19 11 C-17.53559881 9.26224392 -16.06217024 7.53515065 -14.56640625 5.82421875 C-13.38537835 4.44880721 -12.26925872 3.01727897 -11.1875 1.5625 C-7.72973523 -0.90733198 -4.11319369 -0.31639951 0 0 Z " fill="#5D2E87" transform="translate(685,224)"/>
<path d="M0 0 C-2.12442806 4.87432226 -5.5767664 8.11735404 -10 11 C-12.62761142 11.56693304 -14.29830752 11.39399682 -17 11 C-13.80394215 3.66691296 -8.07603911 -1.1777557 0 0 Z " fill="#5D3088" transform="translate(545,224)"/>
<path d="M0 0 C1.4540625 0.0309375 1.4540625 0.0309375 2.9375 0.0625 C2.6075 3.0325 2.2775 6.0025 1.9375 9.0625 C-0.3725 9.0625 -2.6825 9.0625 -5.0625 9.0625 C-4.06477273 0.08295455 -4.06477273 0.08295455 0 0 Z " fill="#5E2D86" transform="translate(770.0625,224.9375)"/>
<path d="M0 0 C0.125 6.75 0.125 6.75 -1 9 C-3.31 9 -5.62 9 -8 9 C-7.4140625 2.84765625 -7.4140625 2.84765625 -7 1 C-4.53721199 -0.231394 -2.7204945 -0.07159196 0 0 Z " fill="#5D2E86" transform="translate(707,225)"/>
<path d="M0 0 C2.625 0.375 2.625 0.375 5 1 C4.67 3.64 4.34 6.28 4 9 C1.69 9 -0.62 9 -3 9 C-2.25 2.25 -2.25 2.25 0 0 Z " fill="#5E2C86" transform="translate(900,279)"/>
</svg>
