<?xml version="1.0" encoding="UTF-8" standalone="no"?>
<!-- Created with Inkscape (http://www.inkscape.org/) -->

<svg
   version="1.1"
   id="svg1"
   width="3000"
   height="860"
   viewBox="0 0 3000 860"
   xmlns="http://www.w3.org/2000/svg"
   xmlns:svg="http://www.w3.org/2000/svg">
  <defs
     id="defs1" />
  <g
     id="g2"
     transform="matrix(1.0908039,0,0,1.0897886,-17.938392,-18.704669)">
    <path
       style="fill:#e7222d;fill-opacity:1"
       d="M 403.41083,799.17021 C 384.53441,792.88229 372.10547,786.20914 357.26959,773.78879 343.813,763.70997 332.62698,748.546 324.00022,734.56133 252.50625,608.31092 178.74747,483.36367 106.99849,357.25 98.502882,342.67112 61.691076,278.83706 45.158375,250.86031 29.043071,223.55613 26.141245,216.48046 21.418829,200.20028 c -1.871344,-6.45132 -4.875096,-15.80543 -4.970515,-36.13071 -0.08883,-18.92108 1.680517,-29.20804 4.050357,-38.93303 10.445998,-42.866732 42.066248,-79.683366 83.752499,-97.51615 18.52588,-7.925107 38.52353,-11.194964 63.1051,-10.31844 12.65352,0.451196 18.39513,1.139089 26.55742,3.181803 33.62057,8.413963 61.01147,24.628155 77.39661,45.815351 50.7038,80.743766 96.99642,164.261006 144.66468,246.849106 22.09157,38.36226 33.93345,58.38082 34.22833,57.85179 4.94782,-8.87645 10.60859,-18.03978 15.79906,-27 10.00642,-17.23316 33.9878,-58.72888 70.50674,-122 C 619.74507,77.789035 618.00664,80.738177 625.57969,70.89644 638.30461,54.359448 658.35153,38.627207 678.14779,29.64251 707.57513,16.286668 731.34821,16.993523 743.5,17.371597 c 18.57611,0.577951 28.92783,2.349888 43.76795,7.491894 29.72847,10.300728 54.72388,32.912086 67.16597,49.588746 5.96915,8.000714 11.97049,18.642305 16.69994,29.612373 7.8132,18.12287 10.82168,33.79536 10.84771,56.5105 0.0373,32.57718 -6.20454,52.35764 -28.3111,89.71753 -91.71665,159.37978 -184.88053,317.93651 -275.05247,478.2013 -17.03448,31.19202 -36.45564,48.87826 -63.9853,62.44466 -20.92234,10.31036 -37.04561,15.40061 -65.37825,15.36868 -25.59912,-0.0289 -32.87163,-2.81598 -45.84362,-7.13707 z m 527.83984,1.35003 c -11.57458,-3.26094 -20.37749,-9.55458 -26.40253,-18.87649 -7.48143,-11.57523 -6.90918,7.08571 -6.86631,-223.90985 0.0374,-201.33315 0.0971,-207.92025 1.93035,-212.74489 2.9499,-7.76352 6.4795,-13.14631 12.01619,-18.32524 5.45989,-5.10709 13.96506,-9.63808 18.12163,-9.654 1.4025,-0.005 3.063,-0.52277 3.69,-1.14977 1.76355,-1.76355 21.69621,-1.43288 28.03009,0.465 12.85563,3.85206 24.25504,12.8382 29.50364,23.25767 6.03263,11.97594 5.72792,0.28089 5.70891,219.11474 -0.019,218.79978 0.30592,206.84503 -5.95953,219.2568 -5.31998,10.53882 -14.04839,17.57637 -26.92368,21.70803 -6.79456,2.18037 -26.34276,2.69096 -32.84876,0.858 z m 654.57623,-1.08483 c -16.6471,-5.36044 -28.2248,-19.26367 -30.7573,-36.93541 -0.6287,-4.38688 -1.1303,-71.105 -1.3437,-178.72396 -0.1873,-94.44818 -0.5397,-171.89968 -0.7832,-172.11444 -0.2435,-0.21477 -20.0874,-0.6668 -44.0977,-1.00451 -49.0268,-0.68959 -49.5948,-0.77043 -58.9796,-8.39284 -9.7876,-7.94967 -14.8608,-18.79611 -15.6203,-33.39637 -1.221,-23.46884 9.0907,-39.99462 30.01,-48.09479 5.1861,-2.00811 6.7414,-2.02889 138.7449,-1.85417 89.7824,0.11884 134.8044,0.52171 137.4833,1.23025 9.7975,2.59138 21.253,11.13203 26.1584,19.5024 8.0457,13.729 8.5879,35.17728 1.2526,49.55556 -3.1753,6.22422 -11.1712,14.11429 -17.3889,17.15879 -9.3252,4.56612 -13.783,4.90338 -56.1501,4.24814 -35.0845,-0.54262 -39.2074,-0.4418 -39.75,0.97205 -0.3329,0.86761 -0.6053,79.97112 -0.6053,175.78558 0,189.79181 0.3107,179.16147 -5.5758,190.7779 -3.8003,7.4995 -10.7659,14.44004 -17.8351,17.77083 -13.7414,6.47457 -31.2913,7.85269 -44.7622,3.51499 z m -486.5624,-2.92262 c -8.0092,-2.24019 -15.0544,-6.20086 -20.9528,-11.77927 -6.8138,-6.44427 -10.8478,-13.51769 -13.3474,-23.40445 -1.9448,-7.69193 -1.9749,-11.39372 -1.7219,-211.32907 l 0.2576,-203.5 2.6604,-5.67515 c 5.2132,-11.12065 15.8552,-19.48786 27.4048,-21.54682 2.7425,-0.4889 67.5745,-0.73931 145.9348,-0.56366 124.7748,0.2797 141.6294,0.49749 146.4699,1.89271 20.1214,5.79978 31.0657,21.23623 31.0057,43.73201 -0.029,10.7879 -1.0732,15.94394 -4.7511,23.45507 -5.737,11.7165 -16.3906,19.8193 -29.2245,22.22718 -5.3975,1.01268 -134.7202,0.61938 -182.6166,-0.55538 -12.9486,-0.31759 -22.1313,-0.13212 -23.74,0.47952 -1.4646,0.55683 -3.5883,0.64054 -4.8076,0.18949 -1.3895,-0.51402 -3.2155,-0.29337 -5.0194,0.60651 l -2.8353,1.41445 0.2594,48.67203 0.2595,48.67204 105.5,0.50647 c 116.4744,0.55915 109.3282,0.14545 119.9203,6.94241 15.5995,10.01012 22.9916,26.7938 20.1736,45.80366 -2.8047,18.92031 -15.9927,33.93164 -33.5411,38.17835 -3.708,0.89733 -30.66,1.14229 -107.5943,0.97792 -56.4559,-0.12062 -103.1672,0.10211 -103.8028,0.49496 -0.85,0.52535 -1.1557,14.31551 -1.1557,52.13862 v 51.42436 l 113.8024,0.26663 113.8023,0.26662 7.5223,3.71796 c 9.3162,4.60462 16.7251,12.13668 21.1715,21.52351 3.0708,6.48258 3.2015,7.2689 3.2015,19.25853 0,12.34627 -0.045,12.59507 -3.6912,20.22998 -4.1233,8.63482 -10.7948,16.3997 -17.4329,20.2899 -2.4265,1.42203 -8.1163,3.52708 -12.6439,4.6779 -8.0579,2.04815 -9.2893,2.07393 -58.232,1.21905 -52.3489,-0.91437 -106.4482,-0.91108 -182,0.0111 -37.6867,0.45998 -45.8508,0.31126 -50.2355,-0.91511 z M 1141,329.45516 c 0,-0.18197 -0.8688,-0.26542 -1.9307,-0.18543 -1.0619,0.08 -1.7225,0.48237 -1.468,0.89418 0.4224,0.68351 3.3987,0.0629 3.3987,-0.70875 z m 15,0.15183 c 0,-0.21616 -0.6984,-0.661 -1.5519,-0.98855 -0.89,-0.34149 -1.2914,-0.17385 -0.941,0.39301 0.5872,0.95021 2.4929,1.40545 2.4929,0.59554 z"
       id="path1" />
    <path
       style="fill:#22447b;fill-opacity:1"
       d="m 1994.3693,803.436 c -46.882,-5.68408 -91.5509,-23.44305 -127.8148,-50.81517 -20.2957,-15.31924 -45.162,-42.49936 -58.2048,-63.62083 -23.6056,-38.22689 -35.3106,-81.4518 -35.3401,-130.50613 -0.028,-45.86358 11.3257,-89.29297 32.686,-125.03261 29.9265,-50.07273 74.6571,-85.93548 132.6619,-106.36173 49.302,-17.36162 118.986,-19.79126 171.6425,-5.98458 69.2819,18.16591 126.1579,62.46167 157.9077,122.9806 12.2805,23.40805 19.8935,46.73309 24.2846,74.40445 1.9133,12.05677 2.2195,17.88647 2.2063,42 -0.014,25.90256 -0.2132,29.08617 -2.6569,42.5 -7.4834,41.07728 -21.9711,74.17849 -46.5746,106.4129 -4.2169,5.52477 -10.7046,13.15168 -14.4171,16.94869 -6.4992,6.64719 -7.7903,8.87742 -5.8378,10.08417 0.5018,0.31008 2.7959,3.99592 5.0982,8.19075 2.3022,4.19483 9.7667,17.25069 16.5878,29.01301 6.821,11.76232 12.4018,21.94054 12.4017,22.61826 -10e-5,0.96256 -11.2075,1.19349 -51.2119,1.05522 l -51.2118,-0.17699 -5.1203,-8.82301 c -2.8161,-4.85265 -13.5677,-23.448 -23.8923,-41.323 -10.3246,-17.875 -22.7207,-39.25 -27.5468,-47.5 -8.5401,-14.59891 -29.0204,-50.2024 -59.1898,-102.8973 -8.1549,-14.24351 -14.8269,-25.94351 -14.8269,-26 10e-5,-0.0565 23.2825,-0.0331 51.7387,0.0521 42.1646,0.12613 51.8839,0.4037 52.5241,1.5 0.4321,0.73988 7.0188,12.14523 14.6371,25.34523 19.4153,33.64023 19.5158,33.80526 20.855,34.25168 2.4937,0.83121 10.7923,-22.11266 14.197,-39.25168 13.0039,-65.45988 -12.3217,-129.85181 -64.1582,-163.12599 -28.0941,-18.03376 -65.2897,-26.38135 -99.2938,-22.28388 -45.0575,5.4294 -82.4804,27.71532 -105.6394,62.90987 -14.8043,22.49811 -22.1706,44.00633 -25.3192,73.9282 -3.7426,35.56603 5.3721,73.68796 24.6949,103.28536 19.0086,29.1161 49.2337,50.48437 83.8899,59.30774 13.347,3.39811 21.8319,4.45836 36.3968,4.54807 12.3417,0.076 12.5524,0.11556 14.252,2.67562 0.9487,1.42915 12.5507,21.30868 25.7821,44.17673 l 24.0571,41.57828 -5.0571,1.21739 c -17.5199,4.21758 -70.3739,5.72711 -95.1878,2.71861 z M 2345.75,797.43858 C 2345.3375,797.01403 2345,689.64167 2345,558.83333 V 321 l 116.75,0.009 c 122.4053,0.01 126.8264,0.1433 150.3527,4.54976 45.7902,8.57646 87.469,31.76261 112.1254,62.37598 26.0578,32.35324 36.6016,69.92771 33.7468,120.26091 -1.0503,18.51744 -3.696,31.74608 -9.4622,47.31191 -7.8803,21.2728 -16.7349,34.78689 -34.4665,52.60338 -14.4629,14.5321 -27.2549,23.91441 -43.7962,32.12226 -4.5375,2.25153 -8.25,4.50689 -8.25,5.01191 0,0.50502 1.5065,2.79396 3.3478,5.08652 1.8414,2.29257 8.0048,10.9183 13.6966,19.1683 17.9069,25.95539 32.5608,46.9651 73.9331,106 7.3234,10.45 13.4976,19.675 13.7202,20.5 0.3571,1.32262 -6.6076,1.47683 -58.8964,1.30405 L 2648.5,797.10809 2580.3146,698.80405 C 2542.8126,644.73682 2507.7935,594.2 2502.4944,586.5 c -5.2992,-7.7 -15.251,-22.1 -22.1153,-32 -6.8642,-9.9 -12.8631,-18.675 -13.3307,-19.5 -0.7517,-1.32601 6.0087,-1.5 58.2818,-1.5 h 59.1321 l 10.5189,15.21759 c 5.7853,8.36968 11.0803,15.23218 11.7665,15.25 4.2014,0.10912 21.5328,-15.4809 27.7564,-24.96759 8.8783,-13.53307 11.7664,-24.70231 11.8946,-46 0.081,-13.39375 -0.2204,-16.58529 -2.2146,-23.48666 -9.3695,-32.42496 -31.1997,-49.85001 -71.6688,-57.2066 -10.7432,-1.95292 -113.9187,-3.04673 -116.1067,-1.23089 -1.2025,0.99802 -1.4086,29.31147 -1.4086,193.54659 V 797 h -48.3533 c -26.5943,0 -51.0068,0.27236 -54.25,0.60525 -3.2432,0.33289 -6.2342,0.25789 -6.6467,-0.16667 z"
       id="path2" />
    <path
       style="fill:#9e2d1f;fill-opacity:1;stroke-width:0.749979"
       d="m 323.29246,434.95004 c -27.33472,-4.2276 -44.69936,-11.0612 -62.99825,-24.7923 -8.81547,-6.6149 -27.5117,-27.1206 -36.94164,-40.5171 -39.66248,-61.127 -74.57716,-125.28651 -110.75066,-188.52449 -16.468034,-29.77147 -18.830914,-37.08194 -18.746464,-57.99839 0.06599,-16.34436 1.861966,-25.760205 8.098714,-40.139795 5.39893,-12.4479 10.64279,-20.16413 21.40341,-30.72257 13.63582,-13.37955 21.05455,-16.53925 38.18144,-21.89352 9.59763,-3.00043 17.8936,-3.54296 29.22,-3.45884 12.32696,0.0914 28.9327,-1.4869 55.18308,15.8193 21.46228,14.14956 27.87529,22.59335 53.40505,66.895815 44.94636,77.71863 89.75092,155.51941 134.75522,233.20459 l 16.05256,27.7103 -2.83216,5.7887 c -1.5577,3.1838 -5.84496,9.1132 -9.52719,13.1765 -14.3198,15.8016 -26.51042,24.6851 -49.86626,36.3383 -7.28004,3.6324 -21.15803,7.06 -33.45582,9.1248 -6.57182,1.1034 -24.78051,0.9786 -31.18103,-0.011 z"
       id="path3" />
  </g>
</svg>
