<?xml version="1.0" standalone="no"?>
<!DOCTYPE svg PUBLIC "-//W3C//DTD SVG 20010904//EN"
 "http://www.w3.org/TR/2001/REC-SVG-20010904/DTD/svg10.dtd">
<svg version="1.0" xmlns="http://www.w3.org/2000/svg"
 width="3840.000000pt" height="485.000000pt" viewBox="0 0 3840.000000 485.000000"
 preserveAspectRatio="xMidYMid meet">

<g transform="translate(0.000000,485.000000) scale(0.100000,-0.100000)"
fill="#000000" stroke="none">
<path d="M30165 3356 c-95 -24 -188 -86 -223 -150 -16 -29 -17 -136 -17 -1488
0 -1385 1 -1458 18 -1475 15 -15 40 -18 174 -21 167 -4 193 -1 217 24 14 14
16 168 16 1535 0 1070 -3 1526 -11 1541 -12 23 -67 48 -101 47 -13 0 -45 -6
-73 -13z"/>
<path d="M8040 3263 c-56 -9 -70 -14 -80 -33 -13 -24 -13 -23 265 -700 690
-1682 900 -2190 922 -2232 40 -73 67 -82 258 -82 201 0 221 7 263 91 16 32
285 696 597 1476 410 1025 565 1424 561 1441 -8 32 -28 36 -186 36 -149 0
-173 -7 -201 -55 -10 -17 -192 -475 -404 -1020 -212 -545 -426 -1091 -474
-1215 -55 -140 -93 -225 -101 -225 -9 0 -46 81 -98 210 -46 116 -268 671 -494
1235 -225 564 -416 1033 -426 1042 -9 10 -41 22 -71 28 -51 9 -277 12 -331 3z"/>
<path d="M27580 3256 c-96 -21 -157 -65 -190 -138 -24 -54 -25 -102 -1 -153
23 -50 43 -68 105 -96 103 -45 264 -8 334 76 134 163 -23 360 -248 311z"/>
<path d="M11106 3240 c-88 -35 -155 -121 -156 -200 0 -52 38 -120 87 -154 34
-24 55 -30 116 -34 105 -6 177 17 239 79 140 140 44 330 -166 329 -45 -1 -89
-8 -120 -20z"/>
<path d="M25487 3246 c-51 -19 -63 -30 -91 -90 -69 -146 -1196 -2871 -1196
-2890 0 -45 22 -51 184 -51 112 0 159 4 181 15 28 14 45 53 217 479 104 260
194 471 204 478 26 19 1262 19 1287 0 12 -9 347 -783 347 -803 0 -2 14 -35 31
-73 42 -94 47 -96 280 -96 159 1 190 3 212 18 46 30 121 -161 -744 1911 -225
538 -421 1000 -435 1026 -43 78 -62 85 -264 88 -130 1 -185 -1 -213 -12z m195
-526 c289 -737 468 -1205 468 -1225 0 -17 -7 -26 -22 -30 -13 -3 -247 -4 -521
-3 -412 3 -499 5 -506 17 -11 17 -6 32 139 406 61 160 166 432 232 605 66 173
124 325 129 338 5 13 14 22 21 20 6 -2 33 -60 60 -128z"/>
<path d="M30961 3243 c-64 -23 -135 -97 -150 -156 -32 -130 67 -237 221 -237
250 0 374 245 190 375 -40 27 -52 30 -130 32 -60 2 -101 -3 -131 -14z"/>
<path d="M14753 3071 c-56 -26 -182 -112 -215 -147 -52 -55 -61 -94 -67 -284
l-6 -175 -162 -5 c-114 -4 -166 -9 -175 -18 -8 -8 -13 -41 -13 -92 0 -115 -2
-114 195 -118 l160 -4 0 -757 c0 -461 4 -790 10 -841 42 -341 207 -463 605
-447 239 10 375 68 375 161 0 57 -20 72 -92 67 -162 -11 -252 -6 -298 15 -95
43 -143 120 -160 255 -12 96 -14 1517 -2 1536 5 8 78 12 245 15 280 4 267 -2
267 115 0 116 8 113 -270 113 -216 0 -230 1 -240 19 -6 12 -10 121 -10 285 0
260 0 265 -22 290 -31 35 -73 41 -125 17z"/>
<path d="M12788 2489 c-189 -18 -357 -70 -502 -155 -96 -56 -231 -184 -293
-277 -212 -318 -252 -859 -92 -1242 99 -240 314 -446 573 -550 180 -73 341
-99 564 -92 191 6 306 32 457 106 205 101 367 258 457 443 56 117 59 197 8
223 -63 33 -105 12 -167 -83 -109 -167 -324 -316 -538 -373 -119 -32 -338 -32
-450 -1 -339 97 -533 373 -552 786 -6 118 -5 130 12 142 16 12 165 14 834 14
791 0 817 1 848 20 44 26 57 79 50 195 -28 441 -413 792 -928 845 -113 11
-155 11 -281 -1z m310 -235 c178 -40 340 -153 414 -291 57 -104 76 -244 37
-279 -20 -18 -48 -19 -649 -22 -543 -2 -629 0 -639 12 -10 12 -9 31 8 96 95
376 435 574 829 484z"/>
<path d="M18980 2493 c-236 -16 -421 -61 -580 -140 -96 -47 -127 -69 -191
-132 -108 -108 -149 -204 -128 -301 18 -83 85 -130 184 -130 107 0 165 43 232
172 112 219 271 310 543 311 233 1 379 -73 453 -231 30 -63 32 -75 35 -209 5
-166 15 -153 -133 -177 -177 -30 -422 -86 -574 -131 -525 -157 -798 -382 -844
-697 -31 -214 75 -395 299 -510 210 -107 432 -150 774 -150 301 0 484 37 709
143 107 50 145 79 174 132 l22 42 0 725 c0 804 2 772 -67 920 -47 100 -159
206 -279 263 -173 83 -386 117 -629 100z m548 -1441 c1 -239 -2 -409 -8 -431
-23 -85 -123 -158 -270 -198 -94 -26 -398 -25 -490 1 -101 28 -170 65 -232
123 -78 75 -102 133 -102 243 1 281 241 460 804 598 91 22 183 45 205 50 22 6
51 10 65 9 l25 -2 3 -393z"/>
<path d="M35013 2489 c-265 -27 -498 -127 -659 -284 -213 -208 -314 -488 -314
-870 0 -274 58 -490 182 -682 158 -243 440 -413 776 -469 142 -23 402 -16 515
15 239 63 451 200 583 374 69 91 127 218 132 287 4 52 2 59 -23 78 -58 46
-109 25 -173 -70 -97 -143 -264 -277 -423 -338 -135 -52 -201 -64 -349 -64
-159 0 -237 16 -355 74 -145 71 -246 173 -320 325 -55 114 -82 217 -97 375
-13 141 -9 175 24 184 13 3 389 6 835 6 l813 0 32 29 c33 29 33 30 36 134 9
262 -121 510 -359 687 -131 98 -311 172 -482 200 -95 15 -272 20 -374 9z m226
-219 c234 -27 430 -151 518 -330 35 -70 38 -81 38 -165 0 -85 -1 -90 -25 -102
-20 -10 -158 -12 -650 -10 l-625 2 -3 26 c-5 41 26 146 64 223 113 224 308
348 574 364 14 1 63 -3 109 -8z"/>
<path d="M37177 2488 c-248 -25 -461 -121 -569 -256 -89 -109 -132 -276 -110
-426 17 -119 66 -213 157 -301 124 -121 270 -193 650 -324 443 -153 586 -255
602 -430 19 -211 -152 -341 -472 -358 -281 -14 -473 85 -578 300 -44 92 -105
161 -154 178 -45 15 -121 15 -166 0 -46 -15 -94 -70 -103 -116 -10 -56 0 -126
27 -181 30 -62 166 -198 241 -242 196 -116 403 -165 688 -164 514 1 857 193
925 517 40 190 -11 364 -144 495 -125 123 -258 191 -644 329 -377 135 -472
183 -562 283 -125 139 -85 336 85 423 94 48 155 60 305 59 267 -1 396 -68 488
-250 57 -114 109 -154 212 -161 162 -12 240 129 159 288 -124 246 -556 387
-1037 337z"/>
<path d="M16490 2484 c-19 -2 -73 -9 -120 -15 -177 -21 -433 -90 -540 -144
-55 -28 -94 -68 -115 -118 -14 -34 -16 -142 -15 -989 0 -597 4 -957 10 -968
14 -27 58 -33 218 -33 160 1 185 9 196 64 3 17 6 415 6 883 l0 851 24 50 c41
90 131 149 276 181 105 23 351 24 443 1 147 -36 257 -115 317 -228 67 -126 64
-83 70 -962 l5 -799 22 -17 c46 -38 362 -34 390 5 11 16 13 155 11 824 -3 803
-4 805 -26 878 -88 287 -303 452 -672 517 -91 16 -421 28 -500 19z"/>
<path d="M21139 2480 c-255 -19 -607 -126 -697 -213 -72 -69 -67 9 -70 -1022
-2 -511 0 -945 3 -963 3 -17 16 -39 28 -47 48 -31 331 -31 374 0 17 13 18 56
23 902 l5 888 23 50 c60 129 184 184 418 185 187 0 290 -30 379 -112 66 -60
101 -116 129 -207 20 -64 20 -96 26 -878 3 -558 8 -815 16 -823 26 -26 222
-38 327 -21 89 15 81 -63 87 859 l5 817 27 73 c47 130 127 212 257 264 49 20
74 23 206 23 132 0 157 -3 205 -23 148 -59 241 -185 270 -364 6 -39 10 -360
10 -840 l0 -778 27 -17 c23 -15 51 -18 183 -18 185 0 205 7 215 77 3 24 5 394
3 823 -4 766 -4 781 -26 858 -99 356 -456 542 -973 506 -234 -16 -428 -87
-557 -205 l-62 -55 -72 61 c-130 109 -314 182 -498 195 -157 12 -188 12 -291
5z"/>
<path d="M28815 2479 c-160 -20 -372 -90 -454 -149 -22 -16 -52 -51 -68 -77
l-28 -48 -3 -966 c-2 -942 -2 -967 17 -990 19 -24 22 -24 196 -24 174 0 177 0
196 24 18 22 19 52 19 910 0 602 4 898 11 925 16 56 91 128 165 155 115 44
286 44 380 0 26 -13 91 -64 144 -114 101 -95 138 -115 218 -115 163 0 226 174
110 304 -69 79 -224 142 -409 166 -90 11 -397 11 -494 -1z"/>
<path d="M32520 2479 c-280 -28 -579 -110 -690 -189 -17 -12 -40 -40 -53 -63
l-22 -42 -3 -940 c-2 -517 0 -955 3 -972 3 -19 15 -38 27 -44 28 -15 206 -24
292 -14 117 12 106 -86 106 903 0 972 -3 927 76 1012 85 91 223 130 456 130
86 0 170 -6 211 -15 188 -40 317 -161 373 -350 16 -54 18 -134 23 -853 7 -908
-5 -815 109 -828 36 -4 113 -4 171 -1 98 5 107 7 128 32 l23 26 0 732 c0 455
-4 764 -11 817 -44 356 -273 569 -688 641 -135 23 -394 32 -531 18z"/>
<path d="M27654 2466 c-102 -25 -197 -89 -225 -151 -18 -38 -19 -94 -19 -1041
0 -972 1 -1002 19 -1025 19 -24 22 -24 195 -24 155 0 177 2 193 18 17 17 18
76 21 1085 2 749 -1 1075 -9 1093 -19 47 -93 66 -175 45z"/>
<path d="M11179 2447 c-82 -34 -146 -84 -169 -132 -20 -41 -20 -60 -20 -1047
0 -1112 -5 -1031 63 -1043 19 -4 99 -5 180 -3 124 3 149 6 164 21 17 17 18 77
21 1093 l2 1075 -29 30 c-26 26 -36 29 -93 29 -42 0 -81 -8 -119 -23z"/>
<path d="M31027 2446 c-31 -13 -78 -41 -102 -61 -87 -71 -80 29 -80 -1112 0
-958 1 -1013 18 -1030 16 -16 38 -18 191 -18 157 0 176 2 195 19 l21 19 0
1079 0 1079 -25 24 c-21 22 -33 25 -92 25 -48 0 -85 -7 -126 -24z"/>
</g>
</svg>
