<?xml version="1.0" encoding="UTF-8"?>
<svg version="1.1" xmlns="http://www.w3.org/2000/svg" width="3840" height="1320">
<path d="M0 0 C3.05143847 0.27817986 6.10410671 0.53717074 9.15753174 0.79260254 C199.94151172 16.78208376 199.94151172 16.78208376 255.81329346 64.25646973 C256.74141846 65.02346191 257.66954346 65.7904541 258.62579346 66.58068848 C285.9877975 90.18041696 300.01610958 128.19950347 303.0010376 163.47521973 C303.17053252 165.85976823 303.30843959 168.24445003 303.43829346 170.63146973 C303.48985596 171.39846191 303.54141846 172.1654541 303.59454346 172.95568848 C304.38796521 187.58731903 302.71316692 202.14940682 300.37579346 216.56896973 C300.24835754 217.36616425 300.12092163 218.16335876 299.98962402 218.98471069 C289.92427391 281.37140866 271.54751976 342.53221491 251.17608643 402.24475098 C249.92068414 405.92922964 248.69476361 409.62303998 247.47344971 413.31896973 C220.31418913 494.79675146 183.91319154 575.89844513 140.81329346 650.25646973 C140.26882568 651.19700195 139.72435791 652.13753418 139.16339111 653.10656738 C135.69734662 659.08546887 132.20907717 665.05112162 128.71270752 671.0123291 C127.05766518 673.83909036 125.40784286 676.66877049 123.76075745 679.50016785 C35.47400462 831.25670891 35.47400462 831.25670891 -34.99139404 850.28381348 C-72.76351111 858.8041351 -108.62686885 846.12719811 -140.33905029 826.30993652 C-166.23668004 809.8721877 -190.26559306 790.55544469 -213.55828857 770.64660645 C-215.2632465 769.19112962 -216.97282984 767.7412092 -218.68280029 766.29162598 C-225.42597041 760.5608551 -232.0303144 754.71063688 -238.52655029 748.70178223 C-240.698919 746.7048618 -242.89209817 744.74818239 -245.12420654 742.81896973 C-256.90754727 732.560438 -267.98887814 721.61241876 -279.01824951 710.55529785 C-281.57456584 707.99358327 -284.13623584 705.43730867 -286.69842529 702.88146973 C-288.34848588 701.23074887 -289.99823652 699.57971812 -291.64764404 697.92834473 C-292.40193695 697.17607605 -293.15622986 696.42380737 -293.93338013 695.64874268 C-297.98416471 691.58018178 -301.87601417 687.42943089 -305.61386108 683.07086182 C-308.3791131 679.88094169 -311.29172009 676.82823394 -314.18670654 673.75646973 C-318.95327192 668.67043113 -323.66093215 663.55920109 -328.18670654 658.25646973 C-329.08486305 657.2119572 -329.98333088 656.16771235 -330.88201904 655.12365723 C-333.47707363 652.10616172 -336.06463749 649.0823487 -338.64910889 646.05578613 C-339.6405004 644.89564713 -340.63293559 643.73639878 -341.62664795 642.57824707 C-348.23809477 634.87223592 -354.60345709 627.0087324 -360.8336792 618.99182129 C-362.13578067 617.32178569 -363.44631048 615.65885372 -364.76092529 613.99865723 C-376.74136151 598.86404967 -388.46551586 583.60476297 -399.24920654 567.58850098 C-401.77749459 563.8360838 -404.39793516 560.16324138 -407.06170654 556.50646973 C-414.16004528 546.68890324 -420.6306398 536.43951096 -427.18670654 526.25646973 C-427.78031982 525.33769043 -428.37393311 524.41891113 -428.98553467 523.47229004 C-442.34252599 502.78014651 -455.0021096 481.65883582 -467.18670654 460.25646973 C-467.72118408 459.31899902 -468.25566162 458.38152832 -468.80633545 457.41564941 C-476.55825806 443.78623543 -484.00844483 430.03053641 -491.17498779 416.08459473 C-492.99042661 412.55327156 -494.83049123 409.04032189 -496.72967529 405.55334473 C-532.3988774 339.91421157 -578.53545157 238.01436816 -558.00311279 162.72912598 C-549.49725387 134.03552837 -531.72200968 113.00543058 -508.18670654 95.25646973 C-507.30498779 94.57971191 -506.42326904 93.9029541 -505.51483154 93.20568848 C-427.52203469 34.71109084 -323.48416598 16.50741397 -192.61181641 0.46221924 C-190.17967412 0.25587309 -187.74943229 0.03360174 -185.31903076 -0.19226074 C-124.42668136 -5.75777678 -60.87084984 -5.66829933 0 0 Z M-63.38366699 262.28253174 C-120.25476719 262.98105243 -176.98398936 267.06564136 -233.43670654 273.94396973 C-234.29398346 274.04643005 -235.15126038 274.14889038 -236.03451538 274.25445557 C-238.40434673 274.54067643 -240.77221041 274.83928883 -243.13983154 275.14318848 C-243.83281845 275.22635818 -244.52580536 275.30952789 -245.23979187 275.3952179 C-249.13610022 275.8787989 -249.13610022 275.8787989 -252.18670654 278.25646973 C-244.86289897 291.15169586 -237.20821561 303.7841299 -229.18670654 316.25646973 C-228.4587085 317.39076416 -228.4587085 317.39076416 -227.71600342 318.54797363 C-215.12817066 338.1455181 -202.17057022 357.51015611 -188.53045654 376.39318848 C-187.0257384 378.47967265 -185.5280559 380.57112062 -184.03045654 382.66271973 C-177.5762167 391.66051639 -170.98952903 400.51951143 -164.18670654 409.25646973 C-162.95396776 410.85903015 -161.72429257 412.46390878 -160.49481201 414.06896973 C-151.07827143 426.35366085 -141.45559183 438.46072222 -131.66326904 450.44787598 C-130.35623114 452.04882452 -129.05247299 453.65244949 -127.74920654 455.25646973 C-121.98730546 462.33537677 -116.11414376 469.31617755 -110.18670654 476.25646973 C-109.68123291 476.84976074 -109.17575928 477.44305176 -108.65496826 478.05432129 C-100.95289848 487.07969648 -93.00434603 495.82944621 -84.86688232 504.4630127 C-82.74153581 506.73165488 -80.64407018 509.02492246 -78.54730225 511.31994629 C-70.50880571 520.10746954 -62.30421024 528.78801056 -53.21405029 536.50256348 C-50.80763573 538.58441345 -48.50794296 540.76759502 -46.18670654 542.94396973 C-30.7501657 556.99079429 -8.52810691 575.74241257 13.16485596 576.31896973 C24.51094144 575.74266062 34.04199033 570.05074898 42.81329346 563.25646973 C43.60477783 562.66865723 44.39626221 562.08084473 45.21173096 561.47521973 C57.97038496 551.5823557 69.89050726 539.55681278 79.80548096 526.82287598 C81.66269614 524.44896474 83.6000258 522.16682728 85.57647705 519.89196777 C93.49799218 510.74203554 100.66859902 501.01755297 107.81329346 491.25646973 C108.27335785 490.62971344 108.73342224 490.00295715 109.20742798 489.35720825 C117.1588827 478.50798235 124.80858815 467.48892786 132.2432251 456.27966309 C133.87483201 453.82041887 135.51259008 451.3653594 137.15118408 448.9107666 C147.00154948 434.12247767 156.54009938 419.13945957 165.75079346 403.94396973 C166.326521 402.99594482 166.90224854 402.04791992 167.49542236 401.07116699 C173.20595686 391.64574839 178.8312317 382.1711594 184.39727783 372.65979004 C185.68099281 370.48101586 186.98447061 368.31598813 188.29766846 366.15490723 C197.0948159 351.54138398 199.99966378 336.2172611 195.82891846 319.42053223 C191.6211708 306.31177993 182.67663211 298.54673542 170.81329346 292.25646973 C102.11058825 259.25251931 11.45721653 261.39471239 -63.38366699 262.28253174 Z " fill="#478435" transform="translate(3152.1867065429688,2.7435302734375)"/>
<path d="M0 0 C3.18780696 0.00564848 6.37560859 0.00846361 9.56341934 0.0110817 C38.79774133 0.04598475 67.88234142 0.34912859 97.01095963 3.06158829 C100.06239809 3.33976815 103.11506633 3.59875903 106.16849136 3.85419083 C302.42939588 20.30268953 302.42939588 20.30268953 336.82425308 58.31805801 C338.41609026 59.5837219 340.02190846 60.83188346 341.63675308 62.06805801 C358.82523399 75.74764785 370.15683138 96.78295775 373.82425308 118.31805801 C373.95444839 119.05797989 374.08464371 119.79790176 374.21878433 120.56024551 C384.62534842 194.09996505 333.04602225 282.01414155 299.38675308 344.38055801 C298.87781509 345.32850235 298.36887711 346.27644669 297.84451675 347.25311661 C297.3647438 348.13177383 296.88497086 349.01043106 296.39065933 349.91571426 C295.96728287 350.69438858 295.5439064 351.4730629 295.10770035 352.2753334 C293.85912856 354.26255048 292.55056921 355.73961296 290.82425308 357.31805801 C291.16649918 355.72090958 291.16649918 355.72090958 291.51565933 354.09149551 C294.56663437 339.05442265 294.74760696 325.63615832 286.88675308 311.94305801 C262.52992323 280.94345638 206.82535158 277.14474086 170.53274918 272.74725723 C125.87750675 267.57912582 80.7612087 265.75068228 35.82425308 266.31805801 C34.73675766 266.33095871 34.73675766 266.33095871 33.62729263 266.34412003 C-24.87830146 267.06271643 -83.34043449 271.13447565 -141.35079575 278.79413223 C-142.1291629 278.8966983 -142.90753006 278.99926437 -143.7094841 279.10493851 C-145.14078709 279.29488269 -146.57174057 279.48748948 -148.00223923 279.6833992 C-151.11338262 280.10000142 -154.02448171 280.31805801 -157.17574692 280.31805801 C-157.29949692 279.51368301 -157.42324692 278.70930801 -157.55074692 277.88055801 C-157.75699692 277.03493301 -157.96324692 276.18930801 -158.17574692 275.31805801 C-158.83574692 274.98805801 -159.49574692 274.65805801 -160.17574692 274.31805801 C-160.50908025 272.98472468 -160.84241358 271.65139135 -161.17574692 270.31805801 C-161.83574692 269.98805801 -162.49574692 269.65805801 -163.17574692 269.31805801 C-163.48512192 268.53430801 -163.79449692 267.75055801 -164.11324692 266.94305801 C-164.95700179 264.32979541 -164.95700179 264.32979541 -166.64449692 262.94305801 C-168.5151724 260.95785138 -168.99479901 259.30149809 -169.73824692 256.69305801 C-170.37710374 254.33399578 -170.37710374 254.33399578 -171.17574692 252.31805801 C-171.83574692 251.98805801 -172.49574692 251.65805801 -173.17574692 251.31805801 C-174.24605942 249.54071426 -174.24605942 249.54071426 -175.30074692 247.38055801 C-175.83055161 246.31514786 -175.83055161 246.31514786 -176.37105942 245.22821426 C-177.17574692 243.31805801 -177.17574692 243.31805801 -177.17574692 241.31805801 C-177.83574692 240.98805801 -178.49574692 240.65805801 -179.17574692 240.31805801 C-180.42137735 238.12645352 -181.56701105 235.95228131 -182.67574692 233.69305801 C-182.98383286 233.0884877 -183.29191879 232.48391739 -183.60934067 231.86102676 C-185.15350523 228.75281569 -186.38985098 225.78186095 -187.26949692 222.41962051 C-187.56855942 221.39610489 -187.86762192 220.37258926 -188.17574692 219.31805801 C-188.83574692 218.98805801 -189.49574692 218.65805801 -190.17574692 218.31805801 C-191.61008635 215.7749654 -192.94445107 213.24360902 -194.23824692 210.63055801 C-194.60240707 209.92221817 -194.96656723 209.21387833 -195.34176254 208.48407364 C-197.3923346 204.3791392 -198.49431991 200.8913465 -199.17574692 196.31805801 C-199.83574692 195.98805801 -200.49574692 195.65805801 -201.17574692 195.31805801 C-203.32201701 191.60335977 -204.17574692 189.67661089 -204.17574692 185.31805801 C-204.83574692 184.98805801 -205.49574692 184.65805801 -206.17574692 184.31805801 C-207.17574692 181.31805801 -207.17574692 181.31805801 -207.17574692 178.31805801 C-207.83574692 177.98805801 -208.49574692 177.65805801 -209.17574692 177.31805801 C-210.17574692 174.31805801 -210.17574692 174.31805801 -210.17574692 171.31805801 C-210.83574692 170.98805801 -211.49574692 170.65805801 -212.17574692 170.31805801 C-212.17574692 168.99805801 -212.17574692 167.67805801 -212.17574692 166.31805801 C-212.83574692 165.98805801 -213.49574692 165.65805801 -214.17574692 165.31805801 C-214.17574692 163.99805801 -214.17574692 162.67805801 -214.17574692 161.31805801 C-214.83574692 160.98805801 -215.49574692 160.65805801 -216.17574692 160.31805801 C-217.36324692 157.88055801 -217.36324692 157.88055801 -218.17574692 155.31805801 C-217.84574692 154.65805801 -217.51574692 153.99805801 -217.17574692 153.31805801 C-217.83574692 152.98805801 -218.49574692 152.65805801 -219.17574692 152.31805801 C-220.06246567 150.54071426 -220.06246567 150.54071426 -220.86324692 148.38055801 C-221.2712352 147.31514786 -221.2712352 147.31514786 -221.68746567 146.22821426 C-222.17574692 144.31805801 -222.17574692 144.31805801 -221.17574692 142.31805801 C-221.83574692 141.98805801 -222.49574692 141.65805801 -223.17574692 141.31805801 C-222.68074692 140.32805801 -222.68074692 140.32805801 -222.17574692 139.31805801 C-222.83574692 139.31805801 -223.49574692 139.31805801 -224.17574692 139.31805801 C-224.30852036 138.69157364 -224.44129379 138.06508926 -224.57809067 137.41962051 C-224.84299301 136.19372208 -224.84299301 136.19372208 -225.11324692 134.94305801 C-225.28727036 134.13094864 -225.46129379 133.31883926 -225.64059067 132.48212051 C-226.09905385 130.28859502 -226.09905385 130.28859502 -227.17574692 128.31805801 C-226.68074692 127.32805801 -226.68074692 127.32805801 -226.17574692 126.31805801 C-226.83574692 126.31805801 -227.49574692 126.31805801 -228.17574692 126.31805801 C-228.29949692 125.28680801 -228.42324692 124.25555801 -228.55074692 123.19305801 C-229.05279992 119.41834584 -229.05279992 119.41834584 -230.17574692 116.31805801 C-231.28443009 112.9920085 -231.71752223 109.78747348 -232.17574692 106.31805801 C-232.50574692 105.32805801 -232.83574692 104.33805801 -233.17574692 103.31805801 C-232.84574692 102.32805801 -232.51574692 101.33805801 -232.17574692 100.31805801 C-232.83574692 100.31805801 -233.49574692 100.31805801 -234.17574692 100.31805801 C-234.15512192 99.43118301 -234.13449692 98.54430801 -234.11324692 97.63055801 C-234.07079875 94.45192008 -234.07079875 94.45192008 -234.67354965 91.92865372 C-235.18097176 89.29089749 -235.28985997 86.91848595 -235.27340317 84.23602676 C-235.27018051 83.30467911 -235.26695786 82.37333145 -235.26363754 81.41376114 C-235.25525864 80.45405411 -235.24687973 79.49434708 -235.23824692 78.50555801 C-235.2337352 77.52651505 -235.22922348 76.54747208 -235.22457504 75.53876114 C-235.21283375 73.13179691 -235.19641111 70.72495944 -235.17574692 68.31805801 C-234.51574692 68.31805801 -233.85574692 68.31805801 -233.17574692 68.31805801 C-233.46385239 67.45180801 -233.46385239 67.45180801 -233.75777817 66.56805801 C-234.24629328 63.9382944 -233.87197485 62.76577698 -232.86324692 60.31805801 C-232.57965317 59.62454239 -232.29605942 58.93102676 -232.00387192 58.21649551 C-228.13382503 49.34459558 -219.95397111 43.09628221 -213.17574692 36.31805801 C-212.64336411 35.77794083 -212.11098129 35.23782364 -211.56246567 34.68133926 C-206.10697901 29.31805801 -206.10697901 29.31805801 -203.17574692 29.31805801 C-202.17151268 28.32231026 -201.17212158 27.32167026 -200.17574692 26.31805801 C-198.34371567 25.25555801 -198.34371567 25.25555801 -196.36324692 24.31805801 C-193.98169289 23.18336832 -191.67190064 22.03814341 -189.36324692 20.75555801 C-185.52187343 19.02317389 -181.66567587 18.10263187 -177.56637192 17.16180801 C-174.84345525 16.46962051 -174.84345525 16.46962051 -173.17574692 13.31805801 C-171.36436081 12.7184639 -171.36436081 12.7184639 -169.13302231 12.39838028 C-167.86740211 12.20766449 -167.86740211 12.20766449 -166.57621384 12.01309586 C-165.65128632 11.88814743 -164.7263588 11.76319901 -163.77340317 11.63446426 C-162.8056546 11.49404709 -161.83790604 11.35362991 -160.84083176 11.20895767 C-157.64193486 10.75071515 -154.44055533 10.31427664 -151.23824692 9.88055801 C-149.59100632 9.65186523 -149.59100632 9.65186523 -147.91048813 9.4185524 C-132.61361776 7.29784109 -117.30166006 5.4467929 -101.92574692 4.00555801 C-101.14192642 3.93056076 -100.35810593 3.85556351 -99.55053329 3.77829361 C-93.43143845 3.2028218 -87.30722624 2.73990751 -81.17574692 2.31805801 C-79.93692764 2.23192245 -78.69810837 2.1457869 -77.42174911 2.05704117 C-51.61718456 0.30185068 -25.85803301 -0.04656341 0 0 Z " fill="#5F9737" transform="translate(3055.1757469177246,-0.3180580139160156)"/>
<path d="M0 0 C0.69544922 0.11827148 1.39089844 0.23654297 2.10742188 0.35839844 C23.27032467 4.17704894 40.96053442 14.6131836 56.18286133 29.59692383 C59.03894771 32.50136955 59.03894771 32.50136955 63 33 C64.67675224 31.96535586 64.67675224 31.96535586 66.3359375 30.5078125 C67.30430542 29.7048877 67.30430542 29.7048877 68.29223633 28.88574219 C68.97954834 28.30469727 69.66686035 27.72365234 70.375 27.125 C71.82304904 25.92306854 73.2722832 24.72256355 74.72265625 23.5234375 C75.44469238 22.92499023 76.16672852 22.32654297 76.91064453 21.70996094 C80.34892162 18.89602161 83.86678815 16.188046 87.43969727 13.54736328 C89.97838251 11.65240356 92.22719279 9.75952971 94.40625 7.453125 C100.49996296 1.24070334 105.37787606 0.28321459 113.85546875 -0.23046875 C115.43642334 -0.3427607 115.43642334 -0.3427607 117.04931641 -0.45732117 C127.50335203 -1.14305483 137.95310748 -1.33815052 148.42724609 -1.31567383 C151.5000319 -1.31249997 154.57186195 -1.33617434 157.64453125 -1.36132812 C189.41931696 -1.46373276 224.76125443 2.29205063 248.59082031 25.55126953 C271.8071853 49.41923728 277.22114223 86.71630371 277.12025452 118.62394714 C277.12153615 120.13875065 277.12153615 120.13875065 277.12284368 121.68415624 C277.12447828 125.03579399 277.11901049 128.38738061 277.11352539 131.73901367 C277.11324306 134.15439859 277.11340216 136.56978359 277.1139679 138.98516846 C277.11419491 144.16879448 277.11137612 149.35240916 277.10573006 154.53603172 C277.09757235 162.03050347 277.09499547 169.52496915 277.09374207 177.01944486 C277.09155823 189.18134236 277.08491634 201.34323311 277.07543945 213.50512695 C277.066248 225.31306932 277.05917566 237.12100985 277.05493164 248.92895508 C277.05453756 250.02234102 277.05453756 250.02234102 277.05413551 251.13781556 C277.05283039 254.79493602 277.0515667 258.4520565 277.05032361 262.10917699 C277.03997183 292.40612389 277.02154479 322.7030584 277 353 C246.97 353 216.94 353 186 353 C185.98541748 346.04123779 185.97083496 339.08247559 185.95581055 331.9128418 C185.90693052 309.58244467 185.84348787 287.25210438 185.77101372 264.92177228 C185.75974715 261.44630232 185.74860844 257.97083196 185.73754883 254.49536133 C185.7342433 253.45761731 185.7342433 253.45761731 185.730871 252.39890877 C185.69561265 241.23436513 185.67068408 230.06982154 185.64965298 218.90524306 C185.62779914 207.42756879 185.59444096 195.94997494 185.55129844 184.47235996 C185.52745791 178.03473516 185.5086692 171.59718896 185.50238609 165.1595211 C185.49629357 159.08644964 185.4761448 153.01357905 185.44572449 146.94058228 C185.43701058 144.72486077 185.43320769 142.50911294 185.43499184 140.29337502 C185.44067703 129.96482417 185.25560399 119.76667676 183.78547668 109.52839661 C183.68619265 108.77944427 183.58690862 108.03049194 183.48461598 107.25884408 C182.58327671 101.806643 180.5799163 97.25418532 177 93 C165.28393407 84.98096491 147.76280421 86.67268781 134.1875 86.75 C132.84128067 86.75265869 132.84128067 86.75265869 131.46786499 86.75537109 C117.61986539 86.78742272 103.9601493 87.39755185 90.17822266 88.8125 C87.44627395 89.04766438 84.7400731 89.07270509 82 89 C82.13277344 89.58265625 82.26554687 90.1653125 82.40234375 90.765625 C85.52914127 105.28126898 85.13793949 119.89925827 85.11352539 134.66894531 C85.113243 137.06477355 85.11340226 139.46060187 85.1139679 141.85643005 C85.11422423 147.66210895 85.10990934 153.46777119 85.10353024 159.27344629 C85.09635112 166.03502405 85.09488242 172.79659951 85.09374207 179.55818054 C85.09155901 191.6141486 85.08491923 203.67010985 85.07543945 215.72607422 C85.06624598 227.43017544 85.05917463 239.1342748 85.05493164 250.83837891 C85.05453756 251.92240977 85.05453756 251.92240977 85.05413551 253.02834025 C85.05283037 256.65422194 85.05156669 260.28010364 85.05032361 263.90598536 C85.03997424 293.93732952 85.02154852 323.96866118 85 354 C54.64 354 24.28 354 -7 354 C-7.02187378 343.50856201 -7.02187378 343.50856201 -7.04418945 332.80517578 C-7.09305922 310.36625181 -7.15649911 287.92738358 -7.22898628 265.48852468 C-7.24025298 261.99674467 -7.25139167 258.50496427 -7.26245117 255.01318359 C-7.2657567 253.97056019 -7.2657567 253.97056019 -7.269129 252.90687369 C-7.30439689 241.68668896 -7.32932012 230.46650428 -7.35034702 219.24628486 C-7.37219319 207.71324498 -7.40554468 196.18028524 -7.44870156 184.64730442 C-7.47255238 178.17785344 -7.49133441 171.70848084 -7.49761391 165.23898697 C-7.5037017 159.13719174 -7.52383387 153.03559682 -7.55427551 146.93387604 C-7.56299687 144.70644654 -7.56679072 142.47899081 -7.56500816 140.25154495 C-7.55945065 130.09349795 -7.68702686 120.08164179 -9.27702332 110.02975464 C-9.43851772 108.97760495 -9.43851772 108.97760495 -9.60327464 107.90419972 C-10.76010403 101.52679979 -13.06429215 95.38386692 -18 91 C-19.98532246 90.03545587 -19.98532246 90.03545587 -22.1875 89.375 C-22.90292969 89.13523437 -23.61835938 88.89546875 -24.35546875 88.6484375 C-31.00479457 87.01802674 -37.68293532 86.83235838 -44.4921875 86.796875 C-45.38817154 86.79008728 -46.28415558 86.78329956 -47.20729065 86.77630615 C-50.09656273 86.75939331 -52.98568166 86.75311139 -55.875 86.75 C-56.8565506 86.74766357 -57.8381012 86.74532715 -58.84939575 86.74291992 C-73.67445663 86.72959008 -88.08390592 87.3715293 -102.74389648 89.72460938 C-105 90 -105 90 -110 90 C-110 176.79 -110 263.58 -110 353 C-140.36 353 -170.72 353 -202 353 C-202 237.17 -202 121.34 -202 2 C-176.59 2 -151.18 2 -125 2 C-124.01 10.25 -123.02 18.5 -122 27 C-121.505 28.98 -121.505 28.98 -121 31 C-116.79774151 29.56097523 -113.78964689 27.49535519 -110.3125 24.75 C-109.76722656 24.32251465 -109.22195313 23.8950293 -108.66015625 23.45458984 C-107.44702365 22.5034751 -106.23569282 21.55005911 -105.02587891 20.59472656 C-102.79961291 18.84225977 -100.56299485 17.10364192 -98.32421875 15.3671875 C-95.20424277 12.94721622 -92.08473435 10.52667249 -88.96875 8.1015625 C-88.27217285 7.56539307 -87.5755957 7.02922363 -86.85791016 6.47680664 C-84.84172392 4.91414503 -84.84172392 4.91414503 -82.4921875 2.66015625 C-79.03400085 0.35650527 -75.6637597 0.11374968 -71.625 -0.1875 C-70.3862915 -0.29747314 -70.3862915 -0.29747314 -69.12255859 -0.40966797 C-46.32461792 -2.31550959 -22.65833204 -3.85513801 0 0 Z " fill="#024B2C" transform="translate(2130,962)"/>
<path d="M0 0 C-4.10937582 81.49426805 -20.51975897 162.54103895 -46 240 C-46.25867859 240.79003418 -46.51735718 241.58006836 -46.78387451 242.39404297 C-67.07769776 304.32570441 -92.84034821 365.13716736 -125.59472656 421.55224609 C-127.32389281 424.56416771 -128.98411518 427.61036026 -130.64160156 430.66210938 C-135.23448484 439.09707934 -140.16270118 447.31691339 -145.1875 455.5 C-145.85305908 456.58643799 -146.51861816 457.67287598 -147.2043457 458.79223633 C-149.11174263 461.87779413 -151.04783759 464.94260248 -153 468 C-153.60537598 468.96808594 -154.21075195 469.93617188 -154.83447266 470.93359375 C-159.1513267 477.54099923 -159.1513267 477.54099923 -162.7734375 479.5 C-163.83820313 479.665 -164.90296875 479.83 -166 480 C-166.75958008 480.1546875 -167.51916016 480.309375 -168.30175781 480.46875 C-171.06870752 481.0314493 -173.84256959 481.520012 -176.625 482 C-177.52734375 482.165 -178.4296875 482.33 -179.359375 482.5 C-195.78339197 485.36413375 -212.22565623 486.38322653 -228.875 486.3125 C-230.19413391 486.31026428 -230.19413391 486.31026428 -231.53991699 486.3079834 C-246.73806159 486.26210066 -261.68098883 485.47839211 -276.75683594 483.43554688 C-278.89260608 483.14871957 -281.03145186 482.8838069 -283.17285156 482.64257812 C-286.08320056 482.31310465 -288.97637623 481.91911554 -291.875 481.5 C-292.69516602 481.41331055 -293.51533203 481.32662109 -294.36035156 481.23730469 C-299.60499018 480.34737233 -301.90484849 478.39733156 -305.0859375 474.1484375 C-306.42401726 472.12060198 -307.72785376 470.06983532 -309 468 C-309.63728027 466.9800293 -310.27456055 465.96005859 -310.93115234 464.90917969 C-312.91260625 461.67081466 -314.83819221 458.40492524 -316.75 455.125 C-317.4520961 453.92813007 -318.15449387 452.73143706 -318.85717773 451.53491211 C-320.91338777 448.02824877 -322.95719417 444.51448811 -325 441 C-325.54736816 440.06269043 -326.09473633 439.12538086 -326.65869141 438.15966797 C-360.39675005 380.31523978 -388.28638251 319.34389794 -410 256 C-410.40091858 254.83171661 -410.40091858 254.83171661 -410.80993652 253.63983154 C-437.8126248 174.73322946 -462.55914158 85.16732316 -460 1 C-447.84964193 1.61363067 -435.89125772 3.26491556 -423.8515625 4.94140625 C-421.74170273 5.23183552 -419.63178757 5.52186265 -417.52182007 5.81150818 C-412.01409119 6.56866569 -406.50712351 7.33122285 -401.00030518 8.0949707 C-395.36263885 8.87587022 -389.72425769 9.65157268 -384.0859375 10.42773438 C-373.05659254 11.94678486 -362.02804604 13.47155017 -351 15 C-348.85967628 24.39223998 -348.85967628 24.39223998 -348.16552734 29.05273438 C-348.03099152 29.94241409 -347.89645569 30.83209381 -347.75784302 31.74873352 C-347.6186142 32.68758896 -347.47938538 33.6264444 -347.3359375 34.59375 C-347.02039783 36.67545643 -346.7042933 38.75707731 -346.38769531 40.83862305 C-346.22321899 41.92380219 -346.05874268 43.00898132 -345.88928223 44.12704468 C-333.69323509 124.11565792 -313.33691731 202.28363315 -282 277 C-281.74238892 277.61514465 -281.48477783 278.23028931 -281.21936035 278.86407471 C-273.39134591 297.53352143 -264.9560822 315.84211826 -256 334 C-255.62568848 334.76376953 -255.25137695 335.52753906 -254.86572266 336.31445312 C-250.50231404 345.21555166 -245.94078701 354.01384795 -241.375 362.8125 C-240.83617187 363.85100098 -240.29734375 364.88950195 -239.7421875 365.95947266 C-238.17023107 368.9776868 -236.58778704 371.99008667 -235 375 C-234.45118164 376.04720215 -233.90236328 377.0944043 -233.33691406 378.17333984 C-232.80549805 379.17187988 -232.27408203 380.17041992 -231.7265625 381.19921875 C-231.25041504 382.09858154 -230.77426758 382.99794434 -230.28369141 383.92456055 C-229.1677472 386.13505756 -229.1677472 386.13505756 -227 387 C-226.75765625 386.16855469 -226.5153125 385.33710937 -226.265625 384.48046875 C-224.8067116 380.46845689 -222.87586838 377.00054038 -220.75 373.3125 C-207.34214782 349.49337878 -195.7532857 325.10689545 -185 300 C-184.48308594 298.7934375 -183.96617187 297.586875 -183.43359375 296.34375 C-165.23710355 253.50514638 -150.83622539 208.98330622 -139 164 C-138.78128235 163.17238159 -138.5625647 162.34476318 -138.33721924 161.49206543 C-126.38652795 116.21420051 -117.51380049 70.51735163 -110.35667419 24.25202942 C-109.92058942 21.49860415 -109.46102405 18.74934762 -109 16 C-87.44819617 12.45840241 -65.8691591 9.12819575 -44.26489258 5.9230957 C-40.06527503 5.29995148 -35.86634468 4.67229262 -31.6675539 4.04360485 C-28.38996562 3.55346865 -25.11198545 3.06599574 -21.83388329 2.57930946 C-20.28241626 2.34857345 -18.73108421 2.11692789 -17.1798954 1.88432884 C-15.03870709 1.56358418 -12.8970043 1.24652583 -10.75512695 0.93041992 C-9.5429097 0.75008713 -8.33069244 0.56975433 -7.08174133 0.38395691 C-4 0 -4 0 0 0 Z " fill="#024B2C" transform="translate(460,831)"/>
<path d="M0 0 C30.03 0 60.06 0 91 0 C91 55.44 91 110.88 91 168 C96.48521113 165.64919523 99.83285631 163.81010821 104.0625 160 C105.19084534 159.01478935 106.32112173 158.03178677 107.453125 157.05078125 C108.03255859 156.54756348 108.61199219 156.0443457 109.20898438 155.52587891 C113.31860807 152.0246319 117.59710525 148.73565477 121.87890625 145.44921875 C124.88558682 143.16727075 124.88558682 143.16727075 127.02734375 141.08203125 C131.22405451 137.22790912 135.61590012 136.25166408 141.1328125 135.37109375 C141.92605927 135.24290756 142.71930603 135.11472137 143.53659058 134.98265076 C152.06795527 133.70107895 160.51220284 133.49318786 169.125 133.5625 C169.92305054 133.56520905 170.72110107 133.56791809 171.54333496 133.57070923 C185.32991401 133.64123803 198.54844687 134.82574056 212 138 C212.77102051 138.17128418 213.54204102 138.34256836 214.33642578 138.51904297 C230.96299314 142.30889552 246.54423316 150.33309839 259 162 C260.16015625 163.02480469 260.16015625 163.02480469 261.34375 164.0703125 C285.52680278 186.51417313 292.23679591 222.7816783 295.6875 254 C295.80697998 255.07757568 295.92645996 256.15515137 296.04956055 257.26538086 C297.88227673 275.18777916 298.2080513 293.18513318 298.1875 311.1875 C298.18689575 312.17835602 298.1862915 313.16921204 298.18566895 314.19009399 C298.10256648 364.85574174 297.13567548 422.76250872 259 461 C243.30119822 475.67246558 224.71594086 482.94737715 204 487.625 C203.154375 487.81924561 202.30875 488.01349121 201.4375 488.21362305 C181.34995544 492.51470794 161.42465197 493.50902841 140.9375 493.375 C139.68408813 493.37067963 138.43067627 493.36635925 137.13928223 493.36190796 C118.58372425 493.28694168 100.37029961 492.79655745 82 490 C80.84467773 489.83371094 79.68935547 489.66742187 78.49902344 489.49609375 C64.33273726 487.42129187 50.39314969 484.55171458 36.5 481.125 C34.6430249 480.67024292 34.6430249 480.67024292 32.74853516 480.20629883 C21.57179582 477.35449059 11.03102407 473.67700802 0 470 C0 314.9 0 159.8 0 0 Z M92 227 C92 284.42 92 341.84 92 401 C107.53002312 406.17667437 124.84296276 406.2437636 141.125 406.8125 C142.13815781 406.85348312 142.13815781 406.85348312 143.17178345 406.89529419 C158.21600247 407.47753731 178.13895549 407.67620134 190.5 397.875 C203.02536484 385.32332137 203.74596561 363.7261535 205 347 C205.08677002 345.86135498 205.08677002 345.86135498 205.17529297 344.69970703 C206.70876035 323.36312381 206.49440003 301.8996098 205.125 280.5625 C205.04660889 279.32653076 204.96821777 278.09056152 204.88745117 276.81713867 C203.58375187 258.25411054 202.1778938 240.83541696 188.875 226.75 C162.32716792 210.59045004 120.20964474 219.94758882 92 227 Z " fill="#024B2C" transform="translate(2461,827)"/>
<path d="M0 0 C2.75921128 0.01353842 5.51826461 0.00813418 8.27749443 0.00314426 C28.03760657 -0.0239842 47.63801727 0.49236731 67.05249023 4.5100708 C68.0938916 4.72437744 69.13529297 4.93868408 70.20825195 5.15948486 C95.36337024 10.60738458 118.87618049 22.2677673 133.42749023 44.3225708 C147.65347341 68.08420826 149.89523197 94.0302017 149.76806641 121.14141846 C149.76721849 123.69576508 149.76769847 126.25011242 149.76939392 128.80445862 C149.77007262 134.26684696 149.76167616 139.72909614 149.7446804 145.19145584 C149.72012481 153.08872807 149.71246837 160.98594855 149.70871643 168.88325481 C149.70217766 181.70127267 149.68228703 194.51923271 149.65380859 207.33721924 C149.62620092 219.77634394 149.60500034 232.21545283 149.59228516 244.65460205 C149.59149699 245.42350488 149.59070882 246.19240771 149.58989676 246.98461063 C149.58598117 250.84261357 149.58219016 254.70061662 149.57846105 258.55861974 C149.54744545 290.47997914 149.49445494 322.40126592 149.42749023 354.3225708 C139.27482873 354.34569473 129.12217344 354.36348614 118.969491 354.37438297 C114.25569291 354.37961169 109.54191276 354.38670914 104.828125 354.39801025 C100.2829362 354.40883953 95.73776471 354.41484772 91.19256401 354.41744804 C89.45454066 354.41930222 87.7165183 354.42292269 85.97850227 354.42830086 C83.55270429 354.43551183 81.12697877 354.43656172 78.70117188 354.43609619 C77.97540955 354.43969147 77.24964722 354.44328674 76.50189209 354.44699097 C71.5415424 354.43662296 71.5415424 354.43662296 70.42749023 353.3225708 C70.12820214 351.3278805 69.88813387 349.32423956 69.67358398 347.31866455 C69.54145508 346.10372314 69.40932617 344.88878174 69.27319336 343.63702393 C69.13848633 342.35762939 69.0037793 341.07823486 68.86499023 339.7600708 C68.65712891 337.83517822 68.65712891 337.83517822 68.44506836 335.87139893 C68.10196879 332.68885465 67.76296235 329.50592666 67.42749023 326.3225708 C62.78088667 327.08399921 60.66367416 328.48793527 57.11499023 331.6350708 C51.6945392 336.33796968 46.06578541 340.67766363 40.29931641 344.94683838 C39.66743408 345.41500977 39.03555176 345.88318115 38.38452148 346.36553955 C37.73636475 346.83516113 37.08820801 347.30478271 36.42041016 347.78863525 C34.37540308 349.31232729 34.37540308 349.31232729 32.44433594 351.17486572 C25.88805528 357.06737339 19.55609172 357.73375752 10.98999023 358.2600708 C9.55854865 358.36844486 8.1271532 358.47742965 6.69580078 358.5869751 C-34.87143566 361.52880291 -92.21679492 365.25871699 -126.20141602 336.4397583 C-127.37510742 335.39175049 -127.37510742 335.39175049 -128.57250977 334.3225708 C-129.73073242 333.30550049 -129.73073242 333.30550049 -130.91235352 332.2678833 C-143.25612493 320.74702998 -149.48815557 305.76026846 -153.26000977 289.6350708 C-153.46263428 288.77534668 -153.66525879 287.91562256 -153.87402344 287.02984619 C-157.08482406 272.4546599 -157.92507752 257.94528076 -157.82250977 243.0725708 C-157.81940796 242.26652405 -157.81630615 241.46047729 -157.81311035 240.63000488 C-157.67338193 209.57267662 -155.4646614 174.43551265 -132.91235352 150.5413208 C-108.47080947 127.36469806 -75.24543438 123.38328486 -42.82250977 123.00616455 C-41.29450065 122.98543175 -39.76649573 122.96438756 -38.23849487 122.9430542 C-34.18391326 122.88773927 -30.12928164 122.83816525 -26.07460785 122.79014206 C-23.5685396 122.76002309 -21.06249802 122.72823254 -18.55645752 122.69589233 C7.10519344 122.36560638 32.76358291 122.1757004 58.42749023 122.3225708 C57.97088397 119.75244384 57.50773816 117.18378653 57.04077148 114.61553955 C56.91287231 113.89169067 56.78497314 113.1678418 56.65319824 112.42205811 C55.32838236 105.19223087 53.47543432 99.03357926 47.23608398 94.41241455 C8.20309564 70.89145613 -68.98292972 90.05301534 -109.68188477 100.0413208 C-112.89349072 100.84230245 -116.10061743 101.65585229 -119.30273438 102.49395752 C-120.67957397 102.85384766 -120.67957397 102.85384766 -122.08422852 103.2210083 C-122.88304443 103.43418701 -123.68186035 103.64736572 -124.50488281 103.86700439 C-126.57250977 104.3225708 -126.57250977 104.3225708 -129.57250977 104.3225708 C-132.60998632 88.9791246 -135.24531954 73.58591206 -137.71948242 58.14215088 C-138.33015867 54.33741532 -138.94919213 50.53409605 -139.56860352 46.73077393 C-139.96103201 44.29400566 -140.35297739 41.85715954 -140.74438477 39.42022705 C-140.92870056 38.29214127 -141.11301636 37.16405548 -141.30291748 36.00178528 C-141.47019348 34.94885788 -141.63746948 33.89593048 -141.80981445 32.81109619 C-141.95763367 31.89292618 -142.10545288 30.97475616 -142.25775146 30.02876282 C-142.59782204 27.10494387 -142.62527265 24.26349379 -142.57250977 21.3225708 C-122.07782115 14.35931515 -101.19294334 9.79208862 -79.88500977 6.1350708 C-79.20068878 6.01446289 -78.5163678 5.89385498 -77.81130981 5.76959229 C-51.97300035 1.25594406 -26.1693728 -0.17428533 0 0 Z M-5.5559082 205.01226807 C-9.34908755 205.09668173 -13.14230175 205.17268807 -16.93579102 205.24176025 C-21.58911638 205.32651487 -26.24195647 205.42507185 -30.89478683 205.53357506 C-32.64645975 205.57219945 -34.39824394 205.60610349 -36.15010452 205.63498878 C-38.58649377 205.67619563 -41.02185848 205.73521783 -43.45776367 205.79840088 C-44.16426559 205.80631653 -44.87076752 205.81423218 -45.59867859 205.8223877 C-50.87152714 205.98683939 -54.81937972 207.16644452 -59.57250977 209.3225708 C-67.83516395 221.24805107 -67.00585536 241.88124631 -64.68823242 255.67388916 C-63.65250702 261.22794933 -62.77131825 265.33644706 -58.57250977 269.3225708 C-53.02903039 272.36701905 -47.02763855 272.98657309 -40.82250977 273.5100708 C-40.00524414 273.59192627 -39.18797852 273.67378174 -38.34594727 273.75811768 C-11.81382891 276.21709126 34.08349415 276.49456884 58.42749023 264.3225708 C58.54972567 244.28912397 58.31652606 224.34078719 57.42749023 204.3225708 C36.42570177 204.16424138 15.4396763 204.54113305 -5.5559082 205.01226807 Z " fill="#024B2C" transform="translate(2957.572509765625,960.6774291992188)"/>
<path d="M0 0 C30.03 0 60.06 0 91 0 C91 88.11 91 176.22 91 267 C96.81844093 265.55836851 96.81844093 265.55836851 102 263 C102.45403198 262.08009277 102.45403198 262.08009277 102.91723633 261.14160156 C104.05143776 258.89826111 105.28080468 257.42188893 107.01171875 255.609375 C107.60122314 254.98635498 108.19072754 254.36333496 108.7980957 253.72143555 C109.42159912 253.07086182 110.04510254 252.42028809 110.6875 251.75 C111.96703096 250.39797253 113.24568767 249.04511712 114.5234375 247.69140625 C115.13155273 247.0483252 115.73966797 246.40524414 116.36621094 245.74267578 C118.76717228 243.18169819 121.07294729 240.54627532 123.36328125 237.88671875 C125.37873772 235.56341213 127.43848462 233.28251535 129.5 231 C132.18983431 228.01937279 134.86310364 225.02754767 137.5 222 C140.89374015 218.10348353 144.35430003 214.26935055 147.81640625 210.43359375 C149.70848685 208.32488854 151.57905758 206.20080199 153.4375 204.0625 C157.08937053 199.86835635 160.84266184 195.76905708 164.58984375 191.66015625 C167.16993136 188.81244205 169.70201856 185.92755982 172.22265625 183.02734375 C174.29359487 180.66510827 176.39512848 178.33204147 178.5 176 C181.18983431 173.01937279 183.86310364 170.02754767 186.5 167 C189.89253093 163.10487189 193.35194201 159.27217237 196.8125 155.4375 C199.29504268 152.67123816 201.73940223 149.87380302 204.1796875 147.0703125 C207.01455369 143.84610846 209.90271419 140.67029665 212.7890625 137.4921875 C215.10902166 135.00847352 215.10902166 135.00847352 216.983078 131.89254761 C218.66918563 129.88592108 219.61800441 129.09816402 222.17797279 128.44031143 C224.96106739 128.21994623 227.68993555 128.1926545 230.48168945 128.22705078 C231.53580521 128.21642105 232.58992096 128.20579132 233.67597961 128.19483948 C237.15556437 128.16676453 240.63363481 128.18085511 244.11328125 128.1953125 C246.52753526 128.18406405 248.94177834 128.17018416 251.35600281 128.15377808 C257.70680919 128.1176942 264.05713461 128.11737254 270.40802002 128.12445068 C276.88993978 128.12536262 283.37167836 128.09251886 289.85351562 128.0625 C302.56905044 128.00859446 315.2843618 127.99131491 328 128 C326.38182825 131.40829937 324.52234036 133.79530758 321.9375 136.5625 C318.72708915 140.05918953 315.65543761 143.60799393 312.6875 147.3125 C308.79808842 152.1250529 304.6725675 156.6459852 300.4465332 161.15893555 C296.50209561 165.39494858 292.83519299 169.80634808 289.2109375 174.3203125 C286.8906505 177.13253315 284.46928866 179.81797263 282 182.5 C278.70668301 186.07792463 275.55348679 189.71539666 272.5 193.5 C268.66280969 198.25595419 264.60614899 202.75504801 260.46875 207.25 C258.05621896 209.93737634 255.7674379 212.68965444 253.5 215.5 C249.66164586 220.25739668 245.60377641 224.75783918 241.46484375 229.25390625 C239.07292703 231.91875166 236.80745116 234.64831825 234.5625 237.4375 C230.90428985 241.97316443 227.05257035 246.2570117 223.08618164 250.51928711 C220.09573 253.75193975 217.26220993 257.06696766 214.5 260.5 C211.30067846 264.47629963 207.97410864 268.26663848 204.5 272 C200.17911333 276.6446721 196.11114889 281.43349696 192.15234375 286.39453125 C189.38656069 289.74258443 186.39409183 292.84809904 183.3359375 295.9296875 C181.73787739 297.92094306 181.73787739 297.92094306 182.28637695 300.32836914 C193.5239252 342.39901247 230.56955497 383.10348426 259 415 C259.48355957 415.54285645 259.96711914 416.08571289 260.46533203 416.64501953 C269.25225022 426.42970876 278.58984659 435.69263745 287.875 445 C288.51083008 445.63850891 289.14666016 446.27701782 289.80175781 446.93487549 C296.35713944 453.51117584 302.90367264 460.00180961 310 466 C311.60768373 467.45445517 313.21239715 468.91220895 314.8125 470.375 C319.29955443 474.43140834 323.93624831 478.26823965 328.65234375 482.0546875 C332.42527247 485.1810078 332.42527247 485.1810078 334 487 C334 487.66 334 488.32 334 489 C333.16362 488.99836349 332.32723999 488.99672699 331.46551514 488.99504089 C328.14037257 488.98950282 324.81523507 488.98539196 321.49008942 488.98250771 C319.93637314 488.98114115 318.38265708 488.97950951 316.82894135 488.97762108 C306.5299695 488.96695875 296.23417027 489.01856271 285.93601227 489.14915276 C278.77086031 489.23707693 271.60631087 489.274181 264.44063568 489.28241158 C259.84939547 489.28993339 255.26092048 489.3229551 250.67041016 489.40795898 C246.10973046 489.49127412 241.55274641 489.50990785 236.99141693 489.48558617 C235.289909 489.48734936 233.58824527 489.51116968 231.88742828 489.55968666 C220.69568422 489.86184039 214.24837892 487.95608584 206.01169205 480.16396809 C204.31195275 478.46869243 202.65510488 476.73878287 201 475 C199.74763683 473.74000984 198.49198822 472.48327616 197.23297119 471.22993469 C195.31492945 469.31394913 193.39841843 467.39655016 191.484375 465.4765625 C189.58763749 463.58578958 187.68086571 461.70780168 185.765625 459.8359375 C179.52231198 453.70745621 173.55239357 447.55601205 168.12109375 440.6796875 C165.91575349 437.89356702 163.6208512 435.20118244 161.3125 432.5 C138.39889539 404.94031887 118.97041477 373.7829884 101.96679688 342.30249023 C99.84768603 338.3908573 99.84768603 338.3908573 97 335 C95.02 334.67 93.04 334.34 91 334 C91 385.15 91 436.3 91 489 C60.97 489 30.94 489 0 489 C0 327.63 0 166.26 0 0 Z " fill="#024B2C" transform="translate(3506,827)"/>
<path d="M0 0 C1.78191994 -0.00855011 1.78191994 -0.00855011 3.59983826 -0.01727295 C6.10846075 -0.02667265 8.61709531 -0.03323678 11.12573242 -0.03710938 C14.87116574 -0.0467149 18.61602547 -0.07774613 22.36132812 -0.109375 C57.79968121 -0.26460955 100.27351236 2.74999977 128.37109375 27.203125 C128.94601562 27.63625 129.5209375 28.069375 130.11328125 28.515625 C154.81138818 47.63674004 162.04572955 83.02282085 165.78588867 112.09472656 C169.2884094 142.77242188 167.68795919 174.00941582 165.90625 204.7578125 C165.86763855 205.45684692 165.8290271 206.15588135 165.78924561 206.87609863 C165.38163794 213.4746974 165.38163794 213.4746974 164.37109375 216.203125 C161.51758342 217.62988017 158.95811278 217.47919106 155.76953125 217.6328125 C154.74079895 217.68511017 154.74079895 217.68511017 153.69128418 217.73846436 C151.37640417 217.85574084 149.06128036 217.96707604 146.74609375 218.078125 C143.31881326 218.24622765 139.89175694 218.41831959 136.46484375 218.59375 C135.5611203 218.64000519 134.65739685 218.68626038 133.72628784 218.73391724 C127.34002581 219.07183141 120.96619533 219.51167161 114.58984375 220 C91.4265444 221.74018475 68.32101427 222.5494111 45.09806061 222.63066864 C42.9826677 222.64039926 40.86746147 222.65752984 38.75213623 222.67681885 C23.94743154 222.79964023 9.24822015 222.41828778 -5.48127937 220.84471321 C-6.91553867 220.69264431 -8.35078842 220.54959539 -9.78692436 220.41641045 C-18.87100028 219.54729764 -24.51557651 218.1077856 -30.62890625 211.203125 C-31.76968532 210.11423242 -32.91821276 209.03333218 -34.078125 207.96484375 C-35.71168337 206.4173651 -37.34117346 204.86668238 -38.95898438 203.30273438 C-42.0032421 200.43474248 -44.60740404 198.43419711 -48.62890625 197.203125 C-49.16555241 217.5360519 -48.71348929 240.34245424 -35.62890625 257.203125 C-26.413603 266.5833144 -14.36023813 269.90585659 -1.62890625 271.203125 C-0.6440625 271.31398438 0.34078125 271.42484375 1.35546875 271.5390625 C43.19875043 275.39030982 84.66441444 267.8927374 125.45458984 259.38793945 C126.51320976 259.16880135 126.51320976 259.16880135 127.59321594 258.94523621 C129.49335266 258.55076751 131.39235191 258.15083071 133.29125977 257.75048828 C136.37109375 257.203125 136.37109375 257.203125 140.37109375 257.203125 C142.36909999 265.52543263 143.66215947 273.94326965 144.97265625 282.39453125 C145.21616944 283.9511247 145.45993788 285.50767825 145.70394897 287.06419373 C146.34104131 291.13255122 146.97469677 295.20143656 147.60760498 299.27044678 C148.25583427 303.43388143 148.90735814 307.59680036 149.55859375 311.75976562 C150.83262744 319.90705474 152.10302582 328.05490524 153.37109375 336.203125 C147.02114045 338.9189147 140.75594428 341.57904793 134.11328125 343.484375 C133.49062378 343.66366547 132.86796631 343.84295593 132.22644043 344.02767944 C130.23563647 344.59610555 128.24153773 345.15122432 126.24609375 345.703125 C125.5530011 345.89666565 124.85990845 346.0902063 124.14581299 346.28961182 C95.99284512 354.11618355 66.6125748 359.28188341 37.3359375 359.40625 C36.2265683 359.41321899 35.1171991 359.42018799 33.97421265 359.42736816 C30.41896728 359.44465033 26.86387936 359.45108623 23.30859375 359.453125 C22.09722748 359.45413208 20.88586121 359.45513916 19.63778687 359.45617676 C2.35855584 359.44643803 -14.56966741 359.19928372 -31.62890625 356.203125 C-32.93190674 355.9863208 -32.93190674 355.9863208 -34.26123047 355.76513672 C-65.65914041 350.40451795 -94.47532982 336.18894748 -113.44140625 309.890625 C-118.18476101 302.66265584 -122.09662619 295.0878502 -125.62890625 287.203125 C-125.90331543 286.59194824 -126.17772461 285.98077148 -126.46044922 285.35107422 C-134.51197942 266.91272152 -138.22456303 246.09615504 -140.62890625 226.203125 C-140.73187012 225.36330078 -140.83483398 224.52347656 -140.94091797 223.65820312 C-147.23690615 169.51071551 -148.45495507 90.69576339 -114.25390625 45.515625 C-113.06114169 44.06518079 -111.85207284 42.62802471 -110.62890625 41.203125 C-109.93925781 40.38070312 -109.24960937 39.55828125 -108.5390625 38.7109375 C-85.12460613 11.6341145 -49.91115302 3.4844005 -15.68511963 0.41999817 C-10.45874405 0.04912726 -5.23778382 0.02008172 0 0 Z M-38.56640625 93.453125 C-43.05851422 99.4426023 -45.2479126 105.40416262 -46.31640625 112.765625 C-46.43306641 113.46236328 -46.54972656 114.15910156 -46.66992188 114.87695312 C-47.45848373 119.90681941 -47.84589215 124.94501243 -48.16723633 130.02319336 C-48.21216469 130.71551811 -48.25709305 131.40784286 -48.30338287 132.12114716 C-48.41313164 133.81505982 -48.52119117 135.50908179 -48.62890625 137.203125 C-26.57095162 138.81681578 -4.65559925 139.50049538 17.45703125 139.39874268 C20.45494551 139.38781278 23.45281579 139.3883179 26.45074654 139.38876152 C42.11291316 139.38813654 57.73670312 139.2427061 73.37109375 138.203125 C74.00498922 123.87511424 73.64677599 106.02538535 64.984375 93.9453125 C57.34386549 85.69430223 43.85502661 84.61668212 33.16394043 84.09553528 C30.92399534 84.04024258 28.68590008 84.01285863 26.4453125 84 C25.62357544 83.99303101 24.80183838 83.98606201 23.9552002 83.97888184 C21.3229453 83.96160607 18.69090294 83.95516455 16.05859375 83.953125 C15.16258453 83.95211792 14.26657532 83.95111084 13.34341431 83.95007324 C-13.98172305 83.3668867 -13.98172305 83.3668867 -38.56640625 93.453125 Z " fill="#024B2C" transform="translate(784.62890625,960.796875)"/>
<path d="M0 0 C2.78304343 0.00459981 5.56564649 -0.00218518 8.34863281 -0.02050781 C49.4448705 -0.28823531 96.05498624 0.83651102 127.14526367 31.38208008 C148.98455076 54.0119296 154.63839359 85.84735148 157.57885742 115.87817383 C157.69825684 117.0944043 157.81765625 118.31063477 157.94067383 119.5637207 C159.61942672 137.94011266 160.06955679 156.30846808 160.01635742 174.75317383 C160.01447418 175.7518045 160.01259094 176.75043518 160.01065063 177.77932739 C159.7598922 291.84264715 159.7598922 291.84264715 129.89135742 324.31567383 C129.16561523 325.13293945 128.43987305 325.95020508 127.69213867 326.79223633 C106.71160115 349.1945954 78.14825942 354.69955713 48.89135742 358.31567383 C47.82877968 358.44780777 47.82877968 358.44780777 46.74473572 358.58261108 C39.61870166 359.38943426 32.53837939 359.49370217 25.37182617 359.51879883 C24.0785994 359.5244989 22.78537262 359.53019897 21.45295715 359.53607178 C18.71554176 359.5465224 15.97815512 359.55239975 13.24072266 359.5559082 C10.50002319 359.56023752 7.75964841 359.57392065 5.01904297 359.59692383 C-34.32277265 359.91991673 -81.42616398 359.19473776 -111.36254883 330.05395508 C-112.72186523 328.69850586 -112.72186523 328.69850586 -114.10864258 327.31567383 C-114.83954102 326.60797852 -115.57043945 325.9002832 -116.32348633 325.17114258 C-133.45823303 307.42565243 -140.22536272 280.57694267 -143.17114258 256.87817383 C-143.25513306 256.20262451 -143.33912354 255.5270752 -143.42565918 254.83105469 C-144.0213394 249.99632815 -144.5769615 245.1578293 -145.10864258 240.31567383 C-145.23158691 239.2017627 -145.35453125 238.08785156 -145.48120117 236.94018555 C-151.66275694 177.14818651 -157.44184681 85.39913071 -117.83520508 35.44848633 C-99.20495902 13.68305323 -72.39422016 6.22626446 -45.10864258 2.31567383 C-43.30302856 2.04315796 -43.30302856 2.04315796 -41.4609375 1.76513672 C-27.70135295 -0.13574126 -13.86221072 -0.02479104 0 0 Z M-43.76489258 93.69848633 C-59.58176153 112.7339042 -54.44499772 151.7984147 -54.36938477 175.12255859 C-54.35798027 178.67047601 -54.36478478 182.21809348 -54.37626934 185.76600075 C-56.56114044 228.05546935 -56.56114044 228.05546935 -42.61645508 266.14770508 C-30.48271606 278.07824751 -4.22130384 275.64772557 11.35888672 275.62231445 C34.22168572 275.37459201 34.22168572 275.37459201 55.14135742 267.19067383 C71.17173589 250.43164179 67.32716827 213.86158643 67.64135742 192.75317383 C67.66259674 191.46140228 67.68383606 190.16963074 67.70571899 188.8387146 C67.95251982 173.0791365 68.01979486 157.3661183 67.07885742 141.62817383 C67.03796997 140.93811249 66.99708252 140.24805115 66.95495605 139.53707886 C66.26570691 113.54787953 66.26570691 113.54787953 54.89135742 91.31567383 C49.84424839 88.09100234 44.64296074 86.4856098 38.77026367 85.58911133 C37.61766808 85.40667374 37.61766808 85.40667374 36.44178772 85.22055054 C27.54309708 83.94219106 18.64337742 83.86417551 9.66845703 83.92456055 C6.82755705 83.94068121 3.98807486 83.92458866 1.1472168 83.90551758 C-22.78886845 83.63831564 -22.78886845 83.63831564 -43.76489258 93.69848633 Z " fill="#024B2C" transform="translate(1715.108642578125,960.684326171875)"/>
<path d="M0 0 C0.93325104 -0.00100708 1.86650208 -0.00201416 2.82803345 -0.00305176 C34.69276733 0.02019046 69.1681907 3.17662876 93.62890625 25.98046875 C113.70433964 46.84599075 119.86350111 74.35123787 122.8125 102.25 C122.8957937 102.96131262 122.97908741 103.67262524 123.06490517 104.40549278 C124.19042399 115.48490366 123.94456565 126.6132797 123.92602539 137.73535156 C123.925743 140.11147561 123.92590227 142.48759975 123.9264679 144.86372375 C123.92675383 151.28636974 123.9208901 157.7089969 123.91389394 164.13163853 C123.90778029 170.17214902 123.90726928 176.21266109 123.90624207 182.25317416 C123.90405908 194.20931364 123.89741949 206.16544627 123.88793945 218.12158203 C123.8787458 229.72867804 123.87167454 241.33577218 123.86743164 252.94287109 C123.86703756 254.01794097 123.86703756 254.01794097 123.86663551 255.11472943 C123.86533037 258.71064298 123.86406669 262.30655654 123.86282361 265.90247011 C123.85247446 295.68498593 123.83404886 325.46748955 123.8125 355.25 C93.4525 355.25 63.0925 355.25 31.8125 355.25 C31.79791748 348.29647461 31.78333496 341.34294922 31.76831055 334.17871094 C31.71942097 311.86004589 31.65597578 289.54143766 31.58351372 267.22283761 C31.57224728 263.74865642 31.56110855 260.27447483 31.55004883 256.80029297 C31.5467433 255.76294242 31.5467433 255.76294242 31.543371 254.70463529 C31.50812151 243.54723374 31.48318798 232.38983224 31.46215298 221.23239586 C31.440292 209.76036685 31.40692762 198.28841821 31.36379844 186.81644845 C31.33996748 180.3827042 31.32117255 173.94903845 31.31488609 167.51525116 C31.30878917 161.44463903 31.28862501 155.37422747 31.25822449 149.30368996 C31.24951751 147.09000103 31.24570621 144.87628582 31.24749184 142.66258049 C31.25330161 132.12521621 31.01794328 121.72518841 29.59797668 111.27130127 C29.44905064 110.0771111 29.44905064 110.0771111 29.29711598 108.85879588 C28.28405095 102.34527489 25.64195492 96.98818218 20.875 92.375 C15.33517056 89.35327485 9.60944223 88.69864007 3.4375 88.125 C2.54466309 88.0415332 1.65182617 87.95806641 0.73193359 87.87207031 C-12.16096607 86.74293343 -24.79169888 87.26334197 -37.6875 88.0625 C-38.85458496 88.13243164 -40.02166992 88.20236328 -41.22412109 88.27441406 C-53.32098503 89.09360005 -65.08860263 90.73763783 -77.1875 92.25 C-77.1875 179.04 -77.1875 265.83 -77.1875 355.25 C-107.2175 355.25 -137.2475 355.25 -168.1875 355.25 C-168.1875 239.42 -168.1875 123.59 -168.1875 4.25 C-142.7775 4.25 -117.3675 4.25 -91.1875 4.25 C-89.39225488 6.04524512 -89.73818921 8.78374925 -89.50390625 11.21875 C-89.31924805 13.03439453 -89.31924805 13.03439453 -89.13085938 14.88671875 C-88.87699044 17.4618611 -88.62698874 20.03738764 -88.38085938 22.61328125 C-88.25646484 23.82371094 -88.13207031 25.03414062 -88.00390625 26.28125 C-87.89506104 27.40080078 -87.78621582 28.52035156 -87.67407227 29.67382812 C-87.51350342 30.52396484 -87.35293457 31.37410156 -87.1875 32.25 C-86.5275 32.58 -85.8675 32.91 -85.1875 33.25 C-79.14131814 28.94363782 -73.20666413 24.52833239 -67.375 19.9375 C-66.78630127 19.47956055 -66.19760254 19.02162109 -65.59106445 18.54980469 C-62.54962935 16.17137854 -59.59072274 13.74433138 -56.7109375 11.171875 C-48.50062614 3.99161823 -42.33542089 1.67833265 -31.1875 1.25 C-29.62201998 1.08424124 -28.05695535 0.91453963 -26.4921875 0.7421875 C-17.6853772 -0.0750556 -8.83732326 0.00660393 0 0 Z " fill="#024B2C" transform="translate(3329.1875,960.75)"/>
<path d="M0 0 C1.21446446 4.40562074 0.76871222 8.28419854 0.10375977 12.7277832 C-0.00338348 13.48929184 -0.11052673 14.25080048 -0.22091675 15.03538513 C-0.57555785 17.5417176 -0.94199866 20.04617179 -1.30859375 22.55078125 C-1.55737556 24.29231024 -1.8054173 26.0339451 -2.05274963 27.77568054 C-2.70461699 32.3519245 -3.36651474 36.92666297 -4.03051758 41.50115967 C-4.70675205 46.17243083 -5.37348227 50.84505708 -6.04101562 55.51757812 C-7.3513831 64.67973599 -8.67235196 73.84033139 -10 83 C-13.50444616 83.99116846 -15.55044061 83.84413069 -19.1015625 82.92578125 C-20.13265137 82.67207764 -21.16374023 82.41837402 -22.22607422 82.15698242 C-23.34771973 81.87830322 -24.46936523 81.59962402 -25.625 81.3125 C-36.65781821 78.70712873 -47.6153604 76.95487318 -58.875 75.6875 C-59.58521301 75.60682281 -60.29542603 75.52614563 -61.02716064 75.44302368 C-65.68114852 74.92041179 -70.33831055 74.44866668 -75 74 C-76.02955811 73.8954248 -77.05911621 73.79084961 -78.11987305 73.68310547 C-87.76737248 72.80798138 -97.42825786 72.77901793 -107.1081543 72.75976562 C-110.03268307 72.75009856 -112.95649557 72.71899504 -115.88085938 72.6875 C-145.03950052 72.17263307 -145.03950052 72.17263307 -170.4765625 84.0546875 C-186.40068804 104.38857089 -183.35873607 135.80507599 -183.31567383 160.11230469 C-183.31103981 162.95068192 -183.31799406 165.78863087 -183.33618164 168.62695312 C-184.82662573 208.45984585 -184.82662573 208.45984585 -170 244 C-151.35167983 260.47742793 -114.85963314 256.7243213 -92.16503906 255.484375 C-68.98308613 254.05080924 -46.22482285 250.76248352 -23.54296875 245.84277344 C-22.351875 245.58915039 -21.16078125 245.33552734 -19.93359375 245.07421875 C-18.88228271 244.84307373 -17.83097168 244.61192871 -16.74780273 244.3737793 C-14.04087047 244.00555955 -12.57177692 244.26379916 -10 245 C-8.56153701 254.69180734 -7.12696153 264.38418138 -5.69733429 274.07729626 C-5.03336673 278.57826452 -4.3680661 283.07902728 -3.69970703 287.5793457 C-3.05465167 291.92309001 -2.41311363 296.26734059 -1.77400208 300.61196327 C-1.52965771 302.26871534 -1.28405052 303.92528167 -1.03715515 305.5816555 C-0.69133829 307.90315912 -0.35003331 310.22528489 -0.00976562 312.54760742 C0.0930925 313.23093643 0.19595062 313.91426544 0.30192566 314.61830139 C0.80839334 318.10910113 1.10944132 321.47239625 1 325 C-18.08782776 331.43607405 -36.99341194 336.27343951 -56.9375 339.1875 C-57.99469238 339.3424292 -59.05188477 339.4973584 -60.14111328 339.65698242 C-63.75580594 340.15407708 -67.37392173 340.59624382 -71 341 C-71.79262238 341.08827057 -72.58524475 341.17654114 -73.40188599 341.26748657 C-88.56491743 342.89606553 -103.63544908 343.34304949 -118.87963867 343.31567383 C-122.56263511 343.31249988 -126.24483543 343.33614131 -129.92773438 343.36132812 C-166.27072128 343.45777777 -204.59406353 338.54118321 -233 314 C-234.13695312 313.07960938 -234.13695312 313.07960938 -235.296875 312.140625 C-260.94820463 290.73503268 -270.11745059 254.75135745 -274 223 C-274.09764648 222.24187012 -274.19529297 221.48374023 -274.29589844 220.70263672 C-281.66189308 161.48946427 -284.34553579 80.52029316 -248.7578125 29.8046875 C-246.90597522 27.46368566 -244.9890984 25.22417367 -243 23 C-242.236875 21.989375 -241.47375 20.97875 -240.6875 19.9375 C-222.48045114 0.03677218 -198.65101719 -7.75760363 -173 -13 C-172.12537109 -13.18224121 -171.25074219 -13.36448242 -170.34960938 -13.55224609 C-115.31758005 -24.39679305 -53.77642345 -12.66632816 0 0 Z " fill="#024B2C" transform="translate(1524,977)"/>
<path d="M0 0 C30.03 0 60.06 0 91 0 C91 28.05 91 56.1 91 85 C118.39 85 145.78 85 174 85 C174 112.72 174 140.44 174 169 C146.61 169 119.22 169 91 169 C91.11979978 198.71977555 91.11979978 198.71977555 91.2578125 228.43945312 C91.3181617 240.56451697 91.37653255 252.68956677 91.421875 264.81469727 C91.45491152 273.64660144 91.4948064 282.47844407 91.54279006 291.31028014 C91.56793959 295.9826499 91.58975437 300.65497944 91.60334396 305.3273983 C91.61626986 309.7342562 91.63843527 314.14097535 91.66738319 318.5477562 C91.67637738 320.15645017 91.68212987 321.76516643 91.68421364 323.3738842 C91.2030647 338.61045451 91.2030647 338.61045451 95 353 C97.23638553 353.70070914 97.23638553 353.70070914 99.9375 354.125 C100.83339844 354.29257813 101.72929688 354.46015625 102.65234375 354.6328125 C110.71368405 355.51702019 118.55242573 354.8938177 126.5625 353.8125 C127.53541992 353.68447998 128.50833984 353.55645996 129.51074219 353.42456055 C140.34770671 351.92650957 151.03818221 349.71057294 161.72949219 347.41137695 C164 347 164 347 167 347 C168.1748424 356.74407739 169.34841818 366.48830641 170.52036285 376.23273277 C171.06454335 380.75711899 171.60916527 385.28145118 172.15478516 389.80566406 C172.68100919 394.169184 173.20608787 398.53284036 173.73036194 402.896595 C173.93090253 404.56406218 174.13186058 406.2314792 174.33323669 407.89884567 C174.61452868 410.22849485 174.89435554 412.55831556 175.17382812 414.88818359 C175.25798477 415.58229843 175.34214142 416.27641327 175.42884827 416.99156189 C176 421.77189568 176 421.77189568 176 424 C140.54865839 436.73622273 98.25185831 444.3061552 61 435 C60.27828613 434.82839355 59.55657227 434.65678711 58.81298828 434.47998047 C41.41894242 430.24960939 26.12224256 421.74203418 16.0625 406.5 C15.00962692 404.68487739 13.98706012 402.85173543 13 401 C12.55269531 400.1853125 12.10539062 399.370625 11.64453125 398.53125 C-0.12620253 375.06221772 -0.175415 347.12538589 -0.11352539 321.46459961 C-0.11324238 319.78723655 -0.11340348 318.10987337 -0.1139679 316.43251038 C-0.11425142 311.93778146 -0.10842756 307.44307996 -0.10139394 302.94835734 C-0.09508542 298.2292093 -0.09455073 293.51006042 -0.09336853 288.79090881 C-0.09027711 279.88081162 -0.08209362 270.97072689 -0.07201904 262.06063515 C-0.06078942 251.90565954 -0.0553303 241.75068329 -0.05032361 231.59570301 C-0.03990886 210.7304602 -0.02159103 189.86523445 0 169 C-18.48 169 -36.96 169 -56 169 C-56 141.28 -56 113.56 -56 85 C-37.52 85 -19.04 85 0 85 C0 56.95 0 28.9 0 0 Z " fill="#024B2C" transform="translate(1039,880)"/>
<path d="M0 0 C30.03 0 60.06 0 91 0 C91 115.83 91 231.66 91 351 C60.97 351 30.94 351 0 351 C0 235.17 0 119.34 0 0 Z " fill="#024C2C" transform="translate(491,965)"/>
</svg>
