<?xml version="1.0" standalone="no"?>
<!DOCTYPE svg PUBLIC "-//W3C//DTD SVG 20010904//EN"
 "http://www.w3.org/TR/2001/REC-SVG-20010904/DTD/svg10.dtd">
<svg version="1.0" xmlns="http://www.w3.org/2000/svg"
 width="3840.000000pt" height="2160.000000pt" viewBox="0 0 3840.000000 2160.000000"
 preserveAspectRatio="xMidYMid meet">

<g transform="translate(0.000000,2160.000000) scale(0.100000,-0.100000)"
fill="#000000" stroke="none">
<path d="M15650 14665 c-266 -26 -402 -64 -597 -163 -151 -77 -182 -98 -319
-218 -19 -17 -29 -48 -54 -170 -18 -82 -36 -167 -41 -189 -5 -22 -18 -87 -29
-145 -11 -58 -27 -134 -36 -170 -8 -36 -26 -117 -39 -180 -14 -63 -41 -191
-61 -285 -19 -93 -39 -190 -44 -215 -11 -67 -66 -332 -90 -435 -11 -49 -25
-114 -30 -143 -5 -29 -19 -96 -30 -150 -30 -132 -55 -250 -90 -417 -16 -77
-45 -216 -65 -310 -60 -282 -87 -408 -96 -455 -4 -25 -15 -76 -24 -115 -28
-124 -33 -148 -60 -285 -15 -74 -31 -151 -35 -170 -35 -158 -82 -414 -91 -500
-14 -125 -6 -334 16 -438 21 -101 40 -153 92 -262 41 -84 58 -107 149 -197 61
-60 112 -103 123 -103 11 0 23 -5 26 -11 9 -13 93 -52 170 -77 57 -19 76 -23
170 -40 131 -23 465 3 541 43 16 8 36 15 44 15 29 0 206 95 270 144 152 119
267 257 353 422 35 66 118 266 113 272 -2 1 -47 -8 -102 -19 -72 -16 -134 -22
-224 -21 -118 0 -129 2 -190 30 -64 29 -160 110 -160 134 0 7 -6 25 -14 39
-22 42 -27 76 -27 182 0 81 8 141 41 297 23 107 65 312 95 455 29 143 63 305
75 360 63 289 72 334 80 380 5 28 16 82 25 120 9 39 21 95 26 125 14 71 25
124 39 180 6 25 18 81 26 125 24 123 30 154 49 235 21 90 32 144 45 226 16
104 21 112 82 119 29 3 109 4 178 1 203 -8 371 -8 438 -1 55 7 62 10 62 29 0
12 8 58 19 102 10 43 25 113 34 154 9 41 23 107 32 145 9 39 21 90 25 115 5
25 16 81 25 125 26 128 30 175 14 175 -8 0 -167 2 -354 3 l-340 2 3 50 c2 27
10 75 18 105 9 30 19 78 24 105 9 52 19 96 50 230 11 44 31 141 45 215 14 74
30 151 34 170 21 82 41 177 43 205 3 26 -1 30 -32 36 -19 4 -87 10 -150 14
-63 4 -122 8 -130 9 -8 2 -71 -2 -140 -9z"/>
<path d="M24827 14674 c-1 -1 -56 -5 -122 -8 -66 -4 -131 -9 -145 -12 -123
-25 -282 -66 -330 -87 -176 -76 -330 -163 -398 -227 -24 -22 -46 -40 -50 -40
-25 0 -60 -128 -107 -385 -7 -38 -27 -135 -44 -215 -17 -80 -38 -181 -47 -225
-8 -44 -19 -93 -23 -110 -5 -16 -14 -55 -20 -85 -6 -30 -20 -102 -32 -160 -11
-58 -26 -127 -33 -155 -8 -27 -21 -88 -30 -135 -31 -153 -56 -274 -72 -338 -8
-34 -22 -99 -30 -145 -21 -109 -27 -140 -58 -287 -15 -69 -35 -168 -46 -220
-10 -52 -26 -126 -35 -165 -9 -38 -20 -90 -25 -115 -11 -64 -47 -237 -130
-625 -18 -82 -36 -168 -40 -190 -4 -22 -24 -119 -45 -215 -45 -213 -48 -227
-74 -365 -11 -60 -25 -132 -31 -158 -5 -27 -10 -126 -10 -221 0 -149 4 -189
26 -291 15 -66 35 -135 45 -155 11 -19 19 -39 19 -45 0 -11 78 -141 102 -170
16 -20 86 -89 130 -130 46 -41 152 -98 243 -130 46 -16 70 -21 180 -41 22 -4
94 -9 159 -11 165 -6 342 25 471 82 17 7 41 18 55 24 14 6 32 15 40 20 8 5 28
15 43 22 16 7 39 23 52 35 13 12 28 24 33 25 44 17 225 197 253 253 7 11 19
30 29 41 19 22 60 93 98 170 13 28 27 52 31 55 7 6 63 171 59 175 -2 1 -43 -6
-93 -17 -54 -11 -137 -20 -205 -21 -207 -4 -316 51 -382 193 -29 61 -31 73
-31 185 -1 78 5 146 16 195 9 41 26 120 38 175 11 55 25 114 30 130 5 17 18
77 29 135 11 58 36 182 55 275 20 94 39 190 44 215 5 25 21 101 35 170 15 69
43 204 62 300 20 96 45 218 56 270 11 52 24 117 28 143 5 26 11 56 14 65 3 9
28 130 56 267 28 138 55 261 61 274 9 22 13 23 62 17 50 -7 658 -9 664 -2 3 3
25 100 39 171 2 11 8 43 14 70 5 28 15 73 20 100 5 28 14 68 19 90 18 81 31
143 59 278 l28 137 -353 0 c-309 0 -354 2 -360 15 -7 20 8 100 58 320 11 50
25 113 30 140 5 28 13 68 18 90 113 512 120 555 100 556 -8 0 -78 6 -157 12
-79 7 -144 12 -145 11z"/>
<path d="M11870 13657 c-3 -3 -45 -8 -94 -12 -50 -4 -99 -9 -110 -12 -12 -3
-46 -9 -76 -13 -160 -25 -454 -120 -578 -186 -34 -19 -66 -34 -71 -34 -11 0
-75 -37 -175 -100 -21 -14 -54 -34 -71 -45 -131 -82 -438 -361 -480 -435 -7
-14 -27 -36 -44 -50 -17 -14 -31 -29 -31 -35 0 -5 -14 -26 -31 -45 -40 -45
-174 -249 -183 -277 -4 -13 -12 -23 -17 -23 -5 0 -9 -5 -9 -11 0 -6 -8 -23
-19 -37 -10 -15 -21 -37 -25 -48 -4 -12 -27 -59 -52 -105 -25 -46 -56 -113
-70 -149 -14 -36 -31 -78 -39 -95 -30 -69 -55 -134 -75 -200 -12 -38 -28 -88
-35 -110 -15 -46 -70 -269 -86 -347 -61 -309 -86 -751 -55 -968 34 -233 95
-457 162 -588 18 -37 34 -73 34 -79 0 -7 4 -13 8 -13 4 0 21 -24 36 -52 47
-87 111 -170 203 -265 86 -87 159 -153 171 -153 3 0 14 -8 24 -17 41 -37 259
-156 353 -192 64 -25 149 -52 225 -72 25 -6 54 -15 65 -20 11 -4 76 -15 145
-24 69 -9 149 -20 179 -25 85 -15 439 -12 616 6 286 28 543 68 670 104 22 6
51 14 65 16 128 27 543 179 563 208 9 12 2 106 -13 176 -9 43 -40 239 -79 498
-10 67 -21 126 -25 129 -4 4 -28 -1 -54 -11 -26 -10 -72 -27 -102 -38 -30 -11
-64 -23 -75 -27 -21 -8 -77 -25 -200 -60 -72 -21 -182 -46 -245 -55 -117 -19
-150 -25 -166 -30 -43 -13 -237 -26 -383 -26 -161 0 -302 16 -363 43 -18 8
-61 24 -95 36 -166 58 -336 228 -399 399 -13 37 -29 76 -34 87 -17 38 -29 100
-45 245 -21 189 -18 240 15 257 20 10 313 13 1391 13 l1365 0 31 103 c18 56
34 120 38 142 3 22 10 54 15 70 29 100 61 288 101 605 20 155 22 423 5 565
-14 116 -30 211 -39 240 -2 6 -7 28 -11 50 -11 58 -25 104 -47 152 -10 24 -19
47 -19 53 0 5 -16 42 -35 81 -19 40 -35 76 -35 81 0 5 -11 24 -25 42 -14 18
-25 36 -25 39 0 8 -52 78 -108 147 -62 75 -173 178 -247 227 -77 52 -271 153
-295 153 -8 0 -28 7 -43 15 -15 8 -58 22 -95 31 -37 9 -71 20 -77 24 -5 4 -39
10 -75 14 -36 4 -105 13 -155 20 -83 13 -435 22 -445 13z m174 -778 c61 -16
247 -110 254 -128 3 -9 18 -31 34 -49 38 -45 80 -130 113 -232 27 -81 28 -95
29 -285 1 -196 -8 -293 -41 -453 -8 -40 -22 -79 -30 -87 -12 -12 -133 -15
-830 -15 l-816 0 6 67 c6 70 41 189 96 328 49 122 71 166 148 291 7 10 21 36
32 56 11 21 28 46 38 56 10 10 34 38 53 63 41 51 196 209 205 209 4 0 24 13
44 29 58 46 258 141 300 142 20 0 45 4 56 9 29 13 261 12 309 -1z"/>
<path d="M20875 13653 c-40 -4 -109 -13 -240 -33 -145 -22 -415 -101 -449
-132 -6 -4 -16 -8 -24 -8 -25 0 -309 -137 -332 -160 -13 -14 -79 -60 -85 -60
-9 0 -156 -110 -224 -169 -134 -113 -314 -306 -388 -414 -15 -23 -45 -64 -65
-92 -21 -27 -38 -53 -38 -57 0 -5 -15 -29 -34 -55 -76 -107 -206 -372 -286
-583 -15 -41 -47 -136 -70 -210 -23 -74 -45 -144 -50 -155 -7 -18 -37 -154
-60 -275 -29 -148 -41 -248 -55 -440 -16 -218 -12 -360 16 -565 13 -97 55
-273 80 -333 5 -13 9 -34 9 -47 0 -13 4 -25 8 -27 5 -1 28 -45 51 -96 81 -176
169 -301 302 -432 112 -110 122 -118 234 -195 163 -111 426 -217 635 -256 50
-9 87 -14 270 -37 90 -11 495 -8 630 5 69 7 150 15 180 17 63 5 212 29 315 51
124 26 219 46 255 54 54 13 296 95 390 134 178 73 162 62 157 115 -2 26 -10
76 -16 112 -7 36 -16 92 -21 125 -13 90 -37 247 -55 359 -8 55 -15 112 -15
128 0 35 -19 44 -62 28 -173 -64 -290 -104 -323 -110 -22 -5 -60 -15 -85 -23
-77 -25 -351 -79 -465 -92 -27 -3 -140 -8 -251 -12 -158 -4 -223 -2 -303 11
-99 16 -227 60 -283 98 -14 10 -29 18 -33 18 -26 0 -225 190 -225 215 0 7 -7
19 -16 26 -19 15 -58 99 -85 182 -33 104 -50 210 -56 356 -6 132 -5 145 12
157 16 12 254 14 1395 14 l1377 0 23 88 c13 48 26 92 30 97 4 6 10 28 13 50 4
22 16 83 27 135 11 52 23 109 26 125 30 183 46 293 60 415 22 192 22 489 0
635 -20 126 -64 325 -76 340 -4 5 -11 26 -15 45 -6 31 -105 242 -138 295 -25
41 -81 119 -96 134 -9 9 -30 32 -46 51 -17 19 -64 64 -106 100 -104 89 -118
100 -128 100 -5 0 -16 7 -25 15 -22 23 -203 110 -265 129 -29 9 -59 20 -65 24
-23 18 -212 58 -366 77 -95 12 -375 16 -475 8z m209 -778 c112 -26 172 -60
255 -144 65 -65 133 -201 157 -311 33 -157 28 -437 -13 -620 -8 -36 -19 -86
-25 -113 -8 -35 -16 -49 -32 -52 -11 -3 -385 -4 -831 -3 l-810 3 2 25 c4 60
62 253 106 355 124 285 250 475 417 631 89 84 237 170 355 207 28 8 64 20 80
25 49 16 265 14 339 -3z"/>
<path d="M34885 13610 c-11 -5 -37 -9 -57 -9 -54 -1 -407 -57 -513 -82 -168
-38 -220 -51 -275 -69 -30 -10 -71 -22 -90 -25 -19 -4 -39 -10 -45 -14 -5 -4
-28 -13 -50 -20 -133 -44 -323 -130 -345 -156 -12 -14 -62 -238 -159 -720 -17
-82 -37 -179 -45 -215 -8 -36 -17 -78 -20 -95 -2 -16 -14 -73 -26 -125 -11
-52 -32 -149 -46 -215 -13 -66 -35 -172 -49 -235 -34 -156 -44 -206 -55 -269
-5 -30 -16 -87 -25 -125 -35 -154 -47 -207 -76 -351 -55 -276 -155 -759 -194
-940 -14 -66 -30 -147 -36 -179 -5 -32 -14 -66 -18 -75 -5 -9 -11 -42 -15 -73
-3 -32 -12 -77 -20 -100 -7 -24 -21 -86 -30 -138 -10 -52 -26 -131 -36 -175
-10 -44 -26 -118 -35 -165 -9 -47 -21 -101 -26 -121 -13 -53 -11 -86 7 -93 9
-3 298 -6 644 -6 490 0 630 3 637 13 5 6 17 50 26 97 9 47 35 173 57 280 23
107 50 242 61 300 10 58 22 112 25 120 8 21 42 191 56 275 6 39 14 74 19 80 5
5 9 21 9 36 0 15 9 67 20 116 11 48 26 120 34 158 8 39 26 124 40 190 14 66
33 158 42 205 9 47 20 101 25 120 13 53 63 299 95 465 7 39 18 90 24 115 23
103 81 381 100 480 5 30 14 75 19 100 6 25 19 90 30 145 11 55 27 132 36 170
16 71 22 99 49 240 30 155 29 154 160 184 92 21 445 23 521 3 28 -7 70 -18 95
-24 25 -6 50 -15 55 -19 6 -4 32 -9 59 -11 l49 -3 13 40 c8 22 41 123 75 225
33 102 64 194 68 205 7 17 51 153 117 360 8 28 20 58 25 68 6 11 8 22 4 25 -3
3 -50 13 -103 20 -109 16 -872 26 -907 12z"/>
<path d="M3038 13518 c-2 -6 -1 -28 4 -47 4 -20 17 -146 28 -281 11 -135 25
-283 30 -330 5 -47 14 -137 20 -200 5 -63 17 -182 25 -265 8 -82 19 -204 25
-270 6 -66 15 -156 20 -200 5 -44 12 -116 15 -160 6 -79 17 -197 35 -370 5
-49 14 -142 20 -205 5 -63 15 -162 21 -220 5 -58 14 -152 19 -210 6 -58 15
-150 20 -205 16 -154 28 -275 45 -460 19 -206 33 -338 39 -385 3 -19 7 -69 10
-110 9 -121 49 -545 90 -955 9 -82 23 -222 31 -310 9 -88 20 -209 25 -270 5
-60 16 -175 24 -255 8 -80 18 -180 22 -223 l6 -77 606 2 606 3 166 330 c92
182 179 353 193 380 15 28 27 56 27 63 0 6 4 12 9 12 5 0 16 17 25 38 8 20 22
48 30 62 8 14 74 144 146 290 73 146 138 276 146 290 7 14 46 90 85 170 153
305 194 385 202 388 4 2 7 8 7 13 0 11 116 245 310 624 84 165 209 413 277
550 68 138 133 266 144 285 11 19 38 73 61 120 23 47 44 87 47 90 5 5 152 295
661 1310 97 195 180 362 184 370 3 8 17 33 31 55 14 22 27 47 31 55 3 8 12 26
20 40 9 14 27 50 41 80 26 57 35 75 134 270 33 63 59 118 59 123 0 11 -1304 9
-1335 -3 -16 -6 -32 -24 -41 -47 -18 -44 -60 -134 -114 -248 -21 -44 -50 -107
-65 -140 -15 -33 -40 -88 -56 -121 -16 -34 -29 -64 -29 -67 0 -4 -29 -66 -64
-139 -72 -152 -106 -225 -106 -231 0 -3 -23 -54 -51 -113 -28 -60 -68 -147
-89 -194 -21 -47 -60 -132 -87 -190 -28 -58 -60 -129 -73 -157 -13 -29 -27
-53 -32 -53 -4 0 -8 -7 -8 -16 0 -9 -18 -55 -41 -102 -22 -48 -44 -96 -49
-107 -4 -11 -21 -49 -38 -85 -101 -216 -122 -263 -122 -270 0 -4 -9 -25 -20
-47 -17 -33 -67 -138 -160 -338 -15 -33 -43 -94 -61 -135 -17 -41 -52 -114
-75 -162 -24 -48 -44 -89 -44 -92 0 -3 -18 -43 -40 -90 -22 -47 -40 -87 -40
-91 0 -11 -83 -176 -91 -181 -5 -3 -9 -12 -9 -21 0 -9 -9 -35 -19 -57 -38 -80
-91 -198 -91 -202 0 -2 -22 -50 -49 -106 -27 -57 -61 -128 -75 -158 -15 -30
-35 -71 -46 -90 l-18 -35 -15 35 c-10 24 -20 124 -32 320 -9 157 -20 350 -25
430 -5 80 -14 233 -20 340 -6 107 -13 220 -15 250 -6 68 -21 322 -35 575 -18
337 -40 706 -50 850 -5 77 -15 223 -20 325 -6 102 -18 282 -26 400 -7 119 -14
245 -14 280 0 35 -5 115 -11 177 l-12 113 -653 0 c-494 0 -653 -3 -656 -12z"/>
<path d="M8140 13511 c-5 -11 -10 -27 -10 -35 0 -9 -9 -56 -20 -104 -11 -48
-34 -152 -50 -232 -16 -80 -45 -221 -65 -315 -20 -93 -40 -190 -45 -215 -5
-25 -18 -88 -30 -140 -11 -52 -32 -149 -45 -215 -14 -66 -34 -163 -45 -215
-11 -52 -25 -117 -30 -145 -6 -27 -21 -102 -36 -165 -40 -183 -42 -191 -59
-279 -8 -46 -20 -103 -26 -125 -6 -23 -14 -61 -19 -86 -20 -114 -53 -267 -60
-285 -5 -11 -11 -38 -13 -60 -4 -39 -35 -194 -77 -380 -11 -49 -26 -124 -34
-165 -8 -41 -26 -127 -39 -190 -14 -63 -33 -151 -42 -195 -23 -112 -32 -153
-45 -210 -6 -27 -15 -70 -20 -95 -8 -45 -35 -170 -71 -335 -11 -49 -24 -110
-29 -135 -5 -25 -14 -67 -20 -95 -14 -62 -28 -137 -36 -193 l-7 -42 654 2 654
3 7 35 c4 19 14 67 23 105 9 39 20 88 24 110 5 22 20 96 35 165 15 69 31 145
36 170 5 25 19 88 30 140 11 52 25 120 31 150 6 30 15 63 20 72 5 10 9 30 9
45 0 26 21 133 55 273 7 30 18 82 25 115 26 136 41 212 50 245 5 19 14 64 21
100 6 36 15 79 20 95 4 17 22 102 39 190 17 88 47 234 66 325 19 91 39 190 45
220 6 30 17 76 25 102 8 26 14 57 14 69 0 12 5 40 11 63 19 72 27 109 44 196
9 47 25 121 35 165 11 44 30 136 44 205 34 171 36 180 46 225 12 52 79 370 97
460 8 39 18 88 22 110 5 22 18 85 30 140 34 156 71 345 71 361 0 12 -95 14
-650 14 -632 0 -650 -1 -660 -19z"/>
<path d="M17191 13508 c-5 -13 -16 -59 -24 -103 -9 -44 -21 -100 -27 -125 -6
-25 -18 -79 -25 -120 -8 -41 -19 -93 -24 -115 -16 -73 -52 -238 -77 -355 -13
-63 -32 -155 -43 -205 -18 -85 -33 -153 -68 -320 -8 -38 -19 -88 -23 -110 -4
-22 -13 -65 -20 -95 -7 -30 -16 -73 -20 -95 -35 -178 -114 -552 -161 -765 -17
-80 -35 -165 -40 -190 -4 -25 -12 -65 -18 -90 -5 -25 -21 -99 -35 -165 -15
-66 -31 -142 -36 -170 -5 -27 -14 -68 -21 -90 -6 -22 -18 -78 -26 -125 -17
-104 -25 -144 -56 -290 -14 -63 -39 -185 -56 -270 -17 -85 -35 -171 -40 -190
-5 -19 -22 -84 -36 -145 -32 -127 -32 -130 -86 -295 -57 -176 -75 -219 -146
-358 -55 -108 -141 -238 -191 -291 -9 -9 -29 -31 -43 -47 -33 -38 -129 -124
-137 -124 -4 0 -23 -14 -42 -30 -32 -28 -251 -160 -265 -160 -3 0 -32 -13 -63
-28 -32 -16 -84 -37 -117 -47 -33 -9 -83 -26 -112 -36 -29 -10 -81 -23 -115
-30 -35 -6 -88 -15 -118 -21 -72 -14 -427 -13 -510 0 -36 6 -96 16 -135 22
-38 6 -74 15 -80 19 -5 5 -34 14 -63 21 -28 6 -55 16 -58 21 -3 5 -14 9 -25 9
-16 0 -114 44 -186 83 -62 34 -190 113 -203 127 -9 8 -43 38 -75 65 -32 28
-72 62 -89 78 -17 15 -34 27 -37 27 -33 0 8 -407 51 -505 5 -11 13 -36 18 -55
6 -19 22 -55 36 -80 14 -25 29 -52 32 -60 15 -36 49 -100 54 -100 3 0 14 -16
24 -35 11 -19 23 -35 28 -35 4 0 8 -5 8 -12 0 -11 154 -186 177 -201 7 -4 18
-13 25 -20 48 -45 196 -149 235 -165 10 -4 50 -26 88 -49 39 -23 89 -46 112
-53 23 -6 45 -15 48 -19 3 -5 38 -19 78 -31 39 -12 83 -25 97 -30 31 -11 97
-25 229 -50 76 -15 168 -22 340 -26 248 -7 285 -4 561 46 62 11 149 38 315 99
137 50 416 203 480 263 17 15 33 28 37 28 14 0 157 120 238 201 131 130 299
329 300 356 0 7 6 16 13 20 12 8 67 78 67 86 0 7 68 118 83 136 19 21 157 303
157 319 0 7 11 34 25 60 14 26 25 52 25 59 0 7 9 28 20 48 11 20 20 42 20 50
0 9 4 23 9 33 5 9 17 42 26 72 9 30 20 64 25 75 7 17 40 138 70 255 15 63 49
223 65 310 9 47 23 112 31 145 8 33 21 94 29 135 8 41 33 163 56 270 22 107
45 213 49 235 4 22 13 65 20 95 7 30 16 75 21 100 4 25 15 77 23 115 8 39 31
144 51 235 19 91 40 185 44 210 5 25 23 108 39 185 76 352 95 443 102 485 13
76 50 252 55 259 2 5 9 32 14 62 11 57 25 126 61 299 12 58 26 123 30 145 4
22 22 108 40 190 18 83 36 168 41 190 4 22 20 94 34 160 14 66 30 147 36 180
5 33 14 74 20 90 5 17 21 86 34 155 13 69 29 141 35 160 5 19 10 41 10 47 0
10 -136 13 -655 13 l-655 0 -9 -22z"/>
<path d="M28798 13491 c-18 -6 -78 -78 -78 -93 0 -5 -16 -34 -35 -64 -19 -30
-35 -56 -35 -58 0 -1 -42 -72 -92 -157 -51 -85 -102 -171 -113 -192 -11 -21
-27 -46 -35 -55 -8 -10 -24 -35 -35 -57 -11 -22 -47 -83 -80 -135 -34 -52 -68
-108 -77 -125 -8 -16 -40 -70 -70 -120 -149 -243 -188 -308 -188 -311 0 -2
-25 -43 -55 -89 -30 -47 -55 -87 -55 -89 0 -2 -31 -55 -70 -117 -38 -63 -76
-129 -84 -146 -8 -18 -24 -42 -35 -55 -12 -12 -21 -26 -21 -30 0 -5 -16 -34
-36 -65 -19 -31 -40 -65 -45 -77 -5 -12 -27 -50 -49 -85 -22 -34 -40 -65 -40
-67 0 -2 -26 -44 -57 -92 -31 -48 -67 -105 -78 -127 -12 -22 -35 -61 -51 -87
-55 -90 -238 -393 -249 -413 -5 -11 -26 -45 -46 -75 -19 -30 -38 -62 -42 -70
-4 -8 -18 -33 -32 -55 -14 -22 -41 -69 -62 -105 -20 -36 -42 -72 -49 -80 -7
-8 -27 -42 -45 -75 -18 -33 -38 -63 -45 -68 -7 -4 -15 -21 -19 -37 -4 -16 -12
-33 -18 -37 -7 -5 -18 -19 -25 -33 -7 -14 -23 -43 -37 -65 -13 -22 -43 -72
-65 -112 -22 -39 -44 -74 -49 -78 -5 -3 -21 -29 -36 -58 -14 -28 -38 -71 -53
-94 -15 -23 -44 -71 -66 -105 -21 -35 -49 -79 -61 -98 -13 -19 -63 -102 -111
-184 -49 -82 -99 -165 -111 -185 -12 -20 -43 -72 -68 -116 -25 -44 -79 -134
-119 -200 -41 -66 -96 -156 -122 -200 -26 -44 -66 -111 -89 -150 -23 -38 -63
-106 -89 -150 -62 -104 -144 -239 -179 -292 -15 -24 -27 -45 -27 -48 0 -2 -16
-29 -35 -59 -19 -30 -35 -59 -35 -64 0 -5 -7 -16 -16 -23 -9 -7 -20 -22 -25
-34 -5 -11 -27 -49 -49 -85 -21 -35 -36 -68 -34 -72 3 -4 293 -8 644 -8 l639
0 51 93 c29 50 59 106 68 122 9 17 30 55 48 85 36 63 82 147 119 216 14 26 29
52 35 59 6 7 21 32 34 56 146 274 377 691 391 707 9 10 202 12 933 13 507 0
927 -3 934 -7 8 -5 10 -190 7 -673 l-4 -666 653 -3 652 -2 0 117 c0 65 -4 208
-10 318 -5 110 -14 331 -20 490 -6 160 -15 400 -21 535 -5 135 -15 367 -20
515 -24 660 -28 763 -38 980 -6 127 -15 388 -21 580 -6 193 -15 386 -19 430
-4 44 -9 172 -10 285 -1 112 -5 208 -8 213 -4 7 -13 215 -32 802 -12 332 -21
547 -30 670 l-6 90 -665 1 c-366 1 -673 -2 -682 -5z m314 -1353 c4 -12 -6
-1032 -18 -1985 -5 -348 -9 -457 -19 -470 -13 -17 -52 -18 -642 -19 -699 -1
-733 0 -733 25 0 17 3 23 80 156 77 133 91 158 137 245 25 47 53 96 63 110 9
14 38 66 65 115 26 50 69 126 95 170 26 44 55 97 64 118 10 20 22 37 27 37 5
0 9 5 9 11 0 6 19 43 42 82 45 78 93 166 129 237 13 25 38 68 56 97 18 29 33
55 33 58 0 3 10 22 23 43 13 20 39 66 59 102 19 36 44 81 55 100 11 19 49 87
85 150 36 63 76 133 88 155 13 22 39 69 58 105 20 36 44 79 54 95 27 46 80
142 106 194 38 73 73 102 84 69z"/>
<path d="M31577 13448 c-8 -29 -24 -102 -35 -163 -21 -110 -98 -478 -127 -610
-9 -38 -20 -92 -26 -120 -6 -27 -19 -90 -30 -140 -31 -140 -46 -215 -59 -280
-6 -33 -16 -73 -20 -90 -5 -16 -21 -93 -36 -170 -14 -77 -29 -149 -34 -160 -4
-11 -16 -65 -25 -120 -10 -55 -25 -134 -35 -175 -10 -41 -23 -102 -30 -135 -7
-33 -16 -78 -20 -100 -5 -22 -13 -65 -19 -95 -10 -54 -19 -93 -81 -390 -17
-80 -35 -165 -40 -190 -4 -25 -17 -83 -28 -130 -11 -47 -33 -150 -47 -230 -15
-80 -31 -153 -36 -162 -5 -10 -9 -26 -9 -36 0 -10 -9 -54 -19 -98 -10 -43 -26
-117 -36 -164 -9 -47 -25 -121 -35 -165 -10 -44 -26 -116 -34 -160 -34 -171
-38 -192 -51 -250 -7 -33 -18 -87 -25 -120 -6 -33 -16 -82 -22 -109 -8 -39 -8
-50 3 -57 16 -10 1219 -13 1267 -3 36 7 32 -4 75 204 15 69 47 224 73 345 25
121 48 231 51 245 10 58 26 131 48 225 12 55 28 127 35 160 6 33 15 76 20 95
5 19 16 71 24 115 29 141 67 327 93 445 28 130 35 162 56 275 9 44 23 114 32
155 8 41 29 138 45 215 26 127 80 383 110 525 7 30 20 91 31 135 10 44 22 107
28 140 5 33 19 94 31 135 12 41 23 95 26 120 4 41 21 126 44 220 5 19 21 91
35 160 14 69 34 163 45 210 10 47 22 105 25 130 4 25 11 59 15 75 5 17 17 68
26 115 9 47 22 113 29 148 11 57 10 64 -5 72 -9 5 -295 9 -653 10 l-635 0 -15
-52z"/>
</g>
</svg>
