<?xml version="1.0" encoding="UTF-8"?>
<svg version="1.1" xmlns="http://www.w3.org/2000/svg" width="1200" height="800">
<path d="M0 0 C0.33 0.66 0.66 1.32 1 2 C0.36723145 2.15033691 -0.26553711 2.30067383 -0.91748047 2.45556641 C-32.21429344 9.944386 -62.22010474 19.60880836 -87 41 C-87.80566406 41.66128906 -88.61132812 42.32257813 -89.44140625 43.00390625 C-108.70553026 59.37388956 -121.06212986 83.9114306 -124 109 C-124.2992127 114.66957716 -124.34068751 120.32368365 -124.3125 126 C-124.31034485 126.77789886 -124.3081897 127.55579773 -124.30596924 128.35726929 C-124.25356354 140.13931286 -123.79298123 151.50446763 -121 163 C-120.79600586 163.85239258 -120.59201172 164.70478516 -120.38183594 165.58300781 C-113.89364784 192.05519301 -103.24031375 216.65053937 -92.11660767 241.43081665 C-54.46520253 325.3244247 -54.46520253 325.3244247 -67 359 C-72.38252024 371.62108195 -80.23526131 381.21952715 -92.96923828 386.87451172 C-135.51558245 403.39323613 -190.83852836 385.22548053 -230.5625 367.75 C-234.72906332 365.87629925 -238.86852176 363.94973451 -243 362 C-243.60169006 361.71646667 -244.20338013 361.43293335 -244.82330322 361.14080811 C-249.34853828 359.00632917 -253.86503102 356.85404169 -258.375 354.6875 C-258.98006378 354.39685669 -259.58512756 354.10621338 -260.20852661 353.8067627 C-267.93037145 350.08617388 -275.51808428 346.18263163 -283 342 C-283 341.67 -283 341.34 -283 341 C-281.96294922 340.96036133 -280.92589844 340.92072266 -279.85742188 340.87988281 C-275.92772772 340.72517135 -271.99927225 340.54819812 -268.07080078 340.36523438 C-266.38583214 340.28970682 -264.7005981 340.21983982 -263.01513672 340.15625 C-242.36770642 339.47744531 -242.36770642 339.47744531 -224 331 C-221.01104156 327.1865013 -220.15815551 323.82374314 -220 319 C-224.85667904 292.85198697 -252.40952556 271.35783601 -273 257 C-273.72396973 256.49033691 -274.44793945 255.98067383 -275.19384766 255.45556641 C-286.04068027 247.86919059 -297.24929694 241.09051951 -309 235 C-309.73766602 234.6174707 -310.47533203 234.23494141 -311.23535156 233.84082031 C-333.7791402 222.31843945 -358.26866864 214.29035436 -383 209 C-383 208.67 -383 208.34 -383 208 C-377.70512396 207.12584181 -372.58862598 206.82707699 -367.2265625 206.796875 C-366.39405975 206.78981537 -365.56155701 206.78275574 -364.7038269 206.77548218 C-324.18039178 206.51051239 -285.10559108 211.33636895 -249 231 C-248.39994141 231.32081543 -247.79988281 231.64163086 -247.18164062 231.97216797 C-228.66813725 241.91030541 -212.82790582 255.31593157 -197 269 C-197.64267981 266.11541388 -198.55426265 263.57851591 -199.78515625 260.89453125 C-211.66061579 234.46819697 -221.0324603 205.68755332 -221.203125 176.44140625 C-221.20882507 175.6533812 -221.21452515 174.86535614 -221.22039795 174.05345154 C-221.22977664 172.39380198 -221.23635324 170.73413441 -221.24023438 169.07446289 C-221.24985647 166.59941902 -221.28091356 164.12523761 -221.3125 161.65039062 C-221.40697791 147.52682303 -220.11055083 133.3506824 -215.375 119.9375 C-215.12339111 119.20837402 -214.87178223 118.47924805 -214.61254883 117.72802734 C-201.24248011 80.68055068 -170.09384933 54.54841246 -136 37 C-135.27151855 36.62278809 -134.54303711 36.24557617 -133.79248047 35.85693359 C-97.30216583 17.19518324 -56.70099612 7.26919003 -16.375 1.0625 C-15.61896484 0.94608154 -14.86292969 0.82966309 -14.08398438 0.7097168 C-9.33867419 0.04015658 -4.77739143 -0.09125354 0 0 Z " fill="#E4A320" transform="translate(791,35)"/>
<path d="M0 0 C10.54540467 -0.11658486 21.09065244 -0.20506221 31.63657379 -0.25906086 C36.53513079 -0.28499633 41.43324227 -0.32009552 46.33154297 -0.37719727 C51.07135811 -0.43209666 55.81074864 -0.46154072 60.55085754 -0.47438622 C62.34632539 -0.4835234 64.14177379 -0.50136146 65.9370575 -0.52865028 C81.91084781 -0.76148264 96.39302079 1.19068264 109 12 C109.65484375 12.54527344 110.3096875 13.09054687 110.984375 13.65234375 C118.62989899 20.59539438 122.56492008 30.21741484 123.21875 40.41015625 C123.54735227 53.86915764 121.58791531 64.92254177 112.18359375 74.93359375 C107.35984155 79.46499733 102.01845172 82.32376225 96 85 C96.66 85.66 97.32 86.32 98 87 C98.45810059 87.4626123 98.91620117 87.92522461 99.38818359 88.40185547 C100.51394779 89.51807062 101.65931231 90.61470917 102.81884766 91.69580078 C107.986285 96.61223002 111.7395665 101.76145728 115.375 107.875 C115.93243896 108.79265137 116.48987793 109.71030273 117.06420898 110.65576172 C120.53141829 116.40681211 123.83926138 122.23454783 127.0625 128.125 C137.99361625 148.58075804 137.99361625 148.58075804 154 165 C154.66 165.66 155.32 166.32 156 167 C154.05663391 168.94336609 150.39923438 168.21081114 147.74609375 168.23828125 C147.01181656 168.246353 146.27753937 168.25442474 145.52101135 168.26274109 C143.95991387 168.27660405 142.39878579 168.28731626 140.83764648 168.29516602 C138.47123634 168.31225635 136.10626868 168.35610325 133.74023438 168.40039062 C117.8438316 168.57411604 117.8438316 168.57411604 111.18041992 162.28173828 C106.77546447 157.56555994 103.47274934 152.25010653 100.25 146.6875 C99.74049805 145.82519775 99.23099609 144.96289551 98.70605469 144.07446289 C96.12286801 139.68950749 93.58380202 135.28014849 91.0625 130.859375 C86.11874488 122.19952005 81.18404947 113.85057504 75 106 C74.33871094 105.12601563 73.67742187 104.25203125 72.99609375 103.3515625 C69.44238836 99.16500547 65.33386597 97.33346649 60 96 C54.06 95.67 48.12 95.34 42 95 C42 119.09 42 143.18 42 168 C31.44 168 20.88 168 10 168 C9.9906543 163.47812988 9.98130859 158.95625977 9.97167969 154.29736328 C9.9378979 139.34957806 9.88254237 124.40193008 9.81609726 109.45425606 C9.77634122 100.39235271 9.74393131 91.33053576 9.72900391 82.26855469 C9.71596955 74.3672243 9.68895949 66.46608432 9.64538693 58.56486118 C9.6228121 54.38381304 9.60708692 50.2029994 9.60811615 46.02188492 C9.60886513 42.08027101 9.59081982 38.13917468 9.55883217 34.19769478 C9.55036705 32.75706788 9.54856007 31.3163827 9.55419731 29.87574196 C9.59518194 17.78403965 7.45708953 9.52850328 0 0 Z M42 15 C42 35.13 42 55.26 42 76 C65.49291499 77.38450108 65.49291499 77.38450108 85 67 C91.1028839 59.2199877 93.51127262 50.31687931 92.82421875 40.484375 C91.65747287 32.98891662 88.61265655 26.17913776 82.8515625 21.109375 C70.12720253 12.16323795 58.4121641 15 42 15 Z " fill="#2B3789" transform="translate(879,483)"/>
<path d="M0 0 C6.16969107 -0.44905372 12.32970038 -0.77319277 18.51196289 -0.98876953 C20.60739808 -1.07866365 22.7017235 -1.20106078 24.79321289 -1.35791016 C41.64062941 -2.58858799 41.64062941 -2.58858799 47.17999268 1.67980957 C51.08688542 5.8698814 53.91308999 10.59032398 56.63320923 15.60552979 C58.93245989 19.6335693 61.73036523 23.28762064 64.5 27 C65.58561337 28.49835067 66.66921502 29.99816281 67.75 31.5 C68.28625 32.2425 68.8225 32.985 69.375 33.75 C71 36 72.625 38.25 74.25 40.5 C74.7864917 41.24282227 75.3229834 41.98564453 75.87573242 42.75097656 C76.95667191 44.24768701 78.03756401 45.74443168 79.1184082 47.24121094 C81.8629754 51.04182637 84.60841966 54.84180298 87.35546875 58.640625 C92.25345391 65.41540822 97.14734978 72.19264532 102 79 C105.79627128 84.32424719 109.61109155 89.6348677 113.4375 94.9375 C113.92669922 95.61619141 114.41589844 96.29488281 114.91992188 96.99414062 C120.23974093 104.35951592 125.62657977 111.67260878 131 119 C131.495 60.095 131.495 60.095 132 0 C137.94 0 143.88 0 150 0 C150.00142502 1.91155884 150.00285004 3.82311768 150.00431824 5.79260254 C150.02098401 23.80279078 150.06344838 41.81275497 150.13209057 59.82282257 C150.16671972 69.08210373 150.19209337 78.34123634 150.19555664 87.60058594 C150.19859942 95.67258525 150.21913207 103.74431985 150.26052457 111.81621695 C150.28182786 116.08891462 150.29446901 120.36123621 150.28615379 124.63398743 C150.27859658 128.65939712 150.29450332 132.68404588 150.32806015 136.70931625 C150.33627344 138.18303561 150.33606689 139.65683093 150.32659721 141.13054276 C150.26846213 151.17590292 151.27795511 157.15033228 158.3125 164.375 C158.869375 164.91125 159.42625 165.4475 160 166 C160 166.66 160 167.32 160 168 C155.58957485 168.24902505 151.18296024 168.42943744 146.76757812 168.54931641 C145.26945694 168.5993183 143.77181683 168.66735482 142.27539062 168.75439453 C129.91361229 169.4548953 129.91361229 169.4548953 125.38354492 166.01074219 C123.31060247 163.44407817 121.64425249 160.85716636 120 158 C119.0306296 156.63599093 118.04856418 155.28086479 117.05078125 153.9375 C116.13508987 152.62704316 115.22238589 151.31449438 114.3125 150 C113.27689663 148.51893306 112.24040794 147.03848486 111.203125 145.55859375 C110.41325195 144.43106689 110.41325195 144.43106689 109.60742188 143.28076172 C106.95638352 139.51921854 104.26106084 135.79003187 101.5625 132.0625 C100.75292847 130.94391602 100.75292847 130.94391602 99.92700195 129.80273438 C98.83195428 128.29034735 97.73665781 126.77814043 96.64111328 125.26611328 C93.92351827 121.513552 91.21205527 117.75656581 88.5 114 C87.41669638 112.49997854 86.33336304 110.99997854 85.25 109.5 C52.75 64.5 52.75 64.5 51.12207031 62.24584961 C50.04862167 60.75959824 48.97505573 59.27343159 47.90136719 57.78735352 C45.04078489 53.82771913 42.18279458 49.86624348 39.328125 45.90234375 C38.72935547 45.07154297 38.13058594 44.24074219 37.51367188 43.38476562 C36.35798175 41.78113359 35.20300731 40.17698548 34.04882812 38.57226562 C33.53255859 37.85619141 33.01628906 37.14011719 32.484375 36.40234375 C32.02772461 35.76804443 31.57107422 35.13374512 31.10058594 34.48022461 C30.07674551 33.02823404 30.07674551 33.02823404 29 32 C28.10661821 48.66463714 27.86498276 65.27872531 27.90234375 81.96484375 C27.90421489 84.4654589 27.90563549 86.96607442 27.90663147 89.46669006 C27.91040193 95.96506815 27.92018368 102.46342294 27.93133545 108.96179199 C27.941669 115.62621769 27.94615436 122.29064667 27.95117188 128.95507812 C27.96181236 141.97006217 27.97882073 154.98502913 28 168 C22.06 168 16.12 168 10 168 C9.99191315 166.17835831 9.98382629 164.35671661 9.97549438 162.47987366 C9.89799478 145.30887171 9.81036203 128.13794781 9.71247292 110.9670496 C9.66240683 102.13942754 9.61596333 93.3118145 9.578125 84.48413086 C9.54512582 76.78758426 9.50525108 69.09110881 9.45720994 61.39464086 C9.43202358 57.32155428 9.41021932 53.24851442 9.39665604 49.17537117 C9.38376401 45.33649124 9.36163367 41.49777218 9.33261681 37.65898132 C9.32359656 36.25501693 9.31786388 34.85102667 9.31578636 33.44703484 C9.48794885 19.5403874 9.48794885 19.5403874 3.9375 7.125 C2.10832279 4.62944772 0.98918056 2.96754167 0 0 Z " fill="#2B3789" transform="translate(271,483)"/>
<path d="M0 0 C14.19 0 28.38 0 43 0 C43 4.29 43 8.58 43 13 C43.62528349 16.75909017 43.62528349 16.75909017 44.76220703 19.99023438 C45.1524707 21.21050323 45.54273438 22.43077209 45.94482422 23.6880188 C46.38219283 24.99002805 46.81986539 26.29193522 47.2578125 27.59375 C47.71525251 29.00114389 48.17093133 30.40911123 48.625 31.81759644 C49.8493168 35.60000849 51.09624721 39.3745965 52.34763336 43.14812469 C53.65784658 47.1120948 54.94725451 51.08281239 56.23779297 55.05322266 C57.84628564 59.99851424 59.4563383 64.94326231 61.07522583 69.88516235 C64.87218624 81.48188862 68.58515813 93.1030871 72.25 104.7421875 C72.75264361 106.33570871 73.25539944 107.92919452 73.75827026 109.52264404 C77.7067689 122.03726308 77.7067689 122.03726308 79.53131104 127.86352539 C80.64135323 131.40701497 81.75949654 134.94785393 82.88339233 138.48697281 C83.48370434 140.38472494 84.0754086 142.2851934 84.66674805 144.1857605 C87.6422797 153.52565098 91.31107651 161.99336695 97 170 C92.83746725 170.09938095 88.67557521 170.17170617 84.51220703 170.21972656 C83.09802205 170.23975843 81.68391903 170.26699248 80.27001953 170.30175781 C78.22928581 170.35065489 76.1896531 170.37305123 74.1484375 170.390625 C72.92302246 170.41157227 71.69760742 170.43251953 70.43505859 170.45410156 C65.19827151 169.76181841 62.28285922 167.39949556 58.77124023 163.56860352 C51.54928939 153.09553049 48.52296544 138.96494345 44.58129883 126.95336914 C43.74959083 124.42538638 42.90501198 121.90199527 42.05859375 119.37890625 C41.81056503 118.61115372 41.56253632 117.84340118 41.30699158 117.05238342 C39.34425421 111.24312992 37.3633559 107.33592051 31.82592773 104.20581055 C27.5153258 102.57869699 23.34188998 102.62066617 18.78515625 102.70703125 C17.92941513 102.71127609 17.07367401 102.71552094 16.19200134 102.71989441 C13.4818358 102.73657211 10.77243752 102.77420295 8.0625 102.8125 C6.2155056 102.82756098 4.36849944 102.8412469 2.52148438 102.85351562 C-1.98596884 102.88643974 -6.49285472 102.93814531 -11 103 C-13.33170968 109.96948029 -15.66092684 116.93979018 -17.98852539 123.91064453 C-18.778335 126.2750878 -19.56868611 128.63935026 -20.35961914 131.00341797 C-24.69617556 143.9664576 -28.98508261 156.93341516 -33 170 C-39.6 170 -46.2 170 -53 170 C-52.30341371 165.12389594 -51.61074889 161.3025674 -50.14233398 156.72924805 C-49.76201523 155.53498703 -49.38169647 154.34072601 -48.98985291 153.11027527 C-48.57529983 151.82741233 -48.16071265 150.54456041 -47.74609375 149.26171875 C-47.32096895 147.93148167 -46.89642272 146.60105955 -46.47242737 145.27046204 C-45.36088025 141.78618813 -44.24319065 138.30391954 -43.12365723 134.82220459 C-41.32706491 129.23282403 -39.53786597 123.64108692 -37.75251961 118.04810524 C-37.12812108 116.09618673 -36.49985194 114.14554437 -35.87120056 112.19499207 C-35.49403397 111.01649185 -35.11686737 109.83799164 -34.72827148 108.6237793 C-34.39375473 107.5834404 -34.05923798 106.5431015 -33.71458435 105.47123718 C-32.90740649 103.10853151 -32.90740649 103.10853151 -33 101 C-34.0621875 100.70867187 -35.124375 100.41734375 -36.21875 100.1171875 C-53.8691238 95.09360352 -53.8691238 95.09360352 -59.0625 86.64453125 C-64.16618534 77.27613931 -64.16618534 77.27613931 -63.68359375 73.5703125 C-63.45800781 73.05210937 -63.23242188 72.53390625 -63 72 C-62.319375 72.38671875 -61.63875 72.7734375 -60.9375 73.171875 C-50.16445479 78.95952163 -39.14425845 81.63714433 -27 83 C-26.82712463 82.33926483 -26.65424927 81.67852966 -26.47613525 80.99777222 C-24.63225001 74.07929054 -22.51929466 67.29204077 -20.234375 60.5078125 C-19.87788879 59.44118378 -19.52140259 58.37455505 -19.15411377 57.27560425 C-18.02225466 53.89110905 -16.88623611 50.50802795 -15.75 47.125 C-15.0036241 44.89592779 -14.25752833 42.66676176 -13.51171875 40.4375 C-12.0502415 36.07016295 -10.58725515 31.70333622 -9.12304688 27.33691406 C-6.06982895 18.22867186 -3.03538909 9.11419739 0 0 Z M12 23 C9.51923356 30.5265799 7.04164077 38.05419371 4.56812286 45.58315849 C3.41954106 49.07890656 2.26985834 52.57428457 1.11767578 56.06884766 C0.00635369 59.43961631 -1.10209749 62.81131636 -2.20854187 66.18368912 C-2.63174252 67.47186183 -3.05598666 68.7596922 -3.48127747 70.04717636 C-4.07554405 71.84679215 -4.66579998 73.64773084 -5.25585938 75.44873047 C-5.59339233 76.47465302 -5.93092529 77.50057556 -6.27868652 78.55758667 C-7.09441156 80.8952337 -7.09441156 80.8952337 -7 83 C-5.6087793 83.03758423 -5.6087793 83.03758423 -4.18945312 83.07592773 C-0.71539461 83.17163362 2.7585292 83.2708291 6.23242188 83.37231445 C7.72977874 83.41535863 9.22717513 83.45705201 10.72460938 83.49731445 C12.88944356 83.55576498 15.05408434 83.61923453 17.21875 83.68359375 C19.1668457 83.73858032 19.1668457 83.73858032 21.15429688 83.79467773 C25.15303143 84.00817036 29.0343126 84.457997 33 85 C30.95347751 77.14987549 28.57571368 69.45688138 25.98828125 61.76953125 C25.61519333 60.65309738 25.24210541 59.53666351 24.85771179 58.38639832 C23.67881701 54.86080662 22.49573262 51.33663793 21.3125 47.8125 C20.50688278 45.40569222 19.70154159 42.99879203 18.89648438 40.59179688 C16.93417793 34.72679294 14.96844042 28.86294788 13 23 C12.67 23 12.34 23 12 23 Z " fill="#2B3789" transform="translate(773,481)"/>
<path d="M0 0 C3.31232378 4.37553882 3.70361213 8.51636944 4.1875 13.8125 C4.26935547 14.60076172 4.35121094 15.38902344 4.43554688 16.20117188 C4.63458616 18.13302376 4.81879107 20.06639413 5 22 C2.91359935 20.9867376 0.90137462 19.94012449 -1.08236694 18.73579407 C-8.37303541 14.53731222 -14.81429754 14.26711966 -23.1015625 14.29296875 C-24.41917572 14.27784744 -25.73678894 14.26272614 -27.09432983 14.24714661 C-30.56311757 14.20760997 -34.03137982 14.19712678 -37.50036621 14.19311523 C-41.05378604 14.18372383 -44.60691395 14.1465402 -48.16015625 14.11132812 C-55.10716117 14.04449105 -62.05217139 14.0233719 -69 14 C-69 32.15 -69 50.3 -69 69 C-46.89 69 -24.78 69 -2 69 C-2 74.94 -2 80.88 -2 87 C-24.11 87 -46.22 87 -69 87 C-69 106.47 -69 125.94 -69 146 C-57.23809786 145.90915068 -57.23809786 145.90915068 -45.4765625 145.79101562 C-40.67711367 145.736757 -35.87778 145.6856446 -31.078125 145.65356445 C-27.20702626 145.62748975 -23.33631573 145.5870585 -19.46545792 145.53681374 C-17.99119025 145.52017306 -16.51685548 145.50864136 -15.04250717 145.50238609 C-12.97177515 145.492714 -10.90203 145.4646206 -8.83154297 145.43237305 C-7.65461884 145.42126999 -6.4776947 145.41016693 -5.2651062 145.39872742 C-0.25892783 144.78738419 3.62330908 142.61756105 7.375 139.3125 C8.24125 138.549375 9.1075 137.78625 10 137 C9.88509088 139.68826864 9.75836801 142.37513469 9.625 145.0625 C9.5940625 145.81466797 9.563125 146.56683594 9.53125 147.34179688 C9.28278522 152.12474389 8.90141122 156.54669477 7 161 C1.81593754 164.52617413 -2.92302655 164.41104714 -8.95263672 164.34057617 C-9.9386235 164.34101425 -10.92461029 164.34145233 -11.94047546 164.34190369 C-15.18708358 164.33982005 -18.43317002 164.31650858 -21.6796875 164.29296875 C-23.93555418 164.2873713 -26.19142451 164.2831019 -28.44729614 164.28010559 C-34.37555058 164.26866864 -40.30358341 164.2392111 -46.23175049 164.20599365 C-52.28467817 164.17526813 -58.33764176 164.16159493 -64.390625 164.14648438 C-76.26051386 164.11434051 -88.13023848 164.06315785 -100 164 C-100.00238835 163.2586166 -100.00477671 162.5172332 -100.00723743 161.75338364 C-100.06649869 143.67337511 -100.14211953 125.59350181 -100.23571491 107.51363754 C-100.28058766 98.7701717 -100.32002175 90.02674582 -100.34643555 81.28320312 C-100.36948488 73.65801705 -100.40295973 66.03295832 -100.44870156 58.40787339 C-100.47254071 54.37435184 -100.49133021 50.34095569 -100.49761391 46.30736542 C-100.50370724 42.50206471 -100.52385804 38.69708446 -100.55427551 34.89190292 C-100.56298829 33.50371663 -100.56679254 32.11548834 -100.56500816 30.72727585 C-100.5554762 19.87888916 -100.98056509 8.77429364 -108 0 C-109.00308373 -1.33101495 -110.00362687 -2.66395421 -111 -4 C-98.93397593 -4.15431504 -86.86789325 -4.30249042 -74.80169964 -4.4429636 C-69.19808021 -4.5083903 -63.59450194 -4.57588175 -57.9909668 -4.64819336 C-52.57694811 -4.71798167 -47.16288869 -4.7822137 -41.74875832 -4.84269524 C-39.68963059 -4.8666548 -37.63052462 -4.89257086 -35.57144737 -4.92053413 C-5.91090952 -5.31981856 -5.91090952 -5.31981856 0 0 Z " fill="#2B3789" transform="translate(687,487)"/>
<path d="M0 0 C10.02390854 -0.0933116 20.04771116 -0.16407173 30.07196808 -0.20724869 C34.72831228 -0.22798754 39.384356 -0.25604953 44.04052734 -0.30175781 C48.54690946 -0.34571106 53.05300539 -0.36923966 57.55958557 -0.37950897 C59.26571651 -0.38681273 60.97183453 -0.40107058 62.67784119 -0.42292023 C81.35312954 -0.65225533 98.72144619 2.2515136 112.80078125 15.53515625 C120.34483007 23.99038681 122.35199627 34.30884055 122.3125 45.3125 C122.32861328 46.19873047 122.34472656 47.08496094 122.36132812 47.99804688 C122.3694978 59.19867747 119.05822416 68.466621 111.40625 76.71875 C99.82284682 87.42793407 83.80335587 90.20626218 68.5625 90.09765625 C67.79695801 90.0962413 67.03141602 90.09482635 66.24267578 90.09336853 C63.82840858 90.08782853 61.41423856 90.07528779 59 90.0625 C57.35026177 90.05747723 55.70052206 90.05291569 54.05078125 90.04882812 C50.03381745 90.03787886 46.01692513 90.02065666 42 90 C41.97437549 96.98851731 41.95701951 103.97702224 41.94506836 110.96557617 C41.94007928 113.33667453 41.93328565 115.70776987 41.92456055 118.07885742 C40.03038317 141.61770216 40.03038317 141.61770216 47.4296875 162.58203125 C49.15259597 164.20712903 49.15259597 164.20712903 52 166 C52 166.66 52 167.32 52 168 C47.53429551 168.0743839 43.06892316 168.12871171 38.6027832 168.16479492 C37.08481562 168.17984353 35.56689124 168.20028738 34.04907227 168.22631836 C31.86203323 168.26287653 29.67557104 168.27976523 27.48828125 168.29296875 C25.51661987 168.31653442 25.51661987 168.31653442 23.50512695 168.34057617 C19.52759627 167.95409882 17.9720115 167.67057037 15 165 C9.85872738 157.4137232 9.29017235 150.50370579 9.38818359 141.5390625 C9.38251877 140.22717957 9.37685394 138.91529663 9.37101746 137.56365967 C9.35891504 134.72946778 9.36221409 131.89587984 9.37784958 129.06170654 C9.40233824 124.57172964 9.39060204 120.08227234 9.37417603 115.59228516 C9.34976129 107.6787175 9.35545337 99.76539006 9.36798096 91.85180664 C9.38660328 79.94206565 9.3815844 68.03237117 9.34794676 56.1226635 C9.33649665 51.66788273 9.34078356 47.21348687 9.35796714 42.75872803 C9.36399256 40.6512238 9.36322988 38.54384837 9.35957336 36.43634033 C9.3553621 33.87883854 9.36170554 31.32128609 9.38117981 28.76385498 C9.33881794 19.64436789 8.2955138 11.42937457 2.8125 3.875 C2.28269531 3.12992187 1.75289063 2.38484375 1.20703125 1.6171875 C0.80871094 1.08351563 0.41039062 0.54984375 0 0 Z M42 15 C40.97138288 21.74829775 40.87023686 28.33743674 40.90234375 35.15625 C40.9037587 36.29912476 40.90517365 37.44199951 40.90663147 38.61950684 C40.91219975 42.24636525 40.92474638 45.87316045 40.9375 49.5 C40.9425191 51.9687491 40.94708129 54.43749918 40.95117188 56.90625 C40.96215879 62.93752133 40.97886515 68.96875615 41 75 C44.68747357 75.03656868 48.37489987 75.05860504 52.0625 75.078125 C53.62000977 75.09383545 53.62000977 75.09383545 55.20898438 75.10986328 C65.27402745 75.14980393 74.68304525 74.15454651 83 68 C90.47560436 60.05608632 91.58022728 51.68072611 91.3125 41.01953125 C90.88850897 33.52372323 88.32032884 25.86604452 82.95703125 20.4375 C71.61187895 12.10413464 55.23500191 14.61470155 42 15 Z " fill="#2B3789" transform="translate(440,483)"/>
<path d="M0 0 C4.83799361 -0.09951569 9.67538025 -0.17177037 14.51416016 -0.21972656 C16.1571695 -0.23973571 17.80010859 -0.26695213 19.44287109 -0.30175781 C21.81625788 -0.35075305 24.18869649 -0.37307504 26.5625 -0.390625 C27.64893799 -0.42159271 27.64893799 -0.42159271 28.75732422 -0.45318604 C35.07162098 -0.45591085 39.98046021 1.28803302 44.71626282 5.54144287 C48.45885779 9.60392985 50.52932301 13.83612067 52.35546875 19 C52.64278366 19.7741626 52.93009857 20.5483252 53.22612 21.34594727 C54.16608124 23.89197113 55.08361355 26.44540569 56 29 C56.64968207 30.78026613 57.30025264 32.56020824 57.95166016 34.33984375 C60.0952769 40.21824153 62.20436458 46.10880537 64.3125 52 C65.08747898 54.1600828 65.8627119 56.32007451 66.63818359 58.47998047 C68.25763718 62.99119135 69.87599178 67.50279432 71.49365234 72.01464844 C75.29059319 82.60124424 79.10315178 93.18221989 82.91439819 103.76367188 C84.84195325 109.11567532 86.76861016 114.46800204 88.6953125 119.8203125 C89.34130415 121.6147477 89.98729974 123.40918147 90.63330078 125.20361328 C91.08886719 126.46907552 91.54443359 127.73453776 92 129 C95.40992971 121.77691791 98.07511688 114.36264515 100.67578125 106.81640625 C101.12227923 105.53041572 101.56916797 104.2445608 102.01641846 102.95883179 C102.96263997 100.23676241 103.90667872 97.51395083 104.84890747 94.79049683 C107.06497227 88.38595091 109.29296032 81.98555089 111.5208416 75.5851078 C112.01780321 74.15731535 112.51463551 72.72947789 113.01133919 71.30159569 C117.46774641 58.49180801 121.98678512 45.70520369 126.5625 32.9375 C126.86129059 32.1035672 127.16008118 31.2696344 127.46792603 30.41043091 C128.57189425 27.33044618 129.67607386 24.25054483 130.78425598 21.17207336 C132.02483592 17.7255223 133.25737636 14.27653517 134.47216797 10.82080078 C134.81924049 9.83691124 134.81924049 9.83691124 135.17332458 8.83314514 C135.79594147 7.06601128 136.41554161 5.29781533 137.03491211 3.52954102 C138 1 138 1 139 0 C140.34267413 -0.08631874 141.68974322 -0.10706473 143.03515625 -0.09765625 C143.84404297 -0.09443359 144.65292969 -0.09121094 145.48632812 -0.08789062 C146.7615332 -0.07532227 146.7615332 -0.07532227 148.0625 -0.0625 C148.91650391 -0.05798828 149.77050781 -0.05347656 150.65039062 -0.04882812 C152.76695663 -0.03700373 154.88348685 -0.01906769 157 0 C156.31705127 5.42784773 154.65399295 10.30784253 152.8515625 15.44140625 C152.36588303 16.84196259 152.36588303 16.84196259 151.87039185 18.27081299 C150.79374368 21.36986139 149.70960717 24.4662289 148.625 27.5625 C147.85695835 29.76582104 147.08905744 31.96919114 146.32128906 34.17260742 C140.12441225 51.92306043 133.78342367 69.62105371 127.40893555 87.30834961 C122.94356033 99.71162177 118.53798837 112.13401502 114.19921875 124.58203125 C113.9574931 125.27515474 113.71576744 125.96827824 113.46671677 126.68240547 C111.08859595 133.50184481 108.71423944 140.32255382 106.35209179 147.14754391 C105.27804468 150.24782604 104.19899782 153.34636963 103.12109375 156.4453125 C102.73241623 157.5739119 102.34373871 158.70251129 101.94328308 159.86531067 C101.58357925 160.89734116 101.22387543 161.92937164 100.85327148 162.99267578 C100.54195786 163.89204865 100.23064423 164.79142151 99.90989685 165.7180481 C99 168 99 168 97 171 C94.56982422 171.34057617 94.56982422 171.34057617 91.5546875 171.29296875 C90.47832031 171.28330078 89.40195313 171.27363281 88.29296875 171.26367188 C87.16503906 171.23853516 86.03710938 171.21339844 84.875 171.1875 C83.73933594 171.17396484 82.60367188 171.16042969 81.43359375 171.14648438 C78.62192613 171.11104319 75.81119583 171.06163517 73 171 C67.28964246 156.74800887 62.14168143 142.30809356 57.04067993 127.82910156 C54.61417985 120.94196376 52.17588625 114.05899461 49.73828125 107.17578125 C49.49405867 106.48591755 49.24983608 105.79605385 48.99821281 105.08528519 C42.67414293 87.22411983 36.24098851 69.40293187 29.75579834 51.59967041 C27.9747442 46.70433698 26.213566 41.80263762 24.47636414 36.89157104 C23.47078108 34.05124165 22.45633835 31.21412431 21.44052124 28.37744141 C20.77948717 26.52034088 20.13125989 24.65869674 19.48364258 22.796875 C16.91588643 15.65512164 14.71405792 10.24391 8 6.1875 C5.30269309 5.11981601 2.8630494 4.42103668 0 4 C0 2.68 0 1.36 0 0 Z " fill="#2B3789" transform="translate(36,480)"/>
<path d="M0 0 C0.74813965 0.0095874 1.4962793 0.0191748 2.26708984 0.02905273 C7.8587023 0.29351248 11.5706385 1.97916544 15.625 5.875 C19.03660743 11.33357188 19.75298423 16.3929195 19.74023438 22.73413086 C19.739328 24.53485802 19.739328 24.53485802 19.73840332 26.3719635 C19.73209424 27.71542474 19.72553304 29.05888482 19.71875 30.40234375 C19.71492506 31.84382577 19.71131109 33.28530836 19.70788574 34.72679138 C19.641414 56.13862682 19.38718411 77.55009606 19.16143799 98.96069336 C19.08895944 105.8763852 19.01905 112.79210348 18.94868469 119.70781708 C18.84270388 130.09689901 18.73356264 140.48594329 18.625 150.875 C44.695 150.875 70.765 150.875 97.625 150.875 C96.965 156.815 96.305 162.755 95.625 168.875 C59.985 168.875 24.345 168.875 -12.375 168.875 C-12.36339844 160.24859375 -12.35179687 151.6221875 -12.33984375 142.734375 C-12.33407029 136.50627482 -12.32894657 130.2781767 -12.32474613 124.05007553 C-12.31924684 116.02198429 -12.31231363 107.99390366 -12.29956055 99.96582031 C-12.2894537 93.60040155 -12.28310944 87.23499086 -12.28091151 80.86956429 C-12.27963092 77.51293978 -12.27615767 74.15635632 -12.26926994 70.79973602 C-12.25227032 62.15737838 -12.28098836 53.51688647 -12.375 44.875 C-12.3876955 43.59845047 -12.40039101 42.32190094 -12.41347122 41.00666809 C-12.46252844 37.19401039 -12.54175616 33.38319535 -12.63110352 29.57128906 C-12.64482215 28.42622768 -12.65854078 27.28116631 -12.67267513 26.1014061 C-12.97659228 15.78330086 -16.17660056 8.96735482 -22.375 0.875 C-14.89460024 0.01594349 -7.51891332 -0.26004914 0 0 Z " fill="#2B3789" transform="translate(1066.375,482.125)"/>
<path d="M0 0 C10.23 0 20.46 0 31 0 C31.0093457 4.62322266 31.01869141 9.24644531 31.02832031 14.00976562 C31.06207976 29.28086584 31.11742213 44.5518314 31.18390274 59.82282257 C31.22368454 69.08207992 31.2560814 78.34125238 31.27099609 87.60058594 C31.28401707 95.6725603 31.31099309 103.74434782 31.35461307 111.81621695 C31.3772179 116.08886219 31.39291127 120.36127708 31.39188385 124.63398743 C31.39113665 128.65931063 31.40911095 132.6841248 31.44116783 136.70931625 C31.44965523 138.18303479 31.45142462 139.6568105 31.44580269 141.13054276 C31.41937007 149.12753813 31.49313224 155.23654581 36 162 C38.6091387 164.32277416 38.6091387 164.32277416 41 166 C41 166.66 41 167.32 41 168 C36.69504985 168.09935088 32.39071817 168.17169268 28.08496094 168.21972656 C26.62227748 168.23976332 25.15967334 168.26700104 23.69726562 168.30175781 C21.5870399 168.35063225 19.47787864 168.37304659 17.3671875 168.390625 C16.09987793 168.41157227 14.83256836 168.43251953 13.52685547 168.45410156 C9.16197086 167.89209925 7.26035622 166.96645049 4 164 C-1.00691884 156.56356829 -0.54383961 148.37666987 -0.45410156 139.74975586 C-0.45297158 138.22135447 -0.45360989 136.69295091 -0.45587158 135.16455078 C-0.45701377 131.03898923 -0.43358537 126.91389801 -0.40557575 122.78844523 C-0.38047901 118.46832749 -0.3782136 114.14819758 -0.37347412 109.82801819 C-0.36106856 101.65775089 -0.32827991 93.48769905 -0.28807616 85.3175264 C-0.24328291 76.01160021 -0.22135246 66.70566343 -0.20129442 57.39965618 C-0.15954492 38.26629067 -0.08622302 19.13322034 0 0 Z " fill="#2B3789" transform="translate(213,483)"/>
<path d="M0 0 C5.9987119 6.13504626 8.84716042 12.86341996 9.0625 21.375 C8.94875269 30.71365451 6.15388314 38.35539876 -0.3125 45.15625 C-8.22096672 51.91671349 -17.19997977 52.58051465 -27.25 51.8125 C-34.61335107 50.00433983 -41.52374506 45.09886615 -45.6015625 38.6875 C-49.63900692 30.78688933 -50.62775648 22.75511227 -48.6015625 14.015625 C-45.3826082 5.15662257 -39.74561447 -1.18013468 -31.25 -5.1875 C-20.18605305 -8.82630922 -9.2942779 -6.25576397 0 0 Z M-36.625 8.6875 C-40.38347005 14.21285951 -41.92232531 19.08924694 -41.25 25.8125 C-39.28051465 33.54086024 -35.78975938 38.29914493 -29.25 42.8125 C-25.14196941 45.17461759 -20.90161792 45.48440037 -16.25 44.8125 C-9.59823537 42.80681525 -5.12080698 38.45831792 -1.25 32.8125 C1.41293127 26.93186012 1.20484414 21.01518879 -0.25 14.8125 C-3.01086837 8.21086641 -7.14285146 4.44244195 -13.66796875 1.625 C-22.77039536 -1.23930368 -30.71284063 1.21498864 -36.625 8.6875 Z " fill="#2B3789" transform="translate(496.25,712.1875)"/>
<path d="M0 0 C3.11771358 1.6937277 5.38989747 3.77979493 7 7 C7.56131398 11.60093429 7.50409493 15.04782069 5.3125 19.1875 C4.549375 20.115625 3.78625 21.04375 3 22 C2.54496094 22.56074219 2.08992187 23.12148438 1.62109375 23.69921875 C0.43436567 25.14966418 -0.78037538 26.57710462 -2 28 C2.455 33.445 2.455 33.445 7 39 C9.32906782 35.89457624 10.47707913 34.20834534 11.6875 30.75 C12.120625 29.5125 12.55375 28.275 13 27 C15.64 27 18.28 27 21 27 C20.4253379 31.78642607 19.01754357 35.53788787 16.9375 39.875 C16.38964844 41.02742187 15.84179688 42.17984375 15.27734375 43.3671875 C14.85582031 44.23601563 14.43429687 45.10484375 14 46 C14.45890625 46.45890625 14.9178125 46.9178125 15.390625 47.390625 C18.59375 50.59375 21.796875 53.796875 25 57 C15.42331839 57.76681614 15.42331839 57.76681614 11.93359375 55.88671875 C10.3125 54.5 10.3125 54.5 8 52 C7.52949219 52.34933594 7.05898438 52.69867187 6.57421875 53.05859375 C5.95160156 53.51363281 5.32898438 53.96867188 4.6875 54.4375 C4.07261719 54.88996094 3.45773437 55.34242188 2.82421875 55.80859375 C-2.16804456 59.06906551 -8.27952526 58.54022595 -14 58 C-18.45504008 56.49943676 -21.48099959 53.95025064 -24 50 C-25.39169793 45.09988991 -25.61970463 40.4769624 -23.4375 35.8125 C-21.11491104 31.81112744 -18.15584234 28.36623183 -15 25 C-15.66 24.05125 -16.32 23.1025 -17 22.125 C-19.63114071 17.51816288 -19.71261016 13.18181956 -19 8 C-17.66028209 4.50184767 -16.48161448 3.34065414 -13.4375 1.1875 C-8.85183816 -0.39663773 -4.79744188 -0.85529758 0 0 Z M-11 9 C-12.27635405 11.20403449 -12.27635405 11.20403449 -12 14 C-10.87815105 16.79423489 -9.50593738 19.39531003 -8 22 C-3.13510826 18.36026751 -3.13510826 18.36026751 0.25 13.4375 C-0.13108317 9.72193913 -2.22234925 8.31470896 -5 6 C-7.38078394 6 -9.17003635 7.67327635 -11 9 Z M-11 32 C-15.14480395 36.14480395 -16.88755028 38.92771503 -17 45 C-16.19635836 48.21456656 -15.09779685 48.93014511 -12.375 50.875 C-7.9860506 52.33798313 -5.21490973 51.72183546 -1 50 C1.41802092 48.52597456 1.41802092 48.52597456 3 47 C1.36851044 43.10667264 -1.17627942 40.35280925 -4 37.25 C-4.45117188 36.74339844 -4.90234375 36.23679687 -5.3671875 35.71484375 C-6.53360812 34.43454183 -7.76283971 33.21208271 -9 32 C-9.66 32 -10.32 32 -11 32 Z " fill="#2B3789" transform="translate(636,706)"/>
<path d="M0 0 C20.83783784 0 20.83783784 0 26.4375 5.3125 C29.3455465 10.31433998 30.49360009 14.13856769 29.54296875 19.9765625 C28.36665891 24.36022075 26.2510805 27.85930896 22.875 30.9375 C21 32 21 32 19 32 C23.17507045 38.75702191 28.0198319 44.89282846 33.03613281 51.03344727 C37 55.90335908 37 55.90335908 37 57 C33.20534705 57.53982869 29.7800546 57.71367636 26 57 C22.91601967 54.57254307 21.08354135 51.58177992 19.0625 48.25 C17.99364229 46.60757758 16.92210714 44.96689389 15.84765625 43.328125 C15.39398682 42.5949707 14.94031738 41.86181641 14.47290039 41.10644531 C12.76264644 38.53025834 12.76264644 38.53025834 9 35 C9 42.26 9 49.52 9 57 C6.03 57 3.06 57 0 57 C0 38.19 0 19.38 0 0 Z M8 7 C8 13.6 8 20.2 8 27 C14.14647204 27 15.59339987 26.90585012 20 23 C21.86322425 18.97543563 22.30998831 17.00746199 21 12.75 C18.61077043 9.46480934 16.80325786 8.36917283 13 7 C11.35 7 9.7 7 8 7 Z " fill="#2B3789" transform="translate(342,706)"/>
<path d="M0 0 C20.832 0 20.832 0 25.546875 4.46484375 C29.41543202 8.90933762 30.35491789 11.83231098 30.28125 17.55078125 C29.66205021 22.94297942 27.25058562 26.80896607 23.375 30.5 C21 32 21 32 19 32 C24.02336293 38.76758616 29.0936105 45.44644602 34.46875 51.94140625 C36 54 36 54 37 57 C33.52241984 57.5667686 30.4637045 57.72224088 27 57 C23.96862154 54.47486784 22.10081575 51.31008893 20 48 C18.57353813 46.01286299 17.13596281 44.03365764 15.6875 42.0625 C15.03136719 41.14597656 14.37523437 40.22945312 13.69921875 39.28515625 C12.05431397 36.95731797 12.05431397 36.95731797 10 35 C9.05862745 37.82411765 8.88274618 39.52918032 8.90234375 42.44921875 C8.90556641 43.29677734 8.90878906 44.14433594 8.91210938 45.01757812 C8.92048828 45.89865234 8.92886719 46.77972656 8.9375 47.6875 C8.94201172 48.58017578 8.94652344 49.47285156 8.95117188 50.39257812 C8.96294996 52.59508073 8.98088519 54.79754885 9 57 C6.03 57 3.06 57 0 57 C0 38.19 0 19.38 0 0 Z M8 7 C7.97111486 10.14581423 7.95324077 13.29159469 7.9375 16.4375 C7.92912109 17.33533203 7.92074219 18.23316406 7.91210938 19.15820312 C7.90888672 20.01220703 7.90566406 20.86621094 7.90234375 21.74609375 C7.89710693 22.53685303 7.89187012 23.3276123 7.88647461 24.14233398 C7.79504091 26.01592689 7.79504091 26.01592689 9 27 C14.14959537 26.98132333 14.14959537 26.98132333 18.640625 24.8046875 C20.95613714 22.26294716 21.96234011 20.26899924 22.4375 16.875 C21.88112284 13.15289588 21.88112284 13.15289588 20 10 C15.79787083 7.3259178 12.90020032 6.8631229 8 7 Z " fill="#2B3789" transform="translate(512,706)"/>
<path d="M0 0 C0.66 0 1.32 0 2 0 C7.05120671 11.55654867 11.93599919 23.17447429 16.63562012 34.87811279 C17.16693009 36.20121133 17.69938681 37.52384999 18.23303223 38.8460083 C18.99122218 40.72652593 19.74374186 42.60932659 20.49609375 44.4921875 C20.93107178 45.57870605 21.3660498 46.66522461 21.81420898 47.78466797 C23.0604071 51.16379689 24.05291983 54.52691585 25 58 C22.03 58 19.06 58 16 58 C15.18395001 56.0848421 14.37229368 54.16781166 13.5625 52.25 C13.11003906 51.18265625 12.65757812 50.1153125 12.19140625 49.015625 C11 46 11 46 10 42 C3.73 42 -2.54 42 -9 42 C-9.99 44.97 -10.98 47.94 -12 51 C-12.97381959 53.34438048 -13.96440702 55.68224427 -15 58 C-17.97 58 -20.94 58 -24 58 C-22.44107482 53.06826917 -20.53302578 48.34944084 -18.515625 43.59375 C-18.00850983 42.39111511 -18.00850983 42.39111511 -17.4911499 41.16418457 C-16.41286413 38.60856481 -15.33144016 36.05428629 -14.25 33.5 C-13.53886519 31.81518744 -12.82792597 30.1302923 -12.1171875 28.4453125 C-8.10920054 18.95015089 -4.07256599 9.46764624 0 0 Z M0 18 C-1.0063655 20.43504509 -2.00526413 22.87270864 -3 25.3125 C-3.28617188 26.00279297 -3.57234375 26.69308594 -3.8671875 27.40429688 C-5.08910744 30.41545674 -6 32.71886984 -6 36 C-1.38 36 3.24 36 8 36 C7.0504654 33.18424175 6.09091375 30.37263511 5.125 27.5625 C4.85558594 26.76005859 4.58617187 25.95761719 4.30859375 25.13085938 C4.04433594 24.36708984 3.78007813 23.60332031 3.5078125 22.81640625 C3.26691895 22.10943604 3.02602539 21.40246582 2.77783203 20.67407227 C2.11814241 18.79961195 2.11814241 18.79961195 0 18 Z " fill="#2B3789" transform="translate(839,705)"/>
<path d="M0 0 C2.97 0 5.94 0 9 0 C13.09979531 9.66710596 16.88259745 19.43714674 20.6015625 29.25585938 C21.02695312 30.37154297 21.45234375 31.48722656 21.890625 32.63671875 C22.46345215 34.14818481 22.46345215 34.14818481 23.04785156 35.69018555 C23.79539297 37.9234787 23.79539297 37.9234787 25 39 C26.49612551 35.35734354 27.98930053 31.71349195 29.47998047 28.06860352 C30.23126117 26.23327764 30.98474325 24.39885337 31.73828125 22.56445312 C34.65524235 15.42762165 37.41656577 8.26437102 40 1 C43.3 0.67 46.6 0.34 50 0 C47.88290697 6.68377127 45.34643113 13.03415237 42.5 19.4375 C39.59842668 26.01723138 36.73181257 32.60677322 33.96875 39.24609375 C33.47310547 40.43468994 32.97746094 41.62328613 32.46679688 42.84790039 C31.49931254 45.17433949 30.53695418 47.50291784 29.58007812 49.83374023 C29.14115234 50.88634033 28.70222656 51.93894043 28.25 53.0234375 C27.86328125 53.96106934 27.4765625 54.89870117 27.078125 55.86474609 C26 58 26 58 24 59 C18.11129226 45.78574699 12.31958548 32.53172973 6.6914978 19.20437622 C6.10596029 17.819216 5.51858015 16.43483324 4.92935181 15.05123901 C4.09982143 13.10150115 3.277446 11.14890041 2.45703125 9.1953125 C1.98241455 8.07141113 1.50779785 6.94750977 1.01879883 5.78955078 C0 3 0 3 0 0 Z " fill="#2B3789" transform="translate(679,706)"/>
<path d="M0 0 C0.97646484 0.00322266 1.95292969 0.00644531 2.95898438 0.00976562 C3.96638672 0.01814453 4.97378906 0.02652344 6.01171875 0.03515625 C7.03845703 0.03966797 8.06519531 0.04417969 9.12304688 0.04882812 C11.64849757 0.06057441 14.1738278 0.0770006 16.69921875 0.09765625 C16.69921875 2.73765625 16.69921875 5.37765625 16.69921875 8.09765625 C10.42921875 7.76765625 4.15921875 7.43765625 -2.30078125 7.09765625 C-2.30078125 13.03765625 -2.30078125 18.97765625 -2.30078125 25.09765625 C3.63921875 25.09765625 9.57921875 25.09765625 15.69921875 25.09765625 C15.69921875 27.40765625 15.69921875 29.71765625 15.69921875 32.09765625 C9.75921875 32.09765625 3.81921875 32.09765625 -2.30078125 32.09765625 C-2.30078125 38.03765625 -2.30078125 43.97765625 -2.30078125 50.09765625 C4.29921875 50.09765625 10.89921875 50.09765625 17.69921875 50.09765625 C17.69921875 52.40765625 17.69921875 54.71765625 17.69921875 57.09765625 C8.45921875 57.09765625 -0.78078125 57.09765625 -10.30078125 57.09765625 C-10.30078125 38.61765625 -10.30078125 20.13765625 -10.30078125 1.09765625 C-6.53979267 0.34545853 -3.73900836 -0.02186555 0 0 Z " fill="#2B3789" transform="translate(392.30078125,705.90234375)"/>
<path d="M0 0 C0 2.64 0 5.28 0 8 C-0.59167969 7.96519531 -1.18335938 7.93039062 -1.79296875 7.89453125 C-5.52816429 7.76657186 -8.44878256 7.80477716 -12 9.0625 C-14.26952748 10.96624119 -14.26952748 10.96624119 -15.125 14.3125 C-14.99273585 18.21429255 -14.33665282 19.66517324 -11.66796875 22.4609375 C-9.12542332 24.80698644 -6.5308528 27.08143328 -3.8671875 29.2890625 C-0.46183252 32.40945054 1.68355396 35.32317775 2.23828125 40.015625 C2.42343749 45.5898024 1.85195249 49.77598392 -2 54 C-7.89336397 58.78835822 -14.72232401 58.65768627 -22 58 C-22.99 57.67 -23.98 57.34 -25 57 C-25 54.36 -25 51.72 -25 49 C-24.19175781 49.10699219 -23.38351562 49.21398437 -22.55078125 49.32421875 C-21.48214844 49.44410156 -20.41351563 49.56398438 -19.3125 49.6875 C-17.72888672 49.87892578 -17.72888672 49.87892578 -16.11328125 50.07421875 C-12.47930432 49.98758693 -10.83965418 49.22567489 -8 47 C-6.82889551 44.1403994 -6.82889551 44.1403994 -7 41 C-9.61130332 35.60977591 -13.91570452 32.40616996 -18.40625 28.59765625 C-22.40642246 24.59145943 -24.42837868 20.691703 -24.4375 15 C-24.25917122 10.24932124 -23.36065034 7.52868285 -20 4 C-13.86387811 -0.72009376 -7.45818379 -0.44749103 0 0 Z " fill="#2B3789" transform="translate(440,706)"/>
<path d="M0 0 C0.97324219 -0.00257813 1.94648437 -0.00515625 2.94921875 -0.0078125 C5.3125 0.125 5.3125 0.125 6.3125 1.125 C6.45365161 3.79558851 6.35497107 6.44932238 6.3125 9.125 C5.63703125 9.02960937 4.9615625 8.93421875 4.265625 8.8359375 C3.37359375 8.72507812 2.4815625 8.61421875 1.5625 8.5 C0.68078125 8.38398437 -0.2009375 8.26796875 -1.109375 8.1484375 C-3.95099367 8.1226046 -5.33587549 8.56784323 -7.6875 10.125 C-9.16646861 13.08293723 -9.1230582 14.82720224 -8.6875 18.125 C-6.05172242 22.3655868 -2.28967897 25.50725184 1.5 28.6875 C6.12522612 32.66714006 8.05412905 35.8365716 8.75 42 C8.52711389 46.6538619 7.18161385 50.44079699 4.3125 54.125 C-0.8319574 58.52746835 -6.53989585 58.52167667 -13.05078125 58.36328125 C-15.6875 58.125 -15.6875 58.125 -18.6875 57.125 C-18.6875 54.485 -18.6875 51.845 -18.6875 49.125 C-17.45773437 49.26808594 -17.45773437 49.26808594 -16.203125 49.4140625 C-15.12546875 49.52492188 -14.0478125 49.63578125 -12.9375 49.75 C-11.87015625 49.86601563 -10.8028125 49.98203125 -9.703125 50.1015625 C-6.61905423 50.12553196 -5.21431735 49.82316131 -2.6875 48.125 C-1.03597122 45.84431739 -0.67584435 44.5679146 -0.75 41.75 C-2.64681936 36.4389058 -6.62311542 33.1192335 -10.8125 29.5625 C-17.35407864 23.87256085 -17.35407864 23.87256085 -17.99609375 18.58203125 C-18.26312644 12.58593362 -17.85492931 8.75547701 -13.6875 4.125 C-9.4523888 0.28693048 -5.58228103 -0.01490596 0 0 Z " fill="#2B3789" transform="translate(884.6875,705.875)"/>
<path d="M0 0 C5.03539677 -0.02477487 10.07075781 -0.04289549 15.10620117 -0.05493164 C16.81812152 -0.05995099 18.53003761 -0.06676785 20.24194336 -0.07543945 C22.70687922 -0.08761021 25.17175825 -0.09325238 27.63671875 -0.09765625 C28.77919319 -0.10539818 28.77919319 -0.10539818 29.94474792 -0.11329651 C33.75849825 -0.11369638 37.29315771 0.07409039 41 1 C41 3.31 41 5.62 41 8 C35.39 7.67 29.78 7.34 24 7 C24.33 23.5 24.66 40 25 57 C22.03 57 19.06 57 16 57 C16 40.5 16 24 16 7 C7.585 7.495 7.585 7.495 -1 8 C-1 2 -1 2 0 0 Z " fill="#2B3789" transform="translate(548,706)"/>
<path d="M0 0 C7 0 7 0 9 1 C9 17.17 9 33.34 9 50 C15.27 50 21.54 50 28 50 C28 52.31 28 54.62 28 57 C18.76 57 9.52 57 0 57 C0 38.19 0 19.38 0 0 Z " fill="#2B3789" transform="translate(752,706)"/>
<path d="M0 0 C2.97 0 5.94 0 9 0 C8.67 16.5 8.34 33 8 50 C14.6 50 21.2 50 28 50 C27.67 52.31 27.34 54.62 27 57 C18.09 57 9.18 57 0 57 C0 38.19 0 19.38 0 0 Z " fill="#2B3789" transform="translate(787,706)"/>
<path d="M0 0 C2.97 0 5.94 0 9 0 C9 18.81 9 37.62 9 57 C6.03 57 3.06 57 0 57 C0 38.19 0 19.38 0 0 Z " fill="#2B3789" transform="translate(733,706)"/>
</svg>
