<?xml version="1.0" encoding="UTF-8"?>
<svg version="1.1" xmlns="http://www.w3.org/2000/svg" width="512" height="512">
<path d="M0 0 C21.00977721 -0.44485908 42.01877281 -0.7793753 63.03231239 -0.98443127 C72.79072592 -1.08219829 82.54620527 -1.21533847 92.30273438 -1.43334961 C100.81197325 -1.62339837 109.31908715 -1.74545571 117.83038938 -1.7876814 C122.33388583 -1.81235198 126.83130685 -1.86980379 131.33284378 -2.00887108 C158.61591019 -2.8192616 158.61591019 -2.8192616 165.81548309 1.81054306 C170.30768 6.09572152 173.11286607 10.94135366 175.72004318 16.52335167 C177.91557738 20.77159351 180.97201953 24.32366364 184 28 C189.49317679 34.97754148 194.78870245 42.0866978 200.03564453 49.25048828 C204.03531916 54.70663335 208.10733927 60.09274067 212.25 65.44140625 C221.08292247 76.84725197 229.7910109 88.351805 238.42578125 99.90820312 C242.53852723 105.40472824 246.70553247 110.85893574 250.875 116.3125 C258.37002474 126.1208374 265.71586474 136.03432347 273 146 C276.7146331 144.28796731 278.48225019 142.44436197 281 139.1875 C284.50404042 134.77863335 288.14414386 130.60326136 292 126.5 C295.64953769 122.60490841 299.15704614 118.66658017 302.5 114.5 C306.31994011 109.73891522 310.38938819 105.28726975 314.55859375 100.8359375 C317.67568554 97.48883131 320.63581113 94.06985859 323.5 90.5 C326.84301959 86.3333379 330.35115137 82.39580188 334 78.5 C338.45874444 73.73911006 342.6379783 68.8353218 346.72265625 63.74609375 C349.66077451 60.20321701 352.78231178 56.84558228 355.91650391 53.47802734 C358.88730066 50.26683127 361.69968321 46.97363159 364.4375 43.5625 C368.28174639 38.78298078 372.37089045 34.30679656 376.56054688 29.83398438 C379.65765465 26.50862723 382.59614376 23.11289193 385.4375 19.5625 C386.45853569 18.3281572 386.45853569 18.3281572 387.50019836 17.06887817 C388.78874169 15.48699966 390.07371622 13.90046748 391.28801537 12.26090622 C400.20914609 0.23557642 400.20914609 0.23557642 407.21084595 -1.22967529 C411.99787611 -1.78305501 416.74786872 -1.58043534 421.55078125 -1.3671875 C423.30331944 -1.34101307 425.05596144 -1.3211142 426.80863953 -1.30715942 C431.38008017 -1.25417921 435.94510206 -1.1171381 440.51403809 -0.96130371 C445.19272015 -0.81701458 449.87245981 -0.75392341 454.55273438 -0.68359375 C463.7046146 -0.53429838 472.85176989 -0.29599344 482 0 C480.28877436 3.63401577 478.20066113 6.12637103 475.4375 9.0625 C472.02391359 12.73250604 468.76044817 16.45998885 465.625 20.375 C461.75781137 25.1714071 457.65019284 29.6704146 453.44189453 34.16357422 C450.32460664 37.51081785 447.36433518 40.92995906 444.5 44.5 C440.68005989 49.26108478 436.61061181 53.71273025 432.44140625 58.1640625 C429.32431446 61.51116869 426.36418887 64.93014141 423.5 68.5 C419.68005989 73.26108478 415.61061181 77.71273025 411.44140625 82.1640625 C408.32431446 85.51116869 405.36418887 88.93014141 402.5 92.5 C398.68005989 97.26108478 394.61061181 101.71273025 390.44140625 106.1640625 C387.32431446 109.51116869 384.36418887 112.93014141 381.5 116.5 C377.68005989 121.26108478 373.61061181 125.71273025 369.44140625 130.1640625 C366.32431446 133.51116869 363.36418887 136.93014141 360.5 140.5 C356.68005989 145.26108478 352.61061181 149.71273025 348.44140625 154.1640625 C345.32431446 157.51116869 342.36418887 160.93014141 339.5 164.5 C336.15696252 168.66668439 332.64868696 172.60402205 329 176.5 C322.93324517 182.98315745 316.93473707 189.5978944 312 197 C320.29636715 208.33780521 328.69117511 219.5883587 337.25341797 230.7265625 C346.23457705 242.41688307 355.14494742 254.14977294 363.85131836 266.04638672 C368.37077773 272.19942428 373.03837804 278.22506791 377.75048828 284.23120117 C382.54392479 290.36179643 387.15850055 296.61196616 391.75 302.89453125 C395.74126806 308.33797943 399.83358142 313.68967632 404 319 C409.38843796 325.86785285 414.59945326 332.84701976 419.75 339.89453125 C423.74126806 345.33797943 427.83358142 350.68967632 432 356 C437.38843796 362.86785285 442.59945326 369.84701976 447.75 376.89453125 C451.74126806 382.33797943 455.83358142 387.68967632 460 393 C465.38843796 399.86785285 470.59945326 406.84701976 475.75 413.89453125 C479.74126859 419.33798016 483.83358618 424.68967069 488 430 C494.71716219 438.56155486 501.18444606 447.29571648 507.59643555 456.08740234 C508.59738618 457.45136952 509.62847548 458.79343087 510.67895508 460.11962891 C512 462 512 462 512 464 C491.42481417 464.28058127 470.84994464 464.49205685 450.27323246 464.62174606 C440.71853163 464.68356999 431.16502083 464.76782098 421.61108398 464.90527344 C413.28172657 465.02505054 404.95323102 465.10233723 396.62303632 465.12906194 C392.21351261 465.14468054 387.80645394 465.18125462 383.39772224 465.26876068 C379.24283537 465.35055596 375.09141421 465.37527771 370.93579865 465.35729218 C369.41552023 465.36057915 367.89511959 465.38426539 366.37553978 465.4304657 C354.9204674 465.76149569 354.9204674 465.76149569 350.1520977 461.38784027 C347.77904357 458.45096484 345.89371532 455.26365519 344 452 C342.93502886 450.5513832 341.85188459 449.11551499 340.734375 447.70703125 C340.24388672 447.06636719 339.75339844 446.42570312 339.24804688 445.765625 C338.75369141 445.12109375 338.25933594 444.4765625 337.75 443.8125 C336.63019275 442.35027235 335.51040155 440.88803241 334.390625 439.42578125 C333.54854492 438.3267749 333.54854492 438.3267749 332.68945312 437.20556641 C329.95733178 433.63880568 327.22880728 430.06929641 324.5 426.5 C323.4166848 425.08331947 322.33335145 423.66665282 321.25 422.25 C301.75 396.75 282.25 371.25 262.75 345.75 C262.21342773 345.04834717 261.67685547 344.34669434 261.12402344 343.6237793 C260.04387277 342.21123711 258.9637943 340.79863971 257.88378906 339.38598633 C255.12735911 335.78075228 252.36956855 332.17657239 249.609375 328.57421875 C249.05161377 327.84581787 248.49385254 327.11741699 247.91918945 326.36694336 C246.81945501 324.9310315 245.71904812 323.49563436 244.61791992 322.06079102 C242.13311177 318.81700079 239.66709003 315.56314321 237.25390625 312.265625 C236.83786133 311.69948486 236.42181641 311.13334473 235.99316406 310.55004883 C234.89229592 309.04648513 233.79934759 307.53713164 232.70703125 306.02734375 C232.14371094 305.35832031 231.58039063 304.68929688 231 304 C230.34 304 229.68 304 229 304 C227.64902626 305.51151546 226.37072655 307.08813313 225.125 308.6875 C221.57547927 313.13296085 217.89442935 317.35497582 214 321.5 C210.35049801 325.39513054 206.84295783 329.33341487 203.5 333.5 C199.68005989 338.26108478 195.61061181 342.71273025 191.44140625 347.1640625 C188.32431446 350.51116869 185.36418887 353.93014141 182.5 357.5 C178.68005989 362.26108478 174.61061181 366.71273025 170.44140625 371.1640625 C167.32431446 374.51116869 164.36418887 377.93014141 161.5 381.5 C157.68005989 386.26108478 153.61061181 390.71273025 149.44140625 395.1640625 C146.32431446 398.51116869 143.36418887 401.93014141 140.5 405.5 C136.68005989 410.26108478 132.61061181 414.71273025 128.44140625 419.1640625 C125.32431446 422.51116869 122.36418887 425.93014141 119.5 429.5 C115.68498567 434.2549454 111.62221425 438.70230772 107.45678711 443.14648438 C103.43511035 447.46274461 99.69677005 451.93433304 96.03515625 456.5625 C95.02775391 457.7690625 95.02775391 457.7690625 94 459 C93.29430374 459.86356613 92.58860748 460.72713226 91.86152649 461.61686707 C88.28057428 464.59915123 85.63514409 464.67873596 81.18041992 464.56762695 C80.02352661 464.56872215 80.02352661 464.56872215 78.84326172 464.56983948 C76.30493778 464.56636796 73.76847033 464.52753062 71.23046875 464.48828125 C69.4664256 464.4789515 67.70236947 464.47183615 65.93830872 464.46684265 C61.30359904 464.44778548 56.66967742 464.39869609 52.03527832 464.34332275 C47.30292419 464.29210241 42.57044227 464.26932268 37.83789062 464.24414062 C28.55824821 464.19057581 19.27918973 464.10527877 10 464 C11.61817175 460.59170063 13.47765964 458.20469242 16.0625 455.4375 C19.27291085 451.94081047 22.34456239 448.39200607 25.3125 444.6875 C29.20320708 439.87334412 33.33000466 435.35075666 37.55786133 430.83666992 C40.67524726 427.48935757 43.63559167 424.07013212 46.5 420.5 C50.31994011 415.73891522 54.38938819 411.28726975 58.55859375 406.8359375 C61.67568554 403.48883131 64.63581113 400.06985859 67.5 396.5 C71.31994011 391.73891522 75.38938819 387.28726975 79.55859375 382.8359375 C82.67568554 379.48883131 85.63581113 376.06985859 88.5 372.5 C92.31994011 367.73891522 96.38938819 363.28726975 100.55859375 358.8359375 C103.67568554 355.48883131 106.63581113 352.06985859 109.5 348.5 C113.31994011 343.73891522 117.38938819 339.28726975 121.55859375 334.8359375 C124.67568554 331.48883131 127.63581113 328.06985859 130.5 324.5 C134.31994011 319.73891522 138.38938819 315.28726975 142.55859375 310.8359375 C145.67568554 307.48883131 148.63581113 304.06985859 151.5 300.5 C155.31994011 295.73891522 159.38938819 291.28726975 163.55859375 286.8359375 C167.45267072 282.65451134 171.0613474 278.2969983 174.6328125 273.8359375 C177.90874049 269.91131089 181.39438833 266.19529975 184.92773438 262.50195312 C187.74385068 259.52128288 190.04314404 256.60753718 192 253 C191.64397705 252.54375244 191.2879541 252.08750488 190.92114258 251.61743164 C182.76178994 241.15628817 174.65367807 230.65835011 166.60888672 220.10888672 C163.90914153 216.57013119 161.20430311 213.03527277 158.5 209.5 C157.4166425 208.08335181 156.33330916 206.66668515 155.25 205.25 C154.71375 204.54875 154.1775 203.8475 153.625 203.125 C113 150 72.375 96.875 31.75 43.75 C31.21342773 43.04834717 30.67685547 42.34669434 30.12402344 41.6237793 C29.04387277 40.21123711 27.9637943 38.79863971 26.88378906 37.38598633 C24.12735911 33.78075228 21.36956855 30.17657239 18.609375 26.57421875 C15.89967401 23.03732528 13.1946691 19.49688609 10.49267578 15.95410156 C9.05998791 14.07853176 7.62199023 12.20713036 6.18359375 10.3359375 C5.35125267 9.24502799 4.51920106 8.15389753 3.6875 7.0625 C2.96949219 6.12535156 2.25148437 5.18820313 1.51171875 4.22265625 C-0 2 -0 2 0 0 Z M93 46 C93.40117538 46.53476456 93.80235077 47.06952911 94.21568298 47.62049866 C94.74770828 48.32975998 95.27973358 49.0390213 95.82788086 49.76977539 C96.35280624 50.46953995 96.87773163 51.1693045 97.41856384 51.89027405 C98.865238 53.82021981 100.31009842 55.75150319 101.75390625 57.68359375 C108.56269533 66.78810346 115.44099616 75.83706983 122.35888672 84.85888672 C125.07575428 88.40350566 127.78763701 91.95193377 130.5 95.5 C131.58330916 96.91668515 132.6666425 98.33335181 133.75 99.75 C270.25 278.25 270.25 278.25 271.87573242 280.37597656 C272.95660017 281.78940651 274.03749201 283.20281804 275.1184082 284.61621094 C277.86466505 288.20724701 280.61047303 291.7986248 283.35546875 295.390625 C288.22870225 301.76681836 293.1042552 308.14106814 298 314.5 C303.45908318 321.59063469 308.893078 328.70036158 314.32666016 335.81054688 C317.05033264 339.37428992 319.77521663 342.93710631 322.5 346.5 C323.58333938 347.91666204 324.66667271 349.33332872 325.75 350.75 C326.28625 351.45125 326.8225 352.1525 327.375 352.875 C345.25 376.25 345.25 376.25 346.8762207 378.37670898 C347.95533993 379.78779001 349.03460335 381.19876078 350.11401367 382.60961914 C352.88803918 386.23583735 355.65923399 389.86416611 358.42578125 393.49609375 C359.2765625 394.61177734 359.2765625 394.61177734 360.14453125 395.75 C361.20929075 397.1464059 362.27318227 398.54347436 363.3359375 399.94140625 C364.34309684 401.261495 365.36988054 402.56681414 366.41455078 403.85742188 C368 406 368 406 369.40966797 408.70507812 C371.35229852 411.98751396 372.83067264 413.83688425 376 416 C382.98020414 417.66887292 390.39540967 416.93639868 397.5 416.625 C399.4868675 416.57479386 401.47385651 416.52917442 403.4609375 416.48828125 C408.31030822 416.37852842 413.15381386 416.2062612 418 416 C414.09886971 409.97433524 409.96160349 404.24539524 405.5 398.625 C400.55100579 392.33059692 395.72178227 385.96649945 391 379.5 C386.43346648 373.25099225 381.77753014 367.0892181 377 361 C371.61156204 354.13214715 366.40054674 347.15298024 361.25 340.10546875 C357.25873104 334.66201934 353.16639153 329.31034633 349 324 C343.5184888 317.01284095 338.21166519 309.91380416 332.96435547 302.74951172 C328.54653864 296.72295912 324.02715401 290.78923144 319.45214844 284.88085938 C310.54354331 273.34220875 301.75841883 261.71828085 293.14941406 249.95458984 C288.62968748 243.80124261 283.96187395 237.77525328 279.24951172 231.76879883 C274.45607521 225.63820357 269.84149945 219.38803384 265.25 213.10546875 C261.25873194 207.66202057 257.16641858 202.31032368 253 197 C247.61156204 190.13214715 242.40054674 183.15298024 237.25 176.10546875 C233.25873194 170.66202057 229.16641858 165.31032368 225 160 C219.61156204 153.13214715 214.40054674 146.15298024 209.25 139.10546875 C205.25873194 133.66202057 201.16641858 128.31032368 197 123 C191.61156204 116.13214715 186.40054674 109.15298024 181.25 102.10546875 C177.25872888 96.66201639 173.16631515 91.31040867 169 86 C162.994393 78.34270352 157.1913745 70.55153045 151.44921875 62.6953125 C150.88436768 61.96376953 150.3195166 61.23222656 149.73754883 60.47851562 C148 58 148 58 146.40893555 54.78710938 C144.38618391 51.1757187 142.58515386 48.13860704 139 46 C131.38358795 44.008358 123.21587778 44.87610171 115.4375 45.25 C113.26251676 45.31024974 111.08737357 45.3649927 108.91210938 45.4140625 C103.60456134 45.54573974 98.30302642 45.74598235 93 46 Z " fill="#000000" transform="translate(0,24)"/>
</svg>
