<?xml version="1.0" encoding="UTF-8"?>
<svg version="1.1" xmlns="http://www.w3.org/2000/svg" width="960" height="673">
<path d="M0 0 C7.11899651 -0.00030084 14.23795452 -0.00841268 21.35693973 -0.02069908 C63.7475914 -0.09215385 106.11533843 0.02193949 148.49414676 1.11089271 C149.31234945 1.13183817 150.13055213 1.15278363 150.97354883 1.17436379 C168.98868107 1.63905568 186.99893231 2.22142715 205.0075745 2.89116615 C206.12713826 2.93278828 206.12713826 2.93278828 207.26931947 2.97525126 C401.96120714 10.2637307 401.96120714 10.2637307 444.81445926 54.34136146 C453.96346158 64.58824406 460.75985003 75.67611286 466.35352176 88.18511146 C466.81242801 89.16995521 467.27133426 90.15479896 467.74414676 91.16948646 C497.23774182 160.23676603 491.77202932 256.93667941 491.61426395 330.33525795 C491.60286343 335.68067655 491.60966967 341.02589592 491.62114853 346.37130779 C492.00028585 555.32550428 492.00028585 555.32550428 439.72852176 623.18511146 C429.01984861 633.59632148 416.93435124 641.1232048 403.35352176 647.18511146 C402.33387333 647.65561928 401.31422489 648.12612709 400.26367801 648.61089271 C340.33792419 674.04587101 258.41226306 667.5341666 194.41602176 669.81011146 C193.53541836 669.84164943 192.65481495 669.87318741 191.74752659 669.90568107 C148.29482285 671.46012051 104.83090415 672.33743645 61.35352176 672.81011146 C59.84211612 672.82668485 59.84211612 672.82668485 58.30017704 672.84359306 C-30.65942947 673.80439717 -119.73339522 672.42709374 -375.64647824 649.18511146 C-376.82597042 648.74554115 -378.00546261 648.30597084 -379.22069699 647.85308021 C-408.52137946 636.15214761 -430.90422519 612.68031695 -443.64647824 584.18511146 C-444.33483761 582.70784584 -444.33483761 582.70784584 -445.03710324 581.20073646 C-465.90505668 532.33274423 -465.00383366 468.25341593 -467.50545651 416.08418983 C-467.59704684 414.20130587 -467.69270005 412.31861354 -467.7931152 410.43617958 C-468.96248901 388.3469999 -468.833846 366.2296587 -468.83178097 344.11650795 C-468.83170033 339.6545521 -468.83855722 335.19270027 -468.85228878 330.73076576 C-469.48997932 120.07554108 -469.48997932 120.07554108 -416.95897824 49.12261146 C-359.63684849 -6.8664455 -244.45007476 5.11430948 -169.95897824 2.49761146 C-169.09180424 2.46692951 -168.22463024 2.43624756 -167.33117825 2.40463585 C-155.29330219 1.97975101 -143.25453944 1.60109492 -131.21402889 1.25915855 C-128.72035251 1.18724197 -126.22681112 1.11169523 -123.73327023 1.03523964 C-82.50261691 -0.20963799 -41.24484751 -0.00255926 0 0 Z " fill="#FF0000" transform="translate(468.6464782357216,-0.18511146306991577)"/>
<path d="M0 0 C8.88399816 4.73813235 17.65991164 9.45002081 26.3125 14.5625 C28.39419721 15.78442343 30.47624071 17.00575706 32.55859375 18.2265625 C33.61804199 18.84821289 34.67749023 19.46986328 35.76904297 20.11035156 C41.12439285 23.24246643 46.49928772 26.34050345 51.875 29.4375 C52.95434814 30.05955322 54.03369629 30.68160645 55.14575195 31.32250977 C57.33632735 32.58480624 59.52700131 33.8469317 61.71777344 35.10888672 C67.14659942 38.23680148 72.57319281 41.36858448 78 44.5 C80.16665583 45.75001879 82.3333225 47.00001878 84.5 48.25 C88.83333333 50.75 93.16666667 53.25 97.5 55.75 C98.57266113 56.36883057 99.64532227 56.98766113 100.75048828 57.62524414 C102.91557071 58.87435518 105.08060982 60.12354129 107.24560547 61.37280273 C112.68615706 64.51202309 118.12747216 67.64990563 123.5703125 70.78515625 C134.02206199 76.80747329 144.46299548 82.84669337 154.875 88.9375 C163.55262241 94.01275123 172.26605568 99.02258767 181 104 C190.70433453 109.53043076 200.3765614 115.11247244 210.01635742 120.75488281 C215.39060102 123.89906561 220.77274241 127.02871845 226.16796875 130.13671875 C226.76617432 130.48134659 227.36437988 130.82597443 227.98071289 131.18104553 C230.89063503 132.85684362 233.80154484 134.53089359 236.71337891 136.20336914 C237.75284668 136.80141357 238.79231445 137.39945801 239.86328125 138.015625 C240.78407471 138.54446289 241.70486816 139.07330078 242.65356445 139.61816406 C244.47062767 140.68824811 246.24541946 141.83027964 248 143 C246.78416075 146.64751775 245.99712003 146.85255743 242.71484375 148.64453125 C241.80395996 149.14927979 240.89307617 149.65402832 239.95458984 150.17407227 C238.46113037 150.98509399 238.46113037 150.98509399 236.9375 151.8125 C234.8233385 152.9827862 232.71008483 154.15471367 230.59765625 155.328125 C229.50469238 155.93333984 228.41172852 156.53855469 227.28564453 157.16210938 C222.10747831 160.05861965 216.99124414 163.05837101 211.875 166.0625 C204.44037509 170.41758812 196.988422 174.73805953 189.5 179 C182.11755768 183.20248513 174.76881395 187.45896848 167.4375 191.75 C158.06598533 197.23398128 148.65196664 202.6400275 139.21795654 208.01538086 C129.97369114 213.28404442 120.76894033 218.61735907 111.5859375 223.9921875 C104.38998384 228.20023517 97.16087434 232.34671073 89.91650391 236.47070312 C83.3979068 240.18722159 76.91339697 243.9596456 70.4375 247.75 C61.07107202 253.23100467 51.66301227 258.63571341 42.23306274 264.00631714 C32.66005231 269.45942796 23.13031404 274.98159284 13.63671875 280.57226562 C12.71761719 281.11173828 11.79851562 281.65121094 10.8515625 282.20703125 C10.05572754 282.6760083 9.25989258 283.14498535 8.43994141 283.62817383 C5.6781828 285.18093765 2.83385054 286.58307473 0 288 C0 192.96 0 97.92 0 0 Z " fill="#FFFEFE" transform="translate(384,192)"/>
</svg>
